<?xml version="1.0" encoding="utf-8" standalone="no"?>
<!DOCTYPE svg PUBLIC "-//W3C//DTD SVG 1.1//EN"
  "http://www.w3.org/Graphics/SVG/1.1/DTD/svg11.dtd">
<svg xmlns:xlink="http://www.w3.org/1999/xlink" width="720pt" height="360pt" viewBox="0 0 720 360" xmlns="http://www.w3.org/2000/svg" version="1.1">
 <metadata>
  <rdf:RDF xmlns:dc="http://purl.org/dc/elements/1.1/" xmlns:cc="http://creativecommons.org/ns#" xmlns:rdf="http://www.w3.org/1999/02/22-rdf-syntax-ns#">
   <cc:Work>
    <dc:type rdf:resource="http://purl.org/dc/dcmitype/StillImage"/>
    <dc:date>2025-10-15T19:32:00.808414</dc:date>
    <dc:format>image/svg+xml</dc:format>
    <dc:creator>
     <cc:Agent>
      <dc:title>Matplotlib v3.9.2, https://matplotlib.org/</dc:title>
     </cc:Agent>
    </dc:creator>
   </cc:Work>
  </rdf:RDF>
 </metadata>
 <defs>
  <style type="text/css">*{stroke-linejoin: round; stroke-linecap: butt}</style>
 </defs>
 <g id="figure_1">
  <g id="patch_1">
   <path d="M 0 360 
L 720 360 
L 720 0 
L 0 0 
L 0 360 
z
" style="fill: none"/>
  </g>
  <g id="axes_1">
   <g id="patch_2">
    <path d="M 90 320.4 
L 648 320.4 
L 648 43.2 
L 90 43.2 
L 90 320.4 
z
" style="fill: none"/>
   </g>
   <g id="matplotlib.axis_1">
    <g id="xtick_1">
     <g id="line2d_1">
      <defs>
       <path id="mf4e13b173e" d="M 0 0 
L 0 3.5 
" style="stroke: #000000; stroke-width: 0.8"/>
      </defs>
      <g>
       <use xlink:href="#mf4e13b173e" x="144.912699" y="320.4" style="stroke: #000000; stroke-width: 0.8"/>
      </g>
     </g>
     <g id="text_1">
      <!-- 1.0 -->
      <g transform="translate(136.961137 334.998438) scale(0.1 -0.1)">
       <defs>
        <path id="DejaVuSans-31" d="M 794 531 
L 1825 531 
L 1825 4091 
L 703 3866 
L 703 4441 
L 1819 4666 
L 2450 4666 
L 2450 531 
L 3481 531 
L 3481 0 
L 794 0 
L 794 531 
z
" transform="scale(0.015625)"/>
        <path id="DejaVuSans-2e" d="M 684 794 
L 1344 794 
L 1344 0 
L 684 0 
L 684 794 
z
" transform="scale(0.015625)"/>
        <path id="DejaVuSans-30" d="M 2034 4250 
Q 1547 4250 1301 3770 
Q 1056 3291 1056 2328 
Q 1056 1369 1301 889 
Q 1547 409 2034 409 
Q 2525 409 2770 889 
Q 3016 1369 3016 2328 
Q 3016 3291 2770 3770 
Q 2525 4250 2034 4250 
z
M 2034 4750 
Q 2819 4750 3233 4129 
Q 3647 3509 3647 2328 
Q 3647 1150 3233 529 
Q 2819 -91 2034 -91 
Q 1250 -91 836 529 
Q 422 1150 422 2328 
Q 422 3509 836 4129 
Q 1250 4750 2034 4750 
z
" transform="scale(0.015625)"/>
       </defs>
       <use xlink:href="#DejaVuSans-31"/>
       <use xlink:href="#DejaVuSans-2e" x="63.623047"/>
       <use xlink:href="#DejaVuSans-30" x="95.410156"/>
      </g>
     </g>
    </g>
    <g id="xtick_2">
     <g id="line2d_2">
      <g>
       <use xlink:href="#mf4e13b173e" x="262.369042" y="320.4" style="stroke: #000000; stroke-width: 0.8"/>
      </g>
     </g>
     <g id="text_2">
      <!-- 1.5 -->
      <g transform="translate(254.417479 334.998438) scale(0.1 -0.1)">
       <defs>
        <path id="DejaVuSans-35" d="M 691 4666 
L 3169 4666 
L 3169 4134 
L 1269 4134 
L 1269 2991 
Q 1406 3038 1543 3061 
Q 1681 3084 1819 3084 
Q 2600 3084 3056 2656 
Q 3513 2228 3513 1497 
Q 3513 744 3044 326 
Q 2575 -91 1722 -91 
Q 1428 -91 1123 -41 
Q 819 9 494 109 
L 494 744 
Q 775 591 1075 516 
Q 1375 441 1709 441 
Q 2250 441 2565 725 
Q 2881 1009 2881 1497 
Q 2881 1984 2565 2268 
Q 2250 2553 1709 2553 
Q 1456 2553 1204 2497 
Q 953 2441 691 2322 
L 691 4666 
z
" transform="scale(0.015625)"/>
       </defs>
       <use xlink:href="#DejaVuSans-31"/>
       <use xlink:href="#DejaVuSans-2e" x="63.623047"/>
       <use xlink:href="#DejaVuSans-35" x="95.410156"/>
      </g>
     </g>
    </g>
    <g id="xtick_3">
     <g id="line2d_3">
      <g>
       <use xlink:href="#mf4e13b173e" x="379.825384" y="320.4" style="stroke: #000000; stroke-width: 0.8"/>
      </g>
     </g>
     <g id="text_3">
      <!-- 2.0 -->
      <g transform="translate(371.873822 334.998438) scale(0.1 -0.1)">
       <defs>
        <path id="DejaVuSans-32" d="M 1228 531 
L 3431 531 
L 3431 0 
L 469 0 
L 469 531 
Q 828 903 1448 1529 
Q 2069 2156 2228 2338 
Q 2531 2678 2651 2914 
Q 2772 3150 2772 3378 
Q 2772 3750 2511 3984 
Q 2250 4219 1831 4219 
Q 1534 4219 1204 4116 
Q 875 4013 500 3803 
L 500 4441 
Q 881 4594 1212 4672 
Q 1544 4750 1819 4750 
Q 2544 4750 2975 4387 
Q 3406 4025 3406 3419 
Q 3406 3131 3298 2873 
Q 3191 2616 2906 2266 
Q 2828 2175 2409 1742 
Q 1991 1309 1228 531 
z
" transform="scale(0.015625)"/>
       </defs>
       <use xlink:href="#DejaVuSans-32"/>
       <use xlink:href="#DejaVuSans-2e" x="63.623047"/>
       <use xlink:href="#DejaVuSans-30" x="95.410156"/>
      </g>
     </g>
    </g>
    <g id="xtick_4">
     <g id="line2d_4">
      <g>
       <use xlink:href="#mf4e13b173e" x="497.281727" y="320.4" style="stroke: #000000; stroke-width: 0.8"/>
      </g>
     </g>
     <g id="text_4">
      <!-- 2.5 -->
      <g transform="translate(489.330164 334.998438) scale(0.1 -0.1)">
       <use xlink:href="#DejaVuSans-32"/>
       <use xlink:href="#DejaVuSans-2e" x="63.623047"/>
       <use xlink:href="#DejaVuSans-35" x="95.410156"/>
      </g>
     </g>
    </g>
    <g id="xtick_5">
     <g id="line2d_5">
      <g>
       <use xlink:href="#mf4e13b173e" x="614.738069" y="320.4" style="stroke: #000000; stroke-width: 0.8"/>
      </g>
     </g>
     <g id="text_5">
      <!-- 3.0 -->
      <g transform="translate(606.786507 334.998438) scale(0.1 -0.1)">
       <defs>
        <path id="DejaVuSans-33" d="M 2597 2516 
Q 3050 2419 3304 2112 
Q 3559 1806 3559 1356 
Q 3559 666 3084 287 
Q 2609 -91 1734 -91 
Q 1441 -91 1130 -33 
Q 819 25 488 141 
L 488 750 
Q 750 597 1062 519 
Q 1375 441 1716 441 
Q 2309 441 2620 675 
Q 2931 909 2931 1356 
Q 2931 1769 2642 2001 
Q 2353 2234 1838 2234 
L 1294 2234 
L 1294 2753 
L 1863 2753 
Q 2328 2753 2575 2939 
Q 2822 3125 2822 3475 
Q 2822 3834 2567 4026 
Q 2313 4219 1838 4219 
Q 1578 4219 1281 4162 
Q 984 4106 628 3988 
L 628 4550 
Q 988 4650 1302 4700 
Q 1616 4750 1894 4750 
Q 2613 4750 3031 4423 
Q 3450 4097 3450 3541 
Q 3450 3153 3228 2886 
Q 3006 2619 2597 2516 
z
" transform="scale(0.015625)"/>
       </defs>
       <use xlink:href="#DejaVuSans-33"/>
       <use xlink:href="#DejaVuSans-2e" x="63.623047"/>
       <use xlink:href="#DejaVuSans-30" x="95.410156"/>
      </g>
     </g>
    </g>
    <g id="text_6">
     <!-- Distractor probe distance -->
     <g transform="translate(305.460156 348.676562) scale(0.1 -0.1)">
      <defs>
       <path id="DejaVuSans-44" d="M 1259 4147 
L 1259 519 
L 2022 519 
Q 2988 519 3436 956 
Q 3884 1394 3884 2338 
Q 3884 3275 3436 3711 
Q 2988 4147 2022 4147 
L 1259 4147 
z
M 628 4666 
L 1925 4666 
Q 3281 4666 3915 4102 
Q 4550 3538 4550 2338 
Q 4550 1131 3912 565 
Q 3275 0 1925 0 
L 628 0 
L 628 4666 
z
" transform="scale(0.015625)"/>
       <path id="DejaVuSans-69" d="M 603 3500 
L 1178 3500 
L 1178 0 
L 603 0 
L 603 3500 
z
M 603 4863 
L 1178 4863 
L 1178 4134 
L 603 4134 
L 603 4863 
z
" transform="scale(0.015625)"/>
       <path id="DejaVuSans-73" d="M 2834 3397 
L 2834 2853 
Q 2591 2978 2328 3040 
Q 2066 3103 1784 3103 
Q 1356 3103 1142 2972 
Q 928 2841 928 2578 
Q 928 2378 1081 2264 
Q 1234 2150 1697 2047 
L 1894 2003 
Q 2506 1872 2764 1633 
Q 3022 1394 3022 966 
Q 3022 478 2636 193 
Q 2250 -91 1575 -91 
Q 1294 -91 989 -36 
Q 684 19 347 128 
L 347 722 
Q 666 556 975 473 
Q 1284 391 1588 391 
Q 1994 391 2212 530 
Q 2431 669 2431 922 
Q 2431 1156 2273 1281 
Q 2116 1406 1581 1522 
L 1381 1569 
Q 847 1681 609 1914 
Q 372 2147 372 2553 
Q 372 3047 722 3315 
Q 1072 3584 1716 3584 
Q 2034 3584 2315 3537 
Q 2597 3491 2834 3397 
z
" transform="scale(0.015625)"/>
       <path id="DejaVuSans-74" d="M 1172 4494 
L 1172 3500 
L 2356 3500 
L 2356 3053 
L 1172 3053 
L 1172 1153 
Q 1172 725 1289 603 
Q 1406 481 1766 481 
L 2356 481 
L 2356 0 
L 1766 0 
Q 1100 0 847 248 
Q 594 497 594 1153 
L 594 3053 
L 172 3053 
L 172 3500 
L 594 3500 
L 594 4494 
L 1172 4494 
z
" transform="scale(0.015625)"/>
       <path id="DejaVuSans-72" d="M 2631 2963 
Q 2534 3019 2420 3045 
Q 2306 3072 2169 3072 
Q 1681 3072 1420 2755 
Q 1159 2438 1159 1844 
L 1159 0 
L 581 0 
L 581 3500 
L 1159 3500 
L 1159 2956 
Q 1341 3275 1631 3429 
Q 1922 3584 2338 3584 
Q 2397 3584 2469 3576 
Q 2541 3569 2628 3553 
L 2631 2963 
z
" transform="scale(0.015625)"/>
       <path id="DejaVuSans-61" d="M 2194 1759 
Q 1497 1759 1228 1600 
Q 959 1441 959 1056 
Q 959 750 1161 570 
Q 1363 391 1709 391 
Q 2188 391 2477 730 
Q 2766 1069 2766 1631 
L 2766 1759 
L 2194 1759 
z
M 3341 1997 
L 3341 0 
L 2766 0 
L 2766 531 
Q 2569 213 2275 61 
Q 1981 -91 1556 -91 
Q 1019 -91 701 211 
Q 384 513 384 1019 
Q 384 1609 779 1909 
Q 1175 2209 1959 2209 
L 2766 2209 
L 2766 2266 
Q 2766 2663 2505 2880 
Q 2244 3097 1772 3097 
Q 1472 3097 1187 3025 
Q 903 2953 641 2809 
L 641 3341 
Q 956 3463 1253 3523 
Q 1550 3584 1831 3584 
Q 2591 3584 2966 3190 
Q 3341 2797 3341 1997 
z
" transform="scale(0.015625)"/>
       <path id="DejaVuSans-63" d="M 3122 3366 
L 3122 2828 
Q 2878 2963 2633 3030 
Q 2388 3097 2138 3097 
Q 1578 3097 1268 2742 
Q 959 2388 959 1747 
Q 959 1106 1268 751 
Q 1578 397 2138 397 
Q 2388 397 2633 464 
Q 2878 531 3122 666 
L 3122 134 
Q 2881 22 2623 -34 
Q 2366 -91 2075 -91 
Q 1284 -91 818 406 
Q 353 903 353 1747 
Q 353 2603 823 3093 
Q 1294 3584 2113 3584 
Q 2378 3584 2631 3529 
Q 2884 3475 3122 3366 
z
" transform="scale(0.015625)"/>
       <path id="DejaVuSans-6f" d="M 1959 3097 
Q 1497 3097 1228 2736 
Q 959 2375 959 1747 
Q 959 1119 1226 758 
Q 1494 397 1959 397 
Q 2419 397 2687 759 
Q 2956 1122 2956 1747 
Q 2956 2369 2687 2733 
Q 2419 3097 1959 3097 
z
M 1959 3584 
Q 2709 3584 3137 3096 
Q 3566 2609 3566 1747 
Q 3566 888 3137 398 
Q 2709 -91 1959 -91 
Q 1206 -91 779 398 
Q 353 888 353 1747 
Q 353 2609 779 3096 
Q 1206 3584 1959 3584 
z
" transform="scale(0.015625)"/>
       <path id="DejaVuSans-20" transform="scale(0.015625)"/>
       <path id="DejaVuSans-70" d="M 1159 525 
L 1159 -1331 
L 581 -1331 
L 581 3500 
L 1159 3500 
L 1159 2969 
Q 1341 3281 1617 3432 
Q 1894 3584 2278 3584 
Q 2916 3584 3314 3078 
Q 3713 2572 3713 1747 
Q 3713 922 3314 415 
Q 2916 -91 2278 -91 
Q 1894 -91 1617 61 
Q 1341 213 1159 525 
z
M 3116 1747 
Q 3116 2381 2855 2742 
Q 2594 3103 2138 3103 
Q 1681 3103 1420 2742 
Q 1159 2381 1159 1747 
Q 1159 1113 1420 752 
Q 1681 391 2138 391 
Q 2594 391 2855 752 
Q 3116 1113 3116 1747 
z
" transform="scale(0.015625)"/>
       <path id="DejaVuSans-62" d="M 3116 1747 
Q 3116 2381 2855 2742 
Q 2594 3103 2138 3103 
Q 1681 3103 1420 2742 
Q 1159 2381 1159 1747 
Q 1159 1113 1420 752 
Q 1681 391 2138 391 
Q 2594 391 2855 752 
Q 3116 1113 3116 1747 
z
M 1159 2969 
Q 1341 3281 1617 3432 
Q 1894 3584 2278 3584 
Q 2916 3584 3314 3078 
Q 3713 2572 3713 1747 
Q 3713 922 3314 415 
Q 2916 -91 2278 -91 
Q 1894 -91 1617 61 
Q 1341 213 1159 525 
L 1159 0 
L 581 0 
L 581 4863 
L 1159 4863 
L 1159 2969 
z
" transform="scale(0.015625)"/>
       <path id="DejaVuSans-65" d="M 3597 1894 
L 3597 1613 
L 953 1613 
Q 991 1019 1311 708 
Q 1631 397 2203 397 
Q 2534 397 2845 478 
Q 3156 559 3463 722 
L 3463 178 
Q 3153 47 2828 -22 
Q 2503 -91 2169 -91 
Q 1331 -91 842 396 
Q 353 884 353 1716 
Q 353 2575 817 3079 
Q 1281 3584 2069 3584 
Q 2775 3584 3186 3129 
Q 3597 2675 3597 1894 
z
M 3022 2063 
Q 3016 2534 2758 2815 
Q 2500 3097 2075 3097 
Q 1594 3097 1305 2825 
Q 1016 2553 972 2059 
L 3022 2063 
z
" transform="scale(0.015625)"/>
       <path id="DejaVuSans-64" d="M 2906 2969 
L 2906 4863 
L 3481 4863 
L 3481 0 
L 2906 0 
L 2906 525 
Q 2725 213 2448 61 
Q 2172 -91 1784 -91 
Q 1150 -91 751 415 
Q 353 922 353 1747 
Q 353 2572 751 3078 
Q 1150 3584 1784 3584 
Q 2172 3584 2448 3432 
Q 2725 3281 2906 2969 
z
M 947 1747 
Q 947 1113 1208 752 
Q 1469 391 1925 391 
Q 2381 391 2643 752 
Q 2906 1113 2906 1747 
Q 2906 2381 2643 2742 
Q 2381 3103 1925 3103 
Q 1469 3103 1208 2742 
Q 947 2381 947 1747 
z
" transform="scale(0.015625)"/>
       <path id="DejaVuSans-6e" d="M 3513 2113 
L 3513 0 
L 2938 0 
L 2938 2094 
Q 2938 2591 2744 2837 
Q 2550 3084 2163 3084 
Q 1697 3084 1428 2787 
Q 1159 2491 1159 1978 
L 1159 0 
L 581 0 
L 581 3500 
L 1159 3500 
L 1159 2956 
Q 1366 3272 1645 3428 
Q 1925 3584 2291 3584 
Q 2894 3584 3203 3211 
Q 3513 2838 3513 2113 
z
" transform="scale(0.015625)"/>
      </defs>
      <use xlink:href="#DejaVuSans-44"/>
      <use xlink:href="#DejaVuSans-69" x="77.001953"/>
      <use xlink:href="#DejaVuSans-73" x="104.785156"/>
      <use xlink:href="#DejaVuSans-74" x="156.884766"/>
      <use xlink:href="#DejaVuSans-72" x="196.09375"/>
      <use xlink:href="#DejaVuSans-61" x="237.207031"/>
      <use xlink:href="#DejaVuSans-63" x="298.486328"/>
      <use xlink:href="#DejaVuSans-74" x="353.466797"/>
      <use xlink:href="#DejaVuSans-6f" x="392.675781"/>
      <use xlink:href="#DejaVuSans-72" x="453.857422"/>
      <use xlink:href="#DejaVuSans-20" x="494.970703"/>
      <use xlink:href="#DejaVuSans-70" x="526.757812"/>
      <use xlink:href="#DejaVuSans-72" x="590.234375"/>
      <use xlink:href="#DejaVuSans-6f" x="629.097656"/>
      <use xlink:href="#DejaVuSans-62" x="690.279297"/>
      <use xlink:href="#DejaVuSans-65" x="753.755859"/>
      <use xlink:href="#DejaVuSans-20" x="815.279297"/>
      <use xlink:href="#DejaVuSans-64" x="847.066406"/>
      <use xlink:href="#DejaVuSans-69" x="910.542969"/>
      <use xlink:href="#DejaVuSans-73" x="938.326172"/>
      <use xlink:href="#DejaVuSans-74" x="990.425781"/>
      <use xlink:href="#DejaVuSans-61" x="1029.634766"/>
      <use xlink:href="#DejaVuSans-6e" x="1090.914062"/>
      <use xlink:href="#DejaVuSans-63" x="1154.292969"/>
      <use xlink:href="#DejaVuSans-65" x="1209.273438"/>
     </g>
    </g>
   </g>
   <g id="matplotlib.axis_2">
    <g id="ytick_1">
     <g id="line2d_6">
      <defs>
       <path id="m9ea577cfc0" d="M 0 0 
L -3.5 0 
" style="stroke: #000000; stroke-width: 0.8"/>
      </defs>
      <g>
       <use xlink:href="#m9ea577cfc0" x="90" y="307.8" style="stroke: #000000; stroke-width: 0.8"/>
      </g>
     </g>
     <g id="text_7">
      <!-- 0.0 -->
      <g transform="translate(67.096875 311.599219) scale(0.1 -0.1)">
       <use xlink:href="#DejaVuSans-30"/>
       <use xlink:href="#DejaVuSans-2e" x="63.623047"/>
       <use xlink:href="#DejaVuSans-30" x="95.410156"/>
      </g>
     </g>
    </g>
    <g id="ytick_2">
     <g id="line2d_7">
      <g>
       <use xlink:href="#m9ea577cfc0" x="90" y="251.952519" style="stroke: #000000; stroke-width: 0.8"/>
      </g>
     </g>
     <g id="text_8">
      <!-- 0.1 -->
      <g transform="translate(67.096875 255.751738) scale(0.1 -0.1)">
       <use xlink:href="#DejaVuSans-30"/>
       <use xlink:href="#DejaVuSans-2e" x="63.623047"/>
       <use xlink:href="#DejaVuSans-31" x="95.410156"/>
      </g>
     </g>
    </g>
    <g id="ytick_3">
     <g id="line2d_8">
      <g>
       <use xlink:href="#m9ea577cfc0" x="90" y="196.105038" style="stroke: #000000; stroke-width: 0.8"/>
      </g>
     </g>
     <g id="text_9">
      <!-- 0.2 -->
      <g transform="translate(67.096875 199.904257) scale(0.1 -0.1)">
       <use xlink:href="#DejaVuSans-30"/>
       <use xlink:href="#DejaVuSans-2e" x="63.623047"/>
       <use xlink:href="#DejaVuSans-32" x="95.410156"/>
      </g>
     </g>
    </g>
    <g id="ytick_4">
     <g id="line2d_9">
      <g>
       <use xlink:href="#m9ea577cfc0" x="90" y="140.257557" style="stroke: #000000; stroke-width: 0.8"/>
      </g>
     </g>
     <g id="text_10">
      <!-- 0.3 -->
      <g transform="translate(67.096875 144.056776) scale(0.1 -0.1)">
       <use xlink:href="#DejaVuSans-30"/>
       <use xlink:href="#DejaVuSans-2e" x="63.623047"/>
       <use xlink:href="#DejaVuSans-33" x="95.410156"/>
      </g>
     </g>
    </g>
    <g id="ytick_5">
     <g id="line2d_10">
      <g>
       <use xlink:href="#m9ea577cfc0" x="90" y="84.410076" style="stroke: #000000; stroke-width: 0.8"/>
      </g>
     </g>
     <g id="text_11">
      <!-- 0.4 -->
      <g transform="translate(67.096875 88.209295) scale(0.1 -0.1)">
       <defs>
        <path id="DejaVuSans-34" d="M 2419 4116 
L 825 1625 
L 2419 1625 
L 2419 4116 
z
M 2253 4666 
L 3047 4666 
L 3047 1625 
L 3713 1625 
L 3713 1100 
L 3047 1100 
L 3047 0 
L 2419 0 
L 2419 1100 
L 313 1100 
L 313 1709 
L 2253 4666 
z
" transform="scale(0.015625)"/>
       </defs>
       <use xlink:href="#DejaVuSans-30"/>
       <use xlink:href="#DejaVuSans-2e" x="63.623047"/>
       <use xlink:href="#DejaVuSans-34" x="95.410156"/>
      </g>
     </g>
    </g>
    <g id="text_12">
     <!-- Swap probability -->
     <g transform="translate(61.017187 223.566406) rotate(-90) scale(0.1 -0.1)">
      <defs>
       <path id="DejaVuSans-53" d="M 3425 4513 
L 3425 3897 
Q 3066 4069 2747 4153 
Q 2428 4238 2131 4238 
Q 1616 4238 1336 4038 
Q 1056 3838 1056 3469 
Q 1056 3159 1242 3001 
Q 1428 2844 1947 2747 
L 2328 2669 
Q 3034 2534 3370 2195 
Q 3706 1856 3706 1288 
Q 3706 609 3251 259 
Q 2797 -91 1919 -91 
Q 1588 -91 1214 -16 
Q 841 59 441 206 
L 441 856 
Q 825 641 1194 531 
Q 1563 422 1919 422 
Q 2459 422 2753 634 
Q 3047 847 3047 1241 
Q 3047 1584 2836 1778 
Q 2625 1972 2144 2069 
L 1759 2144 
Q 1053 2284 737 2584 
Q 422 2884 422 3419 
Q 422 4038 858 4394 
Q 1294 4750 2059 4750 
Q 2388 4750 2728 4690 
Q 3069 4631 3425 4513 
z
" transform="scale(0.015625)"/>
       <path id="DejaVuSans-77" d="M 269 3500 
L 844 3500 
L 1563 769 
L 2278 3500 
L 2956 3500 
L 3675 769 
L 4391 3500 
L 4966 3500 
L 4050 0 
L 3372 0 
L 2619 2869 
L 1863 0 
L 1184 0 
L 269 3500 
z
" transform="scale(0.015625)"/>
       <path id="DejaVuSans-6c" d="M 603 4863 
L 1178 4863 
L 1178 0 
L 603 0 
L 603 4863 
z
" transform="scale(0.015625)"/>
       <path id="DejaVuSans-79" d="M 2059 -325 
Q 1816 -950 1584 -1140 
Q 1353 -1331 966 -1331 
L 506 -1331 
L 506 -850 
L 844 -850 
Q 1081 -850 1212 -737 
Q 1344 -625 1503 -206 
L 1606 56 
L 191 3500 
L 800 3500 
L 1894 763 
L 2988 3500 
L 3597 3500 
L 2059 -325 
z
" transform="scale(0.015625)"/>
      </defs>
      <use xlink:href="#DejaVuSans-53"/>
      <use xlink:href="#DejaVuSans-77" x="63.476562"/>
      <use xlink:href="#DejaVuSans-61" x="145.263672"/>
      <use xlink:href="#DejaVuSans-70" x="206.542969"/>
      <use xlink:href="#DejaVuSans-20" x="270.019531"/>
      <use xlink:href="#DejaVuSans-70" x="301.806641"/>
      <use xlink:href="#DejaVuSans-72" x="365.283203"/>
      <use xlink:href="#DejaVuSans-6f" x="404.146484"/>
      <use xlink:href="#DejaVuSans-62" x="465.328125"/>
      <use xlink:href="#DejaVuSans-61" x="528.804688"/>
      <use xlink:href="#DejaVuSans-62" x="590.083984"/>
      <use xlink:href="#DejaVuSans-69" x="653.560547"/>
      <use xlink:href="#DejaVuSans-6c" x="681.34375"/>
      <use xlink:href="#DejaVuSans-69" x="709.126953"/>
      <use xlink:href="#DejaVuSans-74" x="736.910156"/>
      <use xlink:href="#DejaVuSans-79" x="776.119141"/>
     </g>
    </g>
   </g>
   <g id="line2d_11">
    <path d="M 90 307.8 
L 101.387749 307.8 
L 112.775512 307.8 
L 124.163274 307.8 
L 135.551023 307.8 
L 146.938772 307.8 
L 158.326535 307.8 
L 169.714298 307.8 
L 181.102033 307.8 
L 192.489795 307.8 
L 203.877558 307.8 
L 215.265321 307.8 
L 226.653084 307.8 
L 238.040819 307.8 
L 249.428581 307.8 
L 260.816344 307.8 
L 272.204079 307.8 
L 283.591842 307.8 
L 294.979605 307.8 
L 306.367368 307.8 
L 317.75513 307.8 
L 329.142865 307.8 
L 340.530628 307.8 
L 351.918391 307.8 
L 363.306126 307.8 
L 374.69386 307.8 
L 386.081595 307.8 
L 397.469386 307.8 
L 408.857121 307.8 
L 420.244912 307.8 
L 431.632646 307.8 
L 443.020381 307.8 
L 454.408172 307.8 
L 465.795907 307.8 
L 477.183642 307.8 
L 488.571433 307.8 
L 499.959167 307.8 
L 511.346902 307.8 
L 522.734693 307.8 
L 534.122428 307.8 
L 545.510219 307.8 
L 556.897953 307.8 
L 568.285688 307.8 
L 579.673479 307.8 
L 591.061214 307.8 
L 602.449005 307.8 
L 613.83674 307.8 
L 625.224474 307.8 
L 636.612265 307.8 
L 648 307.8 
" clip-path="url(#pc84411f8c2)" style="fill: none; stroke-dasharray: 14.8,6.4; stroke-dashoffset: 0; stroke: #e46662; stroke-width: 4"/>
   </g>
   <g id="line2d_12">
    <path d="M 96.363648 300.448288 
L 111.272745 303.954949 
L 126.181843 305.363652 
L 141.090926 305.958003 
L 156.000009 306.210028 
L 170.909107 306.287554 
L 185.818204 306.290304 
L 200.727302 306.284943 
L 215.636371 306.307158 
L 230.545468 306.364897 
L 245.454566 306.457755 
L 260.363635 306.57628 
L 275.272733 306.698679 
L 290.18183 306.836588 
L 305.090927 306.981456 
L 320.000025 307.110005 
L 334.909094 307.203463 
L 349.818192 307.265508 
L 364.727289 307.290684 
L 379.636359 307.269871 
L 394.545456 307.189106 
L 409.454553 307.047809 
L 424.363651 306.858875 
L 439.272748 306.646814 
L 454.181846 306.446182 
L 469.090887 306.301472 
L 483.999984 306.252438 
L 498.909082 306.299209 
L 513.818179 306.418752 
L 528.727277 306.558166 
L 543.636374 306.687104 
L 558.545472 306.78259 
L 573.454569 306.819771 
L 588.363666 306.826504 
L 603.272708 306.802731 
L 618.181805 306.773839 
L 633.090903 306.756689 
L 648 306.760078 
" clip-path="url(#pc84411f8c2)" style="fill: none; stroke: #e46662; stroke-width: 4; stroke-linecap: square"/>
   </g>
   <g id="line2d_13">
    <path d="M 90 140.25755 
L 101.387749 140.25755 
L 112.775512 140.25755 
L 124.163274 140.25755 
L 135.551023 140.25755 
L 146.938772 140.25755 
L 158.326535 140.25755 
L 169.714298 140.25755 
L 181.102033 140.25755 
L 192.489795 140.25755 
L 203.877558 140.25755 
L 215.265321 140.25755 
L 226.653084 140.25755 
L 238.040819 140.25755 
L 249.428581 140.25755 
L 260.816344 140.25755 
L 272.204079 140.25755 
L 283.591842 140.25755 
L 294.979605 140.25755 
L 306.367368 140.25755 
L 317.75513 140.25755 
L 329.142865 140.25755 
L 340.530628 140.25755 
L 351.918391 140.25755 
L 363.306126 140.25755 
L 374.69386 140.25755 
L 386.081595 140.25755 
L 397.469386 140.25755 
L 408.857121 140.25755 
L 420.244912 140.25755 
L 431.632646 140.25755 
L 443.020381 140.25755 
L 454.408172 140.25755 
L 465.795907 140.25755 
L 477.183642 140.25755 
L 488.571433 140.25755 
L 499.959167 140.25755 
L 511.346902 140.25755 
L 522.734693 140.25755 
L 534.122428 140.25755 
L 545.510219 140.25755 
L 556.897953 140.25755 
L 568.285688 140.25755 
L 579.673479 140.25755 
L 591.061214 140.25755 
L 602.449005 140.25755 
L 613.83674 140.25755 
L 625.224474 140.25755 
L 636.612265 140.25755 
L 648 140.25755 
" clip-path="url(#pc84411f8c2)" style="fill: none; stroke-dasharray: 14.8,6.4; stroke-dashoffset: 0; stroke: #3f51a0; stroke-width: 4"/>
   </g>
   <g id="line2d_14">
    <path d="M 96.363648 130.297548 
L 111.272745 132.85897 
L 126.181843 134.886349 
L 141.090926 136.800821 
L 156.000009 138.75219 
L 170.909107 140.747768 
L 185.818204 142.78727 
L 200.727302 144.750648 
L 215.636371 146.52497 
L 230.545468 147.631439 
L 245.454566 147.624853 
L 260.363635 146.69896 
L 275.272733 144.591151 
L 290.18183 142.196002 
L 305.090927 139.795493 
L 320.000025 137.945462 
L 334.909094 136.510948 
L 349.818192 135.789235 
L 364.727289 135.82329 
L 379.636359 136.471936 
L 394.545456 137.730038 
L 409.454553 139.394626 
L 424.363651 141.399335 
L 439.272748 143.711617 
L 454.181846 146.14389 
L 469.090887 148.13144 
L 483.999984 149.260064 
L 498.909082 150.031525 
L 513.818179 149.771327 
L 528.727277 148.864415 
L 543.636374 147.235284 
L 558.545472 144.855519 
L 573.454569 141.894974 
L 588.363666 138.43016 
L 603.272708 135.214608 
L 618.181805 132.630548 
L 633.090903 130.952126 
L 648 130.225265 
" clip-path="url(#pc84411f8c2)" style="fill: none; stroke: #3f51a0; stroke-width: 4; stroke-linecap: square"/>
   </g>
   <g id="line2d_15">
    <path d="M 90 279.876259 
L 101.387749 279.876259 
L 112.775512 279.876259 
L 124.163274 279.876259 
L 135.551023 279.876259 
L 146.938772 279.876259 
L 158.326535 279.876259 
L 169.714298 279.876259 
L 181.102033 279.876259 
L 192.489795 279.876259 
L 203.877558 279.876259 
L 215.265321 279.876259 
L 226.653084 279.876259 
L 238.040819 279.876259 
L 249.428581 279.876259 
L 260.816344 279.876259 
L 272.204079 279.876259 
L 283.591842 279.876259 
L 294.979605 279.876259 
L 306.367368 279.876259 
L 317.75513 279.876259 
L 329.142865 279.876259 
L 340.530628 279.876259 
L 351.918391 279.876259 
L 363.306126 279.876259 
L 374.69386 279.876259 
L 386.081595 279.876259 
L 397.469386 279.876259 
L 408.857121 279.876259 
L 420.244912 279.876259 
L 431.632646 279.876259 
L 443.020381 279.876259 
L 454.408172 279.876259 
L 465.795907 279.876259 
L 477.183642 279.876259 
L 488.571433 279.876259 
L 499.959167 279.876259 
L 511.346902 279.876259 
L 522.734693 279.876259 
L 534.122428 279.876259 
L 545.510219 279.876259 
L 556.897953 279.876259 
L 568.285688 279.876259 
L 579.673479 279.876259 
L 591.061214 279.876259 
L 602.449005 279.876259 
L 613.83674 279.876259 
L 625.224474 279.876259 
L 636.612265 279.876259 
L 648 279.876259 
" clip-path="url(#pc84411f8c2)" style="fill: none; stroke-dasharray: 14.8,6.4; stroke-dashoffset: 0; stroke: #6f8cd5; stroke-width: 4"/>
   </g>
   <g id="line2d_16">
    <path d="M 96.363648 261.725808 
L 111.272745 270.304972 
L 126.181843 274.811808 
L 141.090926 276.366314 
L 156.000009 275.878643 
L 170.909107 274.354214 
L 185.818204 272.693045 
L 200.727302 271.267395 
L 215.636371 270.35195 
L 230.545468 270.141515 
L 245.454566 270.47256 
L 260.363635 270.95614 
L 275.272733 271.323968 
L 290.18183 271.479019 
L 305.090927 271.47335 
L 320.000025 271.67034 
L 334.909094 272.124055 
L 349.818192 273.009576 
L 364.727289 274.26064 
L 379.636359 275.517262 
L 394.545456 276.774197 
L 409.454553 277.838106 
L 424.363651 278.438282 
L 439.272748 278.40388 
L 454.181846 277.785299 
L 469.090887 276.975317 
L 483.999984 276.414809 
L 498.909082 276.094677 
L 513.818179 276.085491 
L 528.727277 276.34909 
L 543.636374 276.752286 
L 558.545472 277.276911 
L 573.454569 277.849612 
L 588.363666 278.292796 
L 603.272708 278.748396 
L 618.181805 279.212911 
L 633.090903 279.675868 
L 648 280.006186 
" clip-path="url(#pc84411f8c2)" style="fill: none; stroke: #6f8cd5; stroke-width: 4; stroke-linecap: square"/>
   </g>
   <g id="line2d_17">
    <path d="M 90 55.8 
L 101.387749 59.328179 
L 112.775512 63.061877 
L 124.163274 66.997714 
L 135.551023 71.131695 
L 146.938772 75.459245 
L 158.326535 79.975104 
L 169.714298 84.673212 
L 181.102033 89.546797 
L 192.489795 94.588201 
L 203.877558 99.78897 
L 215.265321 105.13975 
L 226.653084 110.630289 
L 238.040819 116.249418 
L 249.428581 121.985187 
L 260.816344 127.82468 
L 272.204079 133.754167 
L 283.591842 139.759267 
L 294.979605 145.824767 
L 306.367368 151.934956 
L 317.75513 158.073506 
L 329.142865 164.223774 
L 340.530628 170.368857 
L 351.918391 176.491653 
L 363.306126 182.575162 
L 374.69386 188.602498 
L 386.081595 194.55715 
L 397.469386 200.423133 
L 408.857121 206.184924 
L 420.244912 211.828045 
L 431.632646 217.338706 
L 443.020381 222.704291 
L 454.408172 227.913366 
L 465.795907 232.955619 
L 477.183642 237.822171 
L 488.571433 242.505467 
L 499.959167 246.999314 
L 511.346902 251.298977 
L 522.734693 255.401086 
L 534.122428 259.303602 
L 545.510219 263.005834 
L 556.897953 266.508282 
L 568.285688 269.812664 
L 579.673479 272.921732 
L 591.061214 275.839228 
L 602.449005 278.569763 
L 613.83674 281.11867 
L 625.224474 283.491985 
L 636.612265 285.696277 
L 648 287.738513 
" clip-path="url(#pc84411f8c2)" style="fill: none; stroke-dasharray: 14.8,6.4; stroke-dashoffset: 0; stroke: #d9b26f; stroke-width: 4"/>
   </g>
   <g id="line2d_18">
    <path d="M 96.363648 61.227976 
L 111.272745 64.496028 
L 126.181843 68.060929 
L 141.090926 72.160812 
L 156.000009 77.121788 
L 170.909107 83.013997 
L 185.818204 89.97647 
L 200.727302 97.663184 
L 215.636371 106.109229 
L 230.545468 114.85707 
L 245.454566 123.396008 
L 260.363635 131.283285 
L 275.272733 138.238832 
L 290.18183 144.400551 
L 305.090927 150.222673 
L 320.000025 156.046728 
L 334.909094 162.436732 
L 349.818192 169.633477 
L 364.727289 177.413223 
L 379.636359 185.649016 
L 394.545456 194.508577 
L 409.454553 203.73955 
L 424.363651 212.922549 
L 439.272748 221.738812 
L 454.181846 230.057652 
L 469.090887 237.916538 
L 483.999984 244.759911 
L 498.909082 250.414305 
L 513.818179 254.945877 
L 528.727277 258.558297 
L 543.636374 261.201228 
L 558.545472 262.878752 
L 573.454569 263.692754 
L 588.363666 263.822678 
L 603.272708 263.402353 
L 618.181805 263.005216 
L 633.090903 262.808988 
L 648 262.640674 
" clip-path="url(#pc84411f8c2)" style="fill: none; stroke: #d9b26f; stroke-width: 4; stroke-linecap: square"/>
   </g>
   <g id="line2d_19">
    <path d="M 90 251.87616 
L 101.387749 253.148678 
L 112.775512 254.470928 
L 124.163274 255.838374 
L 135.551023 257.246339 
L 146.938772 258.690072 
L 158.326535 260.164763 
L 169.714298 261.665526 
L 181.102033 263.187501 
L 192.489795 264.725813 
L 203.877558 266.275621 
L 215.265321 267.832179 
L 226.653084 269.3908 
L 238.040819 270.946925 
L 249.428581 272.496138 
L 260.816344 274.034186 
L 272.204079 275.55699 
L 283.591842 277.060684 
L 294.979605 278.541624 
L 306.367368 279.996403 
L 317.75513 281.421857 
L 329.142865 282.815086 
L 340.530628 284.173484 
L 351.918391 285.494687 
L 363.306126 286.776636 
L 374.69386 288.017542 
L 386.081595 289.21591 
L 397.469386 290.370514 
L 408.857121 291.480385 
L 420.244912 292.544851 
L 431.632646 293.563458 
L 443.020381 294.536012 
L 454.408172 295.462559 
L 465.795907 296.343331 
L 477.183642 297.178787 
L 488.571433 297.969557 
L 499.959167 298.716439 
L 511.346902 299.420384 
L 522.734693 300.082477 
L 534.122428 300.703916 
L 545.510219 301.286004 
L 556.897953 301.830117 
L 568.285688 302.337712 
L 579.673479 302.810292 
L 591.061214 303.2494 
L 602.449005 303.656604 
L 613.83674 304.033481 
L 625.224474 304.381616 
L 636.612265 304.702586 
L 648 304.99794 
" clip-path="url(#pc84411f8c2)" style="fill: none; stroke-dasharray: 14.8,6.4; stroke-dashoffset: 0; stroke: #c87941; stroke-width: 4"/>
   </g>
   <g id="line2d_20">
    <path d="M 96.363648 233.621233 
L 111.272745 246.083543 
L 126.181843 253.83622 
L 141.090926 258.699324 
L 156.000009 261.941772 
L 170.909107 263.940902 
L 185.818204 265.470466 
L 200.727302 266.828421 
L 215.636371 268.496652 
L 230.545468 270.595877 
L 245.454566 273.007391 
L 260.363635 275.720485 
L 275.272733 278.658637 
L 290.18183 281.757427 
L 305.090927 284.675859 
L 320.000025 287.056805 
L 334.909094 288.481451 
L 349.818192 288.77963 
L 364.727289 288.125078 
L 379.636359 287.063872 
L 394.545456 286.061074 
L 409.454553 285.180464 
L 424.363651 284.390105 
L 439.272748 283.523309 
L 454.181846 283.199532 
L 469.090887 283.897062 
L 483.999984 285.667262 
L 498.909082 287.96735 
L 513.818179 290.148608 
L 528.727277 291.517049 
L 543.636374 291.552197 
L 558.545472 290.598495 
L 573.454569 289.08833 
L 588.363666 287.550095 
L 603.272708 286.107097 
L 618.181805 285.035541 
L 633.090903 284.680961 
L 648 285.019012 
" clip-path="url(#pc84411f8c2)" style="fill: none; stroke: #c87941; stroke-width: 4; stroke-linecap: square"/>
   </g>
   <g id="line2d_21">
    <path d="M 90 178.099857 
L 101.387749 180.626284 
L 112.775512 183.269477 
L 124.163274 186.022502 
L 135.551023 188.87807 
L 146.938772 191.828492 
L 158.326535 194.865786 
L 169.714298 197.981547 
L 181.102033 201.167187 
L 192.489795 204.413786 
L 203.877558 207.712222 
L 215.265321 211.053199 
L 226.653084 214.427298 
L 238.040819 217.824973 
L 249.428581 221.236728 
L 260.816344 224.653019 
L 272.204079 228.064442 
L 283.591842 231.461709 
L 294.979605 234.835758 
L 306.367368 238.177776 
L 317.75513 241.479274 
L 329.142865 244.732122 
L 340.530628 247.928673 
L 351.918391 251.061681 
L 363.306126 254.124486 
L 374.69386 257.110921 
L 386.081595 260.015446 
L 397.469386 262.833137 
L 408.857121 265.559624 
L 420.244912 268.191282 
L 431.632646 270.725029 
L 443.020381 273.158457 
L 454.408172 275.489819 
L 465.795907 277.717914 
L 477.183642 279.842175 
L 488.571433 281.862579 
L 499.959167 283.779634 
L 511.346902 285.594344 
L 522.734693 287.308173 
L 534.122428 288.92298 
L 545.510219 290.441028 
L 556.897953 291.864867 
L 568.285688 293.197375 
L 579.673479 294.441646 
L 591.061214 295.600984 
L 602.449005 296.678855 
L 613.83674 297.67883 
L 625.224474 298.604582 
L 636.612265 299.459836 
L 648 300.248314 
" clip-path="url(#pc84411f8c2)" style="fill: none; stroke-dasharray: 14.8,6.4; stroke-dashoffset: 0; stroke: #956e40; stroke-width: 4"/>
   </g>
   <g id="line2d_22">
    <path d="M 96.363648 166.612505 
L 111.272745 180.250593 
L 126.181843 189.866688 
L 141.090926 196.468058 
L 156.000009 201.32219 
L 170.909107 205.482457 
L 185.818204 210.073185 
L 200.727302 214.977108 
L 215.636371 220.50983 
L 230.545468 226.528028 
L 245.454566 232.313938 
L 260.363635 236.741889 
L 275.272733 239.737529 
L 290.18183 241.71801 
L 305.090927 243.370595 
L 320.000025 245.076519 
L 334.909094 247.021256 
L 349.818192 249.595193 
L 364.727289 252.501235 
L 379.636359 255.419748 
L 394.545456 258.524144 
L 409.454553 261.517562 
L 424.363651 264.079023 
L 439.272748 266.351922 
L 454.181846 268.46181 
L 469.090887 270.479877 
L 483.999984 272.852313 
L 498.909082 275.417323 
L 513.818179 278.180958 
L 528.727277 280.991938 
L 543.636374 283.456287 
L 558.545472 285.459086 
L 573.454569 286.842016 
L 588.363666 287.660173 
L 603.272708 288.0468 
L 618.181805 288.056701 
L 633.090903 288.157639 
L 648 288.673117 
" clip-path="url(#pc84411f8c2)" style="fill: none; stroke: #956e40; stroke-width: 4; stroke-linecap: square"/>
   </g>
   <g id="patch_3">
    <path d="M 90 320.4 
L 90 43.2 
" style="fill: none; stroke: #000000; stroke-width: 0.8; stroke-linejoin: miter; stroke-linecap: square"/>
   </g>
   <g id="patch_4">
    <path d="M 90 320.4 
L 648 320.4 
" style="fill: none; stroke: #000000; stroke-width: 0.8; stroke-linejoin: miter; stroke-linecap: square"/>
   </g>
   <g id="legend_1">
    <g id="line2d_23">
     <path d="M 455.2375 64.1575 
L 471.2375 64.1575 
L 487.2375 64.1575 
" style="fill: none; stroke: #956e40; stroke-width: 4; stroke-linecap: square"/>
    </g>
    <g id="text_13">
     <!-- Target swap rate -->
     <g transform="translate(500.0375 69.7575) scale(0.16 -0.16)">
      <defs>
       <path id="DejaVuSans-54" d="M -19 4666 
L 3928 4666 
L 3928 4134 
L 2272 4134 
L 2272 0 
L 1638 0 
L 1638 4134 
L -19 4134 
L -19 4666 
z
" transform="scale(0.015625)"/>
       <path id="DejaVuSans-67" d="M 2906 1791 
Q 2906 2416 2648 2759 
Q 2391 3103 1925 3103 
Q 1463 3103 1205 2759 
Q 947 2416 947 1791 
Q 947 1169 1205 825 
Q 1463 481 1925 481 
Q 2391 481 2648 825 
Q 2906 1169 2906 1791 
z
M 3481 434 
Q 3481 -459 3084 -895 
Q 2688 -1331 1869 -1331 
Q 1566 -1331 1297 -1286 
Q 1028 -1241 775 -1147 
L 775 -588 
Q 1028 -725 1275 -790 
Q 1522 -856 1778 -856 
Q 2344 -856 2625 -561 
Q 2906 -266 2906 331 
L 2906 616 
Q 2728 306 2450 153 
Q 2172 0 1784 0 
Q 1141 0 747 490 
Q 353 981 353 1791 
Q 353 2603 747 3093 
Q 1141 3584 1784 3584 
Q 2172 3584 2450 3431 
Q 2728 3278 2906 2969 
L 2906 3500 
L 3481 3500 
L 3481 434 
z
" transform="scale(0.015625)"/>
      </defs>
      <use xlink:href="#DejaVuSans-54"/>
      <use xlink:href="#DejaVuSans-61" x="44.583984"/>
      <use xlink:href="#DejaVuSans-72" x="105.863281"/>
      <use xlink:href="#DejaVuSans-67" x="145.226562"/>
      <use xlink:href="#DejaVuSans-65" x="208.703125"/>
      <use xlink:href="#DejaVuSans-74" x="270.226562"/>
      <use xlink:href="#DejaVuSans-20" x="309.435547"/>
      <use xlink:href="#DejaVuSans-73" x="341.222656"/>
      <use xlink:href="#DejaVuSans-77" x="393.322266"/>
      <use xlink:href="#DejaVuSans-61" x="475.109375"/>
      <use xlink:href="#DejaVuSans-70" x="536.388672"/>
      <use xlink:href="#DejaVuSans-20" x="599.865234"/>
      <use xlink:href="#DejaVuSans-72" x="631.652344"/>
      <use xlink:href="#DejaVuSans-61" x="672.765625"/>
      <use xlink:href="#DejaVuSans-74" x="734.044922"/>
      <use xlink:href="#DejaVuSans-65" x="773.253906"/>
     </g>
    </g>
    <g id="line2d_24">
     <path d="M 455.2375 87.6425 
L 471.2375 87.6425 
L 487.2375 87.6425 
" style="fill: none; stroke-dasharray: 14.8,6.4; stroke-dashoffset: 0; stroke: #000000; stroke-width: 4"/>
    </g>
    <g id="text_14">
     <!-- BNS mean -->
     <g transform="translate(500.0375 93.2425) scale(0.16 -0.16)">
      <defs>
       <path id="DejaVuSans-42" d="M 1259 2228 
L 1259 519 
L 2272 519 
Q 2781 519 3026 730 
Q 3272 941 3272 1375 
Q 3272 1813 3026 2020 
Q 2781 2228 2272 2228 
L 1259 2228 
z
M 1259 4147 
L 1259 2741 
L 2194 2741 
Q 2656 2741 2882 2914 
Q 3109 3088 3109 3444 
Q 3109 3797 2882 3972 
Q 2656 4147 2194 4147 
L 1259 4147 
z
M 628 4666 
L 2241 4666 
Q 2963 4666 3353 4366 
Q 3744 4066 3744 3513 
Q 3744 3084 3544 2831 
Q 3344 2578 2956 2516 
Q 3422 2416 3680 2098 
Q 3938 1781 3938 1306 
Q 3938 681 3513 340 
Q 3088 0 2303 0 
L 628 0 
L 628 4666 
z
" transform="scale(0.015625)"/>
       <path id="DejaVuSans-4e" d="M 628 4666 
L 1478 4666 
L 3547 763 
L 3547 4666 
L 4159 4666 
L 4159 0 
L 3309 0 
L 1241 3903 
L 1241 0 
L 628 0 
L 628 4666 
z
" transform="scale(0.015625)"/>
       <path id="DejaVuSans-6d" d="M 3328 2828 
Q 3544 3216 3844 3400 
Q 4144 3584 4550 3584 
Q 5097 3584 5394 3201 
Q 5691 2819 5691 2113 
L 5691 0 
L 5113 0 
L 5113 2094 
Q 5113 2597 4934 2840 
Q 4756 3084 4391 3084 
Q 3944 3084 3684 2787 
Q 3425 2491 3425 1978 
L 3425 0 
L 2847 0 
L 2847 2094 
Q 2847 2600 2669 2842 
Q 2491 3084 2119 3084 
Q 1678 3084 1418 2786 
Q 1159 2488 1159 1978 
L 1159 0 
L 581 0 
L 581 3500 
L 1159 3500 
L 1159 2956 
Q 1356 3278 1631 3431 
Q 1906 3584 2284 3584 
Q 2666 3584 2933 3390 
Q 3200 3197 3328 2828 
z
" transform="scale(0.015625)"/>
      </defs>
      <use xlink:href="#DejaVuSans-42"/>
      <use xlink:href="#DejaVuSans-4e" x="68.603516"/>
      <use xlink:href="#DejaVuSans-53" x="143.408203"/>
      <use xlink:href="#DejaVuSans-20" x="206.884766"/>
      <use xlink:href="#DejaVuSans-6d" x="238.671875"/>
      <use xlink:href="#DejaVuSans-65" x="336.083984"/>
      <use xlink:href="#DejaVuSans-61" x="397.607422"/>
      <use xlink:href="#DejaVuSans-6e" x="458.886719"/>
     </g>
    </g>
   </g>
  </g>
 </g>
 <defs>
  <clipPath id="pc84411f8c2">
   <rect x="90" y="43.2" width="558" height="277.2"/>
  </clipPath>
 </defs>
</svg>
