<?xml version="1.0" encoding="utf-8" standalone="no"?>
<!DOCTYPE svg PUBLIC "-//W3C//DTD SVG 1.1//EN"
  "http://www.w3.org/Graphics/SVG/1.1/DTD/svg11.dtd">
<svg xmlns:xlink="http://www.w3.org/1999/xlink" width="360pt" height="360pt" viewBox="0 0 360 360" xmlns="http://www.w3.org/2000/svg" version="1.1">
 <metadata>
  <rdf:RDF xmlns:dc="http://purl.org/dc/elements/1.1/" xmlns:cc="http://creativecommons.org/ns#" xmlns:rdf="http://www.w3.org/1999/02/22-rdf-syntax-ns#">
   <cc:Work>
    <dc:type rdf:resource="http://purl.org/dc/dcmitype/StillImage"/>
    <dc:date>2025-05-13T18:53:32.764441</dc:date>
    <dc:format>image/svg+xml</dc:format>
    <dc:creator>
     <cc:Agent>
      <dc:title>Matplotlib v3.9.2, https://matplotlib.org/</dc:title>
     </cc:Agent>
    </dc:creator>
   </cc:Work>
  </rdf:RDF>
 </metadata>
 <defs>
  <style type="text/css">*{stroke-linejoin: round; stroke-linecap: butt}</style>
 </defs>
 <g id="figure_1">
  <g id="patch_1">
   <path d="M 0 360 
L 360 360 
L 360 0 
L 0 0 
L 0 360 
z
" style="fill: none"/>
  </g>
  <g id="axes_1">
   <g id="patch_2">
    <path d="M 45 320.4 
L 324 320.4 
L 324 43.2 
L 45 43.2 
L 45 320.4 
z
" style="fill: none"/>
   </g>
   <g id="matplotlib.axis_1">
    <g id="xtick_1">
     <g id="line2d_1">
      <defs>
       <path id="mf2caa58815" d="M 0 0 
L 0 3.5 
" style="stroke: #000000; stroke-width: 0.8"/>
      </defs>
      <g>
       <use xlink:href="#mf2caa58815" x="72.45635" y="320.4" style="stroke: #000000; stroke-width: 0.8"/>
      </g>
     </g>
     <g id="text_1">
      <!-- 1.0 -->
      <g transform="translate(64.504787 334.998438) scale(0.1 -0.1)">
       <defs>
        <path id="DejaVuSans-31" d="M 794 531 
L 1825 531 
L 1825 4091 
L 703 3866 
L 703 4441 
L 1819 4666 
L 2450 4666 
L 2450 531 
L 3481 531 
L 3481 0 
L 794 0 
L 794 531 
z
" transform="scale(0.015625)"/>
        <path id="DejaVuSans-2e" d="M 684 794 
L 1344 794 
L 1344 0 
L 684 0 
L 684 794 
z
" transform="scale(0.015625)"/>
        <path id="DejaVuSans-30" d="M 2034 4250 
Q 1547 4250 1301 3770 
Q 1056 3291 1056 2328 
Q 1056 1369 1301 889 
Q 1547 409 2034 409 
Q 2525 409 2770 889 
Q 3016 1369 3016 2328 
Q 3016 3291 2770 3770 
Q 2525 4250 2034 4250 
z
M 2034 4750 
Q 2819 4750 3233 4129 
Q 3647 3509 3647 2328 
Q 3647 1150 3233 529 
Q 2819 -91 2034 -91 
Q 1250 -91 836 529 
Q 422 1150 422 2328 
Q 422 3509 836 4129 
Q 1250 4750 2034 4750 
z
" transform="scale(0.015625)"/>
       </defs>
       <use xlink:href="#DejaVuSans-31"/>
       <use xlink:href="#DejaVuSans-2e" x="63.623047"/>
       <use xlink:href="#DejaVuSans-30" x="95.410156"/>
      </g>
     </g>
    </g>
    <g id="xtick_2">
     <g id="line2d_2">
      <g>
       <use xlink:href="#mf2caa58815" x="131.184521" y="320.4" style="stroke: #000000; stroke-width: 0.8"/>
      </g>
     </g>
     <g id="text_2">
      <!-- 1.5 -->
      <g transform="translate(123.232958 334.998438) scale(0.1 -0.1)">
       <defs>
        <path id="DejaVuSans-35" d="M 691 4666 
L 3169 4666 
L 3169 4134 
L 1269 4134 
L 1269 2991 
Q 1406 3038 1543 3061 
Q 1681 3084 1819 3084 
Q 2600 3084 3056 2656 
Q 3513 2228 3513 1497 
Q 3513 744 3044 326 
Q 2575 -91 1722 -91 
Q 1428 -91 1123 -41 
Q 819 9 494 109 
L 494 744 
Q 775 591 1075 516 
Q 1375 441 1709 441 
Q 2250 441 2565 725 
Q 2881 1009 2881 1497 
Q 2881 1984 2565 2268 
Q 2250 2553 1709 2553 
Q 1456 2553 1204 2497 
Q 953 2441 691 2322 
L 691 4666 
z
" transform="scale(0.015625)"/>
       </defs>
       <use xlink:href="#DejaVuSans-31"/>
       <use xlink:href="#DejaVuSans-2e" x="63.623047"/>
       <use xlink:href="#DejaVuSans-35" x="95.410156"/>
      </g>
     </g>
    </g>
    <g id="xtick_3">
     <g id="line2d_3">
      <g>
       <use xlink:href="#mf2caa58815" x="189.912692" y="320.4" style="stroke: #000000; stroke-width: 0.8"/>
      </g>
     </g>
     <g id="text_3">
      <!-- 2.0 -->
      <g transform="translate(181.96113 334.998438) scale(0.1 -0.1)">
       <defs>
        <path id="DejaVuSans-32" d="M 1228 531 
L 3431 531 
L 3431 0 
L 469 0 
L 469 531 
Q 828 903 1448 1529 
Q 2069 2156 2228 2338 
Q 2531 2678 2651 2914 
Q 2772 3150 2772 3378 
Q 2772 3750 2511 3984 
Q 2250 4219 1831 4219 
Q 1534 4219 1204 4116 
Q 875 4013 500 3803 
L 500 4441 
Q 881 4594 1212 4672 
Q 1544 4750 1819 4750 
Q 2544 4750 2975 4387 
Q 3406 4025 3406 3419 
Q 3406 3131 3298 2873 
Q 3191 2616 2906 2266 
Q 2828 2175 2409 1742 
Q 1991 1309 1228 531 
z
" transform="scale(0.015625)"/>
       </defs>
       <use xlink:href="#DejaVuSans-32"/>
       <use xlink:href="#DejaVuSans-2e" x="63.623047"/>
       <use xlink:href="#DejaVuSans-30" x="95.410156"/>
      </g>
     </g>
    </g>
    <g id="xtick_4">
     <g id="line2d_4">
      <g>
       <use xlink:href="#mf2caa58815" x="248.640863" y="320.4" style="stroke: #000000; stroke-width: 0.8"/>
      </g>
     </g>
     <g id="text_4">
      <!-- 2.5 -->
      <g transform="translate(240.689301 334.998438) scale(0.1 -0.1)">
       <use xlink:href="#DejaVuSans-32"/>
       <use xlink:href="#DejaVuSans-2e" x="63.623047"/>
       <use xlink:href="#DejaVuSans-35" x="95.410156"/>
      </g>
     </g>
    </g>
    <g id="xtick_5">
     <g id="line2d_5">
      <g>
       <use xlink:href="#mf2caa58815" x="307.369035" y="320.4" style="stroke: #000000; stroke-width: 0.8"/>
      </g>
     </g>
     <g id="text_5">
      <!-- 3.0 -->
      <g transform="translate(299.417472 334.998438) scale(0.1 -0.1)">
       <defs>
        <path id="DejaVuSans-33" d="M 2597 2516 
Q 3050 2419 3304 2112 
Q 3559 1806 3559 1356 
Q 3559 666 3084 287 
Q 2609 -91 1734 -91 
Q 1441 -91 1130 -33 
Q 819 25 488 141 
L 488 750 
Q 750 597 1062 519 
Q 1375 441 1716 441 
Q 2309 441 2620 675 
Q 2931 909 2931 1356 
Q 2931 1769 2642 2001 
Q 2353 2234 1838 2234 
L 1294 2234 
L 1294 2753 
L 1863 2753 
Q 2328 2753 2575 2939 
Q 2822 3125 2822 3475 
Q 2822 3834 2567 4026 
Q 2313 4219 1838 4219 
Q 1578 4219 1281 4162 
Q 984 4106 628 3988 
L 628 4550 
Q 988 4650 1302 4700 
Q 1616 4750 1894 4750 
Q 2613 4750 3031 4423 
Q 3450 4097 3450 3541 
Q 3450 3153 3228 2886 
Q 3006 2619 2597 2516 
z
" transform="scale(0.015625)"/>
       </defs>
       <use xlink:href="#DejaVuSans-33"/>
       <use xlink:href="#DejaVuSans-2e" x="63.623047"/>
       <use xlink:href="#DejaVuSans-30" x="95.410156"/>
      </g>
     </g>
    </g>
    <g id="text_6">
     <!-- Distractor probe distance -->
     <g transform="translate(120.960156 348.676562) scale(0.1 -0.1)">
      <defs>
       <path id="DejaVuSans-44" d="M 1259 4147 
L 1259 519 
L 2022 519 
Q 2988 519 3436 956 
Q 3884 1394 3884 2338 
Q 3884 3275 3436 3711 
Q 2988 4147 2022 4147 
L 1259 4147 
z
M 628 4666 
L 1925 4666 
Q 3281 4666 3915 4102 
Q 4550 3538 4550 2338 
Q 4550 1131 3912 565 
Q 3275 0 1925 0 
L 628 0 
L 628 4666 
z
" transform="scale(0.015625)"/>
       <path id="DejaVuSans-69" d="M 603 3500 
L 1178 3500 
L 1178 0 
L 603 0 
L 603 3500 
z
M 603 4863 
L 1178 4863 
L 1178 4134 
L 603 4134 
L 603 4863 
z
" transform="scale(0.015625)"/>
       <path id="DejaVuSans-73" d="M 2834 3397 
L 2834 2853 
Q 2591 2978 2328 3040 
Q 2066 3103 1784 3103 
Q 1356 3103 1142 2972 
Q 928 2841 928 2578 
Q 928 2378 1081 2264 
Q 1234 2150 1697 2047 
L 1894 2003 
Q 2506 1872 2764 1633 
Q 3022 1394 3022 966 
Q 3022 478 2636 193 
Q 2250 -91 1575 -91 
Q 1294 -91 989 -36 
Q 684 19 347 128 
L 347 722 
Q 666 556 975 473 
Q 1284 391 1588 391 
Q 1994 391 2212 530 
Q 2431 669 2431 922 
Q 2431 1156 2273 1281 
Q 2116 1406 1581 1522 
L 1381 1569 
Q 847 1681 609 1914 
Q 372 2147 372 2553 
Q 372 3047 722 3315 
Q 1072 3584 1716 3584 
Q 2034 3584 2315 3537 
Q 2597 3491 2834 3397 
z
" transform="scale(0.015625)"/>
       <path id="DejaVuSans-74" d="M 1172 4494 
L 1172 3500 
L 2356 3500 
L 2356 3053 
L 1172 3053 
L 1172 1153 
Q 1172 725 1289 603 
Q 1406 481 1766 481 
L 2356 481 
L 2356 0 
L 1766 0 
Q 1100 0 847 248 
Q 594 497 594 1153 
L 594 3053 
L 172 3053 
L 172 3500 
L 594 3500 
L 594 4494 
L 1172 4494 
z
" transform="scale(0.015625)"/>
       <path id="DejaVuSans-72" d="M 2631 2963 
Q 2534 3019 2420 3045 
Q 2306 3072 2169 3072 
Q 1681 3072 1420 2755 
Q 1159 2438 1159 1844 
L 1159 0 
L 581 0 
L 581 3500 
L 1159 3500 
L 1159 2956 
Q 1341 3275 1631 3429 
Q 1922 3584 2338 3584 
Q 2397 3584 2469 3576 
Q 2541 3569 2628 3553 
L 2631 2963 
z
" transform="scale(0.015625)"/>
       <path id="DejaVuSans-61" d="M 2194 1759 
Q 1497 1759 1228 1600 
Q 959 1441 959 1056 
Q 959 750 1161 570 
Q 1363 391 1709 391 
Q 2188 391 2477 730 
Q 2766 1069 2766 1631 
L 2766 1759 
L 2194 1759 
z
M 3341 1997 
L 3341 0 
L 2766 0 
L 2766 531 
Q 2569 213 2275 61 
Q 1981 -91 1556 -91 
Q 1019 -91 701 211 
Q 384 513 384 1019 
Q 384 1609 779 1909 
Q 1175 2209 1959 2209 
L 2766 2209 
L 2766 2266 
Q 2766 2663 2505 2880 
Q 2244 3097 1772 3097 
Q 1472 3097 1187 3025 
Q 903 2953 641 2809 
L 641 3341 
Q 956 3463 1253 3523 
Q 1550 3584 1831 3584 
Q 2591 3584 2966 3190 
Q 3341 2797 3341 1997 
z
" transform="scale(0.015625)"/>
       <path id="DejaVuSans-63" d="M 3122 3366 
L 3122 2828 
Q 2878 2963 2633 3030 
Q 2388 3097 2138 3097 
Q 1578 3097 1268 2742 
Q 959 2388 959 1747 
Q 959 1106 1268 751 
Q 1578 397 2138 397 
Q 2388 397 2633 464 
Q 2878 531 3122 666 
L 3122 134 
Q 2881 22 2623 -34 
Q 2366 -91 2075 -91 
Q 1284 -91 818 406 
Q 353 903 353 1747 
Q 353 2603 823 3093 
Q 1294 3584 2113 3584 
Q 2378 3584 2631 3529 
Q 2884 3475 3122 3366 
z
" transform="scale(0.015625)"/>
       <path id="DejaVuSans-6f" d="M 1959 3097 
Q 1497 3097 1228 2736 
Q 959 2375 959 1747 
Q 959 1119 1226 758 
Q 1494 397 1959 397 
Q 2419 397 2687 759 
Q 2956 1122 2956 1747 
Q 2956 2369 2687 2733 
Q 2419 3097 1959 3097 
z
M 1959 3584 
Q 2709 3584 3137 3096 
Q 3566 2609 3566 1747 
Q 3566 888 3137 398 
Q 2709 -91 1959 -91 
Q 1206 -91 779 398 
Q 353 888 353 1747 
Q 353 2609 779 3096 
Q 1206 3584 1959 3584 
z
" transform="scale(0.015625)"/>
       <path id="DejaVuSans-20" transform="scale(0.015625)"/>
       <path id="DejaVuSans-70" d="M 1159 525 
L 1159 -1331 
L 581 -1331 
L 581 3500 
L 1159 3500 
L 1159 2969 
Q 1341 3281 1617 3432 
Q 1894 3584 2278 3584 
Q 2916 3584 3314 3078 
Q 3713 2572 3713 1747 
Q 3713 922 3314 415 
Q 2916 -91 2278 -91 
Q 1894 -91 1617 61 
Q 1341 213 1159 525 
z
M 3116 1747 
Q 3116 2381 2855 2742 
Q 2594 3103 2138 3103 
Q 1681 3103 1420 2742 
Q 1159 2381 1159 1747 
Q 1159 1113 1420 752 
Q 1681 391 2138 391 
Q 2594 391 2855 752 
Q 3116 1113 3116 1747 
z
" transform="scale(0.015625)"/>
       <path id="DejaVuSans-62" d="M 3116 1747 
Q 3116 2381 2855 2742 
Q 2594 3103 2138 3103 
Q 1681 3103 1420 2742 
Q 1159 2381 1159 1747 
Q 1159 1113 1420 752 
Q 1681 391 2138 391 
Q 2594 391 2855 752 
Q 3116 1113 3116 1747 
z
M 1159 2969 
Q 1341 3281 1617 3432 
Q 1894 3584 2278 3584 
Q 2916 3584 3314 3078 
Q 3713 2572 3713 1747 
Q 3713 922 3314 415 
Q 2916 -91 2278 -91 
Q 1894 -91 1617 61 
Q 1341 213 1159 525 
L 1159 0 
L 581 0 
L 581 4863 
L 1159 4863 
L 1159 2969 
z
" transform="scale(0.015625)"/>
       <path id="DejaVuSans-65" d="M 3597 1894 
L 3597 1613 
L 953 1613 
Q 991 1019 1311 708 
Q 1631 397 2203 397 
Q 2534 397 2845 478 
Q 3156 559 3463 722 
L 3463 178 
Q 3153 47 2828 -22 
Q 2503 -91 2169 -91 
Q 1331 -91 842 396 
Q 353 884 353 1716 
Q 353 2575 817 3079 
Q 1281 3584 2069 3584 
Q 2775 3584 3186 3129 
Q 3597 2675 3597 1894 
z
M 3022 2063 
Q 3016 2534 2758 2815 
Q 2500 3097 2075 3097 
Q 1594 3097 1305 2825 
Q 1016 2553 972 2059 
L 3022 2063 
z
" transform="scale(0.015625)"/>
       <path id="DejaVuSans-64" d="M 2906 2969 
L 2906 4863 
L 3481 4863 
L 3481 0 
L 2906 0 
L 2906 525 
Q 2725 213 2448 61 
Q 2172 -91 1784 -91 
Q 1150 -91 751 415 
Q 353 922 353 1747 
Q 353 2572 751 3078 
Q 1150 3584 1784 3584 
Q 2172 3584 2448 3432 
Q 2725 3281 2906 2969 
z
M 947 1747 
Q 947 1113 1208 752 
Q 1469 391 1925 391 
Q 2381 391 2643 752 
Q 2906 1113 2906 1747 
Q 2906 2381 2643 2742 
Q 2381 3103 1925 3103 
Q 1469 3103 1208 2742 
Q 947 2381 947 1747 
z
" transform="scale(0.015625)"/>
       <path id="DejaVuSans-6e" d="M 3513 2113 
L 3513 0 
L 2938 0 
L 2938 2094 
Q 2938 2591 2744 2837 
Q 2550 3084 2163 3084 
Q 1697 3084 1428 2787 
Q 1159 2491 1159 1978 
L 1159 0 
L 581 0 
L 581 3500 
L 1159 3500 
L 1159 2956 
Q 1366 3272 1645 3428 
Q 1925 3584 2291 3584 
Q 2894 3584 3203 3211 
Q 3513 2838 3513 2113 
z
" transform="scale(0.015625)"/>
      </defs>
      <use xlink:href="#DejaVuSans-44"/>
      <use xlink:href="#DejaVuSans-69" x="77.001953"/>
      <use xlink:href="#DejaVuSans-73" x="104.785156"/>
      <use xlink:href="#DejaVuSans-74" x="156.884766"/>
      <use xlink:href="#DejaVuSans-72" x="196.09375"/>
      <use xlink:href="#DejaVuSans-61" x="237.207031"/>
      <use xlink:href="#DejaVuSans-63" x="298.486328"/>
      <use xlink:href="#DejaVuSans-74" x="353.466797"/>
      <use xlink:href="#DejaVuSans-6f" x="392.675781"/>
      <use xlink:href="#DejaVuSans-72" x="453.857422"/>
      <use xlink:href="#DejaVuSans-20" x="494.970703"/>
      <use xlink:href="#DejaVuSans-70" x="526.757812"/>
      <use xlink:href="#DejaVuSans-72" x="590.234375"/>
      <use xlink:href="#DejaVuSans-6f" x="629.097656"/>
      <use xlink:href="#DejaVuSans-62" x="690.279297"/>
      <use xlink:href="#DejaVuSans-65" x="753.755859"/>
      <use xlink:href="#DejaVuSans-20" x="815.279297"/>
      <use xlink:href="#DejaVuSans-64" x="847.066406"/>
      <use xlink:href="#DejaVuSans-69" x="910.542969"/>
      <use xlink:href="#DejaVuSans-73" x="938.326172"/>
      <use xlink:href="#DejaVuSans-74" x="990.425781"/>
      <use xlink:href="#DejaVuSans-61" x="1029.634766"/>
      <use xlink:href="#DejaVuSans-6e" x="1090.914062"/>
      <use xlink:href="#DejaVuSans-63" x="1154.292969"/>
      <use xlink:href="#DejaVuSans-65" x="1209.273438"/>
     </g>
    </g>
   </g>
   <g id="matplotlib.axis_2">
    <g id="ytick_1">
     <g id="line2d_6">
      <defs>
       <path id="m10f8ffcd4b" d="M 0 0 
L -3.5 0 
" style="stroke: #000000; stroke-width: 0.8"/>
      </defs>
      <g>
       <use xlink:href="#m10f8ffcd4b" x="45" y="307.8" style="stroke: #000000; stroke-width: 0.8"/>
      </g>
     </g>
     <g id="text_7">
      <!-- 0.0 -->
      <g transform="translate(22.096875 311.599219) scale(0.1 -0.1)">
       <use xlink:href="#DejaVuSans-30"/>
       <use xlink:href="#DejaVuSans-2e" x="63.623047"/>
       <use xlink:href="#DejaVuSans-30" x="95.410156"/>
      </g>
     </g>
    </g>
    <g id="ytick_2">
     <g id="line2d_7">
      <g>
       <use xlink:href="#m10f8ffcd4b" x="45" y="251.952519" style="stroke: #000000; stroke-width: 0.8"/>
      </g>
     </g>
     <g id="text_8">
      <!-- 0.1 -->
      <g transform="translate(22.096875 255.751738) scale(0.1 -0.1)">
       <use xlink:href="#DejaVuSans-30"/>
       <use xlink:href="#DejaVuSans-2e" x="63.623047"/>
       <use xlink:href="#DejaVuSans-31" x="95.410156"/>
      </g>
     </g>
    </g>
    <g id="ytick_3">
     <g id="line2d_8">
      <g>
       <use xlink:href="#m10f8ffcd4b" x="45" y="196.105038" style="stroke: #000000; stroke-width: 0.8"/>
      </g>
     </g>
     <g id="text_9">
      <!-- 0.2 -->
      <g transform="translate(22.096875 199.904257) scale(0.1 -0.1)">
       <use xlink:href="#DejaVuSans-30"/>
       <use xlink:href="#DejaVuSans-2e" x="63.623047"/>
       <use xlink:href="#DejaVuSans-32" x="95.410156"/>
      </g>
     </g>
    </g>
    <g id="ytick_4">
     <g id="line2d_9">
      <g>
       <use xlink:href="#m10f8ffcd4b" x="45" y="140.257557" style="stroke: #000000; stroke-width: 0.8"/>
      </g>
     </g>
     <g id="text_10">
      <!-- 0.3 -->
      <g transform="translate(22.096875 144.056776) scale(0.1 -0.1)">
       <use xlink:href="#DejaVuSans-30"/>
       <use xlink:href="#DejaVuSans-2e" x="63.623047"/>
       <use xlink:href="#DejaVuSans-33" x="95.410156"/>
      </g>
     </g>
    </g>
    <g id="ytick_5">
     <g id="line2d_10">
      <g>
       <use xlink:href="#m10f8ffcd4b" x="45" y="84.410076" style="stroke: #000000; stroke-width: 0.8"/>
      </g>
     </g>
     <g id="text_11">
      <!-- 0.4 -->
      <g transform="translate(22.096875 88.209295) scale(0.1 -0.1)">
       <defs>
        <path id="DejaVuSans-34" d="M 2419 4116 
L 825 1625 
L 2419 1625 
L 2419 4116 
z
M 2253 4666 
L 3047 4666 
L 3047 1625 
L 3713 1625 
L 3713 1100 
L 3047 1100 
L 3047 0 
L 2419 0 
L 2419 1100 
L 313 1100 
L 313 1709 
L 2253 4666 
z
" transform="scale(0.015625)"/>
       </defs>
       <use xlink:href="#DejaVuSans-30"/>
       <use xlink:href="#DejaVuSans-2e" x="63.623047"/>
       <use xlink:href="#DejaVuSans-34" x="95.410156"/>
      </g>
     </g>
    </g>
    <g id="text_12">
     <!-- Swap probability -->
     <g transform="translate(16.017187 223.566406) rotate(-90) scale(0.1 -0.1)">
      <defs>
       <path id="DejaVuSans-53" d="M 3425 4513 
L 3425 3897 
Q 3066 4069 2747 4153 
Q 2428 4238 2131 4238 
Q 1616 4238 1336 4038 
Q 1056 3838 1056 3469 
Q 1056 3159 1242 3001 
Q 1428 2844 1947 2747 
L 2328 2669 
Q 3034 2534 3370 2195 
Q 3706 1856 3706 1288 
Q 3706 609 3251 259 
Q 2797 -91 1919 -91 
Q 1588 -91 1214 -16 
Q 841 59 441 206 
L 441 856 
Q 825 641 1194 531 
Q 1563 422 1919 422 
Q 2459 422 2753 634 
Q 3047 847 3047 1241 
Q 3047 1584 2836 1778 
Q 2625 1972 2144 2069 
L 1759 2144 
Q 1053 2284 737 2584 
Q 422 2884 422 3419 
Q 422 4038 858 4394 
Q 1294 4750 2059 4750 
Q 2388 4750 2728 4690 
Q 3069 4631 3425 4513 
z
" transform="scale(0.015625)"/>
       <path id="DejaVuSans-77" d="M 269 3500 
L 844 3500 
L 1563 769 
L 2278 3500 
L 2956 3500 
L 3675 769 
L 4391 3500 
L 4966 3500 
L 4050 0 
L 3372 0 
L 2619 2869 
L 1863 0 
L 1184 0 
L 269 3500 
z
" transform="scale(0.015625)"/>
       <path id="DejaVuSans-6c" d="M 603 4863 
L 1178 4863 
L 1178 0 
L 603 0 
L 603 4863 
z
" transform="scale(0.015625)"/>
       <path id="DejaVuSans-79" d="M 2059 -325 
Q 1816 -950 1584 -1140 
Q 1353 -1331 966 -1331 
L 506 -1331 
L 506 -850 
L 844 -850 
Q 1081 -850 1212 -737 
Q 1344 -625 1503 -206 
L 1606 56 
L 191 3500 
L 800 3500 
L 1894 763 
L 2988 3500 
L 3597 3500 
L 2059 -325 
z
" transform="scale(0.015625)"/>
      </defs>
      <use xlink:href="#DejaVuSans-53"/>
      <use xlink:href="#DejaVuSans-77" x="63.476562"/>
      <use xlink:href="#DejaVuSans-61" x="145.263672"/>
      <use xlink:href="#DejaVuSans-70" x="206.542969"/>
      <use xlink:href="#DejaVuSans-20" x="270.019531"/>
      <use xlink:href="#DejaVuSans-70" x="301.806641"/>
      <use xlink:href="#DejaVuSans-72" x="365.283203"/>
      <use xlink:href="#DejaVuSans-6f" x="404.146484"/>
      <use xlink:href="#DejaVuSans-62" x="465.328125"/>
      <use xlink:href="#DejaVuSans-61" x="528.804688"/>
      <use xlink:href="#DejaVuSans-62" x="590.083984"/>
      <use xlink:href="#DejaVuSans-69" x="653.560547"/>
      <use xlink:href="#DejaVuSans-6c" x="681.34375"/>
      <use xlink:href="#DejaVuSans-69" x="709.126953"/>
      <use xlink:href="#DejaVuSans-74" x="736.910156"/>
      <use xlink:href="#DejaVuSans-79" x="776.119141"/>
     </g>
    </g>
   </g>
   <g id="line2d_11">
    <path d="M 45 307.8 
L 50.693874 307.8 
L 56.387756 307.8 
L 62.081637 307.8 
L 67.775512 307.8 
L 73.469386 307.8 
L 79.163267 307.8 
L 84.857149 307.8 
L 90.551016 307.8 
L 96.244898 307.8 
L 101.938779 307.8 
L 107.63266 307.8 
L 113.326542 307.8 
L 119.020409 307.8 
L 124.714291 307.8 
L 130.408172 307.8 
L 136.10204 307.8 
L 141.795921 307.8 
L 147.489802 307.8 
L 153.183684 307.8 
L 158.877565 307.8 
L 164.571433 307.8 
L 170.265314 307.8 
L 175.959195 307.8 
L 181.653063 307.8 
L 187.34693 307.8 
L 193.040798 307.8 
L 198.734693 307.8 
L 204.42856 307.8 
L 210.122456 307.8 
L 215.816323 307.8 
L 221.510191 307.8 
L 227.204086 307.8 
L 232.897953 307.8 
L 238.591821 307.8 
L 244.285716 307.8 
L 249.979584 307.8 
L 255.673451 307.8 
L 261.367347 307.8 
L 267.061214 307.8 
L 272.755109 307.8 
L 278.448977 307.8 
L 284.142844 307.8 
L 289.83674 307.8 
L 295.530607 307.8 
L 301.224502 307.8 
L 306.91837 307.8 
L 312.612237 307.8 
L 318.306133 307.8 
L 324 307.8 
" clip-path="url(#pa59c8d2703)" style="fill: none; stroke-dasharray: 14.8,6.4; stroke-dashoffset: 0; stroke: #e46662; stroke-width: 4"/>
   </g>
   <g id="line2d_12">
    <path d="M 48.181824 300.593699 
L 55.636373 304.06857 
L 63.090921 305.474895 
L 70.545463 306.095052 
L 78.000005 306.375013 
L 85.454553 306.469772 
L 92.909102 306.475907 
L 100.363651 306.443653 
L 107.818185 306.431212 
L 115.272734 306.455924 
L 122.727283 306.502644 
L 130.181818 306.59247 
L 137.636366 306.713243 
L 145.090915 306.862668 
L 152.545464 307.011133 
L 160.000012 307.138687 
L 167.454547 307.233665 
L 174.909096 307.290312 
L 182.363645 307.305877 
L 189.818179 307.276744 
L 197.272728 307.190786 
L 204.727277 307.046285 
L 212.181825 306.853182 
L 219.636374 306.641793 
L 227.090923 306.458026 
L 234.545444 306.318518 
L 241.999992 306.274174 
L 249.454541 306.325016 
L 256.90909 306.461156 
L 264.363638 306.611673 
L 271.818187 306.741371 
L 279.272736 306.824054 
L 286.727284 306.853838 
L 294.181833 306.845924 
L 301.636354 306.817314 
L 309.090903 306.792537 
L 316.545451 306.78621 
L 324 306.796992 
" clip-path="url(#pa59c8d2703)" style="fill: none; stroke: #e46662; stroke-width: 4; stroke-linecap: square"/>
   </g>
   <g id="line2d_13">
    <path d="M 45 140.25755 
L 50.693874 140.25755 
L 56.387756 140.25755 
L 62.081637 140.25755 
L 67.775512 140.25755 
L 73.469386 140.25755 
L 79.163267 140.25755 
L 84.857149 140.25755 
L 90.551016 140.25755 
L 96.244898 140.25755 
L 101.938779 140.25755 
L 107.63266 140.25755 
L 113.326542 140.25755 
L 119.020409 140.25755 
L 124.714291 140.25755 
L 130.408172 140.25755 
L 136.10204 140.25755 
L 141.795921 140.25755 
L 147.489802 140.25755 
L 153.183684 140.25755 
L 158.877565 140.25755 
L 164.571433 140.25755 
L 170.265314 140.25755 
L 175.959195 140.25755 
L 181.653063 140.25755 
L 187.34693 140.25755 
L 193.040798 140.25755 
L 198.734693 140.25755 
L 204.42856 140.25755 
L 210.122456 140.25755 
L 215.816323 140.25755 
L 221.510191 140.25755 
L 227.204086 140.25755 
L 232.897953 140.25755 
L 238.591821 140.25755 
L 244.285716 140.25755 
L 249.979584 140.25755 
L 255.673451 140.25755 
L 261.367347 140.25755 
L 267.061214 140.25755 
L 272.755109 140.25755 
L 278.448977 140.25755 
L 284.142844 140.25755 
L 289.83674 140.25755 
L 295.530607 140.25755 
L 301.224502 140.25755 
L 306.91837 140.25755 
L 312.612237 140.25755 
L 318.306133 140.25755 
L 324 140.25755 
" clip-path="url(#pa59c8d2703)" style="fill: none; stroke-dasharray: 14.8,6.4; stroke-dashoffset: 0; stroke: #3f51a0; stroke-width: 4"/>
   </g>
   <g id="line2d_14">
    <path d="M 48.181824 131.45444 
L 55.636373 134.151457 
L 63.090921 136.411272 
L 70.545463 138.323439 
L 78.000005 140.428142 
L 85.454553 142.661561 
L 92.909102 144.981852 
L 100.363651 147.006316 
L 107.818185 148.541352 
L 115.272734 149.409101 
L 122.727283 149.420775 
L 130.181818 148.057898 
L 137.636366 145.703839 
L 145.090915 143.047947 
L 152.545464 140.123649 
L 160.000012 137.392313 
L 167.454547 135.375903 
L 174.909096 134.215015 
L 182.363645 134.235197 
L 189.818179 135.20305 
L 197.272728 137.297775 
L 204.727277 139.87128 
L 212.181825 142.31282 
L 219.636374 144.841675 
L 227.090923 147.234293 
L 234.545444 149.332252 
L 241.999992 150.768286 
L 249.454541 151.731512 
L 256.90909 151.661145 
L 264.363638 150.714656 
L 271.818187 148.932264 
L 279.272736 146.392076 
L 286.727284 143.384596 
L 294.181833 139.966413 
L 301.636354 136.64019 
L 309.090903 133.952033 
L 316.545451 132.113186 
L 324 131.252046 
" clip-path="url(#pa59c8d2703)" style="fill: none; stroke: #3f51a0; stroke-width: 4; stroke-linecap: square"/>
   </g>
   <g id="line2d_15">
    <path d="M 45 279.876259 
L 50.693874 279.876259 
L 56.387756 279.876259 
L 62.081637 279.876259 
L 67.775512 279.876259 
L 73.469386 279.876259 
L 79.163267 279.876259 
L 84.857149 279.876259 
L 90.551016 279.876259 
L 96.244898 279.876259 
L 101.938779 279.876259 
L 107.63266 279.876259 
L 113.326542 279.876259 
L 119.020409 279.876259 
L 124.714291 279.876259 
L 130.408172 279.876259 
L 136.10204 279.876259 
L 141.795921 279.876259 
L 147.489802 279.876259 
L 153.183684 279.876259 
L 158.877565 279.876259 
L 164.571433 279.876259 
L 170.265314 279.876259 
L 175.959195 279.876259 
L 181.653063 279.876259 
L 187.34693 279.876259 
L 193.040798 279.876259 
L 198.734693 279.876259 
L 204.42856 279.876259 
L 210.122456 279.876259 
L 215.816323 279.876259 
L 221.510191 279.876259 
L 227.204086 279.876259 
L 232.897953 279.876259 
L 238.591821 279.876259 
L 244.285716 279.876259 
L 249.979584 279.876259 
L 255.673451 279.876259 
L 261.367347 279.876259 
L 267.061214 279.876259 
L 272.755109 279.876259 
L 278.448977 279.876259 
L 284.142844 279.876259 
L 289.83674 279.876259 
L 295.530607 279.876259 
L 301.224502 279.876259 
L 306.91837 279.876259 
L 312.612237 279.876259 
L 318.306133 279.876259 
L 324 279.876259 
" clip-path="url(#pa59c8d2703)" style="fill: none; stroke-dasharray: 14.8,6.4; stroke-dashoffset: 0; stroke: #6f8cd5; stroke-width: 4"/>
   </g>
   <g id="line2d_16">
    <path d="M 48.181824 260.376048 
L 55.636373 269.121533 
L 63.090921 273.673633 
L 70.545463 275.449972 
L 78.000005 275.362687 
L 85.454553 274.297654 
L 92.909102 272.928206 
L 100.363651 271.825082 
L 107.818185 271.178043 
L 115.272734 271.067232 
L 122.727283 271.428486 
L 130.181818 271.79615 
L 137.636366 271.991047 
L 145.090915 271.834089 
L 152.545464 271.546955 
L 160.000012 271.539065 
L 167.454547 271.877945 
L 174.909096 272.65219 
L 182.363645 273.773228 
L 189.818179 275.172522 
L 197.272728 276.647453 
L 204.727277 277.887288 
L 212.181825 278.654263 
L 219.636374 278.645988 
L 227.090923 277.978096 
L 234.545444 277.007546 
L 241.999992 276.142364 
L 249.454541 275.481186 
L 256.90909 275.22001 
L 264.363638 275.433155 
L 271.818187 275.953767 
L 279.272736 276.504014 
L 286.727284 277.02775 
L 294.181833 277.478809 
L 301.636354 278.021738 
L 309.090903 278.532855 
L 316.545451 278.969722 
L 324 279.329564 
" clip-path="url(#pa59c8d2703)" style="fill: none; stroke: #6f8cd5; stroke-width: 4; stroke-linecap: square"/>
   </g>
   <g id="line2d_17">
    <path d="M 45 55.8 
L 50.693874 59.328179 
L 56.387756 63.061877 
L 62.081637 66.997714 
L 67.775512 71.131695 
L 73.469386 75.459245 
L 79.163267 79.975104 
L 84.857149 84.673212 
L 90.551016 89.546797 
L 96.244898 94.588201 
L 101.938779 99.78897 
L 107.63266 105.13975 
L 113.326542 110.630289 
L 119.020409 116.249418 
L 124.714291 121.985187 
L 130.408172 127.82468 
L 136.10204 133.754167 
L 141.795921 139.759267 
L 147.489802 145.824767 
L 153.183684 151.934956 
L 158.877565 158.073506 
L 164.571433 164.223774 
L 170.265314 170.368857 
L 175.959195 176.491653 
L 181.653063 182.575162 
L 187.34693 188.602498 
L 193.040798 194.55715 
L 198.734693 200.423133 
L 204.42856 206.184924 
L 210.122456 211.828045 
L 215.816323 217.338706 
L 221.510191 222.704291 
L 227.204086 227.913366 
L 232.897953 232.955619 
L 238.591821 237.822171 
L 244.285716 242.505467 
L 249.979584 246.999314 
L 255.673451 251.298977 
L 261.367347 255.401086 
L 267.061214 259.303602 
L 272.755109 263.005834 
L 278.448977 266.508282 
L 284.142844 269.812664 
L 289.83674 272.921732 
L 295.530607 275.839228 
L 301.224502 278.569763 
L 306.91837 281.11867 
L 312.612237 283.491985 
L 318.306133 285.696277 
L 324 287.738513 
" clip-path="url(#pa59c8d2703)" style="fill: none; stroke-dasharray: 14.8,6.4; stroke-dashoffset: 0; stroke: #d9b26f; stroke-width: 4"/>
   </g>
   <g id="line2d_18">
    <path d="M 48.181824 59.009084 
L 55.636373 62.589601 
L 63.090921 66.699467 
L 70.545463 71.395288 
L 78.000005 76.953468 
L 85.454553 83.05631 
L 92.909102 90.10823 
L 100.363651 97.920668 
L 107.818185 106.203396 
L 115.272734 114.89661 
L 122.727283 123.250618 
L 130.181818 130.817973 
L 137.636366 137.376218 
L 145.090915 143.077798 
L 152.545464 148.273264 
L 160.000012 153.649831 
L 167.454547 159.659976 
L 174.909096 166.284052 
L 182.363645 173.98462 
L 189.818179 182.512356 
L 197.272728 191.51567 
L 204.727277 201.070225 
L 212.181825 210.622156 
L 219.636374 219.793884 
L 227.090923 228.544482 
L 234.545444 236.52912 
L 241.999992 243.45731 
L 249.454541 249.348309 
L 256.90909 254.201886 
L 264.363638 257.942097 
L 271.818187 260.868919 
L 279.272736 262.912098 
L 286.727284 264.068343 
L 294.181833 264.57545 
L 301.636354 264.47554 
L 309.090903 264.145743 
L 316.545451 263.79598 
L 324 263.612162 
" clip-path="url(#pa59c8d2703)" style="fill: none; stroke: #d9b26f; stroke-width: 4; stroke-linecap: square"/>
   </g>
   <g id="line2d_19">
    <path d="M 45 251.87616 
L 50.693874 253.148678 
L 56.387756 254.470928 
L 62.081637 255.838374 
L 67.775512 257.246339 
L 73.469386 258.690072 
L 79.163267 260.164763 
L 84.857149 261.665526 
L 90.551016 263.187501 
L 96.244898 264.725813 
L 101.938779 266.275621 
L 107.63266 267.832179 
L 113.326542 269.3908 
L 119.020409 270.946925 
L 124.714291 272.496138 
L 130.408172 274.034186 
L 136.10204 275.55699 
L 141.795921 277.060684 
L 147.489802 278.541624 
L 153.183684 279.996403 
L 158.877565 281.421857 
L 164.571433 282.815086 
L 170.265314 284.173484 
L 175.959195 285.494687 
L 181.653063 286.776636 
L 187.34693 288.017542 
L 193.040798 289.21591 
L 198.734693 290.370514 
L 204.42856 291.480385 
L 210.122456 292.544851 
L 215.816323 293.563458 
L 221.510191 294.536012 
L 227.204086 295.462559 
L 232.897953 296.343331 
L 238.591821 297.178787 
L 244.285716 297.969557 
L 249.979584 298.716439 
L 255.673451 299.420384 
L 261.367347 300.082477 
L 267.061214 300.703916 
L 272.755109 301.286004 
L 278.448977 301.830117 
L 284.142844 302.337712 
L 289.83674 302.810292 
L 295.530607 303.2494 
L 301.224502 303.656604 
L 306.91837 304.033481 
L 312.612237 304.381616 
L 318.306133 304.702586 
L 324 304.99794 
" clip-path="url(#pa59c8d2703)" style="fill: none; stroke-dasharray: 14.8,6.4; stroke-dashoffset: 0; stroke: #c87941; stroke-width: 4"/>
   </g>
   <g id="line2d_20">
    <path d="M 48.181824 232.677367 
L 55.636373 245.898394 
L 63.090921 254.324905 
L 70.545463 259.456758 
L 78.000005 262.662204 
L 85.454553 264.862784 
L 92.909102 266.525242 
L 100.363651 267.924252 
L 107.818185 269.743254 
L 115.272734 271.960647 
L 122.727283 274.519618 
L 130.181818 277.195946 
L 137.636366 280.106956 
L 145.090915 283.073785 
L 152.545464 285.978755 
L 160.000012 288.250946 
L 167.454547 289.518711 
L 174.909096 289.491485 
L 182.363645 288.5943 
L 189.818179 287.308049 
L 197.272728 286.108162 
L 204.727277 285.055516 
L 212.181825 284.266399 
L 219.636374 283.691178 
L 227.090923 283.640171 
L 234.545444 284.649472 
L 241.999992 286.553301 
L 249.454541 288.686132 
L 256.90909 290.590726 
L 264.363638 291.506008 
L 271.818187 291.184656 
L 279.272736 289.953841 
L 286.727284 288.272474 
L 294.181833 286.615276 
L 301.636354 285.345908 
L 309.090903 284.391576 
L 316.545451 284.072537 
L 324 284.364902 
" clip-path="url(#pa59c8d2703)" style="fill: none; stroke: #c87941; stroke-width: 4; stroke-linecap: square"/>
   </g>
   <g id="line2d_21">
    <path d="M 45 178.099857 
L 50.693874 180.626284 
L 56.387756 183.269477 
L 62.081637 186.022502 
L 67.775512 188.87807 
L 73.469386 191.828492 
L 79.163267 194.865786 
L 84.857149 197.981547 
L 90.551016 201.167187 
L 96.244898 204.413786 
L 101.938779 207.712222 
L 107.63266 211.053199 
L 113.326542 214.427298 
L 119.020409 217.824973 
L 124.714291 221.236728 
L 130.408172 224.653019 
L 136.10204 228.064442 
L 141.795921 231.461709 
L 147.489802 234.835758 
L 153.183684 238.177776 
L 158.877565 241.479274 
L 164.571433 244.732122 
L 170.265314 247.928673 
L 175.959195 251.061681 
L 181.653063 254.124486 
L 187.34693 257.110921 
L 193.040798 260.015446 
L 198.734693 262.833137 
L 204.42856 265.559624 
L 210.122456 268.191282 
L 215.816323 270.725029 
L 221.510191 273.158457 
L 227.204086 275.489819 
L 232.897953 277.717914 
L 238.591821 279.842175 
L 244.285716 281.862579 
L 249.979584 283.779634 
L 255.673451 285.594344 
L 261.367347 287.308173 
L 267.061214 288.92298 
L 272.755109 290.441028 
L 278.448977 291.864867 
L 284.142844 293.197375 
L 289.83674 294.441646 
L 295.530607 295.600984 
L 301.224502 296.678855 
L 306.91837 297.67883 
L 312.612237 298.604582 
L 318.306133 299.459836 
L 324 300.248314 
" clip-path="url(#pa59c8d2703)" style="fill: none; stroke-dasharray: 14.8,6.4; stroke-dashoffset: 0; stroke: #956e40; stroke-width: 4"/>
   </g>
   <g id="line2d_22">
    <path d="M 48.181824 164.141468 
L 55.636373 177.374688 
L 63.090921 186.844852 
L 70.545463 193.862844 
L 78.000005 199.376494 
L 85.454553 204.000089 
L 92.909102 208.539866 
L 100.363651 213.609754 
L 107.818185 219.180239 
L 115.272734 225.127207 
L 122.727283 230.897623 
L 130.181818 235.616542 
L 137.636366 238.815153 
L 145.090915 240.920688 
L 152.545464 242.570705 
L 160.000012 244.093447 
L 167.454547 246.111805 
L 174.909096 248.689705 
L 182.363645 251.662058 
L 189.818179 254.978627 
L 197.272728 258.157068 
L 204.727277 261.020537 
L 212.181825 263.450327 
L 219.636374 265.536379 
L 227.090923 267.818944 
L 234.545444 270.441938 
L 241.999992 273.230144 
L 249.454541 275.984719 
L 256.90909 278.766244 
L 264.363638 281.34619 
L 271.818187 283.768434 
L 279.272736 285.481361 
L 286.727284 286.675626 
L 294.181833 287.267406 
L 301.636354 287.475178 
L 309.090903 287.568094 
L 316.545451 287.728775 
L 324 288.295117 
" clip-path="url(#pa59c8d2703)" style="fill: none; stroke: #956e40; stroke-width: 4; stroke-linecap: square"/>
   </g>
   <g id="patch_3">
    <path d="M 45 320.4 
L 45 43.2 
" style="fill: none; stroke: #000000; stroke-width: 0.8; stroke-linejoin: miter; stroke-linecap: square"/>
   </g>
   <g id="patch_4">
    <path d="M 45 320.4 
L 324 320.4 
" style="fill: none; stroke: #000000; stroke-width: 0.8; stroke-linejoin: miter; stroke-linecap: square"/>
   </g>
   <g id="legend_1">
    <g id="line2d_23">
     <path d="M 131.2375 64.1575 
L 147.2375 64.1575 
L 163.2375 64.1575 
" style="fill: none; stroke: #956e40; stroke-width: 4; stroke-linecap: square"/>
    </g>
    <g id="text_13">
     <!-- Target swap rate -->
     <g transform="translate(176.0375 69.7575) scale(0.16 -0.16)">
      <defs>
       <path id="DejaVuSans-54" d="M -19 4666 
L 3928 4666 
L 3928 4134 
L 2272 4134 
L 2272 0 
L 1638 0 
L 1638 4134 
L -19 4134 
L -19 4666 
z
" transform="scale(0.015625)"/>
       <path id="DejaVuSans-67" d="M 2906 1791 
Q 2906 2416 2648 2759 
Q 2391 3103 1925 3103 
Q 1463 3103 1205 2759 
Q 947 2416 947 1791 
Q 947 1169 1205 825 
Q 1463 481 1925 481 
Q 2391 481 2648 825 
Q 2906 1169 2906 1791 
z
M 3481 434 
Q 3481 -459 3084 -895 
Q 2688 -1331 1869 -1331 
Q 1566 -1331 1297 -1286 
Q 1028 -1241 775 -1147 
L 775 -588 
Q 1028 -725 1275 -790 
Q 1522 -856 1778 -856 
Q 2344 -856 2625 -561 
Q 2906 -266 2906 331 
L 2906 616 
Q 2728 306 2450 153 
Q 2172 0 1784 0 
Q 1141 0 747 490 
Q 353 981 353 1791 
Q 353 2603 747 3093 
Q 1141 3584 1784 3584 
Q 2172 3584 2450 3431 
Q 2728 3278 2906 2969 
L 2906 3500 
L 3481 3500 
L 3481 434 
z
" transform="scale(0.015625)"/>
      </defs>
      <use xlink:href="#DejaVuSans-54"/>
      <use xlink:href="#DejaVuSans-61" x="44.583984"/>
      <use xlink:href="#DejaVuSans-72" x="105.863281"/>
      <use xlink:href="#DejaVuSans-67" x="145.226562"/>
      <use xlink:href="#DejaVuSans-65" x="208.703125"/>
      <use xlink:href="#DejaVuSans-74" x="270.226562"/>
      <use xlink:href="#DejaVuSans-20" x="309.435547"/>
      <use xlink:href="#DejaVuSans-73" x="341.222656"/>
      <use xlink:href="#DejaVuSans-77" x="393.322266"/>
      <use xlink:href="#DejaVuSans-61" x="475.109375"/>
      <use xlink:href="#DejaVuSans-70" x="536.388672"/>
      <use xlink:href="#DejaVuSans-20" x="599.865234"/>
      <use xlink:href="#DejaVuSans-72" x="631.652344"/>
      <use xlink:href="#DejaVuSans-61" x="672.765625"/>
      <use xlink:href="#DejaVuSans-74" x="734.044922"/>
      <use xlink:href="#DejaVuSans-65" x="773.253906"/>
     </g>
    </g>
    <g id="line2d_24">
     <path d="M 131.2375 87.6425 
L 147.2375 87.6425 
L 163.2375 87.6425 
" style="fill: none; stroke-dasharray: 14.8,6.4; stroke-dashoffset: 0; stroke: #000000; stroke-width: 4"/>
    </g>
    <g id="text_14">
     <!-- BNS mean -->
     <g transform="translate(176.0375 93.2425) scale(0.16 -0.16)">
      <defs>
       <path id="DejaVuSans-42" d="M 1259 2228 
L 1259 519 
L 2272 519 
Q 2781 519 3026 730 
Q 3272 941 3272 1375 
Q 3272 1813 3026 2020 
Q 2781 2228 2272 2228 
L 1259 2228 
z
M 1259 4147 
L 1259 2741 
L 2194 2741 
Q 2656 2741 2882 2914 
Q 3109 3088 3109 3444 
Q 3109 3797 2882 3972 
Q 2656 4147 2194 4147 
L 1259 4147 
z
M 628 4666 
L 2241 4666 
Q 2963 4666 3353 4366 
Q 3744 4066 3744 3513 
Q 3744 3084 3544 2831 
Q 3344 2578 2956 2516 
Q 3422 2416 3680 2098 
Q 3938 1781 3938 1306 
Q 3938 681 3513 340 
Q 3088 0 2303 0 
L 628 0 
L 628 4666 
z
" transform="scale(0.015625)"/>
       <path id="DejaVuSans-4e" d="M 628 4666 
L 1478 4666 
L 3547 763 
L 3547 4666 
L 4159 4666 
L 4159 0 
L 3309 0 
L 1241 3903 
L 1241 0 
L 628 0 
L 628 4666 
z
" transform="scale(0.015625)"/>
       <path id="DejaVuSans-6d" d="M 3328 2828 
Q 3544 3216 3844 3400 
Q 4144 3584 4550 3584 
Q 5097 3584 5394 3201 
Q 5691 2819 5691 2113 
L 5691 0 
L 5113 0 
L 5113 2094 
Q 5113 2597 4934 2840 
Q 4756 3084 4391 3084 
Q 3944 3084 3684 2787 
Q 3425 2491 3425 1978 
L 3425 0 
L 2847 0 
L 2847 2094 
Q 2847 2600 2669 2842 
Q 2491 3084 2119 3084 
Q 1678 3084 1418 2786 
Q 1159 2488 1159 1978 
L 1159 0 
L 581 0 
L 581 3500 
L 1159 3500 
L 1159 2956 
Q 1356 3278 1631 3431 
Q 1906 3584 2284 3584 
Q 2666 3584 2933 3390 
Q 3200 3197 3328 2828 
z
" transform="scale(0.015625)"/>
      </defs>
      <use xlink:href="#DejaVuSans-42"/>
      <use xlink:href="#DejaVuSans-4e" x="68.603516"/>
      <use xlink:href="#DejaVuSans-53" x="143.408203"/>
      <use xlink:href="#DejaVuSans-20" x="206.884766"/>
      <use xlink:href="#DejaVuSans-6d" x="238.671875"/>
      <use xlink:href="#DejaVuSans-65" x="336.083984"/>
      <use xlink:href="#DejaVuSans-61" x="397.607422"/>
      <use xlink:href="#DejaVuSans-6e" x="458.886719"/>
     </g>
    </g>
   </g>
  </g>
 </g>
 <defs>
  <clipPath id="pa59c8d2703">
   <rect x="45" y="43.2" width="279" height="277.2"/>
  </clipPath>
 </defs>
</svg>
