<?xml version="1.0" encoding="utf-8" standalone="no"?>
<!DOCTYPE svg PUBLIC "-//W3C//DTD SVG 1.1//EN"
  "http://www.w3.org/Graphics/SVG/1.1/DTD/svg11.dtd">
<svg xmlns:xlink="http://www.w3.org/1999/xlink" width="288pt" height="288pt" viewBox="0 0 288 288" xmlns="http://www.w3.org/2000/svg" version="1.1">
 <metadata>
  <rdf:RDF xmlns:dc="http://purl.org/dc/elements/1.1/" xmlns:cc="http://creativecommons.org/ns#" xmlns:rdf="http://www.w3.org/1999/02/22-rdf-syntax-ns#">
   <cc:Work>
    <dc:type rdf:resource="http://purl.org/dc/dcmitype/StillImage"/>
    <dc:date>2025-05-16T02:10:28.947433</dc:date>
    <dc:format>image/svg+xml</dc:format>
    <dc:creator>
     <cc:Agent>
      <dc:title>Matplotlib v3.9.2, https://matplotlib.org/</dc:title>
     </cc:Agent>
    </dc:creator>
   </cc:Work>
  </rdf:RDF>
 </metadata>
 <defs>
  <style type="text/css">*{stroke-linejoin: round; stroke-linecap: butt}</style>
 </defs>
 <g id="figure_1">
  <g id="patch_1">
   <path d="M 0 288 
L 288 288 
L 288 0 
L 0 0 
L 0 288 
z
" style="fill: none"/>
  </g>
  <g id="axes_1">
   <g id="patch_2">
    <path d="M 36 256.32 
L 259.2 256.32 
L 259.2 34.56 
L 36 34.56 
L 36 256.32 
z
" style="fill: none"/>
   </g>
   <g id="PolyCollection_1">
    <defs>
     <path id="m271baa4e8e" d="M 36 -61.114674 
L 36 -61.114674 
L 39.783051 -80.39096 
L 43.566102 -92.241307 
L 47.349153 -98.977436 
L 51.132203 -101.267271 
L 54.915254 -95.670328 
L 58.698305 -57.231484 
L 62.481356 -35.744495 
L 66.264407 -52.119466 
L 70.047458 -79.385103 
L 73.830508 -92.240155 
L 77.613559 -96.15056 
L 81.39661 -92.609616 
L 85.179661 -78.107859 
L 88.962712 -47.857201 
L 92.745763 -89.595122 
L 96.528814 -54.629875 
L 100.311864 -60.683172 
L 104.094915 -103.683679 
L 107.877966 -138.234969 
L 111.661017 -162.915734 
L 115.444068 -174.472415 
L 119.227119 -184.771725 
L 123.010169 -193.871587 
L 126.79322 -201.843024 
L 130.576271 -208.835763 
L 134.359322 -214.868567 
L 138.142373 -220.102709 
L 141.925424 -224.637338 
L 145.708475 -228.564552 
L 149.491525 -231.951007 
L 153.274576 -234.862988 
L 157.057627 -237.38044 
L 160.840678 -239.547672 
L 164.623729 -241.411678 
L 168.40678 -243.02108 
L 172.189831 -244.402714 
L 175.972881 -245.597479 
L 179.755932 -246.626075 
L 183.538983 -247.526248 
L 187.322034 -248.296539 
L 191.105085 -248.966225 
L 194.888136 -249.544232 
L 198.671186 -250.048622 
L 202.454237 -250.487255 
L 206.237288 -250.8682 
L 210.020339 -251.203304 
L 213.80339 -251.494822 
L 217.586441 -251.750914 
L 221.369492 -251.977071 
L 225.152542 -252.175504 
L 228.935593 -252.350608 
L 232.718644 -252.511034 
L 236.501695 -252.655894 
L 240.284746 -252.792332 
L 244.067797 -252.923697 
L 247.850847 -253.065731 
L 251.633898 -253.257157 
L 255.416949 -253.417911 
L 259.2 -253.41117 
L 259.2 -253.41117 
L 259.2 -253.41117 
L 255.416949 -253.417911 
L 251.633898 -253.257157 
L 247.850847 -253.065731 
L 244.067797 -252.923697 
L 240.284746 -252.792332 
L 236.501695 -252.655894 
L 232.718644 -252.511034 
L 228.935593 -252.350608 
L 225.152542 -252.175504 
L 221.369492 -251.977071 
L 217.586441 -251.750914 
L 213.80339 -251.494822 
L 210.020339 -251.203304 
L 206.237288 -250.8682 
L 202.454237 -250.487255 
L 198.671186 -250.048622 
L 194.888136 -249.544232 
L 191.105085 -248.966225 
L 187.322034 -248.296539 
L 183.538983 -247.526248 
L 179.755932 -246.626075 
L 175.972881 -245.597479 
L 172.189831 -244.402714 
L 168.40678 -243.02108 
L 164.623729 -241.411678 
L 160.840678 -239.547672 
L 157.057627 -237.38044 
L 153.274576 -234.862988 
L 149.491525 -231.951007 
L 145.708475 -228.564552 
L 141.925424 -224.637338 
L 138.142373 -220.102709 
L 134.359322 -214.868567 
L 130.576271 -208.835763 
L 126.79322 -201.843024 
L 123.010169 -193.871587 
L 119.227119 -184.771725 
L 115.444068 -174.472415 
L 111.661017 -162.915734 
L 107.877966 -138.234969 
L 104.094915 -103.683679 
L 100.311864 -60.683172 
L 96.528814 -54.629875 
L 92.745763 -89.595122 
L 88.962712 -47.857201 
L 85.179661 -78.107859 
L 81.39661 -92.609616 
L 77.613559 -96.15056 
L 73.830508 -92.240155 
L 70.047458 -79.385103 
L 66.264407 -52.119466 
L 62.481356 -35.744495 
L 58.698305 -57.231484 
L 54.915254 -95.670328 
L 51.132203 -101.267271 
L 47.349153 -98.977436 
L 43.566102 -92.241307 
L 39.783051 -80.39096 
L 36 -61.114674 
z
" style="stroke: #006400; stroke-opacity: 0.2"/>
    </defs>
    <g clip-path="url(#pfea4ce16fb)">
     <use xlink:href="#m271baa4e8e" x="0" y="288" style="fill: #006400; fill-opacity: 0.2; stroke: #006400; stroke-opacity: 0.2"/>
    </g>
   </g>
   <g id="PolyCollection_2">
    <defs>
     <path id="ma45399d799" d="M 107.877966 -31.68 
L 88.962712 -31.68 
L 88.962712 -253.44 
L 107.877966 -253.44 
L 107.877966 -253.44 
L 107.877966 -31.68 
z
" style="stroke: #808080; stroke-opacity: 0.1"/>
    </defs>
    <g clip-path="url(#pfea4ce16fb)">
     <use xlink:href="#ma45399d799" x="0" y="288" style="fill: #808080; fill-opacity: 0.1; stroke: #808080; stroke-opacity: 0.1"/>
    </g>
   </g>
   <g id="PolyCollection_3">
    <defs>
     <path id="m2f8b6d2f7e" d="M 36 -50.904104 
L 36 -50.904104 
L 39.783051 -42.789387 
L 43.566102 -32.771908 
L 47.349153 -39.641786 
L 51.132203 -43.087871 
L 54.915254 -44.663033 
L 58.698305 -44.752449 
L 62.481356 -44.150807 
L 66.264407 -43.139694 
L 70.047458 -40.818515 
L 73.830508 -36.64369 
L 77.613559 -31.737953 
L 81.39661 -36.480145 
L 85.179661 -40.717348 
L 88.962712 -45.190489 
L 92.745763 -34.688772 
L 96.528814 -130.223778 
L 100.311864 -246.420941 
L 104.094915 -253.278042 
L 107.877966 -252.160432 
L 111.661017 -252.861009 
L 115.444068 -253.048687 
L 119.227119 -253.168399 
L 123.010169 -253.245484 
L 126.79322 -253.297998 
L 130.576271 -253.331891 
L 134.359322 -253.356503 
L 138.142373 -253.37489 
L 141.925424 -253.387836 
L 145.708475 -253.397196 
L 149.491525 -253.404609 
L 153.274576 -253.40966 
L 157.057627 -253.413549 
L 160.840678 -253.416734 
L 164.623729 -253.418566 
L 168.40678 -253.420027 
L 172.189831 -253.419767 
L 175.972881 -253.418895 
L 179.755932 -253.41733 
L 183.538983 -253.417438 
L 187.322034 -253.419565 
L 191.105085 -253.422338 
L 194.888136 -253.425523 
L 198.671186 -253.428127 
L 202.454237 -253.430472 
L 206.237288 -253.43216 
L 210.020339 -253.433835 
L 213.80339 -253.43525 
L 217.586441 -253.436333 
L 221.369492 -253.43724 
L 225.152542 -253.43795 
L 228.935593 -253.438441 
L 232.718644 -253.438802 
L 236.501695 -253.439065 
L 240.284746 -253.439243 
L 244.067797 -253.439346 
L 247.850847 -253.439371 
L 251.633898 -253.439329 
L 255.416949 -253.439285 
L 259.2 -253.439259 
L 259.2 -253.439259 
L 259.2 -253.439259 
L 255.416949 -253.439285 
L 251.633898 -253.439329 
L 247.850847 -253.439371 
L 244.067797 -253.439346 
L 240.284746 -253.439243 
L 236.501695 -253.439065 
L 232.718644 -253.438802 
L 228.935593 -253.438441 
L 225.152542 -253.43795 
L 221.369492 -253.43724 
L 217.586441 -253.436333 
L 213.80339 -253.43525 
L 210.020339 -253.433835 
L 206.237288 -253.43216 
L 202.454237 -253.430472 
L 198.671186 -253.428127 
L 194.888136 -253.425523 
L 191.105085 -253.422338 
L 187.322034 -253.419565 
L 183.538983 -253.417438 
L 179.755932 -253.41733 
L 175.972881 -253.418895 
L 172.189831 -253.419767 
L 168.40678 -253.420027 
L 164.623729 -253.418566 
L 160.840678 -253.416734 
L 157.057627 -253.413549 
L 153.274576 -253.40966 
L 149.491525 -253.404609 
L 145.708475 -253.397196 
L 141.925424 -253.387836 
L 138.142373 -253.37489 
L 134.359322 -253.356503 
L 130.576271 -253.331891 
L 126.79322 -253.297998 
L 123.010169 -253.245484 
L 119.227119 -253.168399 
L 115.444068 -253.048687 
L 111.661017 -252.861009 
L 107.877966 -252.160432 
L 104.094915 -253.278042 
L 100.311864 -246.420941 
L 96.528814 -130.223778 
L 92.745763 -34.688772 
L 88.962712 -45.190489 
L 85.179661 -40.717348 
L 81.39661 -36.480145 
L 77.613559 -31.737953 
L 73.830508 -36.64369 
L 70.047458 -40.818515 
L 66.264407 -43.139694 
L 62.481356 -44.150807 
L 58.698305 -44.752449 
L 54.915254 -44.663033 
L 51.132203 -43.087871 
L 47.349153 -39.641786 
L 43.566102 -32.771908 
L 39.783051 -42.789387 
L 36 -50.904104 
z
" style="stroke: #32cd32; stroke-opacity: 0.2"/>
    </defs>
    <g clip-path="url(#pfea4ce16fb)">
     <use xlink:href="#m2f8b6d2f7e" x="0" y="288" style="fill: #32cd32; fill-opacity: 0.2; stroke: #32cd32; stroke-opacity: 0.2"/>
    </g>
   </g>
   <g id="PolyCollection_4">
    <g clip-path="url(#pfea4ce16fb)">
     <use xlink:href="#ma45399d799" x="0" y="288" style="fill: #808080; fill-opacity: 0.1; stroke: #808080; stroke-opacity: 0.1"/>
    </g>
   </g>
   <g id="PolyCollection_5">
    <defs>
     <path id="m03e2599d1c" d="M 36 -48.353094 
L 36 -48.353094 
L 39.783051 -43.815701 
L 43.566102 -36.585879 
L 47.349153 -33.400123 
L 51.132203 -37.764095 
L 54.915254 -40.262054 
L 58.698305 -41.545211 
L 62.481356 -42.022467 
L 66.264407 -41.964446 
L 70.047458 -41.713223 
L 73.830508 -41.326119 
L 77.613559 -40.693781 
L 81.39661 -39.915093 
L 85.179661 -38.955225 
L 88.962712 -37.830331 
L 92.745763 -39.726699 
L 96.528814 -56.00934 
L 100.311864 -221.40194 
L 104.094915 -253.074029 
L 107.877966 -253.141301 
L 111.661017 -252.485566 
L 115.444068 -252.68611 
L 119.227119 -252.827957 
L 123.010169 -252.929979 
L 126.79322 -253.006457 
L 130.576271 -253.065196 
L 134.359322 -253.111351 
L 138.142373 -253.149845 
L 141.925424 -253.18041 
L 145.708475 -253.204789 
L 149.491525 -253.225215 
L 153.274576 -253.241917 
L 157.057627 -253.256693 
L 160.840678 -253.270452 
L 164.623729 -253.280083 
L 168.40678 -253.288844 
L 172.189831 -253.29654 
L 175.972881 -253.304475 
L 179.755932 -253.315683 
L 183.538983 -253.334306 
L 187.322034 -253.354395 
L 191.105085 -253.371925 
L 194.888136 -253.385583 
L 198.671186 -253.396107 
L 202.454237 -253.404489 
L 206.237288 -253.411756 
L 210.020339 -253.416827 
L 213.80339 -253.421164 
L 217.586441 -253.42444 
L 221.369492 -253.42729 
L 225.152542 -253.429779 
L 228.935593 -253.431585 
L 232.718644 -253.433246 
L 236.501695 -253.434343 
L 240.284746 -253.435375 
L 244.067797 -253.436294 
L 247.850847 -253.436901 
L 251.633898 -253.437399 
L 255.416949 -253.437855 
L 259.2 -253.438222 
L 259.2 -253.438222 
L 259.2 -253.438222 
L 255.416949 -253.437855 
L 251.633898 -253.437399 
L 247.850847 -253.436901 
L 244.067797 -253.436294 
L 240.284746 -253.435375 
L 236.501695 -253.434343 
L 232.718644 -253.433246 
L 228.935593 -253.431585 
L 225.152542 -253.429779 
L 221.369492 -253.42729 
L 217.586441 -253.42444 
L 213.80339 -253.421164 
L 210.020339 -253.416827 
L 206.237288 -253.411756 
L 202.454237 -253.404489 
L 198.671186 -253.396107 
L 194.888136 -253.385583 
L 191.105085 -253.371925 
L 187.322034 -253.354395 
L 183.538983 -253.334306 
L 179.755932 -253.315683 
L 175.972881 -253.304475 
L 172.189831 -253.29654 
L 168.40678 -253.288844 
L 164.623729 -253.280083 
L 160.840678 -253.270452 
L 157.057627 -253.256693 
L 153.274576 -253.241917 
L 149.491525 -253.225215 
L 145.708475 -253.204789 
L 141.925424 -253.18041 
L 138.142373 -253.149845 
L 134.359322 -253.111351 
L 130.576271 -253.065196 
L 126.79322 -253.006457 
L 123.010169 -252.929979 
L 119.227119 -252.827957 
L 115.444068 -252.68611 
L 111.661017 -252.485566 
L 107.877966 -253.141301 
L 104.094915 -253.074029 
L 100.311864 -221.40194 
L 96.528814 -56.00934 
L 92.745763 -39.726699 
L 88.962712 -37.830331 
L 85.179661 -38.955225 
L 81.39661 -39.915093 
L 77.613559 -40.693781 
L 73.830508 -41.326119 
L 70.047458 -41.713223 
L 66.264407 -41.964446 
L 62.481356 -42.022467 
L 58.698305 -41.545211 
L 54.915254 -40.262054 
L 51.132203 -37.764095 
L 47.349153 -33.400123 
L 43.566102 -36.585879 
L 39.783051 -43.815701 
L 36 -48.353094 
z
" style="stroke: #00ff7f; stroke-opacity: 0.2"/>
    </defs>
    <g clip-path="url(#pfea4ce16fb)">
     <use xlink:href="#m03e2599d1c" x="0" y="288" style="fill: #00ff7f; fill-opacity: 0.2; stroke: #00ff7f; stroke-opacity: 0.2"/>
    </g>
   </g>
   <g id="PolyCollection_6">
    <g clip-path="url(#pfea4ce16fb)">
     <use xlink:href="#ma45399d799" x="0" y="288" style="fill: #808080; fill-opacity: 0.1; stroke: #808080; stroke-opacity: 0.1"/>
    </g>
   </g>
   <g id="PolyCollection_7">
    <defs>
     <path id="m1662341d67" d="M 36 -69.13505 
L 36 -69.13505 
L 39.783051 -64.043239 
L 43.566102 -61.983197 
L 47.349153 -59.605431 
L 51.132203 -55.297634 
L 54.915254 -49.98759 
L 58.698305 -45.210005 
L 62.481356 -41.776081 
L 66.264407 -39.96847 
L 70.047458 -39.792807 
L 73.830508 -40.873895 
L 77.613559 -42.671068 
L 81.39661 -44.843733 
L 85.179661 -47.002647 
L 88.962712 -48.963917 
L 92.745763 -38.00936 
L 96.528814 -38.943201 
L 100.311864 -58.979823 
L 104.094915 -84.374644 
L 107.877966 -111.101023 
L 111.661017 -105.747498 
L 115.444068 -106.36438 
L 119.227119 -107.341123 
L 123.010169 -108.663882 
L 126.79322 -110.215612 
L 130.576271 -111.914263 
L 134.359322 -113.778145 
L 138.142373 -115.721496 
L 141.925424 -117.606721 
L 145.708475 -119.408166 
L 149.491525 -121.198887 
L 153.274576 -122.925728 
L 157.057627 -124.578268 
L 160.840678 -126.176255 
L 164.623729 -127.661214 
L 168.40678 -129.077285 
L 172.189831 -130.430269 
L 175.972881 -131.738626 
L 179.755932 -132.958795 
L 183.538983 -134.099288 
L 187.322034 -135.186987 
L 191.105085 -136.235677 
L 194.888136 -137.246899 
L 198.671186 -138.19882 
L 202.454237 -139.125289 
L 206.237288 -140.030003 
L 210.020339 -140.887717 
L 213.80339 -141.753577 
L 217.586441 -142.588053 
L 221.369492 -143.416357 
L 225.152542 -144.215603 
L 228.935593 -145.005607 
L 232.718644 -145.763607 
L 236.501695 -146.507747 
L 240.284746 -147.254201 
L 244.067797 -147.995435 
L 247.850847 -148.722851 
L 251.633898 -149.417481 
L 255.416949 -150.082902 
L 259.2 -150.741284 
L 259.2 -150.741284 
L 259.2 -150.741284 
L 255.416949 -150.082902 
L 251.633898 -149.417481 
L 247.850847 -148.722851 
L 244.067797 -147.995435 
L 240.284746 -147.254201 
L 236.501695 -146.507747 
L 232.718644 -145.763607 
L 228.935593 -145.005607 
L 225.152542 -144.215603 
L 221.369492 -143.416357 
L 217.586441 -142.588053 
L 213.80339 -141.753577 
L 210.020339 -140.887717 
L 206.237288 -140.030003 
L 202.454237 -139.125289 
L 198.671186 -138.19882 
L 194.888136 -137.246899 
L 191.105085 -136.235677 
L 187.322034 -135.186987 
L 183.538983 -134.099288 
L 179.755932 -132.958795 
L 175.972881 -131.738626 
L 172.189831 -130.430269 
L 168.40678 -129.077285 
L 164.623729 -127.661214 
L 160.840678 -126.176255 
L 157.057627 -124.578268 
L 153.274576 -122.925728 
L 149.491525 -121.198887 
L 145.708475 -119.408166 
L 141.925424 -117.606721 
L 138.142373 -115.721496 
L 134.359322 -113.778145 
L 130.576271 -111.914263 
L 126.79322 -110.215612 
L 123.010169 -108.663882 
L 119.227119 -107.341123 
L 115.444068 -106.36438 
L 111.661017 -105.747498 
L 107.877966 -111.101023 
L 104.094915 -84.374644 
L 100.311864 -58.979823 
L 96.528814 -38.943201 
L 92.745763 -38.00936 
L 88.962712 -48.963917 
L 85.179661 -47.002647 
L 81.39661 -44.843733 
L 77.613559 -42.671068 
L 73.830508 -40.873895 
L 70.047458 -39.792807 
L 66.264407 -39.96847 
L 62.481356 -41.776081 
L 58.698305 -45.210005 
L 54.915254 -49.98759 
L 51.132203 -55.297634 
L 47.349153 -59.605431 
L 43.566102 -61.983197 
L 39.783051 -64.043239 
L 36 -69.13505 
z
" style="stroke: #808080; stroke-opacity: 0.2"/>
    </defs>
    <g clip-path="url(#pfea4ce16fb)">
     <use xlink:href="#m1662341d67" x="0" y="288" style="fill: #808080; fill-opacity: 0.2; stroke: #808080; stroke-opacity: 0.2"/>
    </g>
   </g>
   <g id="PolyCollection_8">
    <g clip-path="url(#pfea4ce16fb)">
     <use xlink:href="#ma45399d799" x="0" y="288" style="fill: #808080; fill-opacity: 0.1; stroke: #808080; stroke-opacity: 0.1"/>
    </g>
   </g>
   <g id="matplotlib.axis_1">
    <g id="xtick_1">
     <g id="line2d_1">
      <defs>
       <path id="m573bbe1d6d" d="M 0 0 
L 0 3.5 
" style="stroke: #000000; stroke-width: 0.8"/>
      </defs>
      <g>
       <use xlink:href="#m573bbe1d6d" x="88.962712" y="256.32" style="stroke: #000000; stroke-width: 0.8"/>
      </g>
     </g>
     <g id="text_1">
      <!-- 0 -->
      <g transform="translate(84.190837 274.717656) scale(0.15 -0.15)">
       <defs>
        <path id="DejaVuSans-30" d="M 2034 4250 
Q 1547 4250 1301 3770 
Q 1056 3291 1056 2328 
Q 1056 1369 1301 889 
Q 1547 409 2034 409 
Q 2525 409 2770 889 
Q 3016 1369 3016 2328 
Q 3016 3291 2770 3770 
Q 2525 4250 2034 4250 
z
M 2034 4750 
Q 2819 4750 3233 4129 
Q 3647 3509 3647 2328 
Q 3647 1150 3233 529 
Q 2819 -91 2034 -91 
Q 1250 -91 836 529 
Q 422 1150 422 2328 
Q 422 3509 836 4129 
Q 1250 4750 2034 4750 
z
" transform="scale(0.015625)"/>
       </defs>
       <use xlink:href="#DejaVuSans-30"/>
      </g>
     </g>
    </g>
    <g id="xtick_2">
     <g id="line2d_2">
      <g>
       <use xlink:href="#m573bbe1d6d" x="164.623729" y="256.32" style="stroke: #000000; stroke-width: 0.8"/>
      </g>
     </g>
     <g id="text_2">
      <!-- 1 -->
      <g transform="translate(159.851854 274.717656) scale(0.15 -0.15)">
       <defs>
        <path id="DejaVuSans-31" d="M 794 531 
L 1825 531 
L 1825 4091 
L 703 3866 
L 703 4441 
L 1819 4666 
L 2450 4666 
L 2450 531 
L 3481 531 
L 3481 0 
L 794 0 
L 794 531 
z
" transform="scale(0.015625)"/>
       </defs>
       <use xlink:href="#DejaVuSans-31"/>
      </g>
     </g>
    </g>
    <g id="xtick_3">
     <g id="line2d_3">
      <g>
       <use xlink:href="#m573bbe1d6d" x="240.284746" y="256.32" style="stroke: #000000; stroke-width: 0.8"/>
      </g>
     </g>
     <g id="text_3">
      <!-- 2 -->
      <g transform="translate(235.512871 274.717656) scale(0.15 -0.15)">
       <defs>
        <path id="DejaVuSans-32" d="M 1228 531 
L 3431 531 
L 3431 0 
L 469 0 
L 469 531 
Q 828 903 1448 1529 
Q 2069 2156 2228 2338 
Q 2531 2678 2651 2914 
Q 2772 3150 2772 3378 
Q 2772 3750 2511 3984 
Q 2250 4219 1831 4219 
Q 1534 4219 1204 4116 
Q 875 4013 500 3803 
L 500 4441 
Q 881 4594 1212 4672 
Q 1544 4750 1819 4750 
Q 2544 4750 2975 4387 
Q 3406 4025 3406 3419 
Q 3406 3131 3298 2873 
Q 3191 2616 2906 2266 
Q 2828 2175 2409 1742 
Q 1991 1309 1228 531 
z
" transform="scale(0.015625)"/>
       </defs>
       <use xlink:href="#DejaVuSans-32"/>
      </g>
     </g>
    </g>
    <g id="text_4">
     <!-- Time relative to cue onset (s) -->
     <g transform="translate(37.460156 293.234844) scale(0.15 -0.15)">
      <defs>
       <path id="DejaVuSans-54" d="M -19 4666 
L 3928 4666 
L 3928 4134 
L 2272 4134 
L 2272 0 
L 1638 0 
L 1638 4134 
L -19 4134 
L -19 4666 
z
" transform="scale(0.015625)"/>
       <path id="DejaVuSans-69" d="M 603 3500 
L 1178 3500 
L 1178 0 
L 603 0 
L 603 3500 
z
M 603 4863 
L 1178 4863 
L 1178 4134 
L 603 4134 
L 603 4863 
z
" transform="scale(0.015625)"/>
       <path id="DejaVuSans-6d" d="M 3328 2828 
Q 3544 3216 3844 3400 
Q 4144 3584 4550 3584 
Q 5097 3584 5394 3201 
Q 5691 2819 5691 2113 
L 5691 0 
L 5113 0 
L 5113 2094 
Q 5113 2597 4934 2840 
Q 4756 3084 4391 3084 
Q 3944 3084 3684 2787 
Q 3425 2491 3425 1978 
L 3425 0 
L 2847 0 
L 2847 2094 
Q 2847 2600 2669 2842 
Q 2491 3084 2119 3084 
Q 1678 3084 1418 2786 
Q 1159 2488 1159 1978 
L 1159 0 
L 581 0 
L 581 3500 
L 1159 3500 
L 1159 2956 
Q 1356 3278 1631 3431 
Q 1906 3584 2284 3584 
Q 2666 3584 2933 3390 
Q 3200 3197 3328 2828 
z
" transform="scale(0.015625)"/>
       <path id="DejaVuSans-65" d="M 3597 1894 
L 3597 1613 
L 953 1613 
Q 991 1019 1311 708 
Q 1631 397 2203 397 
Q 2534 397 2845 478 
Q 3156 559 3463 722 
L 3463 178 
Q 3153 47 2828 -22 
Q 2503 -91 2169 -91 
Q 1331 -91 842 396 
Q 353 884 353 1716 
Q 353 2575 817 3079 
Q 1281 3584 2069 3584 
Q 2775 3584 3186 3129 
Q 3597 2675 3597 1894 
z
M 3022 2063 
Q 3016 2534 2758 2815 
Q 2500 3097 2075 3097 
Q 1594 3097 1305 2825 
Q 1016 2553 972 2059 
L 3022 2063 
z
" transform="scale(0.015625)"/>
       <path id="DejaVuSans-20" transform="scale(0.015625)"/>
       <path id="DejaVuSans-72" d="M 2631 2963 
Q 2534 3019 2420 3045 
Q 2306 3072 2169 3072 
Q 1681 3072 1420 2755 
Q 1159 2438 1159 1844 
L 1159 0 
L 581 0 
L 581 3500 
L 1159 3500 
L 1159 2956 
Q 1341 3275 1631 3429 
Q 1922 3584 2338 3584 
Q 2397 3584 2469 3576 
Q 2541 3569 2628 3553 
L 2631 2963 
z
" transform="scale(0.015625)"/>
       <path id="DejaVuSans-6c" d="M 603 4863 
L 1178 4863 
L 1178 0 
L 603 0 
L 603 4863 
z
" transform="scale(0.015625)"/>
       <path id="DejaVuSans-61" d="M 2194 1759 
Q 1497 1759 1228 1600 
Q 959 1441 959 1056 
Q 959 750 1161 570 
Q 1363 391 1709 391 
Q 2188 391 2477 730 
Q 2766 1069 2766 1631 
L 2766 1759 
L 2194 1759 
z
M 3341 1997 
L 3341 0 
L 2766 0 
L 2766 531 
Q 2569 213 2275 61 
Q 1981 -91 1556 -91 
Q 1019 -91 701 211 
Q 384 513 384 1019 
Q 384 1609 779 1909 
Q 1175 2209 1959 2209 
L 2766 2209 
L 2766 2266 
Q 2766 2663 2505 2880 
Q 2244 3097 1772 3097 
Q 1472 3097 1187 3025 
Q 903 2953 641 2809 
L 641 3341 
Q 956 3463 1253 3523 
Q 1550 3584 1831 3584 
Q 2591 3584 2966 3190 
Q 3341 2797 3341 1997 
z
" transform="scale(0.015625)"/>
       <path id="DejaVuSans-74" d="M 1172 4494 
L 1172 3500 
L 2356 3500 
L 2356 3053 
L 1172 3053 
L 1172 1153 
Q 1172 725 1289 603 
Q 1406 481 1766 481 
L 2356 481 
L 2356 0 
L 1766 0 
Q 1100 0 847 248 
Q 594 497 594 1153 
L 594 3053 
L 172 3053 
L 172 3500 
L 594 3500 
L 594 4494 
L 1172 4494 
z
" transform="scale(0.015625)"/>
       <path id="DejaVuSans-76" d="M 191 3500 
L 800 3500 
L 1894 563 
L 2988 3500 
L 3597 3500 
L 2284 0 
L 1503 0 
L 191 3500 
z
" transform="scale(0.015625)"/>
       <path id="DejaVuSans-6f" d="M 1959 3097 
Q 1497 3097 1228 2736 
Q 959 2375 959 1747 
Q 959 1119 1226 758 
Q 1494 397 1959 397 
Q 2419 397 2687 759 
Q 2956 1122 2956 1747 
Q 2956 2369 2687 2733 
Q 2419 3097 1959 3097 
z
M 1959 3584 
Q 2709 3584 3137 3096 
Q 3566 2609 3566 1747 
Q 3566 888 3137 398 
Q 2709 -91 1959 -91 
Q 1206 -91 779 398 
Q 353 888 353 1747 
Q 353 2609 779 3096 
Q 1206 3584 1959 3584 
z
" transform="scale(0.015625)"/>
       <path id="DejaVuSans-63" d="M 3122 3366 
L 3122 2828 
Q 2878 2963 2633 3030 
Q 2388 3097 2138 3097 
Q 1578 3097 1268 2742 
Q 959 2388 959 1747 
Q 959 1106 1268 751 
Q 1578 397 2138 397 
Q 2388 397 2633 464 
Q 2878 531 3122 666 
L 3122 134 
Q 2881 22 2623 -34 
Q 2366 -91 2075 -91 
Q 1284 -91 818 406 
Q 353 903 353 1747 
Q 353 2603 823 3093 
Q 1294 3584 2113 3584 
Q 2378 3584 2631 3529 
Q 2884 3475 3122 3366 
z
" transform="scale(0.015625)"/>
       <path id="DejaVuSans-75" d="M 544 1381 
L 544 3500 
L 1119 3500 
L 1119 1403 
Q 1119 906 1312 657 
Q 1506 409 1894 409 
Q 2359 409 2629 706 
Q 2900 1003 2900 1516 
L 2900 3500 
L 3475 3500 
L 3475 0 
L 2900 0 
L 2900 538 
Q 2691 219 2414 64 
Q 2138 -91 1772 -91 
Q 1169 -91 856 284 
Q 544 659 544 1381 
z
M 1991 3584 
L 1991 3584 
z
" transform="scale(0.015625)"/>
       <path id="DejaVuSans-6e" d="M 3513 2113 
L 3513 0 
L 2938 0 
L 2938 2094 
Q 2938 2591 2744 2837 
Q 2550 3084 2163 3084 
Q 1697 3084 1428 2787 
Q 1159 2491 1159 1978 
L 1159 0 
L 581 0 
L 581 3500 
L 1159 3500 
L 1159 2956 
Q 1366 3272 1645 3428 
Q 1925 3584 2291 3584 
Q 2894 3584 3203 3211 
Q 3513 2838 3513 2113 
z
" transform="scale(0.015625)"/>
       <path id="DejaVuSans-73" d="M 2834 3397 
L 2834 2853 
Q 2591 2978 2328 3040 
Q 2066 3103 1784 3103 
Q 1356 3103 1142 2972 
Q 928 2841 928 2578 
Q 928 2378 1081 2264 
Q 1234 2150 1697 2047 
L 1894 2003 
Q 2506 1872 2764 1633 
Q 3022 1394 3022 966 
Q 3022 478 2636 193 
Q 2250 -91 1575 -91 
Q 1294 -91 989 -36 
Q 684 19 347 128 
L 347 722 
Q 666 556 975 473 
Q 1284 391 1588 391 
Q 1994 391 2212 530 
Q 2431 669 2431 922 
Q 2431 1156 2273 1281 
Q 2116 1406 1581 1522 
L 1381 1569 
Q 847 1681 609 1914 
Q 372 2147 372 2553 
Q 372 3047 722 3315 
Q 1072 3584 1716 3584 
Q 2034 3584 2315 3537 
Q 2597 3491 2834 3397 
z
" transform="scale(0.015625)"/>
       <path id="DejaVuSans-28" d="M 1984 4856 
Q 1566 4138 1362 3434 
Q 1159 2731 1159 2009 
Q 1159 1288 1364 580 
Q 1569 -128 1984 -844 
L 1484 -844 
Q 1016 -109 783 600 
Q 550 1309 550 2009 
Q 550 2706 781 3412 
Q 1013 4119 1484 4856 
L 1984 4856 
z
" transform="scale(0.015625)"/>
       <path id="DejaVuSans-29" d="M 513 4856 
L 1013 4856 
Q 1481 4119 1714 3412 
Q 1947 2706 1947 2009 
Q 1947 1309 1714 600 
Q 1481 -109 1013 -844 
L 513 -844 
Q 928 -128 1133 580 
Q 1338 1288 1338 2009 
Q 1338 2731 1133 3434 
Q 928 4138 513 4856 
z
" transform="scale(0.015625)"/>
      </defs>
      <use xlink:href="#DejaVuSans-54"/>
      <use xlink:href="#DejaVuSans-69" x="57.958984"/>
      <use xlink:href="#DejaVuSans-6d" x="85.742188"/>
      <use xlink:href="#DejaVuSans-65" x="183.154297"/>
      <use xlink:href="#DejaVuSans-20" x="244.677734"/>
      <use xlink:href="#DejaVuSans-72" x="276.464844"/>
      <use xlink:href="#DejaVuSans-65" x="315.328125"/>
      <use xlink:href="#DejaVuSans-6c" x="376.851562"/>
      <use xlink:href="#DejaVuSans-61" x="404.634766"/>
      <use xlink:href="#DejaVuSans-74" x="465.914062"/>
      <use xlink:href="#DejaVuSans-69" x="505.123047"/>
      <use xlink:href="#DejaVuSans-76" x="532.90625"/>
      <use xlink:href="#DejaVuSans-65" x="592.085938"/>
      <use xlink:href="#DejaVuSans-20" x="653.609375"/>
      <use xlink:href="#DejaVuSans-74" x="685.396484"/>
      <use xlink:href="#DejaVuSans-6f" x="724.605469"/>
      <use xlink:href="#DejaVuSans-20" x="785.787109"/>
      <use xlink:href="#DejaVuSans-63" x="817.574219"/>
      <use xlink:href="#DejaVuSans-75" x="872.554688"/>
      <use xlink:href="#DejaVuSans-65" x="935.933594"/>
      <use xlink:href="#DejaVuSans-20" x="997.457031"/>
      <use xlink:href="#DejaVuSans-6f" x="1029.244141"/>
      <use xlink:href="#DejaVuSans-6e" x="1090.425781"/>
      <use xlink:href="#DejaVuSans-73" x="1153.804688"/>
      <use xlink:href="#DejaVuSans-65" x="1205.904297"/>
      <use xlink:href="#DejaVuSans-74" x="1267.427734"/>
      <use xlink:href="#DejaVuSans-20" x="1306.636719"/>
      <use xlink:href="#DejaVuSans-28" x="1338.423828"/>
      <use xlink:href="#DejaVuSans-73" x="1377.4375"/>
      <use xlink:href="#DejaVuSans-29" x="1429.537109"/>
     </g>
    </g>
   </g>
   <g id="matplotlib.axis_2">
    <g id="ytick_1">
     <g id="line2d_4">
      <defs>
       <path id="m013487a612" d="M 0 0 
L -3.5 0 
" style="stroke: #000000; stroke-width: 0.8"/>
      </defs>
      <g>
       <use xlink:href="#m013487a612" x="36" y="256.32" style="stroke: #000000; stroke-width: 0.8"/>
      </g>
     </g>
     <g id="text_5">
      <!-- 0.0 -->
      <g transform="translate(5.145312 262.018828) scale(0.15 -0.15)">
       <defs>
        <path id="DejaVuSans-2e" d="M 684 794 
L 1344 794 
L 1344 0 
L 684 0 
L 684 794 
z
" transform="scale(0.015625)"/>
       </defs>
       <use xlink:href="#DejaVuSans-30"/>
       <use xlink:href="#DejaVuSans-2e" x="63.623047"/>
       <use xlink:href="#DejaVuSans-30" x="95.410156"/>
      </g>
     </g>
    </g>
    <g id="ytick_2">
     <g id="line2d_5">
      <g>
       <use xlink:href="#m013487a612" x="36" y="211.968" style="stroke: #000000; stroke-width: 0.8"/>
      </g>
     </g>
     <g id="text_6">
      <!-- 0.2 -->
      <g transform="translate(5.145312 217.666828) scale(0.15 -0.15)">
       <use xlink:href="#DejaVuSans-30"/>
       <use xlink:href="#DejaVuSans-2e" x="63.623047"/>
       <use xlink:href="#DejaVuSans-32" x="95.410156"/>
      </g>
     </g>
    </g>
    <g id="ytick_3">
     <g id="line2d_6">
      <g>
       <use xlink:href="#m013487a612" x="36" y="167.616" style="stroke: #000000; stroke-width: 0.8"/>
      </g>
     </g>
     <g id="text_7">
      <!-- 0.4 -->
      <g transform="translate(5.145312 173.314828) scale(0.15 -0.15)">
       <defs>
        <path id="DejaVuSans-34" d="M 2419 4116 
L 825 1625 
L 2419 1625 
L 2419 4116 
z
M 2253 4666 
L 3047 4666 
L 3047 1625 
L 3713 1625 
L 3713 1100 
L 3047 1100 
L 3047 0 
L 2419 0 
L 2419 1100 
L 313 1100 
L 313 1709 
L 2253 4666 
z
" transform="scale(0.015625)"/>
       </defs>
       <use xlink:href="#DejaVuSans-30"/>
       <use xlink:href="#DejaVuSans-2e" x="63.623047"/>
       <use xlink:href="#DejaVuSans-34" x="95.410156"/>
      </g>
     </g>
    </g>
    <g id="ytick_4">
     <g id="line2d_7">
      <g>
       <use xlink:href="#m013487a612" x="36" y="123.264" style="stroke: #000000; stroke-width: 0.8"/>
      </g>
     </g>
     <g id="text_8">
      <!-- 0.6 -->
      <g transform="translate(5.145312 128.962828) scale(0.15 -0.15)">
       <defs>
        <path id="DejaVuSans-36" d="M 2113 2584 
Q 1688 2584 1439 2293 
Q 1191 2003 1191 1497 
Q 1191 994 1439 701 
Q 1688 409 2113 409 
Q 2538 409 2786 701 
Q 3034 994 3034 1497 
Q 3034 2003 2786 2293 
Q 2538 2584 2113 2584 
z
M 3366 4563 
L 3366 3988 
Q 3128 4100 2886 4159 
Q 2644 4219 2406 4219 
Q 1781 4219 1451 3797 
Q 1122 3375 1075 2522 
Q 1259 2794 1537 2939 
Q 1816 3084 2150 3084 
Q 2853 3084 3261 2657 
Q 3669 2231 3669 1497 
Q 3669 778 3244 343 
Q 2819 -91 2113 -91 
Q 1303 -91 875 529 
Q 447 1150 447 2328 
Q 447 3434 972 4092 
Q 1497 4750 2381 4750 
Q 2619 4750 2861 4703 
Q 3103 4656 3366 4563 
z
" transform="scale(0.015625)"/>
       </defs>
       <use xlink:href="#DejaVuSans-30"/>
       <use xlink:href="#DejaVuSans-2e" x="63.623047"/>
       <use xlink:href="#DejaVuSans-36" x="95.410156"/>
      </g>
     </g>
    </g>
    <g id="ytick_5">
     <g id="line2d_8">
      <g>
       <use xlink:href="#m013487a612" x="36" y="78.912" style="stroke: #000000; stroke-width: 0.8"/>
      </g>
     </g>
     <g id="text_9">
      <!-- 0.8 -->
      <g transform="translate(5.145312 84.610828) scale(0.15 -0.15)">
       <defs>
        <path id="DejaVuSans-38" d="M 2034 2216 
Q 1584 2216 1326 1975 
Q 1069 1734 1069 1313 
Q 1069 891 1326 650 
Q 1584 409 2034 409 
Q 2484 409 2743 651 
Q 3003 894 3003 1313 
Q 3003 1734 2745 1975 
Q 2488 2216 2034 2216 
z
M 1403 2484 
Q 997 2584 770 2862 
Q 544 3141 544 3541 
Q 544 4100 942 4425 
Q 1341 4750 2034 4750 
Q 2731 4750 3128 4425 
Q 3525 4100 3525 3541 
Q 3525 3141 3298 2862 
Q 3072 2584 2669 2484 
Q 3125 2378 3379 2068 
Q 3634 1759 3634 1313 
Q 3634 634 3220 271 
Q 2806 -91 2034 -91 
Q 1263 -91 848 271 
Q 434 634 434 1313 
Q 434 1759 690 2068 
Q 947 2378 1403 2484 
z
M 1172 3481 
Q 1172 3119 1398 2916 
Q 1625 2713 2034 2713 
Q 2441 2713 2670 2916 
Q 2900 3119 2900 3481 
Q 2900 3844 2670 4047 
Q 2441 4250 2034 4250 
Q 1625 4250 1398 4047 
Q 1172 3844 1172 3481 
z
" transform="scale(0.015625)"/>
       </defs>
       <use xlink:href="#DejaVuSans-30"/>
       <use xlink:href="#DejaVuSans-2e" x="63.623047"/>
       <use xlink:href="#DejaVuSans-38" x="95.410156"/>
      </g>
     </g>
    </g>
    <g id="ytick_6">
     <g id="line2d_9">
      <g>
       <use xlink:href="#m013487a612" x="36" y="34.56" style="stroke: #000000; stroke-width: 0.8"/>
      </g>
     </g>
     <g id="text_10">
      <!-- 1.0 -->
      <g transform="translate(5.145312 40.258828) scale(0.15 -0.15)">
       <use xlink:href="#DejaVuSans-31"/>
       <use xlink:href="#DejaVuSans-2e" x="63.623047"/>
       <use xlink:href="#DejaVuSans-30" x="95.410156"/>
      </g>
     </g>
    </g>
    <g id="text_11">
     <!-- Cosine of angle between planes -->
     <g transform="translate(-1.974219 265.34625) rotate(-90) scale(0.15 -0.15)">
      <defs>
       <path id="DejaVuSans-43" d="M 4122 4306 
L 4122 3641 
Q 3803 3938 3442 4084 
Q 3081 4231 2675 4231 
Q 1875 4231 1450 3742 
Q 1025 3253 1025 2328 
Q 1025 1406 1450 917 
Q 1875 428 2675 428 
Q 3081 428 3442 575 
Q 3803 722 4122 1019 
L 4122 359 
Q 3791 134 3420 21 
Q 3050 -91 2638 -91 
Q 1578 -91 968 557 
Q 359 1206 359 2328 
Q 359 3453 968 4101 
Q 1578 4750 2638 4750 
Q 3056 4750 3426 4639 
Q 3797 4528 4122 4306 
z
" transform="scale(0.015625)"/>
       <path id="DejaVuSans-66" d="M 2375 4863 
L 2375 4384 
L 1825 4384 
Q 1516 4384 1395 4259 
Q 1275 4134 1275 3809 
L 1275 3500 
L 2222 3500 
L 2222 3053 
L 1275 3053 
L 1275 0 
L 697 0 
L 697 3053 
L 147 3053 
L 147 3500 
L 697 3500 
L 697 3744 
Q 697 4328 969 4595 
Q 1241 4863 1831 4863 
L 2375 4863 
z
" transform="scale(0.015625)"/>
       <path id="DejaVuSans-67" d="M 2906 1791 
Q 2906 2416 2648 2759 
Q 2391 3103 1925 3103 
Q 1463 3103 1205 2759 
Q 947 2416 947 1791 
Q 947 1169 1205 825 
Q 1463 481 1925 481 
Q 2391 481 2648 825 
Q 2906 1169 2906 1791 
z
M 3481 434 
Q 3481 -459 3084 -895 
Q 2688 -1331 1869 -1331 
Q 1566 -1331 1297 -1286 
Q 1028 -1241 775 -1147 
L 775 -588 
Q 1028 -725 1275 -790 
Q 1522 -856 1778 -856 
Q 2344 -856 2625 -561 
Q 2906 -266 2906 331 
L 2906 616 
Q 2728 306 2450 153 
Q 2172 0 1784 0 
Q 1141 0 747 490 
Q 353 981 353 1791 
Q 353 2603 747 3093 
Q 1141 3584 1784 3584 
Q 2172 3584 2450 3431 
Q 2728 3278 2906 2969 
L 2906 3500 
L 3481 3500 
L 3481 434 
z
" transform="scale(0.015625)"/>
       <path id="DejaVuSans-62" d="M 3116 1747 
Q 3116 2381 2855 2742 
Q 2594 3103 2138 3103 
Q 1681 3103 1420 2742 
Q 1159 2381 1159 1747 
Q 1159 1113 1420 752 
Q 1681 391 2138 391 
Q 2594 391 2855 752 
Q 3116 1113 3116 1747 
z
M 1159 2969 
Q 1341 3281 1617 3432 
Q 1894 3584 2278 3584 
Q 2916 3584 3314 3078 
Q 3713 2572 3713 1747 
Q 3713 922 3314 415 
Q 2916 -91 2278 -91 
Q 1894 -91 1617 61 
Q 1341 213 1159 525 
L 1159 0 
L 581 0 
L 581 4863 
L 1159 4863 
L 1159 2969 
z
" transform="scale(0.015625)"/>
       <path id="DejaVuSans-77" d="M 269 3500 
L 844 3500 
L 1563 769 
L 2278 3500 
L 2956 3500 
L 3675 769 
L 4391 3500 
L 4966 3500 
L 4050 0 
L 3372 0 
L 2619 2869 
L 1863 0 
L 1184 0 
L 269 3500 
z
" transform="scale(0.015625)"/>
       <path id="DejaVuSans-70" d="M 1159 525 
L 1159 -1331 
L 581 -1331 
L 581 3500 
L 1159 3500 
L 1159 2969 
Q 1341 3281 1617 3432 
Q 1894 3584 2278 3584 
Q 2916 3584 3314 3078 
Q 3713 2572 3713 1747 
Q 3713 922 3314 415 
Q 2916 -91 2278 -91 
Q 1894 -91 1617 61 
Q 1341 213 1159 525 
z
M 3116 1747 
Q 3116 2381 2855 2742 
Q 2594 3103 2138 3103 
Q 1681 3103 1420 2742 
Q 1159 2381 1159 1747 
Q 1159 1113 1420 752 
Q 1681 391 2138 391 
Q 2594 391 2855 752 
Q 3116 1113 3116 1747 
z
" transform="scale(0.015625)"/>
      </defs>
      <use xlink:href="#DejaVuSans-43"/>
      <use xlink:href="#DejaVuSans-6f" x="69.824219"/>
      <use xlink:href="#DejaVuSans-73" x="131.005859"/>
      <use xlink:href="#DejaVuSans-69" x="183.105469"/>
      <use xlink:href="#DejaVuSans-6e" x="210.888672"/>
      <use xlink:href="#DejaVuSans-65" x="274.267578"/>
      <use xlink:href="#DejaVuSans-20" x="335.791016"/>
      <use xlink:href="#DejaVuSans-6f" x="367.578125"/>
      <use xlink:href="#DejaVuSans-66" x="428.759766"/>
      <use xlink:href="#DejaVuSans-20" x="463.964844"/>
      <use xlink:href="#DejaVuSans-61" x="495.751953"/>
      <use xlink:href="#DejaVuSans-6e" x="557.03125"/>
      <use xlink:href="#DejaVuSans-67" x="620.410156"/>
      <use xlink:href="#DejaVuSans-6c" x="683.886719"/>
      <use xlink:href="#DejaVuSans-65" x="711.669922"/>
      <use xlink:href="#DejaVuSans-20" x="773.193359"/>
      <use xlink:href="#DejaVuSans-62" x="804.980469"/>
      <use xlink:href="#DejaVuSans-65" x="868.457031"/>
      <use xlink:href="#DejaVuSans-74" x="929.980469"/>
      <use xlink:href="#DejaVuSans-77" x="969.189453"/>
      <use xlink:href="#DejaVuSans-65" x="1050.976562"/>
      <use xlink:href="#DejaVuSans-65" x="1112.5"/>
      <use xlink:href="#DejaVuSans-6e" x="1174.023438"/>
      <use xlink:href="#DejaVuSans-20" x="1237.402344"/>
      <use xlink:href="#DejaVuSans-70" x="1269.189453"/>
      <use xlink:href="#DejaVuSans-6c" x="1332.666016"/>
      <use xlink:href="#DejaVuSans-61" x="1360.449219"/>
      <use xlink:href="#DejaVuSans-6e" x="1421.728516"/>
      <use xlink:href="#DejaVuSans-65" x="1485.107422"/>
      <use xlink:href="#DejaVuSans-73" x="1546.630859"/>
     </g>
    </g>
   </g>
   <g id="line2d_10">
    <path d="M 36 226.885326 
L 39.783051 207.60904 
L 43.566102 195.758693 
L 47.349153 189.022564 
L 51.132203 186.732729 
L 54.915254 192.329672 
L 58.698305 230.768516 
L 62.481356 252.255505 
L 66.264407 235.880534 
L 70.047458 208.614897 
L 73.830508 195.759845 
L 77.613559 191.84944 
L 81.39661 195.390384 
L 85.179661 209.892141 
L 88.962712 240.142799 
L 92.745763 198.404878 
L 96.528814 233.370125 
L 100.311864 227.316828 
L 104.094915 184.316321 
L 107.877966 149.765031 
L 111.661017 125.084266 
L 115.444068 113.527585 
L 119.227119 103.228275 
L 123.010169 94.128413 
L 126.79322 86.156976 
L 130.576271 79.164237 
L 134.359322 73.131433 
L 138.142373 67.897291 
L 141.925424 63.362662 
L 145.708475 59.435448 
L 149.491525 56.048993 
L 153.274576 53.137012 
L 157.057627 50.61956 
L 160.840678 48.452328 
L 164.623729 46.588322 
L 168.40678 44.97892 
L 172.189831 43.597286 
L 175.972881 42.402521 
L 179.755932 41.373925 
L 183.538983 40.473752 
L 187.322034 39.703461 
L 191.105085 39.033775 
L 194.888136 38.455768 
L 198.671186 37.951378 
L 202.454237 37.512745 
L 206.237288 37.1318 
L 210.020339 36.796696 
L 213.80339 36.505178 
L 217.586441 36.249086 
L 221.369492 36.022929 
L 225.152542 35.824496 
L 228.935593 35.649392 
L 232.718644 35.488966 
L 236.501695 35.344106 
L 240.284746 35.207668 
L 244.067797 35.076303 
L 247.850847 34.934269 
L 251.633898 34.742843 
L 255.416949 34.582089 
L 259.2 34.58883 
" clip-path="url(#pfea4ce16fb)" style="fill: none; stroke: #006400; stroke-width: 1.5; stroke-linecap: square"/>
   </g>
   <g id="line2d_11">
    <path d="M 36 237.095896 
L 39.783051 245.210613 
L 43.566102 255.228092 
L 47.349153 248.358214 
L 51.132203 244.912129 
L 54.915254 243.336967 
L 58.698305 243.247551 
L 62.481356 243.849193 
L 66.264407 244.860306 
L 70.047458 247.181485 
L 73.830508 251.35631 
L 77.613559 256.262047 
L 81.39661 251.519855 
L 85.179661 247.282652 
L 88.962712 242.809511 
L 92.745763 253.311228 
L 96.528814 157.776222 
L 100.311864 41.579059 
L 104.094915 34.721958 
L 107.877966 35.839568 
L 111.661017 35.138991 
L 115.444068 34.951313 
L 119.227119 34.831601 
L 123.010169 34.754516 
L 126.79322 34.702002 
L 130.576271 34.668109 
L 134.359322 34.643497 
L 138.142373 34.62511 
L 141.925424 34.612164 
L 145.708475 34.602804 
L 149.491525 34.595391 
L 153.274576 34.59034 
L 157.057627 34.586451 
L 160.840678 34.583266 
L 164.623729 34.581434 
L 168.40678 34.579973 
L 172.189831 34.580233 
L 175.972881 34.581105 
L 179.755932 34.58267 
L 183.538983 34.582562 
L 187.322034 34.580435 
L 191.105085 34.577662 
L 194.888136 34.574477 
L 198.671186 34.571873 
L 202.454237 34.569528 
L 206.237288 34.56784 
L 210.020339 34.566165 
L 213.80339 34.56475 
L 217.586441 34.563667 
L 221.369492 34.56276 
L 225.152542 34.56205 
L 228.935593 34.561559 
L 232.718644 34.561198 
L 236.501695 34.560935 
L 240.284746 34.560757 
L 244.067797 34.560654 
L 247.850847 34.560629 
L 251.633898 34.560671 
L 255.416949 34.560715 
L 259.2 34.560741 
" clip-path="url(#pfea4ce16fb)" style="fill: none; stroke: #32cd32; stroke-width: 1.5; stroke-linecap: square"/>
   </g>
   <g id="line2d_12">
    <path d="M 36 239.646906 
L 39.783051 244.184299 
L 43.566102 251.414121 
L 47.349153 254.599877 
L 51.132203 250.235905 
L 54.915254 247.737946 
L 58.698305 246.454789 
L 62.481356 245.977533 
L 66.264407 246.035554 
L 70.047458 246.286777 
L 73.830508 246.673881 
L 77.613559 247.306219 
L 81.39661 248.084907 
L 85.179661 249.044775 
L 88.962712 250.169669 
L 92.745763 248.273301 
L 96.528814 231.99066 
L 100.311864 66.59806 
L 104.094915 34.925971 
L 107.877966 34.858699 
L 111.661017 35.514434 
L 115.444068 35.31389 
L 119.227119 35.172043 
L 123.010169 35.070021 
L 126.79322 34.993543 
L 130.576271 34.934804 
L 134.359322 34.888649 
L 138.142373 34.850155 
L 141.925424 34.81959 
L 145.708475 34.795211 
L 149.491525 34.774785 
L 153.274576 34.758083 
L 157.057627 34.743307 
L 160.840678 34.729548 
L 164.623729 34.719917 
L 168.40678 34.711156 
L 172.189831 34.70346 
L 175.972881 34.695525 
L 179.755932 34.684317 
L 183.538983 34.665694 
L 187.322034 34.645605 
L 191.105085 34.628075 
L 194.888136 34.614417 
L 198.671186 34.603893 
L 202.454237 34.595511 
L 206.237288 34.588244 
L 210.020339 34.583173 
L 213.80339 34.578836 
L 217.586441 34.57556 
L 221.369492 34.57271 
L 225.152542 34.570221 
L 228.935593 34.568415 
L 232.718644 34.566754 
L 236.501695 34.565657 
L 240.284746 34.564625 
L 244.067797 34.563706 
L 247.850847 34.563099 
L 251.633898 34.562601 
L 255.416949 34.562145 
L 259.2 34.561778 
" clip-path="url(#pfea4ce16fb)" style="fill: none; stroke: #00ff7f; stroke-width: 1.5; stroke-linecap: square"/>
   </g>
   <g id="line2d_13">
    <path d="M 36 218.86495 
L 39.783051 223.956761 
L 43.566102 226.016803 
L 47.349153 228.394569 
L 51.132203 232.702366 
L 54.915254 238.01241 
L 58.698305 242.789995 
L 62.481356 246.223919 
L 66.264407 248.03153 
L 70.047458 248.207193 
L 73.830508 247.126105 
L 77.613559 245.328932 
L 81.39661 243.156267 
L 85.179661 240.997353 
L 88.962712 239.036083 
L 92.745763 249.99064 
L 96.528814 249.056799 
L 100.311864 229.020177 
L 104.094915 203.625356 
L 107.877966 176.898977 
L 111.661017 182.252502 
L 115.444068 181.63562 
L 119.227119 180.658877 
L 123.010169 179.336118 
L 126.79322 177.784388 
L 130.576271 176.085737 
L 134.359322 174.221855 
L 138.142373 172.278504 
L 141.925424 170.393279 
L 145.708475 168.591834 
L 149.491525 166.801113 
L 153.274576 165.074272 
L 157.057627 163.421732 
L 160.840678 161.823745 
L 164.623729 160.338786 
L 168.40678 158.922715 
L 172.189831 157.569731 
L 175.972881 156.261374 
L 179.755932 155.041205 
L 183.538983 153.900712 
L 187.322034 152.813013 
L 191.105085 151.764323 
L 194.888136 150.753101 
L 198.671186 149.80118 
L 202.454237 148.874711 
L 206.237288 147.969997 
L 210.020339 147.112283 
L 213.80339 146.246423 
L 217.586441 145.411947 
L 221.369492 144.583643 
L 225.152542 143.784397 
L 228.935593 142.994393 
L 232.718644 142.236393 
L 236.501695 141.492253 
L 240.284746 140.745799 
L 244.067797 140.004565 
L 247.850847 139.277149 
L 251.633898 138.582519 
L 255.416949 137.917098 
L 259.2 137.258716 
" clip-path="url(#pfea4ce16fb)" style="fill: none; stroke: #808080; stroke-width: 1.5; stroke-linecap: square"/>
   </g>
   <g id="patch_3">
    <path d="M 36 256.32 
L 36 34.56 
" style="fill: none; stroke: #000000; stroke-width: 0.8; stroke-linejoin: miter; stroke-linecap: square"/>
   </g>
   <g id="patch_4">
    <path d="M 36 256.32 
L 259.2 256.32 
" style="fill: none; stroke: #000000; stroke-width: 0.8; stroke-linejoin: miter; stroke-linecap: square"/>
   </g>
  </g>
 </g>
 <defs>
  <clipPath id="pfea4ce16fb">
   <rect x="36" y="34.56" width="223.2" height="221.76"/>
  </clipPath>
 </defs>
</svg>
