<?xml version="1.0" encoding="utf-8" standalone="no"?>
<!DOCTYPE svg PUBLIC "-//W3C//DTD SVG 1.1//EN"
  "http://www.w3.org/Graphics/SVG/1.1/DTD/svg11.dtd">
<svg xmlns:xlink="http://www.w3.org/1999/xlink" width="720pt" height="576pt" viewBox="0 0 720 576" xmlns="http://www.w3.org/2000/svg" version="1.1">
 <metadata>
  <rdf:RDF xmlns:dc="http://purl.org/dc/elements/1.1/" xmlns:cc="http://creativecommons.org/ns#" xmlns:rdf="http://www.w3.org/1999/02/22-rdf-syntax-ns#">
   <cc:Work>
    <dc:type rdf:resource="http://purl.org/dc/dcmitype/StillImage"/>
    <dc:date>2025-05-20T19:43:31.958864</dc:date>
    <dc:format>image/svg+xml</dc:format>
    <dc:creator>
     <cc:Agent>
      <dc:title>Matplotlib v3.9.2, https://matplotlib.org/</dc:title>
     </cc:Agent>
    </dc:creator>
   </cc:Work>
  </rdf:RDF>
 </metadata>
 <defs>
  <style type="text/css">*{stroke-linejoin: round; stroke-linecap: butt}</style>
 </defs>
 <g id="figure_1">
  <g id="patch_1">
   <path d="M 0 576 
L 720 576 
L 720 0 
L 0 0 
L 0 576 
z
" style="fill: none"/>
  </g>
  <g id="patch_2">
   <path d="M 147.24 512.64 
L 590.76 512.64 
L 590.76 69.12 
L 147.24 69.12 
L 147.24 512.64 
z
" style="fill: none"/>
  </g>
  <g id="pane3d_1">
   <g id="patch_3">
    <path d="M 180.728819 403.282182 
L 327.193607 280.512492 
L 325.157607 103.456652 
L 171.683723 215.454902 
" style="fill: none; opacity: 0.5; stroke: #f2f2f2; stroke-linejoin: miter"/>
   </g>
  </g>
  <g id="pane3d_2">
   <g id="patch_4">
    <path d="M 327.193607 280.512492 
L 562.217334 348.82461 
L 570.604503 165.670285 
L 325.157607 103.456652 
" style="fill: none; opacity: 0.5; stroke: #e6e6e6; stroke-linejoin: miter"/>
   </g>
  </g>
  <g id="pane3d_3">
   <g id="patch_5">
    <path d="M 180.728819 403.282182 
L 429.865448 484.650204 
L 562.217334 348.82461 
L 327.193607 280.512492 
" style="fill: none; opacity: 0.5; stroke: #ececec; stroke-linejoin: miter"/>
   </g>
  </g>
  <g id="grid3d_1">
   <g id="Line3DCollection_1">
    <path d="M 207.312676 411.964469 
L 352.37064 287.830461 
L 351.401706 110.108766 
" style="fill: none; stroke: #b0b0b0; stroke-width: 0.8"/>
    <path d="M 257.562302 428.375997 
L 399.89619 301.644262 
L 400.973849 122.673859 
" style="fill: none; stroke: #b0b0b0; stroke-width: 0.8"/>
    <path d="M 308.91531 445.14789 
L 448.377862 315.73597 
L 451.586898 135.502791 
" style="fill: none; stroke: #b0b0b0; stroke-width: 0.8"/>
    <path d="M 361.408447 462.292148 
L 497.844802 330.114057 
L 503.273987 148.603962 
" style="fill: none; stroke: #b0b0b0; stroke-width: 0.8"/>
    <path d="M 415.080107 479.821312 
L 548.327355 344.787342 
L 556.06967 161.986129 
" style="fill: none; stroke: #b0b0b0; stroke-width: 0.8"/>
   </g>
  </g>
  <g id="grid3d_2">
   <g id="Line3DCollection_2">
    <path d="M 182.56393 207.515022 
L 191.075559 394.609339 
L 439.253644 475.015606 
" style="fill: none; stroke: #b0b0b0; stroke-width: 0.8"/>
    <path d="M 216.375576 182.840823 
L 223.264911 367.627585 
L 468.423421 445.080239 
" style="fill: none; stroke: #b0b0b0; stroke-width: 0.8"/>
    <path d="M 248.934034 159.081143 
L 254.312104 341.603213 
L 496.504551 416.262092 
" style="fill: none; stroke: #b0b0b0; stroke-width: 0.8"/>
    <path d="M 280.307709 136.186064 
L 284.276867 316.486154 
L 523.556861 388.499767 
" style="fill: none; stroke: #b0b0b0; stroke-width: 0.8"/>
    <path d="M 310.560115 114.109236 
L 313.214838 292.229773 
L 549.635874 361.736284 
" style="fill: none; stroke: #b0b0b0; stroke-width: 0.8"/>
   </g>
  </g>
  <g id="grid3d_3">
   <g id="Line3DCollection_3">
    <path d="M 563.445706 322.000117 
L 326.89488 254.534413 
L 179.405993 375.812861 
" style="fill: none; stroke: #b0b0b0; stroke-width: 0.8"/>
    <path d="M 565.15211 284.736618 
L 326.480207 218.473384 
L 177.567295 337.631086 
" style="fill: none; stroke: #b0b0b0; stroke-width: 0.8"/>
    <path d="M 566.889698 246.792123 
L 326.058322 181.785162 
L 175.693697 298.724612 
" style="fill: none; stroke: #b0b0b0; stroke-width: 0.8"/>
    <path d="M 568.659334 208.147791 
L 325.629035 144.453241 
L 173.784197 259.072609 
" style="fill: none; stroke: #b0b0b0; stroke-width: 0.8"/>
    <path d="M 570.461913 168.784082 
L 325.192149 106.460529 
L 171.837753 218.653441 
" style="fill: none; stroke: #b0b0b0; stroke-width: 0.8"/>
   </g>
  </g>
  <g id="axis3d_1">
   <g id="line2d_1">
    <path d="M 180.728819 403.282182 
L 429.865448 484.650204 
" style="fill: none; stroke: #000000; stroke-width: 0.8; stroke-linecap: square"/>
   </g>
   <g id="xtick_1">
    <g id="line2d_2">
     <path d="M 208.576088 410.883299 
L 204.780417 414.131462 
" style="fill: none; stroke: #000000; stroke-width: 0.8; stroke-linecap: square"/>
    </g>
    <g id="text_1">
     <!-- −80 -->
     <g transform="translate(187.138891 436.817517) scale(0.12 -0.12)">
      <defs>
       <path id="DejaVuSans-2212" d="M 678 2272 
L 4684 2272 
L 4684 1741 
L 678 1741 
L 678 2272 
z
" transform="scale(0.015625)"/>
       <path id="DejaVuSans-38" d="M 2034 2216 
Q 1584 2216 1326 1975 
Q 1069 1734 1069 1313 
Q 1069 891 1326 650 
Q 1584 409 2034 409 
Q 2484 409 2743 651 
Q 3003 894 3003 1313 
Q 3003 1734 2745 1975 
Q 2488 2216 2034 2216 
z
M 1403 2484 
Q 997 2584 770 2862 
Q 544 3141 544 3541 
Q 544 4100 942 4425 
Q 1341 4750 2034 4750 
Q 2731 4750 3128 4425 
Q 3525 4100 3525 3541 
Q 3525 3141 3298 2862 
Q 3072 2584 2669 2484 
Q 3125 2378 3379 2068 
Q 3634 1759 3634 1313 
Q 3634 634 3220 271 
Q 2806 -91 2034 -91 
Q 1263 -91 848 271 
Q 434 634 434 1313 
Q 434 1759 690 2068 
Q 947 2378 1403 2484 
z
M 1172 3481 
Q 1172 3119 1398 2916 
Q 1625 2713 2034 2713 
Q 2441 2713 2670 2916 
Q 2900 3119 2900 3481 
Q 2900 3844 2670 4047 
Q 2441 4250 2034 4250 
Q 1625 4250 1398 4047 
Q 1172 3844 1172 3481 
z
" transform="scale(0.015625)"/>
       <path id="DejaVuSans-30" d="M 2034 4250 
Q 1547 4250 1301 3770 
Q 1056 3291 1056 2328 
Q 1056 1369 1301 889 
Q 1547 409 2034 409 
Q 2525 409 2770 889 
Q 3016 1369 3016 2328 
Q 3016 3291 2770 3770 
Q 2525 4250 2034 4250 
z
M 2034 4750 
Q 2819 4750 3233 4129 
Q 3647 3509 3647 2328 
Q 3647 1150 3233 529 
Q 2819 -91 2034 -91 
Q 1250 -91 836 529 
Q 422 1150 422 2328 
Q 422 3509 836 4129 
Q 1250 4750 2034 4750 
z
" transform="scale(0.015625)"/>
      </defs>
      <use xlink:href="#DejaVuSans-2212"/>
      <use xlink:href="#DejaVuSans-38" x="83.789062"/>
      <use xlink:href="#DejaVuSans-30" x="147.412109"/>
     </g>
    </g>
   </g>
   <g id="xtick_2">
    <g id="line2d_3">
     <path d="M 258.803084 427.271225 
L 255.075341 430.590346 
" style="fill: none; stroke: #000000; stroke-width: 0.8; stroke-linecap: square"/>
    </g>
    <g id="text_2">
     <!-- −40 -->
     <g transform="translate(237.420174 453.437348) scale(0.12 -0.12)">
      <defs>
       <path id="DejaVuSans-34" d="M 2419 4116 
L 825 1625 
L 2419 1625 
L 2419 4116 
z
M 2253 4666 
L 3047 4666 
L 3047 1625 
L 3713 1625 
L 3713 1100 
L 3047 1100 
L 3047 0 
L 2419 0 
L 2419 1100 
L 313 1100 
L 313 1709 
L 2253 4666 
z
" transform="scale(0.015625)"/>
      </defs>
      <use xlink:href="#DejaVuSans-2212"/>
      <use xlink:href="#DejaVuSans-34" x="83.789062"/>
      <use xlink:href="#DejaVuSans-30" x="147.412109"/>
     </g>
    </g>
   </g>
   <g id="xtick_3">
    <g id="line2d_4">
     <path d="M 310.13216 444.018735 
L 306.476261 447.411164 
" style="fill: none; stroke: #000000; stroke-width: 0.8; stroke-linecap: square"/>
    </g>
    <g id="text_3">
     <!-- 0 -->
     <g transform="translate(297.653366 470.422949) scale(0.12 -0.12)">
      <use xlink:href="#DejaVuSans-30"/>
     </g>
    </g>
   </g>
   <g id="xtick_4">
    <g id="line2d_5">
     <path d="M 362.599989 461.137794 
L 359.020064 464.605987 
" style="fill: none; stroke: #000000; stroke-width: 0.8; stroke-linecap: square"/>
    </g>
    <g id="text_4">
     <!-- 40 -->
     <g transform="translate(346.367281 487.786532) scale(0.12 -0.12)">
      <use xlink:href="#DejaVuSans-34"/>
      <use xlink:href="#DejaVuSans-30" x="63.623047"/>
     </g>
    </g>
   </g>
   <g id="xtick_5">
    <g id="line2d_6">
     <path d="M 416.244894 478.640906 
L 412.745296 482.18743 
" style="fill: none; stroke: #000000; stroke-width: 0.8; stroke-linecap: square"/>
    </g>
    <g id="text_5">
     <!-- 80 -->
     <g transform="translate(400.080829 505.540854) scale(0.12 -0.12)">
      <use xlink:href="#DejaVuSans-38"/>
      <use xlink:href="#DejaVuSans-30" x="63.623047"/>
     </g>
    </g>
   </g>
   <g id="text_6">
    <!-- PC 1 -->
    <g transform="translate(261.556778 491.505045) scale(0.18 -0.18)">
     <defs>
      <path id="DejaVuSans-50" d="M 1259 4147 
L 1259 2394 
L 2053 2394 
Q 2494 2394 2734 2622 
Q 2975 2850 2975 3272 
Q 2975 3691 2734 3919 
Q 2494 4147 2053 4147 
L 1259 4147 
z
M 628 4666 
L 2053 4666 
Q 2838 4666 3239 4311 
Q 3641 3956 3641 3272 
Q 3641 2581 3239 2228 
Q 2838 1875 2053 1875 
L 1259 1875 
L 1259 0 
L 628 0 
L 628 4666 
z
" transform="scale(0.015625)"/>
      <path id="DejaVuSans-43" d="M 4122 4306 
L 4122 3641 
Q 3803 3938 3442 4084 
Q 3081 4231 2675 4231 
Q 1875 4231 1450 3742 
Q 1025 3253 1025 2328 
Q 1025 1406 1450 917 
Q 1875 428 2675 428 
Q 3081 428 3442 575 
Q 3803 722 4122 1019 
L 4122 359 
Q 3791 134 3420 21 
Q 3050 -91 2638 -91 
Q 1578 -91 968 557 
Q 359 1206 359 2328 
Q 359 3453 968 4101 
Q 1578 4750 2638 4750 
Q 3056 4750 3426 4639 
Q 3797 4528 4122 4306 
z
" transform="scale(0.015625)"/>
      <path id="DejaVuSans-20" transform="scale(0.015625)"/>
      <path id="DejaVuSans-31" d="M 794 531 
L 1825 531 
L 1825 4091 
L 703 3866 
L 703 4441 
L 1819 4666 
L 2450 4666 
L 2450 531 
L 3481 531 
L 3481 0 
L 794 0 
L 794 531 
z
" transform="scale(0.015625)"/>
     </defs>
     <use xlink:href="#DejaVuSans-50"/>
     <use xlink:href="#DejaVuSans-43" x="60.302734"/>
     <use xlink:href="#DejaVuSans-20" x="130.126953"/>
     <use xlink:href="#DejaVuSans-31" x="161.914062"/>
    </g>
   </g>
  </g>
  <g id="axis3d_2">
   <g id="line2d_7">
    <path d="M 562.217334 348.82461 
L 429.865448 484.650204 
" style="fill: none; stroke: #000000; stroke-width: 0.8; stroke-linecap: square"/>
   </g>
   <g id="xtick_6">
    <g id="line2d_8">
     <path d="M 437.162256 474.338025 
L 443.441829 476.372519 
" style="fill: none; stroke: #000000; stroke-width: 0.8; stroke-linecap: square"/>
    </g>
    <g id="text_7">
     <!-- −80 -->
     <g transform="translate(439.466529 497.551707) scale(0.12 -0.12)">
      <use xlink:href="#DejaVuSans-2212"/>
      <use xlink:href="#DejaVuSans-38" x="83.789062"/>
      <use xlink:href="#DejaVuSans-30" x="147.412109"/>
     </g>
    </g>
   </g>
   <g id="xtick_7">
    <g id="line2d_9">
     <path d="M 466.359469 444.428176 
L 472.556562 446.386017 
" style="fill: none; stroke: #000000; stroke-width: 0.8; stroke-linecap: square"/>
    </g>
    <g id="text_8">
     <!-- −40 -->
     <g transform="translate(468.40166 467.350557) scale(0.12 -0.12)">
      <use xlink:href="#DejaVuSans-2212"/>
      <use xlink:href="#DejaVuSans-34" x="83.789062"/>
      <use xlink:href="#DejaVuSans-30" x="147.412109"/>
     </g>
    </g>
   </g>
   <g id="xtick_8">
    <g id="line2d_10">
     <path d="M 494.467461 415.634133 
L 500.583801 417.519572 
" style="fill: none; stroke: #000000; stroke-width: 0.8; stroke-linecap: square"/>
    </g>
    <g id="text_9">
     <!-- 0 -->
     <g transform="translate(505.10184 438.276935) scale(0.12 -0.12)">
      <use xlink:href="#DejaVuSans-30"/>
     </g>
    </g>
   </g>
   <g id="xtick_9">
    <g id="line2d_11">
     <path d="M 521.546069 387.8946 
L 527.583358 389.71158 
" style="fill: none; stroke: #000000; stroke-width: 0.8; stroke-linecap: square"/>
    </g>
    <g id="text_10">
     <!-- 40 -->
     <g transform="translate(528.118331 410.268857) scale(0.12 -0.12)">
      <use xlink:href="#DejaVuSans-34"/>
      <use xlink:href="#DejaVuSans-30" x="63.623047"/>
     </g>
    </g>
   </g>
   <g id="xtick_10">
    <g id="line2d_12">
     <path d="M 547.650823 361.152689 
L 553.61074 362.904873 
" style="fill: none; stroke: #000000; stroke-width: 0.8; stroke-linecap: square"/>
    </g>
    <g id="text_11">
     <!-- 80 -->
     <g transform="translate(553.986558 383.268798) scale(0.12 -0.12)">
      <use xlink:href="#DejaVuSans-38"/>
      <use xlink:href="#DejaVuSans-30" x="63.623047"/>
     </g>
    </g>
   </g>
   <g id="text_12">
    <!-- PC 2 -->
    <g transform="translate(512.139238 453.386049) scale(0.18 -0.18)">
     <defs>
      <path id="DejaVuSans-32" d="M 1228 531 
L 3431 531 
L 3431 0 
L 469 0 
L 469 531 
Q 828 903 1448 1529 
Q 2069 2156 2228 2338 
Q 2531 2678 2651 2914 
Q 2772 3150 2772 3378 
Q 2772 3750 2511 3984 
Q 2250 4219 1831 4219 
Q 1534 4219 1204 4116 
Q 875 4013 500 3803 
L 500 4441 
Q 881 4594 1212 4672 
Q 1544 4750 1819 4750 
Q 2544 4750 2975 4387 
Q 3406 4025 3406 3419 
Q 3406 3131 3298 2873 
Q 3191 2616 2906 2266 
Q 2828 2175 2409 1742 
Q 1991 1309 1228 531 
z
" transform="scale(0.015625)"/>
     </defs>
     <use xlink:href="#DejaVuSans-50"/>
     <use xlink:href="#DejaVuSans-43" x="60.302734"/>
     <use xlink:href="#DejaVuSans-20" x="130.126953"/>
     <use xlink:href="#DejaVuSans-32" x="161.914062"/>
    </g>
   </g>
  </g>
  <g id="axis3d_3">
   <g id="line2d_13">
    <path d="M 562.217334 348.82461 
L 570.604503 165.670285 
" style="fill: none; stroke: #000000; stroke-width: 0.8; stroke-linecap: square"/>
   </g>
   <g id="xtick_11">
    <g id="line2d_14">
     <path d="M 561.459783 321.43372 
L 567.422305 323.134266 
" style="fill: none; stroke: #000000; stroke-width: 0.8; stroke-linecap: square"/>
    </g>
    <g id="text_13">
     <!-- −80 -->
     <g transform="translate(569.170873 328.541665) scale(0.12 -0.12)">
      <use xlink:href="#DejaVuSans-2212"/>
      <use xlink:href="#DejaVuSans-38" x="83.789062"/>
      <use xlink:href="#DejaVuSans-30" x="147.412109"/>
     </g>
    </g>
   </g>
   <g id="xtick_12">
    <g id="line2d_15">
     <path d="M 563.147526 284.180079 
L 569.166119 285.85104 
" style="fill: none; stroke: #000000; stroke-width: 0.8; stroke-linecap: square"/>
    </g>
    <g id="text_14">
     <!-- −40 -->
     <g transform="translate(571.040351 291.323044) scale(0.12 -0.12)">
      <use xlink:href="#DejaVuSans-2212"/>
      <use xlink:href="#DejaVuSans-34" x="83.789062"/>
      <use xlink:href="#DejaVuSans-30" x="147.412109"/>
     </g>
    </g>
   </g>
   <g id="xtick_13">
    <g id="line2d_16">
     <path d="M 564.8661 246.245898 
L 570.941828 247.885903 
" style="fill: none; stroke: #000000; stroke-width: 0.8; stroke-linecap: square"/>
    </g>
    <g id="text_15">
     <!-- 0 -->
     <g transform="translate(581.789243 253.425502) scale(0.12 -0.12)">
      <use xlink:href="#DejaVuSans-30"/>
     </g>
    </g>
   </g>
   <g id="xtick_14">
    <g id="line2d_17">
     <path d="M 566.616358 207.612358 
L 572.750314 209.219975 
" style="fill: none; stroke: #000000; stroke-width: 0.8; stroke-linecap: square"/>
    </g>
    <g id="text_16">
     <!-- 40 -->
     <g transform="translate(579.910366 214.830291) scale(0.12 -0.12)">
      <use xlink:href="#DejaVuSans-34"/>
      <use xlink:href="#DejaVuSans-30" x="63.623047"/>
     </g>
    </g>
   </g>
   <g id="xtick_15">
    <g id="line2d_18">
     <path d="M 568.399184 168.259938 
L 574.592493 169.833671 
" style="fill: none; stroke: #000000; stroke-width: 0.8; stroke-linecap: square"/>
    </g>
    <g id="text_17">
     <!-- 80 -->
     <g transform="translate(581.88501 175.517969) scale(0.12 -0.12)">
      <use xlink:href="#DejaVuSans-38"/>
      <use xlink:href="#DejaVuSans-30" x="63.623047"/>
     </g>
    </g>
   </g>
   <g id="text_18">
    <!-- PC 3 -->
    <g transform="translate(596.17243 257.501614) scale(0.18 -0.18)">
     <defs>
      <path id="DejaVuSans-33" d="M 2597 2516 
Q 3050 2419 3304 2112 
Q 3559 1806 3559 1356 
Q 3559 666 3084 287 
Q 2609 -91 1734 -91 
Q 1441 -91 1130 -33 
Q 819 25 488 141 
L 488 750 
Q 750 597 1062 519 
Q 1375 441 1716 441 
Q 2309 441 2620 675 
Q 2931 909 2931 1356 
Q 2931 1769 2642 2001 
Q 2353 2234 1838 2234 
L 1294 2234 
L 1294 2753 
L 1863 2753 
Q 2328 2753 2575 2939 
Q 2822 3125 2822 3475 
Q 2822 3834 2567 4026 
Q 2313 4219 1838 4219 
Q 1578 4219 1281 4162 
Q 984 4106 628 3988 
L 628 4550 
Q 988 4650 1302 4700 
Q 1616 4750 1894 4750 
Q 2613 4750 3031 4423 
Q 3450 4097 3450 3541 
Q 3450 3153 3228 2886 
Q 3006 2619 2597 2516 
z
" transform="scale(0.015625)"/>
     </defs>
     <use xlink:href="#DejaVuSans-50"/>
     <use xlink:href="#DejaVuSans-43" x="60.302734"/>
     <use xlink:href="#DejaVuSans-20" x="130.126953"/>
     <use xlink:href="#DejaVuSans-33" x="161.914062"/>
    </g>
   </g>
  </g>
  <g id="axes_1">
   <g id="line2d_19">
    <path d="M 426.15703 393.71135 
L 408.682295 405.557565 
L 403.005118 423.027089 
L 415.420499 407.91325 
L 422.79803 385.503136 
L 457.385552 337.260361 
L 471.540585 299.874603 
L 512.182725 249.300317 
L 517.815544 225.388304 
L 546.999933 205.654906 
L 544.317005 205.898059 
L 538.634424 221.455119 
L 515.975026 241.084076 
L 492.200941 277.254451 
L 475.867789 316.450279 
L 450.484854 364.333492 
L 426.15703 393.71135 
" clip-path="url(#p2ee0a4b6d2)" style="fill: none; stroke: #808080; stroke-opacity: 0.7; stroke-width: 1.5; stroke-linecap: square"/>
   </g>
   <g id="line2d_20">
    <path d="M 367.34234 261.844021 
L 373.313084 242.872955 
L 369.396451 216.224109 
L 343.885798 193.254985 
L 322.096619 178.277194 
L 287.018614 168.669602 
L 244.764675 184.483288 
L 201.87952 204.830487 
L 174.120892 254.526553 
L 185.917781 272.89131 
L 206.126241 290.392506 
L 233.660204 310.112096 
L 269.390687 305.40633 
L 296.836093 297.328987 
L 321.566427 282.384023 
L 348.289521 274.957719 
L 367.34234 261.844021 
" clip-path="url(#p2ee0a4b6d2)" style="fill: none; stroke: #808080; stroke-opacity: 0.7; stroke-width: 1.5; stroke-linecap: square"/>
   </g>
   <g id="Poly3DCollection_1">
    <path d="M 276.000993 181.018858 
L 268.700436 186.525685 
L 256.478889 175.873592 
L 263.851435 170.439395 
z
" clip-path="url(#p2ee0a4b6d2)" style="fill: #808080; fill-opacity: 0.3"/>
    <path d="M 288.170821 191.615972 
L 280.942505 197.195665 
L 268.700436 186.525685 
L 276.000993 181.018858 
z
" clip-path="url(#p2ee0a4b6d2)" style="fill: #808080; fill-opacity: 0.3"/>
    <path d="M 300.360971 202.230781 
L 293.205148 207.883577 
L 280.942505 197.195665 
L 288.170821 191.615972 
z
" clip-path="url(#p2ee0a4b6d2)" style="fill: #808080; fill-opacity: 0.3"/>
    <path d="M 312.571495 212.863331 
L 305.488418 218.589467 
L 293.205148 207.883577 
L 300.360971 202.230781 
z
" clip-path="url(#p2ee0a4b6d2)" style="fill: #808080; fill-opacity: 0.3"/>
    <path d="M 324.802442 223.513666 
L 317.792366 229.313379 
L 305.488418 218.589467 
L 312.571495 212.863331 
z
" clip-path="url(#p2ee0a4b6d2)" style="fill: #808080; fill-opacity: 0.3"/>
    <path d="M 337.053865 234.181829 
L 330.117045 240.05536 
L 317.792366 229.313379 
L 324.802442 223.513666 
z
" clip-path="url(#p2ee0a4b6d2)" style="fill: #808080; fill-opacity: 0.3"/>
    <path d="M 349.325814 244.867867 
L 342.462507 250.815456 
L 330.117045 240.05536 
L 337.053865 234.181829 
z
" clip-path="url(#p2ee0a4b6d2)" style="fill: #808080; fill-opacity: 0.3"/>
    <path d="M 361.618342 255.571824 
L 354.828804 261.593711 
L 342.462507 250.815456 
L 349.325814 244.867867 
z
" clip-path="url(#p2ee0a4b6d2)" style="fill: #808080; fill-opacity: 0.3"/>
    <path d="M 268.700436 186.525685 
L 261.305322 192.103836 
L 249.010935 181.378113 
L 256.478889 175.873592 
z
" clip-path="url(#p2ee0a4b6d2)" style="fill: #808080; fill-opacity: 0.3"/>
    <path d="M 373.9315 266.293745 
L 367.21599 272.390172 
L 354.828804 261.593711 
L 361.618342 255.571824 
z
" clip-path="url(#p2ee0a4b6d2)" style="fill: #808080; fill-opacity: 0.3"/>
    <path d="M 280.942505 197.195665 
L 273.620489 202.847687 
L 261.305322 192.103836 
L 268.700436 186.525685 
z
" clip-path="url(#p2ee0a4b6d2)" style="fill: #808080; fill-opacity: 0.3"/>
    <path d="M 293.205148 207.883577 
L 285.956487 213.609711 
L 273.620489 202.847687 
L 280.942505 197.195665 
z
" clip-path="url(#p2ee0a4b6d2)" style="fill: #808080; fill-opacity: 0.3"/>
    <path d="M 305.488418 218.589467 
L 298.313369 224.389955 
L 285.956487 213.609711 
L 293.205148 207.883577 
z
" clip-path="url(#p2ee0a4b6d2)" style="fill: #808080; fill-opacity: 0.3"/>
    <path d="M 317.792366 229.313379 
L 310.691189 235.188465 
L 298.313369 224.389955 
L 305.488418 218.589467 
z
" clip-path="url(#p2ee0a4b6d2)" style="fill: #808080; fill-opacity: 0.3"/>
    <path d="M 330.117045 240.05536 
L 323.089999 246.005288 
L 310.691189 235.188465 
L 317.792366 229.313379 
z
" clip-path="url(#p2ee0a4b6d2)" style="fill: #808080; fill-opacity: 0.3"/>
    <path d="M 342.462507 250.815456 
L 335.509853 256.840469 
L 323.089999 246.005288 
L 330.117045 240.05536 
z
" clip-path="url(#p2ee0a4b6d2)" style="fill: #808080; fill-opacity: 0.3"/>
    <path d="M 354.828804 261.593711 
L 347.950806 267.694057 
L 335.509853 256.840469 
L 342.462507 250.815456 
z
" clip-path="url(#p2ee0a4b6d2)" style="fill: #808080; fill-opacity: 0.3"/>
    <path d="M 261.305322 192.103836 
L 253.813803 197.754706 
L 241.445708 186.954332 
L 249.010935 181.378113 
z
" clip-path="url(#p2ee0a4b6d2)" style="fill: #808080; fill-opacity: 0.3"/>
    <path d="M 367.21599 272.390172 
L 360.412909 278.566097 
L 347.950806 267.694057 
L 354.828804 261.593711 
z
" clip-path="url(#p2ee0a4b6d2)" style="fill: #808080; fill-opacity: 0.3"/>
    <path d="M 273.620489 202.847687 
L 266.202939 208.573454 
L 253.813803 197.754706 
L 261.305322 192.103836 
z
" clip-path="url(#p2ee0a4b6d2)" style="fill: #808080; fill-opacity: 0.3"/>
    <path d="M 285.956487 213.609711 
L 278.613168 219.410621 
L 266.202939 208.573454 
L 273.620489 202.847687 
z
" clip-path="url(#p2ee0a4b6d2)" style="fill: #808080; fill-opacity: 0.3"/>
    <path d="M 298.313369 224.389955 
L 291.044544 230.266255 
L 278.613168 219.410621 
L 285.956487 213.609711 
z
" clip-path="url(#p2ee0a4b6d2)" style="fill: #808080; fill-opacity: 0.3"/>
    <path d="M 310.691189 235.188465 
L 303.497121 241.140403 
L 291.044544 230.266255 
L 298.313369 224.389955 
z
" clip-path="url(#p2ee0a4b6d2)" style="fill: #808080; fill-opacity: 0.3"/>
    <path d="M 323.089999 246.005288 
L 315.970955 252.033112 
L 303.497121 241.140403 
L 310.691189 235.188465 
z
" clip-path="url(#p2ee0a4b6d2)" style="fill: #808080; fill-opacity: 0.3"/>
    <path d="M 335.509853 256.840469 
L 328.466098 262.94443 
L 315.970955 252.033112 
L 323.089999 246.005288 
z
" clip-path="url(#p2ee0a4b6d2)" style="fill: #808080; fill-opacity: 0.3"/>
    <path d="M 347.950806 267.694057 
L 340.982606 273.874406 
L 328.466098 262.94443 
L 335.509853 256.840469 
z
" clip-path="url(#p2ee0a4b6d2)" style="fill: #808080; fill-opacity: 0.3"/>
    <path d="M 253.813803 197.754706 
L 246.223981 203.479727 
L 233.781295 192.603659 
L 241.445708 186.954332 
z
" clip-path="url(#p2ee0a4b6d2)" style="fill: #808080; fill-opacity: 0.3"/>
    <path d="M 360.412909 278.566097 
L 353.520534 284.823085 
L 340.982606 273.874406 
L 347.950806 267.694057 
z
" clip-path="url(#p2ee0a4b6d2)" style="fill: #808080; fill-opacity: 0.3"/>
    <path d="M 266.202939 208.573454 
L 258.687973 214.374418 
L 246.223981 203.479727 
L 253.813803 197.754706 
z
" clip-path="url(#p2ee0a4b6d2)" style="fill: #808080; fill-opacity: 0.3"/>
    <path d="M 278.613168 219.410621 
L 271.173325 225.28778 
L 258.687973 214.374418 
L 266.202939 208.573454 
z
" clip-path="url(#p2ee0a4b6d2)" style="fill: #808080; fill-opacity: 0.3"/>
    <path d="M 291.044544 230.266255 
L 283.680092 236.219861 
L 271.173325 225.28778 
L 278.613168 219.410621 
z
" clip-path="url(#p2ee0a4b6d2)" style="fill: #808080; fill-opacity: 0.3"/>
    <path d="M 303.497121 241.140403 
L 296.20833 247.170709 
L 283.680092 236.219861 
L 291.044544 230.266255 
z
" clip-path="url(#p2ee0a4b6d2)" style="fill: #808080; fill-opacity: 0.3"/>
    <path d="M 315.970955 252.033112 
L 308.758093 258.140373 
L 296.20833 247.170709 
L 303.497121 241.140403 
z
" clip-path="url(#p2ee0a4b6d2)" style="fill: #808080; fill-opacity: 0.3"/>
    <path d="M 328.466098 262.94443 
L 321.329438 269.1289 
L 308.758093 258.140373 
L 315.970955 252.033112 
z
" clip-path="url(#p2ee0a4b6d2)" style="fill: #808080; fill-opacity: 0.3"/>
    <path d="M 340.982606 273.874406 
L 333.92242 280.136341 
L 321.329438 269.1289 
L 328.466098 262.94443 
z
" clip-path="url(#p2ee0a4b6d2)" style="fill: #808080; fill-opacity: 0.3"/>
    <path d="M 246.223981 203.479727 
L 238.533908 209.280367 
L 226.015734 198.327542 
L 233.781295 192.603659 
z
" clip-path="url(#p2ee0a4b6d2)" style="fill: #808080; fill-opacity: 0.3"/>
    <path d="M 353.520534 284.823085 
L 346.537095 291.162743 
L 333.92242 280.136341 
L 340.982606 273.874406 
z
" clip-path="url(#p2ee0a4b6d2)" style="fill: #808080; fill-opacity: 0.3"/>
    <path d="M 258.687973 214.374418 
L 251.073659 220.252071 
L 238.533908 209.280367 
L 246.223981 203.479727 
z
" clip-path="url(#p2ee0a4b6d2)" style="fill: #808080; fill-opacity: 0.3"/>
    <path d="M 271.173325 225.28778 
L 263.635043 231.242702 
L 251.073659 220.252071 
L 258.687973 214.374418 
z
" clip-path="url(#p2ee0a4b6d2)" style="fill: #808080; fill-opacity: 0.3"/>
    <path d="M 283.680092 236.219861 
L 276.218115 242.25231 
L 263.635043 231.242702 
L 271.173325 225.28778 
z
" clip-path="url(#p2ee0a4b6d2)" style="fill: #808080; fill-opacity: 0.3"/>
    <path d="M 296.20833 247.170709 
L 288.822931 253.280943 
L 276.218115 242.25231 
L 283.680092 236.219861 
z
" clip-path="url(#p2ee0a4b6d2)" style="fill: #808080; fill-opacity: 0.3"/>
    <path d="M 308.758093 258.140373 
L 301.449548 264.32865 
L 288.822931 253.280943 
L 296.20833 247.170709 
z
" clip-path="url(#p2ee0a4b6d2)" style="fill: #808080; fill-opacity: 0.3"/>
    <path d="M 321.329438 269.1289 
L 314.098023 275.395483 
L 301.449548 264.32865 
L 308.758093 258.140373 
z
" clip-path="url(#p2ee0a4b6d2)" style="fill: #808080; fill-opacity: 0.3"/>
    <path d="M 333.92242 280.136341 
L 326.768413 286.481489 
L 314.098023 275.395483 
L 321.329438 269.1289 
z
" clip-path="url(#p2ee0a4b6d2)" style="fill: #808080; fill-opacity: 0.3"/>
    <path d="M 238.533908 209.280367 
L 230.741585 215.158135 
L 218.147007 204.127465 
L 226.015734 198.327542 
z
" clip-path="url(#p2ee0a4b6d2)" style="fill: #808080; fill-opacity: 0.3"/>
    <path d="M 346.537095 291.162743 
L 339.460774 297.586719 
L 326.768413 286.481489 
L 333.92242 280.136341 
z
" clip-path="url(#p2ee0a4b6d2)" style="fill: #808080; fill-opacity: 0.3"/>
    <path d="M 251.073659 220.252071 
L 243.358015 226.207943 
L 230.741585 215.158135 
L 238.533908 209.280367 
z
" clip-path="url(#p2ee0a4b6d2)" style="fill: #808080; fill-opacity: 0.3"/>
    <path d="M 263.635043 231.242702 
L 255.996355 237.276941 
L 243.358015 226.207943 
L 251.073659 220.252071 
z
" clip-path="url(#p2ee0a4b6d2)" style="fill: #808080; fill-opacity: 0.3"/>
    <path d="M 276.218115 242.25231 
L 268.656661 248.365177 
L 255.996355 237.276941 
L 263.635043 231.242702 
z
" clip-path="url(#p2ee0a4b6d2)" style="fill: #808080; fill-opacity: 0.3"/>
    <path d="M 288.822931 253.280943 
L 281.338991 259.472703 
L 268.656661 248.365177 
L 276.218115 242.25231 
z
" clip-path="url(#p2ee0a4b6d2)" style="fill: #808080; fill-opacity: 0.3"/>
    <path d="M 301.449548 264.32865 
L 294.043403 270.599568 
L 281.338991 259.472703 
L 288.822931 253.280943 
z
" clip-path="url(#p2ee0a4b6d2)" style="fill: #808080; fill-opacity: 0.3"/>
    <path d="M 314.098023 275.395483 
L 306.769954 281.745823 
L 294.043403 270.599568 
L 301.449548 264.32865 
z
" clip-path="url(#p2ee0a4b6d2)" style="fill: #808080; fill-opacity: 0.3"/>
    <path d="M 326.768413 286.481489 
L 319.518703 292.91152 
L 306.769954 281.745823 
L 314.098023 275.395483 
z
" clip-path="url(#p2ee0a4b6d2)" style="fill: #808080; fill-opacity: 0.3"/>
    <path d="M 230.741585 215.158135 
L 222.844958 221.114579 
L 210.173047 210.004956 
L 218.147007 204.127465 
z
" clip-path="url(#p2ee0a4b6d2)" style="fill: #808080; fill-opacity: 0.3"/>
    <path d="M 339.460774 297.586719 
L 332.289706 304.096708 
L 319.518703 292.91152 
L 326.768413 286.481489 
z
" clip-path="url(#p2ee0a4b6d2)" style="fill: #808080; fill-opacity: 0.3"/>
    <path d="M 243.358015 226.207943 
L 235.539003 232.243607 
L 222.844958 221.114579 
L 230.741585 215.158135 
z
" clip-path="url(#p2ee0a4b6d2)" style="fill: #808080; fill-opacity: 0.3"/>
    <path d="M 255.996355 237.276941 
L 248.255241 243.392091 
L 235.539003 232.243607 
L 243.358015 226.207943 
z
" clip-path="url(#p2ee0a4b6d2)" style="fill: #808080; fill-opacity: 0.3"/>
    <path d="M 268.656661 248.365177 
L 260.993729 254.560083 
L 248.255241 243.392091 
L 255.996355 237.276941 
z
" clip-path="url(#p2ee0a4b6d2)" style="fill: #808080; fill-opacity: 0.3"/>
    <path d="M 281.338991 259.472703 
L 273.754525 265.747633 
L 260.993729 254.560083 
L 268.656661 248.365177 
z
" clip-path="url(#p2ee0a4b6d2)" style="fill: #808080; fill-opacity: 0.3"/>
    <path d="M 294.043403 270.599568 
L 286.537689 276.954792 
L 273.754525 265.747633 
L 281.338991 259.472703 
z
" clip-path="url(#p2ee0a4b6d2)" style="fill: #808080; fill-opacity: 0.3"/>
    <path d="M 306.769954 281.745823 
L 299.34328 288.181614 
L 286.537689 276.954792 
L 294.043403 270.599568 
z
" clip-path="url(#p2ee0a4b6d2)" style="fill: #808080; fill-opacity: 0.3"/>
    <path d="M 319.518703 292.91152 
L 312.171356 299.428148 
L 299.34328 288.181614 
L 306.769954 281.745823 
z
" clip-path="url(#p2ee0a4b6d2)" style="fill: #808080; fill-opacity: 0.3"/>
    <path d="M 222.844958 221.114579 
L 214.84192 227.151289 
L 202.091727 215.961579 
L 210.173047 210.004956 
z
" clip-path="url(#p2ee0a4b6d2)" style="fill: #808080; fill-opacity: 0.3"/>
    <path d="M 332.289706 304.096708 
L 325.021976 310.694448 
L 312.171356 299.428148 
L 319.518703 292.91152 
z
" clip-path="url(#p2ee0a4b6d2)" style="fill: #808080; fill-opacity: 0.3"/>
    <path d="M 235.539003 232.243607 
L 227.614533 238.360676 
L 214.84192 227.151289 
L 222.844958 221.114579 
z
" clip-path="url(#p2ee0a4b6d2)" style="fill: #808080; fill-opacity: 0.3"/>
    <path d="M 248.255241 243.392091 
L 240.409627 249.589792 
L 227.614533 238.360676 
L 235.539003 232.243607 
z
" clip-path="url(#p2ee0a4b6d2)" style="fill: #808080; fill-opacity: 0.3"/>
    <path d="M 260.993729 254.560083 
L 253.227261 260.838689 
L 240.409627 249.589792 
L 248.255241 243.392091 
z
" clip-path="url(#p2ee0a4b6d2)" style="fill: #808080; fill-opacity: 0.3"/>
    <path d="M 273.754525 265.747633 
L 266.067494 272.107419 
L 253.227261 260.838689 
L 260.993729 254.560083 
z
" clip-path="url(#p2ee0a4b6d2)" style="fill: #808080; fill-opacity: 0.3"/>
    <path d="M 286.537689 276.954792 
L 278.930385 283.396035 
L 266.067494 272.107419 
L 273.754525 265.747633 
z
" clip-path="url(#p2ee0a4b6d2)" style="fill: #808080; fill-opacity: 0.3"/>
    <path d="M 299.34328 288.181614 
L 291.815996 294.704589 
L 278.930385 283.396035 
L 286.537689 276.954792 
z
" clip-path="url(#p2ee0a4b6d2)" style="fill: #808080; fill-opacity: 0.3"/>
    <path d="M 312.171356 299.428148 
L 304.724386 306.033135 
L 291.815996 294.704589 
L 299.34328 288.181614 
z
" clip-path="url(#p2ee0a4b6d2)" style="fill: #808080; fill-opacity: 0.3"/>
    <path d="M 214.84192 227.151289 
L 206.730304 233.2699 
L 193.900865 221.998945 
L 202.091727 215.961579 
z
" clip-path="url(#p2ee0a4b6d2)" style="fill: #808080; fill-opacity: 0.3"/>
    <path d="M 325.021976 310.694448 
L 317.655616 317.381725 
L 304.724386 306.033135 
L 312.171356 299.428148 
z
" clip-path="url(#p2ee0a4b6d2)" style="fill: #808080; fill-opacity: 0.3"/>
    <path d="M 227.614533 238.360676 
L 219.582457 244.560809 
L 206.730304 233.2699 
L 214.84192 227.151289 
z
" clip-path="url(#p2ee0a4b6d2)" style="fill: #808080; fill-opacity: 0.3"/>
    <path d="M 240.409627 249.589792 
L 232.457384 255.871726 
L 219.582457 244.560809 
L 227.614533 238.360676 
z
" clip-path="url(#p2ee0a4b6d2)" style="fill: #808080; fill-opacity: 0.3"/>
    <path d="M 253.227261 260.838689 
L 245.355145 267.202703 
L 232.457384 255.871726 
L 240.409627 249.589792 
z
" clip-path="url(#p2ee0a4b6d2)" style="fill: #808080; fill-opacity: 0.3"/>
    <path d="M 266.067494 272.107419 
L 258.275802 278.553795 
L 245.355145 267.202703 
L 253.227261 260.838689 
z
" clip-path="url(#p2ee0a4b6d2)" style="fill: #808080; fill-opacity: 0.3"/>
    <path d="M 278.930385 283.396035 
L 271.219415 289.925054 
L 258.275802 278.553795 
L 266.067494 272.107419 
z
" clip-path="url(#p2ee0a4b6d2)" style="fill: #808080; fill-opacity: 0.3"/>
    <path d="M 291.815996 294.704589 
L 284.186045 301.316534 
L 271.219415 289.925054 
L 278.930385 283.396035 
z
" clip-path="url(#p2ee0a4b6d2)" style="fill: #808080; fill-opacity: 0.3"/>
    <path d="M 304.724386 306.033135 
L 297.175755 312.72829 
L 284.186045 301.316534 
L 291.815996 294.704589 
z
" clip-path="url(#p2ee0a4b6d2)" style="fill: #808080; fill-opacity: 0.3"/>
    <path d="M 317.655616 317.381725 
L 310.188605 324.160376 
L 297.175755 312.72829 
L 304.724386 306.033135 
z
" clip-path="url(#p2ee0a4b6d2)" style="fill: #808080; fill-opacity: 0.3"/>
   </g>
   <g id="Path3DCollection_1">
    <path d="M 369.396451 221.701335 
L 374.873676 210.746884 
L 363.919225 210.746884 
z
" clip-path="url(#p2ee0a4b6d2)" style="fill: #ffbd00; fill-opacity: 0.3; stroke: #ffbd00; stroke-opacity: 0.3"/>
    <path d="M 343.885798 198.73221 
L 349.363023 187.777759 
L 338.408572 187.777759 
z
" clip-path="url(#p2ee0a4b6d2)" style="fill: #cbff00; fill-opacity: 0.303213; stroke: #cbff00; stroke-opacity: 0.303213"/>
    <path d="M 373.313084 248.35018 
L 378.79031 237.395729 
L 367.835859 237.395729 
z
" clip-path="url(#p2ee0a4b6d2)" style="fill: #ff6400; fill-opacity: 0.335994; stroke: #ff6400; stroke-opacity: 0.335994"/>
    <path d="M 322.096619 183.75442 
L 327.573845 172.799969 
L 316.619394 172.799969 
z
" clip-path="url(#p2ee0a4b6d2)" style="fill: #6cff00; fill-opacity: 0.358816; stroke: #6cff00; stroke-opacity: 0.358816"/>
    <path d="M 287.018614 174.146828 
L 292.49584 163.192376 
L 281.541389 163.192376 
z
" clip-path="url(#p2ee0a4b6d2)" style="fill: #06ff04; fill-opacity: 0.443976; stroke: #06ff04; stroke-opacity: 0.443976"/>
    <path d="M 367.34234 267.321246 
L 372.819566 256.366795 
L 361.865115 256.366795 
z
" clip-path="url(#p2ee0a4b6d2)" style="fill: #ff0000; fill-opacity: 0.448549; stroke: #ff0000; stroke-opacity: 0.448549"/>
    <path d="M 244.764675 189.960513 
L 250.241901 179.006062 
L 239.28745 179.006062 
z
" clip-path="url(#p2ee0a4b6d2)" style="fill: #00ff5c; fill-opacity: 0.569874; stroke: #00ff5c; stroke-opacity: 0.569874"/>
    <path d="M 348.289521 280.434945 
L 353.766747 269.480493 
L 342.812296 269.480493 
z
" clip-path="url(#p2ee0a4b6d2)" style="fill: #ff0018; fill-opacity: 0.573724; stroke: #ff0018; stroke-opacity: 0.573724"/>
    <path d="M 201.87952 210.307712 
L 207.356746 199.353261 
L 196.402295 199.353261 
z
" clip-path="url(#p2ee0a4b6d2)" style="fill: #00ffc1; fill-opacity: 0.731656; stroke: #00ffc1; stroke-opacity: 0.731656"/>
    <path d="M 321.566427 287.861248 
L 327.043653 276.906797 
L 316.089201 276.906797 
z
" clip-path="url(#p2ee0a4b6d2)" style="fill: #ff007c; fill-opacity: 0.73966; stroke: #ff007c; stroke-opacity: 0.73966"/>
    <path d="M 174.120892 260.003778 
L 179.598118 249.049327 
L 168.643666 249.049327 
z
" clip-path="url(#p2ee0a4b6d2)" style="fill: #00dfff; fill-opacity: 0.855489; stroke: #00dfff; stroke-opacity: 0.855489"/>
    <path d="M 296.836093 302.806213 
L 302.313319 291.851761 
L 291.358868 291.851761 
z
" clip-path="url(#p2ee0a4b6d2)" style="fill: #ff00db; fill-opacity: 0.86984; stroke: #ff00db; stroke-opacity: 0.86984"/>
    <path d="M 185.917781 278.368536 
L 191.395007 267.414085 
L 180.440556 267.414085 
z
" clip-path="url(#p2ee0a4b6d2)" style="fill: #0074ff; fill-opacity: 0.950786; stroke: #0074ff; stroke-opacity: 0.950786"/>
    <path d="M 269.390687 310.883555 
L 274.867913 299.929104 
L 263.913462 299.929104 
z
" clip-path="url(#p2ee0a4b6d2)" style="fill: #b900ff; fill-opacity: 0.963868; stroke: #b900ff; stroke-opacity: 0.963868"/>
    <path d="M 206.126241 295.869732 
L 211.603466 284.915281 
L 200.649015 284.915281 
z
" clip-path="url(#p2ee0a4b6d2)" style="fill: #020cff; fill-opacity: 0.990587; stroke: #020cff; stroke-opacity: 0.990587"/>
    <path d="M 233.660204 315.589322 
L 239.13743 304.634871 
L 228.182979 304.634871 
z
" clip-path="url(#p2ee0a4b6d2)" style="fill: #5400ff; stroke: #5400ff"/>
   </g>
   <g id="Path3DCollection_2">
    <defs>
     <path id="C0_0_e526c829f8" d="M 0 5.477226 
C 1.452577 5.477226 2.845856 4.900111 3.872983 3.872983 
C 4.900111 2.845856 5.477226 1.452577 5.477226 -0 
C 5.477226 -1.452577 4.900111 -2.845856 3.872983 -3.872983 
C 2.845856 -4.900111 1.452577 -5.477226 0 -5.477226 
C -1.452577 -5.477226 -2.845856 -4.900111 -3.872983 -3.872983 
C -4.900111 -2.845856 -5.477226 -1.452577 -5.477226 0 
C -5.477226 1.452577 -4.900111 2.845856 -3.872983 3.872983 
C -2.845856 4.900111 -1.452577 5.477226 0 5.477226 
z
"/>
    </defs>
    <g clip-path="url(#p2ee0a4b6d2)">
     <use xlink:href="#C0_0_e526c829f8" x="457.385552" y="337.260361" style="fill: #08ff00; fill-opacity: 0.3; stroke: #08ff00; stroke-opacity: 0.3"/>
    </g>
    <g clip-path="url(#p2ee0a4b6d2)">
     <use xlink:href="#C0_0_e526c829f8" x="422.79803" y="385.503136" style="fill: #6cff00; fill-opacity: 0.34036; stroke: #6cff00; stroke-opacity: 0.34036"/>
    </g>
    <g clip-path="url(#p2ee0a4b6d2)">
     <use xlink:href="#C0_0_e526c829f8" x="512.182725" y="249.300317" style="fill: #00ffc1; fill-opacity: 0.363899; stroke: #00ffc1; stroke-opacity: 0.363899"/>
    </g>
    <g clip-path="url(#p2ee0a4b6d2)">
     <use xlink:href="#C0_0_e526c829f8" x="471.540585" y="299.874603" style="fill: #00ff5c; fill-opacity: 0.372783; stroke: #00ff5c; stroke-opacity: 0.372783"/>
    </g>
    <g clip-path="url(#p2ee0a4b6d2)">
     <use xlink:href="#C0_0_e526c829f8" x="415.420499" y="407.91325" style="fill: #d1ff00; fill-opacity: 0.38092; stroke: #d1ff00; stroke-opacity: 0.38092"/>
    </g>
    <g clip-path="url(#p2ee0a4b6d2)">
     <use xlink:href="#C0_0_e526c829f8" x="517.815544" y="225.388304" style="fill: #00dfff; fill-opacity: 0.47969; stroke: #00dfff; stroke-opacity: 0.47969"/>
    </g>
    <g clip-path="url(#p2ee0a4b6d2)">
     <use xlink:href="#C0_0_e526c829f8" x="403.005118" y="423.027089" style="fill: #ffc900; fill-opacity: 0.488485; stroke: #ffc900; stroke-opacity: 0.488485"/>
    </g>
    <g clip-path="url(#p2ee0a4b6d2)">
     <use xlink:href="#C0_0_e526c829f8" x="546.999933" y="205.654906" style="fill: #0074ff; fill-opacity: 0.551631; stroke: #0074ff; stroke-opacity: 0.551631"/>
    </g>
    <g clip-path="url(#p2ee0a4b6d2)">
     <use xlink:href="#C0_0_e526c829f8" x="408.682295" y="405.557565" style="fill: #ff6400; fill-opacity: 0.603777; stroke: #ff6400; stroke-opacity: 0.603777"/>
    </g>
    <g clip-path="url(#p2ee0a4b6d2)">
     <use xlink:href="#C0_0_e526c829f8" x="544.317005" y="205.898059" style="fill: #0016ff; fill-opacity: 0.685543; stroke: #0016ff; stroke-opacity: 0.685543"/>
    </g>
    <g clip-path="url(#p2ee0a4b6d2)">
     <use xlink:href="#C0_0_e526c829f8" x="426.15703" y="393.71135" style="fill: #ff0000; fill-opacity: 0.756229; stroke: #ff0000; stroke-opacity: 0.756229"/>
    </g>
    <g clip-path="url(#p2ee0a4b6d2)">
     <use xlink:href="#C0_0_e526c829f8" x="538.634424" y="221.455119" style="fill: #5400ff; fill-opacity: 0.805587; stroke: #5400ff; stroke-opacity: 0.805587"/>
    </g>
    <g clip-path="url(#p2ee0a4b6d2)">
     <use xlink:href="#C0_0_e526c829f8" x="450.484854" y="364.333492" style="fill: #ff0018; fill-opacity: 0.892398; stroke: #ff0018; stroke-opacity: 0.892398"/>
    </g>
    <g clip-path="url(#p2ee0a4b6d2)">
     <use xlink:href="#C0_0_e526c829f8" x="515.975026" y="241.084076" style="fill: #b300ff; fill-opacity: 0.92893; stroke: #b300ff; stroke-opacity: 0.92893"/>
    </g>
    <g clip-path="url(#p2ee0a4b6d2)">
     <use xlink:href="#C0_0_e526c829f8" x="475.867789" y="316.450279" style="fill: #ff007c; fill-opacity: 0.970002; stroke: #ff007c; stroke-opacity: 0.970002"/>
    </g>
    <g clip-path="url(#p2ee0a4b6d2)">
     <use xlink:href="#C0_0_e526c829f8" x="492.200941" y="277.254451" style="fill: #ff00db; stroke: #ff00db"/>
    </g>
   </g>
   <g id="legend_1">
    <g id="patch_6">
     <path d="M 343.470937 136.36125 
L 578.16 136.36125 
Q 581.76 136.36125 581.76 132.76125 
L 581.76 81.72 
Q 581.76 78.12 578.16 78.12 
L 343.470937 78.12 
Q 339.870937 78.12 339.870937 81.72 
L 339.870937 132.76125 
Q 339.870937 136.36125 343.470937 136.36125 
z
" style="fill: #ffffff; opacity: 0.8; stroke: #cccccc; stroke-linejoin: miter"/>
    </g>
    <g id="Path3DCollection_3">
     <path d="M 365.070937 99.749413 
C 366.523515 99.749413 367.916794 99.172298 368.943921 98.145171 
C 369.971048 97.118044 370.548163 95.724765 370.548163 94.272188 
C 370.548163 92.81961 369.971048 91.426331 368.943921 90.399204 
C 367.916794 89.372077 366.523515 88.794962 365.070937 88.794962 
C 363.61836 88.794962 362.225081 89.372077 361.197954 90.399204 
C 360.170827 91.426331 359.593712 92.81961 359.593712 94.272188 
C 359.593712 95.724765 360.170827 97.118044 361.197954 98.145171 
C 362.225081 99.172298 363.61836 99.749413 365.070937 99.749413 
z
" style="fill: #ff0000; stroke: #ff0000"/>
    </g>
    <g id="text_19">
     <!-- Selected stimulus 1 -->
     <g transform="translate(397.470937 98.997188) scale(0.18 -0.18)">
      <defs>
       <path id="DejaVuSans-53" d="M 3425 4513 
L 3425 3897 
Q 3066 4069 2747 4153 
Q 2428 4238 2131 4238 
Q 1616 4238 1336 4038 
Q 1056 3838 1056 3469 
Q 1056 3159 1242 3001 
Q 1428 2844 1947 2747 
L 2328 2669 
Q 3034 2534 3370 2195 
Q 3706 1856 3706 1288 
Q 3706 609 3251 259 
Q 2797 -91 1919 -91 
Q 1588 -91 1214 -16 
Q 841 59 441 206 
L 441 856 
Q 825 641 1194 531 
Q 1563 422 1919 422 
Q 2459 422 2753 634 
Q 3047 847 3047 1241 
Q 3047 1584 2836 1778 
Q 2625 1972 2144 2069 
L 1759 2144 
Q 1053 2284 737 2584 
Q 422 2884 422 3419 
Q 422 4038 858 4394 
Q 1294 4750 2059 4750 
Q 2388 4750 2728 4690 
Q 3069 4631 3425 4513 
z
" transform="scale(0.015625)"/>
       <path id="DejaVuSans-65" d="M 3597 1894 
L 3597 1613 
L 953 1613 
Q 991 1019 1311 708 
Q 1631 397 2203 397 
Q 2534 397 2845 478 
Q 3156 559 3463 722 
L 3463 178 
Q 3153 47 2828 -22 
Q 2503 -91 2169 -91 
Q 1331 -91 842 396 
Q 353 884 353 1716 
Q 353 2575 817 3079 
Q 1281 3584 2069 3584 
Q 2775 3584 3186 3129 
Q 3597 2675 3597 1894 
z
M 3022 2063 
Q 3016 2534 2758 2815 
Q 2500 3097 2075 3097 
Q 1594 3097 1305 2825 
Q 1016 2553 972 2059 
L 3022 2063 
z
" transform="scale(0.015625)"/>
       <path id="DejaVuSans-6c" d="M 603 4863 
L 1178 4863 
L 1178 0 
L 603 0 
L 603 4863 
z
" transform="scale(0.015625)"/>
       <path id="DejaVuSans-63" d="M 3122 3366 
L 3122 2828 
Q 2878 2963 2633 3030 
Q 2388 3097 2138 3097 
Q 1578 3097 1268 2742 
Q 959 2388 959 1747 
Q 959 1106 1268 751 
Q 1578 397 2138 397 
Q 2388 397 2633 464 
Q 2878 531 3122 666 
L 3122 134 
Q 2881 22 2623 -34 
Q 2366 -91 2075 -91 
Q 1284 -91 818 406 
Q 353 903 353 1747 
Q 353 2603 823 3093 
Q 1294 3584 2113 3584 
Q 2378 3584 2631 3529 
Q 2884 3475 3122 3366 
z
" transform="scale(0.015625)"/>
       <path id="DejaVuSans-74" d="M 1172 4494 
L 1172 3500 
L 2356 3500 
L 2356 3053 
L 1172 3053 
L 1172 1153 
Q 1172 725 1289 603 
Q 1406 481 1766 481 
L 2356 481 
L 2356 0 
L 1766 0 
Q 1100 0 847 248 
Q 594 497 594 1153 
L 594 3053 
L 172 3053 
L 172 3500 
L 594 3500 
L 594 4494 
L 1172 4494 
z
" transform="scale(0.015625)"/>
       <path id="DejaVuSans-64" d="M 2906 2969 
L 2906 4863 
L 3481 4863 
L 3481 0 
L 2906 0 
L 2906 525 
Q 2725 213 2448 61 
Q 2172 -91 1784 -91 
Q 1150 -91 751 415 
Q 353 922 353 1747 
Q 353 2572 751 3078 
Q 1150 3584 1784 3584 
Q 2172 3584 2448 3432 
Q 2725 3281 2906 2969 
z
M 947 1747 
Q 947 1113 1208 752 
Q 1469 391 1925 391 
Q 2381 391 2643 752 
Q 2906 1113 2906 1747 
Q 2906 2381 2643 2742 
Q 2381 3103 1925 3103 
Q 1469 3103 1208 2742 
Q 947 2381 947 1747 
z
" transform="scale(0.015625)"/>
       <path id="DejaVuSans-73" d="M 2834 3397 
L 2834 2853 
Q 2591 2978 2328 3040 
Q 2066 3103 1784 3103 
Q 1356 3103 1142 2972 
Q 928 2841 928 2578 
Q 928 2378 1081 2264 
Q 1234 2150 1697 2047 
L 1894 2003 
Q 2506 1872 2764 1633 
Q 3022 1394 3022 966 
Q 3022 478 2636 193 
Q 2250 -91 1575 -91 
Q 1294 -91 989 -36 
Q 684 19 347 128 
L 347 722 
Q 666 556 975 473 
Q 1284 391 1588 391 
Q 1994 391 2212 530 
Q 2431 669 2431 922 
Q 2431 1156 2273 1281 
Q 2116 1406 1581 1522 
L 1381 1569 
Q 847 1681 609 1914 
Q 372 2147 372 2553 
Q 372 3047 722 3315 
Q 1072 3584 1716 3584 
Q 2034 3584 2315 3537 
Q 2597 3491 2834 3397 
z
" transform="scale(0.015625)"/>
       <path id="DejaVuSans-69" d="M 603 3500 
L 1178 3500 
L 1178 0 
L 603 0 
L 603 3500 
z
M 603 4863 
L 1178 4863 
L 1178 4134 
L 603 4134 
L 603 4863 
z
" transform="scale(0.015625)"/>
       <path id="DejaVuSans-6d" d="M 3328 2828 
Q 3544 3216 3844 3400 
Q 4144 3584 4550 3584 
Q 5097 3584 5394 3201 
Q 5691 2819 5691 2113 
L 5691 0 
L 5113 0 
L 5113 2094 
Q 5113 2597 4934 2840 
Q 4756 3084 4391 3084 
Q 3944 3084 3684 2787 
Q 3425 2491 3425 1978 
L 3425 0 
L 2847 0 
L 2847 2094 
Q 2847 2600 2669 2842 
Q 2491 3084 2119 3084 
Q 1678 3084 1418 2786 
Q 1159 2488 1159 1978 
L 1159 0 
L 581 0 
L 581 3500 
L 1159 3500 
L 1159 2956 
Q 1356 3278 1631 3431 
Q 1906 3584 2284 3584 
Q 2666 3584 2933 3390 
Q 3200 3197 3328 2828 
z
" transform="scale(0.015625)"/>
       <path id="DejaVuSans-75" d="M 544 1381 
L 544 3500 
L 1119 3500 
L 1119 1403 
Q 1119 906 1312 657 
Q 1506 409 1894 409 
Q 2359 409 2629 706 
Q 2900 1003 2900 1516 
L 2900 3500 
L 3475 3500 
L 3475 0 
L 2900 0 
L 2900 538 
Q 2691 219 2414 64 
Q 2138 -91 1772 -91 
Q 1169 -91 856 284 
Q 544 659 544 1381 
z
M 1991 3584 
L 1991 3584 
z
" transform="scale(0.015625)"/>
      </defs>
      <use xlink:href="#DejaVuSans-53"/>
      <use xlink:href="#DejaVuSans-65" x="63.476562"/>
      <use xlink:href="#DejaVuSans-6c" x="125"/>
      <use xlink:href="#DejaVuSans-65" x="152.783203"/>
      <use xlink:href="#DejaVuSans-63" x="214.306641"/>
      <use xlink:href="#DejaVuSans-74" x="269.287109"/>
      <use xlink:href="#DejaVuSans-65" x="308.496094"/>
      <use xlink:href="#DejaVuSans-64" x="370.019531"/>
      <use xlink:href="#DejaVuSans-20" x="433.496094"/>
      <use xlink:href="#DejaVuSans-73" x="465.283203"/>
      <use xlink:href="#DejaVuSans-74" x="517.382812"/>
      <use xlink:href="#DejaVuSans-69" x="556.591797"/>
      <use xlink:href="#DejaVuSans-6d" x="584.375"/>
      <use xlink:href="#DejaVuSans-75" x="681.787109"/>
      <use xlink:href="#DejaVuSans-6c" x="745.166016"/>
      <use xlink:href="#DejaVuSans-75" x="772.949219"/>
      <use xlink:href="#DejaVuSans-73" x="836.328125"/>
      <use xlink:href="#DejaVuSans-20" x="888.427734"/>
      <use xlink:href="#DejaVuSans-31" x="920.214844"/>
     </g>
    </g>
    <g id="Path3DCollection_4">
     <path d="M 365.070937 126.170038 
L 370.548163 115.215587 
L 359.593712 115.215587 
z
" style="fill: #ff0000; stroke: #ff0000"/>
    </g>
    <g id="text_20">
     <!-- Selected stimulus 2 -->
     <g transform="translate(397.470937 125.417813) scale(0.18 -0.18)">
      <use xlink:href="#DejaVuSans-53"/>
      <use xlink:href="#DejaVuSans-65" x="63.476562"/>
      <use xlink:href="#DejaVuSans-6c" x="125"/>
      <use xlink:href="#DejaVuSans-65" x="152.783203"/>
      <use xlink:href="#DejaVuSans-63" x="214.306641"/>
      <use xlink:href="#DejaVuSans-74" x="269.287109"/>
      <use xlink:href="#DejaVuSans-65" x="308.496094"/>
      <use xlink:href="#DejaVuSans-64" x="370.019531"/>
      <use xlink:href="#DejaVuSans-20" x="433.496094"/>
      <use xlink:href="#DejaVuSans-73" x="465.283203"/>
      <use xlink:href="#DejaVuSans-74" x="517.382812"/>
      <use xlink:href="#DejaVuSans-69" x="556.591797"/>
      <use xlink:href="#DejaVuSans-6d" x="584.375"/>
      <use xlink:href="#DejaVuSans-75" x="681.787109"/>
      <use xlink:href="#DejaVuSans-6c" x="745.166016"/>
      <use xlink:href="#DejaVuSans-75" x="772.949219"/>
      <use xlink:href="#DejaVuSans-73" x="836.328125"/>
      <use xlink:href="#DejaVuSans-20" x="888.427734"/>
      <use xlink:href="#DejaVuSans-32" x="920.214844"/>
     </g>
    </g>
   </g>
   <g id="Poly3DCollection_2">
    <path d="M 471.33443 308.86885 
L 465.793274 318.565499 
L 472.042273 309.197518 
L 477.567229 299.519731 
z
" clip-path="url(#p2ee0a4b6d2)" style="fill: #808080; fill-opacity: 0.3"/>
    <path d="M 477.567229 299.519731 
L 472.042273 309.197518 
L 478.340538 299.755682 
L 483.848868 290.097353 
z
" clip-path="url(#p2ee0a4b6d2)" style="fill: #808080; fill-opacity: 0.3"/>
    <path d="M 465.793274 318.565499 
L 460.184482 328.380506 
L 466.449612 318.9939 
L 472.042273 309.197518 
z
" clip-path="url(#p2ee0a4b6d2)" style="fill: #808080; fill-opacity: 0.3"/>
    <path d="M 483.848868 290.097353 
L 478.340538 299.755682 
L 484.688655 290.239114 
L 490.179924 280.600851 
z
" clip-path="url(#p2ee0a4b6d2)" style="fill: #808080; fill-opacity: 0.3"/>
    <path d="M 472.042273 309.197518 
L 466.449612 318.9939 
L 472.764439 309.532837 
L 478.340538 299.755682 
z
" clip-path="url(#p2ee0a4b6d2)" style="fill: #808080; fill-opacity: 0.3"/>
    <path d="M 490.179924 280.600851 
L 484.688655 290.239114 
L 491.087216 280.646922 
L 496.560981 271.029348 
z
" clip-path="url(#p2ee0a4b6d2)" style="fill: #808080; fill-opacity: 0.3"/>
    <path d="M 460.184482 328.380506 
L 454.506808 338.316051 
L 460.787994 328.91107 
L 466.449612 318.9939 
z
" clip-path="url(#p2ee0a4b6d2)" style="fill: #808080; fill-opacity: 0.3"/>
    <path d="M 478.340538 299.755682 
L 472.764439 309.532837 
L 479.129558 299.996427 
L 484.688655 290.239114 
z
" clip-path="url(#p2ee0a4b6d2)" style="fill: #808080; fill-opacity: 0.3"/>
    <path d="M 496.560981 271.029348 
L 491.087216 280.646922 
L 497.536827 270.978201 
L 502.992634 261.381951 
z
" clip-path="url(#p2ee0a4b6d2)" style="fill: #808080; fill-opacity: 0.3"/>
    <path d="M 466.449612 318.9939 
L 460.787994 328.91107 
L 467.119314 319.431024 
L 472.764439 309.532837 
z
" clip-path="url(#p2ee0a4b6d2)" style="fill: #808080; fill-opacity: 0.3"/>
    <path d="M 484.688655 290.239114 
L 479.129558 299.996427 
L 485.54557 290.383765 
L 491.087216 280.646922 
z
" clip-path="url(#p2ee0a4b6d2)" style="fill: #808080; fill-opacity: 0.3"/>
    <path d="M 454.506808 338.316051 
L 448.758975 348.374369 
L 455.056136 338.951276 
L 460.787994 328.91107 
z
" clip-path="url(#p2ee0a4b6d2)" style="fill: #808080; fill-opacity: 0.3"/>
    <path d="M 502.992634 261.381951 
L 497.536827 270.978201 
L 504.0381 261.232033 
L 509.475488 251.657754 
z
" clip-path="url(#p2ee0a4b6d2)" style="fill: #808080; fill-opacity: 0.3"/>
    <path d="M 472.764439 309.532837 
L 467.119314 319.431024 
L 473.501369 309.87501 
L 479.129558 299.996427 
z
" clip-path="url(#p2ee0a4b6d2)" style="fill: #808080; fill-opacity: 0.3"/>
    <path d="M 491.087216 280.646922 
L 485.54557 290.383765 
L 492.013089 280.693935 
L 497.536827 270.978201 
z
" clip-path="url(#p2ee0a4b6d2)" style="fill: #808080; fill-opacity: 0.3"/>
    <path d="M 460.787994 328.91107 
L 455.056136 338.951276 
L 461.403871 329.452504 
L 467.119314 319.431024 
z
" clip-path="url(#p2ee0a4b6d2)" style="fill: #808080; fill-opacity: 0.3"/>
    <path d="M 509.475488 251.657754 
L 504.0381 261.232033 
L 510.591658 251.407483 
L 516.010155 241.855836 
z
" clip-path="url(#p2ee0a4b6d2)" style="fill: #808080; fill-opacity: 0.3"/>
    <path d="M 479.129558 299.996427 
L 473.501369 309.87501 
L 479.934771 300.242112 
L 485.54557 290.383765 
z
" clip-path="url(#p2ee0a4b6d2)" style="fill: #808080; fill-opacity: 0.3"/>
    <path d="M 448.758975 348.374369 
L 442.939675 358.55775 
L 449.252723 349.116822 
L 455.056136 338.951276 
z
" clip-path="url(#p2ee0a4b6d2)" style="fill: #808080; fill-opacity: 0.3"/>
    <path d="M 497.536827 270.978201 
L 492.013089 280.693935 
L 498.532738 270.926003 
L 504.0381 261.232033 
z
" clip-path="url(#p2ee0a4b6d2)" style="fill: #808080; fill-opacity: 0.3"/>
    <path d="M 467.119314 319.431024 
L 461.403871 329.452504 
L 467.802791 319.877139 
L 473.501369 309.87501 
z
" clip-path="url(#p2ee0a4b6d2)" style="fill: #808080; fill-opacity: 0.3"/>
    <path d="M 516.010155 241.855836 
L 510.591658 251.407483 
L 517.198135 241.503601 
L 522.597261 231.975262 
z
" clip-path="url(#p2ee0a4b6d2)" style="fill: #808080; fill-opacity: 0.3"/>
    <path d="M 485.54557 290.383765 
L 479.934771 300.242112 
L 486.420144 290.531398 
L 492.013089 280.693935 
z
" clip-path="url(#p2ee0a4b6d2)" style="fill: #808080; fill-opacity: 0.3"/>
    <path d="M 455.056136 338.951276 
L 449.252723 349.116822 
L 455.61679 339.599596 
L 461.403871 329.452504 
z
" clip-path="url(#p2ee0a4b6d2)" style="fill: #808080; fill-opacity: 0.3"/>
    <path d="M 504.0381 261.232033 
L 498.532738 270.926003 
L 505.105149 261.07902 
L 510.591658 251.407483 
z
" clip-path="url(#p2ee0a4b6d2)" style="fill: #808080; fill-opacity: 0.3"/>
    <path d="M 473.501369 309.87501 
L 467.802791 319.877139 
L 474.253518 310.22425 
L 479.934771 300.242112 
z
" clip-path="url(#p2ee0a4b6d2)" style="fill: #808080; fill-opacity: 0.3"/>
    <path d="M 442.939675 358.55775 
L 437.047567 368.868541 
L 443.376407 359.410069 
L 449.252723 349.116822 
z
" clip-path="url(#p2ee0a4b6d2)" style="fill: #808080; fill-opacity: 0.3"/>
    <path d="M 522.597261 231.975262 
L 517.198135 241.503601 
L 523.858175 231.519423 
L 529.237438 222.015082 
z
" clip-path="url(#p2ee0a4b6d2)" style="fill: #808080; fill-opacity: 0.3"/>
    <path d="M 492.013089 280.693935 
L 486.420144 290.531398 
L 492.958119 280.741922 
L 498.532738 270.926003 
z
" clip-path="url(#p2ee0a4b6d2)" style="fill: #808080; fill-opacity: 0.3"/>
    <path d="M 461.403871 329.452504 
L 455.61679 339.599596 
L 462.032497 330.005146 
L 467.802791 319.877139 
z
" clip-path="url(#p2ee0a4b6d2)" style="fill: #808080; fill-opacity: 0.3"/>
    <path d="M 510.591658 251.407483 
L 505.105149 261.07902 
L 511.730965 251.152024 
L 517.198135 241.503601 
z
" clip-path="url(#p2ee0a4b6d2)" style="fill: #808080; fill-opacity: 0.3"/>
    <path d="M 479.934771 300.242112 
L 474.253518 310.22425 
L 480.756683 300.492893 
L 486.420144 290.531398 
z
" clip-path="url(#p2ee0a4b6d2)" style="fill: #808080; fill-opacity: 0.3"/>
    <path d="M 449.252723 349.116822 
L 443.376407 359.410069 
L 449.756715 349.874677 
L 455.61679 339.599596 
z
" clip-path="url(#p2ee0a4b6d2)" style="fill: #808080; fill-opacity: 0.3"/>
    <path d="M 498.532738 270.926003 
L 492.958119 280.741922 
L 499.549339 270.87272 
L 505.105149 261.07902 
z
" clip-path="url(#p2ee0a4b6d2)" style="fill: #808080; fill-opacity: 0.3"/>
    <path d="M 467.802791 319.877139 
L 462.032497 330.005146 
L 468.500474 320.332527 
L 474.253518 310.22425 
z
" clip-path="url(#p2ee0a4b6d2)" style="fill: #808080; fill-opacity: 0.3"/>
    <path d="M 437.047567 368.868541 
L 431.081276 379.309147 
L 437.425804 369.833439 
L 443.376407 359.410069 
z
" clip-path="url(#p2ee0a4b6d2)" style="fill: #808080; fill-opacity: 0.3"/>
    <path d="M 517.198135 241.503601 
L 511.730965 251.152024 
L 518.410841 241.144035 
L 523.858175 231.519423 
z
" clip-path="url(#p2ee0a4b6d2)" style="fill: #808080; fill-opacity: 0.3"/>
    <path d="M 486.420144 290.531398 
L 480.756683 300.492893 
L 487.312928 290.682105 
L 492.958119 280.741922 
z
" clip-path="url(#p2ee0a4b6d2)" style="fill: #808080; fill-opacity: 0.3"/>
    <path d="M 455.61679 339.599596 
L 449.756715 349.874677 
L 456.189122 340.261422 
L 462.032497 330.005146 
z
" clip-path="url(#p2ee0a4b6d2)" style="fill: #808080; fill-opacity: 0.3"/>
    <path d="M 505.105149 261.07902 
L 499.549339 270.87272 
L 506.194456 260.922816 
L 511.730965 251.152024 
z
" clip-path="url(#p2ee0a4b6d2)" style="fill: #808080; fill-opacity: 0.3"/>
    <path d="M 474.253518 310.22425 
L 468.500474 320.332527 
L 475.021363 310.580779 
L 480.756683 300.492893 
z
" clip-path="url(#p2ee0a4b6d2)" style="fill: #808080; fill-opacity: 0.3"/>
    <path d="M 443.376407 359.410069 
L 437.425804 369.833439 
L 443.822256 360.280182 
L 449.756715 349.874677 
z
" clip-path="url(#p2ee0a4b6d2)" style="fill: #808080; fill-opacity: 0.3"/>
    <path d="M 492.958119 280.741922 
L 487.312928 290.682105 
L 493.922907 280.790911 
L 499.549339 270.87272 
z
" clip-path="url(#p2ee0a4b6d2)" style="fill: #808080; fill-opacity: 0.3"/>
    <path d="M 462.032497 330.005146 
L 456.189122 340.261422 
L 462.67427 330.569347 
L 468.500474 320.332527 
z
" clip-path="url(#p2ee0a4b6d2)" style="fill: #808080; fill-opacity: 0.3"/>
    <path d="M 431.081276 379.309147 
L 425.039391 389.882037 
L 431.399497 380.389416 
L 437.425804 369.833439 
z
" clip-path="url(#p2ee0a4b6d2)" style="fill: #808080; fill-opacity: 0.3"/>
    <path d="M 511.730965 251.152024 
L 506.194456 260.922816 
L 512.894136 250.891215 
L 518.410841 241.144035 
z
" clip-path="url(#p2ee0a4b6d2)" style="fill: #808080; fill-opacity: 0.3"/>
    <path d="M 480.756683 300.492893 
L 475.021363 310.580779 
L 481.595817 300.748928 
L 487.312928 290.682105 
z
" clip-path="url(#p2ee0a4b6d2)" style="fill: #808080; fill-opacity: 0.3"/>
    <path d="M 449.756715 349.874677 
L 443.822256 360.280182 
L 450.271272 350.648419 
L 456.189122 340.261422 
z
" clip-path="url(#p2ee0a4b6d2)" style="fill: #808080; fill-opacity: 0.3"/>
    <path d="M 499.549339 270.87272 
L 493.922907 280.790911 
L 500.587281 270.818319 
L 506.194456 260.922816 
z
" clip-path="url(#p2ee0a4b6d2)" style="fill: #808080; fill-opacity: 0.3"/>
    <path d="M 468.500474 320.332527 
L 462.67427 330.569347 
L 469.212809 320.797478 
L 475.021363 310.580779 
z
" clip-path="url(#p2ee0a4b6d2)" style="fill: #808080; fill-opacity: 0.3"/>
    <path d="M 437.425804 369.833439 
L 431.399497 380.389416 
L 437.811987 370.818611 
L 443.822256 360.280182 
z
" clip-path="url(#p2ee0a4b6d2)" style="fill: #808080; fill-opacity: 0.3"/>
    <path d="M 487.312928 290.682105 
L 481.595817 300.748928 
L 488.224497 290.835983 
L 493.922907 280.790911 
z
" clip-path="url(#p2ee0a4b6d2)" style="fill: #808080; fill-opacity: 0.3"/>
    <path d="M 456.189122 340.261422 
L 450.271272 350.648419 
L 456.773502 340.937178 
L 462.67427 330.569347 
z
" clip-path="url(#p2ee0a4b6d2)" style="fill: #808080; fill-opacity: 0.3"/>
    <path d="M 425.039391 389.882037 
L 418.920468 400.589739 
L 425.296033 391.080546 
L 431.399497 380.389416 
z
" clip-path="url(#p2ee0a4b6d2)" style="fill: #808080; fill-opacity: 0.3"/>
    <path d="M 506.194456 260.922816 
L 500.587281 270.818319 
L 507.306726 260.763318 
L 512.894136 250.891215 
z
" clip-path="url(#p2ee0a4b6d2)" style="fill: #808080; fill-opacity: 0.3"/>
    <path d="M 475.021363 310.580779 
L 469.212809 320.797478 
L 475.805401 310.944826 
L 481.595817 300.748928 
z
" clip-path="url(#p2ee0a4b6d2)" style="fill: #808080; fill-opacity: 0.3"/>
    <path d="M 443.822256 360.280182 
L 437.811987 370.818611 
L 444.277511 361.168652 
L 450.271272 350.648419 
z
" clip-path="url(#p2ee0a4b6d2)" style="fill: #808080; fill-opacity: 0.3"/>
    <path d="M 493.922907 280.790911 
L 488.224497 290.835983 
L 494.908078 280.840936 
L 500.587281 270.818319 
z
" clip-path="url(#p2ee0a4b6d2)" style="fill: #808080; fill-opacity: 0.3"/>
    <path d="M 462.67427 330.569347 
L 456.773502 340.937178 
L 463.329609 331.145473 
L 469.212809 320.797478 
z
" clip-path="url(#p2ee0a4b6d2)" style="fill: #808080; fill-opacity: 0.3"/>
    <path d="M 431.399497 380.389416 
L 425.296033 391.080546 
L 431.724448 381.492528 
L 437.811987 370.818611 
z
" clip-path="url(#p2ee0a4b6d2)" style="fill: #808080; fill-opacity: 0.3"/>
    <path d="M 481.595817 300.748928 
L 475.805401 310.944826 
L 482.45272 301.010385 
L 488.224497 290.835983 
z
" clip-path="url(#p2ee0a4b6d2)" style="fill: #808080; fill-opacity: 0.3"/>
    <path d="M 450.271272 350.648419 
L 444.277511 361.168652 
L 450.796729 351.438553 
L 456.773502 340.937178 
z
" clip-path="url(#p2ee0a4b6d2)" style="fill: #808080; fill-opacity: 0.3"/>
    <path d="M 500.587281 270.818319 
L 494.908078 280.840936 
L 501.647245 270.762763 
L 507.306726 260.763318 
z
" clip-path="url(#p2ee0a4b6d2)" style="fill: #808080; fill-opacity: 0.3"/>
    <path d="M 469.212809 320.797478 
L 463.329609 331.145473 
L 469.940263 321.272298 
L 475.805401 310.944826 
z
" clip-path="url(#p2ee0a4b6d2)" style="fill: #808080; fill-opacity: 0.3"/>
    <path d="M 437.811987 370.818611 
L 431.724448 381.492528 
L 438.206371 371.824702 
L 444.277511 361.168652 
z
" clip-path="url(#p2ee0a4b6d2)" style="fill: #808080; fill-opacity: 0.3"/>
    <path d="M 488.224497 290.835983 
L 482.45272 301.010385 
L 489.15545 290.993133 
L 494.908078 280.840936 
z
" clip-path="url(#p2ee0a4b6d2)" style="fill: #808080; fill-opacity: 0.3"/>
    <path d="M 456.773502 340.937178 
L 450.796729 351.438553 
L 457.370314 341.62731 
L 463.329609 331.145473 
z
" clip-path="url(#p2ee0a4b6d2)" style="fill: #808080; fill-opacity: 0.3"/>
    <path d="M 475.805401 310.944826 
L 469.940263 321.272298 
L 476.60615 311.316632 
L 482.45272 301.010385 
z
" clip-path="url(#p2ee0a4b6d2)" style="fill: #808080; fill-opacity: 0.3"/>
    <path d="M 444.277511 361.168652 
L 438.206371 371.824702 
L 444.742474 362.076067 
L 450.796729 351.438553 
z
" clip-path="url(#p2ee0a4b6d2)" style="fill: #808080; fill-opacity: 0.3"/>
    <path d="M 494.908078 280.840936 
L 489.15545 290.993133 
L 495.914287 280.892029 
L 501.647245 270.762763 
z
" clip-path="url(#p2ee0a4b6d2)" style="fill: #808080; fill-opacity: 0.3"/>
    <path d="M 463.329609 331.145473 
L 457.370314 341.62731 
L 463.998947 331.733906 
L 469.940263 321.272298 
z
" clip-path="url(#p2ee0a4b6d2)" style="fill: #808080; fill-opacity: 0.3"/>
    <path d="M 482.45272 301.010385 
L 476.60615 311.316632 
L 483.327964 301.277438 
L 489.15545 290.993133 
z
" clip-path="url(#p2ee0a4b6d2)" style="fill: #808080; fill-opacity: 0.3"/>
    <path d="M 450.796729 351.438553 
L 444.742474 362.076067 
L 451.333438 352.245605 
L 457.370314 341.62731 
z
" clip-path="url(#p2ee0a4b6d2)" style="fill: #808080; fill-opacity: 0.3"/>
    <path d="M 469.940263 321.272298 
L 463.998947 331.733906 
L 470.683324 321.757303 
L 476.60615 311.316632 
z
" clip-path="url(#p2ee0a4b6d2)" style="fill: #808080; fill-opacity: 0.3"/>
    <path d="M 489.15545 290.993133 
L 483.327964 301.277438 
L 490.106412 291.15366 
L 495.914287 280.892029 
z
" clip-path="url(#p2ee0a4b6d2)" style="fill: #808080; fill-opacity: 0.3"/>
    <path d="M 457.370314 341.62731 
L 451.333438 352.245605 
L 457.979958 342.332282 
L 463.998947 331.733906 
z
" clip-path="url(#p2ee0a4b6d2)" style="fill: #808080; fill-opacity: 0.3"/>
    <path d="M 476.60615 311.316632 
L 470.683324 321.757303 
L 477.42415 311.696448 
L 483.327964 301.277438 
z
" clip-path="url(#p2ee0a4b6d2)" style="fill: #808080; fill-opacity: 0.3"/>
    <path d="M 463.998947 331.733906 
L 457.979958 342.332282 
L 464.682738 332.335046 
L 470.683324 321.757303 
z
" clip-path="url(#p2ee0a4b6d2)" style="fill: #808080; fill-opacity: 0.3"/>
    <path d="M 483.327964 301.277438 
L 477.42415 311.696448 
L 484.222144 301.550269 
L 490.106412 291.15366 
z
" clip-path="url(#p2ee0a4b6d2)" style="fill: #808080; fill-opacity: 0.3"/>
    <path d="M 470.683324 321.757303 
L 464.682738 332.335046 
L 471.442497 322.252827 
L 477.42415 311.696448 
z
" clip-path="url(#p2ee0a4b6d2)" style="fill: #808080; fill-opacity: 0.3"/>
    <path d="M 477.42415 311.696448 
L 471.442497 322.252827 
L 478.259963 312.084536 
L 484.222144 301.550269 
z
" clip-path="url(#p2ee0a4b6d2)" style="fill: #808080; fill-opacity: 0.3"/>
   </g>
  </g>
 </g>
 <defs>
  <clipPath id="p2ee0a4b6d2">
   <rect x="147.24" y="69.12" width="443.52" height="443.52"/>
  </clipPath>
 </defs>
</svg>
