<?xml version="1.0" encoding="utf-8" standalone="no"?>
<!DOCTYPE svg PUBLIC "-//W3C//DTD SVG 1.1//EN"
  "http://www.w3.org/Graphics/SVG/1.1/DTD/svg11.dtd">
<svg xmlns:xlink="http://www.w3.org/1999/xlink" width="720pt" height="576pt" viewBox="0 0 720 576" xmlns="http://www.w3.org/2000/svg" version="1.1">
 <metadata>
  <rdf:RDF xmlns:dc="http://purl.org/dc/elements/1.1/" xmlns:cc="http://creativecommons.org/ns#" xmlns:rdf="http://www.w3.org/1999/02/22-rdf-syntax-ns#">
   <cc:Work>
    <dc:type rdf:resource="http://purl.org/dc/dcmitype/StillImage"/>
    <dc:date>2025-10-15T14:30:53.040359</dc:date>
    <dc:format>image/svg+xml</dc:format>
    <dc:creator>
     <cc:Agent>
      <dc:title>Matplotlib v3.9.2, https://matplotlib.org/</dc:title>
     </cc:Agent>
    </dc:creator>
   </cc:Work>
  </rdf:RDF>
 </metadata>
 <defs>
  <style type="text/css">*{stroke-linejoin: round; stroke-linecap: butt}</style>
 </defs>
 <g id="figure_1">
  <g id="patch_1">
   <path d="M 0 576 
L 720 576 
L 720 0 
L 0 0 
L 0 576 
z
" style="fill: none"/>
  </g>
  <g id="patch_2">
   <path d="M 147.24 512.64 
L 590.76 512.64 
L 590.76 69.12 
L 147.24 69.12 
L 147.24 512.64 
z
" style="fill: none"/>
  </g>
  <g id="pane3d_1">
   <g id="patch_3">
    <path d="M 180.728819 403.282182 
L 327.193607 280.512492 
L 325.157607 103.456652 
L 171.683723 215.454902 
" style="fill: none; opacity: 0.5; stroke: #f2f2f2; stroke-linejoin: miter"/>
   </g>
  </g>
  <g id="pane3d_2">
   <g id="patch_4">
    <path d="M 327.193607 280.512492 
L 562.217334 348.82461 
L 570.604503 165.670285 
L 325.157607 103.456652 
" style="fill: none; opacity: 0.5; stroke: #e6e6e6; stroke-linejoin: miter"/>
   </g>
  </g>
  <g id="pane3d_3">
   <g id="patch_5">
    <path d="M 180.728819 403.282182 
L 429.865448 484.650204 
L 562.217334 348.82461 
L 327.193607 280.512492 
" style="fill: none; opacity: 0.5; stroke: #ececec; stroke-linejoin: miter"/>
   </g>
  </g>
  <g id="grid3d_1">
   <g id="Line3DCollection_1">
    <path d="M 190.793638 406.569352 
L 336.72859 283.283935 
L 335.095311 105.97557 
" style="fill: none; stroke: #b0b0b0; stroke-width: 0.8"/>
    <path d="M 237.261448 421.745738 
L 380.706066 296.06645 
L 380.952249 117.598967 
" style="fill: none; stroke: #b0b0b0; stroke-width: 0.8"/>
    <path d="M 284.675441 437.231148 
L 425.504333 309.087538 
L 427.702299 129.448742 
" style="fill: none; stroke: #b0b0b0; stroke-width: 0.8"/>
    <path d="M 333.064813 453.035117 
L 471.146586 322.353939 
L 475.37181 141.531573 
" style="fill: none; stroke: #b0b0b0; stroke-width: 0.8"/>
    <path d="M 382.459976 469.167577 
L 517.656905 335.872653 
L 523.988176 153.854405 
" style="fill: none; stroke: #b0b0b0; stroke-width: 0.8"/>
   </g>
  </g>
  <g id="grid3d_2">
   <g id="Line3DCollection_2">
    <path d="M 186.2129 204.85217 
L 194.546861 391.699625 
L 442.402043 471.784574 
" style="fill: none; stroke: #b0b0b0; stroke-width: 0.8"/>
    <path d="M 217.641782 181.916803 
L 224.47141 366.616274 
L 469.515641 443.959353 
" style="fill: none; stroke: #b0b0b0; stroke-width: 0.8"/>
    <path d="M 247.984291 159.774222 
L 253.405737 342.362948 
L 495.685517 417.102621 
" style="fill: none; stroke: #b0b0b0; stroke-width: 0.8"/>
    <path d="M 277.295796 138.384021 
L 281.398191 318.899117 
L 520.960101 391.164681 
" style="fill: none; stroke: #b0b0b0; stroke-width: 0.8"/>
    <path d="M 305.627968 117.708492 
L 308.494028 296.18685 
L 545.384562 366.099176 
" style="fill: none; stroke: #b0b0b0; stroke-width: 0.8"/>
   </g>
  </g>
  <g id="grid3d_3">
   <g id="Line3DCollection_3">
    <path d="M 562.358368 345.744796 
L 327.1593 277.529039 
L 180.576974 400.129021 
" style="fill: none; stroke: #b0b0b0; stroke-width: 0.8"/>
    <path d="M 563.92956 311.433979 
L 326.777263 244.306089 
L 178.884755 364.989003 
" style="fill: none; stroke: #b0b0b0; stroke-width: 0.8"/>
    <path d="M 565.527326 276.542853 
L 326.389074 210.548183 
L 177.162819 329.231891 
" style="fill: none; stroke: #b0b0b0; stroke-width: 0.8"/>
    <path d="M 567.152346 241.05657 
L 325.994583 176.242295 
L 175.410376 292.841285 
" style="fill: none; stroke: #b0b0b0; stroke-width: 0.8"/>
    <path d="M 568.805323 204.959771 
L 325.593637 141.374973 
L 173.626609 255.800198 
" style="fill: none; stroke: #b0b0b0; stroke-width: 0.8"/>
    <path d="M 570.486985 168.236564 
L 325.186075 105.932322 
L 171.810669 218.091035 
" style="fill: none; stroke: #b0b0b0; stroke-width: 0.8"/>
   </g>
  </g>
  <g id="axis3d_1">
   <g id="line2d_1">
    <path d="M 180.728819 403.282182 
L 429.865448 484.650204 
" style="fill: none; stroke: #000000; stroke-width: 0.8; stroke-linecap: square"/>
   </g>
   <g id="xtick_1">
    <g id="line2d_2">
     <path d="M 192.064319 405.495884 
L 188.24683 408.720888 
" style="fill: none; stroke: #000000; stroke-width: 0.8; stroke-linecap: square"/>
    </g>
    <g id="text_1">
     <!-- −100 -->
     <g transform="translate(166.792479 431.354098) scale(0.12 -0.12)">
      <defs>
       <path id="DejaVuSans-2212" d="M 678 2272 
L 4684 2272 
L 4684 1741 
L 678 1741 
L 678 2272 
z
" transform="scale(0.015625)"/>
       <path id="DejaVuSans-31" d="M 794 531 
L 1825 531 
L 1825 4091 
L 703 3866 
L 703 4441 
L 1819 4666 
L 2450 4666 
L 2450 531 
L 3481 531 
L 3481 0 
L 794 0 
L 794 531 
z
" transform="scale(0.015625)"/>
       <path id="DejaVuSans-30" d="M 2034 4250 
Q 1547 4250 1301 3770 
Q 1056 3291 1056 2328 
Q 1056 1369 1301 889 
Q 1547 409 2034 409 
Q 2525 409 2770 889 
Q 3016 1369 3016 2328 
Q 3016 3291 2770 3770 
Q 2525 4250 2034 4250 
z
M 2034 4750 
Q 2819 4750 3233 4129 
Q 3647 3509 3647 2328 
Q 3647 1150 3233 529 
Q 2819 -91 2034 -91 
Q 1250 -91 836 529 
Q 422 1150 422 2328 
Q 422 3509 836 4129 
Q 1250 4750 2034 4750 
z
" transform="scale(0.015625)"/>
      </defs>
      <use xlink:href="#DejaVuSans-2212"/>
      <use xlink:href="#DejaVuSans-31" x="83.789062"/>
      <use xlink:href="#DejaVuSans-30" x="147.412109"/>
      <use xlink:href="#DejaVuSans-30" x="211.035156"/>
     </g>
    </g>
   </g>
   <g id="xtick_2">
    <g id="line2d_3">
     <path d="M 238.511467 420.650532 
L 234.755998 423.940893 
" style="fill: none; stroke: #000000; stroke-width: 0.8; stroke-linecap: square"/>
    </g>
    <g id="text_2">
     <!-- −50 -->
     <g transform="translate(217.106237 446.722838) scale(0.12 -0.12)">
      <defs>
       <path id="DejaVuSans-35" d="M 691 4666 
L 3169 4666 
L 3169 4134 
L 1269 4134 
L 1269 2991 
Q 1406 3038 1543 3061 
Q 1681 3084 1819 3084 
Q 2600 3084 3056 2656 
Q 3513 2228 3513 1497 
Q 3513 744 3044 326 
Q 2575 -91 1722 -91 
Q 1428 -91 1123 -41 
Q 819 9 494 109 
L 494 744 
Q 775 591 1075 516 
Q 1375 441 1709 441 
Q 2250 441 2565 725 
Q 2881 1009 2881 1497 
Q 2881 1984 2565 2268 
Q 2250 2553 1709 2553 
Q 1456 2553 1204 2497 
Q 953 2441 691 2322 
L 691 4666 
z
" transform="scale(0.015625)"/>
      </defs>
      <use xlink:href="#DejaVuSans-2212"/>
      <use xlink:href="#DejaVuSans-35" x="83.789062"/>
      <use xlink:href="#DejaVuSans-30" x="147.412109"/>
     </g>
    </g>
   </g>
   <g id="xtick_3">
    <g id="line2d_4">
     <path d="M 285.903689 436.113536 
L 282.213573 439.471262 
" style="fill: none; stroke: #000000; stroke-width: 0.8; stroke-linecap: square"/>
    </g>
    <g id="text_3">
     <!-- 0 -->
     <g transform="translate(273.396719 462.405227) scale(0.12 -0.12)">
      <use xlink:href="#DejaVuSans-30"/>
     </g>
    </g>
   </g>
   <g id="xtick_4">
    <g id="line2d_5">
     <path d="M 334.270126 451.894404 
L 330.648861 455.321584 
" style="fill: none; stroke: #000000; stroke-width: 0.8; stroke-linecap: square"/>
    </g>
    <g id="text_4">
     <!-- 50 -->
     <g transform="translate(318.002649 478.410968) scale(0.12 -0.12)">
      <use xlink:href="#DejaVuSans-35"/>
      <use xlink:href="#DejaVuSans-30" x="63.623047"/>
     </g>
    </g>
   </g>
   <g id="xtick_5">
    <g id="line2d_6">
     <path d="M 383.641131 468.00304 
L 380.092393 471.501852 
" style="fill: none; stroke: #000000; stroke-width: 0.8; stroke-linecap: square"/>
    </g>
    <g id="text_5">
     <!-- 100 -->
     <g transform="translate(363.617408 494.750165) scale(0.12 -0.12)">
      <use xlink:href="#DejaVuSans-31"/>
      <use xlink:href="#DejaVuSans-30" x="63.623047"/>
      <use xlink:href="#DejaVuSans-30" x="127.246094"/>
     </g>
    </g>
   </g>
   <g id="text_6">
    <!-- PC 1 -->
    <g transform="translate(261.556778 491.505045) scale(0.18 -0.18)">
     <defs>
      <path id="DejaVuSans-50" d="M 1259 4147 
L 1259 2394 
L 2053 2394 
Q 2494 2394 2734 2622 
Q 2975 2850 2975 3272 
Q 2975 3691 2734 3919 
Q 2494 4147 2053 4147 
L 1259 4147 
z
M 628 4666 
L 2053 4666 
Q 2838 4666 3239 4311 
Q 3641 3956 3641 3272 
Q 3641 2581 3239 2228 
Q 2838 1875 2053 1875 
L 1259 1875 
L 1259 0 
L 628 0 
L 628 4666 
z
" transform="scale(0.015625)"/>
      <path id="DejaVuSans-43" d="M 4122 4306 
L 4122 3641 
Q 3803 3938 3442 4084 
Q 3081 4231 2675 4231 
Q 1875 4231 1450 3742 
Q 1025 3253 1025 2328 
Q 1025 1406 1450 917 
Q 1875 428 2675 428 
Q 3081 428 3442 575 
Q 3803 722 4122 1019 
L 4122 359 
Q 3791 134 3420 21 
Q 3050 -91 2638 -91 
Q 1578 -91 968 557 
Q 359 1206 359 2328 
Q 359 3453 968 4101 
Q 1578 4750 2638 4750 
Q 3056 4750 3426 4639 
Q 3797 4528 4122 4306 
z
" transform="scale(0.015625)"/>
      <path id="DejaVuSans-20" transform="scale(0.015625)"/>
     </defs>
     <use xlink:href="#DejaVuSans-50"/>
     <use xlink:href="#DejaVuSans-43" x="60.302734"/>
     <use xlink:href="#DejaVuSans-20" x="130.126953"/>
     <use xlink:href="#DejaVuSans-31" x="161.914062"/>
    </g>
   </g>
  </g>
  <g id="axis3d_2">
   <g id="line2d_7">
    <path d="M 562.217334 348.82461 
L 429.865448 484.650204 
" style="fill: none; stroke: #000000; stroke-width: 0.8; stroke-linecap: square"/>
   </g>
   <g id="xtick_6">
    <g id="line2d_8">
     <path d="M 440.313593 471.109771 
L 446.584333 473.135921 
" style="fill: none; stroke: #000000; stroke-width: 0.8; stroke-linecap: square"/>
    </g>
    <g id="text_7">
     <!-- −100 -->
     <g transform="translate(438.772121 494.291969) scale(0.12 -0.12)">
      <use xlink:href="#DejaVuSans-2212"/>
      <use xlink:href="#DejaVuSans-31" x="83.789062"/>
      <use xlink:href="#DejaVuSans-30" x="147.412109"/>
      <use xlink:href="#DejaVuSans-30" x="211.035156"/>
     </g>
    </g>
   </g>
   <g id="xtick_7">
    <g id="line2d_9">
     <path d="M 467.452725 443.308236 
L 473.646702 445.263236 
" style="fill: none; stroke: #000000; stroke-width: 0.8; stroke-linecap: square"/>
    </g>
    <g id="text_8">
     <!-- −50 -->
     <g transform="translate(469.485086 466.219727) scale(0.12 -0.12)">
      <use xlink:href="#DejaVuSans-2212"/>
      <use xlink:href="#DejaVuSans-35" x="83.789062"/>
      <use xlink:href="#DejaVuSans-30" x="147.412109"/>
     </g>
    </g>
   </g>
   <g id="xtick_8">
    <g id="line2d_10">
     <path d="M 493.647638 416.473966 
L 499.766352 418.361498 
" style="fill: none; stroke: #000000; stroke-width: 0.8; stroke-linecap: square"/>
    </g>
    <g id="text_9">
     <!-- 0 -->
     <g transform="translate(504.289411 439.124911) scale(0.12 -0.12)">
      <use xlink:href="#DejaVuSans-30"/>
     </g>
    </g>
   </g>
   <g id="xtick_9">
    <g id="line2d_11">
     <path d="M 518.946767 390.557344 
L 524.991698 392.380841 
" style="fill: none; stroke: #000000; stroke-width: 0.8; stroke-linecap: square"/>
    </g>
    <g id="text_10">
     <!-- 50 -->
     <g transform="translate(525.542542 412.957346) scale(0.12 -0.12)">
      <use xlink:href="#DejaVuSans-35"/>
      <use xlink:href="#DejaVuSans-30" x="63.623047"/>
     </g>
    </g>
   </g>
   <g id="xtick_10">
    <g id="line2d_12">
     <path d="M 543.395288 365.512091 
L 549.367897 367.274758 
" style="fill: none; stroke: #000000; stroke-width: 0.8; stroke-linecap: square"/>
    </g>
    <g id="text_11">
     <!-- 100 -->
     <g transform="translate(545.952129 387.670233) scale(0.12 -0.12)">
      <use xlink:href="#DejaVuSans-31"/>
      <use xlink:href="#DejaVuSans-30" x="63.623047"/>
      <use xlink:href="#DejaVuSans-30" x="127.246094"/>
     </g>
    </g>
   </g>
   <g id="text_12">
    <!-- PC 2 -->
    <g transform="translate(512.139238 453.386049) scale(0.18 -0.18)">
     <defs>
      <path id="DejaVuSans-32" d="M 1228 531 
L 3431 531 
L 3431 0 
L 469 0 
L 469 531 
Q 828 903 1448 1529 
Q 2069 2156 2228 2338 
Q 2531 2678 2651 2914 
Q 2772 3150 2772 3378 
Q 2772 3750 2511 3984 
Q 2250 4219 1831 4219 
Q 1534 4219 1204 4116 
Q 875 4013 500 3803 
L 500 4441 
Q 881 4594 1212 4672 
Q 1544 4750 1819 4750 
Q 2544 4750 2975 4387 
Q 3406 4025 3406 3419 
Q 3406 3131 3298 2873 
Q 3191 2616 2906 2266 
Q 2828 2175 2409 1742 
Q 1991 1309 1228 531 
z
" transform="scale(0.015625)"/>
     </defs>
     <use xlink:href="#DejaVuSans-50"/>
     <use xlink:href="#DejaVuSans-43" x="60.302734"/>
     <use xlink:href="#DejaVuSans-20" x="130.126953"/>
     <use xlink:href="#DejaVuSans-32" x="161.914062"/>
    </g>
   </g>
  </g>
  <g id="axis3d_3">
   <g id="line2d_13">
    <path d="M 562.217334 348.82461 
L 570.604503 165.670285 
" style="fill: none; stroke: #000000; stroke-width: 0.8; stroke-linecap: square"/>
   </g>
   <g id="xtick_11">
    <g id="line2d_14">
     <path d="M 560.38433 345.172257 
L 566.311142 346.891235 
" style="fill: none; stroke: #000000; stroke-width: 0.8; stroke-linecap: square"/>
    </g>
    <g id="text_13">
     <!-- −100 -->
     <g transform="translate(564.16209 352.258385) scale(0.12 -0.12)">
      <use xlink:href="#DejaVuSans-2212"/>
      <use xlink:href="#DejaVuSans-31" x="83.789062"/>
      <use xlink:href="#DejaVuSans-30" x="147.412109"/>
      <use xlink:href="#DejaVuSans-30" x="211.035156"/>
     </g>
    </g>
   </g>
   <g id="xtick_12">
    <g id="line2d_15">
     <path d="M 561.938347 310.87035 
L 567.916764 312.562589 
" style="fill: none; stroke: #000000; stroke-width: 0.8; stroke-linecap: square"/>
    </g>
    <g id="text_14">
     <!-- −50 -->
     <g transform="translate(569.700973 317.988128) scale(0.12 -0.12)">
      <use xlink:href="#DejaVuSans-2212"/>
      <use xlink:href="#DejaVuSans-35" x="83.789062"/>
      <use xlink:href="#DejaVuSans-30" x="147.412109"/>
     </g>
    </g>
   </g>
   <g id="xtick_13">
    <g id="line2d_16">
     <path d="M 563.518637 275.988518 
L 569.549565 277.652865 
" style="fill: none; stroke: #000000; stroke-width: 0.8; stroke-linecap: square"/>
    </g>
    <g id="text_15">
     <!-- 0 -->
     <g transform="translate(580.296729 283.13931) scale(0.12 -0.12)">
      <use xlink:href="#DejaVuSans-30"/>
     </g>
    </g>
   </g>
   <g id="xtick_14">
    <g id="line2d_17">
     <path d="M 565.125872 240.511929 
L 571.21024 242.147181 
" style="fill: none; stroke: #000000; stroke-width: 0.8; stroke-linecap: square"/>
    </g>
    <g id="text_16">
     <!-- 50 -->
     <g transform="translate(578.259476 247.697156) scale(0.12 -0.12)">
      <use xlink:href="#DejaVuSans-35"/>
      <use xlink:href="#DejaVuSans-30" x="63.623047"/>
     </g>
    </g>
   </g>
   <g id="xtick_15">
    <g id="line2d_18">
     <path d="M 566.760747 204.425241 
L 572.899509 206.030147 
" style="fill: none; stroke: #000000; stroke-width: 0.8; stroke-linecap: square"/>
    </g>
    <g id="text_17">
     <!-- 100 -->
     <g transform="translate(576.252793 211.646382) scale(0.12 -0.12)">
      <use xlink:href="#DejaVuSans-31"/>
      <use xlink:href="#DejaVuSans-30" x="63.623047"/>
      <use xlink:href="#DejaVuSans-30" x="127.246094"/>
     </g>
    </g>
   </g>
   <g id="xtick_16">
    <g id="line2d_19">
     <path d="M 568.423981 167.712579 
L 574.618117 169.285834 
" style="fill: none; stroke: #000000; stroke-width: 0.8; stroke-linecap: square"/>
    </g>
    <g id="text_18">
     <!-- 150 -->
     <g transform="translate(578.094975 174.971174) scale(0.12 -0.12)">
      <use xlink:href="#DejaVuSans-31"/>
      <use xlink:href="#DejaVuSans-35" x="63.623047"/>
      <use xlink:href="#DejaVuSans-30" x="127.246094"/>
     </g>
    </g>
   </g>
   <g id="text_19">
    <!-- PC 3 -->
    <g transform="translate(596.17243 257.501614) scale(0.18 -0.18)">
     <defs>
      <path id="DejaVuSans-33" d="M 2597 2516 
Q 3050 2419 3304 2112 
Q 3559 1806 3559 1356 
Q 3559 666 3084 287 
Q 2609 -91 1734 -91 
Q 1441 -91 1130 -33 
Q 819 25 488 141 
L 488 750 
Q 750 597 1062 519 
Q 1375 441 1716 441 
Q 2309 441 2620 675 
Q 2931 909 2931 1356 
Q 2931 1769 2642 2001 
Q 2353 2234 1838 2234 
L 1294 2234 
L 1294 2753 
L 1863 2753 
Q 2328 2753 2575 2939 
Q 2822 3125 2822 3475 
Q 2822 3834 2567 4026 
Q 2313 4219 1838 4219 
Q 1578 4219 1281 4162 
Q 984 4106 628 3988 
L 628 4550 
Q 988 4650 1302 4700 
Q 1616 4750 1894 4750 
Q 2613 4750 3031 4423 
Q 3450 4097 3450 3541 
Q 3450 3153 3228 2886 
Q 3006 2619 2597 2516 
z
" transform="scale(0.015625)"/>
     </defs>
     <use xlink:href="#DejaVuSans-50"/>
     <use xlink:href="#DejaVuSans-43" x="60.302734"/>
     <use xlink:href="#DejaVuSans-20" x="130.126953"/>
     <use xlink:href="#DejaVuSans-33" x="161.914062"/>
    </g>
   </g>
  </g>
  <g id="axes_1">
   <g id="line2d_20">
    <path d="M 411.743136 392.658361 
L 458.9841 383.252111 
L 482.974634 356.852925 
L 466.229323 326.236671 
L 444.894175 298.298323 
L 411.65135 273.977299 
L 364.579647 255.47872 
L 309.53349 246.74487 
L 268.947739 267.243972 
L 243.731226 294.985763 
L 231.64577 325.206163 
L 244.571835 352.896591 
L 269.607225 365.938586 
L 293.543614 373.138859 
L 326.143873 381.206154 
L 368.966239 387.993149 
L 411.743136 392.658361 
" clip-path="url(#p5e67d8079f)" style="fill: none; stroke: #808080; stroke-opacity: 0.7; stroke-width: 1.5; stroke-linecap: square"/>
   </g>
   <g id="line2d_21">
    <path d="M 400.49097 360.348661 
L 456.808214 369.546834 
L 530.320425 340.588286 
L 512.792307 272.555212 
L 455.79343 230.415104 
L 395.910987 215.764633 
L 350.496383 202.856177 
L 306.99535 208.483385 
L 273.0397 213.226007 
L 244.216101 230.618376 
L 224.417525 255.101884 
L 221.359978 281.359828 
L 255.62695 299.028138 
L 290.314918 316.64143 
L 324.002451 331.765702 
L 358.765317 345.982791 
L 400.49097 360.348661 
" clip-path="url(#p5e67d8079f)" style="fill: none; stroke: #808080; stroke-opacity: 0.7; stroke-width: 1.5; stroke-linecap: square"/>
   </g>
   <g id="Poly3DCollection_1">
    <path d="M 322.837128 273.822423 
L 337.006155 277.467451 
L 328.508151 285.635201 
L 314.295843 281.946476 
z
" clip-path="url(#p5e67d8079f)" style="fill: #808080; fill-opacity: 0.3"/>
    <path d="M 337.006155 277.467451 
L 351.264427 281.135437 
L 342.81042 289.347275 
L 328.508151 285.635201 
z
" clip-path="url(#p5e67d8079f)" style="fill: #808080; fill-opacity: 0.3"/>
    <path d="M 314.295843 281.946476 
L 328.508151 285.635201 
L 319.925487 293.88432 
L 305.669736 290.151207 
z
" clip-path="url(#p5e67d8079f)" style="fill: #808080; fill-opacity: 0.3"/>
    <path d="M 351.264427 281.135437 
L 365.612788 284.826599 
L 357.203509 293.08292 
L 342.81042 289.347275 
z
" clip-path="url(#p5e67d8079f)" style="fill: #808080; fill-opacity: 0.3"/>
    <path d="M 328.508151 285.635201 
L 342.81042 289.347275 
L 334.271925 297.641181 
L 319.925487 293.88432 
z
" clip-path="url(#p5e67d8079f)" style="fill: #808080; fill-opacity: 0.3"/>
    <path d="M 365.612788 284.826599 
L 380.052096 288.541157 
L 371.688283 296.842362 
L 357.203509 293.08292 
z
" clip-path="url(#p5e67d8079f)" style="fill: #808080; fill-opacity: 0.3"/>
    <path d="M 305.669736 290.151207 
L 319.925487 293.88432 
L 311.256892 302.21603 
L 296.957538 298.437823 
z
" clip-path="url(#p5e67d8079f)" style="fill: #808080; fill-opacity: 0.3"/>
    <path d="M 342.81042 289.347275 
L 357.203509 293.08292 
L 348.709919 301.422018 
L 334.271925 297.641181 
z
" clip-path="url(#p5e67d8079f)" style="fill: #808080; fill-opacity: 0.3"/>
    <path d="M 380.052096 288.541157 
L 394.583218 292.279334 
L 386.265624 300.625829 
L 371.688283 296.842362 
z
" clip-path="url(#p5e67d8079f)" style="fill: #808080; fill-opacity: 0.3"/>
    <path d="M 319.925487 293.88432 
L 334.271925 297.641181 
L 325.647668 306.018392 
L 311.256892 302.21603 
z
" clip-path="url(#p5e67d8079f)" style="fill: #808080; fill-opacity: 0.3"/>
    <path d="M 357.203509 293.08292 
L 371.688283 296.842362 
L 363.240348 305.22706 
L 348.709919 301.422018 
z
" clip-path="url(#p5e67d8079f)" style="fill: #808080; fill-opacity: 0.3"/>
    <path d="M 296.957538 298.437823 
L 311.256892 302.21603 
L 302.501071 310.631577 
L 288.157954 306.807557 
z
" clip-path="url(#p5e67d8079f)" style="fill: #808080; fill-opacity: 0.3"/>
    <path d="M 394.583218 292.279334 
L 409.207032 296.041357 
L 400.936419 304.433552 
L 386.265624 300.625829 
z
" clip-path="url(#p5e67d8079f)" style="fill: #808080; fill-opacity: 0.3"/>
    <path d="M 334.271925 297.641181 
L 348.709919 301.422018 
L 340.130746 309.845143 
L 325.647668 306.018392 
z
" clip-path="url(#p5e67d8079f)" style="fill: #808080; fill-opacity: 0.3"/>
    <path d="M 371.688283 296.842362 
L 386.265624 300.625829 
L 377.864103 309.056541 
L 363.240348 305.22706 
z
" clip-path="url(#p5e67d8079f)" style="fill: #808080; fill-opacity: 0.3"/>
    <path d="M 311.256892 302.21603 
L 325.647668 306.018392 
L 316.936351 314.48017 
L 302.501071 310.631577 
z
" clip-path="url(#p5e67d8079f)" style="fill: #808080; fill-opacity: 0.3"/>
    <path d="M 409.207032 296.041357 
L 423.924428 299.827455 
L 415.701572 308.265764 
L 400.936419 304.433552 
z
" clip-path="url(#p5e67d8079f)" style="fill: #808080; fill-opacity: 0.3"/>
    <path d="M 348.709919 301.422018 
L 363.240348 305.22706 
L 354.707015 313.696517 
L 340.130746 309.845143 
z
" clip-path="url(#p5e67d8079f)" style="fill: #808080; fill-opacity: 0.3"/>
    <path d="M 288.157954 306.807557 
L 302.501071 310.631577 
L 293.656698 319.132234 
L 279.269662 315.261665 
z
" clip-path="url(#p5e67d8079f)" style="fill: #808080; fill-opacity: 0.3"/>
    <path d="M 386.265624 300.625829 
L 400.936419 304.433552 
L 392.582085 312.910698 
L 377.864103 309.056541 
z
" clip-path="url(#p5e67d8079f)" style="fill: #808080; fill-opacity: 0.3"/>
    <path d="M 325.647668 306.018392 
L 340.130746 309.845143 
L 331.464688 318.353572 
L 316.936351 314.48017 
z
" clip-path="url(#p5e67d8079f)" style="fill: #808080; fill-opacity: 0.3"/>
    <path d="M 423.924428 299.827455 
L 438.736308 303.637858 
L 430.561995 312.122704 
L 415.701572 308.265764 
z
" clip-path="url(#p5e67d8079f)" style="fill: #808080; fill-opacity: 0.3"/>
    <path d="M 363.240348 305.22706 
L 377.864103 309.056541 
L 369.37738 317.572753 
L 354.707015 313.696517 
z
" clip-path="url(#p5e67d8079f)" style="fill: #808080; fill-opacity: 0.3"/>
    <path d="M 302.501071 310.631577 
L 316.936351 314.48017 
L 308.136649 323.0278 
L 293.656698 319.132234 
z
" clip-path="url(#p5e67d8079f)" style="fill: #808080; fill-opacity: 0.3"/>
    <path d="M 400.936419 304.433552 
L 415.701572 308.265764 
L 407.395209 316.789769 
L 392.582085 312.910698 
z
" clip-path="url(#p5e67d8079f)" style="fill: #808080; fill-opacity: 0.3"/>
    <path d="M 340.130746 309.845143 
L 354.707015 313.696517 
L 346.086983 322.252024 
L 331.464688 318.353572 
z
" clip-path="url(#p5e67d8079f)" style="fill: #808080; fill-opacity: 0.3"/>
    <path d="M 279.269662 315.261665 
L 293.656698 319.132234 
L 284.722424 327.719298 
L 270.291314 323.801431 
z
" clip-path="url(#p5e67d8079f)" style="fill: #808080; fill-opacity: 0.3"/>
    <path d="M 438.736308 303.637858 
L 453.643583 307.472802 
L 445.518613 316.00461 
L 430.561995 312.122704 
z
" clip-path="url(#p5e67d8079f)" style="fill: #808080; fill-opacity: 0.3"/>
    <path d="M 377.864103 309.056541 
L 392.582085 312.910698 
L 384.142753 321.474092 
L 369.37738 317.572753 
z
" clip-path="url(#p5e67d8079f)" style="fill: #808080; fill-opacity: 0.3"/>
    <path d="M 316.936351 314.48017 
L 331.464688 318.353572 
L 322.710419 326.948607 
L 308.136649 323.0278 
z
" clip-path="url(#p5e67d8079f)" style="fill: #808080; fill-opacity: 0.3"/>
    <path d="M 415.701572 308.265764 
L 430.561995 312.122704 
L 422.304399 320.693996 
L 407.395209 316.789769 
z
" clip-path="url(#p5e67d8079f)" style="fill: #808080; fill-opacity: 0.3"/>
    <path d="M 354.707015 313.696517 
L 369.37738 317.572753 
L 360.804151 326.17577 
L 346.086983 322.252024 
z
" clip-path="url(#p5e67d8079f)" style="fill: #808080; fill-opacity: 0.3"/>
    <path d="M 293.656698 319.132234 
L 308.136649 323.0278 
L 299.24721 331.662598 
L 284.722424 327.719298 
z
" clip-path="url(#p5e67d8079f)" style="fill: #808080; fill-opacity: 0.3"/>
    <path d="M 392.582085 312.910698 
L 407.395209 316.789769 
L 399.004061 325.40078 
L 384.142753 321.474092 
z
" clip-path="url(#p5e67d8079f)" style="fill: #808080; fill-opacity: 0.3"/>
    <path d="M 331.464688 318.353572 
L 346.086983 322.252024 
L 337.378923 330.8949 
L 322.710419 326.948607 
z
" clip-path="url(#p5e67d8079f)" style="fill: #808080; fill-opacity: 0.3"/>
    <path d="M 270.291314 323.801431 
L 284.722424 327.719298 
L 275.696872 336.394094 
L 261.221535 332.428161 
z
" clip-path="url(#p5e67d8079f)" style="fill: #808080; fill-opacity: 0.3"/>
    <path d="M 430.561995 312.122704 
L 445.518613 316.00461 
L 437.310594 324.623626 
L 422.304399 320.693996 
z
" clip-path="url(#p5e67d8079f)" style="fill: #808080; fill-opacity: 0.3"/>
    <path d="M 369.37738 317.572753 
L 384.142753 321.474092 
L 375.617118 330.125058 
L 360.804151 326.17577 
z
" clip-path="url(#p5e67d8079f)" style="fill: #808080; fill-opacity: 0.3"/>
    <path d="M 308.136649 323.0278 
L 322.710419 326.948607 
L 313.866586 335.631577 
L 299.24721 331.662598 
z
" clip-path="url(#p5e67d8079f)" style="fill: #808080; fill-opacity: 0.3"/>
    <path d="M 407.395209 316.789769 
L 422.304399 320.693996 
L 413.962241 329.353063 
L 399.004061 325.40078 
z
" clip-path="url(#p5e67d8079f)" style="fill: #808080; fill-opacity: 0.3"/>
    <path d="M 346.086983 322.252024 
L 360.804151 326.17577 
L 352.143087 334.866928 
L 337.378923 330.8949 
z
" clip-path="url(#p5e67d8079f)" style="fill: #808080; fill-opacity: 0.3"/>
    <path d="M 284.722424 327.719298 
L 299.24721 331.662598 
L 290.266654 340.385902 
L 275.696872 336.394094 
z
" clip-path="url(#p5e67d8079f)" style="fill: #808080; fill-opacity: 0.3"/>
    <path d="M 384.142753 321.474092 
L 399.004061 325.40078 
L 390.526823 334.100136 
L 375.617118 330.125058 
z
" clip-path="url(#p5e67d8079f)" style="fill: #808080; fill-opacity: 0.3"/>
    <path d="M 322.710419 326.948607 
L 337.378923 330.8949 
L 328.58148 339.626489 
L 313.866586 335.631577 
z
" clip-path="url(#p5e67d8079f)" style="fill: #808080; fill-opacity: 0.3"/>
    <path d="M 261.221535 332.428161 
L 275.696872 336.394094 
L 266.578636 345.157972 
L 252.05892 341.143192 
z
" clip-path="url(#p5e67d8079f)" style="fill: #808080; fill-opacity: 0.3"/>
    <path d="M 422.304399 320.693996 
L 437.310594 324.623626 
L 429.018245 333.331193 
L 413.962241 329.353063 
z
" clip-path="url(#p5e67d8079f)" style="fill: #808080; fill-opacity: 0.3"/>
    <path d="M 360.804151 326.17577 
L 375.617118 330.125058 
L 367.00385 338.864945 
L 352.143087 334.866928 
z
" clip-path="url(#p5e67d8079f)" style="fill: #808080; fill-opacity: 0.3"/>
    <path d="M 299.24721 331.662598 
L 313.866586 335.631577 
L 304.931807 344.40384 
L 290.266654 340.385902 
z
" clip-path="url(#p5e67d8079f)" style="fill: #808080; fill-opacity: 0.3"/>
    <path d="M 399.004061 325.40078 
L 413.962241 329.353063 
L 405.534216 338.10126 
L 390.526823 334.100136 
z
" clip-path="url(#p5e67d8079f)" style="fill: #808080; fill-opacity: 0.3"/>
    <path d="M 337.378923 330.8949 
L 352.143087 334.866928 
L 343.392831 343.647587 
L 328.58148 339.626489 
z
" clip-path="url(#p5e67d8079f)" style="fill: #808080; fill-opacity: 0.3"/>
    <path d="M 275.696872 336.394094 
L 290.266654 340.385902 
L 281.193573 349.199081 
L 266.578636 345.157972 
z
" clip-path="url(#p5e67d8079f)" style="fill: #808080; fill-opacity: 0.3"/>
    <path d="M 375.617118 330.125058 
L 390.526823 334.100136 
L 381.962163 342.889205 
L 367.00385 338.864945 
z
" clip-path="url(#p5e67d8079f)" style="fill: #808080; fill-opacity: 0.3"/>
    <path d="M 313.866586 335.631577 
L 328.58148 339.626489 
L 319.693272 348.448165 
L 304.931807 344.40384 
z
" clip-path="url(#p5e67d8079f)" style="fill: #808080; fill-opacity: 0.3"/>
    <path d="M 252.05892 341.143192 
L 266.578636 345.157972 
L 257.366279 354.012312 
L 242.802037 349.947886 
z
" clip-path="url(#p5e67d8079f)" style="fill: #808080; fill-opacity: 0.3"/>
    <path d="M 413.962241 329.353063 
L 429.018245 333.331193 
L 420.64026 342.128685 
L 405.534216 338.10126 
z
" clip-path="url(#p5e67d8079f)" style="fill: #808080; fill-opacity: 0.3"/>
    <path d="M 352.143087 334.866928 
L 367.00385 338.864945 
L 358.30159 347.695131 
L 343.392831 343.647587 
z
" clip-path="url(#p5e67d8079f)" style="fill: #808080; fill-opacity: 0.3"/>
    <path d="M 290.266654 340.385902 
L 304.931807 344.40384 
L 295.904672 353.266779 
L 281.193573 349.199081 
z
" clip-path="url(#p5e67d8079f)" style="fill: #808080; fill-opacity: 0.3"/>
    <path d="M 390.526823 334.100136 
L 405.534216 338.10126 
L 397.01899 346.939969 
L 381.962163 342.889205 
z
" clip-path="url(#p5e67d8079f)" style="fill: #808080; fill-opacity: 0.3"/>
    <path d="M 328.58148 339.626489 
L 343.392831 343.647587 
L 334.551999 352.519138 
L 319.693272 348.448165 
z
" clip-path="url(#p5e67d8079f)" style="fill: #808080; fill-opacity: 0.3"/>
    <path d="M 266.578636 345.157972 
L 281.193573 349.199081 
L 272.02653 358.10353 
L 257.366279 354.012312 
z
" clip-path="url(#p5e67d8079f)" style="fill: #808080; fill-opacity: 0.3"/>
    <path d="M 367.00385 338.864945 
L 381.962163 342.889205 
L 373.308722 351.769382 
L 358.30159 347.695131 
z
" clip-path="url(#p5e67d8079f)" style="fill: #808080; fill-opacity: 0.3"/>
    <path d="M 304.931807 344.40384 
L 319.693272 348.448165 
L 310.712885 357.361329 
L 295.904672 353.266779 
z
" clip-path="url(#p5e67d8079f)" style="fill: #808080; fill-opacity: 0.3"/>
    <path d="M 405.534216 338.10126 
L 420.64026 342.128685 
L 412.175307 351.0175 
L 397.01899 346.939969 
z
" clip-path="url(#p5e67d8079f)" style="fill: #808080; fill-opacity: 0.3"/>
    <path d="M 343.392831 343.647587 
L 358.30159 347.695131 
L 349.508953 356.617024 
L 334.551999 352.519138 
z
" clip-path="url(#p5e67d8079f)" style="fill: #808080; fill-opacity: 0.3"/>
    <path d="M 281.193573 349.199081 
L 295.904672 353.266779 
L 286.783741 362.221807 
L 272.02653 358.10353 
z
" clip-path="url(#p5e67d8079f)" style="fill: #808080; fill-opacity: 0.3"/>
    <path d="M 381.962163 342.889205 
L 397.01899 346.939969 
L 388.415203 355.870604 
L 373.308722 351.769382 
z
" clip-path="url(#p5e67d8079f)" style="fill: #808080; fill-opacity: 0.3"/>
    <path d="M 319.693272 348.448165 
L 334.551999 352.519138 
L 325.619176 361.482999 
L 310.712885 357.361329 
z
" clip-path="url(#p5e67d8079f)" style="fill: #808080; fill-opacity: 0.3"/>
    <path d="M 358.30159 347.695131 
L 373.308722 351.769382 
L 364.565113 360.742089 
L 349.508953 356.617024 
z
" clip-path="url(#p5e67d8079f)" style="fill: #808080; fill-opacity: 0.3"/>
    <path d="M 295.904672 353.266779 
L 310.712885 357.361329 
L 301.638878 366.367412 
L 286.783741 362.221807 
z
" clip-path="url(#p5e67d8079f)" style="fill: #808080; fill-opacity: 0.3"/>
    <path d="M 397.01899 346.939969 
L 412.175307 351.0175 
L 403.622023 359.999068 
L 388.415203 355.870604 
z
" clip-path="url(#p5e67d8079f)" style="fill: #808080; fill-opacity: 0.3"/>
    <path d="M 334.551999 352.519138 
L 349.508953 356.617024 
L 340.624523 365.632058 
L 325.619176 361.482999 
z
" clip-path="url(#p5e67d8079f)" style="fill: #808080; fill-opacity: 0.3"/>
    <path d="M 373.308722 351.769382 
L 388.415203 355.870604 
L 379.721467 364.894606 
L 364.565113 360.742089 
z
" clip-path="url(#p5e67d8079f)" style="fill: #808080; fill-opacity: 0.3"/>
    <path d="M 310.712885 357.361329 
L 325.619176 361.482999 
L 316.592919 370.540618 
L 301.638878 366.367412 
z
" clip-path="url(#p5e67d8079f)" style="fill: #808080; fill-opacity: 0.3"/>
    <path d="M 349.508953 356.617024 
L 364.565113 360.742089 
L 355.729918 369.808781 
L 340.624523 365.632058 
z
" clip-path="url(#p5e67d8079f)" style="fill: #808080; fill-opacity: 0.3"/>
    <path d="M 388.415203 355.870604 
L 403.622023 359.999068 
L 394.97902 369.074848 
L 379.721467 364.894606 
z
" clip-path="url(#p5e67d8079f)" style="fill: #808080; fill-opacity: 0.3"/>
    <path d="M 325.619176 361.482999 
L 340.624523 365.632058 
L 331.646856 374.741702 
L 316.592919 370.540618 
z
" clip-path="url(#p5e67d8079f)" style="fill: #808080; fill-opacity: 0.3"/>
    <path d="M 364.565113 360.742089 
L 379.721467 364.894606 
L 370.936363 374.013445 
L 355.729918 369.808781 
z
" clip-path="url(#p5e67d8079f)" style="fill: #808080; fill-opacity: 0.3"/>
    <path d="M 340.624523 365.632058 
L 355.729918 369.808781 
L 346.801691 378.970943 
L 331.646856 374.741702 
z
" clip-path="url(#p5e67d8079f)" style="fill: #808080; fill-opacity: 0.3"/>
    <path d="M 379.721467 364.894606 
L 394.97902 369.074848 
L 386.244877 378.246332 
L 370.936363 374.013445 
z
" clip-path="url(#p5e67d8079f)" style="fill: #808080; fill-opacity: 0.3"/>
    <path d="M 355.729918 369.808781 
L 370.936363 374.013445 
L 362.058444 383.228627 
L 346.801691 378.970943 
z
" clip-path="url(#p5e67d8079f)" style="fill: #808080; fill-opacity: 0.3"/>
    <path d="M 370.936363 374.013445 
L 386.244877 378.246332 
L 377.418145 387.51504 
L 362.058444 383.228627 
z
" clip-path="url(#p5e67d8079f)" style="fill: #808080; fill-opacity: 0.3"/>
   </g>
   <g id="Path3DCollection_1">
    <defs>
     <path id="C0_0_fdbbb43584" d="M 0 5.477226 
C 1.452577 5.477226 2.845856 4.900111 3.872983 3.872983 
C 4.900111 2.845856 5.477226 1.452577 5.477226 -0 
C 5.477226 -1.452577 4.900111 -2.845856 3.872983 -3.872983 
C 2.845856 -4.900111 1.452577 -5.477226 0 -5.477226 
C -1.452577 -5.477226 -2.845856 -4.900111 -3.872983 -3.872983 
C -4.900111 -2.845856 -5.477226 -1.452577 -5.477226 0 
C -5.477226 1.452577 -4.900111 2.845856 -3.872983 3.872983 
C -2.845856 4.900111 -1.452577 5.477226 0 5.477226 
z
"/>
    </defs>
    <g clip-path="url(#p5e67d8079f)">
     <use xlink:href="#C0_0_fdbbb43584" x="309.53349" y="246.74487" style="fill: #00ffb5; fill-opacity: 0.3; stroke: #00ffb5; stroke-opacity: 0.3"/>
    </g>
    <g clip-path="url(#p5e67d8079f)">
     <use xlink:href="#C0_0_fdbbb43584" x="364.579647" y="255.47872" style="fill: #00ff57; fill-opacity: 0.360609; stroke: #00ff57; stroke-opacity: 0.360609"/>
    </g>
    <g clip-path="url(#p5e67d8079f)">
     <use xlink:href="#C0_0_fdbbb43584" x="268.947739" y="267.243972" style="fill: #00eaff; fill-opacity: 0.364954; stroke: #00eaff; stroke-opacity: 0.364954"/>
    </g>
    <g clip-path="url(#p5e67d8079f)">
     <use xlink:href="#C0_0_fdbbb43584" x="411.65135" y="273.977299" style="fill: #14ff00; fill-opacity: 0.463992; stroke: #14ff00; stroke-opacity: 0.463992"/>
    </g>
    <g clip-path="url(#p5e67d8079f)">
     <use xlink:href="#C0_0_fdbbb43584" x="243.731226" y="294.985763" style="fill: #0080ff; fill-opacity: 0.477633; stroke: #0080ff; stroke-opacity: 0.477633"/>
    </g>
    <g clip-path="url(#p5e67d8079f)">
     <use xlink:href="#C0_0_fdbbb43584" x="444.894175" y="298.298323" style="fill: #78ff00; fill-opacity: 0.581653; stroke: #78ff00; stroke-opacity: 0.581653"/>
    </g>
    <g clip-path="url(#p5e67d8079f)">
     <use xlink:href="#C0_0_fdbbb43584" x="231.64577" y="325.206163" style="fill: #0010ff; fill-opacity: 0.616494; stroke: #0010ff; stroke-opacity: 0.616494"/>
    </g>
    <g clip-path="url(#p5e67d8079f)">
     <use xlink:href="#C0_0_fdbbb43584" x="466.229323" y="326.236671" style="fill: #d7ff00; fill-opacity: 0.700761; stroke: #d7ff00; stroke-opacity: 0.700761"/>
    </g>
    <g clip-path="url(#p5e67d8079f)">
     <use xlink:href="#C0_0_fdbbb43584" x="244.571835" y="352.896591" style="fill: #4300ff; fill-opacity: 0.746613; stroke: #4300ff; stroke-opacity: 0.746613"/>
    </g>
    <g clip-path="url(#p5e67d8079f)">
     <use xlink:href="#C0_0_fdbbb43584" x="269.607225" y="365.938586" style="fill: #a700ff; fill-opacity: 0.823812; stroke: #a700ff; stroke-opacity: 0.823812"/>
    </g>
    <g clip-path="url(#p5e67d8079f)">
     <use xlink:href="#C0_0_fdbbb43584" x="482.974634" y="356.852925" style="fill: #ffbd00; fill-opacity: 0.843793; stroke: #ffbd00; stroke-opacity: 0.843793"/>
    </g>
    <g clip-path="url(#p5e67d8079f)">
     <use xlink:href="#C0_0_fdbbb43584" x="293.543614" y="373.138859" style="fill: #fe00f1; fill-opacity: 0.88219; stroke: #fe00f1; stroke-opacity: 0.88219"/>
    </g>
    <g clip-path="url(#p5e67d8079f)">
     <use xlink:href="#C0_0_fdbbb43584" x="326.143873" y="381.206154" style="fill: #ff0082; fill-opacity: 0.929334; stroke: #ff0082; stroke-opacity: 0.929334"/>
    </g>
    <g clip-path="url(#p5e67d8079f)">
     <use xlink:href="#C0_0_fdbbb43584" x="458.9841" y="383.252111" style="fill: #ff5f00; fill-opacity: 0.961858; stroke: #ff5f00; stroke-opacity: 0.961858"/>
    </g>
    <g clip-path="url(#p5e67d8079f)">
     <use xlink:href="#C0_0_fdbbb43584" x="368.966239" y="387.993149" style="fill: #ff0018; fill-opacity: 0.9655; stroke: #ff0018; stroke-opacity: 0.9655"/>
    </g>
    <g clip-path="url(#p5e67d8079f)">
     <use xlink:href="#C0_0_fdbbb43584" x="411.743136" y="392.658361" style="fill: #ff0000; stroke: #ff0000"/>
    </g>
   </g>
   <g id="Path3DCollection_2">
    <path d="M 395.910987 221.241859 
L 401.388212 210.287408 
L 390.433761 210.287408 
z
" clip-path="url(#p5e67d8079f)" style="fill: #08ff00; fill-opacity: 0.3; stroke: #08ff00; stroke-opacity: 0.3"/>
    <path d="M 455.79343 235.89233 
L 461.270655 224.937878 
L 450.316204 224.937878 
z
" clip-path="url(#p5e67d8079f)" style="fill: #66ff00; fill-opacity: 0.345351; stroke: #66ff00; stroke-opacity: 0.345351"/>
    <path d="M 350.496383 208.333403 
L 355.973609 197.378951 
L 345.019158 197.378951 
z
" clip-path="url(#p5e67d8079f)" style="fill: #00ff5c; fill-opacity: 0.351197; stroke: #00ff5c; stroke-opacity: 0.351197"/>
    <path d="M 306.99535 213.96061 
L 312.472575 203.006159 
L 301.518124 203.006159 
z
" clip-path="url(#p5e67d8079f)" style="fill: #00ffc7; fill-opacity: 0.376777; stroke: #00ffc7; stroke-opacity: 0.376777"/>
    <path d="M 512.792307 278.032437 
L 518.269533 267.077986 
L 507.315082 267.077986 
z
" clip-path="url(#p5e67d8079f)" style="fill: #d7ff00; fill-opacity: 0.451045; stroke: #d7ff00; stroke-opacity: 0.451045"/>
    <path d="M 273.0397 218.703233 
L 278.516925 207.748782 
L 267.562474 207.748782 
z
" clip-path="url(#p5e67d8079f)" style="fill: #00d9ff; fill-opacity: 0.480731; stroke: #00d9ff; stroke-opacity: 0.480731"/>
    <path d="M 244.216101 236.095602 
L 249.693326 225.141151 
L 238.738875 225.141151 
z
" clip-path="url(#p5e67d8079f)" style="fill: #0074ff; fill-opacity: 0.591642; stroke: #0074ff; stroke-opacity: 0.591642"/>
    <path d="M 224.417525 260.579109 
L 229.894751 249.624658 
L 218.940299 249.624658 
z
" clip-path="url(#p5e67d8079f)" style="fill: #020cff; fill-opacity: 0.745143; stroke: #020cff; stroke-opacity: 0.745143"/>
    <path d="M 530.320425 346.065511 
L 535.79765 335.11106 
L 524.843199 335.11106 
z
" clip-path="url(#p5e67d8079f)" style="fill: #ffc300; fill-opacity: 0.802238; stroke: #ffc300; stroke-opacity: 0.802238"/>
    <path d="M 290.314918 322.118656 
L 295.792144 311.164205 
L 284.837693 311.164205 
z
" clip-path="url(#p5e67d8079f)" style="fill: #ff00db; fill-opacity: 0.8442; stroke: #ff00db; stroke-opacity: 0.8442"/>
    <path d="M 324.002451 337.242928 
L 329.479677 326.288477 
L 318.525226 326.288477 
z
" clip-path="url(#p5e67d8079f)" style="fill: #ff0076; fill-opacity: 0.852974; stroke: #ff0076; stroke-opacity: 0.852974"/>
    <path d="M 255.62695 304.505363 
L 261.104175 293.550912 
L 250.149724 293.550912 
z
" clip-path="url(#p5e67d8079f)" style="fill: #bf00ff; fill-opacity: 0.878137; stroke: #bf00ff; stroke-opacity: 0.878137"/>
    <path d="M 358.765317 351.460016 
L 364.242543 340.505565 
L 353.288092 340.505565 
z
" clip-path="url(#p5e67d8079f)" style="fill: #ff0018; fill-opacity: 0.908672; stroke: #ff0018; stroke-opacity: 0.908672"/>
    <path d="M 221.359978 286.837054 
L 226.837203 275.882602 
L 215.882752 275.882602 
z
" clip-path="url(#p5e67d8079f)" style="fill: #6000ff; fill-opacity: 0.919398; stroke: #6000ff; stroke-opacity: 0.919398"/>
    <path d="M 400.49097 365.825886 
L 405.968196 354.871435 
L 395.013745 354.871435 
z
" clip-path="url(#p5e67d8079f)" style="fill: #ff0000; fill-opacity: 0.943177; stroke: #ff0000; stroke-opacity: 0.943177"/>
    <path d="M 456.808214 375.024059 
L 462.28544 364.069608 
L 451.330989 364.069608 
z
" clip-path="url(#p5e67d8079f)" style="fill: #ff6a00; stroke: #ff6a00"/>
   </g>
   <g id="legend_1">
    <g id="patch_6">
     <path d="M 343.470937 136.36125 
L 578.16 136.36125 
Q 581.76 136.36125 581.76 132.76125 
L 581.76 81.72 
Q 581.76 78.12 578.16 78.12 
L 343.470937 78.12 
Q 339.870937 78.12 339.870937 81.72 
L 339.870937 132.76125 
Q 339.870937 136.36125 343.470937 136.36125 
z
" style="fill: #ffffff; opacity: 0.8; stroke: #cccccc; stroke-linejoin: miter"/>
    </g>
    <g id="Path3DCollection_3">
     <path d="M 365.070937 99.749413 
C 366.523515 99.749413 367.916794 99.172298 368.943921 98.145171 
C 369.971048 97.118044 370.548163 95.724765 370.548163 94.272188 
C 370.548163 92.81961 369.971048 91.426331 368.943921 90.399204 
C 367.916794 89.372077 366.523515 88.794962 365.070937 88.794962 
C 363.61836 88.794962 362.225081 89.372077 361.197954 90.399204 
C 360.170827 91.426331 359.593712 92.81961 359.593712 94.272188 
C 359.593712 95.724765 360.170827 97.118044 361.197954 98.145171 
C 362.225081 99.172298 363.61836 99.749413 365.070937 99.749413 
z
" style="fill: #ff0000; stroke: #ff0000"/>
    </g>
    <g id="text_20">
     <!-- Selected stimulus 1 -->
     <g transform="translate(397.470937 98.997188) scale(0.18 -0.18)">
      <defs>
       <path id="DejaVuSans-53" d="M 3425 4513 
L 3425 3897 
Q 3066 4069 2747 4153 
Q 2428 4238 2131 4238 
Q 1616 4238 1336 4038 
Q 1056 3838 1056 3469 
Q 1056 3159 1242 3001 
Q 1428 2844 1947 2747 
L 2328 2669 
Q 3034 2534 3370 2195 
Q 3706 1856 3706 1288 
Q 3706 609 3251 259 
Q 2797 -91 1919 -91 
Q 1588 -91 1214 -16 
Q 841 59 441 206 
L 441 856 
Q 825 641 1194 531 
Q 1563 422 1919 422 
Q 2459 422 2753 634 
Q 3047 847 3047 1241 
Q 3047 1584 2836 1778 
Q 2625 1972 2144 2069 
L 1759 2144 
Q 1053 2284 737 2584 
Q 422 2884 422 3419 
Q 422 4038 858 4394 
Q 1294 4750 2059 4750 
Q 2388 4750 2728 4690 
Q 3069 4631 3425 4513 
z
" transform="scale(0.015625)"/>
       <path id="DejaVuSans-65" d="M 3597 1894 
L 3597 1613 
L 953 1613 
Q 991 1019 1311 708 
Q 1631 397 2203 397 
Q 2534 397 2845 478 
Q 3156 559 3463 722 
L 3463 178 
Q 3153 47 2828 -22 
Q 2503 -91 2169 -91 
Q 1331 -91 842 396 
Q 353 884 353 1716 
Q 353 2575 817 3079 
Q 1281 3584 2069 3584 
Q 2775 3584 3186 3129 
Q 3597 2675 3597 1894 
z
M 3022 2063 
Q 3016 2534 2758 2815 
Q 2500 3097 2075 3097 
Q 1594 3097 1305 2825 
Q 1016 2553 972 2059 
L 3022 2063 
z
" transform="scale(0.015625)"/>
       <path id="DejaVuSans-6c" d="M 603 4863 
L 1178 4863 
L 1178 0 
L 603 0 
L 603 4863 
z
" transform="scale(0.015625)"/>
       <path id="DejaVuSans-63" d="M 3122 3366 
L 3122 2828 
Q 2878 2963 2633 3030 
Q 2388 3097 2138 3097 
Q 1578 3097 1268 2742 
Q 959 2388 959 1747 
Q 959 1106 1268 751 
Q 1578 397 2138 397 
Q 2388 397 2633 464 
Q 2878 531 3122 666 
L 3122 134 
Q 2881 22 2623 -34 
Q 2366 -91 2075 -91 
Q 1284 -91 818 406 
Q 353 903 353 1747 
Q 353 2603 823 3093 
Q 1294 3584 2113 3584 
Q 2378 3584 2631 3529 
Q 2884 3475 3122 3366 
z
" transform="scale(0.015625)"/>
       <path id="DejaVuSans-74" d="M 1172 4494 
L 1172 3500 
L 2356 3500 
L 2356 3053 
L 1172 3053 
L 1172 1153 
Q 1172 725 1289 603 
Q 1406 481 1766 481 
L 2356 481 
L 2356 0 
L 1766 0 
Q 1100 0 847 248 
Q 594 497 594 1153 
L 594 3053 
L 172 3053 
L 172 3500 
L 594 3500 
L 594 4494 
L 1172 4494 
z
" transform="scale(0.015625)"/>
       <path id="DejaVuSans-64" d="M 2906 2969 
L 2906 4863 
L 3481 4863 
L 3481 0 
L 2906 0 
L 2906 525 
Q 2725 213 2448 61 
Q 2172 -91 1784 -91 
Q 1150 -91 751 415 
Q 353 922 353 1747 
Q 353 2572 751 3078 
Q 1150 3584 1784 3584 
Q 2172 3584 2448 3432 
Q 2725 3281 2906 2969 
z
M 947 1747 
Q 947 1113 1208 752 
Q 1469 391 1925 391 
Q 2381 391 2643 752 
Q 2906 1113 2906 1747 
Q 2906 2381 2643 2742 
Q 2381 3103 1925 3103 
Q 1469 3103 1208 2742 
Q 947 2381 947 1747 
z
" transform="scale(0.015625)"/>
       <path id="DejaVuSans-73" d="M 2834 3397 
L 2834 2853 
Q 2591 2978 2328 3040 
Q 2066 3103 1784 3103 
Q 1356 3103 1142 2972 
Q 928 2841 928 2578 
Q 928 2378 1081 2264 
Q 1234 2150 1697 2047 
L 1894 2003 
Q 2506 1872 2764 1633 
Q 3022 1394 3022 966 
Q 3022 478 2636 193 
Q 2250 -91 1575 -91 
Q 1294 -91 989 -36 
Q 684 19 347 128 
L 347 722 
Q 666 556 975 473 
Q 1284 391 1588 391 
Q 1994 391 2212 530 
Q 2431 669 2431 922 
Q 2431 1156 2273 1281 
Q 2116 1406 1581 1522 
L 1381 1569 
Q 847 1681 609 1914 
Q 372 2147 372 2553 
Q 372 3047 722 3315 
Q 1072 3584 1716 3584 
Q 2034 3584 2315 3537 
Q 2597 3491 2834 3397 
z
" transform="scale(0.015625)"/>
       <path id="DejaVuSans-69" d="M 603 3500 
L 1178 3500 
L 1178 0 
L 603 0 
L 603 3500 
z
M 603 4863 
L 1178 4863 
L 1178 4134 
L 603 4134 
L 603 4863 
z
" transform="scale(0.015625)"/>
       <path id="DejaVuSans-6d" d="M 3328 2828 
Q 3544 3216 3844 3400 
Q 4144 3584 4550 3584 
Q 5097 3584 5394 3201 
Q 5691 2819 5691 2113 
L 5691 0 
L 5113 0 
L 5113 2094 
Q 5113 2597 4934 2840 
Q 4756 3084 4391 3084 
Q 3944 3084 3684 2787 
Q 3425 2491 3425 1978 
L 3425 0 
L 2847 0 
L 2847 2094 
Q 2847 2600 2669 2842 
Q 2491 3084 2119 3084 
Q 1678 3084 1418 2786 
Q 1159 2488 1159 1978 
L 1159 0 
L 581 0 
L 581 3500 
L 1159 3500 
L 1159 2956 
Q 1356 3278 1631 3431 
Q 1906 3584 2284 3584 
Q 2666 3584 2933 3390 
Q 3200 3197 3328 2828 
z
" transform="scale(0.015625)"/>
       <path id="DejaVuSans-75" d="M 544 1381 
L 544 3500 
L 1119 3500 
L 1119 1403 
Q 1119 906 1312 657 
Q 1506 409 1894 409 
Q 2359 409 2629 706 
Q 2900 1003 2900 1516 
L 2900 3500 
L 3475 3500 
L 3475 0 
L 2900 0 
L 2900 538 
Q 2691 219 2414 64 
Q 2138 -91 1772 -91 
Q 1169 -91 856 284 
Q 544 659 544 1381 
z
M 1991 3584 
L 1991 3584 
z
" transform="scale(0.015625)"/>
      </defs>
      <use xlink:href="#DejaVuSans-53"/>
      <use xlink:href="#DejaVuSans-65" x="63.476562"/>
      <use xlink:href="#DejaVuSans-6c" x="125"/>
      <use xlink:href="#DejaVuSans-65" x="152.783203"/>
      <use xlink:href="#DejaVuSans-63" x="214.306641"/>
      <use xlink:href="#DejaVuSans-74" x="269.287109"/>
      <use xlink:href="#DejaVuSans-65" x="308.496094"/>
      <use xlink:href="#DejaVuSans-64" x="370.019531"/>
      <use xlink:href="#DejaVuSans-20" x="433.496094"/>
      <use xlink:href="#DejaVuSans-73" x="465.283203"/>
      <use xlink:href="#DejaVuSans-74" x="517.382812"/>
      <use xlink:href="#DejaVuSans-69" x="556.591797"/>
      <use xlink:href="#DejaVuSans-6d" x="584.375"/>
      <use xlink:href="#DejaVuSans-75" x="681.787109"/>
      <use xlink:href="#DejaVuSans-6c" x="745.166016"/>
      <use xlink:href="#DejaVuSans-75" x="772.949219"/>
      <use xlink:href="#DejaVuSans-73" x="836.328125"/>
      <use xlink:href="#DejaVuSans-20" x="888.427734"/>
      <use xlink:href="#DejaVuSans-31" x="920.214844"/>
     </g>
    </g>
    <g id="Path3DCollection_4">
     <path d="M 365.070937 126.170038 
L 370.548163 115.215587 
L 359.593712 115.215587 
z
" style="fill: #ff0000; stroke: #ff0000"/>
    </g>
    <g id="text_21">
     <!-- Selected stimulus 2 -->
     <g transform="translate(397.470937 125.417813) scale(0.18 -0.18)">
      <use xlink:href="#DejaVuSans-53"/>
      <use xlink:href="#DejaVuSans-65" x="63.476562"/>
      <use xlink:href="#DejaVuSans-6c" x="125"/>
      <use xlink:href="#DejaVuSans-65" x="152.783203"/>
      <use xlink:href="#DejaVuSans-63" x="214.306641"/>
      <use xlink:href="#DejaVuSans-74" x="269.287109"/>
      <use xlink:href="#DejaVuSans-65" x="308.496094"/>
      <use xlink:href="#DejaVuSans-64" x="370.019531"/>
      <use xlink:href="#DejaVuSans-20" x="433.496094"/>
      <use xlink:href="#DejaVuSans-73" x="465.283203"/>
      <use xlink:href="#DejaVuSans-74" x="517.382812"/>
      <use xlink:href="#DejaVuSans-69" x="556.591797"/>
      <use xlink:href="#DejaVuSans-6d" x="584.375"/>
      <use xlink:href="#DejaVuSans-75" x="681.787109"/>
      <use xlink:href="#DejaVuSans-6c" x="745.166016"/>
      <use xlink:href="#DejaVuSans-75" x="772.949219"/>
      <use xlink:href="#DejaVuSans-73" x="836.328125"/>
      <use xlink:href="#DejaVuSans-20" x="888.427734"/>
      <use xlink:href="#DejaVuSans-32" x="920.214844"/>
     </g>
    </g>
   </g>
   <g id="Poly3DCollection_2">
    <path d="M 315.15983 195.129099 
L 330.535156 201.595772 
L 322.853618 213.503991 
L 307.431455 207.008504 
z
" clip-path="url(#p5e67d8079f)" style="fill: #808080; fill-opacity: 0.3"/>
    <path d="M 330.535156 201.595772 
L 345.928956 208.070215 
L 338.294374 220.007308 
L 322.853618 213.503991 
z
" clip-path="url(#p5e67d8079f)" style="fill: #808080; fill-opacity: 0.3"/>
    <path d="M 345.928956 208.070215 
L 361.341265 214.552442 
L 353.753756 226.51847 
L 338.294374 220.007308 
z
" clip-path="url(#p5e67d8079f)" style="fill: #808080; fill-opacity: 0.3"/>
    <path d="M 361.341265 214.552442 
L 376.772115 221.042467 
L 369.231799 233.037492 
L 353.753756 226.51847 
z
" clip-path="url(#p5e67d8079f)" style="fill: #808080; fill-opacity: 0.3"/>
    <path d="M 376.772115 221.042467 
L 392.221539 227.540304 
L 384.728536 239.564388 
L 369.231799 233.037492 
z
" clip-path="url(#p5e67d8079f)" style="fill: #808080; fill-opacity: 0.3"/>
    <path d="M 392.221539 227.540304 
L 407.689572 234.045968 
L 400.244001 246.099171 
L 384.728536 239.564388 
z
" clip-path="url(#p5e67d8079f)" style="fill: #808080; fill-opacity: 0.3"/>
    <path d="M 307.431455 207.008504 
L 322.853618 213.503991 
L 315.120456 225.49224 
L 299.651173 218.967698 
z
" clip-path="url(#p5e67d8079f)" style="fill: #808080; fill-opacity: 0.3"/>
    <path d="M 407.689572 234.045968 
L 423.176247 240.559473 
L 415.778228 252.641856 
L 400.244001 246.099171 
z
" clip-path="url(#p5e67d8079f)" style="fill: #808080; fill-opacity: 0.3"/>
    <path d="M 322.853618 213.503991 
L 338.294374 220.007308 
L 330.608451 232.024674 
L 315.120456 225.49224 
z
" clip-path="url(#p5e67d8079f)" style="fill: #808080; fill-opacity: 0.3"/>
    <path d="M 423.176247 240.559473 
L 438.681598 247.080832 
L 431.33125 259.192458 
L 415.778228 252.641856 
z
" clip-path="url(#p5e67d8079f)" style="fill: #808080; fill-opacity: 0.3"/>
    <path d="M 338.294374 220.007308 
L 353.753756 226.51847 
L 346.115193 238.565016 
L 330.608451 232.024674 
z
" clip-path="url(#p5e67d8079f)" style="fill: #808080; fill-opacity: 0.3"/>
    <path d="M 438.681598 247.080832 
L 454.205658 253.610061 
L 446.903104 265.750991 
L 431.33125 259.192458 
z
" clip-path="url(#p5e67d8079f)" style="fill: #808080; fill-opacity: 0.3"/>
    <path d="M 353.753756 226.51847 
L 369.231799 233.037492 
L 361.640716 245.113278 
L 346.115193 238.565016 
z
" clip-path="url(#p5e67d8079f)" style="fill: #808080; fill-opacity: 0.3"/>
    <path d="M 369.231799 233.037492 
L 384.728536 239.564388 
L 377.185053 251.669476 
L 361.640716 245.113278 
z
" clip-path="url(#p5e67d8079f)" style="fill: #808080; fill-opacity: 0.3"/>
    <path d="M 384.728536 239.564388 
L 400.244001 246.099171 
L 392.748239 258.233624 
L 377.185053 251.669476 
z
" clip-path="url(#p5e67d8079f)" style="fill: #808080; fill-opacity: 0.3"/>
    <path d="M 299.651173 218.967698 
L 315.120456 225.49224 
L 307.335146 237.561329 
L 291.818457 231.007487 
z
" clip-path="url(#p5e67d8079f)" style="fill: #808080; fill-opacity: 0.3"/>
    <path d="M 400.244001 246.099171 
L 415.778228 252.641856 
L 408.330308 264.805736 
L 392.748239 258.233624 
z
" clip-path="url(#p5e67d8079f)" style="fill: #808080; fill-opacity: 0.3"/>
    <path d="M 315.120456 225.49224 
L 330.608451 232.024674 
L 322.870669 244.123126 
L 307.335146 237.561329 
z
" clip-path="url(#p5e67d8079f)" style="fill: #808080; fill-opacity: 0.3"/>
    <path d="M 415.778228 252.641856 
L 431.33125 259.192458 
L 423.931295 271.385827 
L 408.330308 264.805736 
z
" clip-path="url(#p5e67d8079f)" style="fill: #808080; fill-opacity: 0.3"/>
    <path d="M 330.608451 232.024674 
L 346.115193 238.565016 
L 338.425059 250.692893 
L 322.870669 244.123126 
z
" clip-path="url(#p5e67d8079f)" style="fill: #808080; fill-opacity: 0.3"/>
    <path d="M 431.33125 259.192458 
L 446.903104 265.750991 
L 439.551234 277.973912 
L 423.931295 271.385827 
z
" clip-path="url(#p5e67d8079f)" style="fill: #808080; fill-opacity: 0.3"/>
    <path d="M 346.115193 238.565016 
L 361.640716 245.113278 
L 353.99835 257.270642 
L 338.425059 250.692893 
z
" clip-path="url(#p5e67d8079f)" style="fill: #808080; fill-opacity: 0.3"/>
    <path d="M 361.640716 245.113278 
L 377.185053 251.669476 
L 369.590578 263.856391 
L 353.99835 257.270642 
z
" clip-path="url(#p5e67d8079f)" style="fill: #808080; fill-opacity: 0.3"/>
    <path d="M 377.185053 251.669476 
L 392.748239 258.233624 
L 385.201777 270.450152 
L 369.590578 263.856391 
z
" clip-path="url(#p5e67d8079f)" style="fill: #808080; fill-opacity: 0.3"/>
    <path d="M 291.818457 231.007487 
L 307.335146 237.561329 
L 299.497161 249.712079 
L 283.932777 243.128688 
z
" clip-path="url(#p5e67d8079f)" style="fill: #808080; fill-opacity: 0.3"/>
    <path d="M 392.748239 258.233624 
L 408.330308 264.805736 
L 400.831982 277.05194 
L 385.201777 270.450152 
z
" clip-path="url(#p5e67d8079f)" style="fill: #808080; fill-opacity: 0.3"/>
    <path d="M 307.335146 237.561329 
L 322.870669 244.123126 
L 315.0805 256.303487 
L 299.497161 249.712079 
z
" clip-path="url(#p5e67d8079f)" style="fill: #808080; fill-opacity: 0.3"/>
    <path d="M 408.330308 264.805736 
L 423.931295 271.385827 
L 416.481226 283.66177 
L 400.831982 277.05194 
z
" clip-path="url(#p5e67d8079f)" style="fill: #808080; fill-opacity: 0.3"/>
    <path d="M 322.870669 244.123126 
L 338.425059 250.692893 
L 330.682829 262.902928 
L 315.0805 256.303487 
z
" clip-path="url(#p5e67d8079f)" style="fill: #808080; fill-opacity: 0.3"/>
    <path d="M 423.931295 271.385827 
L 439.551234 277.973912 
L 432.149546 290.279658 
L 416.481226 283.66177 
z
" clip-path="url(#p5e67d8079f)" style="fill: #808080; fill-opacity: 0.3"/>
    <path d="M 338.425059 250.692893 
L 353.99835 257.270642 
L 346.304182 269.510415 
L 330.682829 262.902928 
z
" clip-path="url(#p5e67d8079f)" style="fill: #808080; fill-opacity: 0.3"/>
    <path d="M 353.99835 257.270642 
L 369.590578 263.856391 
L 361.944594 276.125964 
L 346.304182 269.510415 
z
" clip-path="url(#p5e67d8079f)" style="fill: #808080; fill-opacity: 0.3"/>
    <path d="M 369.590578 263.856391 
L 385.201777 270.450152 
L 377.6041 282.749589 
L 361.944594 276.125964 
z
" clip-path="url(#p5e67d8079f)" style="fill: #808080; fill-opacity: 0.3"/>
    <path d="M 283.932777 243.128688 
L 299.497161 249.712079 
L 291.605964 261.94532 
L 275.993594 255.33213 
z
" clip-path="url(#p5e67d8079f)" style="fill: #808080; fill-opacity: 0.3"/>
    <path d="M 385.201777 270.450152 
L 400.831982 277.05194 
L 393.282735 289.381306 
L 377.6041 282.749589 
z
" clip-path="url(#p5e67d8079f)" style="fill: #808080; fill-opacity: 0.3"/>
    <path d="M 299.497161 249.712079 
L 315.0805 256.303487 
L 307.237411 268.566591 
L 291.605964 261.94532 
z
" clip-path="url(#p5e67d8079f)" style="fill: #808080; fill-opacity: 0.3"/>
    <path d="M 400.831982 277.05194 
L 416.481226 283.66177 
L 408.980535 296.021129 
L 393.282735 289.381306 
z
" clip-path="url(#p5e67d8079f)" style="fill: #808080; fill-opacity: 0.3"/>
    <path d="M 315.0805 256.303487 
L 330.682829 262.902928 
L 322.887972 275.195958 
L 307.237411 268.566591 
z
" clip-path="url(#p5e67d8079f)" style="fill: #808080; fill-opacity: 0.3"/>
    <path d="M 416.481226 283.66177 
L 432.149546 290.279658 
L 424.697533 302.669072 
L 408.980535 296.021129 
z
" clip-path="url(#p5e67d8079f)" style="fill: #808080; fill-opacity: 0.3"/>
    <path d="M 330.682829 262.902928 
L 346.304182 269.510415 
L 338.557681 281.833436 
L 322.887972 275.195958 
z
" clip-path="url(#p5e67d8079f)" style="fill: #808080; fill-opacity: 0.3"/>
    <path d="M 346.304182 269.510415 
L 361.944594 276.125964 
L 354.246573 288.47904 
L 338.557681 281.833436 
z
" clip-path="url(#p5e67d8079f)" style="fill: #808080; fill-opacity: 0.3"/>
    <path d="M 361.944594 276.125964 
L 377.6041 282.749589 
L 369.954684 295.132785 
L 354.246573 288.47904 
z
" clip-path="url(#p5e67d8079f)" style="fill: #808080; fill-opacity: 0.3"/>
    <path d="M 275.993594 255.33213 
L 291.605964 261.94532 
L 283.66101 274.261897 
L 268.00036 267.618654 
z
" clip-path="url(#p5e67d8079f)" style="fill: #808080; fill-opacity: 0.3"/>
    <path d="M 377.6041 282.749589 
L 393.282735 289.381306 
L 385.682048 301.794685 
L 369.954684 295.132785 
z
" clip-path="url(#p5e67d8079f)" style="fill: #808080; fill-opacity: 0.3"/>
    <path d="M 291.605964 261.94532 
L 307.237411 268.566591 
L 299.340861 280.913285 
L 283.66101 274.261897 
z
" clip-path="url(#p5e67d8079f)" style="fill: #808080; fill-opacity: 0.3"/>
    <path d="M 393.282735 289.381306 
L 408.980535 296.021129 
L 401.428702 308.464755 
L 385.682048 301.794685 
z
" clip-path="url(#p5e67d8079f)" style="fill: #808080; fill-opacity: 0.3"/>
    <path d="M 307.237411 268.566591 
L 322.887972 275.195958 
L 315.039951 287.572834 
L 299.340861 280.913285 
z
" clip-path="url(#p5e67d8079f)" style="fill: #808080; fill-opacity: 0.3"/>
    <path d="M 408.980535 296.021129 
L 424.697533 302.669072 
L 417.19468 315.143012 
L 401.428702 308.464755 
z
" clip-path="url(#p5e67d8079f)" style="fill: #808080; fill-opacity: 0.3"/>
    <path d="M 322.887972 275.195958 
L 338.557681 281.833436 
L 330.758313 294.240559 
L 315.039951 287.572834 
z
" clip-path="url(#p5e67d8079f)" style="fill: #808080; fill-opacity: 0.3"/>
    <path d="M 338.557681 281.833436 
L 354.246573 288.47904 
L 346.495983 300.916474 
L 330.758313 294.240559 
z
" clip-path="url(#p5e67d8079f)" style="fill: #808080; fill-opacity: 0.3"/>
    <path d="M 354.246573 288.47904 
L 369.954684 295.132785 
L 362.252998 307.600595 
L 346.495983 300.916474 
z
" clip-path="url(#p5e67d8079f)" style="fill: #808080; fill-opacity: 0.3"/>
    <path d="M 268.00036 267.618654 
L 283.66101 274.261897 
L 275.661749 286.662662 
L 259.952523 279.98911 
z
" clip-path="url(#p5e67d8079f)" style="fill: #808080; fill-opacity: 0.3"/>
    <path d="M 369.954684 295.132785 
L 385.682048 301.794685 
L 378.029393 314.292937 
L 362.252998 307.600595 
z
" clip-path="url(#p5e67d8079f)" style="fill: #808080; fill-opacity: 0.3"/>
    <path d="M 283.66101 274.261897 
L 299.340861 280.913285 
L 291.390302 293.344426 
L 275.661749 286.662662 
z
" clip-path="url(#p5e67d8079f)" style="fill: #808080; fill-opacity: 0.3"/>
    <path d="M 385.682048 301.794685 
L 401.428702 308.464755 
L 393.825203 320.993515 
L 378.029393 314.292937 
z
" clip-path="url(#p5e67d8079f)" style="fill: #808080; fill-opacity: 0.3"/>
    <path d="M 299.340861 280.913285 
L 315.039951 287.572834 
L 307.138218 300.034416 
L 291.390302 293.344426 
z
" clip-path="url(#p5e67d8079f)" style="fill: #808080; fill-opacity: 0.3"/>
    <path d="M 401.428702 308.464755 
L 417.19468 315.143012 
L 409.640465 327.702345 
L 393.825203 320.993515 
z
" clip-path="url(#p5e67d8079f)" style="fill: #808080; fill-opacity: 0.3"/>
    <path d="M 315.039951 287.572834 
L 330.758313 294.240559 
L 322.905534 306.732646 
L 307.138218 300.034416 
z
" clip-path="url(#p5e67d8079f)" style="fill: #808080; fill-opacity: 0.3"/>
    <path d="M 330.758313 294.240559 
L 346.495983 300.916474 
L 338.692284 313.439133 
L 322.905534 306.732646 
z
" clip-path="url(#p5e67d8079f)" style="fill: #808080; fill-opacity: 0.3"/>
    <path d="M 346.495983 300.916474 
L 362.252998 307.600595 
L 354.498506 320.153892 
L 338.692284 313.439133 
z
" clip-path="url(#p5e67d8079f)" style="fill: #808080; fill-opacity: 0.3"/>
    <path d="M 259.952523 279.98911 
L 275.661749 286.662662 
L 267.607621 299.148484 
L 251.849521 292.444361 
z
" clip-path="url(#p5e67d8079f)" style="fill: #808080; fill-opacity: 0.3"/>
    <path d="M 362.252998 307.600595 
L 378.029393 314.292937 
L 370.324235 326.876937 
L 354.498506 320.153892 
z
" clip-path="url(#p5e67d8079f)" style="fill: #808080; fill-opacity: 0.3"/>
    <path d="M 275.661749 286.662662 
L 291.390302 293.344426 
L 283.385176 305.860884 
L 267.607621 299.148484 
z
" clip-path="url(#p5e67d8079f)" style="fill: #808080; fill-opacity: 0.3"/>
    <path d="M 378.029393 314.292937 
L 393.825203 320.993515 
L 386.169506 333.608285 
L 370.324235 326.876937 
z
" clip-path="url(#p5e67d8079f)" style="fill: #808080; fill-opacity: 0.3"/>
    <path d="M 291.390302 293.344426 
L 307.138218 300.034416 
L 299.182222 312.581575 
L 283.385176 305.860884 
z
" clip-path="url(#p5e67d8079f)" style="fill: #808080; fill-opacity: 0.3"/>
    <path d="M 393.825203 320.993515 
L 409.640465 327.702345 
L 402.034357 340.347951 
L 386.169506 333.608285 
z
" clip-path="url(#p5e67d8079f)" style="fill: #808080; fill-opacity: 0.3"/>
    <path d="M 307.138218 300.034416 
L 322.905534 306.732646 
L 314.998794 319.310575 
L 299.182222 312.581575 
z
" clip-path="url(#p5e67d8079f)" style="fill: #808080; fill-opacity: 0.3"/>
    <path d="M 322.905534 306.732646 
L 338.692284 313.439133 
L 330.834928 326.047896 
L 314.998794 319.310575 
z
" clip-path="url(#p5e67d8079f)" style="fill: #808080; fill-opacity: 0.3"/>
    <path d="M 338.692284 313.439133 
L 354.498506 320.153892 
L 346.690662 332.793557 
L 330.834928 326.047896 
z
" clip-path="url(#p5e67d8079f)" style="fill: #808080; fill-opacity: 0.3"/>
    <path d="M 251.849521 292.444361 
L 267.607621 299.148484 
L 259.498062 311.720239 
L 243.690784 304.985282 
z
" clip-path="url(#p5e67d8079f)" style="fill: #808080; fill-opacity: 0.3"/>
    <path d="M 354.498506 320.153892 
L 370.324235 326.876937 
L 362.566031 339.54757 
L 346.690662 332.793557 
z
" clip-path="url(#p5e67d8079f)" style="fill: #808080; fill-opacity: 0.3"/>
    <path d="M 267.607621 299.148484 
L 283.385176 305.860884 
L 275.324922 318.463539 
L 259.498062 311.720239 
z
" clip-path="url(#p5e67d8079f)" style="fill: #808080; fill-opacity: 0.3"/>
    <path d="M 370.324235 326.876937 
L 386.169506 333.608285 
L 378.461072 346.309954 
L 362.566031 339.54757 
z
" clip-path="url(#p5e67d8079f)" style="fill: #808080; fill-opacity: 0.3"/>
    <path d="M 283.385176 305.860884 
L 299.182222 312.581575 
L 291.1714 325.215198 
L 275.324922 318.463539 
z
" clip-path="url(#p5e67d8079f)" style="fill: #808080; fill-opacity: 0.3"/>
    <path d="M 386.169506 333.608285 
L 402.034357 340.347951 
L 394.375822 353.080721 
L 378.461072 346.309954 
z
" clip-path="url(#p5e67d8079f)" style="fill: #808080; fill-opacity: 0.3"/>
    <path d="M 299.182222 312.581575 
L 314.998794 319.310575 
L 307.037534 331.975231 
L 291.1714 325.215198 
z
" clip-path="url(#p5e67d8079f)" style="fill: #808080; fill-opacity: 0.3"/>
    <path d="M 314.998794 319.310575 
L 330.834928 326.047896 
L 322.92336 338.743655 
L 307.037534 331.975231 
z
" clip-path="url(#p5e67d8079f)" style="fill: #808080; fill-opacity: 0.3"/>
    <path d="M 330.834928 326.047896 
L 346.690662 332.793557 
L 338.828913 345.520484 
L 322.92336 338.743655 
z
" clip-path="url(#p5e67d8079f)" style="fill: #808080; fill-opacity: 0.3"/>
    <path d="M 346.690662 332.793557 
L 362.566031 339.54757 
L 354.754233 352.305734 
L 338.828913 345.520484 
z
" clip-path="url(#p5e67d8079f)" style="fill: #808080; fill-opacity: 0.3"/>
    <path d="M 362.566031 339.54757 
L 378.461072 346.309954 
L 370.699354 359.099422 
L 354.754233 352.305734 
z
" clip-path="url(#p5e67d8079f)" style="fill: #808080; fill-opacity: 0.3"/>
    <path d="M 378.461072 346.309954 
L 394.375822 353.080721 
L 386.664314 365.901562 
L 370.699354 359.099422 
z
" clip-path="url(#p5e67d8079f)" style="fill: #808080; fill-opacity: 0.3"/>
   </g>
  </g>
 </g>
 <defs>
  <clipPath id="p5e67d8079f">
   <rect x="147.24" y="69.12" width="443.52" height="443.52"/>
  </clipPath>
 </defs>
</svg>
