<?xml version="1.0" encoding="utf-8" standalone="no"?>
<!DOCTYPE svg PUBLIC "-//W3C//DTD SVG 1.1//EN"
  "http://www.w3.org/Graphics/SVG/1.1/DTD/svg11.dtd">
<svg xmlns:xlink="http://www.w3.org/1999/xlink" width="720pt" height="576pt" viewBox="0 0 720 576" xmlns="http://www.w3.org/2000/svg" version="1.1">
 <metadata>
  <rdf:RDF xmlns:dc="http://purl.org/dc/elements/1.1/" xmlns:cc="http://creativecommons.org/ns#" xmlns:rdf="http://www.w3.org/1999/02/22-rdf-syntax-ns#">
   <cc:Work>
    <dc:type rdf:resource="http://purl.org/dc/dcmitype/StillImage"/>
    <dc:date>2025-05-20T19:43:27.225187</dc:date>
    <dc:format>image/svg+xml</dc:format>
    <dc:creator>
     <cc:Agent>
      <dc:title>Matplotlib v3.9.2, https://matplotlib.org/</dc:title>
     </cc:Agent>
    </dc:creator>
   </cc:Work>
  </rdf:RDF>
 </metadata>
 <defs>
  <style type="text/css">*{stroke-linejoin: round; stroke-linecap: butt}</style>
 </defs>
 <g id="figure_1">
  <g id="patch_1">
   <path d="M 0 576 
L 720 576 
L 720 0 
L 0 0 
L 0 576 
z
" style="fill: none"/>
  </g>
  <g id="patch_2">
   <path d="M 147.24 512.64 
L 590.76 512.64 
L 590.76 69.12 
L 147.24 69.12 
L 147.24 512.64 
z
" style="fill: none"/>
  </g>
  <g id="pane3d_1">
   <g id="patch_3">
    <path d="M 180.728819 403.282182 
L 327.193607 280.512492 
L 325.157607 103.456652 
L 171.683723 215.454902 
" style="fill: none; opacity: 0.5; stroke: #f2f2f2; stroke-linejoin: miter"/>
   </g>
  </g>
  <g id="pane3d_2">
   <g id="patch_4">
    <path d="M 327.193607 280.512492 
L 562.217334 348.82461 
L 570.604503 165.670285 
L 325.157607 103.456652 
" style="fill: none; opacity: 0.5; stroke: #e6e6e6; stroke-linejoin: miter"/>
   </g>
  </g>
  <g id="pane3d_3">
   <g id="patch_5">
    <path d="M 180.728819 403.282182 
L 429.865448 484.650204 
L 562.217334 348.82461 
L 327.193607 280.512492 
" style="fill: none; opacity: 0.5; stroke: #ececec; stroke-linejoin: miter"/>
   </g>
  </g>
  <g id="grid3d_1">
   <g id="Line3DCollection_1">
    <path d="M 206.143659 411.582669 
L 351.263988 287.508801 
L 350.247902 109.81631 
" style="fill: none; stroke: #b0b0b0; stroke-width: 0.8"/>
    <path d="M 257.134033 428.236125 
L 399.491496 301.526634 
L 400.551549 122.566818 
" style="fill: none; stroke: #b0b0b0; stroke-width: 0.8"/>
    <path d="M 309.261035 445.260803 
L 448.703957 315.830753 
L 451.927478 135.589119 
" style="fill: none; stroke: #b0b0b0; stroke-width: 0.8"/>
    <path d="M 362.563097 462.669257 
L 498.931855 330.43002 
L 504.410344 148.891995 
" style="fill: none; stroke: #b0b0b0; stroke-width: 0.8"/>
    <path d="M 417.080406 480.47461 
L 550.206945 345.333664 
L 558.03631 162.484614 
" style="fill: none; stroke: #b0b0b0; stroke-width: 0.8"/>
   </g>
  </g>
  <g id="grid3d_2">
   <g id="Line3DCollection_2">
    <path d="M 172.652592 214.747865 
L 181.649958 402.510064 
L 430.70149 483.79222 
" style="fill: none; stroke: #b0b0b0; stroke-width: 0.8"/>
    <path d="M 207.341904 189.433185 
L 214.659411 374.840887 
L 460.630724 453.077463 
" style="fill: none; stroke: #b0b0b0; stroke-width: 0.8"/>
    <path d="M 240.719879 165.075459 
L 246.474508 348.172841 
L 489.420673 423.531893 
" style="fill: none; stroke: #b0b0b0; stroke-width: 0.8"/>
    <path d="M 272.859495 141.621431 
L 277.15892 322.452558 
L 517.135172 395.089999 
" style="fill: none; stroke: #b0b0b0; stroke-width: 0.8"/>
    <path d="M 303.828415 119.021724 
L 306.771871 297.630396 
L 543.833377 367.691073 
" style="fill: none; stroke: #b0b0b0; stroke-width: 0.8"/>
   </g>
  </g>
  <g id="grid3d_3">
   <g id="Line3DCollection_3">
    <path d="M 562.712043 338.021431 
L 327.073277 270.04826 
L 180.196148 392.220938 
" style="fill: none; stroke: #b0b0b0; stroke-width: 0.8"/>
    <path d="M 564.430911 300.485758 
L 326.655422 233.710528 
L 178.344561 353.771523 
" style="fill: none; stroke: #b0b0b0; stroke-width: 0.8"/>
    <path d="M 566.181547 262.256333 
L 326.230216 196.733506 
L 176.457436 314.584156 
" style="fill: none; stroke: #b0b0b0; stroke-width: 0.8"/>
    <path d="M 567.964841 223.313742 
L 325.797463 159.100174 
L 174.533741 274.637385 
" style="fill: none; stroke: #b0b0b0; stroke-width: 0.8"/>
    <path d="M 569.781716 183.637843 
L 325.35696 120.792902 
L 172.572403 233.908919 
" style="fill: none; stroke: #b0b0b0; stroke-width: 0.8"/>
   </g>
  </g>
  <g id="axis3d_1">
   <g id="line2d_1">
    <path d="M 180.728819 403.282182 
L 429.865448 484.650204 
" style="fill: none; stroke: #000000; stroke-width: 0.8; stroke-linecap: square"/>
   </g>
   <g id="xtick_1">
    <g id="line2d_2">
     <path d="M 207.407588 410.502044 
L 203.610365 413.748565 
" style="fill: none; stroke: #000000; stroke-width: 0.8; stroke-linecap: square"/>
    </g>
    <g id="text_1">
     <!-- −40 -->
     <g transform="translate(185.969167 436.43088) scale(0.12 -0.12)">
      <defs>
       <path id="DejaVuSans-2212" d="M 678 2272 
L 4684 2272 
L 4684 1741 
L 678 1741 
L 678 2272 
z
" transform="scale(0.015625)"/>
       <path id="DejaVuSans-34" d="M 2419 4116 
L 825 1625 
L 2419 1625 
L 2419 4116 
z
M 2253 4666 
L 3047 4666 
L 3047 1625 
L 3713 1625 
L 3713 1100 
L 3047 1100 
L 3047 0 
L 2419 0 
L 2419 1100 
L 313 1100 
L 313 1709 
L 2253 4666 
z
" transform="scale(0.015625)"/>
       <path id="DejaVuSans-30" d="M 2034 4250 
Q 1547 4250 1301 3770 
Q 1056 3291 1056 2328 
Q 1056 1369 1301 889 
Q 1547 409 2034 409 
Q 2525 409 2770 889 
Q 3016 1369 3016 2328 
Q 3016 3291 2770 3770 
Q 2525 4250 2034 4250 
z
M 2034 4750 
Q 2819 4750 3233 4129 
Q 3647 3509 3647 2328 
Q 3647 1150 3233 529 
Q 2819 -91 2034 -91 
Q 1250 -91 836 529 
Q 422 1150 422 2328 
Q 422 3509 836 4129 
Q 1250 4750 2034 4750 
z
" transform="scale(0.015625)"/>
      </defs>
      <use xlink:href="#DejaVuSans-2212"/>
      <use xlink:href="#DejaVuSans-34" x="83.789062"/>
      <use xlink:href="#DejaVuSans-30" x="147.412109"/>
     </g>
    </g>
   </g>
   <g id="xtick_2">
    <g id="line2d_3">
     <path d="M 258.375012 427.131555 
L 254.64668 430.450067 
" style="fill: none; stroke: #000000; stroke-width: 0.8; stroke-linecap: square"/>
    </g>
    <g id="text_2">
     <!-- −20 -->
     <g transform="translate(236.991626 453.295697) scale(0.12 -0.12)">
      <defs>
       <path id="DejaVuSans-32" d="M 1228 531 
L 3431 531 
L 3431 0 
L 469 0 
L 469 531 
Q 828 903 1448 1529 
Q 2069 2156 2228 2338 
Q 2531 2678 2651 2914 
Q 2772 3150 2772 3378 
Q 2772 3750 2511 3984 
Q 2250 4219 1831 4219 
Q 1534 4219 1204 4116 
Q 875 4013 500 3803 
L 500 4441 
Q 881 4594 1212 4672 
Q 1544 4750 1819 4750 
Q 2544 4750 2975 4387 
Q 3406 4025 3406 3419 
Q 3406 3131 3298 2873 
Q 3191 2616 2906 2266 
Q 2828 2175 2409 1742 
Q 1991 1309 1228 531 
z
" transform="scale(0.015625)"/>
      </defs>
      <use xlink:href="#DejaVuSans-2212"/>
      <use xlink:href="#DejaVuSans-32" x="83.789062"/>
      <use xlink:href="#DejaVuSans-30" x="147.412109"/>
     </g>
    </g>
   </g>
   <g id="xtick_3">
    <g id="line2d_4">
     <path d="M 310.477721 444.131483 
L 306.822314 447.524409 
" style="fill: none; stroke: #000000; stroke-width: 0.8; stroke-linecap: square"/>
    </g>
    <g id="text_3">
     <!-- 0 -->
     <g transform="translate(297.999335 470.537305) scale(0.12 -0.12)">
      <use xlink:href="#DejaVuSans-30"/>
     </g>
    </g>
   </g>
   <g id="xtick_4">
    <g id="line2d_5">
     <path d="M 363.754074 461.514345 
L 360.175849 464.984215 
" style="fill: none; stroke: #000000; stroke-width: 0.8; stroke-linecap: square"/>
    </g>
    <g id="text_4">
     <!-- 20 -->
     <g transform="translate(347.522803 488.168475) scale(0.12 -0.12)">
      <use xlink:href="#DejaVuSans-32"/>
      <use xlink:href="#DejaVuSans-30" x="63.623047"/>
     </g>
    </g>
   </g>
   <g id="xtick_5">
    <g id="line2d_6">
     <path d="M 418.244179 479.293227 
L 414.747626 482.842687 
" style="fill: none; stroke: #000000; stroke-width: 0.8; stroke-linecap: square"/>
    </g>
    <g id="text_5">
     <!-- 40 -->
     <g transform="translate(402.082743 506.20256) scale(0.12 -0.12)">
      <use xlink:href="#DejaVuSans-34"/>
      <use xlink:href="#DejaVuSans-30" x="63.623047"/>
     </g>
    </g>
   </g>
   <g id="text_6">
    <!-- PC 1 -->
    <g transform="translate(261.556778 491.505045) scale(0.18 -0.18)">
     <defs>
      <path id="DejaVuSans-50" d="M 1259 4147 
L 1259 2394 
L 2053 2394 
Q 2494 2394 2734 2622 
Q 2975 2850 2975 3272 
Q 2975 3691 2734 3919 
Q 2494 4147 2053 4147 
L 1259 4147 
z
M 628 4666 
L 2053 4666 
Q 2838 4666 3239 4311 
Q 3641 3956 3641 3272 
Q 3641 2581 3239 2228 
Q 2838 1875 2053 1875 
L 1259 1875 
L 1259 0 
L 628 0 
L 628 4666 
z
" transform="scale(0.015625)"/>
      <path id="DejaVuSans-43" d="M 4122 4306 
L 4122 3641 
Q 3803 3938 3442 4084 
Q 3081 4231 2675 4231 
Q 1875 4231 1450 3742 
Q 1025 3253 1025 2328 
Q 1025 1406 1450 917 
Q 1875 428 2675 428 
Q 3081 428 3442 575 
Q 3803 722 4122 1019 
L 4122 359 
Q 3791 134 3420 21 
Q 3050 -91 2638 -91 
Q 1578 -91 968 557 
Q 359 1206 359 2328 
Q 359 3453 968 4101 
Q 1578 4750 2638 4750 
Q 3056 4750 3426 4639 
Q 3797 4528 4122 4306 
z
" transform="scale(0.015625)"/>
      <path id="DejaVuSans-20" transform="scale(0.015625)"/>
      <path id="DejaVuSans-31" d="M 794 531 
L 1825 531 
L 1825 4091 
L 703 3866 
L 703 4441 
L 1819 4666 
L 2450 4666 
L 2450 531 
L 3481 531 
L 3481 0 
L 794 0 
L 794 531 
z
" transform="scale(0.015625)"/>
     </defs>
     <use xlink:href="#DejaVuSans-50"/>
     <use xlink:href="#DejaVuSans-43" x="60.302734"/>
     <use xlink:href="#DejaVuSans-20" x="130.126953"/>
     <use xlink:href="#DejaVuSans-31" x="161.914062"/>
    </g>
   </g>
  </g>
  <g id="axis3d_2">
   <g id="line2d_7">
    <path d="M 562.217334 348.82461 
L 429.865448 484.650204 
" style="fill: none; stroke: #000000; stroke-width: 0.8; stroke-linecap: square"/>
   </g>
   <g id="xtick_6">
    <g id="line2d_8">
     <path d="M 428.602148 483.107065 
L 434.905631 485.164313 
" style="fill: none; stroke: #000000; stroke-width: 0.8; stroke-linecap: square"/>
    </g>
    <g id="text_7">
     <!-- −40 -->
     <g transform="translate(430.983094 506.406324) scale(0.12 -0.12)">
      <use xlink:href="#DejaVuSans-2212"/>
      <use xlink:href="#DejaVuSans-34" x="83.789062"/>
      <use xlink:href="#DejaVuSans-30" x="147.412109"/>
     </g>
    </g>
   </g>
   <g id="xtick_7">
    <g id="line2d_9">
     <path d="M 458.559396 452.418631 
L 464.778664 454.396806 
" style="fill: none; stroke: #000000; stroke-width: 0.8; stroke-linecap: square"/>
    </g>
    <g id="text_8">
     <!-- −20 -->
     <g transform="translate(460.671688 475.418744) scale(0.12 -0.12)">
      <use xlink:href="#DejaVuSans-2212"/>
      <use xlink:href="#DejaVuSans-32" x="83.789062"/>
      <use xlink:href="#DejaVuSans-30" x="147.412109"/>
     </g>
    </g>
   </g>
   <g id="xtick_8">
    <g id="line2d_10">
     <path d="M 487.376765 422.897897 
L 493.513601 424.801471 
" style="fill: none; stroke: #000000; stroke-width: 0.8; stroke-linecap: square"/>
    </g>
    <g id="text_9">
     <!-- 0 -->
     <g transform="translate(498.075074 445.611147) scale(0.12 -0.12)">
      <use xlink:href="#DejaVuSans-30"/>
     </g>
    </g>
   </g>
   <g id="xtick_9">
    <g id="line2d_11">
     <path d="M 515.1181 394.47946 
L 521.174267 396.312576 
" style="fill: none; stroke: #000000; stroke-width: 0.8; stroke-linecap: square"/>
    </g>
    <g id="text_10">
     <!-- 20 -->
     <g transform="translate(521.748498 416.917394) scale(0.12 -0.12)">
      <use xlink:href="#DejaVuSans-32"/>
      <use xlink:href="#DejaVuSans-30" x="63.623047"/>
     </g>
    </g>
   </g>
   <g id="xtick_10">
    <g id="line2d_12">
     <path d="M 541.842566 367.102712 
L 547.819797 368.869211 
" style="fill: none; stroke: #000000; stroke-width: 0.8; stroke-linecap: square"/>
    </g>
    <g id="text_11">
     <!-- 40 -->
     <g transform="translate(548.230988 389.276196) scale(0.12 -0.12)">
      <use xlink:href="#DejaVuSans-34"/>
      <use xlink:href="#DejaVuSans-30" x="63.623047"/>
     </g>
    </g>
   </g>
   <g id="text_12">
    <!-- PC 2 -->
    <g transform="translate(512.139238 453.386049) scale(0.18 -0.18)">
     <use xlink:href="#DejaVuSans-50"/>
     <use xlink:href="#DejaVuSans-43" x="60.302734"/>
     <use xlink:href="#DejaVuSans-20" x="130.126953"/>
     <use xlink:href="#DejaVuSans-32" x="161.914062"/>
    </g>
   </g>
  </g>
  <g id="axis3d_3">
   <g id="line2d_13">
    <path d="M 562.217334 348.82461 
L 570.604503 165.670285 
" style="fill: none; stroke: #000000; stroke-width: 0.8; stroke-linecap: square"/>
   </g>
   <g id="xtick_11">
    <g id="line2d_14">
     <path d="M 560.73414 337.450878 
L 566.672565 339.163897 
" style="fill: none; stroke: #000000; stroke-width: 0.8; stroke-linecap: square"/>
    </g>
    <g id="text_13">
     <!-- −40 -->
     <g transform="translate(568.367078 344.54406) scale(0.12 -0.12)">
      <use xlink:href="#DejaVuSans-2212"/>
      <use xlink:href="#DejaVuSans-34" x="83.789062"/>
      <use xlink:href="#DejaVuSans-30" x="147.412109"/>
     </g>
    </g>
   </g>
   <g id="xtick_12">
    <g id="line2d_15">
     <path d="M 562.434216 299.92502 
L 568.429106 301.608584 
" style="fill: none; stroke: #000000; stroke-width: 0.8; stroke-linecap: square"/>
    </g>
    <g id="text_14">
     <!-- −20 -->
     <g transform="translate(570.250237 307.053068) scale(0.12 -0.12)">
      <use xlink:href="#DejaVuSans-2212"/>
      <use xlink:href="#DejaVuSans-32" x="83.789062"/>
      <use xlink:href="#DejaVuSans-30" x="147.412109"/>
     </g>
    </g>
   </g>
   <g id="xtick_13">
    <g id="line2d_16">
     <path d="M 564.1657 261.705871 
L 570.218138 263.358593 
" style="fill: none; stroke: #000000; stroke-width: 0.8; stroke-linecap: square"/>
    </g>
    <g id="text_15">
     <!-- 0 -->
     <g transform="translate(581.01345 268.870423) scale(0.12 -0.12)">
      <use xlink:href="#DejaVuSans-30"/>
     </g>
    </g>
   </g>
   <g id="xtick_14">
    <g id="line2d_17">
     <path d="M 565.929471 222.77404 
L 572.040571 224.39447 
" style="fill: none; stroke: #000000; stroke-width: 0.8; stroke-linecap: square"/>
    </g>
    <g id="text_16">
     <!-- 20 -->
     <g transform="translate(579.149562 229.976808) scale(0.12 -0.12)">
      <use xlink:href="#DejaVuSans-32"/>
      <use xlink:href="#DejaVuSans-30" x="63.623047"/>
     </g>
    </g>
   </g>
   <g id="xtick_15">
    <g id="line2d_18">
     <path d="M 567.726442 183.109404 
L 573.89735 184.696028 
" style="fill: none; stroke: #000000; stroke-width: 0.8; stroke-linecap: square"/>
    </g>
    <g id="text_17">
     <!-- 40 -->
     <g transform="translate(581.139893 190.352179) scale(0.12 -0.12)">
      <use xlink:href="#DejaVuSans-34"/>
      <use xlink:href="#DejaVuSans-30" x="63.623047"/>
     </g>
    </g>
   </g>
   <g id="text_18">
    <!-- PC 3 -->
    <g transform="translate(596.17243 257.501614) scale(0.18 -0.18)">
     <defs>
      <path id="DejaVuSans-33" d="M 2597 2516 
Q 3050 2419 3304 2112 
Q 3559 1806 3559 1356 
Q 3559 666 3084 287 
Q 2609 -91 1734 -91 
Q 1441 -91 1130 -33 
Q 819 25 488 141 
L 488 750 
Q 750 597 1062 519 
Q 1375 441 1716 441 
Q 2309 441 2620 675 
Q 2931 909 2931 1356 
Q 2931 1769 2642 2001 
Q 2353 2234 1838 2234 
L 1294 2234 
L 1294 2753 
L 1863 2753 
Q 2328 2753 2575 2939 
Q 2822 3125 2822 3475 
Q 2822 3834 2567 4026 
Q 2313 4219 1838 4219 
Q 1578 4219 1281 4162 
Q 984 4106 628 3988 
L 628 4550 
Q 988 4650 1302 4700 
Q 1616 4750 1894 4750 
Q 2613 4750 3031 4423 
Q 3450 4097 3450 3541 
Q 3450 3153 3228 2886 
Q 3006 2619 2597 2516 
z
" transform="scale(0.015625)"/>
     </defs>
     <use xlink:href="#DejaVuSans-50"/>
     <use xlink:href="#DejaVuSans-43" x="60.302734"/>
     <use xlink:href="#DejaVuSans-20" x="130.126953"/>
     <use xlink:href="#DejaVuSans-33" x="161.914062"/>
    </g>
   </g>
  </g>
  <g id="axes_1">
   <g id="line2d_19">
    <path d="M 251.697837 228.849484 
L 251.312533 187.745169 
L 243.242875 170.527458 
L 225.949085 167.369111 
L 204.97136 173.865331 
L 184.06359 195.991258 
L 166.605731 238.834073 
L 154.347181 284.124872 
L 150.559232 318.064284 
L 166.216429 345.59618 
L 187.221139 362.597953 
L 208.516353 365.808121 
L 220.722698 354.819371 
L 225.641416 334.485458 
L 235.96351 306.681224 
L 249.012261 268.775812 
L 251.697837 228.849484 
" clip-path="url(#p998189342c)" style="fill: none; stroke: #808080; stroke-opacity: 0.7; stroke-width: 1.5; stroke-linecap: square"/>
   </g>
   <g id="line2d_20">
    <path d="M 530.847266 469.378944 
L 551.2863 426.100789 
L 582.680994 360.222838 
L 591.869388 298.724894 
L 601.242403 247.187872 
L 597.490721 189.922574 
L 574.129802 167.43405 
L 556.154752 156.206524 
L 546.31669 170.612361 
L 534.394939 223.883179 
L 518.275865 301.969964 
L 506.257609 384.715225 
L 487.382321 460.923436 
L 483.197061 504.832174 
L 496.973804 510.543644 
L 513.757698 501.108376 
L 530.847266 469.378944 
" clip-path="url(#p998189342c)" style="fill: none; stroke: #808080; stroke-opacity: 0.7; stroke-width: 1.5; stroke-linecap: square"/>
   </g>
   <g id="Poly3DCollection_1">
    <path d="M 208.899134 168.759305 
L 195.65094 178.245865 
L 178.754827 163.388631 
L 192.124004 154.032531 
z
" clip-path="url(#p998189342c)" style="fill: #808080; fill-opacity: 0.3"/>
    <path d="M 225.712564 183.519705 
L 212.585946 193.137297 
L 195.65094 178.245865 
L 208.899134 168.759305 
z
" clip-path="url(#p998189342c)" style="fill: #808080; fill-opacity: 0.3"/>
    <path d="M 242.564428 198.313844 
L 229.559977 208.063046 
L 212.585946 193.137297 
L 225.712564 183.519705 
z
" clip-path="url(#p998189342c)" style="fill: #808080; fill-opacity: 0.3"/>
    <path d="M 259.454856 213.141838 
L 246.573169 223.02323 
L 229.559977 208.063046 
L 242.564428 198.313844 
z
" clip-path="url(#p998189342c)" style="fill: #808080; fill-opacity: 0.3"/>
    <path d="M 276.383981 228.003805 
L 263.625657 238.017969 
L 246.573169 223.02323 
L 259.454856 213.141838 
z
" clip-path="url(#p998189342c)" style="fill: #808080; fill-opacity: 0.3"/>
    <path d="M 293.351936 242.89986 
L 280.717579 253.047382 
L 263.625657 238.017969 
L 276.383981 228.003805 
z
" clip-path="url(#p998189342c)" style="fill: #808080; fill-opacity: 0.3"/>
    <path d="M 310.358856 257.830122 
L 297.84907 268.111591 
L 280.717579 253.047382 
L 293.351936 242.89986 
z
" clip-path="url(#p998189342c)" style="fill: #808080; fill-opacity: 0.3"/>
    <path d="M 327.404873 272.794707 
L 315.02027 283.210715 
L 297.84907 268.111591 
L 310.358856 257.830122 
z
" clip-path="url(#p998189342c)" style="fill: #808080; fill-opacity: 0.3"/>
    <path d="M 195.65094 178.245865 
L 182.185612 187.887907 
L 165.166785 172.897899 
L 178.754827 163.388631 
z
" clip-path="url(#p998189342c)" style="fill: #808080; fill-opacity: 0.3"/>
    <path d="M 344.490124 287.793736 
L 332.231314 298.344877 
L 315.02027 283.210715 
L 327.404873 272.794707 
z
" clip-path="url(#p998189342c)" style="fill: #808080; fill-opacity: 0.3"/>
    <path d="M 212.585946 193.137297 
L 199.243934 202.912703 
L 182.185612 187.887907 
L 195.65094 178.245865 
z
" clip-path="url(#p998189342c)" style="fill: #808080; fill-opacity: 0.3"/>
    <path d="M 229.559977 208.063046 
L 216.34189 217.972407 
L 199.243934 202.912703 
L 212.585946 193.137297 
z
" clip-path="url(#p998189342c)" style="fill: #808080; fill-opacity: 0.3"/>
    <path d="M 246.573169 223.02323 
L 233.479616 233.067141 
L 216.34189 217.972407 
L 229.559977 208.063046 
z
" clip-path="url(#p998189342c)" style="fill: #808080; fill-opacity: 0.3"/>
    <path d="M 263.625657 238.017969 
L 250.657253 248.197028 
L 233.479616 233.067141 
L 246.573169 223.02323 
z
" clip-path="url(#p998189342c)" style="fill: #808080; fill-opacity: 0.3"/>
    <path d="M 280.717579 253.047382 
L 267.87494 263.36219 
L 250.657253 248.197028 
L 263.625657 238.017969 
z
" clip-path="url(#p998189342c)" style="fill: #808080; fill-opacity: 0.3"/>
    <path d="M 297.84907 268.111591 
L 285.132817 278.562751 
L 267.87494 263.36219 
L 280.717579 253.047382 
z
" clip-path="url(#p998189342c)" style="fill: #808080; fill-opacity: 0.3"/>
    <path d="M 315.02027 283.210715 
L 302.431024 293.798835 
L 285.132817 278.562751 
L 297.84907 268.111591 
z
" clip-path="url(#p998189342c)" style="fill: #808080; fill-opacity: 0.3"/>
    <path d="M 182.185612 187.887907 
L 168.497766 197.689287 
L 151.354459 182.564126 
L 165.166785 172.897899 
z
" clip-path="url(#p998189342c)" style="fill: #808080; fill-opacity: 0.3"/>
    <path d="M 332.231314 298.344877 
L 319.769704 309.070567 
L 302.431024 293.798835 
L 315.02027 283.210715 
z
" clip-path="url(#p998189342c)" style="fill: #808080; fill-opacity: 0.3"/>
    <path d="M 199.243934 202.912703 
L 185.681185 212.849839 
L 168.497766 197.689287 
L 182.185612 187.887907 
z
" clip-path="url(#p998189342c)" style="fill: #808080; fill-opacity: 0.3"/>
    <path d="M 216.34189 217.972407 
L 202.904859 228.045906 
L 185.681185 212.849839 
L 199.243934 202.912703 
z
" clip-path="url(#p998189342c)" style="fill: #808080; fill-opacity: 0.3"/>
    <path d="M 233.479616 233.067141 
L 220.168929 243.277614 
L 202.904859 228.045906 
L 216.34189 217.972407 
z
" clip-path="url(#p998189342c)" style="fill: #808080; fill-opacity: 0.3"/>
    <path d="M 250.657253 248.197028 
L 237.473537 258.545088 
L 220.168929 243.277614 
L 233.479616 233.067141 
z
" clip-path="url(#p998189342c)" style="fill: #808080; fill-opacity: 0.3"/>
    <path d="M 267.87494 263.36219 
L 254.818826 273.848454 
L 237.473537 258.545088 
L 250.657253 248.197028 
z
" clip-path="url(#p998189342c)" style="fill: #808080; fill-opacity: 0.3"/>
    <path d="M 285.132817 278.562751 
L 272.20494 289.187839 
L 254.818826 273.848454 
L 267.87494 263.36219 
z
" clip-path="url(#p998189342c)" style="fill: #808080; fill-opacity: 0.3"/>
    <path d="M 302.431024 293.798835 
L 289.632023 304.56337 
L 272.20494 289.187839 
L 285.132817 278.562751 
z
" clip-path="url(#p998189342c)" style="fill: #808080; fill-opacity: 0.3"/>
    <path d="M 168.497766 197.689287 
L 154.58184 207.653986 
L 137.312252 192.391231 
L 151.354459 182.564126 
z
" clip-path="url(#p998189342c)" style="fill: #808080; fill-opacity: 0.3"/>
    <path d="M 319.769704 309.070567 
L 307.10022 319.975174 
L 289.632023 304.56337 
L 302.431024 293.798835 
z
" clip-path="url(#p998189342c)" style="fill: #808080; fill-opacity: 0.3"/>
    <path d="M 185.681185 212.849839 
L 171.892175 222.952751 
L 154.58184 207.653986 
L 168.497766 197.689287 
z
" clip-path="url(#p998189342c)" style="fill: #808080; fill-opacity: 0.3"/>
    <path d="M 202.904859 228.045906 
L 189.2434 238.287656 
L 171.892175 222.952751 
L 185.681185 212.849839 
z
" clip-path="url(#p998189342c)" style="fill: #808080; fill-opacity: 0.3"/>
    <path d="M 220.168929 243.277614 
L 206.63566 253.658827 
L 189.2434 238.287656 
L 202.904859 228.045906 
z
" clip-path="url(#p998189342c)" style="fill: #808080; fill-opacity: 0.3"/>
    <path d="M 237.473537 258.545088 
L 224.069102 269.066394 
L 206.63566 253.658827 
L 220.168929 243.277614 
z
" clip-path="url(#p998189342c)" style="fill: #808080; fill-opacity: 0.3"/>
    <path d="M 254.818826 273.848454 
L 241.543871 284.510485 
L 224.069102 269.066394 
L 237.473537 258.545088 
z
" clip-path="url(#p998189342c)" style="fill: #808080; fill-opacity: 0.3"/>
    <path d="M 272.20494 289.187839 
L 259.060114 299.991232 
L 241.543871 284.510485 
L 254.818826 273.848454 
z
" clip-path="url(#p998189342c)" style="fill: #808080; fill-opacity: 0.3"/>
    <path d="M 289.632023 304.56337 
L 276.61798 315.508764 
L 259.060114 299.991232 
L 272.20494 289.187839 
z
" clip-path="url(#p998189342c)" style="fill: #808080; fill-opacity: 0.3"/>
    <path d="M 154.58184 207.653986 
L 140.432087 217.78612 
L 123.034374 202.383263 
L 137.312252 192.391231 
z
" clip-path="url(#p998189342c)" style="fill: #808080; fill-opacity: 0.3"/>
    <path d="M 307.10022 319.975174 
L 294.217617 331.063213 
L 276.61798 315.508764 
L 289.632023 304.56337 
z
" clip-path="url(#p998189342c)" style="fill: #808080; fill-opacity: 0.3"/>
    <path d="M 171.892175 222.952751 
L 157.871194 233.225624 
L 140.432087 217.78612 
L 154.58184 207.653986 
z
" clip-path="url(#p998189342c)" style="fill: #808080; fill-opacity: 0.3"/>
    <path d="M 189.2434 238.287656 
L 175.351842 248.701906 
L 157.871194 233.225624 
L 171.892175 222.952751 
z
" clip-path="url(#p998189342c)" style="fill: #808080; fill-opacity: 0.3"/>
    <path d="M 206.63566 253.658827 
L 192.87418 264.215098 
L 175.351842 248.701906 
L 189.2434 238.287656 
z
" clip-path="url(#p998189342c)" style="fill: #808080; fill-opacity: 0.3"/>
    <path d="M 224.069102 269.066394 
L 210.438357 279.765332 
L 192.87418 264.215098 
L 206.63566 253.658827 
z
" clip-path="url(#p998189342c)" style="fill: #808080; fill-opacity: 0.3"/>
    <path d="M 241.543871 284.510485 
L 228.044524 295.35274 
L 210.438357 279.765332 
L 224.069102 269.066394 
z
" clip-path="url(#p998189342c)" style="fill: #808080; fill-opacity: 0.3"/>
    <path d="M 259.060114 299.991232 
L 245.692831 310.977457 
L 228.044524 295.35274 
L 241.543871 284.510485 
z
" clip-path="url(#p998189342c)" style="fill: #808080; fill-opacity: 0.3"/>
    <path d="M 276.61798 315.508764 
L 263.383429 326.639615 
L 245.692831 310.977457 
L 259.060114 299.991232 
z
" clip-path="url(#p998189342c)" style="fill: #808080; fill-opacity: 0.3"/>
    <path d="M 140.432087 217.78612 
L 126.042563 228.089946 
L 108.514844 212.544411 
L 123.034374 202.383263 
z
" clip-path="url(#p998189342c)" style="fill: #808080; fill-opacity: 0.3"/>
    <path d="M 294.217617 331.063213 
L 281.116471 342.339351 
L 263.383429 326.639615 
L 276.61798 315.508764 
z
" clip-path="url(#p998189342c)" style="fill: #808080; fill-opacity: 0.3"/>
    <path d="M 157.871194 233.225624 
L 143.612339 243.672782 
L 126.042563 228.089946 
L 140.432087 217.78612 
z
" clip-path="url(#p998189342c)" style="fill: #808080; fill-opacity: 0.3"/>
    <path d="M 175.351842 248.701906 
L 161.224322 259.293053 
L 143.612339 243.672782 
L 157.871194 233.225624 
z
" clip-path="url(#p998189342c)" style="fill: #808080; fill-opacity: 0.3"/>
    <path d="M 192.87418 264.215098 
L 178.878667 274.950893 
L 161.224322 259.293053 
L 175.351842 248.701906 
z
" clip-path="url(#p998189342c)" style="fill: #808080; fill-opacity: 0.3"/>
    <path d="M 210.438357 279.765332 
L 196.575524 290.646439 
L 178.878667 274.950893 
L 192.87418 264.215098 
z
" clip-path="url(#p998189342c)" style="fill: #808080; fill-opacity: 0.3"/>
    <path d="M 228.044524 295.35274 
L 214.315049 306.379827 
L 196.575524 290.646439 
L 210.438357 279.765332 
z
" clip-path="url(#p998189342c)" style="fill: #808080; fill-opacity: 0.3"/>
    <path d="M 245.692831 310.977457 
L 232.097395 322.151194 
L 214.315049 306.379827 
L 228.044524 295.35274 
z
" clip-path="url(#p998189342c)" style="fill: #808080; fill-opacity: 0.3"/>
    <path d="M 263.383429 326.639615 
L 249.922718 337.960677 
L 232.097395 322.151194 
L 245.692831 310.977457 
z
" clip-path="url(#p998189342c)" style="fill: #808080; fill-opacity: 0.3"/>
    <path d="M 126.042563 228.089946 
L 111.407121 238.569866 
L 93.747473 222.879004 
L 108.514844 212.544411 
z
" clip-path="url(#p998189342c)" style="fill: #808080; fill-opacity: 0.3"/>
    <path d="M 281.116471 342.339351 
L 267.791174 353.808416 
L 249.922718 337.960677 
L 263.383429 326.639615 
z
" clip-path="url(#p998189342c)" style="fill: #808080; fill-opacity: 0.3"/>
    <path d="M 143.612339 243.672782 
L 129.109504 254.298699 
L 111.407121 238.569866 
L 126.042563 228.089946 
z
" clip-path="url(#p998189342c)" style="fill: #808080; fill-opacity: 0.3"/>
    <path d="M 161.224322 259.293053 
L 146.854778 270.065641 
L 129.109504 254.298699 
L 143.612339 243.672782 
z
" clip-path="url(#p998189342c)" style="fill: #808080; fill-opacity: 0.3"/>
    <path d="M 178.878667 274.950893 
L 164.643099 285.870831 
L 146.854778 270.065641 
L 161.224322 259.293053 
z
" clip-path="url(#p998189342c)" style="fill: #808080; fill-opacity: 0.3"/>
    <path d="M 196.575524 290.646439 
L 182.474623 301.714409 
L 164.643099 285.870831 
L 178.878667 274.950893 
z
" clip-path="url(#p998189342c)" style="fill: #808080; fill-opacity: 0.3"/>
    <path d="M 214.315049 306.379827 
L 200.34951 317.596513 
L 182.474623 301.714409 
L 196.575524 290.646439 
z
" clip-path="url(#p998189342c)" style="fill: #808080; fill-opacity: 0.3"/>
    <path d="M 232.097395 322.151194 
L 218.267916 333.517286 
L 200.34951 317.596513 
L 214.315049 306.379827 
z
" clip-path="url(#p998189342c)" style="fill: #808080; fill-opacity: 0.3"/>
    <path d="M 249.922718 337.960677 
L 236.23 349.476868 
L 218.267916 333.517286 
L 232.097395 322.151194 
z
" clip-path="url(#p998189342c)" style="fill: #808080; fill-opacity: 0.3"/>
    <path d="M 111.407121 238.569866 
L 96.519402 249.230431 
L 78.725862 233.391521 
L 93.747473 222.879004 
z
" clip-path="url(#p998189342c)" style="fill: #808080; fill-opacity: 0.3"/>
    <path d="M 267.791174 353.808416 
L 254.235924 365.475401 
L 236.23 349.476868 
L 249.922718 337.960677 
z
" clip-path="url(#p998189342c)" style="fill: #808080; fill-opacity: 0.3"/>
    <path d="M 129.109504 254.298699 
L 114.356373 265.108001 
L 96.519402 249.230431 
L 111.407121 238.569866 
z
" clip-path="url(#p998189342c)" style="fill: #808080; fill-opacity: 0.3"/>
    <path d="M 146.854778 270.065641 
L 132.236935 281.024374 
L 114.356373 265.108001 
L 129.109504 254.298699 
z
" clip-path="url(#p998189342c)" style="fill: #808080; fill-opacity: 0.3"/>
    <path d="M 164.643099 285.870831 
L 150.161247 296.979691 
L 132.236935 281.024374 
L 146.854778 270.065641 
z
" clip-path="url(#p998189342c)" style="fill: #808080; fill-opacity: 0.3"/>
    <path d="M 182.474623 301.714409 
L 168.12947 312.974095 
L 150.161247 296.979691 
L 164.643099 285.870831 
z
" clip-path="url(#p998189342c)" style="fill: #808080; fill-opacity: 0.3"/>
    <path d="M 200.34951 317.596513 
L 186.141765 329.007731 
L 168.12947 312.974095 
L 182.474623 301.714409 
z
" clip-path="url(#p998189342c)" style="fill: #808080; fill-opacity: 0.3"/>
    <path d="M 218.267916 333.517286 
L 204.198296 345.080742 
L 186.141765 329.007731 
L 200.34951 317.596513 
z
" clip-path="url(#p998189342c)" style="fill: #808080; fill-opacity: 0.3"/>
    <path d="M 236.23 349.476868 
L 222.299225 361.193275 
L 204.198296 345.080742 
L 218.267916 333.517286 
z
" clip-path="url(#p998189342c)" style="fill: #808080; fill-opacity: 0.3"/>
    <path d="M 96.519402 249.230431 
L 81.372828 260.076354 
L 63.443388 244.086596 
L 78.725862 233.391521 
z
" clip-path="url(#p998189342c)" style="fill: #808080; fill-opacity: 0.3"/>
    <path d="M 254.235924 365.475401 
L 240.444716 377.345474 
L 222.299225 361.193275 
L 236.23 349.476868 
z
" clip-path="url(#p998189342c)" style="fill: #808080; fill-opacity: 0.3"/>
    <path d="M 114.356373 265.108001 
L 99.346411 276.105479 
L 81.372828 260.076354 
L 96.519402 249.230431 
z
" clip-path="url(#p998189342c)" style="fill: #808080; fill-opacity: 0.3"/>
    <path d="M 132.236935 281.024374 
L 117.364302 292.174119 
L 99.346411 276.105479 
L 114.356373 265.108001 
z
" clip-path="url(#p998189342c)" style="fill: #808080; fill-opacity: 0.3"/>
    <path d="M 150.161247 296.979691 
L 135.426664 308.282418 
L 117.364302 292.174119 
L 132.236935 281.024374 
z
" clip-path="url(#p998189342c)" style="fill: #808080; fill-opacity: 0.3"/>
    <path d="M 168.12947 312.974095 
L 153.533661 324.430524 
L 135.426664 308.282418 
L 150.161247 296.979691 
z
" clip-path="url(#p998189342c)" style="fill: #808080; fill-opacity: 0.3"/>
    <path d="M 186.141765 329.007731 
L 171.68546 340.618585 
L 153.533661 324.430524 
L 168.12947 312.974095 
z
" clip-path="url(#p998189342c)" style="fill: #808080; fill-opacity: 0.3"/>
    <path d="M 204.198296 345.080742 
L 189.882227 356.84675 
L 171.68546 340.618585 
L 186.141765 329.007731 
z
" clip-path="url(#p998189342c)" style="fill: #808080; fill-opacity: 0.3"/>
    <path d="M 222.299225 361.193275 
L 208.12413 373.115166 
L 189.882227 356.84675 
L 204.198296 345.080742 
z
" clip-path="url(#p998189342c)" style="fill: #808080; fill-opacity: 0.3"/>
    <path d="M 240.444716 377.345474 
L 226.411336 389.423986 
L 208.12413 373.115166 
L 222.299225 361.193275 
z
" clip-path="url(#p998189342c)" style="fill: #808080; fill-opacity: 0.3"/>
   </g>
   <g id="Path3DCollection_1">
    <defs>
     <path id="C0_0_fc4e24aea7" d="M 0 5.477226 
C 1.452577 5.477226 2.845856 4.900111 3.872983 3.872983 
C 4.900111 2.845856 5.477226 1.452577 5.477226 -0 
C 5.477226 -1.452577 4.900111 -2.845856 3.872983 -3.872983 
C 2.845856 -4.900111 1.452577 -5.477226 0 -5.477226 
C -1.452577 -5.477226 -2.845856 -4.900111 -3.872983 -3.872983 
C -4.900111 -2.845856 -5.477226 -1.452577 -5.477226 0 
C -5.477226 1.452577 -4.900111 2.845856 -3.872983 3.872983 
C -2.845856 4.900111 -1.452577 5.477226 0 5.477226 
z
"/>
    </defs>
    <g clip-path="url(#p998189342c)">
     <use xlink:href="#C0_0_fc4e24aea7" x="243.242875" y="170.527458" style="fill: #ffc300; fill-opacity: 0.3; stroke: #ffc300; stroke-opacity: 0.3"/>
    </g>
    <g clip-path="url(#p998189342c)">
     <use xlink:href="#C0_0_fc4e24aea7" x="251.312533" y="187.745169" style="fill: #ff6400; fill-opacity: 0.301264; stroke: #ff6400; stroke-opacity: 0.301264"/>
    </g>
    <g clip-path="url(#p998189342c)">
     <use xlink:href="#C0_0_fc4e24aea7" x="225.949085" y="167.369111" style="fill: #d1ff00; fill-opacity: 0.363933; stroke: #d1ff00; stroke-opacity: 0.363933"/>
    </g>
    <g clip-path="url(#p998189342c)">
     <use xlink:href="#C0_0_fc4e24aea7" x="251.697837" y="228.849484" style="fill: #ff0000; fill-opacity: 0.416072; stroke: #ff0000; stroke-opacity: 0.416072"/>
    </g>
    <g clip-path="url(#p998189342c)">
     <use xlink:href="#C0_0_fc4e24aea7" x="204.97136" y="173.865331" style="fill: #6cff00; fill-opacity: 0.435033; stroke: #6cff00; stroke-opacity: 0.435033"/>
    </g>
    <g clip-path="url(#p998189342c)">
     <use xlink:href="#C0_0_fc4e24aea7" x="249.012261" y="268.775812" style="fill: #ff0018; fill-opacity: 0.556309; stroke: #ff0018; stroke-opacity: 0.556309"/>
    </g>
    <g clip-path="url(#p998189342c)">
     <use xlink:href="#C0_0_fc4e24aea7" x="184.06359" y="195.991258" style="fill: #0eff00; fill-opacity: 0.560809; stroke: #0eff00; stroke-opacity: 0.560809"/>
    </g>
    <g clip-path="url(#p998189342c)">
     <use xlink:href="#C0_0_fc4e24aea7" x="166.605731" y="238.834073" style="fill: #00ff5c; fill-opacity: 0.659505; stroke: #00ff5c; stroke-opacity: 0.659505"/>
    </g>
    <g clip-path="url(#p998189342c)">
     <use xlink:href="#C0_0_fc4e24aea7" x="235.96351" y="306.681224" style="fill: #ff007c; fill-opacity: 0.719762; stroke: #ff007c; stroke-opacity: 0.719762"/>
    </g>
    <g clip-path="url(#p998189342c)">
     <use xlink:href="#C0_0_fc4e24aea7" x="154.347181" y="284.124872" style="fill: #00ffc1; fill-opacity: 0.774528; stroke: #00ffc1; stroke-opacity: 0.774528"/>
    </g>
    <g clip-path="url(#p998189342c)">
     <use xlink:href="#C0_0_fc4e24aea7" x="225.641416" y="334.485458" style="fill: #ff00e1; fill-opacity: 0.854083; stroke: #ff00e1; stroke-opacity: 0.854083"/>
    </g>
    <g clip-path="url(#p998189342c)">
     <use xlink:href="#C0_0_fc4e24aea7" x="150.559232" y="318.064284" style="fill: #00d9ff; fill-opacity: 0.88009; stroke: #00d9ff; stroke-opacity: 0.88009"/>
    </g>
    <g clip-path="url(#p998189342c)">
     <use xlink:href="#C0_0_fc4e24aea7" x="166.216429" y="345.59618" style="fill: #0074ff; fill-opacity: 0.937936; stroke: #0074ff; stroke-opacity: 0.937936"/>
    </g>
    <g clip-path="url(#p998189342c)">
     <use xlink:href="#C0_0_fc4e24aea7" x="220.722698" y="354.819371" style="fill: #b900ff; fill-opacity: 0.962144; stroke: #b900ff; stroke-opacity: 0.962144"/>
    </g>
    <g clip-path="url(#p998189342c)">
     <use xlink:href="#C0_0_fc4e24aea7" x="208.516353" y="365.808121" style="fill: #5400ff; fill-opacity: 0.984705; stroke: #5400ff; stroke-opacity: 0.984705"/>
    </g>
    <g clip-path="url(#p998189342c)">
     <use xlink:href="#C0_0_fc4e24aea7" x="187.221139" y="362.597953" style="fill: #020cff; stroke: #020cff"/>
    </g>
   </g>
   <g id="Poly3DCollection_2">
    <path d="M 567.058509 351.379548 
L 560.838321 364.402034 
L 562.13504 347.970497 
L 568.36952 335.039617 
z
" clip-path="url(#p998189342c)" style="fill: #808080; fill-opacity: 0.3"/>
    <path d="M 568.36952 335.039617 
L 562.13504 347.970497 
L 563.44265 331.400961 
L 569.691443 318.563677 
z
" clip-path="url(#p998189342c)" style="fill: #808080; fill-opacity: 0.3"/>
    <path d="M 569.691443 318.563677 
L 563.44265 331.400961 
L 564.761288 314.691681 
L 571.024416 301.950024 
z
" clip-path="url(#p998189342c)" style="fill: #808080; fill-opacity: 0.3"/>
    <path d="M 560.838321 364.402034 
L 554.506398 377.658446 
L 555.788097 361.134638 
L 562.13504 347.970497 
z
" clip-path="url(#p998189342c)" style="fill: #808080; fill-opacity: 0.3"/>
    <path d="M 571.024416 301.950024 
L 564.761288 314.691681 
L 566.091094 297.84088 
L 572.368577 285.196922 
z
" clip-path="url(#p998189342c)" style="fill: #808080; fill-opacity: 0.3"/>
    <path d="M 562.13504 347.970497 
L 555.788097 361.134638 
L 557.080657 344.470799 
L 563.44265 331.400961 
z
" clip-path="url(#p998189342c)" style="fill: #808080; fill-opacity: 0.3"/>
    <path d="M 572.368577 285.196922 
L 566.091094 297.84088 
L 567.432211 280.846754 
L 573.724068 268.30261 
z
" clip-path="url(#p998189342c)" style="fill: #808080; fill-opacity: 0.3"/>
    <path d="M 563.44265 331.400961 
L 557.080657 344.470799 
L 558.384217 327.665142 
L 564.761288 314.691681 
z
" clip-path="url(#p998189342c)" style="fill: #808080; fill-opacity: 0.3"/>
    <path d="M 554.506398 377.658446 
L 548.059702 391.155146 
L 549.325617 374.53841 
L 555.788097 361.134638 
z
" clip-path="url(#p998189342c)" style="fill: #808080; fill-opacity: 0.3"/>
    <path d="M 573.724068 268.30261 
L 567.432211 280.846754 
L 568.784784 263.707465 
L 575.091033 251.265293 
z
" clip-path="url(#p998189342c)" style="fill: #808080; fill-opacity: 0.3"/>
    <path d="M 564.761288 314.691681 
L 558.384217 327.665142 
L 559.698919 310.715847 
L 566.091094 297.84088 
z
" clip-path="url(#p998189342c)" style="fill: #808080; fill-opacity: 0.3"/>
    <path d="M 555.788097 361.134638 
L 549.325617 374.53841 
L 550.602359 357.779569 
L 557.080657 344.470799 
z
" clip-path="url(#p998189342c)" style="fill: #808080; fill-opacity: 0.3"/>
    <path d="M 575.091033 251.265293 
L 568.784784 263.707465 
L 570.14896 246.421147 
L 576.469618 234.08315 
z
" clip-path="url(#p998189342c)" style="fill: #808080; fill-opacity: 0.3"/>
    <path d="M 566.091094 297.84088 
L 559.698919 310.715847 
L 561.024906 293.621067 
L 567.432211 280.846754 
z
" clip-path="url(#p998189342c)" style="fill: #808080; fill-opacity: 0.3"/>
    <path d="M 557.080657 344.470799 
L 550.602359 357.779569 
L 551.890066 340.876791 
L 558.384217 327.665142 
z
" clip-path="url(#p998189342c)" style="fill: #808080; fill-opacity: 0.3"/>
    <path d="M 548.059702 391.155146 
L 541.495084 404.898726 
L 542.74442 388.188416 
L 549.325617 374.53841 
z
" clip-path="url(#p998189342c)" style="fill: #808080; fill-opacity: 0.3"/>
    <path d="M 576.469618 234.08315 
L 570.14896 246.421147 
L 571.524888 228.985898 
L 577.859971 216.754324 
z
" clip-path="url(#p998189342c)" style="fill: #808080; fill-opacity: 0.3"/>
    <path d="M 567.432211 280.846754 
L 561.024906 293.621067 
L 562.362324 276.37892 
L 568.784784 263.707465 
z
" clip-path="url(#p998189342c)" style="fill: #808080; fill-opacity: 0.3"/>
    <path d="M 558.384217 327.665142 
L 551.890066 340.876791 
L 553.188881 323.828214 
L 559.698919 310.715847 
z
" clip-path="url(#p998189342c)" style="fill: #808080; fill-opacity: 0.3"/>
    <path d="M 549.325617 374.53841 
L 542.74442 388.188416 
L 544.004538 371.333882 
L 550.602359 357.779569 
z
" clip-path="url(#p998189342c)" style="fill: #808080; fill-opacity: 0.3"/>
    <path d="M 577.859971 216.754324 
L 571.524888 228.985898 
L 572.912723 211.399787 
L 579.262245 199.276931 
z
" clip-path="url(#p998189342c)" style="fill: #808080; fill-opacity: 0.3"/>
    <path d="M 568.784784 263.707465 
L 562.362324 276.37892 
L 563.711321 258.987491 
L 570.14896 246.421147 
z
" clip-path="url(#p998189342c)" style="fill: #808080; fill-opacity: 0.3"/>
    <path d="M 559.698919 310.715847 
L 553.188881 323.828214 
L 554.498947 306.631944 
L 561.024906 293.621067 
z
" clip-path="url(#p998189342c)" style="fill: #808080; fill-opacity: 0.3"/>
    <path d="M 550.602359 357.779569 
L 544.004538 371.333882 
L 545.27558 354.333248 
L 551.890066 340.876791 
z
" clip-path="url(#p998189342c)" style="fill: #808080; fill-opacity: 0.3"/>
    <path d="M 541.495084 404.898726 
L 534.809278 418.896023 
L 536.041201 402.091504 
L 542.74442 388.188416 
z
" clip-path="url(#p998189342c)" style="fill: #808080; fill-opacity: 0.3"/>
    <path d="M 570.14896 246.421147 
L 563.711321 258.987491 
L 565.072048 241.444834 
L 571.524888 228.985898 
z
" clip-path="url(#p998189342c)" style="fill: #808080; fill-opacity: 0.3"/>
    <path d="M 561.024906 293.621067 
L 554.498947 306.631944 
L 555.820411 289.286054 
L 562.362324 276.37892 
z
" clip-path="url(#p998189342c)" style="fill: #808080; fill-opacity: 0.3"/>
    <path d="M 551.890066 340.876791 
L 545.27558 354.333248 
L 546.557687 337.184607 
L 553.188881 323.828214 
z
" clip-path="url(#p998189342c)" style="fill: #808080; fill-opacity: 0.3"/>
    <path d="M 542.74442 388.188416 
L 536.041201 402.091504 
L 537.283856 385.140597 
L 544.004538 371.333882 
z
" clip-path="url(#p998189342c)" style="fill: #808080; fill-opacity: 0.3"/>
    <path d="M 571.524888 228.985898 
L 565.072048 241.444834 
L 566.44466 223.748968 
L 572.912723 211.399787 
z
" clip-path="url(#p998189342c)" style="fill: #808080; fill-opacity: 0.3"/>
    <path d="M 562.362324 276.37892 
L 555.820411 289.286054 
L 557.153424 271.788581 
L 563.711321 258.987491 
z
" clip-path="url(#p998189342c)" style="fill: #808080; fill-opacity: 0.3"/>
    <path d="M 553.188881 323.828214 
L 546.557687 337.184607 
L 547.851005 319.886017 
L 554.498947 306.631944 
z
" clip-path="url(#p998189342c)" style="fill: #808080; fill-opacity: 0.3"/>
    <path d="M 544.004538 371.333882 
L 537.283856 385.140597 
L 538.537383 368.041381 
L 545.27558 354.333248 
z
" clip-path="url(#p998189342c)" style="fill: #808080; fill-opacity: 0.3"/>
    <path d="M 534.809278 418.896023 
L 527.998897 433.154127 
L 529.212537 416.254778 
L 536.041201 402.091504 
z
" clip-path="url(#p998189342c)" style="fill: #808080; fill-opacity: 0.3"/>
    <path d="M 563.711321 258.987491 
L 557.153424 271.788581 
L 558.498137 254.13753 
L 565.072048 241.444834 
z
" clip-path="url(#p998189342c)" style="fill: #808080; fill-opacity: 0.3"/>
    <path d="M 554.498947 306.631944 
L 547.851005 319.886017 
L 549.155682 302.435504 
L 555.820411 289.286054 
z
" clip-path="url(#p998189342c)" style="fill: #808080; fill-opacity: 0.3"/>
    <path d="M 545.27558 354.333248 
L 538.537383 368.041381 
L 539.801926 350.791902 
L 546.557687 337.184607 
z
" clip-path="url(#p998189342c)" style="fill: #808080; fill-opacity: 0.3"/>
    <path d="M 536.041201 402.091504 
L 529.212537 416.254778 
L 530.436848 399.206831 
L 537.283856 385.140597 
z
" clip-path="url(#p998189342c)" style="fill: #808080; fill-opacity: 0.3"/>
    <path d="M 565.072048 241.444834 
L 558.498137 254.13753 
L 559.854705 236.330871 
L 566.44466 223.748968 
z
" clip-path="url(#p998189342c)" style="fill: #808080; fill-opacity: 0.3"/>
    <path d="M 555.820411 289.286054 
L 549.155682 302.435504 
L 550.471868 284.831056 
L 557.153424 271.788581 
z
" clip-path="url(#p998189342c)" style="fill: #808080; fill-opacity: 0.3"/>
    <path d="M 546.557687 337.184607 
L 539.801926 350.791902 
L 541.07763 333.390169 
L 547.851005 319.886017 
z
" clip-path="url(#p998189342c)" style="fill: #808080; fill-opacity: 0.3"/>
    <path d="M 537.283856 385.140597 
L 530.436848 399.206831 
L 531.671972 382.008318 
L 538.537383 368.041381 
z
" clip-path="url(#p998189342c)" style="fill: #808080; fill-opacity: 0.3"/>
    <path d="M 527.998897 433.154127 
L 521.060427 447.680397 
L 522.254872 430.68561 
L 529.212537 416.254778 
z
" clip-path="url(#p998189342c)" style="fill: #808080; fill-opacity: 0.3"/>
    <path d="M 557.153424 271.788581 
L 550.471868 284.831056 
L 551.799715 267.070629 
L 558.498137 254.13753 
z
" clip-path="url(#p998189342c)" style="fill: #808080; fill-opacity: 0.3"/>
    <path d="M 547.851005 319.886017 
L 541.07763 333.390169 
L 542.364645 315.834159 
L 549.155682 302.435504 
z
" clip-path="url(#p998189342c)" style="fill: #808080; fill-opacity: 0.3"/>
    <path d="M 538.537383 368.041381 
L 531.671972 382.008318 
L 532.918053 364.657236 
L 539.801926 350.791902 
z
" clip-path="url(#p998189342c)" style="fill: #808080; fill-opacity: 0.3"/>
    <path d="M 529.212537 416.254778 
L 522.254872 430.68561 
L 523.459918 413.53997 
L 530.436848 399.206831 
z
" clip-path="url(#p998189342c)" style="fill: #808080; fill-opacity: 0.3"/>
    <path d="M 558.498137 254.13753 
L 551.799715 267.070629 
L 553.139379 249.152139 
L 559.854705 236.330871 
z
" clip-path="url(#p998189342c)" style="fill: #808080; fill-opacity: 0.3"/>
    <path d="M 549.155682 302.435504 
L 542.364645 315.834159 
L 543.66312 298.121809 
L 550.471868 284.831056 
z
" clip-path="url(#p998189342c)" style="fill: #808080; fill-opacity: 0.3"/>
    <path d="M 539.801926 350.791902 
L 532.918053 364.657236 
L 534.175237 347.151546 
L 541.07763 333.390169 
z
" clip-path="url(#p998189342c)" style="fill: #808080; fill-opacity: 0.3"/>
    <path d="M 530.436848 399.206831 
L 523.459918 413.53997 
L 524.67571 396.241457 
L 531.671972 382.008318 
z
" clip-path="url(#p998189342c)" style="fill: #808080; fill-opacity: 0.3"/>
    <path d="M 521.060427 447.680397 
L 513.99022 462.482469 
L 515.164516 445.391656 
L 522.254872 430.68561 
z
" clip-path="url(#p998189342c)" style="fill: #808080; fill-opacity: 0.3"/>
    <path d="M 550.471868 284.831056 
L 543.66312 298.121809 
L 544.97321 280.251024 
L 551.799715 267.070629 
z
" clip-path="url(#p998189342c)" style="fill: #808080; fill-opacity: 0.3"/>
    <path d="M 541.07763 333.390169 
L 534.175237 347.151546 
L 535.443674 329.489171 
L 542.364645 315.834159 
z
" clip-path="url(#p998189342c)" style="fill: #808080; fill-opacity: 0.3"/>
    <path d="M 531.671972 382.008318 
L 524.67571 396.241457 
L 525.902389 378.78802 
L 532.918053 364.657236 
z
" clip-path="url(#p998189342c)" style="fill: #808080; fill-opacity: 0.3"/>
    <path d="M 522.254872 430.68561 
L 515.164516 445.391656 
L 516.349335 428.147684 
L 523.459918 413.53997 
z
" clip-path="url(#p998189342c)" style="fill: #808080; fill-opacity: 0.3"/>
    <path d="M 551.799715 267.070629 
L 544.97321 280.251024 
L 546.295072 262.219666 
L 553.139379 249.152139 
z
" clip-path="url(#p998189342c)" style="fill: #808080; fill-opacity: 0.3"/>
    <path d="M 542.364645 315.834159 
L 535.443674 329.489171 
L 536.723515 311.667998 
L 543.66312 298.121809 
z
" clip-path="url(#p998189342c)" style="fill: #808080; fill-opacity: 0.3"/>
    <path d="M 532.918053 364.657236 
L 525.902389 378.78802 
L 527.140105 361.177566 
L 534.175237 347.151546 
z
" clip-path="url(#p998189342c)" style="fill: #808080; fill-opacity: 0.3"/>
    <path d="M 523.459918 413.53997 
L 516.349335 428.147684 
L 517.544819 410.748483 
L 524.67571 396.241457 
z
" clip-path="url(#p998189342c)" style="fill: #808080; fill-opacity: 0.3"/>
    <path d="M 513.99022 462.482469 
L 506.784488 477.568275 
L 507.937636 460.380864 
L 515.164516 445.391656 
z
" clip-path="url(#p998189342c)" style="fill: #808080; fill-opacity: 0.3"/>
    <path d="M 543.66312 298.121809 
L 536.723515 311.667998 
L 538.014914 293.685877 
L 544.97321 280.251024 
z
" clip-path="url(#p998189342c)" style="fill: #808080; fill-opacity: 0.3"/>
    <path d="M 534.175237 347.151546 
L 527.140105 361.177566 
L 528.389005 343.407968 
L 535.443674 329.489171 
z
" clip-path="url(#p998189342c)" style="fill: #808080; fill-opacity: 0.3"/>
    <path d="M 524.67571 396.241457 
L 517.544819 410.748483 
L 518.751114 393.191949 
L 525.902389 378.78802 
z
" clip-path="url(#p998189342c)" style="fill: #808080; fill-opacity: 0.3"/>
    <path d="M 515.164516 445.391656 
L 507.937636 460.380864 
L 509.101219 443.037938 
L 516.349335 428.147684 
z
" clip-path="url(#p998189342c)" style="fill: #808080; fill-opacity: 0.3"/>
    <path d="M 544.97321 280.251024 
L 538.014914 293.685877 
L 539.31803 275.540618 
L 546.295072 262.219666 
z
" clip-path="url(#p998189342c)" style="fill: #808080; fill-opacity: 0.3"/>
    <path d="M 535.443674 329.489171 
L 528.389005 343.407968 
L 529.649243 325.477058 
L 536.723515 311.667998 
z
" clip-path="url(#p998189342c)" style="fill: #808080; fill-opacity: 0.3"/>
    <path d="M 525.902389 378.78802 
L 518.751114 393.191949 
L 519.968366 375.475939 
L 527.140105 361.177566 
z
" clip-path="url(#p998189342c)" style="fill: #808080; fill-opacity: 0.3"/>
    <path d="M 516.349335 428.147684 
L 509.101219 443.037938 
L 510.275377 425.537377 
L 517.544819 410.748483 
z
" clip-path="url(#p998189342c)" style="fill: #808080; fill-opacity: 0.3"/>
    <path d="M 536.723515 311.667998 
L 529.649243 325.477058 
L 530.920973 307.38263 
L 538.014914 293.685877 
z
" clip-path="url(#p998189342c)" style="fill: #808080; fill-opacity: 0.3"/>
    <path d="M 527.140105 361.177566 
L 519.968366 375.475939 
L 521.196726 357.598268 
L 528.389005 343.407968 
z
" clip-path="url(#p998189342c)" style="fill: #808080; fill-opacity: 0.3"/>
    <path d="M 517.544819 410.748483 
L 510.275377 425.537377 
L 511.460257 407.877022 
L 518.751114 393.191949 
z
" clip-path="url(#p998189342c)" style="fill: #808080; fill-opacity: 0.3"/>
    <path d="M 538.014914 293.685877 
L 530.920973 307.38263 
L 532.204354 289.122437 
L 539.31803 275.540618 
z
" clip-path="url(#p998189342c)" style="fill: #808080; fill-opacity: 0.3"/>
    <path d="M 528.389005 343.407968 
L 521.196726 357.598268 
L 522.436346 339.556715 
L 529.649243 325.477058 
z
" clip-path="url(#p998189342c)" style="fill: #808080; fill-opacity: 0.3"/>
    <path d="M 518.751114 393.191949 
L 511.460257 407.877022 
L 512.656004 390.054674 
L 519.968366 375.475939 
z
" clip-path="url(#p998189342c)" style="fill: #808080; fill-opacity: 0.3"/>
    <path d="M 529.649243 325.477058 
L 522.436346 339.556715 
L 523.687382 321.349015 
L 530.920973 307.38263 
z
" clip-path="url(#p998189342c)" style="fill: #808080; fill-opacity: 0.3"/>
    <path d="M 519.968366 375.475939 
L 512.656004 390.054674 
L 513.862771 372.068095 
L 521.196726 357.598268 
z
" clip-path="url(#p998189342c)" style="fill: #808080; fill-opacity: 0.3"/>
    <path d="M 530.920973 307.38263 
L 523.687382 321.349015 
L 524.949992 302.972864 
L 532.204354 289.122437 
z
" clip-path="url(#p998189342c)" style="fill: #808080; fill-opacity: 0.3"/>
    <path d="M 521.196726 357.598268 
L 513.862771 372.068095 
L 515.08071 353.915002 
L 522.436346 339.556715 
z
" clip-path="url(#p998189342c)" style="fill: #808080; fill-opacity: 0.3"/>
    <path d="M 522.436346 339.556715 
L 515.08071 353.915002 
L 516.309976 335.593074 
L 523.687382 321.349015 
z
" clip-path="url(#p998189342c)" style="fill: #808080; fill-opacity: 0.3"/>
    <path d="M 523.687382 321.349015 
L 516.309976 335.593074 
L 517.550728 317.099945 
L 524.949992 302.972864 
z
" clip-path="url(#p998189342c)" style="fill: #808080; fill-opacity: 0.3"/>
   </g>
   <g id="legend_1">
    <g id="patch_6">
     <path d="M 343.470937 136.36125 
L 578.16 136.36125 
Q 581.76 136.36125 581.76 132.76125 
L 581.76 81.72 
Q 581.76 78.12 578.16 78.12 
L 343.470937 78.12 
Q 339.870937 78.12 339.870937 81.72 
L 339.870937 132.76125 
Q 339.870937 136.36125 343.470937 136.36125 
z
" style="fill: #ffffff; opacity: 0.8; stroke: #cccccc; stroke-linejoin: miter"/>
    </g>
    <g id="Path3DCollection_2">
     <path d="M 365.070937 99.749413 
C 366.523515 99.749413 367.916794 99.172298 368.943921 98.145171 
C 369.971048 97.118044 370.548163 95.724765 370.548163 94.272188 
C 370.548163 92.81961 369.971048 91.426331 368.943921 90.399204 
C 367.916794 89.372077 366.523515 88.794962 365.070937 88.794962 
C 363.61836 88.794962 362.225081 89.372077 361.197954 90.399204 
C 360.170827 91.426331 359.593712 92.81961 359.593712 94.272188 
C 359.593712 95.724765 360.170827 97.118044 361.197954 98.145171 
C 362.225081 99.172298 363.61836 99.749413 365.070937 99.749413 
z
" style="fill: #ff0000; stroke: #ff0000"/>
    </g>
    <g id="text_19">
     <!-- Selected stimulus 1 -->
     <g transform="translate(397.470937 98.997188) scale(0.18 -0.18)">
      <defs>
       <path id="DejaVuSans-53" d="M 3425 4513 
L 3425 3897 
Q 3066 4069 2747 4153 
Q 2428 4238 2131 4238 
Q 1616 4238 1336 4038 
Q 1056 3838 1056 3469 
Q 1056 3159 1242 3001 
Q 1428 2844 1947 2747 
L 2328 2669 
Q 3034 2534 3370 2195 
Q 3706 1856 3706 1288 
Q 3706 609 3251 259 
Q 2797 -91 1919 -91 
Q 1588 -91 1214 -16 
Q 841 59 441 206 
L 441 856 
Q 825 641 1194 531 
Q 1563 422 1919 422 
Q 2459 422 2753 634 
Q 3047 847 3047 1241 
Q 3047 1584 2836 1778 
Q 2625 1972 2144 2069 
L 1759 2144 
Q 1053 2284 737 2584 
Q 422 2884 422 3419 
Q 422 4038 858 4394 
Q 1294 4750 2059 4750 
Q 2388 4750 2728 4690 
Q 3069 4631 3425 4513 
z
" transform="scale(0.015625)"/>
       <path id="DejaVuSans-65" d="M 3597 1894 
L 3597 1613 
L 953 1613 
Q 991 1019 1311 708 
Q 1631 397 2203 397 
Q 2534 397 2845 478 
Q 3156 559 3463 722 
L 3463 178 
Q 3153 47 2828 -22 
Q 2503 -91 2169 -91 
Q 1331 -91 842 396 
Q 353 884 353 1716 
Q 353 2575 817 3079 
Q 1281 3584 2069 3584 
Q 2775 3584 3186 3129 
Q 3597 2675 3597 1894 
z
M 3022 2063 
Q 3016 2534 2758 2815 
Q 2500 3097 2075 3097 
Q 1594 3097 1305 2825 
Q 1016 2553 972 2059 
L 3022 2063 
z
" transform="scale(0.015625)"/>
       <path id="DejaVuSans-6c" d="M 603 4863 
L 1178 4863 
L 1178 0 
L 603 0 
L 603 4863 
z
" transform="scale(0.015625)"/>
       <path id="DejaVuSans-63" d="M 3122 3366 
L 3122 2828 
Q 2878 2963 2633 3030 
Q 2388 3097 2138 3097 
Q 1578 3097 1268 2742 
Q 959 2388 959 1747 
Q 959 1106 1268 751 
Q 1578 397 2138 397 
Q 2388 397 2633 464 
Q 2878 531 3122 666 
L 3122 134 
Q 2881 22 2623 -34 
Q 2366 -91 2075 -91 
Q 1284 -91 818 406 
Q 353 903 353 1747 
Q 353 2603 823 3093 
Q 1294 3584 2113 3584 
Q 2378 3584 2631 3529 
Q 2884 3475 3122 3366 
z
" transform="scale(0.015625)"/>
       <path id="DejaVuSans-74" d="M 1172 4494 
L 1172 3500 
L 2356 3500 
L 2356 3053 
L 1172 3053 
L 1172 1153 
Q 1172 725 1289 603 
Q 1406 481 1766 481 
L 2356 481 
L 2356 0 
L 1766 0 
Q 1100 0 847 248 
Q 594 497 594 1153 
L 594 3053 
L 172 3053 
L 172 3500 
L 594 3500 
L 594 4494 
L 1172 4494 
z
" transform="scale(0.015625)"/>
       <path id="DejaVuSans-64" d="M 2906 2969 
L 2906 4863 
L 3481 4863 
L 3481 0 
L 2906 0 
L 2906 525 
Q 2725 213 2448 61 
Q 2172 -91 1784 -91 
Q 1150 -91 751 415 
Q 353 922 353 1747 
Q 353 2572 751 3078 
Q 1150 3584 1784 3584 
Q 2172 3584 2448 3432 
Q 2725 3281 2906 2969 
z
M 947 1747 
Q 947 1113 1208 752 
Q 1469 391 1925 391 
Q 2381 391 2643 752 
Q 2906 1113 2906 1747 
Q 2906 2381 2643 2742 
Q 2381 3103 1925 3103 
Q 1469 3103 1208 2742 
Q 947 2381 947 1747 
z
" transform="scale(0.015625)"/>
       <path id="DejaVuSans-73" d="M 2834 3397 
L 2834 2853 
Q 2591 2978 2328 3040 
Q 2066 3103 1784 3103 
Q 1356 3103 1142 2972 
Q 928 2841 928 2578 
Q 928 2378 1081 2264 
Q 1234 2150 1697 2047 
L 1894 2003 
Q 2506 1872 2764 1633 
Q 3022 1394 3022 966 
Q 3022 478 2636 193 
Q 2250 -91 1575 -91 
Q 1294 -91 989 -36 
Q 684 19 347 128 
L 347 722 
Q 666 556 975 473 
Q 1284 391 1588 391 
Q 1994 391 2212 530 
Q 2431 669 2431 922 
Q 2431 1156 2273 1281 
Q 2116 1406 1581 1522 
L 1381 1569 
Q 847 1681 609 1914 
Q 372 2147 372 2553 
Q 372 3047 722 3315 
Q 1072 3584 1716 3584 
Q 2034 3584 2315 3537 
Q 2597 3491 2834 3397 
z
" transform="scale(0.015625)"/>
       <path id="DejaVuSans-69" d="M 603 3500 
L 1178 3500 
L 1178 0 
L 603 0 
L 603 3500 
z
M 603 4863 
L 1178 4863 
L 1178 4134 
L 603 4134 
L 603 4863 
z
" transform="scale(0.015625)"/>
       <path id="DejaVuSans-6d" d="M 3328 2828 
Q 3544 3216 3844 3400 
Q 4144 3584 4550 3584 
Q 5097 3584 5394 3201 
Q 5691 2819 5691 2113 
L 5691 0 
L 5113 0 
L 5113 2094 
Q 5113 2597 4934 2840 
Q 4756 3084 4391 3084 
Q 3944 3084 3684 2787 
Q 3425 2491 3425 1978 
L 3425 0 
L 2847 0 
L 2847 2094 
Q 2847 2600 2669 2842 
Q 2491 3084 2119 3084 
Q 1678 3084 1418 2786 
Q 1159 2488 1159 1978 
L 1159 0 
L 581 0 
L 581 3500 
L 1159 3500 
L 1159 2956 
Q 1356 3278 1631 3431 
Q 1906 3584 2284 3584 
Q 2666 3584 2933 3390 
Q 3200 3197 3328 2828 
z
" transform="scale(0.015625)"/>
       <path id="DejaVuSans-75" d="M 544 1381 
L 544 3500 
L 1119 3500 
L 1119 1403 
Q 1119 906 1312 657 
Q 1506 409 1894 409 
Q 2359 409 2629 706 
Q 2900 1003 2900 1516 
L 2900 3500 
L 3475 3500 
L 3475 0 
L 2900 0 
L 2900 538 
Q 2691 219 2414 64 
Q 2138 -91 1772 -91 
Q 1169 -91 856 284 
Q 544 659 544 1381 
z
M 1991 3584 
L 1991 3584 
z
" transform="scale(0.015625)"/>
      </defs>
      <use xlink:href="#DejaVuSans-53"/>
      <use xlink:href="#DejaVuSans-65" x="63.476562"/>
      <use xlink:href="#DejaVuSans-6c" x="125"/>
      <use xlink:href="#DejaVuSans-65" x="152.783203"/>
      <use xlink:href="#DejaVuSans-63" x="214.306641"/>
      <use xlink:href="#DejaVuSans-74" x="269.287109"/>
      <use xlink:href="#DejaVuSans-65" x="308.496094"/>
      <use xlink:href="#DejaVuSans-64" x="370.019531"/>
      <use xlink:href="#DejaVuSans-20" x="433.496094"/>
      <use xlink:href="#DejaVuSans-73" x="465.283203"/>
      <use xlink:href="#DejaVuSans-74" x="517.382812"/>
      <use xlink:href="#DejaVuSans-69" x="556.591797"/>
      <use xlink:href="#DejaVuSans-6d" x="584.375"/>
      <use xlink:href="#DejaVuSans-75" x="681.787109"/>
      <use xlink:href="#DejaVuSans-6c" x="745.166016"/>
      <use xlink:href="#DejaVuSans-75" x="772.949219"/>
      <use xlink:href="#DejaVuSans-73" x="836.328125"/>
      <use xlink:href="#DejaVuSans-20" x="888.427734"/>
      <use xlink:href="#DejaVuSans-31" x="920.214844"/>
     </g>
    </g>
    <g id="Path3DCollection_3">
     <path d="M 365.070937 126.170038 
L 370.548163 115.215587 
L 359.593712 115.215587 
z
" style="fill: #ff0000; stroke: #ff0000"/>
    </g>
    <g id="text_20">
     <!-- Selected stimulus 2 -->
     <g transform="translate(397.470937 125.417813) scale(0.18 -0.18)">
      <use xlink:href="#DejaVuSans-53"/>
      <use xlink:href="#DejaVuSans-65" x="63.476562"/>
      <use xlink:href="#DejaVuSans-6c" x="125"/>
      <use xlink:href="#DejaVuSans-65" x="152.783203"/>
      <use xlink:href="#DejaVuSans-63" x="214.306641"/>
      <use xlink:href="#DejaVuSans-74" x="269.287109"/>
      <use xlink:href="#DejaVuSans-65" x="308.496094"/>
      <use xlink:href="#DejaVuSans-64" x="370.019531"/>
      <use xlink:href="#DejaVuSans-20" x="433.496094"/>
      <use xlink:href="#DejaVuSans-73" x="465.283203"/>
      <use xlink:href="#DejaVuSans-74" x="517.382812"/>
      <use xlink:href="#DejaVuSans-69" x="556.591797"/>
      <use xlink:href="#DejaVuSans-6d" x="584.375"/>
      <use xlink:href="#DejaVuSans-75" x="681.787109"/>
      <use xlink:href="#DejaVuSans-6c" x="745.166016"/>
      <use xlink:href="#DejaVuSans-75" x="772.949219"/>
      <use xlink:href="#DejaVuSans-73" x="836.328125"/>
      <use xlink:href="#DejaVuSans-20" x="888.427734"/>
      <use xlink:href="#DejaVuSans-32" x="920.214844"/>
     </g>
    </g>
   </g>
   <g id="Path3DCollection_4">
    <path d="M 582.680994 365.700063 
L 588.15822 354.745612 
L 577.203769 354.745612 
z
" clip-path="url(#p998189342c)" style="fill: #ffc300; fill-opacity: 0.3; stroke: #ffc300; stroke-opacity: 0.3"/>
    <path d="M 591.869388 304.202119 
L 597.346614 293.247668 
L 586.392163 293.247668 
z
" clip-path="url(#p998189342c)" style="fill: #d1ff00; fill-opacity: 0.31137; stroke: #d1ff00; stroke-opacity: 0.31137"/>
    <path d="M 551.2863 431.578015 
L 556.763526 420.623564 
L 545.809075 420.623564 
z
" clip-path="url(#p998189342c)" style="fill: #ff6400; fill-opacity: 0.347324; stroke: #ff6400; stroke-opacity: 0.347324"/>
    <path d="M 601.242403 252.665098 
L 606.719629 241.710646 
L 595.765178 241.710646 
z
" clip-path="url(#p998189342c)" style="fill: #6cff00; fill-opacity: 0.380449; stroke: #6cff00; stroke-opacity: 0.380449"/>
    <path d="M 530.847266 474.856169 
L 536.324492 463.901718 
L 525.37004 463.901718 
z
" clip-path="url(#p998189342c)" style="fill: #ff0000; fill-opacity: 0.469877; stroke: #ff0000; stroke-opacity: 0.469877"/>
    <path d="M 597.490721 195.3998 
L 602.967947 184.445349 
L 592.013495 184.445349 
z
" clip-path="url(#p998189342c)" style="fill: #08ff00; fill-opacity: 0.484076; stroke: #08ff00; stroke-opacity: 0.484076"/>
    <path d="M 574.129802 172.911276 
L 579.607028 161.956825 
L 568.652577 161.956825 
z
" clip-path="url(#p998189342c)" style="fill: #00ff57; fill-opacity: 0.612717; stroke: #00ff57; stroke-opacity: 0.612717"/>
    <path d="M 513.757698 506.585602 
L 519.234923 495.63115 
L 508.280472 495.63115 
z
" clip-path="url(#p998189342c)" style="fill: #ff0018; fill-opacity: 0.624508; stroke: #ff0018; stroke-opacity: 0.624508"/>
    <path d="M 556.154752 161.68375 
L 561.631978 150.729299 
L 550.677527 150.729299 
z
" clip-path="url(#p998189342c)" style="fill: #00ffc1; fill-opacity: 0.74617; stroke: #00ffc1; stroke-opacity: 0.74617"/>
    <path d="M 496.973804 516.02087 
L 502.45103 505.066418 
L 491.496579 505.066418 
z
" clip-path="url(#p998189342c)" style="fill: #ff007c; fill-opacity: 0.792778; stroke: #ff007c; stroke-opacity: 0.792778"/>
    <path d="M 546.31669 176.089586 
L 551.793916 165.135135 
L 540.839464 165.135135 
z
" clip-path="url(#p998189342c)" style="fill: #00dfff; fill-opacity: 0.855727; stroke: #00dfff; stroke-opacity: 0.855727"/>
    <path d="M 483.197061 510.309399 
L 488.674287 499.354948 
L 477.719836 499.354948 
z
" clip-path="url(#p998189342c)" style="fill: #ff00e1; fill-opacity: 0.927163; stroke: #ff00e1; stroke-opacity: 0.927163"/>
    <path d="M 534.394939 229.360404 
L 539.872164 218.405953 
L 528.917713 218.405953 
z
" clip-path="url(#p998189342c)" style="fill: #007aff; fill-opacity: 0.938568; stroke: #007aff; stroke-opacity: 0.938568"/>
    <path d="M 518.275865 307.447189 
L 523.75309 296.492738 
L 512.798639 296.492738 
z
" clip-path="url(#p998189342c)" style="fill: #0010ff; fill-opacity: 0.98026; stroke: #0010ff; stroke-opacity: 0.98026"/>
    <path d="M 487.382321 466.400661 
L 492.859547 455.44621 
L 481.905096 455.44621 
z
" clip-path="url(#p998189342c)" style="fill: #bf00ff; fill-opacity: 0.999271; stroke: #bf00ff; stroke-opacity: 0.999271"/>
    <path d="M 506.257609 390.192451 
L 511.734834 379.238 
L 500.780383 379.238 
z
" clip-path="url(#p998189342c)" style="fill: #4f00ff; stroke: #4f00ff"/>
   </g>
  </g>
 </g>
 <defs>
  <clipPath id="p998189342c">
   <rect x="147.24" y="69.12" width="443.52" height="443.52"/>
  </clipPath>
 </defs>
</svg>
