<?xml version="1.0" encoding="utf-8" standalone="no"?>
<!DOCTYPE svg PUBLIC "-//W3C//DTD SVG 1.1//EN"
  "http://www.w3.org/Graphics/SVG/1.1/DTD/svg11.dtd">
<svg xmlns:xlink="http://www.w3.org/1999/xlink" width="720pt" height="576pt" viewBox="0 0 720 576" xmlns="http://www.w3.org/2000/svg" version="1.1">
 <metadata>
  <rdf:RDF xmlns:dc="http://purl.org/dc/elements/1.1/" xmlns:cc="http://creativecommons.org/ns#" xmlns:rdf="http://www.w3.org/1999/02/22-rdf-syntax-ns#">
   <cc:Work>
    <dc:type rdf:resource="http://purl.org/dc/dcmitype/StillImage"/>
    <dc:date>2025-10-15T14:30:54.452750</dc:date>
    <dc:format>image/svg+xml</dc:format>
    <dc:creator>
     <cc:Agent>
      <dc:title>Matplotlib v3.9.2, https://matplotlib.org/</dc:title>
     </cc:Agent>
    </dc:creator>
   </cc:Work>
  </rdf:RDF>
 </metadata>
 <defs>
  <style type="text/css">*{stroke-linejoin: round; stroke-linecap: butt}</style>
 </defs>
 <g id="figure_1">
  <g id="patch_1">
   <path d="M 0 576 
L 720 576 
L 720 0 
L 0 0 
L 0 576 
z
" style="fill: none"/>
  </g>
  <g id="patch_2">
   <path d="M 147.24 512.64 
L 590.76 512.64 
L 590.76 69.12 
L 147.24 69.12 
L 147.24 512.64 
z
" style="fill: none"/>
  </g>
  <g id="pane3d_1">
   <g id="patch_3">
    <path d="M 180.728819 403.282182 
L 327.193607 280.512492 
L 325.157607 103.456652 
L 171.683723 215.454902 
" style="fill: none; opacity: 0.5; stroke: #f2f2f2; stroke-linejoin: miter"/>
   </g>
  </g>
  <g id="pane3d_2">
   <g id="patch_4">
    <path d="M 327.193607 280.512492 
L 562.217334 348.82461 
L 570.604503 165.670285 
L 325.157607 103.456652 
" style="fill: none; opacity: 0.5; stroke: #e6e6e6; stroke-linejoin: miter"/>
   </g>
  </g>
  <g id="pane3d_3">
   <g id="patch_5">
    <path d="M 180.728819 403.282182 
L 429.865448 484.650204 
L 562.217334 348.82461 
L 327.193607 280.512492 
" style="fill: none; opacity: 0.5; stroke: #ececec; stroke-linejoin: miter"/>
   </g>
  </g>
  <g id="grid3d_1">
   <g id="Line3DCollection_1">
    <path d="M 205.660078 411.424731 
L 350.806191 287.375737 
L 349.770606 109.695329 
" style="fill: none; stroke: #b0b0b0; stroke-width: 0.8"/>
    <path d="M 256.133571 427.909374 
L 398.546082 301.251839 
L 399.565017 122.316761 
" style="fill: none; stroke: #b0b0b0; stroke-width: 0.8"/>
    <path d="M 307.720756 444.757748 
L 447.251102 315.408465 
L 450.410102 135.204508 
" style="fill: none; stroke: #b0b0b0; stroke-width: 0.8"/>
    <path d="M 360.458905 461.982027 
L 496.950817 329.854211 
L 502.339471 148.367089 
" style="fill: none; stroke: #b0b0b0; stroke-width: 0.8"/>
    <path d="M 414.386971 479.594934 
L 547.676015 344.598023 
L 555.38818 161.813391 
" style="fill: none; stroke: #b0b0b0; stroke-width: 0.8"/>
   </g>
  </g>
  <g id="grid3d_2">
   <g id="Line3DCollection_2">
    <path d="M 172.892386 214.572874 
L 181.877945 402.318961 
L 430.908407 483.579872 
" style="fill: none; stroke: #b0b0b0; stroke-width: 0.8"/>
    <path d="M 207.238433 189.508694 
L 214.560866 374.923489 
L 460.541464 453.169066 
" style="fill: none; stroke: #b0b0b0; stroke-width: 0.8"/>
    <path d="M 240.298559 165.38292 
L 246.072588 348.509738 
L 489.057314 423.904789 
" style="fill: none; stroke: #b0b0b0; stroke-width: 0.8"/>
    <path d="M 272.143654 142.14382 
L 276.474959 323.025869 
L 516.517969 395.723402 
" style="fill: none; stroke: #b0b0b0; stroke-width: 0.8"/>
    <path d="M 302.839492 119.743395 
L 305.825546 298.423625 
L 542.980933 368.56589 
" style="fill: none; stroke: #b0b0b0; stroke-width: 0.8"/>
   </g>
  </g>
  <g id="grid3d_3">
   <g id="Line3DCollection_3">
    <path d="M 562.705054 338.174064 
L 327.074977 270.196086 
L 180.203675 392.377232 
" style="fill: none; stroke: #b0b0b0; stroke-width: 0.8"/>
    <path d="M 564.406759 301.013171 
L 326.661291 234.220891 
L 178.370586 354.31196 
" style="fill: none; stroke: #b0b0b0; stroke-width: 0.8"/>
    <path d="M 566.1396 263.172349 
L 326.2404 197.619132 
L 176.502669 315.523448 
" style="fill: none; stroke: #b0b0b0; stroke-width: 0.8"/>
    <path d="M 567.90444 224.632762 
L 325.812114 160.374295 
L 174.598921 275.990885 
" style="fill: none; stroke: #b0b0b0; stroke-width: 0.8"/>
    <path d="M 569.702172 185.374876 
L 325.376237 122.469283 
L 172.658301 235.692657 
" style="fill: none; stroke: #b0b0b0; stroke-width: 0.8"/>
   </g>
  </g>
  <g id="axis3d_1">
   <g id="line2d_1">
    <path d="M 180.728819 403.282182 
L 429.865448 484.650204 
" style="fill: none; stroke: #000000; stroke-width: 0.8; stroke-linecap: square"/>
   </g>
   <g id="xtick_1">
    <g id="line2d_2">
     <path d="M 206.924221 410.344332 
L 203.126356 413.590174 
" style="fill: none; stroke: #000000; stroke-width: 0.8; stroke-linecap: square"/>
    </g>
    <g id="text_1">
     <!-- −80 -->
     <g transform="translate(185.485294 436.270942) scale(0.12 -0.12)">
      <defs>
       <path id="DejaVuSans-2212" d="M 678 2272 
L 4684 2272 
L 4684 1741 
L 678 1741 
L 678 2272 
z
" transform="scale(0.015625)"/>
       <path id="DejaVuSans-38" d="M 2034 2216 
Q 1584 2216 1326 1975 
Q 1069 1734 1069 1313 
Q 1069 891 1326 650 
Q 1584 409 2034 409 
Q 2484 409 2743 651 
Q 3003 894 3003 1313 
Q 3003 1734 2745 1975 
Q 2488 2216 2034 2216 
z
M 1403 2484 
Q 997 2584 770 2862 
Q 544 3141 544 3541 
Q 544 4100 942 4425 
Q 1341 4750 2034 4750 
Q 2731 4750 3128 4425 
Q 3525 4100 3525 3541 
Q 3525 3141 3298 2862 
Q 3072 2584 2669 2484 
Q 3125 2378 3379 2068 
Q 3634 1759 3634 1313 
Q 3634 634 3220 271 
Q 2806 -91 2034 -91 
Q 1263 -91 848 271 
Q 434 634 434 1313 
Q 434 1759 690 2068 
Q 947 2378 1403 2484 
z
M 1172 3481 
Q 1172 3119 1398 2916 
Q 1625 2713 2034 2713 
Q 2441 2713 2670 2916 
Q 2900 3119 2900 3481 
Q 2900 3844 2670 4047 
Q 2441 4250 2034 4250 
Q 1625 4250 1398 4047 
Q 1172 3844 1172 3481 
z
" transform="scale(0.015625)"/>
       <path id="DejaVuSans-30" d="M 2034 4250 
Q 1547 4250 1301 3770 
Q 1056 3291 1056 2328 
Q 1056 1369 1301 889 
Q 1547 409 2034 409 
Q 2525 409 2770 889 
Q 3016 1369 3016 2328 
Q 3016 3291 2770 3770 
Q 2525 4250 2034 4250 
z
M 2034 4750 
Q 2819 4750 3233 4129 
Q 3647 3509 3647 2328 
Q 3647 1150 3233 529 
Q 2819 -91 2034 -91 
Q 1250 -91 836 529 
Q 422 1150 422 2328 
Q 422 3509 836 4129 
Q 1250 4750 2034 4750 
z
" transform="scale(0.015625)"/>
      </defs>
      <use xlink:href="#DejaVuSans-2212"/>
      <use xlink:href="#DejaVuSans-38" x="83.789062"/>
      <use xlink:href="#DejaVuSans-30" x="147.412109"/>
     </g>
    </g>
   </g>
   <g id="xtick_2">
    <g id="line2d_3">
     <path d="M 257.375007 426.805276 
L 253.645301 430.122368 
" style="fill: none; stroke: #000000; stroke-width: 0.8; stroke-linecap: square"/>
    </g>
    <g id="text_2">
     <!-- −40 -->
     <g transform="translate(235.990509 452.96479) scale(0.12 -0.12)">
      <defs>
       <path id="DejaVuSans-34" d="M 2419 4116 
L 825 1625 
L 2419 1625 
L 2419 4116 
z
M 2253 4666 
L 3047 4666 
L 3047 1625 
L 3713 1625 
L 3713 1100 
L 3047 1100 
L 3047 0 
L 2419 0 
L 2419 1100 
L 313 1100 
L 313 1709 
L 2253 4666 
z
" transform="scale(0.015625)"/>
      </defs>
      <use xlink:href="#DejaVuSans-2212"/>
      <use xlink:href="#DejaVuSans-34" x="83.789062"/>
      <use xlink:href="#DejaVuSans-30" x="147.412109"/>
     </g>
    </g>
   </g>
   <g id="xtick_3">
    <g id="line2d_4">
     <path d="M 308.938171 443.629163 
L 305.280574 447.019878 
" style="fill: none; stroke: #000000; stroke-width: 0.8; stroke-linecap: square"/>
    </g>
    <g id="text_3">
     <!-- 0 -->
     <g transform="translate(296.457972 470.027827) scale(0.12 -0.12)">
      <use xlink:href="#DejaVuSans-30"/>
     </g>
    </g>
   </g>
   <g id="xtick_4">
    <g id="line2d_5">
     <path d="M 361.650913 460.828132 
L 358.069591 464.294947 
" style="fill: none; stroke: #000000; stroke-width: 0.8; stroke-linecap: square"/>
    </g>
    <g id="text_4">
     <!-- 40 -->
     <g transform="translate(345.417022 487.472436) scale(0.12 -0.12)">
      <use xlink:href="#DejaVuSans-34"/>
      <use xlink:href="#DejaVuSans-30" x="63.623047"/>
     </g>
    </g>
   </g>
   <g id="xtick_5">
    <g id="line2d_6">
     <path d="M 415.552109 478.414866 
L 412.051457 481.960373 
" style="fill: none; stroke: #000000; stroke-width: 0.8; stroke-linecap: square"/>
    </g>
    <g id="text_5">
     <!-- 80 -->
     <g transform="translate(399.387135 505.311562) scale(0.12 -0.12)">
      <use xlink:href="#DejaVuSans-38"/>
      <use xlink:href="#DejaVuSans-30" x="63.623047"/>
     </g>
    </g>
   </g>
   <g id="text_6">
    <!-- PC 1 -->
    <g transform="translate(261.556778 491.505045) scale(0.18 -0.18)">
     <defs>
      <path id="DejaVuSans-50" d="M 1259 4147 
L 1259 2394 
L 2053 2394 
Q 2494 2394 2734 2622 
Q 2975 2850 2975 3272 
Q 2975 3691 2734 3919 
Q 2494 4147 2053 4147 
L 1259 4147 
z
M 628 4666 
L 2053 4666 
Q 2838 4666 3239 4311 
Q 3641 3956 3641 3272 
Q 3641 2581 3239 2228 
Q 2838 1875 2053 1875 
L 1259 1875 
L 1259 0 
L 628 0 
L 628 4666 
z
" transform="scale(0.015625)"/>
      <path id="DejaVuSans-43" d="M 4122 4306 
L 4122 3641 
Q 3803 3938 3442 4084 
Q 3081 4231 2675 4231 
Q 1875 4231 1450 3742 
Q 1025 3253 1025 2328 
Q 1025 1406 1450 917 
Q 1875 428 2675 428 
Q 3081 428 3442 575 
Q 3803 722 4122 1019 
L 4122 359 
Q 3791 134 3420 21 
Q 3050 -91 2638 -91 
Q 1578 -91 968 557 
Q 359 1206 359 2328 
Q 359 3453 968 4101 
Q 1578 4750 2638 4750 
Q 3056 4750 3426 4639 
Q 3797 4528 4122 4306 
z
" transform="scale(0.015625)"/>
      <path id="DejaVuSans-20" transform="scale(0.015625)"/>
      <path id="DejaVuSans-31" d="M 794 531 
L 1825 531 
L 1825 4091 
L 703 3866 
L 703 4441 
L 1819 4666 
L 2450 4666 
L 2450 531 
L 3481 531 
L 3481 0 
L 794 0 
L 794 531 
z
" transform="scale(0.015625)"/>
     </defs>
     <use xlink:href="#DejaVuSans-50"/>
     <use xlink:href="#DejaVuSans-43" x="60.302734"/>
     <use xlink:href="#DejaVuSans-20" x="130.126953"/>
     <use xlink:href="#DejaVuSans-31" x="161.914062"/>
    </g>
   </g>
  </g>
  <g id="axis3d_2">
   <g id="line2d_7">
    <path d="M 562.217334 348.82461 
L 429.865448 484.650204 
" style="fill: none; stroke: #000000; stroke-width: 0.8; stroke-linecap: square"/>
   </g>
   <g id="xtick_6">
    <g id="line2d_8">
     <path d="M 428.809258 482.8949 
L 435.112163 484.951596 
" style="fill: none; stroke: #000000; stroke-width: 0.8; stroke-linecap: square"/>
    </g>
    <g id="text_7">
     <!-- −80 -->
     <g transform="translate(431.18835 506.192088) scale(0.12 -0.12)">
      <use xlink:href="#DejaVuSans-2212"/>
      <use xlink:href="#DejaVuSans-38" x="83.789062"/>
      <use xlink:href="#DejaVuSans-30" x="147.412109"/>
     </g>
    </g>
   </g>
   <g id="xtick_7">
    <g id="line2d_9">
     <path d="M 458.470051 452.510157 
L 464.689572 454.488565 
" style="fill: none; stroke: #000000; stroke-width: 0.8; stroke-linecap: square"/>
    </g>
    <g id="text_8">
     <!-- −40 -->
     <g transform="translate(460.583145 475.51116) scale(0.12 -0.12)">
      <use xlink:href="#DejaVuSans-2212"/>
      <use xlink:href="#DejaVuSans-34" x="83.789062"/>
      <use xlink:href="#DejaVuSans-30" x="147.412109"/>
     </g>
    </g>
   </g>
   <g id="xtick_8">
    <g id="line2d_10">
     <path d="M 487.013057 423.270482 
L 493.150943 425.174989 
" style="fill: none; stroke: #000000; stroke-width: 0.8; stroke-linecap: square"/>
    </g>
    <g id="text_9">
     <!-- 0 -->
     <g transform="translate(497.714644 445.987348) scale(0.12 -0.12)">
      <use xlink:href="#DejaVuSans-30"/>
     </g>
    </g>
   </g>
   <g id="xtick_9">
    <g id="line2d_11">
     <path d="M 514.500294 395.112345 
L 520.558271 396.947016 
" style="fill: none; stroke: #000000; stroke-width: 0.8; stroke-linecap: square"/>
    </g>
    <g id="text_10">
     <!-- 40 -->
     <g transform="translate(521.136277 417.556401) scale(0.12 -0.12)">
      <use xlink:href="#DejaVuSans-34"/>
      <use xlink:href="#DejaVuSans-30" x="63.623047"/>
     </g>
    </g>
   </g>
   <g id="xtick_10">
    <g id="line2d_12">
     <path d="M 540.989277 367.976828 
L 546.969047 369.745434 
" style="fill: none; stroke: #000000; stroke-width: 0.8; stroke-linecap: square"/>
    </g>
    <g id="text_11">
     <!-- 80 -->
     <g transform="translate(547.385436 390.158743) scale(0.12 -0.12)">
      <use xlink:href="#DejaVuSans-38"/>
      <use xlink:href="#DejaVuSans-30" x="63.623047"/>
     </g>
    </g>
   </g>
   <g id="text_12">
    <!-- PC 2 -->
    <g transform="translate(512.139238 453.386049) scale(0.18 -0.18)">
     <defs>
      <path id="DejaVuSans-32" d="M 1228 531 
L 3431 531 
L 3431 0 
L 469 0 
L 469 531 
Q 828 903 1448 1529 
Q 2069 2156 2228 2338 
Q 2531 2678 2651 2914 
Q 2772 3150 2772 3378 
Q 2772 3750 2511 3984 
Q 2250 4219 1831 4219 
Q 1534 4219 1204 4116 
Q 875 4013 500 3803 
L 500 4441 
Q 881 4594 1212 4672 
Q 1544 4750 1819 4750 
Q 2544 4750 2975 4387 
Q 3406 4025 3406 3419 
Q 3406 3131 3298 2873 
Q 3191 2616 2906 2266 
Q 2828 2175 2409 1742 
Q 1991 1309 1228 531 
z
" transform="scale(0.015625)"/>
     </defs>
     <use xlink:href="#DejaVuSans-50"/>
     <use xlink:href="#DejaVuSans-43" x="60.302734"/>
     <use xlink:href="#DejaVuSans-20" x="130.126953"/>
     <use xlink:href="#DejaVuSans-32" x="161.914062"/>
    </g>
   </g>
  </g>
  <g id="axis3d_3">
   <g id="line2d_13">
    <path d="M 562.217334 348.82461 
L 570.604503 165.670285 
" style="fill: none; stroke: #000000; stroke-width: 0.8; stroke-linecap: square"/>
   </g>
   <g id="xtick_11">
    <g id="line2d_14">
     <path d="M 560.727227 337.603472 
L 566.665423 339.316609 
" style="fill: none; stroke: #000000; stroke-width: 0.8; stroke-linecap: square"/>
    </g>
    <g id="text_13">
     <!-- −80 -->
     <g transform="translate(568.35942 344.696514) scale(0.12 -0.12)">
      <use xlink:href="#DejaVuSans-2212"/>
      <use xlink:href="#DejaVuSans-38" x="83.789062"/>
      <use xlink:href="#DejaVuSans-30" x="147.412109"/>
     </g>
    </g>
   </g>
   <g id="xtick_12">
    <g id="line2d_15">
     <path d="M 562.410328 300.452294 
L 568.404424 302.136277 
" style="fill: none; stroke: #000000; stroke-width: 0.8; stroke-linecap: square"/>
    </g>
    <g id="text_14">
     <!-- −40 -->
     <g transform="translate(570.223777 307.579845) scale(0.12 -0.12)">
      <use xlink:href="#DejaVuSans-2212"/>
      <use xlink:href="#DejaVuSans-34" x="83.789062"/>
      <use xlink:href="#DejaVuSans-30" x="147.412109"/>
     </g>
    </g>
   </g>
   <g id="xtick_13">
    <g id="line2d_16">
     <path d="M 564.124212 262.621637 
L 570.17527 264.275108 
" style="fill: none; stroke: #000000; stroke-width: 0.8; stroke-linecap: square"/>
    </g>
    <g id="text_15">
     <!-- 0 -->
     <g transform="translate(580.967496 269.785303) scale(0.12 -0.12)">
      <use xlink:href="#DejaVuSans-30"/>
     </g>
    </g>
   </g>
   <g id="xtick_14">
    <g id="line2d_17">
     <path d="M 565.869731 224.09269 
L 571.978843 225.714229 
" style="fill: none; stroke: #000000; stroke-width: 0.8; stroke-linecap: square"/>
    </g>
    <g id="text_16">
     <!-- 40 -->
     <g transform="translate(579.083393 231.294147) scale(0.12 -0.12)">
      <use xlink:href="#DejaVuSans-34"/>
      <use xlink:href="#DejaVuSans-30" x="63.623047"/>
     </g>
    </g>
   </g>
   <g id="xtick_15">
    <g id="line2d_18">
     <path d="M 567.64777 184.845937 
L 573.816058 186.434061 
" style="fill: none; stroke: #000000; stroke-width: 0.8; stroke-linecap: square"/>
    </g>
    <g id="text_17">
     <!-- 80 -->
     <g transform="translate(581.052757 192.086938) scale(0.12 -0.12)">
      <use xlink:href="#DejaVuSans-38"/>
      <use xlink:href="#DejaVuSans-30" x="63.623047"/>
     </g>
    </g>
   </g>
   <g id="text_18">
    <!-- PC 3 -->
    <g transform="translate(596.17243 257.501614) scale(0.18 -0.18)">
     <defs>
      <path id="DejaVuSans-33" d="M 2597 2516 
Q 3050 2419 3304 2112 
Q 3559 1806 3559 1356 
Q 3559 666 3084 287 
Q 2609 -91 1734 -91 
Q 1441 -91 1130 -33 
Q 819 25 488 141 
L 488 750 
Q 750 597 1062 519 
Q 1375 441 1716 441 
Q 2309 441 2620 675 
Q 2931 909 2931 1356 
Q 2931 1769 2642 2001 
Q 2353 2234 1838 2234 
L 1294 2234 
L 1294 2753 
L 1863 2753 
Q 2328 2753 2575 2939 
Q 2822 3125 2822 3475 
Q 2822 3834 2567 4026 
Q 2313 4219 1838 4219 
Q 1578 4219 1281 4162 
Q 984 4106 628 3988 
L 628 4550 
Q 988 4650 1302 4700 
Q 1616 4750 1894 4750 
Q 2613 4750 3031 4423 
Q 3450 4097 3450 3541 
Q 3450 3153 3228 2886 
Q 3006 2619 2597 2516 
z
" transform="scale(0.015625)"/>
     </defs>
     <use xlink:href="#DejaVuSans-50"/>
     <use xlink:href="#DejaVuSans-43" x="60.302734"/>
     <use xlink:href="#DejaVuSans-20" x="130.126953"/>
     <use xlink:href="#DejaVuSans-33" x="161.914062"/>
    </g>
   </g>
  </g>
  <g id="axes_1">
   <g id="line2d_19">
    <path d="M 431.041168 377.26274 
L 468.798869 365.679991 
L 515.679992 326.20992 
L 526.640497 281.531279 
L 501.810099 276.856941 
L 470.943452 259.613179 
L 434.810329 259.775808 
L 395.880051 262.878434 
L 356.778791 272.932281 
L 321.336863 293.635495 
L 294.461307 319.404324 
L 279.454501 354.134457 
L 291.733983 361.50032 
L 316.379245 370.796154 
L 344.734986 376.175811 
L 383.384328 379.869199 
L 431.041168 377.26274 
" clip-path="url(#p46c3f98572)" style="fill: none; stroke: #808080; stroke-opacity: 0.7; stroke-width: 1.5; stroke-linecap: square"/>
   </g>
   <g id="line2d_20">
    <path d="M 450.416999 389.421199 
L 500.599161 370.326143 
L 532.103802 330.091846 
L 516.904601 281.08332 
L 468.073629 232.861482 
L 423.292069 208.129036 
L 365.334524 191.270673 
L 312.34515 184.635743 
L 263.024209 189.02477 
L 215.946551 202.151178 
L 180.007988 231.445952 
L 192.084478 287.14726 
L 243.394364 319.21235 
L 293.045739 342.112203 
L 342.181309 363.579746 
L 394.482412 379.939979 
L 450.416999 389.421199 
" clip-path="url(#p46c3f98572)" style="fill: none; stroke: #808080; stroke-opacity: 0.7; stroke-width: 1.5; stroke-linecap: square"/>
   </g>
   <g id="Poly3DCollection_1">
    <path d="M 305.293878 188.171777 
L 323.296151 193.518446 
L 316.087424 208.336313 
L 298.058079 202.948254 
z
" clip-path="url(#p46c3f98572)" style="fill: #808080; fill-opacity: 0.3"/>
    <path d="M 323.296151 193.518446 
L 341.369342 198.886178 
L 334.187957 213.745647 
L 316.087424 208.336313 
z
" clip-path="url(#p46c3f98572)" style="fill: #808080; fill-opacity: 0.3"/>
    <path d="M 298.058079 202.948254 
L 316.087424 208.336313 
L 308.845522 223.222374 
L 290.789046 217.7926 
z
" clip-path="url(#p46c3f98572)" style="fill: #808080; fill-opacity: 0.3"/>
    <path d="M 341.369342 198.886178 
L 359.513872 204.275098 
L 352.360102 219.176381 
L 334.187957 213.745647 
z
" clip-path="url(#p46c3f98572)" style="fill: #808080; fill-opacity: 0.3"/>
    <path d="M 316.087424 208.336313 
L 334.187957 213.745647 
L 326.973457 228.673635 
L 308.845522 223.222374 
z
" clip-path="url(#p46c3f98572)" style="fill: #808080; fill-opacity: 0.3"/>
    <path d="M 290.789046 217.7926 
L 308.845522 223.222374 
L 301.570215 238.177099 
L 283.48655 232.705284 
z
" clip-path="url(#p46c3f98572)" style="fill: #808080; fill-opacity: 0.3"/>
    <path d="M 359.513872 204.275098 
L 377.730164 209.685331 
L 370.604283 224.628644 
L 352.360102 219.176381 
z
" clip-path="url(#p46c3f98572)" style="fill: #808080; fill-opacity: 0.3"/>
    <path d="M 334.187957 213.745647 
L 352.360102 219.176381 
L 345.173278 234.146514 
L 326.973457 228.673635 
z
" clip-path="url(#p46c3f98572)" style="fill: #808080; fill-opacity: 0.3"/>
    <path d="M 308.845522 223.222374 
L 326.973457 228.673635 
L 319.725613 243.670619 
L 301.570215 238.177099 
z
" clip-path="url(#p46c3f98572)" style="fill: #808080; fill-opacity: 0.3"/>
    <path d="M 283.48655 232.705284 
L 301.570215 238.177099 
L 294.261272 253.200966 
L 276.150358 247.686778 
z
" clip-path="url(#p46c3f98572)" style="fill: #808080; fill-opacity: 0.3"/>
    <path d="M 377.730164 209.685331 
L 396.018644 215.117004 
L 388.920931 230.102564 
L 370.604283 224.628644 
z
" clip-path="url(#p46c3f98572)" style="fill: #808080; fill-opacity: 0.3"/>
    <path d="M 352.360102 219.176381 
L 370.604283 224.628644 
L 363.445413 239.641138 
L 345.173278 234.146514 
z
" clip-path="url(#p46c3f98572)" style="fill: #808080; fill-opacity: 0.3"/>
    <path d="M 326.973457 228.673635 
L 345.173278 234.146514 
L 337.953172 249.185974 
L 319.725613 243.670619 
z
" clip-path="url(#p46c3f98572)" style="fill: #808080; fill-opacity: 0.3"/>
    <path d="M 301.570215 238.177099 
L 319.725613 243.670619 
L 312.444193 258.737077 
L 294.261272 253.200966 
z
" clip-path="url(#p46c3f98572)" style="fill: #808080; fill-opacity: 0.3"/>
    <path d="M 276.150358 247.686778 
L 294.261272 253.200966 
L 286.918458 268.294454 
L 268.780237 262.73756 
z
" clip-path="url(#p46c3f98572)" style="fill: #808080; fill-opacity: 0.3"/>
    <path d="M 396.018644 215.117004 
L 414.379743 220.570244 
L 407.310478 235.598269 
L 388.920931 230.102564 
z
" clip-path="url(#p46c3f98572)" style="fill: #808080; fill-opacity: 0.3"/>
    <path d="M 370.604283 224.628644 
L 388.920931 230.102564 
L 381.790293 245.157638 
L 363.445413 239.641138 
z
" clip-path="url(#p46c3f98572)" style="fill: #808080; fill-opacity: 0.3"/>
    <path d="M 345.173278 234.146514 
L 363.445413 239.641138 
L 356.253324 254.723294 
L 337.953172 249.185974 
z
" clip-path="url(#p46c3f98572)" style="fill: #808080; fill-opacity: 0.3"/>
    <path d="M 319.725613 243.670619 
L 337.953172 249.185974 
L 330.699552 264.295244 
L 312.444193 258.737077 
z
" clip-path="url(#p46c3f98572)" style="fill: #808080; fill-opacity: 0.3"/>
    <path d="M 294.261272 253.200966 
L 312.444193 258.737077 
L 305.128963 273.873494 
L 286.918458 268.294454 
z
" clip-path="url(#p46c3f98572)" style="fill: #808080; fill-opacity: 0.3"/>
    <path d="M 268.780237 262.73756 
L 286.918458 268.294454 
L 279.541538 283.45805 
L 261.375951 277.858111 
z
" clip-path="url(#p46c3f98572)" style="fill: #808080; fill-opacity: 0.3"/>
    <path d="M 414.379743 220.570244 
L 432.813894 226.045181 
L 425.77336 241.11589 
L 407.310478 235.598269 
z
" clip-path="url(#p46c3f98572)" style="fill: #808080; fill-opacity: 0.3"/>
    <path d="M 388.920931 230.102564 
L 407.310478 235.598269 
L 400.208355 250.696144 
L 381.790293 245.157638 
z
" clip-path="url(#p46c3f98572)" style="fill: #808080; fill-opacity: 0.3"/>
    <path d="M 363.445413 239.641138 
L 381.790293 245.157638 
L 374.626502 260.282711 
L 356.253324 254.723294 
z
" clip-path="url(#p46c3f98572)" style="fill: #808080; fill-opacity: 0.3"/>
    <path d="M 337.953172 249.185974 
L 356.253324 254.723294 
L 349.027784 269.875598 
L 330.699552 264.295244 
z
" clip-path="url(#p46c3f98572)" style="fill: #808080; fill-opacity: 0.3"/>
    <path d="M 312.444193 258.737077 
L 330.699552 264.295244 
L 323.412184 279.474811 
L 305.128963 273.873494 
z
" clip-path="url(#p46c3f98572)" style="fill: #808080; fill-opacity: 0.3"/>
    <path d="M 286.918458 268.294454 
L 305.128963 273.873494 
L 297.779687 289.080357 
L 279.541538 283.45805 
z
" clip-path="url(#p46c3f98572)" style="fill: #808080; fill-opacity: 0.3"/>
    <path d="M 261.375951 277.858111 
L 279.541538 283.45805 
L 272.130274 298.692242 
L 253.937262 293.048918 
z
" clip-path="url(#p46c3f98572)" style="fill: #808080; fill-opacity: 0.3"/>
    <path d="M 432.813894 226.045181 
L 451.321533 231.541944 
L 444.310016 246.655559 
L 425.77336 241.11589 
z
" clip-path="url(#p46c3f98572)" style="fill: #808080; fill-opacity: 0.3"/>
    <path d="M 407.310478 235.598269 
L 425.77336 241.11589 
L 418.700036 256.256788 
L 400.208355 250.696144 
z
" clip-path="url(#p46c3f98572)" style="fill: #808080; fill-opacity: 0.3"/>
    <path d="M 381.790293 245.157638 
L 400.208355 250.696144 
L 393.073144 265.864357 
L 374.626502 260.282711 
z
" clip-path="url(#p46c3f98572)" style="fill: #808080; fill-opacity: 0.3"/>
    <path d="M 356.253324 254.723294 
L 374.626502 260.282711 
L 367.429324 275.478272 
L 349.027784 269.875598 
z
" clip-path="url(#p46c3f98572)" style="fill: #808080; fill-opacity: 0.3"/>
    <path d="M 330.699552 264.295244 
L 349.027784 269.875598 
L 341.768559 285.09854 
L 323.412184 279.474811 
z
" clip-path="url(#p46c3f98572)" style="fill: #808080; fill-opacity: 0.3"/>
    <path d="M 305.128963 273.873494 
L 323.412184 279.474811 
L 316.090832 294.725168 
L 297.779687 289.080357 
z
" clip-path="url(#p46c3f98572)" style="fill: #808080; fill-opacity: 0.3"/>
    <path d="M 279.541538 283.45805 
L 297.779687 289.080357 
L 290.396126 304.35816 
L 272.130274 298.692242 
z
" clip-path="url(#p46c3f98572)" style="fill: #808080; fill-opacity: 0.3"/>
    <path d="M 451.321533 231.541944 
L 469.903102 237.060664 
L 462.92089 252.217408 
L 444.310016 246.655559 
z
" clip-path="url(#p46c3f98572)" style="fill: #808080; fill-opacity: 0.3"/>
    <path d="M 253.937262 293.048918 
L 272.130274 298.692242 
L 264.684425 313.997524 
L 246.46393 308.310471 
z
" clip-path="url(#p46c3f98572)" style="fill: #808080; fill-opacity: 0.3"/>
    <path d="M 425.77336 241.11589 
L 444.310016 246.655559 
L 437.265779 261.839703 
L 418.700036 256.256788 
z
" clip-path="url(#p46c3f98572)" style="fill: #808080; fill-opacity: 0.3"/>
    <path d="M 400.208355 250.696144 
L 418.700036 256.256788 
L 411.593693 271.468365 
L 393.073144 265.864357 
z
" clip-path="url(#p46c3f98572)" style="fill: #808080; fill-opacity: 0.3"/>
    <path d="M 374.626502 260.282711 
L 393.073144 265.864357 
L 385.904614 281.103401 
L 367.429324 275.478272 
z
" clip-path="url(#p46c3f98572)" style="fill: #808080; fill-opacity: 0.3"/>
    <path d="M 349.027784 269.875598 
L 367.429324 275.478272 
L 360.198527 290.744816 
L 341.768559 285.09854 
z
" clip-path="url(#p46c3f98572)" style="fill: #808080; fill-opacity: 0.3"/>
    <path d="M 323.412184 279.474811 
L 341.768559 285.09854 
L 334.475413 300.392616 
L 316.090832 294.725168 
z
" clip-path="url(#p46c3f98572)" style="fill: #808080; fill-opacity: 0.3"/>
    <path d="M 297.779687 289.080357 
L 316.090832 294.725168 
L 308.735257 310.046809 
L 290.396126 304.35816 
z
" clip-path="url(#p46c3f98572)" style="fill: #808080; fill-opacity: 0.3"/>
    <path d="M 272.130274 298.692242 
L 290.396126 304.35816 
L 282.978041 319.707401 
L 264.684425 313.997524 
z
" clip-path="url(#p46c3f98572)" style="fill: #808080; fill-opacity: 0.3"/>
    <path d="M 444.310016 246.655559 
L 462.92089 252.217408 
L 455.90603 267.445024 
L 437.265779 261.839703 
z
" clip-path="url(#p46c3f98572)" style="fill: #808080; fill-opacity: 0.3"/>
    <path d="M 246.46393 308.310471 
L 264.684425 313.997524 
L 257.203748 329.374397 
L 238.955711 323.643267 
z
" clip-path="url(#p46c3f98572)" style="fill: #808080; fill-opacity: 0.3"/>
    <path d="M 418.700036 256.256788 
L 437.265779 261.839703 
L 430.188593 277.094871 
L 411.593693 271.468365 
z
" clip-path="url(#p46c3f98572)" style="fill: #808080; fill-opacity: 0.3"/>
    <path d="M 393.073144 265.864357 
L 411.593693 271.468365 
L 404.454099 286.751119 
L 385.904614 281.103401 
z
" clip-path="url(#p46c3f98572)" style="fill: #808080; fill-opacity: 0.3"/>
    <path d="M 367.429324 275.478272 
L 385.904614 281.103401 
L 378.702531 296.413773 
L 360.198527 290.744816 
z
" clip-path="url(#p46c3f98572)" style="fill: #808080; fill-opacity: 0.3"/>
    <path d="M 341.768559 285.09854 
L 360.198527 290.744816 
L 352.933874 306.08284 
L 334.475413 300.392616 
z
" clip-path="url(#p46c3f98572)" style="fill: #808080; fill-opacity: 0.3"/>
    <path d="M 316.090832 294.725168 
L 334.475413 300.392616 
L 327.148109 315.758326 
L 308.735257 310.046809 
z
" clip-path="url(#p46c3f98572)" style="fill: #808080; fill-opacity: 0.3"/>
    <path d="M 290.396126 304.35816 
L 308.735257 310.046809 
L 301.345219 325.440237 
L 282.978041 319.707401 
z
" clip-path="url(#p46c3f98572)" style="fill: #808080; fill-opacity: 0.3"/>
    <path d="M 264.684425 313.997524 
L 282.978041 319.707401 
L 275.525189 335.12858 
L 257.203748 329.374397 
z
" clip-path="url(#p46c3f98572)" style="fill: #808080; fill-opacity: 0.3"/>
    <path d="M 437.265779 261.839703 
L 455.90603 267.445024 
L 448.858292 282.744011 
L 430.188593 277.094871 
z
" clip-path="url(#p46c3f98572)" style="fill: #808080; fill-opacity: 0.3"/>
    <path d="M 411.593693 271.468365 
L 430.188593 277.094871 
L 423.078225 292.421563 
L 404.454099 286.751119 
z
" clip-path="url(#p46c3f98572)" style="fill: #808080; fill-opacity: 0.3"/>
    <path d="M 385.904614 281.103401 
L 404.454099 286.751119 
L 397.281019 302.10555 
L 378.702531 296.413773 
z
" clip-path="url(#p46c3f98572)" style="fill: #808080; fill-opacity: 0.3"/>
    <path d="M 360.198527 290.744816 
L 378.702531 296.413773 
L 371.466659 311.795976 
L 352.933874 306.08284 
z
" clip-path="url(#p46c3f98572)" style="fill: #808080; fill-opacity: 0.3"/>
    <path d="M 334.475413 300.392616 
L 352.933874 306.08284 
L 345.635126 321.492848 
L 327.148109 315.758326 
z
" clip-path="url(#p46c3f98572)" style="fill: #808080; fill-opacity: 0.3"/>
    <path d="M 308.735257 310.046809 
L 327.148109 315.758326 
L 319.786404 331.196173 
L 301.345219 325.440237 
z
" clip-path="url(#p46c3f98572)" style="fill: #808080; fill-opacity: 0.3"/>
    <path d="M 282.978041 319.707401 
L 301.345219 325.440237 
L 293.920476 340.905957 
L 275.525189 335.12858 
z
" clip-path="url(#p46c3f98572)" style="fill: #808080; fill-opacity: 0.3"/>
    <path d="M 430.188593 277.094871 
L 448.858292 282.744011 
L 441.777444 298.114871 
L 423.078225 292.421563 
z
" clip-path="url(#p46c3f98572)" style="fill: #808080; fill-opacity: 0.3"/>
    <path d="M 404.454099 286.751119 
L 423.078225 292.421563 
L 415.934442 307.820283 
L 397.281019 302.10555 
z
" clip-path="url(#p46c3f98572)" style="fill: #808080; fill-opacity: 0.3"/>
    <path d="M 378.702531 296.413773 
L 397.281019 302.10555 
L 390.074219 317.532162 
L 371.466659 311.795976 
z
" clip-path="url(#p46c3f98572)" style="fill: #808080; fill-opacity: 0.3"/>
    <path d="M 352.933874 306.08284 
L 371.466659 311.795976 
L 364.196759 327.250515 
L 345.635126 321.492848 
z
" clip-path="url(#p46c3f98572)" style="fill: #808080; fill-opacity: 0.3"/>
    <path d="M 327.148109 315.758326 
L 345.635126 321.492848 
L 338.302044 336.975348 
L 319.786404 331.196173 
z
" clip-path="url(#p46c3f98572)" style="fill: #808080; fill-opacity: 0.3"/>
    <path d="M 301.345219 325.440237 
L 319.786404 331.196173 
L 312.390057 346.706667 
L 293.920476 340.905957 
z
" clip-path="url(#p46c3f98572)" style="fill: #808080; fill-opacity: 0.3"/>
    <path d="M 423.078225 292.421563 
L 441.777444 298.114871 
L 434.663252 313.558113 
L 415.934442 307.820283 
z
" clip-path="url(#p46c3f98572)" style="fill: #808080; fill-opacity: 0.3"/>
    <path d="M 397.281019 302.10555 
L 415.934442 307.820283 
L 408.757007 323.29154 
L 390.074219 317.532162 
z
" clip-path="url(#p46c3f98572)" style="fill: #808080; fill-opacity: 0.3"/>
    <path d="M 371.466659 311.795976 
L 390.074219 317.532162 
L 382.833459 333.031468 
L 364.196759 327.250515 
z
" clip-path="url(#p46c3f98572)" style="fill: #808080; fill-opacity: 0.3"/>
    <path d="M 345.635126 321.492848 
L 364.196759 327.250515 
L 356.89259 342.777903 
L 338.302044 336.975348 
z
" clip-path="url(#p46c3f98572)" style="fill: #808080; fill-opacity: 0.3"/>
    <path d="M 319.786404 331.196173 
L 338.302044 336.975348 
L 330.934384 352.530852 
L 312.390057 346.706667 
z
" clip-path="url(#p46c3f98572)" style="fill: #808080; fill-opacity: 0.3"/>
    <path d="M 415.934442 307.820283 
L 434.663252 313.558113 
L 427.515481 329.074249 
L 408.757007 323.29154 
z
" clip-path="url(#p46c3f98572)" style="fill: #808080; fill-opacity: 0.3"/>
    <path d="M 390.074219 317.532162 
L 408.757007 323.29154 
L 401.545683 338.835847 
L 382.833459 333.031468 
z
" clip-path="url(#p46c3f98572)" style="fill: #808080; fill-opacity: 0.3"/>
    <path d="M 364.196759 327.250515 
L 382.833459 333.031468 
L 375.558499 348.60398 
L 356.89259 342.777903 
z
" clip-path="url(#p46c3f98572)" style="fill: #808080; fill-opacity: 0.3"/>
    <path d="M 338.302044 336.975348 
L 356.89259 342.777903 
L 349.553911 358.378655 
L 330.934384 352.530852 
z
" clip-path="url(#p46c3f98572)" style="fill: #808080; fill-opacity: 0.3"/>
    <path d="M 408.757007 323.29154 
L 427.515481 329.074249 
L 420.333891 344.663796 
L 401.545683 338.835847 
z
" clip-path="url(#p46c3f98572)" style="fill: #808080; fill-opacity: 0.3"/>
    <path d="M 382.833459 333.031468 
L 401.545683 338.835847 
L 394.300229 354.453723 
L 375.558499 348.60398 
z
" clip-path="url(#p46c3f98572)" style="fill: #808080; fill-opacity: 0.3"/>
    <path d="M 356.89259 342.777903 
L 375.558499 348.60398 
L 368.249096 364.25022 
L 349.553911 358.378655 
z
" clip-path="url(#p46c3f98572)" style="fill: #808080; fill-opacity: 0.3"/>
    <path d="M 401.545683 338.835847 
L 420.333891 344.663796 
L 413.118243 360.327276 
L 394.300229 354.453723 
z
" clip-path="url(#p46c3f98572)" style="fill: #808080; fill-opacity: 0.3"/>
    <path d="M 375.558499 348.60398 
L 394.300229 354.453723 
L 387.020401 370.145692 
L 368.249096 364.25022 
z
" clip-path="url(#p46c3f98572)" style="fill: #808080; fill-opacity: 0.3"/>
    <path d="M 394.300229 354.453723 
L 413.118243 360.327276 
L 405.868293 376.065217 
L 387.020401 370.145692 
z
" clip-path="url(#p46c3f98572)" style="fill: #808080; fill-opacity: 0.3"/>
   </g>
   <g id="Path3DCollection_1">
    <path d="M 263.024209 194.501995 
L 268.501435 183.547544 
L 257.546984 183.547544 
z
" clip-path="url(#p46c3f98572)" style="fill: #00d9ff; fill-opacity: 0.3; stroke: #00d9ff; stroke-opacity: 0.3"/>
    <path d="M 312.34515 190.112968 
L 317.822376 179.158517 
L 306.867925 179.158517 
z
" clip-path="url(#p46c3f98572)" style="fill: #00ffbb; fill-opacity: 0.32125; stroke: #00ffbb; stroke-opacity: 0.32125"/>
    <path d="M 215.946551 207.628404 
L 221.423776 196.673953 
L 210.469325 196.673953 
z
" clip-path="url(#p46c3f98572)" style="fill: #0074ff; fill-opacity: 0.324053; stroke: #0074ff; stroke-opacity: 0.324053"/>
    <path d="M 365.334524 196.747899 
L 370.811749 185.793447 
L 359.857298 185.793447 
z
" clip-path="url(#p46c3f98572)" style="fill: #00ff57; fill-opacity: 0.375101; stroke: #00ff57; stroke-opacity: 0.375101"/>
    <path d="M 180.007988 236.923177 
L 185.485214 225.968726 
L 174.530763 225.968726 
z
" clip-path="url(#p46c3f98572)" style="fill: #001cff; fill-opacity: 0.420062; stroke: #001cff; stroke-opacity: 0.420062"/>
    <path d="M 423.292069 213.606262 
L 428.769295 202.65181 
L 417.814844 202.65181 
z
" clip-path="url(#p46c3f98572)" style="fill: #14ff00; fill-opacity: 0.453512; stroke: #14ff00; stroke-opacity: 0.453512"/>
    <path d="M 192.084478 292.624486 
L 197.561703 281.670035 
L 186.607252 281.670035 
z
" clip-path="url(#p46c3f98572)" style="fill: #5a00ff; fill-opacity: 0.544824; stroke: #5a00ff; stroke-opacity: 0.544824"/>
    <path d="M 243.394364 324.689576 
L 248.871589 313.735124 
L 237.917138 313.735124 
z
" clip-path="url(#p46c3f98572)" style="fill: #b900ff; fill-opacity: 0.582089; stroke: #b900ff; stroke-opacity: 0.582089"/>
    <path d="M 468.073629 238.338708 
L 473.550854 227.384256 
L 462.596403 227.384256 
z
" clip-path="url(#p46c3f98572)" style="fill: #78ff00; fill-opacity: 0.621794; stroke: #78ff00; stroke-opacity: 0.621794"/>
    <path d="M 293.045739 347.589428 
L 298.522964 336.634977 
L 287.568513 336.634977 
z
" clip-path="url(#p46c3f98572)" style="fill: #ff00e1; fill-opacity: 0.646716; stroke: #ff00e1; stroke-opacity: 0.646716"/>
    <path d="M 516.904601 286.560545 
L 522.381827 275.606094 
L 511.427376 275.606094 
z
" clip-path="url(#p46c3f98572)" style="fill: #ddff00; fill-opacity: 0.661823; stroke: #ddff00; stroke-opacity: 0.661823"/>
    <path d="M 342.181309 369.056971 
L 347.658534 358.10252 
L 336.704083 358.10252 
z
" clip-path="url(#p46c3f98572)" style="fill: #ff007c; fill-opacity: 0.74171; stroke: #ff007c; stroke-opacity: 0.74171"/>
    <path d="M 394.482412 385.417205 
L 399.959638 374.462754 
L 389.005187 374.462754 
z
" clip-path="url(#p46c3f98572)" style="fill: #ff0018; fill-opacity: 0.845413; stroke: #ff0018; stroke-opacity: 0.845413"/>
    <path d="M 532.103802 335.569071 
L 537.581028 324.61462 
L 526.626577 324.61462 
z
" clip-path="url(#p46c3f98572)" style="fill: #ffc300; fill-opacity: 0.869567; stroke: #ffc300; stroke-opacity: 0.869567"/>
    <path d="M 450.416999 394.898425 
L 455.894225 383.943974 
L 444.939774 383.943974 
z
" clip-path="url(#p46c3f98572)" style="fill: #ff0000; fill-opacity: 0.954579; stroke: #ff0000; stroke-opacity: 0.954579"/>
    <path d="M 500.599161 375.803369 
L 506.076387 364.848918 
L 495.121936 364.848918 
z
" clip-path="url(#p46c3f98572)" style="fill: #ff5f00; stroke: #ff5f00"/>
   </g>
   <g id="Poly3DCollection_2">
    <path d="M 381.21326 280.271624 
L 372.756245 289.982319 
L 358.311778 291.541599 
L 366.814327 281.864481 
z
" clip-path="url(#p46c3f98572)" style="fill: #808080; fill-opacity: 0.3"/>
    <path d="M 395.739303 278.664705 
L 387.328961 288.409193 
L 372.756245 289.982319 
L 381.21326 280.271624 
z
" clip-path="url(#p46c3f98572)" style="fill: #808080; fill-opacity: 0.3"/>
    <path d="M 372.756245 289.982319 
L 364.201032 299.805767 
L 349.710941 301.330584 
L 358.311778 291.541599 
z
" clip-path="url(#p46c3f98572)" style="fill: #808080; fill-opacity: 0.3"/>
    <path d="M 410.394144 277.043538 
L 402.031643 286.822038 
L 387.328961 288.409193 
L 395.739303 278.664705 
z
" clip-path="url(#p46c3f98572)" style="fill: #808080; fill-opacity: 0.3"/>
    <path d="M 387.328961 288.409193 
L 378.820528 298.267333 
L 364.201032 299.805767 
L 372.756245 289.982319 
z
" clip-path="url(#p46c3f98572)" style="fill: #808080; fill-opacity: 0.3"/>
    <path d="M 364.201032 299.805767 
L 355.545903 309.743944 
L 341.010102 311.233386 
L 349.710941 301.330584 
z
" clip-path="url(#p46c3f98572)" style="fill: #808080; fill-opacity: 0.3"/>
    <path d="M 425.179505 275.407933 
L 416.866036 285.220665 
L 402.031643 286.822038 
L 410.394144 277.043538 
z
" clip-path="url(#p46c3f98572)" style="fill: #808080; fill-opacity: 0.3"/>
    <path d="M 402.031643 286.822038 
L 393.571171 296.715098 
L 378.820528 298.267333 
L 387.328961 288.409193 
z
" clip-path="url(#p46c3f98572)" style="fill: #808080; fill-opacity: 0.3"/>
    <path d="M 378.820528 298.267333 
L 370.212279 308.241123 
L 355.545903 309.743944 
L 364.201032 299.805767 
z
" clip-path="url(#p46c3f98572)" style="fill: #808080; fill-opacity: 0.3"/>
    <path d="M 355.545903 309.743944 
L 346.789096 319.798871 
L 332.207506 321.252001 
L 341.010102 311.233386 
z
" clip-path="url(#p46c3f98572)" style="fill: #808080; fill-opacity: 0.3"/>
    <path d="M 440.097138 273.757695 
L 431.83392 283.604881 
L 416.866036 285.220665 
L 425.179505 275.407933 
z
" clip-path="url(#p46c3f98572)" style="fill: #808080; fill-opacity: 0.3"/>
    <path d="M 416.866036 285.220665 
L 408.454733 295.148875 
L 393.571171 296.715098 
L 402.031643 286.822038 
z
" clip-path="url(#p46c3f98572)" style="fill: #808080; fill-opacity: 0.3"/>
    <path d="M 393.571171 296.715098 
L 385.010998 306.724741 
L 370.212279 308.241123 
L 378.820528 298.267333 
z
" clip-path="url(#p46c3f98572)" style="fill: #808080; fill-opacity: 0.3"/>
    <path d="M 370.212279 308.241123 
L 361.502446 318.332611 
L 346.789096 319.798871 
L 355.545903 309.743944 
z
" clip-path="url(#p46c3f98572)" style="fill: #808080; fill-opacity: 0.3"/>
    <path d="M 455.148825 272.092628 
L 446.937103 281.974492 
L 431.83392 283.604881 
L 440.097138 273.757695 
z
" clip-path="url(#p46c3f98572)" style="fill: #808080; fill-opacity: 0.3"/>
    <path d="M 346.789096 319.798871 
L 337.92881 329.972619 
L 323.301357 331.388474 
L 332.207506 321.252001 
z
" clip-path="url(#p46c3f98572)" style="fill: #808080; fill-opacity: 0.3"/>
    <path d="M 431.83392 283.604881 
L 423.473019 293.568475 
L 408.454733 295.148875 
L 416.866036 285.220665 
z
" clip-path="url(#p46c3f98572)" style="fill: #808080; fill-opacity: 0.3"/>
    <path d="M 408.454733 295.148875 
L 399.943858 305.194614 
L 385.010998 306.724741 
L 393.571171 296.715098 
z
" clip-path="url(#p46c3f98572)" style="fill: #808080; fill-opacity: 0.3"/>
    <path d="M 385.010998 306.724741 
L 376.349349 316.853042 
L 361.502446 318.332611 
L 370.212279 308.241123 
z
" clip-path="url(#p46c3f98572)" style="fill: #808080; fill-opacity: 0.3"/>
    <path d="M 470.336382 270.412531 
L 462.17743 280.329298 
L 446.937103 281.974492 
L 455.148825 272.092628 
z
" clip-path="url(#p46c3f98572)" style="fill: #808080; fill-opacity: 0.3"/>
    <path d="M 361.502446 318.332611 
L 352.689221 328.543893 
L 337.92881 329.972619 
L 346.789096 319.798871 
z
" clip-path="url(#p46c3f98572)" style="fill: #808080; fill-opacity: 0.3"/>
    <path d="M 446.937103 281.974492 
L 438.627866 291.973705 
L 423.473019 293.568475 
L 431.83392 283.604881 
z
" clip-path="url(#p46c3f98572)" style="fill: #808080; fill-opacity: 0.3"/>
    <path d="M 337.92881 329.972619 
L 328.963199 340.267304 
L 314.289818 341.644897 
L 323.301357 331.388474 
z
" clip-path="url(#p46c3f98572)" style="fill: #808080; fill-opacity: 0.3"/>
    <path d="M 423.473019 293.568475 
L 415.012691 303.650554 
L 399.943858 305.194614 
L 408.454733 295.148875 
z
" clip-path="url(#p46c3f98572)" style="fill: #808080; fill-opacity: 0.3"/>
    <path d="M 399.943858 305.194614 
L 391.331632 315.359981 
L 376.349349 316.853042 
L 385.010998 306.724741 
z
" clip-path="url(#p46c3f98572)" style="fill: #808080; fill-opacity: 0.3"/>
    <path d="M 485.661656 268.717198 
L 477.556775 278.669097 
L 462.17743 280.329298 
L 470.336382 270.412531 
z
" clip-path="url(#p46c3f98572)" style="fill: #808080; fill-opacity: 0.3"/>
    <path d="M 376.349349 316.853042 
L 367.584411 327.102122 
L 352.689221 328.543893 
L 361.502446 318.332611 
z
" clip-path="url(#p46c3f98572)" style="fill: #808080; fill-opacity: 0.3"/>
    <path d="M 462.17743 280.329298 
L 453.921146 290.364367 
L 438.627866 291.973705 
L 446.937103 281.974492 
z
" clip-path="url(#p46c3f98572)" style="fill: #808080; fill-opacity: 0.3"/>
    <path d="M 352.689221 328.543893 
L 343.770751 338.877115 
L 328.963199 340.267304 
L 337.92881 329.972619 
z
" clip-path="url(#p46c3f98572)" style="fill: #808080; fill-opacity: 0.3"/>
    <path d="M 438.627866 291.973705 
L 430.219365 302.09237 
L 415.012691 303.650554 
L 423.473019 293.568475 
z
" clip-path="url(#p46c3f98572)" style="fill: #808080; fill-opacity: 0.3"/>
    <path d="M 328.963199 340.267304 
L 319.890373 350.685097 
L 305.171007 352.02341 
L 314.289818 341.644897 
z
" clip-path="url(#p46c3f98572)" style="fill: #808080; fill-opacity: 0.3"/>
    <path d="M 415.012691 303.650554 
L 406.451155 313.853243 
L 391.331632 315.359981 
L 399.943858 305.194614 
z
" clip-path="url(#p46c3f98572)" style="fill: #808080; fill-opacity: 0.3"/>
    <path d="M 501.126529 267.006423 
L 493.07705 276.993683 
L 477.556775 278.669097 
L 485.661656 268.717198 
z
" clip-path="url(#p46c3f98572)" style="fill: #808080; fill-opacity: 0.3"/>
    <path d="M 391.331632 315.359981 
L 382.616235 325.647125 
L 367.584411 327.102122 
L 376.349349 316.853042 
z
" clip-path="url(#p46c3f98572)" style="fill: #808080; fill-opacity: 0.3"/>
    <path d="M 477.556775 278.669097 
L 469.354764 288.740261 
L 453.921146 290.364367 
L 462.17743 280.329298 
z
" clip-path="url(#p46c3f98572)" style="fill: #808080; fill-opacity: 0.3"/>
    <path d="M 367.584411 327.102122 
L 358.714324 337.474155 
L 343.770751 338.877115 
L 352.689221 328.543893 
z
" clip-path="url(#p46c3f98572)" style="fill: #808080; fill-opacity: 0.3"/>
    <path d="M 453.921146 290.364367 
L 445.565778 300.519867 
L 430.219365 302.09237 
L 438.627866 291.973705 
z
" clip-path="url(#p46c3f98572)" style="fill: #808080; fill-opacity: 0.3"/>
    <path d="M 343.770751 338.877115 
L 334.74514 349.334473 
L 319.890373 350.685097 
L 328.963199 340.267304 
z
" clip-path="url(#p46c3f98572)" style="fill: #808080; fill-opacity: 0.3"/>
    <path d="M 430.219365 302.09237 
L 421.709811 312.33264 
L 406.451155 313.853243 
L 415.012691 303.650554 
z
" clip-path="url(#p46c3f98572)" style="fill: #808080; fill-opacity: 0.3"/>
    <path d="M 319.890373 350.685097 
L 310.708399 361.22822 
L 295.942996 362.526208 
L 305.171007 352.02341 
z
" clip-path="url(#p46c3f98572)" style="fill: #808080; fill-opacity: 0.3"/>
    <path d="M 406.451155 313.853243 
L 397.786581 324.17872 
L 382.616235 325.647125 
L 391.331632 315.359981 
z
" clip-path="url(#p46c3f98572)" style="fill: #808080; fill-opacity: 0.3"/>
    <path d="M 493.07705 276.993683 
L 484.93066 287.101183 
L 469.354764 288.740261 
L 477.556775 278.669097 
z
" clip-path="url(#p46c3f98572)" style="fill: #808080; fill-opacity: 0.3"/>
    <path d="M 382.616235 325.647125 
L 373.795801 336.058249 
L 358.714324 337.474155 
L 367.584411 327.102122 
z
" clip-path="url(#p46c3f98572)" style="fill: #808080; fill-opacity: 0.3"/>
    <path d="M 469.354764 288.740261 
L 461.053866 298.932848 
L 445.565778 300.519867 
L 453.921146 290.364367 
z
" clip-path="url(#p46c3f98572)" style="fill: #808080; fill-opacity: 0.3"/>
    <path d="M 358.714324 337.474155 
L 349.737185 347.971368 
L 334.74514 349.334473 
L 343.770751 338.877115 
z
" clip-path="url(#p46c3f98572)" style="fill: #808080; fill-opacity: 0.3"/>
    <path d="M 445.565778 300.519867 
L 437.109532 310.797979 
L 421.709811 312.33264 
L 430.219365 302.09237 
z
" clip-path="url(#p46c3f98572)" style="fill: #808080; fill-opacity: 0.3"/>
    <path d="M 334.74514 349.334473 
L 325.610446 359.918219 
L 310.708399 361.22822 
L 319.890373 350.685097 
z
" clip-path="url(#p46c3f98572)" style="fill: #808080; fill-opacity: 0.3"/>
    <path d="M 421.709811 312.33264 
L 413.097372 322.696721 
L 397.786581 324.17872 
L 406.451155 313.853243 
z
" clip-path="url(#p46c3f98572)" style="fill: #808080; fill-opacity: 0.3"/>
    <path d="M 310.708399 361.22822 
L 301.415294 371.898947 
L 286.603813 373.155537 
L 295.942996 362.526208 
z
" clip-path="url(#p46c3f98572)" style="fill: #808080; fill-opacity: 0.3"/>
    <path d="M 397.786581 324.17872 
L 389.017098 334.629216 
L 373.795801 336.058249 
L 382.616235 325.647125 
z
" clip-path="url(#p46c3f98572)" style="fill: #808080; fill-opacity: 0.3"/>
    <path d="M 484.93066 287.101183 
L 476.685599 297.331109 
L 461.053866 298.932848 
L 469.354764 288.740261 
z
" clip-path="url(#p46c3f98572)" style="fill: #808080; fill-opacity: 0.3"/>
    <path d="M 373.795801 336.058249 
L 364.86842 346.595607 
L 349.737185 347.971368 
L 358.714324 337.474155 
z
" clip-path="url(#p46c3f98572)" style="fill: #808080; fill-opacity: 0.3"/>
    <path d="M 461.053866 298.932848 
L 452.652281 309.249065 
L 437.109532 310.797979 
L 445.565778 300.519867 
z
" clip-path="url(#p46c3f98572)" style="fill: #808080; fill-opacity: 0.3"/>
    <path d="M 349.737185 347.971368 
L 340.651045 358.596039 
L 325.610446 359.918219 
L 334.74514 349.334473 
z
" clip-path="url(#p46c3f98572)" style="fill: #808080; fill-opacity: 0.3"/>
    <path d="M 437.109532 310.797979 
L 428.55057 321.200938 
L 413.097372 322.696721 
L 421.709811 312.33264 
z
" clip-path="url(#p46c3f98572)" style="fill: #808080; fill-opacity: 0.3"/>
    <path d="M 325.610446 359.918219 
L 316.364679 370.630658 
L 301.415294 371.898947 
L 310.708399 361.22822 
z
" clip-path="url(#p46c3f98572)" style="fill: #808080; fill-opacity: 0.3"/>
    <path d="M 413.097372 322.696721 
L 404.380171 333.186872 
L 389.017098 334.629216 
L 397.786581 324.17872 
z
" clip-path="url(#p46c3f98572)" style="fill: #808080; fill-opacity: 0.3"/>
    <path d="M 389.017098 334.629216 
L 380.140791 345.207013 
L 364.86842 346.595607 
L 373.795801 336.058249 
z
" clip-path="url(#p46c3f98572)" style="fill: #808080; fill-opacity: 0.3"/>
    <path d="M 476.685599 297.331109 
L 468.340062 307.685698 
L 452.652281 309.249065 
L 461.053866 298.932848 
z
" clip-path="url(#p46c3f98572)" style="fill: #808080; fill-opacity: 0.3"/>
    <path d="M 364.86842 346.595607 
L 355.832135 357.261508 
L 340.651045 358.596039 
L 349.737185 347.971368 
z
" clip-path="url(#p46c3f98572)" style="fill: #808080; fill-opacity: 0.3"/>
    <path d="M 452.652281 309.249065 
L 444.148168 319.691177 
L 428.55057 321.200938 
L 437.109532 310.797979 
z
" clip-path="url(#p46c3f98572)" style="fill: #808080; fill-opacity: 0.3"/>
    <path d="M 340.651045 358.596039 
L 331.453905 369.350504 
L 316.364679 370.630658 
L 325.610446 359.918219 
z
" clip-path="url(#p46c3f98572)" style="fill: #808080; fill-opacity: 0.3"/>
    <path d="M 428.55057 321.200938 
L 419.887008 331.731031 
L 404.380171 333.186872 
L 413.097372 322.696721 
z
" clip-path="url(#p46c3f98572)" style="fill: #808080; fill-opacity: 0.3"/>
    <path d="M 404.380171 333.186872 
L 395.556283 343.805407 
L 380.140791 345.207013 
L 389.017098 334.629216 
z
" clip-path="url(#p46c3f98572)" style="fill: #808080; fill-opacity: 0.3"/>
    <path d="M 380.140791 345.207013 
L 371.155695 355.914453 
L 355.832135 357.261508 
L 364.86842 346.595607 
z
" clip-path="url(#p46c3f98572)" style="fill: #808080; fill-opacity: 0.3"/>
    <path d="M 468.340062 307.685698 
L 459.892201 318.167243 
L 444.148168 319.691177 
L 452.652281 309.249065 
z
" clip-path="url(#p46c3f98572)" style="fill: #808080; fill-opacity: 0.3"/>
    <path d="M 355.832135 357.261508 
L 346.684941 368.05832 
L 331.453905 369.350504 
L 340.651045 358.596039 
z
" clip-path="url(#p46c3f98572)" style="fill: #808080; fill-opacity: 0.3"/>
    <path d="M 444.148168 319.691177 
L 435.539637 330.261503 
L 419.887008 331.731031 
L 428.55057 321.200938 
z
" clip-path="url(#p46c3f98572)" style="fill: #808080; fill-opacity: 0.3"/>
    <path d="M 419.887008 331.731031 
L 411.116918 342.390604 
L 395.556283 343.805407 
L 404.380171 333.186872 
z
" clip-path="url(#p46c3f98572)" style="fill: #808080; fill-opacity: 0.3"/>
    <path d="M 395.556283 343.805407 
L 386.62374 354.554697 
L 371.155695 355.914453 
L 380.140791 345.207013 
z
" clip-path="url(#p46c3f98572)" style="fill: #808080; fill-opacity: 0.3"/>
    <path d="M 371.155695 355.914453 
L 362.059797 366.753934 
L 346.684941 368.05832 
L 355.832135 357.261508 
z
" clip-path="url(#p46c3f98572)" style="fill: #808080; fill-opacity: 0.3"/>
    <path d="M 459.892201 318.167243 
L 451.340125 328.778093 
L 435.539637 330.261503 
L 444.148168 319.691177 
z
" clip-path="url(#p46c3f98572)" style="fill: #808080; fill-opacity: 0.3"/>
    <path d="M 435.539637 330.261503 
L 426.824754 340.962417 
L 411.116918 342.390604 
L 419.887008 331.731031 
z
" clip-path="url(#p46c3f98572)" style="fill: #808080; fill-opacity: 0.3"/>
    <path d="M 411.116918 342.390604 
L 402.238322 353.182059 
L 386.62374 354.554697 
L 395.556283 343.805407 
z
" clip-path="url(#p46c3f98572)" style="fill: #808080; fill-opacity: 0.3"/>
    <path d="M 386.62374 354.554697 
L 377.58052 365.437173 
L 362.059797 366.753934 
L 371.155695 355.914453 
z
" clip-path="url(#p46c3f98572)" style="fill: #808080; fill-opacity: 0.3"/>
    <path d="M 451.340125 328.778093 
L 442.68189 339.520656 
L 426.824754 340.962417 
L 435.539637 330.261503 
z
" clip-path="url(#p46c3f98572)" style="fill: #808080; fill-opacity: 0.3"/>
    <path d="M 426.824754 340.962417 
L 418.001535 351.796356 
L 402.238322 353.182059 
L 411.116918 342.390604 
z
" clip-path="url(#p46c3f98572)" style="fill: #808080; fill-opacity: 0.3"/>
    <path d="M 402.238322 353.182059 
L 393.249195 364.10786 
L 377.58052 365.437173 
L 386.62374 354.554697 
z
" clip-path="url(#p46c3f98572)" style="fill: #808080; fill-opacity: 0.3"/>
    <path d="M 442.68189 339.520656 
L 433.91551 350.397399 
L 418.001535 351.796356 
L 426.824754 340.962417 
z
" clip-path="url(#p46c3f98572)" style="fill: #808080; fill-opacity: 0.3"/>
    <path d="M 418.001535 351.796356 
L 409.067948 362.765815 
L 393.249195 364.10786 
L 402.238322 353.182059 
z
" clip-path="url(#p46c3f98572)" style="fill: #808080; fill-opacity: 0.3"/>
    <path d="M 433.91551 350.397399 
L 425.038945 361.410853 
L 409.067948 362.765815 
L 418.001535 351.796356 
z
" clip-path="url(#p46c3f98572)" style="fill: #808080; fill-opacity: 0.3"/>
   </g>
   <g id="legend_1">
    <g id="patch_6">
     <path d="M 343.470937 136.36125 
L 578.16 136.36125 
Q 581.76 136.36125 581.76 132.76125 
L 581.76 81.72 
Q 581.76 78.12 578.16 78.12 
L 343.470937 78.12 
Q 339.870937 78.12 339.870937 81.72 
L 339.870937 132.76125 
Q 339.870937 136.36125 343.470937 136.36125 
z
" style="fill: #ffffff; opacity: 0.8; stroke: #cccccc; stroke-linejoin: miter"/>
    </g>
    <g id="Path3DCollection_2">
     <path d="M 365.070937 99.749413 
C 366.523515 99.749413 367.916794 99.172298 368.943921 98.145171 
C 369.971048 97.118044 370.548163 95.724765 370.548163 94.272188 
C 370.548163 92.81961 369.971048 91.426331 368.943921 90.399204 
C 367.916794 89.372077 366.523515 88.794962 365.070937 88.794962 
C 363.61836 88.794962 362.225081 89.372077 361.197954 90.399204 
C 360.170827 91.426331 359.593712 92.81961 359.593712 94.272188 
C 359.593712 95.724765 360.170827 97.118044 361.197954 98.145171 
C 362.225081 99.172298 363.61836 99.749413 365.070937 99.749413 
z
" style="fill: #ff0000; stroke: #ff0000"/>
    </g>
    <g id="text_19">
     <!-- Selected stimulus 1 -->
     <g transform="translate(397.470937 98.997188) scale(0.18 -0.18)">
      <defs>
       <path id="DejaVuSans-53" d="M 3425 4513 
L 3425 3897 
Q 3066 4069 2747 4153 
Q 2428 4238 2131 4238 
Q 1616 4238 1336 4038 
Q 1056 3838 1056 3469 
Q 1056 3159 1242 3001 
Q 1428 2844 1947 2747 
L 2328 2669 
Q 3034 2534 3370 2195 
Q 3706 1856 3706 1288 
Q 3706 609 3251 259 
Q 2797 -91 1919 -91 
Q 1588 -91 1214 -16 
Q 841 59 441 206 
L 441 856 
Q 825 641 1194 531 
Q 1563 422 1919 422 
Q 2459 422 2753 634 
Q 3047 847 3047 1241 
Q 3047 1584 2836 1778 
Q 2625 1972 2144 2069 
L 1759 2144 
Q 1053 2284 737 2584 
Q 422 2884 422 3419 
Q 422 4038 858 4394 
Q 1294 4750 2059 4750 
Q 2388 4750 2728 4690 
Q 3069 4631 3425 4513 
z
" transform="scale(0.015625)"/>
       <path id="DejaVuSans-65" d="M 3597 1894 
L 3597 1613 
L 953 1613 
Q 991 1019 1311 708 
Q 1631 397 2203 397 
Q 2534 397 2845 478 
Q 3156 559 3463 722 
L 3463 178 
Q 3153 47 2828 -22 
Q 2503 -91 2169 -91 
Q 1331 -91 842 396 
Q 353 884 353 1716 
Q 353 2575 817 3079 
Q 1281 3584 2069 3584 
Q 2775 3584 3186 3129 
Q 3597 2675 3597 1894 
z
M 3022 2063 
Q 3016 2534 2758 2815 
Q 2500 3097 2075 3097 
Q 1594 3097 1305 2825 
Q 1016 2553 972 2059 
L 3022 2063 
z
" transform="scale(0.015625)"/>
       <path id="DejaVuSans-6c" d="M 603 4863 
L 1178 4863 
L 1178 0 
L 603 0 
L 603 4863 
z
" transform="scale(0.015625)"/>
       <path id="DejaVuSans-63" d="M 3122 3366 
L 3122 2828 
Q 2878 2963 2633 3030 
Q 2388 3097 2138 3097 
Q 1578 3097 1268 2742 
Q 959 2388 959 1747 
Q 959 1106 1268 751 
Q 1578 397 2138 397 
Q 2388 397 2633 464 
Q 2878 531 3122 666 
L 3122 134 
Q 2881 22 2623 -34 
Q 2366 -91 2075 -91 
Q 1284 -91 818 406 
Q 353 903 353 1747 
Q 353 2603 823 3093 
Q 1294 3584 2113 3584 
Q 2378 3584 2631 3529 
Q 2884 3475 3122 3366 
z
" transform="scale(0.015625)"/>
       <path id="DejaVuSans-74" d="M 1172 4494 
L 1172 3500 
L 2356 3500 
L 2356 3053 
L 1172 3053 
L 1172 1153 
Q 1172 725 1289 603 
Q 1406 481 1766 481 
L 2356 481 
L 2356 0 
L 1766 0 
Q 1100 0 847 248 
Q 594 497 594 1153 
L 594 3053 
L 172 3053 
L 172 3500 
L 594 3500 
L 594 4494 
L 1172 4494 
z
" transform="scale(0.015625)"/>
       <path id="DejaVuSans-64" d="M 2906 2969 
L 2906 4863 
L 3481 4863 
L 3481 0 
L 2906 0 
L 2906 525 
Q 2725 213 2448 61 
Q 2172 -91 1784 -91 
Q 1150 -91 751 415 
Q 353 922 353 1747 
Q 353 2572 751 3078 
Q 1150 3584 1784 3584 
Q 2172 3584 2448 3432 
Q 2725 3281 2906 2969 
z
M 947 1747 
Q 947 1113 1208 752 
Q 1469 391 1925 391 
Q 2381 391 2643 752 
Q 2906 1113 2906 1747 
Q 2906 2381 2643 2742 
Q 2381 3103 1925 3103 
Q 1469 3103 1208 2742 
Q 947 2381 947 1747 
z
" transform="scale(0.015625)"/>
       <path id="DejaVuSans-73" d="M 2834 3397 
L 2834 2853 
Q 2591 2978 2328 3040 
Q 2066 3103 1784 3103 
Q 1356 3103 1142 2972 
Q 928 2841 928 2578 
Q 928 2378 1081 2264 
Q 1234 2150 1697 2047 
L 1894 2003 
Q 2506 1872 2764 1633 
Q 3022 1394 3022 966 
Q 3022 478 2636 193 
Q 2250 -91 1575 -91 
Q 1294 -91 989 -36 
Q 684 19 347 128 
L 347 722 
Q 666 556 975 473 
Q 1284 391 1588 391 
Q 1994 391 2212 530 
Q 2431 669 2431 922 
Q 2431 1156 2273 1281 
Q 2116 1406 1581 1522 
L 1381 1569 
Q 847 1681 609 1914 
Q 372 2147 372 2553 
Q 372 3047 722 3315 
Q 1072 3584 1716 3584 
Q 2034 3584 2315 3537 
Q 2597 3491 2834 3397 
z
" transform="scale(0.015625)"/>
       <path id="DejaVuSans-69" d="M 603 3500 
L 1178 3500 
L 1178 0 
L 603 0 
L 603 3500 
z
M 603 4863 
L 1178 4863 
L 1178 4134 
L 603 4134 
L 603 4863 
z
" transform="scale(0.015625)"/>
       <path id="DejaVuSans-6d" d="M 3328 2828 
Q 3544 3216 3844 3400 
Q 4144 3584 4550 3584 
Q 5097 3584 5394 3201 
Q 5691 2819 5691 2113 
L 5691 0 
L 5113 0 
L 5113 2094 
Q 5113 2597 4934 2840 
Q 4756 3084 4391 3084 
Q 3944 3084 3684 2787 
Q 3425 2491 3425 1978 
L 3425 0 
L 2847 0 
L 2847 2094 
Q 2847 2600 2669 2842 
Q 2491 3084 2119 3084 
Q 1678 3084 1418 2786 
Q 1159 2488 1159 1978 
L 1159 0 
L 581 0 
L 581 3500 
L 1159 3500 
L 1159 2956 
Q 1356 3278 1631 3431 
Q 1906 3584 2284 3584 
Q 2666 3584 2933 3390 
Q 3200 3197 3328 2828 
z
" transform="scale(0.015625)"/>
       <path id="DejaVuSans-75" d="M 544 1381 
L 544 3500 
L 1119 3500 
L 1119 1403 
Q 1119 906 1312 657 
Q 1506 409 1894 409 
Q 2359 409 2629 706 
Q 2900 1003 2900 1516 
L 2900 3500 
L 3475 3500 
L 3475 0 
L 2900 0 
L 2900 538 
Q 2691 219 2414 64 
Q 2138 -91 1772 -91 
Q 1169 -91 856 284 
Q 544 659 544 1381 
z
M 1991 3584 
L 1991 3584 
z
" transform="scale(0.015625)"/>
      </defs>
      <use xlink:href="#DejaVuSans-53"/>
      <use xlink:href="#DejaVuSans-65" x="63.476562"/>
      <use xlink:href="#DejaVuSans-6c" x="125"/>
      <use xlink:href="#DejaVuSans-65" x="152.783203"/>
      <use xlink:href="#DejaVuSans-63" x="214.306641"/>
      <use xlink:href="#DejaVuSans-74" x="269.287109"/>
      <use xlink:href="#DejaVuSans-65" x="308.496094"/>
      <use xlink:href="#DejaVuSans-64" x="370.019531"/>
      <use xlink:href="#DejaVuSans-20" x="433.496094"/>
      <use xlink:href="#DejaVuSans-73" x="465.283203"/>
      <use xlink:href="#DejaVuSans-74" x="517.382812"/>
      <use xlink:href="#DejaVuSans-69" x="556.591797"/>
      <use xlink:href="#DejaVuSans-6d" x="584.375"/>
      <use xlink:href="#DejaVuSans-75" x="681.787109"/>
      <use xlink:href="#DejaVuSans-6c" x="745.166016"/>
      <use xlink:href="#DejaVuSans-75" x="772.949219"/>
      <use xlink:href="#DejaVuSans-73" x="836.328125"/>
      <use xlink:href="#DejaVuSans-20" x="888.427734"/>
      <use xlink:href="#DejaVuSans-31" x="920.214844"/>
     </g>
    </g>
    <g id="Path3DCollection_3">
     <path d="M 365.070937 126.170038 
L 370.548163 115.215587 
L 359.593712 115.215587 
z
" style="fill: #ff0000; stroke: #ff0000"/>
    </g>
    <g id="text_20">
     <!-- Selected stimulus 2 -->
     <g transform="translate(397.470937 125.417813) scale(0.18 -0.18)">
      <use xlink:href="#DejaVuSans-53"/>
      <use xlink:href="#DejaVuSans-65" x="63.476562"/>
      <use xlink:href="#DejaVuSans-6c" x="125"/>
      <use xlink:href="#DejaVuSans-65" x="152.783203"/>
      <use xlink:href="#DejaVuSans-63" x="214.306641"/>
      <use xlink:href="#DejaVuSans-74" x="269.287109"/>
      <use xlink:href="#DejaVuSans-65" x="308.496094"/>
      <use xlink:href="#DejaVuSans-64" x="370.019531"/>
      <use xlink:href="#DejaVuSans-20" x="433.496094"/>
      <use xlink:href="#DejaVuSans-73" x="465.283203"/>
      <use xlink:href="#DejaVuSans-74" x="517.382812"/>
      <use xlink:href="#DejaVuSans-69" x="556.591797"/>
      <use xlink:href="#DejaVuSans-6d" x="584.375"/>
      <use xlink:href="#DejaVuSans-75" x="681.787109"/>
      <use xlink:href="#DejaVuSans-6c" x="745.166016"/>
      <use xlink:href="#DejaVuSans-75" x="772.949219"/>
      <use xlink:href="#DejaVuSans-73" x="836.328125"/>
      <use xlink:href="#DejaVuSans-20" x="888.427734"/>
      <use xlink:href="#DejaVuSans-32" x="920.214844"/>
     </g>
    </g>
   </g>
   <g id="Path3DCollection_4">
    <defs>
     <path id="C0_0_3db6483dd6" d="M 0 5.477226 
C 1.452577 5.477226 2.845856 4.900111 3.872983 3.872983 
C 4.900111 2.845856 5.477226 1.452577 5.477226 -0 
C 5.477226 -1.452577 4.900111 -2.845856 3.872983 -3.872983 
C 2.845856 -4.900111 1.452577 -5.477226 0 -5.477226 
C -1.452577 -5.477226 -2.845856 -4.900111 -3.872983 -3.872983 
C -4.900111 -2.845856 -5.477226 -1.452577 -5.477226 0 
C -5.477226 1.452577 -4.900111 2.845856 -3.872983 3.872983 
C -2.845856 4.900111 -1.452577 5.477226 0 5.477226 
z
"/>
    </defs>
    <g clip-path="url(#p46c3f98572)">
     <use xlink:href="#C0_0_3db6483dd6" x="356.778791" y="272.932281" style="fill: #00f0ff; fill-opacity: 0.3; stroke: #00f0ff; stroke-opacity: 0.3"/>
    </g>
    <g clip-path="url(#p46c3f98572)">
     <use xlink:href="#C0_0_3db6483dd6" x="395.880051" y="262.878434" style="fill: #00ffa9; fill-opacity: 0.318277; stroke: #00ffa9; stroke-opacity: 0.318277"/>
    </g>
    <g clip-path="url(#p46c3f98572)">
     <use xlink:href="#C0_0_3db6483dd6" x="321.336863" y="293.635495" style="fill: #0086ff; fill-opacity: 0.327872; stroke: #0086ff; stroke-opacity: 0.327872"/>
    </g>
    <g clip-path="url(#p46c3f98572)">
     <use xlink:href="#C0_0_3db6483dd6" x="434.810329" y="259.775808" style="fill: #00ff45; fill-opacity: 0.381568; stroke: #00ff45; stroke-opacity: 0.381568"/>
    </g>
    <g clip-path="url(#p46c3f98572)">
     <use xlink:href="#C0_0_3db6483dd6" x="294.461307" y="319.404324" style="fill: #0028ff; fill-opacity: 0.391534; stroke: #0028ff; stroke-opacity: 0.391534"/>
    </g>
    <g clip-path="url(#p46c3f98572)">
     <use xlink:href="#C0_0_3db6483dd6" x="470.943452" y="259.613179" style="fill: #20ff00; fill-opacity: 0.474815; stroke: #20ff00; stroke-opacity: 0.474815"/>
    </g>
    <g clip-path="url(#p46c3f98572)">
     <use xlink:href="#C0_0_3db6483dd6" x="279.454501" y="354.134457" style="fill: #5400ff; fill-opacity: 0.518355; stroke: #5400ff; stroke-opacity: 0.518355"/>
    </g>
    <g clip-path="url(#p46c3f98572)">
     <use xlink:href="#C0_0_3db6483dd6" x="501.810099" y="276.856941" style="fill: #84ff00; fill-opacity: 0.588242; stroke: #84ff00; stroke-opacity: 0.588242"/>
    </g>
    <g clip-path="url(#p46c3f98572)">
     <use xlink:href="#C0_0_3db6483dd6" x="291.733983" y="361.50032" style="fill: #b300ff; fill-opacity: 0.605858; stroke: #b300ff; stroke-opacity: 0.605858"/>
    </g>
    <g clip-path="url(#p46c3f98572)">
     <use xlink:href="#C0_0_3db6483dd6" x="316.379245" y="370.796154" style="fill: #ff00e1; fill-opacity: 0.697963; stroke: #ff00e1; stroke-opacity: 0.697963"/>
    </g>
    <g clip-path="url(#p46c3f98572)">
     <use xlink:href="#C0_0_3db6483dd6" x="526.640497" y="281.531279" style="fill: #e2ff00; fill-opacity: 0.738471; stroke: #e2ff00; stroke-opacity: 0.738471"/>
    </g>
    <g clip-path="url(#p46c3f98572)">
     <use xlink:href="#C0_0_3db6483dd6" x="344.734986" y="376.175811" style="fill: #ff007c; fill-opacity: 0.788587; stroke: #ff007c; stroke-opacity: 0.788587"/>
    </g>
    <g clip-path="url(#p46c3f98572)">
     <use xlink:href="#C0_0_3db6483dd6" x="383.384328" y="379.869199" style="fill: #ff0018; fill-opacity: 0.885768; stroke: #ff0018; stroke-opacity: 0.885768"/>
    </g>
    <g clip-path="url(#p46c3f98572)">
     <use xlink:href="#C0_0_3db6483dd6" x="515.679992" y="326.20992" style="fill: #ffab00; fill-opacity: 0.915786; stroke: #ffab00; stroke-opacity: 0.915786"/>
    </g>
    <g clip-path="url(#p46c3f98572)">
     <use xlink:href="#C0_0_3db6483dd6" x="431.041168" y="377.26274" style="fill: #ff0000; fill-opacity: 0.971912; stroke: #ff0000; stroke-opacity: 0.971912"/>
    </g>
    <g clip-path="url(#p46c3f98572)">
     <use xlink:href="#C0_0_3db6483dd6" x="468.798869" y="365.679991" style="fill: #ff4700; stroke: #ff4700"/>
    </g>
   </g>
  </g>
 </g>
 <defs>
  <clipPath id="p46c3f98572">
   <rect x="147.24" y="69.12" width="443.52" height="443.52"/>
  </clipPath>
 </defs>
</svg>
