<?xml version="1.0" encoding="utf-8" standalone="no"?>
<!DOCTYPE svg PUBLIC "-//W3C//DTD SVG 1.1//EN"
  "http://www.w3.org/Graphics/SVG/1.1/DTD/svg11.dtd">
<svg xmlns:xlink="http://www.w3.org/1999/xlink" width="720pt" height="576pt" viewBox="0 0 720 576" xmlns="http://www.w3.org/2000/svg" version="1.1">
 <metadata>
  <rdf:RDF xmlns:dc="http://purl.org/dc/elements/1.1/" xmlns:cc="http://creativecommons.org/ns#" xmlns:rdf="http://www.w3.org/1999/02/22-rdf-syntax-ns#">
   <cc:Work>
    <dc:type rdf:resource="http://purl.org/dc/dcmitype/StillImage"/>
    <dc:date>2025-10-15T14:30:54.078185</dc:date>
    <dc:format>image/svg+xml</dc:format>
    <dc:creator>
     <cc:Agent>
      <dc:title>Matplotlib v3.9.2, https://matplotlib.org/</dc:title>
     </cc:Agent>
    </dc:creator>
   </cc:Work>
  </rdf:RDF>
 </metadata>
 <defs>
  <style type="text/css">*{stroke-linejoin: round; stroke-linecap: butt}</style>
 </defs>
 <g id="figure_1">
  <g id="patch_1">
   <path d="M 0 576 
L 720 576 
L 720 0 
L 0 0 
L 0 576 
z
" style="fill: none"/>
  </g>
  <g id="patch_2">
   <path d="M 147.24 512.64 
L 590.76 512.64 
L 590.76 69.12 
L 147.24 69.12 
L 147.24 512.64 
z
" style="fill: none"/>
  </g>
  <g id="pane3d_1">
   <g id="patch_3">
    <path d="M 241.776258 333.210956 
L 508.210769 333.210956 
L 512.119926 141.343983 
L 237.867101 141.343983 
" style="fill: none; opacity: 0.5; stroke: #f2f2f2; stroke-linejoin: miter"/>
   </g>
  </g>
  <g id="pane3d_2">
   <g id="patch_4">
    <path d="M 241.776258 333.210956 
L 226.241772 440.598264 
L 221.351029 229.152779 
L 237.867101 141.343983 
" style="fill: none; opacity: 0.5; stroke: #e6e6e6; stroke-linejoin: miter"/>
   </g>
  </g>
  <g id="pane3d_3">
   <g id="patch_5">
    <path d="M 241.776258 333.210956 
L 226.241772 440.598264 
L 523.745255 440.598264 
L 508.210769 333.210956 
" style="fill: none; opacity: 0.5; stroke: #ececec; stroke-linejoin: miter"/>
   </g>
  </g>
  <g id="grid3d_1">
   <g id="Line3DCollection_1">
    <path d="M 509.147902 339.6892 
L 240.839125 339.6892 
L 236.873957 146.624098 
" style="fill: none; stroke: #b0b0b0; stroke-width: 0.8"/>
    <path d="M 512.048355 359.739547 
L 237.938672 359.739547 
L 233.797549 162.980029 
" style="fill: none; stroke: #b0b0b0; stroke-width: 0.8"/>
    <path d="M 515.076997 380.676041 
L 234.91003 380.676041 
L 230.580973 180.081167 
" style="fill: none; stroke: #b0b0b0; stroke-width: 0.8"/>
    <path d="M 518.242517 402.558754 
L 231.74451 402.558754 
L 227.214428 197.979628 
" style="fill: none; stroke: #b0b0b0; stroke-width: 0.8"/>
    <path d="M 521.55441 425.453317 
L 228.432617 425.453317 
L 223.687175 216.732504 
" style="fill: none; stroke: #b0b0b0; stroke-width: 0.8"/>
   </g>
  </g>
  <g id="grid3d_2">
   <g id="Line3DCollection_2">
    <path d="M 254.227789 141.343983 
L 257.67054 333.210956 
L 243.98949 440.598264 
" style="fill: none; stroke: #b0b0b0; stroke-width: 0.8"/>
    <path d="M 309.41562 141.343983 
L 311.285094 333.210956 
L 303.856045 440.598264 
" style="fill: none; stroke: #b0b0b0; stroke-width: 0.8"/>
    <path d="M 364.603451 141.343983 
L 364.899648 333.210956 
L 363.722601 440.598264 
" style="fill: none; stroke: #b0b0b0; stroke-width: 0.8"/>
    <path d="M 419.791282 141.343983 
L 418.514202 333.210956 
L 423.589156 440.598264 
" style="fill: none; stroke: #b0b0b0; stroke-width: 0.8"/>
    <path d="M 474.979113 141.343983 
L 472.128755 333.210956 
L 483.455711 440.598264 
" style="fill: none; stroke: #b0b0b0; stroke-width: 0.8"/>
   </g>
  </g>
  <g id="grid3d_3">
   <g id="Line3DCollection_3">
    <path d="M 225.551372 410.749649 
L 241.222797 306.046302 
L 508.76423 306.046302 
" style="fill: none; stroke: #b0b0b0; stroke-width: 0.8"/>
    <path d="M 224.583443 368.902368 
L 240.447755 268.00618 
L 509.539272 268.00618 
" style="fill: none; stroke: #b0b0b0; stroke-width: 0.8"/>
    <path d="M 223.602893 326.509467 
L 239.663681 229.522694 
L 510.323346 229.522694 
" style="fill: none; stroke: #b0b0b0; stroke-width: 0.8"/>
    <path d="M 222.609475 283.560206 
L 238.870415 190.58805 
L 511.116612 190.58805 
" style="fill: none; stroke: #b0b0b0; stroke-width: 0.8"/>
    <path d="M 221.602933 240.043559 
L 238.067794 151.194266 
L 511.919233 151.194266 
" style="fill: none; stroke: #b0b0b0; stroke-width: 0.8"/>
   </g>
  </g>
  <g id="axis3d_1">
   <g id="line2d_1">
    <path d="M 508.210769 333.210956 
L 523.745255 440.598264 
" style="fill: none; stroke: #000000; stroke-width: 0.8; stroke-linecap: square"/>
   </g>
   <g id="xtick_1">
    <g id="line2d_2">
     <path d="M 507.001432 339.6892 
L 513.440843 339.6892 
" style="fill: none; stroke: #000000; stroke-width: 0.8; stroke-linecap: square"/>
    </g>
    <g id="text_1">
     <!-- −50 -->
     <g transform="translate(509.631931 358.12954) scale(0.12 -0.12)">
      <defs>
       <path id="DejaVuSans-2212" d="M 678 2272 
L 4684 2272 
L 4684 1741 
L 678 1741 
L 678 2272 
z
" transform="scale(0.015625)"/>
       <path id="DejaVuSans-35" d="M 691 4666 
L 3169 4666 
L 3169 4134 
L 1269 4134 
L 1269 2991 
Q 1406 3038 1543 3061 
Q 1681 3084 1819 3084 
Q 2600 3084 3056 2656 
Q 3513 2228 3513 1497 
Q 3513 744 3044 326 
Q 2575 -91 1722 -91 
Q 1428 -91 1123 -41 
Q 819 9 494 109 
L 494 744 
Q 775 591 1075 516 
Q 1375 441 1709 441 
Q 2250 441 2565 725 
Q 2881 1009 2881 1497 
Q 2881 1984 2565 2268 
Q 2250 2553 1709 2553 
Q 1456 2553 1204 2497 
Q 953 2441 691 2322 
L 691 4666 
z
" transform="scale(0.015625)"/>
       <path id="DejaVuSans-30" d="M 2034 4250 
Q 1547 4250 1301 3770 
Q 1056 3291 1056 2328 
Q 1056 1369 1301 889 
Q 1547 409 2034 409 
Q 2525 409 2770 889 
Q 3016 1369 3016 2328 
Q 3016 3291 2770 3770 
Q 2525 4250 2034 4250 
z
M 2034 4750 
Q 2819 4750 3233 4129 
Q 3647 3509 3647 2328 
Q 3647 1150 3233 529 
Q 2819 -91 2034 -91 
Q 1250 -91 836 529 
Q 422 1150 422 2328 
Q 422 3509 836 4129 
Q 1250 4750 2034 4750 
z
" transform="scale(0.015625)"/>
      </defs>
      <use xlink:href="#DejaVuSans-2212"/>
      <use xlink:href="#DejaVuSans-35" x="83.789062"/>
      <use xlink:href="#DejaVuSans-30" x="147.412109"/>
     </g>
    </g>
   </g>
   <g id="xtick_2">
    <g id="line2d_3">
     <path d="M 509.855478 359.739547 
L 516.43411 359.739547 
" style="fill: none; stroke: #000000; stroke-width: 0.8; stroke-linecap: square"/>
    </g>
    <g id="text_2">
     <!-- −25 -->
     <g transform="translate(512.811979 378.351909) scale(0.12 -0.12)">
      <defs>
       <path id="DejaVuSans-32" d="M 1228 531 
L 3431 531 
L 3431 0 
L 469 0 
L 469 531 
Q 828 903 1448 1529 
Q 2069 2156 2228 2338 
Q 2531 2678 2651 2914 
Q 2772 3150 2772 3378 
Q 2772 3750 2511 3984 
Q 2250 4219 1831 4219 
Q 1534 4219 1204 4116 
Q 875 4013 500 3803 
L 500 4441 
Q 881 4594 1212 4672 
Q 1544 4750 1819 4750 
Q 2544 4750 2975 4387 
Q 3406 4025 3406 3419 
Q 3406 3131 3298 2873 
Q 3191 2616 2906 2266 
Q 2828 2175 2409 1742 
Q 1991 1309 1228 531 
z
" transform="scale(0.015625)"/>
      </defs>
      <use xlink:href="#DejaVuSans-2212"/>
      <use xlink:href="#DejaVuSans-32" x="83.789062"/>
      <use xlink:href="#DejaVuSans-35" x="147.412109"/>
     </g>
    </g>
   </g>
   <g id="xtick_3">
    <g id="line2d_4">
     <path d="M 512.835661 380.676041 
L 519.559668 380.676041 
" style="fill: none; stroke: #000000; stroke-width: 0.8; stroke-linecap: square"/>
    </g>
    <g id="text_3">
     <!-- 0 -->
     <g transform="translate(524.977675 399.466696) scale(0.12 -0.12)">
      <use xlink:href="#DejaVuSans-30"/>
     </g>
    </g>
   </g>
   <g id="xtick_4">
    <g id="line2d_5">
     <path d="M 515.950533 402.558754 
L 522.826485 402.558754 
" style="fill: none; stroke: #000000; stroke-width: 0.8; stroke-linecap: square"/>
    </g>
    <g id="text_4">
     <!-- 25 -->
     <g transform="translate(524.630394 421.534306) scale(0.12 -0.12)">
      <use xlink:href="#DejaVuSans-32"/>
      <use xlink:href="#DejaVuSans-35" x="63.623047"/>
     </g>
    </g>
   </g>
   <g id="xtick_5">
    <g id="line2d_6">
     <path d="M 519.209435 425.453317 
L 526.244359 425.453317 
" style="fill: none; stroke: #000000; stroke-width: 0.8; stroke-linecap: square"/>
    </g>
    <g id="text_5">
     <!-- 50 -->
     <g transform="translate(528.260825 444.620724) scale(0.12 -0.12)">
      <use xlink:href="#DejaVuSans-35"/>
      <use xlink:href="#DejaVuSans-30" x="63.623047"/>
     </g>
    </g>
   </g>
   <g id="text_6">
    <!-- PC 1 -->
    <g transform="translate(532.260686 414.995741) scale(0.18 -0.18)">
     <defs>
      <path id="DejaVuSans-50" d="M 1259 4147 
L 1259 2394 
L 2053 2394 
Q 2494 2394 2734 2622 
Q 2975 2850 2975 3272 
Q 2975 3691 2734 3919 
Q 2494 4147 2053 4147 
L 1259 4147 
z
M 628 4666 
L 2053 4666 
Q 2838 4666 3239 4311 
Q 3641 3956 3641 3272 
Q 3641 2581 3239 2228 
Q 2838 1875 2053 1875 
L 1259 1875 
L 1259 0 
L 628 0 
L 628 4666 
z
" transform="scale(0.015625)"/>
      <path id="DejaVuSans-43" d="M 4122 4306 
L 4122 3641 
Q 3803 3938 3442 4084 
Q 3081 4231 2675 4231 
Q 1875 4231 1450 3742 
Q 1025 3253 1025 2328 
Q 1025 1406 1450 917 
Q 1875 428 2675 428 
Q 3081 428 3442 575 
Q 3803 722 4122 1019 
L 4122 359 
Q 3791 134 3420 21 
Q 3050 -91 2638 -91 
Q 1578 -91 968 557 
Q 359 1206 359 2328 
Q 359 3453 968 4101 
Q 1578 4750 2638 4750 
Q 3056 4750 3426 4639 
Q 3797 4528 4122 4306 
z
" transform="scale(0.015625)"/>
      <path id="DejaVuSans-20" transform="scale(0.015625)"/>
      <path id="DejaVuSans-31" d="M 794 531 
L 1825 531 
L 1825 4091 
L 703 3866 
L 703 4441 
L 1819 4666 
L 2450 4666 
L 2450 531 
L 3481 531 
L 3481 0 
L 794 0 
L 794 531 
z
" transform="scale(0.015625)"/>
     </defs>
     <use xlink:href="#DejaVuSans-50"/>
     <use xlink:href="#DejaVuSans-43" x="60.302734"/>
     <use xlink:href="#DejaVuSans-20" x="130.126953"/>
     <use xlink:href="#DejaVuSans-31" x="161.914062"/>
    </g>
   </g>
  </g>
  <g id="axis3d_2">
   <g id="line2d_7">
    <path d="M 226.241772 440.598264 
L 523.745255 440.598264 
" style="fill: none; stroke: #000000; stroke-width: 0.8; stroke-linecap: square"/>
   </g>
   <g id="xtick_6">
    <g id="line2d_8">
     <path d="M 244.111587 439.63988 
L 243.744611 442.520406 
" style="fill: none; stroke: #000000; stroke-width: 0.8; stroke-linecap: square"/>
    </g>
    <g id="text_7">
     <!-- −50 -->
     <g transform="translate(230.771424 465.945847) scale(0.12 -0.12)">
      <use xlink:href="#DejaVuSans-2212"/>
      <use xlink:href="#DejaVuSans-35" x="83.789062"/>
      <use xlink:href="#DejaVuSans-30" x="147.412109"/>
     </g>
    </g>
   </g>
   <g id="xtick_7">
    <g id="line2d_9">
     <path d="M 303.922346 439.63988 
L 303.723072 442.520406 
" style="fill: none; stroke: #000000; stroke-width: 0.8; stroke-linecap: square"/>
    </g>
    <g id="text_8">
     <!-- −25 -->
     <g transform="translate(290.89172 465.945847) scale(0.12 -0.12)">
      <use xlink:href="#DejaVuSans-2212"/>
      <use xlink:href="#DejaVuSans-32" x="83.789062"/>
      <use xlink:href="#DejaVuSans-35" x="147.412109"/>
     </g>
    </g>
   </g>
   <g id="xtick_8">
    <g id="line2d_10">
     <path d="M 363.733105 439.63988 
L 363.701533 442.520406 
" style="fill: none; stroke: #000000; stroke-width: 0.8; stroke-linecap: square"/>
    </g>
    <g id="text_9">
     <!-- 0 -->
     <g transform="translate(359.857329 465.945847) scale(0.12 -0.12)">
      <use xlink:href="#DejaVuSans-30"/>
     </g>
    </g>
   </g>
   <g id="xtick_9">
    <g id="line2d_11">
     <path d="M 423.543864 439.63988 
L 423.679993 442.520406 
" style="fill: none; stroke: #000000; stroke-width: 0.8; stroke-linecap: square"/>
    </g>
    <g id="text_10">
     <!-- 25 -->
     <g transform="translate(416.160126 465.945847) scale(0.12 -0.12)">
      <use xlink:href="#DejaVuSans-32"/>
      <use xlink:href="#DejaVuSans-35" x="63.623047"/>
     </g>
    </g>
   </g>
   <g id="xtick_10">
    <g id="line2d_12">
     <path d="M 483.354623 439.63988 
L 483.658454 442.520406 
" style="fill: none; stroke: #000000; stroke-width: 0.8; stroke-linecap: square"/>
    </g>
    <g id="text_11">
     <!-- 50 -->
     <g transform="translate(476.280423 465.945847) scale(0.12 -0.12)">
      <use xlink:href="#DejaVuSans-35"/>
      <use xlink:href="#DejaVuSans-30" x="63.623047"/>
     </g>
    </g>
   </g>
   <g id="text_12">
    <!-- PC 2 -->
    <g transform="translate(354.695701 489.63081) scale(0.18 -0.18)">
     <use xlink:href="#DejaVuSans-50"/>
     <use xlink:href="#DejaVuSans-43" x="60.302734"/>
     <use xlink:href="#DejaVuSans-20" x="130.126953"/>
     <use xlink:href="#DejaVuSans-32" x="161.914062"/>
    </g>
   </g>
  </g>
  <g id="axis3d_3">
   <g id="line2d_13">
    <path d="M 226.241772 440.598264 
L 221.351029 229.152779 
" style="fill: none; stroke: #000000; stroke-width: 0.8; stroke-linecap: square"/>
   </g>
   <g id="xtick_11">
    <g id="line2d_14">
     <path d="M 225.6913 409.814769 
L 225.270729 412.624675 
" style="fill: none; stroke: #000000; stroke-width: 0.8; stroke-linecap: square"/>
    </g>
    <g id="text_13">
     <!-- −50 -->
     <g transform="translate(197.045058 425.725091) scale(0.12 -0.12)">
      <use xlink:href="#DejaVuSans-2212"/>
      <use xlink:href="#DejaVuSans-35" x="83.789062"/>
      <use xlink:href="#DejaVuSans-30" x="147.412109"/>
     </g>
    </g>
   </g>
   <g id="xtick_12">
    <g id="line2d_15">
     <path d="M 224.725188 368.000875 
L 224.299149 370.710465 
" style="fill: none; stroke: #000000; stroke-width: 0.8; stroke-linecap: square"/>
    </g>
    <g id="text_14">
     <!-- −25 -->
     <g transform="translate(195.96819 383.668878) scale(0.12 -0.12)">
      <use xlink:href="#DejaVuSans-2212"/>
      <use xlink:href="#DejaVuSans-32" x="83.789062"/>
      <use xlink:href="#DejaVuSans-35" x="147.412109"/>
     </g>
    </g>
   </g>
   <g id="xtick_13">
    <g id="line2d_16">
     <path d="M 223.746492 325.642314 
L 223.314877 328.248722 
" style="fill: none; stroke: #000000; stroke-width: 0.8; stroke-linecap: square"/>
    </g>
    <g id="text_15">
     <!-- 0 -->
     <g transform="translate(203.722511 341.061062) scale(0.12 -0.12)">
      <use xlink:href="#DejaVuSans-30"/>
     </g>
    </g>
   </g>
   <g id="xtick_14">
    <g id="line2d_17">
     <path d="M 222.754964 282.728373 
L 222.317662 285.228649 
" style="fill: none; stroke: #000000; stroke-width: 0.8; stroke-linecap: square"/>
    </g>
    <g id="text_16">
     <!-- 25 -->
     <g transform="translate(198.799615 297.89072) scale(0.12 -0.12)">
      <use xlink:href="#DejaVuSans-32"/>
      <use xlink:href="#DejaVuSans-35" x="63.623047"/>
     </g>
    </g>
   </g>
   <g id="xtick_15">
    <g id="line2d_18">
     <path d="M 221.750349 239.248059 
L 221.307249 241.639159 
" style="fill: none; stroke: #000000; stroke-width: 0.8; stroke-linecap: square"/>
    </g>
    <g id="text_17">
     <!-- 50 -->
     <g transform="translate(197.679528 254.146638) scale(0.12 -0.12)">
      <use xlink:href="#DejaVuSans-35"/>
      <use xlink:href="#DejaVuSans-30" x="63.623047"/>
     </g>
    </g>
   </g>
   <g id="text_18">
    <!-- PC 3 -->
    <g transform="translate(159.869569 356.487823) scale(0.18 -0.18)">
     <defs>
      <path id="DejaVuSans-33" d="M 2597 2516 
Q 3050 2419 3304 2112 
Q 3559 1806 3559 1356 
Q 3559 666 3084 287 
Q 2609 -91 1734 -91 
Q 1441 -91 1130 -33 
Q 819 25 488 141 
L 488 750 
Q 750 597 1062 519 
Q 1375 441 1716 441 
Q 2309 441 2620 675 
Q 2931 909 2931 1356 
Q 2931 1769 2642 2001 
Q 2353 2234 1838 2234 
L 1294 2234 
L 1294 2753 
L 1863 2753 
Q 2328 2753 2575 2939 
Q 2822 3125 2822 3475 
Q 2822 3834 2567 4026 
Q 2313 4219 1838 4219 
Q 1578 4219 1281 4162 
Q 984 4106 628 3988 
L 628 4550 
Q 988 4650 1302 4700 
Q 1616 4750 1894 4750 
Q 2613 4750 3031 4423 
Q 3450 4097 3450 3541 
Q 3450 3153 3228 2886 
Q 3006 2619 2597 2516 
z
" transform="scale(0.015625)"/>
     </defs>
     <use xlink:href="#DejaVuSans-50"/>
     <use xlink:href="#DejaVuSans-43" x="60.302734"/>
     <use xlink:href="#DejaVuSans-20" x="130.126953"/>
     <use xlink:href="#DejaVuSans-33" x="161.914062"/>
    </g>
   </g>
  </g>
  <g id="axes_1">
   <g id="line2d_19">
    <path d="M 474.84869 406.479863 
L 490.792337 422.594677 
L 475.671694 392.362688 
L 434.102692 305.630195 
L 329.324833 269.886002 
L 312.925781 215.759796 
L 284.217014 191.141637 
L 276.398531 172.053437 
L 277.525838 165.071837 
L 287.247824 179.549263 
L 304.524359 203.324782 
L 336.656992 245.696606 
L 369.255139 264.59473 
L 392.211806 301.166669 
L 417.81501 333.798606 
L 445.790376 370.607015 
L 474.84869 406.479863 
" clip-path="url(#pd17f68fd8b)" style="fill: none; stroke: #808080; stroke-opacity: 0.7; stroke-width: 1.5; stroke-linecap: square"/>
   </g>
   <g id="line2d_20">
    <path d="M 344.911285 254.786216 
L 400.004755 236.032596 
L 442.852579 189.868805 
L 457.977114 160.943694 
L 515.255027 209.484156 
L 494.92347 196.741612 
L 476.142101 221.4715 
L 446.259685 250.325268 
L 399.35985 284.609219 
L 343.18308 328.35361 
L 279.348004 374.506094 
L 223.215146 380.769406 
L 229.335185 346.1206 
L 250.704752 320.375774 
L 274.280986 299.219973 
L 305.305754 276.212117 
L 344.911285 254.786216 
" clip-path="url(#pd17f68fd8b)" style="fill: none; stroke: #808080; stroke-opacity: 0.7; stroke-width: 1.5; stroke-linecap: square"/>
   </g>
   <g id="Path3DCollection_1">
    <defs>
     <path id="C0_0_f42af2c461" d="M 0 5.477226 
C 1.452577 5.477226 2.845856 4.900111 3.872983 3.872983 
C 4.900111 2.845856 5.477226 1.452577 5.477226 -0 
C 5.477226 -1.452577 4.900111 -2.845856 3.872983 -3.872983 
C 2.845856 -4.900111 1.452577 -5.477226 0 -5.477226 
C -1.452577 -5.477226 -2.845856 -4.900111 -3.872983 -3.872983 
C -4.900111 -2.845856 -5.477226 -1.452577 -5.477226 0 
C -5.477226 1.452577 -4.900111 2.845856 -3.872983 3.872983 
C -2.845856 4.900111 -1.452577 5.477226 0 5.477226 
z
"/>
    </defs>
    <g clip-path="url(#pd17f68fd8b)">
     <use xlink:href="#C0_0_f42af2c461" x="276.398531" y="172.053437" style="fill: #00ffa9; fill-opacity: 0.3; stroke: #00ffa9; stroke-opacity: 0.3"/>
    </g>
    <g clip-path="url(#pd17f68fd8b)">
     <use xlink:href="#C0_0_f42af2c461" x="277.525838" y="165.071837" style="fill: #00f0ff; fill-opacity: 0.332355; stroke: #00f0ff; stroke-opacity: 0.332355"/>
    </g>
    <g clip-path="url(#pd17f68fd8b)">
     <use xlink:href="#C0_0_f42af2c461" x="287.247824" y="179.549263" style="fill: #0086ff; fill-opacity: 0.355943; stroke: #0086ff; stroke-opacity: 0.355943"/>
    </g>
    <g clip-path="url(#pd17f68fd8b)">
     <use xlink:href="#C0_0_f42af2c461" x="284.217014" y="191.141637" style="fill: #00ff45; fill-opacity: 0.368904; stroke: #00ff45; stroke-opacity: 0.368904"/>
    </g>
    <g clip-path="url(#pd17f68fd8b)">
     <use xlink:href="#C0_0_f42af2c461" x="304.524359" y="203.324782" style="fill: #0028ff; fill-opacity: 0.402296; stroke: #0028ff; stroke-opacity: 0.402296"/>
    </g>
    <g clip-path="url(#pd17f68fd8b)">
     <use xlink:href="#C0_0_f42af2c461" x="336.656992" y="245.696606" style="fill: #5400ff; fill-opacity: 0.464955; stroke: #5400ff; stroke-opacity: 0.464955"/>
    </g>
    <g clip-path="url(#pd17f68fd8b)">
     <use xlink:href="#C0_0_f42af2c461" x="312.925781" y="215.759796" style="fill: #20ff00; fill-opacity: 0.547563; stroke: #20ff00; stroke-opacity: 0.547563"/>
    </g>
    <g clip-path="url(#pd17f68fd8b)">
     <use xlink:href="#C0_0_f42af2c461" x="329.324833" y="269.886002" style="fill: #84ff00; fill-opacity: 0.559542; stroke: #84ff00; stroke-opacity: 0.559542"/>
    </g>
    <g clip-path="url(#pd17f68fd8b)">
     <use xlink:href="#C0_0_f42af2c461" x="369.255139" y="264.59473" style="fill: #b300ff; fill-opacity: 0.610827; stroke: #b300ff; stroke-opacity: 0.610827"/>
    </g>
    <g clip-path="url(#pd17f68fd8b)">
     <use xlink:href="#C0_0_f42af2c461" x="392.211806" y="301.166669" style="fill: #ff00e1; fill-opacity: 0.658531; stroke: #ff00e1; stroke-opacity: 0.658531"/>
    </g>
    <g clip-path="url(#pd17f68fd8b)">
     <use xlink:href="#C0_0_f42af2c461" x="417.81501" y="333.798606" style="fill: #ff007c; fill-opacity: 0.739733; stroke: #ff007c; stroke-opacity: 0.739733"/>
    </g>
    <g clip-path="url(#pd17f68fd8b)">
     <use xlink:href="#C0_0_f42af2c461" x="445.790376" y="370.607015" style="fill: #ff0018; fill-opacity: 0.823554; stroke: #ff0018; stroke-opacity: 0.823554"/>
    </g>
    <g clip-path="url(#pd17f68fd8b)">
     <use xlink:href="#C0_0_f42af2c461" x="474.84869" y="406.479863" style="fill: #ff0000; fill-opacity: 0.919502; stroke: #ff0000; stroke-opacity: 0.919502"/>
    </g>
    <g clip-path="url(#pd17f68fd8b)">
     <use xlink:href="#C0_0_f42af2c461" x="434.102692" y="305.630195" style="fill: #e2ff00; fill-opacity: 0.979232; stroke: #e2ff00; stroke-opacity: 0.979232"/>
    </g>
    <g clip-path="url(#pd17f68fd8b)">
     <use xlink:href="#C0_0_f42af2c461" x="490.792337" y="422.594677" style="fill: #ff4700; fill-opacity: 0.981649; stroke: #ff4700; stroke-opacity: 0.981649"/>
    </g>
    <g clip-path="url(#pd17f68fd8b)">
     <use xlink:href="#C0_0_f42af2c461" x="475.671694" y="392.362688" style="fill: #ffab00; stroke: #ffab00"/>
    </g>
   </g>
   <g id="Poly3DCollection_1">
    <path d="M 310.500356 281.379777 
L 306.722891 287.269507 
L 286.02348 298.443539 
L 290.009581 292.44765 
z
" clip-path="url(#pd17f68fd8b)" style="fill: #808080; fill-opacity: 0.3"/>
    <path d="M 331.060187 270.274605 
L 327.492797 276.05742 
L 306.722891 287.269507 
L 310.500356 281.379777 
z
" clip-path="url(#pd17f68fd8b)" style="fill: #808080; fill-opacity: 0.3"/>
    <path d="M 351.689426 259.131943 
L 348.333558 264.807083 
L 327.492797 276.05742 
L 331.060187 270.274605 
z
" clip-path="url(#pd17f68fd8b)" style="fill: #808080; fill-opacity: 0.3"/>
    <path d="M 372.388423 247.951601 
L 369.245537 253.518301 
L 348.333558 264.807083 
L 351.689426 259.131943 
z
" clip-path="url(#pd17f68fd8b)" style="fill: #808080; fill-opacity: 0.3"/>
    <path d="M 393.157533 236.733389 
L 390.229101 242.190876 
L 369.245537 253.518301 
L 372.388423 247.951601 
z
" clip-path="url(#pd17f68fd8b)" style="fill: #808080; fill-opacity: 0.3"/>
    <path d="M 413.997113 225.477114 
L 411.284617 230.82461 
L 390.229101 242.190876 
L 393.157533 236.733389 
z
" clip-path="url(#pd17f68fd8b)" style="fill: #808080; fill-opacity: 0.3"/>
    <path d="M 434.907522 214.18258 
L 432.412457 219.419302 
L 411.284617 230.82461 
L 413.997113 225.477114 
z
" clip-path="url(#pd17f68fd8b)" style="fill: #808080; fill-opacity: 0.3"/>
    <path d="M 306.722891 287.269507 
L 302.865161 293.284385 
L 281.952826 304.566615 
L 286.02348 298.443539 
z
" clip-path="url(#pd17f68fd8b)" style="fill: #808080; fill-opacity: 0.3"/>
    <path d="M 455.889122 202.849594 
L 453.612993 207.97475 
L 432.412457 219.419302 
L 434.907522 214.18258 
z
" clip-path="url(#pd17f68fd8b)" style="fill: #808080; fill-opacity: 0.3"/>
    <path d="M 327.492797 276.05742 
L 323.849474 281.963323 
L 302.865161 293.284385 
L 306.722891 287.269507 
z
" clip-path="url(#pd17f68fd8b)" style="fill: #808080; fill-opacity: 0.3"/>
    <path d="M 476.942277 191.477958 
L 474.886601 196.490753 
L 453.612993 207.97475 
L 455.889122 202.849594 
z
" clip-path="url(#pd17f68fd8b)" style="fill: #808080; fill-opacity: 0.3"/>
    <path d="M 348.333558 264.807083 
L 344.906136 270.603229 
L 323.849474 281.963323 
L 327.492797 276.05742 
z
" clip-path="url(#pd17f68fd8b)" style="fill: #808080; fill-opacity: 0.3"/>
    <path d="M 369.245537 253.518301 
L 366.035524 259.203899 
L 344.906136 270.603229 
L 348.333558 264.807083 
z
" clip-path="url(#pd17f68fd8b)" style="fill: #808080; fill-opacity: 0.3"/>
    <path d="M 390.229101 242.190876 
L 387.238014 247.76513 
L 366.035524 259.203899 
L 369.245537 253.518301 
z
" clip-path="url(#pd17f68fd8b)" style="fill: #808080; fill-opacity: 0.3"/>
    <path d="M 411.284617 230.82461 
L 408.513986 236.286718 
L 387.238014 247.76513 
L 390.229101 242.190876 
z
" clip-path="url(#pd17f68fd8b)" style="fill: #808080; fill-opacity: 0.3"/>
    <path d="M 432.412457 219.419302 
L 429.863823 224.768456 
L 408.513986 236.286718 
L 411.284617 230.82461 
z
" clip-path="url(#pd17f68fd8b)" style="fill: #808080; fill-opacity: 0.3"/>
    <path d="M 302.865161 293.284385 
L 298.924578 299.428444 
L 277.794898 310.820967 
L 281.952826 304.566615 
z
" clip-path="url(#pd17f68fd8b)" style="fill: #808080; fill-opacity: 0.3"/>
    <path d="M 453.612993 207.97475 
L 451.28791 213.210135 
L 429.863823 224.768456 
L 432.412457 219.419302 
z
" clip-path="url(#pd17f68fd8b)" style="fill: #808080; fill-opacity: 0.3"/>
    <path d="M 323.849474 281.963323 
L 320.127767 287.996288 
L 298.924578 299.428444 
L 302.865161 293.284385 
z
" clip-path="url(#pd17f68fd8b)" style="fill: #808080; fill-opacity: 0.3"/>
    <path d="M 474.886601 196.490753 
L 472.786636 201.611547 
L 451.28791 213.210135 
L 453.612993 207.97475 
z
" clip-path="url(#pd17f68fd8b)" style="fill: #808080; fill-opacity: 0.3"/>
    <path d="M 344.906136 270.603229 
L 341.404848 276.524291 
L 320.127767 287.996288 
L 323.849474 281.963323 
z
" clip-path="url(#pd17f68fd8b)" style="fill: #808080; fill-opacity: 0.3"/>
    <path d="M 366.035524 259.203899 
L 362.756209 265.012245 
L 341.404848 276.524291 
L 344.906136 270.603229 
z
" clip-path="url(#pd17f68fd8b)" style="fill: #808080; fill-opacity: 0.3"/>
    <path d="M 387.238014 247.76513 
L 384.182238 253.459939 
L 362.756209 265.012245 
L 366.035524 259.203899 
z
" clip-path="url(#pd17f68fd8b)" style="fill: #808080; fill-opacity: 0.3"/>
    <path d="M 408.513986 236.286718 
L 405.683329 241.867162 
L 384.182238 253.459939 
L 387.238014 247.76513 
z
" clip-path="url(#pd17f68fd8b)" style="fill: #808080; fill-opacity: 0.3"/>
    <path d="M 429.863823 224.768456 
L 427.259876 230.233702 
L 405.683329 241.867162 
L 408.513986 236.286718 
z
" clip-path="url(#pd17f68fd8b)" style="fill: #808080; fill-opacity: 0.3"/>
    <path d="M 298.924578 299.428444 
L 294.898446 305.705891 
L 273.546859 317.210863 
L 277.794898 310.820967 
z
" clip-path="url(#pd17f68fd8b)" style="fill: #808080; fill-opacity: 0.3"/>
    <path d="M 451.28791 213.210135 
L 448.912278 218.559343 
L 427.259876 230.233702 
L 429.863823 224.768456 
z
" clip-path="url(#pd17f68fd8b)" style="fill: #808080; fill-opacity: 0.3"/>
    <path d="M 320.127767 287.996288 
L 316.32512 294.160458 
L 294.898446 305.705891 
L 298.924578 299.428444 
z
" clip-path="url(#pd17f68fd8b)" style="fill: #808080; fill-opacity: 0.3"/>
    <path d="M 472.786636 201.611547 
L 470.640935 206.843869 
L 448.912278 218.559343 
L 451.28791 213.210135 
z
" clip-path="url(#pd17f68fd8b)" style="fill: #808080; fill-opacity: 0.3"/>
    <path d="M 341.404848 276.524291 
L 337.827279 282.574352 
L 316.32512 294.160458 
L 320.127767 287.996288 
z
" clip-path="url(#pd17f68fd8b)" style="fill: #808080; fill-opacity: 0.3"/>
    <path d="M 362.756209 265.012245 
L 359.405323 270.947357 
L 337.827279 282.574352 
L 341.404848 276.524291 
z
" clip-path="url(#pd17f68fd8b)" style="fill: #808080; fill-opacity: 0.3"/>
    <path d="M 384.182238 253.459939 
L 381.059653 259.279256 
L 359.405323 270.947357 
L 362.756209 265.012245 
z
" clip-path="url(#pd17f68fd8b)" style="fill: #808080; fill-opacity: 0.3"/>
    <path d="M 405.683329 241.867162 
L 402.790675 247.569831 
L 381.059653 259.279256 
L 384.182238 253.459939 
z
" clip-path="url(#pd17f68fd8b)" style="fill: #808080; fill-opacity: 0.3"/>
    <path d="M 427.259876 230.233702 
L 424.598796 235.818861 
L 402.790675 247.569831 
L 405.683329 241.867162 
z
" clip-path="url(#pd17f68fd8b)" style="fill: #808080; fill-opacity: 0.3"/>
    <path d="M 294.898446 305.705891 
L 290.783947 312.121116 
L 269.20575 323.740757 
L 273.546859 317.210863 
z
" clip-path="url(#pd17f68fd8b)" style="fill: #808080; fill-opacity: 0.3"/>
    <path d="M 448.912278 218.559343 
L 446.484429 224.026126 
L 424.598796 235.818861 
L 427.259876 230.233702 
z
" clip-path="url(#pd17f68fd8b)" style="fill: #808080; fill-opacity: 0.3"/>
    <path d="M 316.32512 294.160458 
L 312.438864 300.460162 
L 290.783947 312.121116 
L 294.898446 305.705891 
z
" clip-path="url(#pd17f68fd8b)" style="fill: #808080; fill-opacity: 0.3"/>
    <path d="M 470.640935 206.843869 
L 468.447988 212.191402 
L 446.484429 224.026126 
L 448.912278 218.559343 
z
" clip-path="url(#pd17f68fd8b)" style="fill: #808080; fill-opacity: 0.3"/>
    <path d="M 337.827279 282.574352 
L 334.17091 288.757674 
L 312.438864 300.460162 
L 316.32512 294.160458 
z
" clip-path="url(#pd17f68fd8b)" style="fill: #808080; fill-opacity: 0.3"/>
    <path d="M 359.405323 270.947357 
L 355.980497 277.013432 
L 334.17091 288.757674 
L 337.827279 282.574352 
z
" clip-path="url(#pd17f68fd8b)" style="fill: #808080; fill-opacity: 0.3"/>
    <path d="M 381.059653 259.279256 
L 377.868042 265.22721 
L 355.980497 277.013432 
L 359.405323 270.947357 
z
" clip-path="url(#pd17f68fd8b)" style="fill: #808080; fill-opacity: 0.3"/>
    <path d="M 402.790675 247.569831 
L 399.833963 253.398783 
L 377.868042 265.22721 
L 381.059653 259.279256 
z
" clip-path="url(#pd17f68fd8b)" style="fill: #808080; fill-opacity: 0.3"/>
    <path d="M 424.598796 235.818861 
L 421.878682 241.527924 
L 399.833963 253.398783 
L 402.790675 247.569831 
z
" clip-path="url(#pd17f68fd8b)" style="fill: #808080; fill-opacity: 0.3"/>
    <path d="M 290.783947 312.121116 
L 286.578141 318.678706 
L 264.768475 330.415302 
L 269.20575 323.740757 
z
" clip-path="url(#pd17f68fd8b)" style="fill: #808080; fill-opacity: 0.3"/>
    <path d="M 446.484429 224.026126 
L 444.002624 229.614405 
L 421.878682 241.527924 
L 424.598796 235.818861 
z
" clip-path="url(#pd17f68fd8b)" style="fill: #808080; fill-opacity: 0.3"/>
    <path d="M 312.438864 300.460162 
L 308.46621 306.899918 
L 286.578141 318.678706 
L 290.783947 312.121116 
z
" clip-path="url(#pd17f68fd8b)" style="fill: #808080; fill-opacity: 0.3"/>
    <path d="M 468.447988 212.191402 
L 466.206216 217.657995 
L 444.002624 229.614405 
L 446.484429 224.026126 
z
" clip-path="url(#pd17f68fd8b)" style="fill: #808080; fill-opacity: 0.3"/>
    <path d="M 334.17091 288.757674 
L 330.433107 295.07871 
L 308.46621 306.899918 
L 312.438864 300.460162 
z
" clip-path="url(#pd17f68fd8b)" style="fill: #808080; fill-opacity: 0.3"/>
    <path d="M 355.980497 277.013432 
L 352.479257 283.214852 
L 330.433107 295.07871 
L 334.17091 288.757674 
z
" clip-path="url(#pd17f68fd8b)" style="fill: #808080; fill-opacity: 0.3"/>
    <path d="M 377.868042 265.22721 
L 374.605092 271.308113 
L 352.479257 283.214852 
L 355.980497 277.013432 
z
" clip-path="url(#pd17f68fd8b)" style="fill: #808080; fill-opacity: 0.3"/>
    <path d="M 399.833963 253.398783 
L 396.811043 259.358261 
L 374.605092 271.308113 
L 377.868042 265.22721 
z
" clip-path="url(#pd17f68fd8b)" style="fill: #808080; fill-opacity: 0.3"/>
    <path d="M 421.878682 241.527924 
L 419.097546 247.36506 
L 396.811043 259.358261 
L 399.833963 253.398783 
z
" clip-path="url(#pd17f68fd8b)" style="fill: #808080; fill-opacity: 0.3"/>
    <path d="M 286.578141 318.678706 
L 282.277952 325.383454 
L 260.231806 337.239357 
L 264.768475 330.415302 
z
" clip-path="url(#pd17f68fd8b)" style="fill: #808080; fill-opacity: 0.3"/>
    <path d="M 444.002624 229.614405 
L 441.465042 235.328275 
L 419.097546 247.36506 
L 421.878682 241.527924 
z
" clip-path="url(#pd17f68fd8b)" style="fill: #808080; fill-opacity: 0.3"/>
    <path d="M 308.46621 306.899918 
L 304.404244 313.48445 
L 282.277952 325.383454 
L 286.578141 318.678706 
z
" clip-path="url(#pd17f68fd8b)" style="fill: #808080; fill-opacity: 0.3"/>
    <path d="M 466.206216 217.657995 
L 463.913971 223.247667 
L 441.465042 235.328275 
L 444.002624 229.614405 
z
" clip-path="url(#pd17f68fd8b)" style="fill: #808080; fill-opacity: 0.3"/>
    <path d="M 330.433107 295.07871 
L 326.611119 301.54211 
L 304.404244 313.48445 
L 308.46621 306.899918 
z
" clip-path="url(#pd17f68fd8b)" style="fill: #808080; fill-opacity: 0.3"/>
    <path d="M 352.479257 283.214852 
L 348.899017 289.556198 
L 326.611119 301.54211 
L 330.433107 295.07871 
z
" clip-path="url(#pd17f68fd8b)" style="fill: #808080; fill-opacity: 0.3"/>
    <path d="M 374.605092 271.308113 
L 371.268383 277.526474 
L 348.899017 289.556198 
L 352.479257 283.214852 
z
" clip-path="url(#pd17f68fd8b)" style="fill: #808080; fill-opacity: 0.3"/>
    <path d="M 396.811043 259.358261 
L 393.719665 265.452698 
L 371.268383 277.526474 
L 374.605092 271.308113 
z
" clip-path="url(#pd17f68fd8b)" style="fill: #808080; fill-opacity: 0.3"/>
    <path d="M 419.097546 247.36506 
L 416.253313 253.334627 
L 393.719665 265.452698 
L 396.811043 259.358261 
z
" clip-path="url(#pd17f68fd8b)" style="fill: #808080; fill-opacity: 0.3"/>
    <path d="M 282.277952 325.383454 
L 277.88017 332.240368 
L 255.592363 344.218004 
L 260.231806 337.239357 
z
" clip-path="url(#pd17f68fd8b)" style="fill: #808080; fill-opacity: 0.3"/>
    <path d="M 441.465042 235.328275 
L 438.869782 241.172018 
L 416.253313 253.334627 
L 419.097546 247.36506 
z
" clip-path="url(#pd17f68fd8b)" style="fill: #808080; fill-opacity: 0.3"/>
    <path d="M 304.404244 313.48445 
L 300.249921 320.218695 
L 277.88017 332.240368 
L 282.277952 325.383454 
z
" clip-path="url(#pd17f68fd8b)" style="fill: #808080; fill-opacity: 0.3"/>
    <path d="M 463.913971 223.247667 
L 461.569528 228.964623 
L 438.869782 241.172018 
L 441.465042 235.328275 
z
" clip-path="url(#pd17f68fd8b)" style="fill: #808080; fill-opacity: 0.3"/>
    <path d="M 326.611119 301.54211 
L 322.70207 308.15274 
L 300.249921 320.218695 
L 304.404244 313.48445 
z
" clip-path="url(#pd17f68fd8b)" style="fill: #808080; fill-opacity: 0.3"/>
    <path d="M 348.899017 289.556198 
L 345.237072 296.04226 
L 322.70207 308.15274 
L 326.611119 301.54211 
z
" clip-path="url(#pd17f68fd8b)" style="fill: #808080; fill-opacity: 0.3"/>
    <path d="M 371.268383 277.526474 
L 367.855387 283.887007 
L 345.237072 296.04226 
L 348.899017 289.556198 
z
" clip-path="url(#pd17f68fd8b)" style="fill: #808080; fill-opacity: 0.3"/>
    <path d="M 393.719665 265.452698 
L 390.557478 271.686732 
L 367.855387 283.887007 
L 371.268383 277.526474 
z
" clip-path="url(#pd17f68fd8b)" style="fill: #808080; fill-opacity: 0.3"/>
    <path d="M 416.253313 253.334627 
L 413.34381 259.441185 
L 390.557478 271.686732 
L 393.719665 265.452698 
z
" clip-path="url(#pd17f68fd8b)" style="fill: #808080; fill-opacity: 0.3"/>
    <path d="M 277.88017 332.240368 
L 273.381432 339.254689 
L 250.846615 351.356554 
L 255.592363 344.218004 
z
" clip-path="url(#pd17f68fd8b)" style="fill: #808080; fill-opacity: 0.3"/>
    <path d="M 438.869782 241.172018 
L 436.214855 247.150113 
L 413.34381 259.441185 
L 416.253313 253.334627 
z
" clip-path="url(#pd17f68fd8b)" style="fill: #808080; fill-opacity: 0.3"/>
    <path d="M 300.249921 320.218695 
L 296.000054 327.107818 
L 273.381432 339.254689 
L 277.88017 332.240368 
z
" clip-path="url(#pd17f68fd8b)" style="fill: #808080; fill-opacity: 0.3"/>
    <path d="M 461.569528 228.964623 
L 459.171085 234.813261 
L 436.214855 247.150113 
L 438.869782 241.172018 
z
" clip-path="url(#pd17f68fd8b)" style="fill: #808080; fill-opacity: 0.3"/>
    <path d="M 322.70207 308.15274 
L 318.702951 314.915689 
L 296.000054 327.107818 
L 300.249921 320.218695 
z
" clip-path="url(#pd17f68fd8b)" style="fill: #808080; fill-opacity: 0.3"/>
    <path d="M 345.237072 296.04226 
L 341.490593 302.67805 
L 318.702951 314.915689 
L 322.70207 308.15274 
z
" clip-path="url(#pd17f68fd8b)" style="fill: #808080; fill-opacity: 0.3"/>
    <path d="M 367.855387 283.887007 
L 364.363456 290.394644 
L 341.490593 302.67805 
L 345.237072 296.04226 
z
" clip-path="url(#pd17f68fd8b)" style="fill: #808080; fill-opacity: 0.3"/>
    <path d="M 390.557478 271.686732 
L 387.322019 278.065214 
L 364.363456 290.394644 
L 367.855387 283.887007 
z
" clip-path="url(#pd17f68fd8b)" style="fill: #808080; fill-opacity: 0.3"/>
    <path d="M 413.34381 259.441185 
L 410.366765 265.689502 
L 387.322019 278.065214 
L 390.557478 271.686732 
z
" clip-path="url(#pd17f68fd8b)" style="fill: #808080; fill-opacity: 0.3"/>
    <path d="M 436.214855 247.150113 
L 433.49818 253.267246 
L 410.366765 265.689502 
L 413.34381 259.441185 
z
" clip-path="url(#pd17f68fd8b)" style="fill: #808080; fill-opacity: 0.3"/>
    <path d="M 459.171085 234.813261 
L 456.716753 240.798184 
L 433.49818 253.267246 
L 436.214855 247.150113 
z
" clip-path="url(#pd17f68fd8b)" style="fill: #808080; fill-opacity: 0.3"/>
   </g>
   <g id="Poly3DCollection_2">
    <path d="M 339.029324 330.539076 
L 351.305249 336.604277 
L 344.985371 318.708189 
L 332.73443 312.791597 
z
" clip-path="url(#pd17f68fd8b)" style="fill: #808080; fill-opacity: 0.3"/>
    <path d="M 332.73443 312.791597 
L 344.985371 318.708189 
L 338.630785 300.713817 
L 326.405285 294.947552 
z
" clip-path="url(#pd17f68fd8b)" style="fill: #808080; fill-opacity: 0.3"/>
    <path d="M 326.405285 294.947552 
L 338.630785 300.713817 
L 332.241203 282.620349 
L 320.041608 277.006149 
z
" clip-path="url(#pd17f68fd8b)" style="fill: #808080; fill-opacity: 0.3"/>
    <path d="M 320.041608 277.006149 
L 332.241203 282.620349 
L 325.816336 264.426964 
L 313.643116 258.966591 
z
" clip-path="url(#pd17f68fd8b)" style="fill: #808080; fill-opacity: 0.3"/>
    <path d="M 351.305249 336.604277 
L 363.811249 342.783151 
L 357.466553 324.735976 
L 344.985371 318.708189 
z
" clip-path="url(#pd17f68fd8b)" style="fill: #808080; fill-opacity: 0.3"/>
    <path d="M 313.643116 258.966591 
L 325.816336 264.426964 
L 319.355892 246.132831 
L 307.209522 240.828068 
z
" clip-path="url(#pd17f68fd8b)" style="fill: #808080; fill-opacity: 0.3"/>
    <path d="M 344.985371 318.708189 
L 357.466553 324.735976 
L 351.086684 306.588753 
L 338.630785 300.713817 
z
" clip-path="url(#pd17f68fd8b)" style="fill: #808080; fill-opacity: 0.3"/>
    <path d="M 307.209522 240.828068 
L 319.355892 246.132831 
L 312.859572 227.737113 
L 300.740537 222.589765 
z
" clip-path="url(#pd17f68fd8b)" style="fill: #808080; fill-opacity: 0.3"/>
    <path d="M 338.630785 300.713817 
L 351.086684 306.588753 
L 344.671348 288.340648 
L 332.241203 282.620349 
z
" clip-path="url(#pd17f68fd8b)" style="fill: #808080; fill-opacity: 0.3"/>
    <path d="M 300.740537 222.589765 
L 312.859572 227.737113 
L 306.327079 209.238959 
L 294.235868 204.250856 
z
" clip-path="url(#pd17f68fd8b)" style="fill: #808080; fill-opacity: 0.3"/>
    <path d="M 332.241203 282.620349 
L 344.671348 288.340648 
L 338.22025 269.990816 
L 325.816336 264.426964 
z
" clip-path="url(#pd17f68fd8b)" style="fill: #808080; fill-opacity: 0.3"/>
    <path d="M 363.811249 342.783151 
L 376.553853 349.078925 
L 370.184528 330.878122 
L 357.466553 324.735976 
z
" clip-path="url(#pd17f68fd8b)" style="fill: #808080; fill-opacity: 0.3"/>
    <path d="M 294.235868 204.250856 
L 306.327079 209.238959 
L 299.758108 190.637512 
L 287.695218 185.810506 
z
" clip-path="url(#pd17f68fd8b)" style="fill: #808080; fill-opacity: 0.3"/>
    <path d="M 325.816336 264.426964 
L 338.22025 269.990816 
L 331.733088 251.538406 
L 319.355892 246.132831 
z
" clip-path="url(#pd17f68fd8b)" style="fill: #808080; fill-opacity: 0.3"/>
    <path d="M 357.466553 324.735976 
L 370.184528 330.878122 
L 363.779558 312.57546 
L 351.086684 306.588753 
z
" clip-path="url(#pd17f68fd8b)" style="fill: #808080; fill-opacity: 0.3"/>
    <path d="M 287.695218 185.810506 
L 299.758108 190.637512 
L 293.152354 171.931905 
L 281.118289 167.267872 
z
" clip-path="url(#pd17f68fd8b)" style="fill: #808080; fill-opacity: 0.3"/>
    <path d="M 319.355892 246.132831 
L 331.733088 251.538406 
L 325.209561 232.982554 
L 312.859572 227.737113 
z
" clip-path="url(#pd17f68fd8b)" style="fill: #808080; fill-opacity: 0.3"/>
    <path d="M 351.086684 306.588753 
L 363.779558 312.57546 
L 357.338642 294.170081 
L 344.671348 288.340648 
z
" clip-path="url(#pd17f68fd8b)" style="fill: #808080; fill-opacity: 0.3"/>
    <path d="M 312.859572 227.737113 
L 325.209561 232.982554 
L 318.649361 214.322388 
L 306.327079 209.238959 
z
" clip-path="url(#pd17f68fd8b)" style="fill: #808080; fill-opacity: 0.3"/>
    <path d="M 344.671348 288.340648 
L 357.338642 294.170081 
L 350.861477 275.661117 
L 338.22025 269.990816 
z
" clip-path="url(#pd17f68fd8b)" style="fill: #808080; fill-opacity: 0.3"/>
    <path d="M 376.553853 349.078925 
L 389.539839 355.494948 
L 383.1461 337.137913 
L 370.184528 330.878122 
z
" clip-path="url(#pd17f68fd8b)" style="fill: #808080; fill-opacity: 0.3"/>
    <path d="M 306.327079 209.238959 
L 318.649361 214.322388 
L 312.052177 195.557026 
L 299.758108 190.637512 
z
" clip-path="url(#pd17f68fd8b)" style="fill: #808080; fill-opacity: 0.3"/>
    <path d="M 338.22025 269.990816 
L 350.861477 275.661117 
L 344.347756 257.047692 
L 331.733088 251.538406 
z
" clip-path="url(#pd17f68fd8b)" style="fill: #808080; fill-opacity: 0.3"/>
    <path d="M 370.184528 330.878122 
L 383.1461 337.137913 
L 376.716234 318.677158 
L 363.779558 312.57546 
z
" clip-path="url(#pd17f68fd8b)" style="fill: #808080; fill-opacity: 0.3"/>
    <path d="M 299.758108 190.637512 
L 312.052177 195.557026 
L 305.417698 176.685576 
L 293.152354 171.931905 
z
" clip-path="url(#pd17f68fd8b)" style="fill: #808080; fill-opacity: 0.3"/>
    <path d="M 331.733088 251.538406 
L 344.347756 257.047692 
L 337.797169 238.328919 
L 325.209561 232.982554 
z
" clip-path="url(#pd17f68fd8b)" style="fill: #808080; fill-opacity: 0.3"/>
    <path d="M 363.779558 312.57546 
L 376.716234 318.677158 
L 370.249936 300.111801 
L 357.338642 294.170081 
z
" clip-path="url(#pd17f68fd8b)" style="fill: #808080; fill-opacity: 0.3"/>
    <path d="M 325.209561 232.982554 
L 337.797169 238.328919 
L 331.209402 219.503901 
L 318.649361 214.322388 
z
" clip-path="url(#pd17f68fd8b)" style="fill: #808080; fill-opacity: 0.3"/>
    <path d="M 357.338642 294.170081 
L 370.249936 300.111801 
L 363.746894 281.440951 
L 350.861477 275.661117 
z
" clip-path="url(#pd17f68fd8b)" style="fill: #808080; fill-opacity: 0.3"/>
    <path d="M 389.539839 355.494948 
L 402.776248 362.034697 
L 396.358333 343.518762 
L 383.1461 337.137913 
z
" clip-path="url(#pd17f68fd8b)" style="fill: #808080; fill-opacity: 0.3"/>
    <path d="M 318.649361 214.322388 
L 331.209402 219.503901 
L 324.584137 200.571731 
L 312.052177 195.557026 
z
" clip-path="url(#pd17f68fd8b)" style="fill: #808080; fill-opacity: 0.3"/>
    <path d="M 350.861477 275.661117 
L 363.746894 281.440951 
L 357.206795 262.663704 
L 344.347756 257.047692 
z
" clip-path="url(#pd17f68fd8b)" style="fill: #808080; fill-opacity: 0.3"/>
    <path d="M 383.1461 337.137913 
L 396.358333 343.518762 
L 389.903805 324.897194 
L 376.716234 318.677158 
z
" clip-path="url(#pd17f68fd8b)" style="fill: #808080; fill-opacity: 0.3"/>
    <path d="M 312.052177 195.557026 
L 324.584137 200.571731 
L 317.921053 181.531492 
L 305.417698 176.685576 
z
" clip-path="url(#pd17f68fd8b)" style="fill: #808080; fill-opacity: 0.3"/>
    <path d="M 344.347756 257.047692 
L 357.206795 262.663704 
L 350.629321 243.779151 
L 337.797169 238.328919 
z
" clip-path="url(#pd17f68fd8b)" style="fill: #808080; fill-opacity: 0.3"/>
    <path d="M 376.716234 318.677158 
L 389.903805 324.897194 
L 383.412349 306.169086 
L 370.249936 300.111801 
z
" clip-path="url(#pd17f68fd8b)" style="fill: #808080; fill-opacity: 0.3"/>
    <path d="M 337.797169 238.328919 
L 350.629321 243.779151 
L 344.01415 224.786367 
L 331.209402 219.503901 
z
" clip-path="url(#pd17f68fd8b)" style="fill: #808080; fill-opacity: 0.3"/>
    <path d="M 370.249936 300.111801 
L 383.412349 306.169086 
L 376.883646 287.333522 
L 363.746894 281.440951 
z
" clip-path="url(#pd17f68fd8b)" style="fill: #808080; fill-opacity: 0.3"/>
    <path d="M 402.776248 362.034697 
L 416.270393 368.701787 
L 409.828572 350.024214 
L 396.358333 343.518762 
z
" clip-path="url(#pd17f68fd8b)" style="fill: #808080; fill-opacity: 0.3"/>
    <path d="M 331.209402 219.503901 
L 344.01415 224.786367 
L 337.360958 205.68442 
L 324.584137 200.571731 
z
" clip-path="url(#pd17f68fd8b)" style="fill: #808080; fill-opacity: 0.3"/>
    <path d="M 363.746894 281.440951 
L 376.883646 287.333522 
L 370.317376 268.389574 
L 357.206795 262.663704 
z
" clip-path="url(#pd17f68fd8b)" style="fill: #808080; fill-opacity: 0.3"/>
    <path d="M 396.358333 343.518762 
L 409.828572 350.024214 
L 403.349641 331.239042 
L 389.903805 324.897194 
z
" clip-path="url(#pd17f68fd8b)" style="fill: #808080; fill-opacity: 0.3"/>
    <path d="M 324.584137 200.571731 
L 337.360958 205.68442 
L 330.669416 186.472366 
L 317.921053 181.531492 
z
" clip-path="url(#pd17f68fd8b)" style="fill: #808080; fill-opacity: 0.3"/>
    <path d="M 357.206795 262.663704 
L 370.317376 268.389574 
L 363.713213 249.336304 
L 350.629321 243.779151 
z
" clip-path="url(#pd17f68fd8b)" style="fill: #808080; fill-opacity: 0.3"/>
    <path d="M 389.903805 324.897194 
L 403.349641 331.239042 
L 396.833278 312.345339 
L 383.412349 306.169086 
z
" clip-path="url(#pd17f68fd8b)" style="fill: #808080; fill-opacity: 0.3"/>
    <path d="M 350.629321 243.779151 
L 363.713213 249.336304 
L 357.070828 230.172763 
L 344.01415 224.786367 
z
" clip-path="url(#pd17f68fd8b)" style="fill: #808080; fill-opacity: 0.3"/>
    <path d="M 383.412349 306.169086 
L 396.833278 312.345339 
L 390.279158 293.342162 
L 376.883646 287.333522 
z
" clip-path="url(#pd17f68fd8b)" style="fill: #808080; fill-opacity: 0.3"/>
    <path d="M 416.270393 368.701787 
L 430.029877 375.499974 
L 423.564448 356.657955 
L 409.828572 350.024214 
z
" clip-path="url(#pd17f68fd8b)" style="fill: #808080; fill-opacity: 0.3"/>
    <path d="M 344.01415 224.786367 
L 357.070828 230.172763 
L 350.389889 210.89799 
L 337.360958 205.68442 
z
" clip-path="url(#pd17f68fd8b)" style="fill: #808080; fill-opacity: 0.3"/>
    <path d="M 376.883646 287.333522 
L 390.279158 293.342162 
L 383.686952 274.228557 
L 370.317376 268.389574 
z
" clip-path="url(#pd17f68fd8b)" style="fill: #808080; fill-opacity: 0.3"/>
    <path d="M 409.828572 350.024214 
L 423.564448 356.657955 
L 417.061404 337.706317 
L 403.349641 331.239042 
z
" clip-path="url(#pd17f68fd8b)" style="fill: #808080; fill-opacity: 0.3"/>
    <path d="M 337.360958 205.68442 
L 350.389889 210.89799 
L 343.670058 191.511015 
L 330.669416 186.472366 
z
" clip-path="url(#pd17f68fd8b)" style="fill: #808080; fill-opacity: 0.3"/>
    <path d="M 370.317376 268.389574 
L 383.686952 274.228557 
L 377.056326 255.003557 
L 363.713213 249.336304 
z
" clip-path="url(#pd17f68fd8b)" style="fill: #808080; fill-opacity: 0.3"/>
    <path d="M 403.349641 331.239042 
L 417.061404 337.706317 
L 410.520417 318.6441 
L 396.833278 312.345339 
z
" clip-path="url(#pd17f68fd8b)" style="fill: #808080; fill-opacity: 0.3"/>
    <path d="M 363.713213 249.336304 
L 377.056326 255.003557 
L 370.386944 235.666187 
L 357.070828 230.172763 
z
" clip-path="url(#pd17f68fd8b)" style="fill: #808080; fill-opacity: 0.3"/>
    <path d="M 396.833278 312.345339 
L 410.520417 318.6441 
L 403.941152 299.470334 
L 390.279158 293.342162 
z
" clip-path="url(#pd17f68fd8b)" style="fill: #808080; fill-opacity: 0.3"/>
    <path d="M 430.029877 375.499974 
L 444.062603 382.433162 
L 437.573896 363.423818 
L 423.564448 356.657955 
z
" clip-path="url(#pd17f68fd8b)" style="fill: #808080; fill-opacity: 0.3"/>
    <path d="M 357.070828 230.172763 
L 370.386944 235.666187 
L 363.678465 216.215459 
L 350.389889 210.89799 
z
" clip-path="url(#pd17f68fd8b)" style="fill: #808080; fill-opacity: 0.3"/>
    <path d="M 390.279158 293.342162 
L 403.941152 299.470334 
L 397.323274 280.184037 
L 383.686952 274.228557 
z
" clip-path="url(#pd17f68fd8b)" style="fill: #808080; fill-opacity: 0.3"/>
    <path d="M 423.564448 356.657955 
L 437.573896 363.423818 
L 431.047062 344.302777 
L 417.061404 337.706317 
z
" clip-path="url(#pd17f68fd8b)" style="fill: #808080; fill-opacity: 0.3"/>
    <path d="M 350.389889 210.89799 
L 363.678465 216.215459 
L 356.930544 196.650372 
L 343.670058 191.511015 
z
" clip-path="url(#pd17f68fd8b)" style="fill: #808080; fill-opacity: 0.3"/>
    <path d="M 383.686952 274.228557 
L 397.323274 280.184037 
L 390.666441 260.784215 
L 377.056326 255.003557 
z
" clip-path="url(#pd17f68fd8b)" style="fill: #808080; fill-opacity: 0.3"/>
    <path d="M 417.061404 337.706317 
L 431.047062 344.302777 
L 424.481764 325.069051 
L 410.520417 318.6441 
z
" clip-path="url(#pd17f68fd8b)" style="fill: #808080; fill-opacity: 0.3"/>
    <path d="M 377.056326 255.003557 
L 390.666441 260.784215 
L 383.970308 241.269862 
L 370.386944 235.666187 
z
" clip-path="url(#pd17f68fd8b)" style="fill: #808080; fill-opacity: 0.3"/>
    <path d="M 410.520417 318.6441 
L 424.481764 325.069051 
L 417.87766 305.721641 
L 403.941152 299.470334 
z
" clip-path="url(#pd17f68fd8b)" style="fill: #808080; fill-opacity: 0.3"/>
    <path d="M 444.062603 382.433162 
L 458.376793 389.505414 
L 451.865172 370.32579 
L 437.573896 363.423818 
z
" clip-path="url(#pd17f68fd8b)" style="fill: #808080; fill-opacity: 0.3"/>
    <path d="M 370.386944 235.666187 
L 383.970308 241.269862 
L 377.234527 221.639963 
L 363.678465 216.215459 
z
" clip-path="url(#pd17f68fd8b)" style="fill: #808080; fill-opacity: 0.3"/>
    <path d="M 403.941152 299.470334 
L 417.87766 305.721641 
L 411.234406 286.259537 
L 397.323274 280.184037 
z
" clip-path="url(#pd17f68fd8b)" style="fill: #808080; fill-opacity: 0.3"/>
    <path d="M 437.573896 363.423818 
L 451.865172 370.32579 
L 445.314904 351.032331 
L 431.047062 344.302777 
z
" clip-path="url(#pd17f68fd8b)" style="fill: #808080; fill-opacity: 0.3"/>
    <path d="M 363.678465 216.215459 
L 377.234527 221.639963 
L 370.458743 201.893486 
L 356.930544 196.650372 
z
" clip-path="url(#pd17f68fd8b)" style="fill: #808080; fill-opacity: 0.3"/>
    <path d="M 397.323274 280.184037 
L 411.234406 286.259537 
L 404.551653 266.681715 
L 390.666441 260.784215 
z
" clip-path="url(#pd17f68fd8b)" style="fill: #808080; fill-opacity: 0.3"/>
    <path d="M 431.047062 344.302777 
L 445.314904 351.032331 
L 438.725643 331.624022 
L 424.481764 325.069051 
z
" clip-path="url(#pd17f68fd8b)" style="fill: #808080; fill-opacity: 0.3"/>
    <path d="M 390.666441 260.784215 
L 404.551653 266.681715 
L 397.829048 246.987141 
L 383.970308 241.269862 
z
" clip-path="url(#pd17f68fd8b)" style="fill: #808080; fill-opacity: 0.3"/>
    <path d="M 424.481764 325.069051 
L 438.725643 331.624022 
L 432.097039 312.099832 
L 417.87766 305.721641 
z
" clip-path="url(#pd17f68fd8b)" style="fill: #808080; fill-opacity: 0.3"/>
    <path d="M 383.970308 241.269862 
L 397.829048 246.987141 
L 391.066232 227.174766 
L 377.234527 221.639963 
z
" clip-path="url(#pd17f68fd8b)" style="fill: #808080; fill-opacity: 0.3"/>
    <path d="M 417.87766 305.721641 
L 432.097039 312.099832 
L 425.428741 292.458721 
L 411.234406 286.259537 
z
" clip-path="url(#pd17f68fd8b)" style="fill: #808080; fill-opacity: 0.3"/>
    <path d="M 377.234527 221.639963 
L 391.066232 227.174766 
L 384.262844 207.243531 
L 370.458743 201.893486 
z
" clip-path="url(#pd17f68fd8b)" style="fill: #808080; fill-opacity: 0.3"/>
    <path d="M 411.234406 286.259537 
L 425.428741 292.458721 
L 418.720389 272.699637 
L 404.551653 266.681715 
z
" clip-path="url(#pd17f68fd8b)" style="fill: #808080; fill-opacity: 0.3"/>
    <path d="M 404.551653 266.681715 
L 418.720389 272.699637 
L 411.971622 252.821512 
L 397.829048 246.987141 
z
" clip-path="url(#pd17f68fd8b)" style="fill: #808080; fill-opacity: 0.3"/>
    <path d="M 397.829048 246.987141 
L 411.971622 252.821512 
L 405.182074 232.823268 
L 391.066232 227.174766 
z
" clip-path="url(#pd17f68fd8b)" style="fill: #808080; fill-opacity: 0.3"/>
    <path d="M 391.066232 227.174766 
L 405.182074 232.823268 
L 398.351374 212.703813 
L 384.262844 207.243531 
z
" clip-path="url(#pd17f68fd8b)" style="fill: #808080; fill-opacity: 0.3"/>
   </g>
   <g id="legend_1">
    <g id="patch_6">
     <path d="M 343.470937 136.36125 
L 578.16 136.36125 
Q 581.76 136.36125 581.76 132.76125 
L 581.76 81.72 
Q 581.76 78.12 578.16 78.12 
L 343.470937 78.12 
Q 339.870937 78.12 339.870937 81.72 
L 339.870937 132.76125 
Q 339.870937 136.36125 343.470937 136.36125 
z
" style="fill: #ffffff; opacity: 0.8; stroke: #cccccc; stroke-linejoin: miter"/>
    </g>
    <g id="Path3DCollection_2">
     <path d="M 365.070937 99.749413 
C 366.523515 99.749413 367.916794 99.172298 368.943921 98.145171 
C 369.971048 97.118044 370.548163 95.724765 370.548163 94.272188 
C 370.548163 92.81961 369.971048 91.426331 368.943921 90.399204 
C 367.916794 89.372077 366.523515 88.794962 365.070937 88.794962 
C 363.61836 88.794962 362.225081 89.372077 361.197954 90.399204 
C 360.170827 91.426331 359.593712 92.81961 359.593712 94.272188 
C 359.593712 95.724765 360.170827 97.118044 361.197954 98.145171 
C 362.225081 99.172298 363.61836 99.749413 365.070937 99.749413 
z
" style="fill: #ff0000; stroke: #ff0000"/>
    </g>
    <g id="text_19">
     <!-- Selected stimulus 1 -->
     <g transform="translate(397.470937 98.997188) scale(0.18 -0.18)">
      <defs>
       <path id="DejaVuSans-53" d="M 3425 4513 
L 3425 3897 
Q 3066 4069 2747 4153 
Q 2428 4238 2131 4238 
Q 1616 4238 1336 4038 
Q 1056 3838 1056 3469 
Q 1056 3159 1242 3001 
Q 1428 2844 1947 2747 
L 2328 2669 
Q 3034 2534 3370 2195 
Q 3706 1856 3706 1288 
Q 3706 609 3251 259 
Q 2797 -91 1919 -91 
Q 1588 -91 1214 -16 
Q 841 59 441 206 
L 441 856 
Q 825 641 1194 531 
Q 1563 422 1919 422 
Q 2459 422 2753 634 
Q 3047 847 3047 1241 
Q 3047 1584 2836 1778 
Q 2625 1972 2144 2069 
L 1759 2144 
Q 1053 2284 737 2584 
Q 422 2884 422 3419 
Q 422 4038 858 4394 
Q 1294 4750 2059 4750 
Q 2388 4750 2728 4690 
Q 3069 4631 3425 4513 
z
" transform="scale(0.015625)"/>
       <path id="DejaVuSans-65" d="M 3597 1894 
L 3597 1613 
L 953 1613 
Q 991 1019 1311 708 
Q 1631 397 2203 397 
Q 2534 397 2845 478 
Q 3156 559 3463 722 
L 3463 178 
Q 3153 47 2828 -22 
Q 2503 -91 2169 -91 
Q 1331 -91 842 396 
Q 353 884 353 1716 
Q 353 2575 817 3079 
Q 1281 3584 2069 3584 
Q 2775 3584 3186 3129 
Q 3597 2675 3597 1894 
z
M 3022 2063 
Q 3016 2534 2758 2815 
Q 2500 3097 2075 3097 
Q 1594 3097 1305 2825 
Q 1016 2553 972 2059 
L 3022 2063 
z
" transform="scale(0.015625)"/>
       <path id="DejaVuSans-6c" d="M 603 4863 
L 1178 4863 
L 1178 0 
L 603 0 
L 603 4863 
z
" transform="scale(0.015625)"/>
       <path id="DejaVuSans-63" d="M 3122 3366 
L 3122 2828 
Q 2878 2963 2633 3030 
Q 2388 3097 2138 3097 
Q 1578 3097 1268 2742 
Q 959 2388 959 1747 
Q 959 1106 1268 751 
Q 1578 397 2138 397 
Q 2388 397 2633 464 
Q 2878 531 3122 666 
L 3122 134 
Q 2881 22 2623 -34 
Q 2366 -91 2075 -91 
Q 1284 -91 818 406 
Q 353 903 353 1747 
Q 353 2603 823 3093 
Q 1294 3584 2113 3584 
Q 2378 3584 2631 3529 
Q 2884 3475 3122 3366 
z
" transform="scale(0.015625)"/>
       <path id="DejaVuSans-74" d="M 1172 4494 
L 1172 3500 
L 2356 3500 
L 2356 3053 
L 1172 3053 
L 1172 1153 
Q 1172 725 1289 603 
Q 1406 481 1766 481 
L 2356 481 
L 2356 0 
L 1766 0 
Q 1100 0 847 248 
Q 594 497 594 1153 
L 594 3053 
L 172 3053 
L 172 3500 
L 594 3500 
L 594 4494 
L 1172 4494 
z
" transform="scale(0.015625)"/>
       <path id="DejaVuSans-64" d="M 2906 2969 
L 2906 4863 
L 3481 4863 
L 3481 0 
L 2906 0 
L 2906 525 
Q 2725 213 2448 61 
Q 2172 -91 1784 -91 
Q 1150 -91 751 415 
Q 353 922 353 1747 
Q 353 2572 751 3078 
Q 1150 3584 1784 3584 
Q 2172 3584 2448 3432 
Q 2725 3281 2906 2969 
z
M 947 1747 
Q 947 1113 1208 752 
Q 1469 391 1925 391 
Q 2381 391 2643 752 
Q 2906 1113 2906 1747 
Q 2906 2381 2643 2742 
Q 2381 3103 1925 3103 
Q 1469 3103 1208 2742 
Q 947 2381 947 1747 
z
" transform="scale(0.015625)"/>
       <path id="DejaVuSans-73" d="M 2834 3397 
L 2834 2853 
Q 2591 2978 2328 3040 
Q 2066 3103 1784 3103 
Q 1356 3103 1142 2972 
Q 928 2841 928 2578 
Q 928 2378 1081 2264 
Q 1234 2150 1697 2047 
L 1894 2003 
Q 2506 1872 2764 1633 
Q 3022 1394 3022 966 
Q 3022 478 2636 193 
Q 2250 -91 1575 -91 
Q 1294 -91 989 -36 
Q 684 19 347 128 
L 347 722 
Q 666 556 975 473 
Q 1284 391 1588 391 
Q 1994 391 2212 530 
Q 2431 669 2431 922 
Q 2431 1156 2273 1281 
Q 2116 1406 1581 1522 
L 1381 1569 
Q 847 1681 609 1914 
Q 372 2147 372 2553 
Q 372 3047 722 3315 
Q 1072 3584 1716 3584 
Q 2034 3584 2315 3537 
Q 2597 3491 2834 3397 
z
" transform="scale(0.015625)"/>
       <path id="DejaVuSans-69" d="M 603 3500 
L 1178 3500 
L 1178 0 
L 603 0 
L 603 3500 
z
M 603 4863 
L 1178 4863 
L 1178 4134 
L 603 4134 
L 603 4863 
z
" transform="scale(0.015625)"/>
       <path id="DejaVuSans-6d" d="M 3328 2828 
Q 3544 3216 3844 3400 
Q 4144 3584 4550 3584 
Q 5097 3584 5394 3201 
Q 5691 2819 5691 2113 
L 5691 0 
L 5113 0 
L 5113 2094 
Q 5113 2597 4934 2840 
Q 4756 3084 4391 3084 
Q 3944 3084 3684 2787 
Q 3425 2491 3425 1978 
L 3425 0 
L 2847 0 
L 2847 2094 
Q 2847 2600 2669 2842 
Q 2491 3084 2119 3084 
Q 1678 3084 1418 2786 
Q 1159 2488 1159 1978 
L 1159 0 
L 581 0 
L 581 3500 
L 1159 3500 
L 1159 2956 
Q 1356 3278 1631 3431 
Q 1906 3584 2284 3584 
Q 2666 3584 2933 3390 
Q 3200 3197 3328 2828 
z
" transform="scale(0.015625)"/>
       <path id="DejaVuSans-75" d="M 544 1381 
L 544 3500 
L 1119 3500 
L 1119 1403 
Q 1119 906 1312 657 
Q 1506 409 1894 409 
Q 2359 409 2629 706 
Q 2900 1003 2900 1516 
L 2900 3500 
L 3475 3500 
L 3475 0 
L 2900 0 
L 2900 538 
Q 2691 219 2414 64 
Q 2138 -91 1772 -91 
Q 1169 -91 856 284 
Q 544 659 544 1381 
z
M 1991 3584 
L 1991 3584 
z
" transform="scale(0.015625)"/>
      </defs>
      <use xlink:href="#DejaVuSans-53"/>
      <use xlink:href="#DejaVuSans-65" x="63.476562"/>
      <use xlink:href="#DejaVuSans-6c" x="125"/>
      <use xlink:href="#DejaVuSans-65" x="152.783203"/>
      <use xlink:href="#DejaVuSans-63" x="214.306641"/>
      <use xlink:href="#DejaVuSans-74" x="269.287109"/>
      <use xlink:href="#DejaVuSans-65" x="308.496094"/>
      <use xlink:href="#DejaVuSans-64" x="370.019531"/>
      <use xlink:href="#DejaVuSans-20" x="433.496094"/>
      <use xlink:href="#DejaVuSans-73" x="465.283203"/>
      <use xlink:href="#DejaVuSans-74" x="517.382812"/>
      <use xlink:href="#DejaVuSans-69" x="556.591797"/>
      <use xlink:href="#DejaVuSans-6d" x="584.375"/>
      <use xlink:href="#DejaVuSans-75" x="681.787109"/>
      <use xlink:href="#DejaVuSans-6c" x="745.166016"/>
      <use xlink:href="#DejaVuSans-75" x="772.949219"/>
      <use xlink:href="#DejaVuSans-73" x="836.328125"/>
      <use xlink:href="#DejaVuSans-20" x="888.427734"/>
      <use xlink:href="#DejaVuSans-31" x="920.214844"/>
     </g>
    </g>
    <g id="Path3DCollection_3">
     <path d="M 365.070937 126.170038 
L 370.548163 115.215587 
L 359.593712 115.215587 
z
" style="fill: #ff0000; stroke: #ff0000"/>
    </g>
    <g id="text_20">
     <!-- Selected stimulus 2 -->
     <g transform="translate(397.470937 125.417813) scale(0.18 -0.18)">
      <use xlink:href="#DejaVuSans-53"/>
      <use xlink:href="#DejaVuSans-65" x="63.476562"/>
      <use xlink:href="#DejaVuSans-6c" x="125"/>
      <use xlink:href="#DejaVuSans-65" x="152.783203"/>
      <use xlink:href="#DejaVuSans-63" x="214.306641"/>
      <use xlink:href="#DejaVuSans-74" x="269.287109"/>
      <use xlink:href="#DejaVuSans-65" x="308.496094"/>
      <use xlink:href="#DejaVuSans-64" x="370.019531"/>
      <use xlink:href="#DejaVuSans-20" x="433.496094"/>
      <use xlink:href="#DejaVuSans-73" x="465.283203"/>
      <use xlink:href="#DejaVuSans-74" x="517.382812"/>
      <use xlink:href="#DejaVuSans-69" x="556.591797"/>
      <use xlink:href="#DejaVuSans-6d" x="584.375"/>
      <use xlink:href="#DejaVuSans-75" x="681.787109"/>
      <use xlink:href="#DejaVuSans-6c" x="745.166016"/>
      <use xlink:href="#DejaVuSans-75" x="772.949219"/>
      <use xlink:href="#DejaVuSans-73" x="836.328125"/>
      <use xlink:href="#DejaVuSans-20" x="888.427734"/>
      <use xlink:href="#DejaVuSans-32" x="920.214844"/>
     </g>
    </g>
   </g>
   <g id="Path3DCollection_4">
    <path d="M 400.004755 241.509821 
L 405.481981 230.55537 
L 394.52753 230.55537 
z
" clip-path="url(#pd17f68fd8b)" style="fill: #ff5f00; fill-opacity: 0.3; stroke: #ff5f00; stroke-opacity: 0.3"/>
    <path d="M 344.911285 260.263441 
L 350.388511 249.30899 
L 339.43406 249.30899 
z
" clip-path="url(#pd17f68fd8b)" style="fill: #ff0000; fill-opacity: 0.302355; stroke: #ff0000; stroke-opacity: 0.302355"/>
    <path d="M 442.852579 195.346031 
L 448.329805 184.391579 
L 437.375354 184.391579 
z
" clip-path="url(#pd17f68fd8b)" style="fill: #ffc300; fill-opacity: 0.332823; stroke: #ffc300; stroke-opacity: 0.332823"/>
    <path d="M 305.305754 281.689343 
L 310.782979 270.734892 
L 299.828528 270.734892 
z
" clip-path="url(#pd17f68fd8b)" style="fill: #ff0018; fill-opacity: 0.363498; stroke: #ff0018; stroke-opacity: 0.363498"/>
    <path d="M 457.977114 166.420919 
L 463.454339 155.466468 
L 452.499888 155.466468 
z
" clip-path="url(#pd17f68fd8b)" style="fill: #ddff00; fill-opacity: 0.428608; stroke: #ddff00; stroke-opacity: 0.428608"/>
    <path d="M 274.280986 304.697199 
L 279.758211 293.742748 
L 268.80376 293.742748 
z
" clip-path="url(#pd17f68fd8b)" style="fill: #ff007c; fill-opacity: 0.44362; stroke: #ff007c; stroke-opacity: 0.44362"/>
    <path d="M 515.255027 214.961382 
L 520.732253 204.006931 
L 509.777801 204.006931 
z
" clip-path="url(#pd17f68fd8b)" style="fill: #78ff00; fill-opacity: 0.54436; stroke: #78ff00; stroke-opacity: 0.54436"/>
    <path d="M 250.704752 325.852999 
L 256.181978 314.898548 
L 245.227527 314.898548 
z
" clip-path="url(#pd17f68fd8b)" style="fill: #ff00e1; fill-opacity: 0.545442; stroke: #ff00e1; stroke-opacity: 0.545442"/>
    <path d="M 494.92347 202.218838 
L 500.400696 191.264387 
L 489.446245 191.264387 
z
" clip-path="url(#pd17f68fd8b)" style="fill: #14ff00; fill-opacity: 0.638717; stroke: #14ff00; stroke-opacity: 0.638717"/>
    <path d="M 229.335185 351.597825 
L 234.81241 340.643374 
L 223.857959 340.643374 
z
" clip-path="url(#pd17f68fd8b)" style="fill: #b900ff; fill-opacity: 0.668381; stroke: #b900ff; stroke-opacity: 0.668381"/>
    <path d="M 476.142101 226.948726 
L 481.619327 215.994275 
L 470.664876 215.994275 
z
" clip-path="url(#pd17f68fd8b)" style="fill: #00ff57; fill-opacity: 0.742215; stroke: #00ff57; stroke-opacity: 0.742215"/>
    <path d="M 223.215146 386.246632 
L 228.692372 375.29218 
L 217.737921 375.29218 
z
" clip-path="url(#pd17f68fd8b)" style="fill: #5a00ff; fill-opacity: 0.836383; stroke: #5a00ff; stroke-opacity: 0.836383"/>
    <path d="M 446.259685 255.802494 
L 451.73691 244.848043 
L 440.782459 244.848043 
z
" clip-path="url(#pd17f68fd8b)" style="fill: #00ffbb; fill-opacity: 0.840761; stroke: #00ffbb; stroke-opacity: 0.840761"/>
    <path d="M 399.35985 290.086444 
L 404.837076 279.131993 
L 393.882625 279.131993 
z
" clip-path="url(#pd17f68fd8b)" style="fill: #00d9ff; fill-opacity: 0.931484; stroke: #00d9ff; stroke-opacity: 0.931484"/>
    <path d="M 279.348004 379.98332 
L 284.82523 369.028869 
L 273.870778 369.028869 
z
" clip-path="url(#pd17f68fd8b)" style="fill: #001cff; fill-opacity: 0.998668; stroke: #001cff; stroke-opacity: 0.998668"/>
    <path d="M 343.18308 333.830836 
L 348.660306 322.876384 
L 337.705854 322.876384 
z
" clip-path="url(#pd17f68fd8b)" style="fill: #0074ff; stroke: #0074ff"/>
   </g>
  </g>
 </g>
 <defs>
  <clipPath id="pd17f68fd8b">
   <rect x="147.24" y="69.12" width="443.52" height="443.52"/>
  </clipPath>
 </defs>
</svg>
