<?xml version="1.0" encoding="utf-8" standalone="no"?>
<!DOCTYPE svg PUBLIC "-//W3C//DTD SVG 1.1//EN"
  "http://www.w3.org/Graphics/SVG/1.1/DTD/svg11.dtd">
<svg xmlns:xlink="http://www.w3.org/1999/xlink" width="720pt" height="576pt" viewBox="0 0 720 576" xmlns="http://www.w3.org/2000/svg" version="1.1">
 <metadata>
  <rdf:RDF xmlns:dc="http://purl.org/dc/elements/1.1/" xmlns:cc="http://creativecommons.org/ns#" xmlns:rdf="http://www.w3.org/1999/02/22-rdf-syntax-ns#">
   <cc:Work>
    <dc:type rdf:resource="http://purl.org/dc/dcmitype/StillImage"/>
    <dc:date>2025-05-16T02:06:26.027903</dc:date>
    <dc:format>image/svg+xml</dc:format>
    <dc:creator>
     <cc:Agent>
      <dc:title>Matplotlib v3.9.2, https://matplotlib.org/</dc:title>
     </cc:Agent>
    </dc:creator>
   </cc:Work>
  </rdf:RDF>
 </metadata>
 <defs>
  <style type="text/css">*{stroke-linejoin: round; stroke-linecap: butt}</style>
 </defs>
 <g id="figure_1">
  <g id="patch_1">
   <path d="M 0 576 
L 720 576 
L 720 0 
L 0 0 
L 0 576 
z
" style="fill: none"/>
  </g>
  <g id="patch_2">
   <path d="M 147.24 512.64 
L 590.76 512.64 
L 590.76 69.12 
L 147.24 69.12 
L 147.24 512.64 
z
" style="fill: none"/>
  </g>
  <g id="pane3d_1">
   <g id="patch_3">
    <path d="M 241.776258 333.210956 
L 508.210769 333.210956 
L 512.119926 141.343983 
L 237.867101 141.343983 
" style="fill: none; opacity: 0.5; stroke: #f2f2f2; stroke-linejoin: miter"/>
   </g>
  </g>
  <g id="pane3d_2">
   <g id="patch_4">
    <path d="M 241.776258 333.210956 
L 226.241772 440.598264 
L 221.351029 229.152779 
L 237.867101 141.343983 
" style="fill: none; opacity: 0.5; stroke: #e6e6e6; stroke-linejoin: miter"/>
   </g>
  </g>
  <g id="pane3d_3">
   <g id="patch_5">
    <path d="M 241.776258 333.210956 
L 226.241772 440.598264 
L 523.745255 440.598264 
L 508.210769 333.210956 
" style="fill: none; opacity: 0.5; stroke: #ececec; stroke-linejoin: miter"/>
   </g>
  </g>
  <g id="grid3d_1">
   <g id="Line3DCollection_1">
    <path d="M 510.681366 350.289778 
L 239.305661 350.289778 
L 235.247956 155.268841 
" style="fill: none; stroke: #b0b0b0; stroke-width: 0.8"/>
    <path d="M 513.728493 371.354058 
L 236.258534 371.354058 
L 232.013686 172.464056 
" style="fill: none; stroke: #b0b0b0; stroke-width: 0.8"/>
    <path d="M 516.915622 393.386148 
L 233.071405 393.386148 
L 228.62616 190.474062 
" style="fill: none; stroke: #b0b0b0; stroke-width: 0.8"/>
    <path d="M 520.252628 416.454317 
L 229.734399 416.454317 
L 225.074222 209.358175 
" style="fill: none; stroke: #b0b0b0; stroke-width: 0.8"/>
   </g>
  </g>
  <g id="grid3d_2">
   <g id="Line3DCollection_2">
    <path d="M 262.103881 141.343983 
L 265.322103 333.210956 
L 252.533303 440.598264 
" style="fill: none; stroke: #b0b0b0; stroke-width: 0.8"/>
    <path d="M 318.733074 141.343983 
L 320.336928 333.210956 
L 313.963415 440.598264 
" style="fill: none; stroke: #b0b0b0; stroke-width: 0.8"/>
    <path d="M 375.362266 141.343983 
L 375.351754 333.210956 
L 375.393528 440.598264 
" style="fill: none; stroke: #b0b0b0; stroke-width: 0.8"/>
    <path d="M 431.991458 141.343983 
L 430.366579 333.210956 
L 436.823641 440.598264 
" style="fill: none; stroke: #b0b0b0; stroke-width: 0.8"/>
    <path d="M 488.620651 141.343983 
L 485.381404 333.210956 
L 498.253754 440.598264 
" style="fill: none; stroke: #b0b0b0; stroke-width: 0.8"/>
   </g>
  </g>
  <g id="grid3d_3">
   <g id="Line3DCollection_3">
    <path d="M 225.305843 400.134471 
L 241.026096 296.391975 
L 508.960931 296.391975 
" style="fill: none; stroke: #b0b0b0; stroke-width: 0.8"/>
    <path d="M 224.309188 357.045274 
L 240.228345 257.237201 
L 509.758682 257.237201 
" style="fill: none; stroke: #b0b0b0; stroke-width: 0.8"/>
    <path d="M 223.299172 313.378435 
L 239.421036 217.613314 
L 510.565991 217.613314 
" style="fill: none; stroke: #b0b0b0; stroke-width: 0.8"/>
    <path d="M 222.275525 269.12226 
L 238.603996 177.511833 
L 511.383031 177.511833 
" style="fill: none; stroke: #b0b0b0; stroke-width: 0.8"/>
   </g>
  </g>
  <g id="axis3d_1">
   <g id="line2d_1">
    <path d="M 508.210769 333.210956 
L 523.745255 440.598264 
" style="fill: none; stroke: #000000; stroke-width: 0.8; stroke-linecap: square"/>
   </g>
   <g id="xtick_1">
    <g id="line2d_2">
     <path d="M 508.51036 350.289778 
L 515.023377 350.289778 
" style="fill: none; stroke: #000000; stroke-width: 0.8; stroke-linecap: square"/>
    </g>
    <g id="text_1">
     <!-- −40 -->
     <g transform="translate(511.31324 368.821221) scale(0.12 -0.12)">
      <defs>
       <path id="DejaVuSans-2212" d="M 678 2272 
L 4684 2272 
L 4684 1741 
L 678 1741 
L 678 2272 
z
" transform="scale(0.015625)"/>
       <path id="DejaVuSans-34" d="M 2419 4116 
L 825 1625 
L 2419 1625 
L 2419 4116 
z
M 2253 4666 
L 3047 4666 
L 3047 1625 
L 3713 1625 
L 3713 1100 
L 3047 1100 
L 3047 0 
L 2419 0 
L 2419 1100 
L 313 1100 
L 313 1709 
L 2253 4666 
z
" transform="scale(0.015625)"/>
       <path id="DejaVuSans-30" d="M 2034 4250 
Q 1547 4250 1301 3770 
Q 1056 3291 1056 2328 
Q 1056 1369 1301 889 
Q 1547 409 2034 409 
Q 2525 409 2770 889 
Q 3016 1369 3016 2328 
Q 3016 3291 2770 3770 
Q 2525 4250 2034 4250 
z
M 2034 4750 
Q 2819 4750 3233 4129 
Q 3647 3509 3647 2328 
Q 3647 1150 3233 529 
Q 2819 -91 2034 -91 
Q 1250 -91 836 529 
Q 422 1150 422 2328 
Q 422 3509 836 4129 
Q 1250 4750 2034 4750 
z
" transform="scale(0.015625)"/>
      </defs>
      <use xlink:href="#DejaVuSans-2212"/>
      <use xlink:href="#DejaVuSans-34" x="83.789062"/>
      <use xlink:href="#DejaVuSans-30" x="147.412109"/>
     </g>
    </g>
   </g>
   <g id="xtick_2">
    <g id="line2d_3">
     <path d="M 511.508733 371.354058 
L 518.168012 371.354058 
" style="fill: none; stroke: #000000; stroke-width: 0.8; stroke-linecap: square"/>
    </g>
    <g id="text_2">
     <!-- 0 -->
     <g transform="translate(523.499299 390.065496) scale(0.12 -0.12)">
      <use xlink:href="#DejaVuSans-30"/>
     </g>
    </g>
   </g>
   <g id="xtick_3">
    <g id="line2d_4">
     <path d="M 514.644868 393.386148 
L 521.457129 393.386148 
" style="fill: none; stroke: #000000; stroke-width: 0.8; stroke-linecap: square"/>
    </g>
    <g id="text_3">
     <!-- 40 -->
     <g transform="translate(523.175806 412.284377) scale(0.12 -0.12)">
      <use xlink:href="#DejaVuSans-34"/>
      <use xlink:href="#DejaVuSans-30" x="63.623047"/>
     </g>
    </g>
   </g>
   <g id="xtick_4">
    <g id="line2d_5">
     <path d="M 517.928482 416.454317 
L 524.90092 416.454317 
" style="fill: none; stroke: #000000; stroke-width: 0.8; stroke-linecap: square"/>
    </g>
    <g id="text_4">
     <!-- 80 -->
     <g transform="translate(526.833869 435.546507) scale(0.12 -0.12)">
      <defs>
       <path id="DejaVuSans-38" d="M 2034 2216 
Q 1584 2216 1326 1975 
Q 1069 1734 1069 1313 
Q 1069 891 1326 650 
Q 1584 409 2034 409 
Q 2484 409 2743 651 
Q 3003 894 3003 1313 
Q 3003 1734 2745 1975 
Q 2488 2216 2034 2216 
z
M 1403 2484 
Q 997 2584 770 2862 
Q 544 3141 544 3541 
Q 544 4100 942 4425 
Q 1341 4750 2034 4750 
Q 2731 4750 3128 4425 
Q 3525 4100 3525 3541 
Q 3525 3141 3298 2862 
Q 3072 2584 2669 2484 
Q 3125 2378 3379 2068 
Q 3634 1759 3634 1313 
Q 3634 634 3220 271 
Q 2806 -91 2034 -91 
Q 1263 -91 848 271 
Q 434 634 434 1313 
Q 434 1759 690 2068 
Q 947 2378 1403 2484 
z
M 1172 3481 
Q 1172 3119 1398 2916 
Q 1625 2713 2034 2713 
Q 2441 2713 2670 2916 
Q 2900 3119 2900 3481 
Q 2900 3844 2670 4047 
Q 2441 4250 2034 4250 
Q 1625 4250 1398 4047 
Q 1172 3844 1172 3481 
z
" transform="scale(0.015625)"/>
      </defs>
      <use xlink:href="#DejaVuSans-38"/>
      <use xlink:href="#DejaVuSans-30" x="63.623047"/>
     </g>
    </g>
   </g>
   <g id="text_5">
    <!-- PC 1 -->
    <g transform="translate(532.260686 414.995741) scale(0.18 -0.18)">
     <defs>
      <path id="DejaVuSans-50" d="M 1259 4147 
L 1259 2394 
L 2053 2394 
Q 2494 2394 2734 2622 
Q 2975 2850 2975 3272 
Q 2975 3691 2734 3919 
Q 2494 4147 2053 4147 
L 1259 4147 
z
M 628 4666 
L 2053 4666 
Q 2838 4666 3239 4311 
Q 3641 3956 3641 3272 
Q 3641 2581 3239 2228 
Q 2838 1875 2053 1875 
L 1259 1875 
L 1259 0 
L 628 0 
L 628 4666 
z
" transform="scale(0.015625)"/>
      <path id="DejaVuSans-43" d="M 4122 4306 
L 4122 3641 
Q 3803 3938 3442 4084 
Q 3081 4231 2675 4231 
Q 1875 4231 1450 3742 
Q 1025 3253 1025 2328 
Q 1025 1406 1450 917 
Q 1875 428 2675 428 
Q 3081 428 3442 575 
Q 3803 722 4122 1019 
L 4122 359 
Q 3791 134 3420 21 
Q 3050 -91 2638 -91 
Q 1578 -91 968 557 
Q 359 1206 359 2328 
Q 359 3453 968 4101 
Q 1578 4750 2638 4750 
Q 3056 4750 3426 4639 
Q 3797 4528 4122 4306 
z
" transform="scale(0.015625)"/>
      <path id="DejaVuSans-20" transform="scale(0.015625)"/>
      <path id="DejaVuSans-31" d="M 794 531 
L 1825 531 
L 1825 4091 
L 703 3866 
L 703 4441 
L 1819 4666 
L 2450 4666 
L 2450 531 
L 3481 531 
L 3481 0 
L 794 0 
L 794 531 
z
" transform="scale(0.015625)"/>
     </defs>
     <use xlink:href="#DejaVuSans-50"/>
     <use xlink:href="#DejaVuSans-43" x="60.302734"/>
     <use xlink:href="#DejaVuSans-20" x="130.126953"/>
     <use xlink:href="#DejaVuSans-31" x="161.914062"/>
    </g>
   </g>
  </g>
  <g id="axis3d_2">
   <g id="line2d_6">
    <path d="M 226.241772 440.598264 
L 523.745255 440.598264 
" style="fill: none; stroke: #000000; stroke-width: 0.8; stroke-linecap: square"/>
   </g>
   <g id="xtick_5">
    <g id="line2d_7">
     <path d="M 252.647437 439.63988 
L 252.304394 442.520406 
" style="fill: none; stroke: #000000; stroke-width: 0.8; stroke-linecap: square"/>
    </g>
    <g id="text_6">
     <!-- −80 -->
     <g transform="translate(239.351449 465.945847) scale(0.12 -0.12)">
      <use xlink:href="#DejaVuSans-2212"/>
      <use xlink:href="#DejaVuSans-38" x="83.789062"/>
      <use xlink:href="#DejaVuSans-30" x="147.412109"/>
     </g>
    </g>
   </g>
   <g id="xtick_6">
    <g id="line2d_8">
     <path d="M 314.020296 439.63988 
L 313.849335 442.520406 
" style="fill: none; stroke: #000000; stroke-width: 0.8; stroke-linecap: square"/>
    </g>
    <g id="text_7">
     <!-- −40 -->
     <g transform="translate(301.04193 465.945847) scale(0.12 -0.12)">
      <use xlink:href="#DejaVuSans-2212"/>
      <use xlink:href="#DejaVuSans-34" x="83.789062"/>
      <use xlink:href="#DejaVuSans-30" x="147.412109"/>
     </g>
    </g>
   </g>
   <g id="xtick_7">
    <g id="line2d_9">
     <path d="M 375.393155 439.63988 
L 375.394276 442.520406 
" style="fill: none; stroke: #000000; stroke-width: 0.8; stroke-linecap: square"/>
    </g>
    <g id="text_8">
     <!-- 0 -->
     <g transform="translate(371.577724 465.945847) scale(0.12 -0.12)">
      <use xlink:href="#DejaVuSans-30"/>
     </g>
    </g>
   </g>
   <g id="xtick_8">
    <g id="line2d_10">
     <path d="M 436.766015 439.63988 
L 436.939217 442.520406 
" style="fill: none; stroke: #000000; stroke-width: 0.8; stroke-linecap: square"/>
    </g>
    <g id="text_9">
     <!-- 40 -->
     <g transform="translate(429.450705 465.945847) scale(0.12 -0.12)">
      <use xlink:href="#DejaVuSans-34"/>
      <use xlink:href="#DejaVuSans-30" x="63.623047"/>
     </g>
    </g>
   </g>
   <g id="xtick_9">
    <g id="line2d_11">
     <path d="M 498.138874 439.63988 
L 498.484158 442.520406 
" style="fill: none; stroke: #000000; stroke-width: 0.8; stroke-linecap: square"/>
    </g>
    <g id="text_10">
     <!-- 80 -->
     <g transform="translate(491.141186 465.945847) scale(0.12 -0.12)">
      <use xlink:href="#DejaVuSans-38"/>
      <use xlink:href="#DejaVuSans-30" x="63.623047"/>
     </g>
    </g>
   </g>
   <g id="text_11">
    <!-- PC 2 -->
    <g transform="translate(354.695701 489.63081) scale(0.18 -0.18)">
     <defs>
      <path id="DejaVuSans-32" d="M 1228 531 
L 3431 531 
L 3431 0 
L 469 0 
L 469 531 
Q 828 903 1448 1529 
Q 2069 2156 2228 2338 
Q 2531 2678 2651 2914 
Q 2772 3150 2772 3378 
Q 2772 3750 2511 3984 
Q 2250 4219 1831 4219 
Q 1534 4219 1204 4116 
Q 875 4013 500 3803 
L 500 4441 
Q 881 4594 1212 4672 
Q 1544 4750 1819 4750 
Q 2544 4750 2975 4387 
Q 3406 4025 3406 3419 
Q 3406 3131 3298 2873 
Q 3191 2616 2906 2266 
Q 2828 2175 2409 1742 
Q 1991 1309 1228 531 
z
" transform="scale(0.015625)"/>
     </defs>
     <use xlink:href="#DejaVuSans-50"/>
     <use xlink:href="#DejaVuSans-43" x="60.302734"/>
     <use xlink:href="#DejaVuSans-20" x="130.126953"/>
     <use xlink:href="#DejaVuSans-32" x="161.914062"/>
    </g>
   </g>
  </g>
  <g id="axis3d_3">
   <g id="line2d_12">
    <path d="M 226.241772 440.598264 
L 221.351029 229.152779 
" style="fill: none; stroke: #000000; stroke-width: 0.8; stroke-linecap: square"/>
   </g>
   <g id="xtick_10">
    <g id="line2d_13">
     <path d="M 225.44623 399.208012 
L 225.024275 401.992616 
" style="fill: none; stroke: #000000; stroke-width: 0.8; stroke-linecap: square"/>
    </g>
    <g id="text_12">
     <!-- −40 -->
     <g transform="translate(196.771903 415.057217) scale(0.12 -0.12)">
      <use xlink:href="#DejaVuSans-2212"/>
      <use xlink:href="#DejaVuSans-34" x="83.789062"/>
      <use xlink:href="#DejaVuSans-30" x="147.412109"/>
     </g>
    </g>
   </g>
   <g id="xtick_11">
    <g id="line2d_14">
     <path d="M 224.45145 356.153333 
L 224.023855 358.834222 
" style="fill: none; stroke: #000000; stroke-width: 0.8; stroke-linecap: square"/>
    </g>
    <g id="text_13">
     <!-- 0 -->
     <g transform="translate(204.508366 371.752004) scale(0.12 -0.12)">
      <use xlink:href="#DejaVuSans-30"/>
     </g>
    </g>
   </g>
   <g id="xtick_12">
    <g id="line2d_15">
     <path d="M 223.443347 312.522024 
L 223.009997 315.096155 
" style="fill: none; stroke: #000000; stroke-width: 0.8; stroke-linecap: square"/>
    </g>
    <g id="text_14">
     <!-- 40 -->
     <g transform="translate(199.567063 327.862796) scale(0.12 -0.12)">
      <use xlink:href="#DejaVuSans-34"/>
      <use xlink:href="#DejaVuSans-30" x="63.623047"/>
     </g>
    </g>
   </g>
   <g id="xtick_13">
    <g id="line2d_16">
     <path d="M 222.421651 268.302422 
L 221.982431 270.766658 
" style="fill: none; stroke: #000000; stroke-width: 0.8; stroke-linecap: square"/>
    </g>
    <g id="text_15">
     <!-- 80 -->
     <g transform="translate(198.428002 283.3777) scale(0.12 -0.12)">
      <use xlink:href="#DejaVuSans-38"/>
      <use xlink:href="#DejaVuSans-30" x="63.623047"/>
     </g>
    </g>
   </g>
   <g id="text_16">
    <!-- PC 3 -->
    <g transform="translate(159.869569 356.487823) scale(0.18 -0.18)">
     <defs>
      <path id="DejaVuSans-33" d="M 2597 2516 
Q 3050 2419 3304 2112 
Q 3559 1806 3559 1356 
Q 3559 666 3084 287 
Q 2609 -91 1734 -91 
Q 1441 -91 1130 -33 
Q 819 25 488 141 
L 488 750 
Q 750 597 1062 519 
Q 1375 441 1716 441 
Q 2309 441 2620 675 
Q 2931 909 2931 1356 
Q 2931 1769 2642 2001 
Q 2353 2234 1838 2234 
L 1294 2234 
L 1294 2753 
L 1863 2753 
Q 2328 2753 2575 2939 
Q 2822 3125 2822 3475 
Q 2822 3834 2567 4026 
Q 2313 4219 1838 4219 
Q 1578 4219 1281 4162 
Q 984 4106 628 3988 
L 628 4550 
Q 988 4650 1302 4700 
Q 1616 4750 1894 4750 
Q 2613 4750 3031 4423 
Q 3450 4097 3450 3541 
Q 3450 3153 3228 2886 
Q 3006 2619 2597 2516 
z
" transform="scale(0.015625)"/>
     </defs>
     <use xlink:href="#DejaVuSans-50"/>
     <use xlink:href="#DejaVuSans-43" x="60.302734"/>
     <use xlink:href="#DejaVuSans-20" x="130.126953"/>
     <use xlink:href="#DejaVuSans-33" x="161.914062"/>
    </g>
   </g>
  </g>
  <g id="axes_1">
   <g id="line2d_17">
    <path d="M 423.420742 298.267165 
L 429.836955 308.384839 
L 328.703523 315.437809 
L 400.828107 274.339145 
L 421.142568 258.314641 
L 399.921074 238.821706 
L 384.547294 243.367594 
L 375.912901 270.272308 
L 374.255796 312.487687 
L 375.037175 316.877405 
L 407.109978 302.298839 
L 405.190939 302.923643 
L 400.715467 313.73334 
L 424.403975 316.650309 
L 420.781406 322.479653 
L 415.673056 326.128086 
L 423.420742 298.267165 
" clip-path="url(#p917747a699)" style="fill: none; stroke: #808080; stroke-opacity: 0.7; stroke-width: 1.5; stroke-linecap: square"/>
   </g>
   <g id="line2d_18">
    <path d="M 491.788729 216.734619 
L 505.851519 281.739667 
L 481.099546 341.724153 
L 399.853915 379.813295 
L 369.482472 410.536719 
L 291.097742 355.043826 
L 281.817982 344.938657 
L 245.678183 316.584874 
L 242.667344 326.49556 
L 314.600023 319.582 
L 317.477965 305.10304 
L 337.764063 283.655347 
L 359.554645 268.805101 
L 396.224064 251.885754 
L 437.212141 225.276051 
L 450.465781 179.028148 
L 491.788729 216.734619 
" clip-path="url(#p917747a699)" style="fill: none; stroke: #808080; stroke-opacity: 0.7; stroke-width: 1.5; stroke-linecap: square"/>
   </g>
   <g id="Poly3DCollection_1">
    <path d="M 307.821967 280.924988 
L 308.665361 288.941711 
L 292.378236 294.226686 
L 291.642991 286.181481 
z
" clip-path="url(#p917747a699)" style="fill: #808080; fill-opacity: 0.3"/>
    <path d="M 324.026792 275.660096 
L 324.978682 283.648236 
L 308.665361 288.941711 
L 307.821967 280.924988 
z
" clip-path="url(#p917747a699)" style="fill: #808080; fill-opacity: 0.3"/>
    <path d="M 340.257527 270.386786 
L 341.318259 278.346241 
L 324.978682 283.648236 
L 324.026792 275.660096 
z
" clip-path="url(#p917747a699)" style="fill: #808080; fill-opacity: 0.3"/>
    <path d="M 356.514234 265.105037 
L 357.684158 273.035706 
L 341.318259 278.346241 
L 340.257527 270.386786 
z
" clip-path="url(#p917747a699)" style="fill: #808080; fill-opacity: 0.3"/>
    <path d="M 372.796977 259.81483 
L 374.076442 267.716608 
L 357.684158 273.035706 
L 356.514234 265.105037 
z
" clip-path="url(#p917747a699)" style="fill: #808080; fill-opacity: 0.3"/>
    <path d="M 389.105817 254.516144 
L 390.495173 262.388929 
L 374.076442 267.716608 
L 372.796977 259.81483 
z
" clip-path="url(#p917747a699)" style="fill: #808080; fill-opacity: 0.3"/>
    <path d="M 405.440818 249.208958 
L 406.940418 257.052646 
L 390.495173 262.388929 
L 389.105817 254.516144 
z
" clip-path="url(#p917747a699)" style="fill: #808080; fill-opacity: 0.3"/>
    <path d="M 421.802042 243.893253 
L 423.412239 251.70774 
L 406.940418 257.052646 
L 405.440818 249.208958 
z
" clip-path="url(#p917747a699)" style="fill: #808080; fill-opacity: 0.3"/>
    <path d="M 438.189553 238.569007 
L 439.910702 246.354188 
L 423.412239 251.70774 
L 421.802042 243.893253 
z
" clip-path="url(#p917747a699)" style="fill: #808080; fill-opacity: 0.3"/>
    <path d="M 308.665361 288.941711 
L 309.520045 297.065739 
L 293.123314 302.37949 
L 292.378236 294.226686 
z
" clip-path="url(#p917747a699)" style="fill: #808080; fill-opacity: 0.3"/>
    <path d="M 324.978682 283.648236 
L 325.943323 291.743386 
L 309.520045 297.065739 
L 308.665361 288.941711 
z
" clip-path="url(#p917747a699)" style="fill: #808080; fill-opacity: 0.3"/>
    <path d="M 341.318259 278.346241 
L 342.393213 286.412408 
L 325.943323 291.743386 
L 324.978682 283.648236 
z
" clip-path="url(#p917747a699)" style="fill: #808080; fill-opacity: 0.3"/>
    <path d="M 357.684158 273.035706 
L 358.869779 281.072785 
L 342.393213 286.412408 
L 341.318259 278.346241 
z
" clip-path="url(#p917747a699)" style="fill: #808080; fill-opacity: 0.3"/>
    <path d="M 374.076442 267.716608 
L 375.373087 275.724496 
L 358.869779 281.072785 
L 357.684158 273.035706 
z
" clip-path="url(#p917747a699)" style="fill: #808080; fill-opacity: 0.3"/>
    <path d="M 390.495173 262.388929 
L 391.903202 270.367519 
L 375.373087 275.724496 
L 374.076442 267.716608 
z
" clip-path="url(#p917747a699)" style="fill: #808080; fill-opacity: 0.3"/>
    <path d="M 406.940418 257.052646 
L 408.460188 265.001834 
L 391.903202 270.367519 
L 390.495173 262.388929 
z
" clip-path="url(#p917747a699)" style="fill: #808080; fill-opacity: 0.3"/>
    <path d="M 423.412239 251.70774 
L 425.044112 259.627419 
L 408.460188 265.001834 
L 406.940418 257.052646 
z
" clip-path="url(#p917747a699)" style="fill: #808080; fill-opacity: 0.3"/>
    <path d="M 439.910702 246.354188 
L 441.655039 254.244254 
L 425.044112 259.627419 
L 423.412239 251.70774 
z
" clip-path="url(#p917747a699)" style="fill: #808080; fill-opacity: 0.3"/>
    <path d="M 309.520045 297.065739 
L 310.386245 305.299241 
L 293.878424 310.642065 
L 293.123314 302.37949 
z
" clip-path="url(#p917747a699)" style="fill: #808080; fill-opacity: 0.3"/>
    <path d="M 325.943323 291.743386 
L 326.920974 299.947708 
L 310.386245 305.299241 
L 309.520045 297.065739 
z
" clip-path="url(#p917747a699)" style="fill: #808080; fill-opacity: 0.3"/>
    <path d="M 342.393213 286.412408 
L 343.482676 294.587445 
L 326.920974 299.947708 
L 325.943323 291.743386 
z
" clip-path="url(#p917747a699)" style="fill: #808080; fill-opacity: 0.3"/>
    <path d="M 358.869779 281.072785 
L 360.071417 289.218431 
L 343.482676 294.587445 
L 342.393213 286.412408 
z
" clip-path="url(#p917747a699)" style="fill: #808080; fill-opacity: 0.3"/>
    <path d="M 375.373087 275.724496 
L 376.687263 283.840644 
L 360.071417 289.218431 
L 358.869779 281.072785 
z
" clip-path="url(#p917747a699)" style="fill: #808080; fill-opacity: 0.3"/>
    <path d="M 391.903202 270.367519 
L 393.330281 278.454063 
L 376.687263 283.840644 
L 375.373087 275.724496 
z
" clip-path="url(#p917747a699)" style="fill: #808080; fill-opacity: 0.3"/>
    <path d="M 408.460188 265.001834 
L 410.000538 273.058666 
L 393.330281 278.454063 
L 391.903202 270.367519 
z
" clip-path="url(#p917747a699)" style="fill: #808080; fill-opacity: 0.3"/>
    <path d="M 425.044112 259.627419 
L 426.698101 267.654431 
L 410.000538 273.058666 
L 408.460188 265.001834 
z
" clip-path="url(#p917747a699)" style="fill: #808080; fill-opacity: 0.3"/>
    <path d="M 441.655039 254.244254 
L 443.423036 262.241337 
L 426.698101 267.654431 
L 425.044112 259.627419 
z
" clip-path="url(#p917747a699)" style="fill: #808080; fill-opacity: 0.3"/>
    <path d="M 310.386245 305.299241 
L 311.264197 313.644444 
L 294.64377 319.016645 
L 293.878424 310.642065 
z
" clip-path="url(#p917747a699)" style="fill: #808080; fill-opacity: 0.3"/>
    <path d="M 326.920974 299.947708 
L 327.911899 308.263428 
L 311.264197 313.644444 
L 310.386245 305.299241 
z
" clip-path="url(#p917747a699)" style="fill: #808080; fill-opacity: 0.3"/>
    <path d="M 343.482676 294.587445 
L 344.586943 302.873574 
L 327.911899 308.263428 
L 326.920974 299.947708 
z
" clip-path="url(#p917747a699)" style="fill: #808080; fill-opacity: 0.3"/>
    <path d="M 360.071417 289.218431 
L 361.289396 297.47486 
L 344.586943 302.873574 
L 343.482676 294.587445 
z
" clip-path="url(#p917747a699)" style="fill: #808080; fill-opacity: 0.3"/>
    <path d="M 376.687263 283.840644 
L 378.019326 292.067265 
L 361.289396 297.47486 
L 360.071417 289.218431 
z
" clip-path="url(#p917747a699)" style="fill: #808080; fill-opacity: 0.3"/>
    <path d="M 393.330281 278.454063 
L 394.776801 286.650766 
L 378.019326 292.067265 
L 376.687263 283.840644 
z
" clip-path="url(#p917747a699)" style="fill: #808080; fill-opacity: 0.3"/>
    <path d="M 410.000538 273.058666 
L 411.561889 281.225343 
L 394.776801 286.650766 
L 393.330281 278.454063 
z
" clip-path="url(#p917747a699)" style="fill: #808080; fill-opacity: 0.3"/>
    <path d="M 426.698101 267.654431 
L 428.374658 275.790972 
L 411.561889 281.225343 
L 410.000538 273.058666 
z
" clip-path="url(#p917747a699)" style="fill: #808080; fill-opacity: 0.3"/>
    <path d="M 443.423036 262.241337 
L 445.215177 270.347631 
L 428.374658 275.790972 
L 426.698101 267.654431 
z
" clip-path="url(#p917747a699)" style="fill: #808080; fill-opacity: 0.3"/>
    <path d="M 311.264197 313.644444 
L 312.154142 322.103637 
L 295.419562 327.505521 
L 294.64377 319.016645 
z
" clip-path="url(#p917747a699)" style="fill: #808080; fill-opacity: 0.3"/>
    <path d="M 327.911899 308.263428 
L 328.916371 316.692828 
L 312.154142 322.103637 
L 311.264197 313.644444 
z
" clip-path="url(#p917747a699)" style="fill: #808080; fill-opacity: 0.3"/>
    <path d="M 344.586943 302.873574 
L 345.706319 311.273072 
L 328.916371 316.692828 
L 327.911899 308.263428 
z
" clip-path="url(#p917747a699)" style="fill: #808080; fill-opacity: 0.3"/>
    <path d="M 361.289396 297.47486 
L 362.524054 305.844346 
L 345.706319 311.273072 
L 344.586943 302.873574 
z
" clip-path="url(#p917747a699)" style="fill: #808080; fill-opacity: 0.3"/>
    <path d="M 378.019326 292.067265 
L 379.369645 300.406628 
L 362.524054 305.844346 
L 361.289396 297.47486 
z
" clip-path="url(#p917747a699)" style="fill: #808080; fill-opacity: 0.3"/>
    <path d="M 394.776801 286.650766 
L 396.243161 294.959895 
L 379.369645 300.406628 
L 378.019326 292.067265 
z
" clip-path="url(#p917747a699)" style="fill: #808080; fill-opacity: 0.3"/>
    <path d="M 411.561889 281.225343 
L 413.144673 289.504126 
L 396.243161 294.959895 
L 394.776801 286.650766 
z
" clip-path="url(#p917747a699)" style="fill: #808080; fill-opacity: 0.3"/>
    <path d="M 428.374658 275.790972 
L 430.07425 284.039298 
L 413.144673 289.504126 
L 411.561889 281.225343 
z
" clip-path="url(#p917747a699)" style="fill: #808080; fill-opacity: 0.3"/>
    <path d="M 445.215177 270.347631 
L 447.031961 278.565388 
L 430.07425 284.039298 
L 428.374658 275.790972 
z
" clip-path="url(#p917747a699)" style="fill: #808080; fill-opacity: 0.3"/>
    <path d="M 312.154142 322.103637 
L 313.056326 330.679172 
L 296.206015 336.111051 
L 295.419562 327.505521 
z
" clip-path="url(#p917747a699)" style="fill: #808080; fill-opacity: 0.3"/>
    <path d="M 328.916371 316.692828 
L 329.934669 325.238257 
L 313.056326 330.679172 
L 312.154142 322.103637 
z
" clip-path="url(#p917747a699)" style="fill: #808080; fill-opacity: 0.3"/>
    <path d="M 345.706319 311.273072 
L 346.841115 319.788283 
L 329.934669 325.238257 
L 328.916371 316.692828 
z
" clip-path="url(#p917747a699)" style="fill: #808080; fill-opacity: 0.3"/>
    <path d="M 362.524054 305.844346 
L 363.775734 314.329227 
L 346.841115 319.788283 
L 345.706319 311.273072 
z
" clip-path="url(#p917747a699)" style="fill: #808080; fill-opacity: 0.3"/>
    <path d="M 379.369645 300.406628 
L 380.738597 308.861067 
L 363.775734 314.329227 
L 362.524054 305.844346 
z
" clip-path="url(#p917747a699)" style="fill: #808080; fill-opacity: 0.3"/>
    <path d="M 396.243161 294.959895 
L 397.729773 303.383779 
L 380.738597 308.861067 
L 379.369645 300.406628 
z
" clip-path="url(#p917747a699)" style="fill: #808080; fill-opacity: 0.3"/>
    <path d="M 413.144673 289.504126 
L 414.749335 297.897341 
L 397.729773 303.383779 
L 396.243161 294.959895 
z
" clip-path="url(#p917747a699)" style="fill: #808080; fill-opacity: 0.3"/>
    <path d="M 430.07425 284.039298 
L 431.797353 292.401729 
L 414.749335 297.897341 
L 413.144673 289.504126 
z
" clip-path="url(#p917747a699)" style="fill: #808080; fill-opacity: 0.3"/>
    <path d="M 447.031961 278.565388 
L 448.873898 286.896922 
L 431.797353 292.401729 
L 430.07425 284.039298 
z
" clip-path="url(#p917747a699)" style="fill: #808080; fill-opacity: 0.3"/>
    <path d="M 313.056326 330.679172 
L 313.971003 339.373466 
L 297.00335 344.835654 
L 296.206015 336.111051 
z
" clip-path="url(#p917747a699)" style="fill: #808080; fill-opacity: 0.3"/>
    <path d="M 329.934669 325.238257 
L 330.967081 333.902127 
L 313.971003 339.373466 
L 313.056326 330.679172 
z
" clip-path="url(#p917747a699)" style="fill: #808080; fill-opacity: 0.3"/>
    <path d="M 346.841115 319.788283 
L 347.991653 328.421615 
L 330.967081 333.902127 
L 329.934669 325.238257 
z
" clip-path="url(#p917747a699)" style="fill: #808080; fill-opacity: 0.3"/>
    <path d="M 363.775734 314.329227 
L 365.044792 322.931908 
L 347.991653 328.421615 
L 346.841115 319.788283 
z
" clip-path="url(#p917747a699)" style="fill: #808080; fill-opacity: 0.3"/>
    <path d="M 380.738597 308.861067 
L 382.12657 317.43298 
L 365.044792 322.931908 
L 363.775734 314.329227 
z
" clip-path="url(#p917747a699)" style="fill: #808080; fill-opacity: 0.3"/>
    <path d="M 397.729773 303.383779 
L 399.237059 311.924811 
L 382.12657 317.43298 
L 380.738597 308.861067 
z
" clip-path="url(#p917747a699)" style="fill: #808080; fill-opacity: 0.3"/>
    <path d="M 414.749335 297.897341 
L 416.376331 306.407375 
L 399.237059 311.924811 
L 397.729773 303.383779 
z
" clip-path="url(#p917747a699)" style="fill: #808080; fill-opacity: 0.3"/>
    <path d="M 431.797353 292.401729 
L 433.544459 300.880651 
L 416.376331 306.407375 
L 414.749335 297.897341 
z
" clip-path="url(#p917747a699)" style="fill: #808080; fill-opacity: 0.3"/>
    <path d="M 448.873898 286.896922 
L 450.741515 295.344613 
L 433.544459 300.880651 
L 431.797353 292.401729 
z
" clip-path="url(#p917747a699)" style="fill: #808080; fill-opacity: 0.3"/>
    <path d="M 313.971003 339.373466 
L 314.898437 348.189002 
L 297.811794 353.681821 
L 297.00335 344.835654 
z
" clip-path="url(#p917747a699)" style="fill: #808080; fill-opacity: 0.3"/>
    <path d="M 330.967081 333.902127 
L 332.013902 342.686917 
L 314.898437 348.189002 
L 313.971003 339.373466 
z
" clip-path="url(#p917747a699)" style="fill: #808080; fill-opacity: 0.3"/>
    <path d="M 347.991653 328.421615 
L 349.158263 337.175543 
L 332.013902 342.686917 
L 330.967081 333.902127 
z
" clip-path="url(#p917747a699)" style="fill: #808080; fill-opacity: 0.3"/>
    <path d="M 365.044792 322.931908 
L 366.331593 331.654857 
L 349.158263 337.175543 
L 347.991653 328.421615 
z
" clip-path="url(#p917747a699)" style="fill: #808080; fill-opacity: 0.3"/>
    <path d="M 382.12657 317.43298 
L 383.533965 326.124834 
L 366.331593 331.654857 
L 365.044792 322.931908 
z
" clip-path="url(#p917747a699)" style="fill: #808080; fill-opacity: 0.3"/>
    <path d="M 399.237059 311.924811 
L 400.765453 320.585452 
L 383.533965 326.124834 
L 382.12657 317.43298 
z
" clip-path="url(#p917747a699)" style="fill: #808080; fill-opacity: 0.3"/>
    <path d="M 416.376331 306.407375 
L 418.02613 315.036686 
L 400.765453 320.585452 
L 399.237059 311.924811 
z
" clip-path="url(#p917747a699)" style="fill: #808080; fill-opacity: 0.3"/>
    <path d="M 433.544459 300.880651 
L 435.316073 309.478513 
L 418.02613 315.036686 
L 416.376331 306.407375 
z
" clip-path="url(#p917747a699)" style="fill: #808080; fill-opacity: 0.3"/>
    <path d="M 450.741515 295.344613 
L 452.635353 303.910908 
L 435.316073 309.478513 
L 433.544459 300.880651 
z
" clip-path="url(#p917747a699)" style="fill: #808080; fill-opacity: 0.3"/>
    <path d="M 314.898437 348.189002 
L 315.838894 357.128334 
L 298.631581 362.652109 
L 297.811794 353.681821 
z
" clip-path="url(#p917747a699)" style="fill: #808080; fill-opacity: 0.3"/>
    <path d="M 332.013902 342.686917 
L 333.075436 351.595176 
L 315.838894 357.128334 
L 314.898437 348.189002 
z
" clip-path="url(#p917747a699)" style="fill: #808080; fill-opacity: 0.3"/>
    <path d="M 349.158263 337.175543 
L 350.341283 346.052611 
L 333.075436 351.595176 
L 332.013902 342.686917 
z
" clip-path="url(#p917747a699)" style="fill: #808080; fill-opacity: 0.3"/>
    <path d="M 366.331593 331.654857 
L 367.636509 340.500615 
L 350.341283 346.052611 
L 349.158263 337.175543 
z
" clip-path="url(#p917747a699)" style="fill: #808080; fill-opacity: 0.3"/>
    <path d="M 383.533965 326.124834 
L 384.96119 334.939164 
L 367.636509 340.500615 
L 366.331593 331.654857 
z
" clip-path="url(#p917747a699)" style="fill: #808080; fill-opacity: 0.3"/>
    <path d="M 400.765453 320.585452 
L 402.315401 329.368233 
L 384.96119 334.939164 
L 383.533965 326.124834 
z
" clip-path="url(#p917747a699)" style="fill: #808080; fill-opacity: 0.3"/>
    <path d="M 418.02613 315.036686 
L 419.699217 323.787798 
L 402.315401 329.368233 
L 400.765453 320.585452 
z
" clip-path="url(#p917747a699)" style="fill: #808080; fill-opacity: 0.3"/>
    <path d="M 435.316073 309.478513 
L 437.112714 318.197836 
L 419.699217 323.787798 
L 418.02613 315.036686 
z
" clip-path="url(#p917747a699)" style="fill: #808080; fill-opacity: 0.3"/>
    <path d="M 452.635353 303.910908 
L 454.555969 312.598321 
L 437.112714 318.197836 
L 435.316073 309.478513 
z
" clip-path="url(#p917747a699)" style="fill: #808080; fill-opacity: 0.3"/>
   </g>
   <g id="Poly3DCollection_2">
    <path d="M 468.170786 278.941863 
L 452.864616 285.850624 
L 452.363336 289.978222 
L 467.572016 283.106696 
z
" clip-path="url(#p917747a699)" style="fill: #808080; fill-opacity: 0.3"/>
    <path d="M 452.864616 285.850624 
L 437.504806 292.783597 
L 437.1017 296.873673 
L 452.363336 289.978222 
z
" clip-path="url(#p917747a699)" style="fill: #808080; fill-opacity: 0.3"/>
    <path d="M 437.504806 292.783597 
L 422.091072 299.740909 
L 421.786833 303.793176 
L 437.1017 296.873673 
z
" clip-path="url(#p917747a699)" style="fill: #808080; fill-opacity: 0.3"/>
    <path d="M 422.091072 299.740909 
L 406.623131 306.722689 
L 406.418455 310.736855 
L 421.786833 303.793176 
z
" clip-path="url(#p917747a699)" style="fill: #808080; fill-opacity: 0.3"/>
    <path d="M 468.777353 274.722805 
L 453.372435 281.669192 
L 452.864616 285.850624 
L 468.170786 278.941863 
z
" clip-path="url(#p917747a699)" style="fill: #808080; fill-opacity: 0.3"/>
    <path d="M 406.623131 306.722689 
L 391.100697 313.729065 
L 390.996284 317.704839 
L 406.418455 310.736855 
z
" clip-path="url(#p917747a699)" style="fill: #808080; fill-opacity: 0.3"/>
    <path d="M 453.372435 281.669192 
L 437.913178 288.640082 
L 437.504806 292.783597 
L 452.864616 285.850624 
z
" clip-path="url(#p917747a699)" style="fill: #808080; fill-opacity: 0.3"/>
    <path d="M 391.100697 313.729065 
L 375.52348 320.760169 
L 375.520039 324.697255 
L 390.996284 317.704839 
z
" clip-path="url(#p917747a699)" style="fill: #808080; fill-opacity: 0.3"/>
    <path d="M 437.913178 288.640082 
L 422.399293 295.635604 
L 422.091072 299.740909 
L 437.504806 292.783597 
z
" clip-path="url(#p917747a699)" style="fill: #808080; fill-opacity: 0.3"/>
    <path d="M 375.52348 320.760169 
L 359.89119 327.816131 
L 359.989433 331.714231 
L 375.520039 324.697255 
z
" clip-path="url(#p917747a699)" style="fill: #808080; fill-opacity: 0.3"/>
    <path d="M 422.399293 295.635604 
L 406.830492 302.655889 
L 406.623131 306.722689 
L 422.091072 299.740909 
z
" clip-path="url(#p917747a699)" style="fill: #808080; fill-opacity: 0.3"/>
    <path d="M 359.89119 327.816131 
L 344.203535 334.897083 
L 344.404181 338.755898 
L 359.989433 331.714231 
z
" clip-path="url(#p917747a699)" style="fill: #808080; fill-opacity: 0.3"/>
    <path d="M 469.391868 270.448457 
L 453.88692 277.432866 
L 453.372435 281.669192 
L 468.777353 274.722805 
z
" clip-path="url(#p917747a699)" style="fill: #808080; fill-opacity: 0.3"/>
    <path d="M 406.830492 302.655889 
L 391.206481 309.70107 
L 391.100697 313.729065 
L 406.623131 306.722689 
z
" clip-path="url(#p917747a699)" style="fill: #808080; fill-opacity: 0.3"/>
    <path d="M 344.203535 334.897083 
L 328.46022 342.003159 
L 328.763993 345.822385 
L 344.404181 338.755898 
z
" clip-path="url(#p917747a699)" style="fill: #808080; fill-opacity: 0.3"/>
    <path d="M 453.88692 277.432866 
L 438.32692 284.442073 
L 437.913178 288.640082 
L 453.372435 281.669192 
z
" clip-path="url(#p917747a699)" style="fill: #808080; fill-opacity: 0.3"/>
    <path d="M 391.206481 309.70107 
L 375.526967 316.771278 
L 375.52348 320.760169 
L 391.100697 313.729065 
z
" clip-path="url(#p917747a699)" style="fill: #808080; fill-opacity: 0.3"/>
    <path d="M 438.32692 284.442073 
L 422.711575 291.476212 
L 422.399293 295.635604 
L 437.913178 288.640082 
z
" clip-path="url(#p917747a699)" style="fill: #808080; fill-opacity: 0.3"/>
    <path d="M 375.526967 316.771278 
L 359.791653 323.866647 
L 359.89119 327.816131 
L 375.52348 320.760169 
z
" clip-path="url(#p917747a699)" style="fill: #808080; fill-opacity: 0.3"/>
    <path d="M 422.711575 291.476212 
L 407.040589 298.535415 
L 406.830492 302.655889 
L 422.399293 295.635604 
z
" clip-path="url(#p917747a699)" style="fill: #808080; fill-opacity: 0.3"/>
    <path d="M 359.791653 323.866647 
L 344.00024 330.987312 
L 344.203535 334.897083 
L 359.89119 327.816131 
z
" clip-path="url(#p917747a699)" style="fill: #808080; fill-opacity: 0.3"/>
    <path d="M 470.014489 266.117724 
L 454.408204 273.140557 
L 453.88692 277.432866 
L 469.391868 270.448457 
z
" clip-path="url(#p917747a699)" style="fill: #808080; fill-opacity: 0.3"/>
    <path d="M 407.040589 298.535415 
L 391.313664 305.619816 
L 391.206481 309.70107 
L 406.830492 302.655889 
z
" clip-path="url(#p917747a699)" style="fill: #808080; fill-opacity: 0.3"/>
    <path d="M 344.00024 330.987312 
L 328.152429 338.133409 
L 328.46022 342.003159 
L 344.203535 334.897083 
z
" clip-path="url(#p917747a699)" style="fill: #808080; fill-opacity: 0.3"/>
    <path d="M 454.408204 273.140557 
L 438.74614 280.18849 
L 438.32692 284.442073 
L 453.88692 277.432866 
z
" clip-path="url(#p917747a699)" style="fill: #808080; fill-opacity: 0.3"/>
    <path d="M 391.313664 305.619816 
L 375.5305 312.729551 
L 375.526967 316.771278 
L 391.206481 309.70107 
z
" clip-path="url(#p917747a699)" style="fill: #808080; fill-opacity: 0.3"/>
    <path d="M 438.74614 280.18849 
L 423.027999 287.261657 
L 422.711575 291.476212 
L 438.32692 284.442073 
z
" clip-path="url(#p917747a699)" style="fill: #808080; fill-opacity: 0.3"/>
    <path d="M 375.5305 312.729551 
L 359.690794 319.864756 
L 359.791653 323.866647 
L 375.526967 316.771278 
z
" clip-path="url(#p917747a699)" style="fill: #808080; fill-opacity: 0.3"/>
    <path d="M 423.027999 287.261657 
L 407.253478 294.360196 
L 407.040589 298.535415 
L 422.711575 291.476212 
z
" clip-path="url(#p917747a699)" style="fill: #808080; fill-opacity: 0.3"/>
    <path d="M 359.690794 319.864756 
L 343.794243 327.025568 
L 344.00024 330.987312 
L 359.791653 323.866647 
z
" clip-path="url(#p917747a699)" style="fill: #808080; fill-opacity: 0.3"/>
    <path d="M 470.645379 261.729484 
L 454.936423 268.791148 
L 454.408204 273.140557 
L 470.014489 266.117724 
z
" clip-path="url(#p917747a699)" style="fill: #808080; fill-opacity: 0.3"/>
    <path d="M 407.253478 294.360196 
L 391.422274 301.484242 
L 391.313664 305.619816 
L 407.040589 298.535415 
z
" clip-path="url(#p917747a699)" style="fill: #808080; fill-opacity: 0.3"/>
    <path d="M 343.794243 327.025568 
L 327.840539 334.212125 
L 328.152429 338.133409 
L 344.00024 330.987312 
z
" clip-path="url(#p917747a699)" style="fill: #808080; fill-opacity: 0.3"/>
    <path d="M 454.936423 268.791148 
L 439.170947 275.878219 
L 438.74614 280.18849 
L 454.408204 273.140557 
z
" clip-path="url(#p917747a699)" style="fill: #808080; fill-opacity: 0.3"/>
    <path d="M 391.422274 301.484242 
L 375.53408 308.633933 
L 375.5305 312.729551 
L 391.313664 305.619816 
z
" clip-path="url(#p917747a699)" style="fill: #808080; fill-opacity: 0.3"/>
    <path d="M 439.170947 275.878219 
L 423.348647 282.990835 
L 423.027999 287.261657 
L 438.74614 280.18849 
z
" clip-path="url(#p917747a699)" style="fill: #808080; fill-opacity: 0.3"/>
    <path d="M 375.53408 308.633933 
L 359.588588 315.809409 
L 359.690794 319.864756 
L 375.5305 312.729551 
z
" clip-path="url(#p917747a699)" style="fill: #808080; fill-opacity: 0.3"/>
    <path d="M 423.348647 282.990835 
L 407.469214 290.129134 
L 407.253478 294.360196 
L 423.027999 287.261657 
z
" clip-path="url(#p917747a699)" style="fill: #808080; fill-opacity: 0.3"/>
    <path d="M 359.588588 315.809409 
L 343.585488 323.010808 
L 343.794243 327.025568 
L 359.690794 319.864756 
z
" clip-path="url(#p917747a699)" style="fill: #808080; fill-opacity: 0.3"/>
    <path d="M 471.284702 257.282583 
L 455.471715 264.383493 
L 454.936423 268.791148 
L 470.645379 261.729484 
z
" clip-path="url(#p917747a699)" style="fill: #808080; fill-opacity: 0.3"/>
    <path d="M 407.469214 290.129134 
L 391.532338 297.293255 
L 391.422274 301.484242 
L 407.253478 294.360196 
z
" clip-path="url(#p917747a699)" style="fill: #808080; fill-opacity: 0.3"/>
    <path d="M 343.585488 323.010808 
L 327.524467 330.238272 
L 327.840539 334.212125 
L 343.794243 327.025568 
z
" clip-path="url(#p917747a699)" style="fill: #808080; fill-opacity: 0.3"/>
    <path d="M 455.471715 264.383493 
L 439.601453 271.510122 
L 439.170947 275.878219 
L 454.936423 268.791148 
z
" clip-path="url(#p917747a699)" style="fill: #808080; fill-opacity: 0.3"/>
    <path d="M 391.532338 297.293255 
L 375.537708 304.483339 
L 375.53408 308.633933 
L 391.422274 301.484242 
z
" clip-path="url(#p917747a699)" style="fill: #808080; fill-opacity: 0.3"/>
    <path d="M 439.601453 271.510122 
L 423.673605 278.662611 
L 423.348647 282.990835 
L 439.170947 275.878219 
z
" clip-path="url(#p917747a699)" style="fill: #808080; fill-opacity: 0.3"/>
    <path d="M 375.537708 304.483339 
L 359.485008 311.699526 
L 359.588588 315.809409 
L 375.53408 308.633933 
z
" clip-path="url(#p917747a699)" style="fill: #808080; fill-opacity: 0.3"/>
    <path d="M 423.673605 278.662611 
L 407.687855 285.841101 
L 407.469214 290.129134 
L 423.348647 282.990835 
z
" clip-path="url(#p917747a699)" style="fill: #808080; fill-opacity: 0.3"/>
    <path d="M 359.485008 311.699526 
L 343.373922 318.941961 
L 343.585488 323.010808 
L 359.588588 315.809409 
z
" clip-path="url(#p917747a699)" style="fill: #808080; fill-opacity: 0.3"/>
    <path d="M 471.932628 252.775837 
L 456.014225 259.916413 
L 455.471715 264.383493 
L 471.284702 257.282583 
z
" clip-path="url(#p917747a699)" style="fill: #808080; fill-opacity: 0.3"/>
    <path d="M 407.687855 285.841101 
L 391.643888 293.045734 
L 391.532338 297.293255 
L 407.469214 290.129134 
z
" clip-path="url(#p917747a699)" style="fill: #808080; fill-opacity: 0.3"/>
    <path d="M 343.373922 318.941961 
L 327.20413 326.210785 
L 327.524467 330.238272 
L 343.585488 323.010808 
z
" clip-path="url(#p917747a699)" style="fill: #808080; fill-opacity: 0.3"/>
    <path d="M 456.014225 259.916413 
L 440.037774 267.083026 
L 439.601453 271.510122 
L 455.471715 264.383493 
z
" clip-path="url(#p917747a699)" style="fill: #808080; fill-opacity: 0.3"/>
    <path d="M 391.643888 293.045734 
L 375.541385 300.276653 
L 375.537708 304.483339 
L 391.532338 297.293255 
z
" clip-path="url(#p917747a699)" style="fill: #808080; fill-opacity: 0.3"/>
    <path d="M 440.037774 267.083026 
L 424.00296 274.275821 
L 423.673605 278.662611 
L 439.601453 271.510122 
z
" clip-path="url(#p917747a699)" style="fill: #808080; fill-opacity: 0.3"/>
    <path d="M 375.541385 300.276653 
L 359.380025 307.534001 
L 359.485008 311.699526 
L 375.537708 304.483339 
z
" clip-path="url(#p917747a699)" style="fill: #808080; fill-opacity: 0.3"/>
    <path d="M 424.00296 274.275821 
L 407.90946 281.494939 
L 407.687855 285.841101 
L 423.673605 278.662611 
z
" clip-path="url(#p917747a699)" style="fill: #808080; fill-opacity: 0.3"/>
    <path d="M 359.380025 307.534001 
L 343.159485 314.817925 
L 343.373922 318.941961 
L 359.485008 311.699526 
z
" clip-path="url(#p917747a699)" style="fill: #808080; fill-opacity: 0.3"/>
    <path d="M 472.589334 248.20803 
L 456.564098 255.388698 
L 456.014225 259.916413 
L 471.932628 252.775837 
z
" clip-path="url(#p917747a699)" style="fill: #808080; fill-opacity: 0.3"/>
    <path d="M 407.90946 281.494939 
L 391.756952 288.740528 
L 391.643888 293.045734 
L 407.687855 285.841101 
z
" clip-path="url(#p917747a699)" style="fill: #808080; fill-opacity: 0.3"/>
    <path d="M 343.159485 314.817925 
L 326.87944 322.128571 
L 327.20413 326.210785 
L 343.373922 318.941961 
z
" clip-path="url(#p917747a699)" style="fill: #808080; fill-opacity: 0.3"/>
    <path d="M 456.564098 255.388698 
L 440.480029 262.595728 
L 440.037774 267.083026 
L 456.014225 259.916413 
z
" clip-path="url(#p917747a699)" style="fill: #808080; fill-opacity: 0.3"/>
    <path d="M 391.756952 288.740528 
L 375.545112 296.012731 
L 375.541385 300.276653 
L 391.643888 293.045734 
z
" clip-path="url(#p917747a699)" style="fill: #808080; fill-opacity: 0.3"/>
    <path d="M 440.480029 262.595728 
L 424.336801 269.829266 
L 424.00296 274.275821 
L 440.037774 267.083026 
z
" clip-path="url(#p917747a699)" style="fill: #808080; fill-opacity: 0.3"/>
    <path d="M 375.545112 296.012731 
L 359.273612 303.311696 
L 359.380025 307.534001 
L 375.541385 300.276653 
z
" clip-path="url(#p917747a699)" style="fill: #808080; fill-opacity: 0.3"/>
    <path d="M 424.336801 269.829266 
L 408.134089 277.089458 
L 407.90946 281.494939 
L 424.00296 274.275821 
z
" clip-path="url(#p917747a699)" style="fill: #808080; fill-opacity: 0.3"/>
    <path d="M 359.273612 303.311696 
L 342.942121 310.637572 
L 343.159485 314.817925 
L 359.380025 307.534001 
z
" clip-path="url(#p917747a699)" style="fill: #808080; fill-opacity: 0.3"/>
    <path d="M 473.254997 243.577913 
L 457.121486 250.799106 
L 456.564098 255.388698 
L 472.589334 248.20803 
z
" clip-path="url(#p917747a699)" style="fill: #808080; fill-opacity: 0.3"/>
    <path d="M 408.134089 277.089458 
L 391.871563 284.376452 
L 391.756952 288.740528 
L 407.90946 281.494939 
z
" clip-path="url(#p917747a699)" style="fill: #808080; fill-opacity: 0.3"/>
    <path d="M 342.942121 310.637572 
L 326.550307 317.990506 
L 326.87944 322.128571 
L 343.159485 314.817925 
z
" clip-path="url(#p917747a699)" style="fill: #808080; fill-opacity: 0.3"/>
    <path d="M 457.121486 250.799106 
L 440.928338 258.046991 
L 440.480029 262.595728 
L 456.564098 255.388698 
z
" clip-path="url(#p917747a699)" style="fill: #808080; fill-opacity: 0.3"/>
    <path d="M 391.871563 284.376452 
L 375.54889 291.690397 
L 375.545112 296.012731 
L 391.756952 288.740528 
z
" clip-path="url(#p917747a699)" style="fill: #808080; fill-opacity: 0.3"/>
    <path d="M 440.928338 258.046991 
L 424.675223 265.321718 
L 424.336801 269.829266 
L 440.480029 262.595728 
z
" clip-path="url(#p917747a699)" style="fill: #808080; fill-opacity: 0.3"/>
    <path d="M 375.54889 291.690397 
L 359.165738 299.031442 
L 359.273612 303.311696 
L 375.545112 296.012731 
z
" clip-path="url(#p917747a699)" style="fill: #808080; fill-opacity: 0.3"/>
    <path d="M 424.675223 265.321718 
L 408.361806 272.623435 
L 408.134089 277.089458 
L 424.336801 269.829266 
z
" clip-path="url(#p917747a699)" style="fill: #808080; fill-opacity: 0.3"/>
    <path d="M 359.165738 299.031442 
L 342.721767 306.399738 
L 342.942121 310.637572 
L 359.273612 303.311696 
z
" clip-path="url(#p917747a699)" style="fill: #808080; fill-opacity: 0.3"/>
    <path d="M 408.361806 272.623435 
L 391.987751 279.952292 
L 391.871563 284.376452 
L 408.134089 277.089458 
z
" clip-path="url(#p917747a699)" style="fill: #808080; fill-opacity: 0.3"/>
    <path d="M 342.721767 306.399738 
L 326.216641 313.795438 
L 326.550307 317.990506 
L 342.942121 310.637572 
z
" clip-path="url(#p917747a699)" style="fill: #808080; fill-opacity: 0.3"/>
    <path d="M 391.987751 279.952292 
L 375.552721 287.308442 
L 375.54889 291.690397 
L 391.871563 284.376452 
z
" clip-path="url(#p917747a699)" style="fill: #808080; fill-opacity: 0.3"/>
    <path d="M 375.552721 287.308442 
L 359.056373 294.692037 
L 359.165738 299.031442 
L 375.54889 291.690397 
z
" clip-path="url(#p917747a699)" style="fill: #808080; fill-opacity: 0.3"/>
    <path d="M 359.056373 294.692037 
L 342.498363 302.103231 
L 342.721767 306.399738 
L 359.165738 299.031442 
z
" clip-path="url(#p917747a699)" style="fill: #808080; fill-opacity: 0.3"/>
    <path d="M 342.498363 302.103231 
L 325.878346 309.542179 
L 326.216641 313.795438 
L 342.721767 306.399738 
z
" clip-path="url(#p917747a699)" style="fill: #808080; fill-opacity: 0.3"/>
   </g>
   <g id="Path3DCollection_1">
    <path d="M 337.764063 289.132573 
L 343.241289 278.178122 
L 332.286838 278.178122 
z
" clip-path="url(#p917747a699)" style="fill: #4f00ff; fill-opacity: 0.3; stroke: #4f00ff; stroke-opacity: 0.3"/>
    <path d="M 359.554645 274.282327 
L 365.031871 263.327876 
L 354.07742 263.327876 
z
" clip-path="url(#p917747a699)" style="fill: #ad00ff; fill-opacity: 0.304986; stroke: #ad00ff; stroke-opacity: 0.304986"/>
    <path d="M 317.477965 310.580266 
L 322.95519 299.625815 
L 312.000739 299.625815 
z
" clip-path="url(#p917747a699)" style="fill: #0016ff; fill-opacity: 0.342274; stroke: #0016ff; stroke-opacity: 0.342274"/>
    <path d="M 396.224064 257.36298 
L 401.701289 246.408528 
L 390.746838 246.408528 
z
" clip-path="url(#p917747a699)" style="fill: #ff00e1; fill-opacity: 0.363792; stroke: #ff00e1; stroke-opacity: 0.363792"/>
    <path d="M 437.212141 230.753276 
L 442.689366 219.798825 
L 431.734915 219.798825 
z
" clip-path="url(#p917747a699)" style="fill: #ff0076; fill-opacity: 0.396089; stroke: #ff0076; stroke-opacity: 0.396089"/>
    <path d="M 314.600023 325.059225 
L 320.077248 314.104774 
L 309.122797 314.104774 
z
" clip-path="url(#p917747a699)" style="fill: #007aff; fill-opacity: 0.414705; stroke: #007aff; stroke-opacity: 0.414705"/>
    <path d="M 450.465781 184.505373 
L 455.943006 173.550922 
L 444.988555 173.550922 
z
" clip-path="url(#p917747a699)" style="fill: #ff0018; fill-opacity: 0.483166; stroke: #ff0018; stroke-opacity: 0.483166"/>
    <path d="M 491.788729 222.211845 
L 497.265955 211.257394 
L 486.311504 211.257394 
z
" clip-path="url(#p917747a699)" style="fill: #ff0000; fill-opacity: 0.551647; stroke: #ff0000; stroke-opacity: 0.551647"/>
    <path d="M 505.851519 287.216893 
L 511.328744 276.262442 
L 500.374293 276.262442 
z
" clip-path="url(#p917747a699)" style="fill: #ff5300; fill-opacity: 0.602761; stroke: #ff5300; stroke-opacity: 0.602761"/>
    <path d="M 245.678183 322.0621 
L 251.155408 311.107648 
L 240.200957 311.107648 
z
" clip-path="url(#p917747a699)" style="fill: #00ffbb; fill-opacity: 0.605572; stroke: #00ffbb; stroke-opacity: 0.605572"/>
    <path d="M 481.099546 347.201378 
L 486.576772 336.246927 
L 475.622321 336.246927 
z
" clip-path="url(#p917747a699)" style="fill: #ffbd00; fill-opacity: 0.660269; stroke: #ffbd00; stroke-opacity: 0.660269"/>
    <path d="M 242.667344 331.972786 
L 248.14457 321.018334 
L 237.190118 321.018334 
z
" clip-path="url(#p917747a699)" style="fill: #00e5ff; fill-opacity: 0.670602; stroke: #00e5ff; stroke-opacity: 0.670602"/>
    <path d="M 281.817982 350.415883 
L 287.295207 339.461432 
L 276.340756 339.461432 
z
" clip-path="url(#p917747a699)" style="fill: #00ff57; fill-opacity: 0.717978; stroke: #00ff57; stroke-opacity: 0.717978"/>
    <path d="M 291.097742 360.521052 
L 296.574968 349.566601 
L 285.620516 349.566601 
z
" clip-path="url(#p917747a699)" style="fill: #0eff00; fill-opacity: 0.768989; stroke: #0eff00; stroke-opacity: 0.768989"/>
    <path d="M 369.482472 416.013944 
L 374.959697 405.059493 
L 364.005246 405.059493 
z
" clip-path="url(#p917747a699)" style="fill: #78ff00; fill-opacity: 0.99705; stroke: #78ff00; stroke-opacity: 0.99705"/>
    <path d="M 399.853915 385.290521 
L 405.331141 374.33607 
L 394.37669 374.33607 
z
" clip-path="url(#p917747a699)" style="fill: #ddff00; stroke: #ddff00"/>
   </g>
   <g id="legend_1">
    <g id="patch_6">
     <path d="M 343.470937 136.36125 
L 578.16 136.36125 
Q 581.76 136.36125 581.76 132.76125 
L 581.76 81.72 
Q 581.76 78.12 578.16 78.12 
L 343.470937 78.12 
Q 339.870937 78.12 339.870937 81.72 
L 339.870937 132.76125 
Q 339.870937 136.36125 343.470937 136.36125 
z
" style="fill: #ffffff; opacity: 0.8; stroke: #cccccc; stroke-linejoin: miter"/>
    </g>
    <g id="Path3DCollection_2">
     <path d="M 365.070937 99.749413 
C 366.523515 99.749413 367.916794 99.172298 368.943921 98.145171 
C 369.971048 97.118044 370.548163 95.724765 370.548163 94.272188 
C 370.548163 92.81961 369.971048 91.426331 368.943921 90.399204 
C 367.916794 89.372077 366.523515 88.794962 365.070937 88.794962 
C 363.61836 88.794962 362.225081 89.372077 361.197954 90.399204 
C 360.170827 91.426331 359.593712 92.81961 359.593712 94.272188 
C 359.593712 95.724765 360.170827 97.118044 361.197954 98.145171 
C 362.225081 99.172298 363.61836 99.749413 365.070937 99.749413 
z
" style="fill: #ff0000; stroke: #ff0000"/>
    </g>
    <g id="text_17">
     <!-- Selected stimulus 1 -->
     <g transform="translate(397.470937 98.997188) scale(0.18 -0.18)">
      <defs>
       <path id="DejaVuSans-53" d="M 3425 4513 
L 3425 3897 
Q 3066 4069 2747 4153 
Q 2428 4238 2131 4238 
Q 1616 4238 1336 4038 
Q 1056 3838 1056 3469 
Q 1056 3159 1242 3001 
Q 1428 2844 1947 2747 
L 2328 2669 
Q 3034 2534 3370 2195 
Q 3706 1856 3706 1288 
Q 3706 609 3251 259 
Q 2797 -91 1919 -91 
Q 1588 -91 1214 -16 
Q 841 59 441 206 
L 441 856 
Q 825 641 1194 531 
Q 1563 422 1919 422 
Q 2459 422 2753 634 
Q 3047 847 3047 1241 
Q 3047 1584 2836 1778 
Q 2625 1972 2144 2069 
L 1759 2144 
Q 1053 2284 737 2584 
Q 422 2884 422 3419 
Q 422 4038 858 4394 
Q 1294 4750 2059 4750 
Q 2388 4750 2728 4690 
Q 3069 4631 3425 4513 
z
" transform="scale(0.015625)"/>
       <path id="DejaVuSans-65" d="M 3597 1894 
L 3597 1613 
L 953 1613 
Q 991 1019 1311 708 
Q 1631 397 2203 397 
Q 2534 397 2845 478 
Q 3156 559 3463 722 
L 3463 178 
Q 3153 47 2828 -22 
Q 2503 -91 2169 -91 
Q 1331 -91 842 396 
Q 353 884 353 1716 
Q 353 2575 817 3079 
Q 1281 3584 2069 3584 
Q 2775 3584 3186 3129 
Q 3597 2675 3597 1894 
z
M 3022 2063 
Q 3016 2534 2758 2815 
Q 2500 3097 2075 3097 
Q 1594 3097 1305 2825 
Q 1016 2553 972 2059 
L 3022 2063 
z
" transform="scale(0.015625)"/>
       <path id="DejaVuSans-6c" d="M 603 4863 
L 1178 4863 
L 1178 0 
L 603 0 
L 603 4863 
z
" transform="scale(0.015625)"/>
       <path id="DejaVuSans-63" d="M 3122 3366 
L 3122 2828 
Q 2878 2963 2633 3030 
Q 2388 3097 2138 3097 
Q 1578 3097 1268 2742 
Q 959 2388 959 1747 
Q 959 1106 1268 751 
Q 1578 397 2138 397 
Q 2388 397 2633 464 
Q 2878 531 3122 666 
L 3122 134 
Q 2881 22 2623 -34 
Q 2366 -91 2075 -91 
Q 1284 -91 818 406 
Q 353 903 353 1747 
Q 353 2603 823 3093 
Q 1294 3584 2113 3584 
Q 2378 3584 2631 3529 
Q 2884 3475 3122 3366 
z
" transform="scale(0.015625)"/>
       <path id="DejaVuSans-74" d="M 1172 4494 
L 1172 3500 
L 2356 3500 
L 2356 3053 
L 1172 3053 
L 1172 1153 
Q 1172 725 1289 603 
Q 1406 481 1766 481 
L 2356 481 
L 2356 0 
L 1766 0 
Q 1100 0 847 248 
Q 594 497 594 1153 
L 594 3053 
L 172 3053 
L 172 3500 
L 594 3500 
L 594 4494 
L 1172 4494 
z
" transform="scale(0.015625)"/>
       <path id="DejaVuSans-64" d="M 2906 2969 
L 2906 4863 
L 3481 4863 
L 3481 0 
L 2906 0 
L 2906 525 
Q 2725 213 2448 61 
Q 2172 -91 1784 -91 
Q 1150 -91 751 415 
Q 353 922 353 1747 
Q 353 2572 751 3078 
Q 1150 3584 1784 3584 
Q 2172 3584 2448 3432 
Q 2725 3281 2906 2969 
z
M 947 1747 
Q 947 1113 1208 752 
Q 1469 391 1925 391 
Q 2381 391 2643 752 
Q 2906 1113 2906 1747 
Q 2906 2381 2643 2742 
Q 2381 3103 1925 3103 
Q 1469 3103 1208 2742 
Q 947 2381 947 1747 
z
" transform="scale(0.015625)"/>
       <path id="DejaVuSans-73" d="M 2834 3397 
L 2834 2853 
Q 2591 2978 2328 3040 
Q 2066 3103 1784 3103 
Q 1356 3103 1142 2972 
Q 928 2841 928 2578 
Q 928 2378 1081 2264 
Q 1234 2150 1697 2047 
L 1894 2003 
Q 2506 1872 2764 1633 
Q 3022 1394 3022 966 
Q 3022 478 2636 193 
Q 2250 -91 1575 -91 
Q 1294 -91 989 -36 
Q 684 19 347 128 
L 347 722 
Q 666 556 975 473 
Q 1284 391 1588 391 
Q 1994 391 2212 530 
Q 2431 669 2431 922 
Q 2431 1156 2273 1281 
Q 2116 1406 1581 1522 
L 1381 1569 
Q 847 1681 609 1914 
Q 372 2147 372 2553 
Q 372 3047 722 3315 
Q 1072 3584 1716 3584 
Q 2034 3584 2315 3537 
Q 2597 3491 2834 3397 
z
" transform="scale(0.015625)"/>
       <path id="DejaVuSans-69" d="M 603 3500 
L 1178 3500 
L 1178 0 
L 603 0 
L 603 3500 
z
M 603 4863 
L 1178 4863 
L 1178 4134 
L 603 4134 
L 603 4863 
z
" transform="scale(0.015625)"/>
       <path id="DejaVuSans-6d" d="M 3328 2828 
Q 3544 3216 3844 3400 
Q 4144 3584 4550 3584 
Q 5097 3584 5394 3201 
Q 5691 2819 5691 2113 
L 5691 0 
L 5113 0 
L 5113 2094 
Q 5113 2597 4934 2840 
Q 4756 3084 4391 3084 
Q 3944 3084 3684 2787 
Q 3425 2491 3425 1978 
L 3425 0 
L 2847 0 
L 2847 2094 
Q 2847 2600 2669 2842 
Q 2491 3084 2119 3084 
Q 1678 3084 1418 2786 
Q 1159 2488 1159 1978 
L 1159 0 
L 581 0 
L 581 3500 
L 1159 3500 
L 1159 2956 
Q 1356 3278 1631 3431 
Q 1906 3584 2284 3584 
Q 2666 3584 2933 3390 
Q 3200 3197 3328 2828 
z
" transform="scale(0.015625)"/>
       <path id="DejaVuSans-75" d="M 544 1381 
L 544 3500 
L 1119 3500 
L 1119 1403 
Q 1119 906 1312 657 
Q 1506 409 1894 409 
Q 2359 409 2629 706 
Q 2900 1003 2900 1516 
L 2900 3500 
L 3475 3500 
L 3475 0 
L 2900 0 
L 2900 538 
Q 2691 219 2414 64 
Q 2138 -91 1772 -91 
Q 1169 -91 856 284 
Q 544 659 544 1381 
z
M 1991 3584 
L 1991 3584 
z
" transform="scale(0.015625)"/>
      </defs>
      <use xlink:href="#DejaVuSans-53"/>
      <use xlink:href="#DejaVuSans-65" x="63.476562"/>
      <use xlink:href="#DejaVuSans-6c" x="125"/>
      <use xlink:href="#DejaVuSans-65" x="152.783203"/>
      <use xlink:href="#DejaVuSans-63" x="214.306641"/>
      <use xlink:href="#DejaVuSans-74" x="269.287109"/>
      <use xlink:href="#DejaVuSans-65" x="308.496094"/>
      <use xlink:href="#DejaVuSans-64" x="370.019531"/>
      <use xlink:href="#DejaVuSans-20" x="433.496094"/>
      <use xlink:href="#DejaVuSans-73" x="465.283203"/>
      <use xlink:href="#DejaVuSans-74" x="517.382812"/>
      <use xlink:href="#DejaVuSans-69" x="556.591797"/>
      <use xlink:href="#DejaVuSans-6d" x="584.375"/>
      <use xlink:href="#DejaVuSans-75" x="681.787109"/>
      <use xlink:href="#DejaVuSans-6c" x="745.166016"/>
      <use xlink:href="#DejaVuSans-75" x="772.949219"/>
      <use xlink:href="#DejaVuSans-73" x="836.328125"/>
      <use xlink:href="#DejaVuSans-20" x="888.427734"/>
      <use xlink:href="#DejaVuSans-31" x="920.214844"/>
     </g>
    </g>
    <g id="Path3DCollection_3">
     <path d="M 365.070937 126.170038 
L 370.548163 115.215587 
L 359.593712 115.215587 
z
" style="fill: #ff0000; stroke: #ff0000"/>
    </g>
    <g id="text_18">
     <!-- Selected stimulus 2 -->
     <g transform="translate(397.470937 125.417813) scale(0.18 -0.18)">
      <use xlink:href="#DejaVuSans-53"/>
      <use xlink:href="#DejaVuSans-65" x="63.476562"/>
      <use xlink:href="#DejaVuSans-6c" x="125"/>
      <use xlink:href="#DejaVuSans-65" x="152.783203"/>
      <use xlink:href="#DejaVuSans-63" x="214.306641"/>
      <use xlink:href="#DejaVuSans-74" x="269.287109"/>
      <use xlink:href="#DejaVuSans-65" x="308.496094"/>
      <use xlink:href="#DejaVuSans-64" x="370.019531"/>
      <use xlink:href="#DejaVuSans-20" x="433.496094"/>
      <use xlink:href="#DejaVuSans-73" x="465.283203"/>
      <use xlink:href="#DejaVuSans-74" x="517.382812"/>
      <use xlink:href="#DejaVuSans-69" x="556.591797"/>
      <use xlink:href="#DejaVuSans-6d" x="584.375"/>
      <use xlink:href="#DejaVuSans-75" x="681.787109"/>
      <use xlink:href="#DejaVuSans-6c" x="745.166016"/>
      <use xlink:href="#DejaVuSans-75" x="772.949219"/>
      <use xlink:href="#DejaVuSans-73" x="836.328125"/>
      <use xlink:href="#DejaVuSans-20" x="888.427734"/>
      <use xlink:href="#DejaVuSans-32" x="920.214844"/>
     </g>
    </g>
   </g>
   <g id="Path3DCollection_4">
    <defs>
     <path id="C0_0_7adeca86cd" d="M 0 5.477226 
C 1.452577 5.477226 2.845856 4.900111 3.872983 3.872983 
C 4.900111 2.845856 5.477226 1.452577 5.477226 -0 
C 5.477226 -1.452577 4.900111 -2.845856 3.872983 -3.872983 
C 2.845856 -4.900111 1.452577 -5.477226 0 -5.477226 
C -1.452577 -5.477226 -2.845856 -4.900111 -3.872983 -3.872983 
C -4.900111 -2.845856 -5.477226 -1.452577 -5.477226 0 
C -5.477226 1.452577 -4.900111 2.845856 -3.872983 3.872983 
C -2.845856 4.900111 -1.452577 5.477226 0 5.477226 
z
"/>
    </defs>
    <g clip-path="url(#p917747a699)">
     <use xlink:href="#C0_0_7adeca86cd" x="400.715467" y="313.73334" style="fill: #bf00ff; fill-opacity: 0.3; stroke: #bf00ff; stroke-opacity: 0.3"/>
    </g>
    <g clip-path="url(#p917747a699)">
     <use xlink:href="#C0_0_7adeca86cd" x="405.190939" y="302.923643" style="fill: #4900ff; fill-opacity: 0.30388; stroke: #4900ff; stroke-opacity: 0.30388"/>
    </g>
    <g clip-path="url(#p917747a699)">
     <use xlink:href="#C0_0_7adeca86cd" x="424.403975" y="316.650309" style="fill: #ff00e1; fill-opacity: 0.322574; stroke: #ff00e1; stroke-opacity: 0.322574"/>
    </g>
    <g clip-path="url(#p917747a699)">
     <use xlink:href="#C0_0_7adeca86cd" x="407.109978" y="302.298839" style="fill: #0016ff; fill-opacity: 0.361917; stroke: #0016ff; stroke-opacity: 0.361917"/>
    </g>
    <g clip-path="url(#p917747a699)">
     <use xlink:href="#C0_0_7adeca86cd" x="420.781406" y="322.479653" style="fill: #ff007c; fill-opacity: 0.36555; stroke: #ff007c; stroke-opacity: 0.36555"/>
    </g>
    <g clip-path="url(#p917747a699)">
     <use xlink:href="#C0_0_7adeca86cd" x="415.673056" y="326.128086" style="fill: #ff0018; fill-opacity: 0.409549; stroke: #ff0018; stroke-opacity: 0.409549"/>
    </g>
    <g clip-path="url(#p917747a699)">
     <use xlink:href="#C0_0_7adeca86cd" x="423.420742" y="298.267165" style="fill: #ff0000; fill-opacity: 0.455428; stroke: #ff0000; stroke-opacity: 0.455428"/>
    </g>
    <g clip-path="url(#p917747a699)">
     <use xlink:href="#C0_0_7adeca86cd" x="375.037175" y="316.877405" style="fill: #007aff; fill-opacity: 0.507521; stroke: #007aff; stroke-opacity: 0.507521"/>
    </g>
    <g clip-path="url(#p917747a699)">
     <use xlink:href="#C0_0_7adeca86cd" x="374.255796" y="312.487687" style="fill: #00d9ff; fill-opacity: 0.534415; stroke: #00d9ff; stroke-opacity: 0.534415"/>
    </g>
    <g clip-path="url(#p917747a699)">
     <use xlink:href="#C0_0_7adeca86cd" x="429.836955" y="308.384839" style="fill: #ff5300; fill-opacity: 0.54877; stroke: #ff5300; stroke-opacity: 0.54877"/>
    </g>
    <g clip-path="url(#p917747a699)">
     <use xlink:href="#C0_0_7adeca86cd" x="375.912901" y="270.272308" style="fill: #00ffbb; fill-opacity: 0.63454; stroke: #00ffbb; stroke-opacity: 0.63454"/>
    </g>
    <g clip-path="url(#p917747a699)">
     <use xlink:href="#C0_0_7adeca86cd" x="328.703523" y="315.437809" style="fill: #ffbd00; fill-opacity: 0.64209; stroke: #ffbd00; stroke-opacity: 0.64209"/>
    </g>
    <g clip-path="url(#p917747a699)">
     <use xlink:href="#C0_0_7adeca86cd" x="384.547294" y="243.367594" style="fill: #00ff57; fill-opacity: 0.658195; stroke: #00ff57; stroke-opacity: 0.658195"/>
    </g>
    <g clip-path="url(#p917747a699)">
     <use xlink:href="#C0_0_7adeca86cd" x="399.921074" y="238.821706" style="fill: #08ff00; fill-opacity: 0.748104; stroke: #08ff00; stroke-opacity: 0.748104"/>
    </g>
    <g clip-path="url(#p917747a699)">
     <use xlink:href="#C0_0_7adeca86cd" x="400.828107" y="274.339145" style="fill: #e2ff00; fill-opacity: 0.89733; stroke: #e2ff00; stroke-opacity: 0.89733"/>
    </g>
    <g clip-path="url(#p917747a699)">
     <use xlink:href="#C0_0_7adeca86cd" x="421.142568" y="258.314641" style="fill: #72ff00; stroke: #72ff00"/>
    </g>
   </g>
  </g>
 </g>
 <defs>
  <clipPath id="p917747a699">
   <rect x="147.24" y="69.12" width="443.52" height="443.52"/>
  </clipPath>
 </defs>
</svg>
