<?xml version="1.0" encoding="utf-8" standalone="no"?>
<!DOCTYPE svg PUBLIC "-//W3C//DTD SVG 1.1//EN"
  "http://www.w3.org/Graphics/SVG/1.1/DTD/svg11.dtd">
<svg xmlns:xlink="http://www.w3.org/1999/xlink" width="720pt" height="576pt" viewBox="0 0 720 576" xmlns="http://www.w3.org/2000/svg" version="1.1">
 <metadata>
  <rdf:RDF xmlns:dc="http://purl.org/dc/elements/1.1/" xmlns:cc="http://creativecommons.org/ns#" xmlns:rdf="http://www.w3.org/1999/02/22-rdf-syntax-ns#">
   <cc:Work>
    <dc:type rdf:resource="http://purl.org/dc/dcmitype/StillImage"/>
    <dc:date>2025-10-15T14:30:52.644580</dc:date>
    <dc:format>image/svg+xml</dc:format>
    <dc:creator>
     <cc:Agent>
      <dc:title>Matplotlib v3.9.2, https://matplotlib.org/</dc:title>
     </cc:Agent>
    </dc:creator>
   </cc:Work>
  </rdf:RDF>
 </metadata>
 <defs>
  <style type="text/css">*{stroke-linejoin: round; stroke-linecap: butt}</style>
 </defs>
 <g id="figure_1">
  <g id="patch_1">
   <path d="M 0 576 
L 720 576 
L 720 0 
L 0 0 
L 0 576 
z
" style="fill: none"/>
  </g>
  <g id="patch_2">
   <path d="M 147.24 512.64 
L 590.76 512.64 
L 590.76 69.12 
L 147.24 69.12 
L 147.24 512.64 
z
" style="fill: none"/>
  </g>
  <g id="pane3d_1">
   <g id="patch_3">
    <path d="M 241.776258 333.210956 
L 508.210769 333.210956 
L 512.119926 141.343983 
L 237.867101 141.343983 
" style="fill: none; opacity: 0.5; stroke: #f2f2f2; stroke-linejoin: miter"/>
   </g>
  </g>
  <g id="pane3d_2">
   <g id="patch_4">
    <path d="M 241.776258 333.210956 
L 226.241772 440.598264 
L 221.351029 229.152779 
L 237.867101 141.343983 
" style="fill: none; opacity: 0.5; stroke: #e6e6e6; stroke-linejoin: miter"/>
   </g>
  </g>
  <g id="pane3d_3">
   <g id="patch_5">
    <path d="M 241.776258 333.210956 
L 226.241772 440.598264 
L 523.745255 440.598264 
L 508.210769 333.210956 
" style="fill: none; opacity: 0.5; stroke: #ececec; stroke-linejoin: miter"/>
   </g>
  </g>
  <g id="grid3d_1">
   <g id="Line3DCollection_1">
    <path d="M 511.481017 355.817632 
L 238.50601 355.817632 
L 234.399614 159.779109 
" style="fill: none; stroke: #b0b0b0; stroke-width: 0.8"/>
    <path d="M 515.000845 380.149614 
L 234.986182 380.149614 
L 230.661903 179.650896 
" style="fill: none; stroke: #b0b0b0; stroke-width: 0.8"/>
    <path d="M 518.707021 405.769795 
L 231.280006 405.769795 
L 226.72003 200.608129 
" style="fill: none; stroke: #b0b0b0; stroke-width: 0.8"/>
    <path d="M 522.614748 432.783257 
L 227.372279 432.783257 
L 222.556796 222.74224 
" style="fill: none; stroke: #b0b0b0; stroke-width: 0.8"/>
   </g>
  </g>
  <g id="grid3d_2">
   <g id="Line3DCollection_2">
    <path d="M 242.126902 141.343983 
L 245.914622 333.210956 
L 230.862712 440.598264 
" style="fill: none; stroke: #b0b0b0; stroke-width: 0.8"/>
    <path d="M 306.566752 141.343983 
L 308.51744 333.210956 
L 300.765655 440.598264 
" style="fill: none; stroke: #b0b0b0; stroke-width: 0.8"/>
    <path d="M 371.006601 141.343983 
L 371.120259 333.210956 
L 370.668598 440.598264 
" style="fill: none; stroke: #b0b0b0; stroke-width: 0.8"/>
    <path d="M 435.446451 141.343983 
L 433.723078 333.210956 
L 440.571542 440.598264 
" style="fill: none; stroke: #b0b0b0; stroke-width: 0.8"/>
    <path d="M 499.8863 141.343983 
L 496.325896 333.210956 
L 510.474485 440.598264 
" style="fill: none; stroke: #b0b0b0; stroke-width: 0.8"/>
   </g>
  </g>
  <g id="grid3d_3">
   <g id="Line3DCollection_3">
    <path d="M 226.132192 435.860699 
L 241.688377 328.897631 
L 508.29865 328.897631 
" style="fill: none; stroke: #b0b0b0; stroke-width: 0.8"/>
    <path d="M 225.009575 387.325695 
L 240.788839 284.747035 
L 509.198188 284.747035 
" style="fill: none; stroke: #b0b0b0; stroke-width: 0.8"/>
    <path d="M 223.869898 338.053089 
L 239.877078 239.996539 
L 510.109949 239.996539 
" style="fill: none; stroke: #b0b0b0; stroke-width: 0.8"/>
    <path d="M 222.712768 288.025938 
L 238.952845 194.633831 
L 511.034182 194.633831 
" style="fill: none; stroke: #b0b0b0; stroke-width: 0.8"/>
    <path d="M 221.537781 237.226775 
L 238.01588 148.646262 
L 511.971147 148.646262 
" style="fill: none; stroke: #b0b0b0; stroke-width: 0.8"/>
   </g>
  </g>
  <g id="axis3d_1">
   <g id="line2d_1">
    <path d="M 508.210769 333.210956 
L 523.745255 440.598264 
" style="fill: none; stroke: #000000; stroke-width: 0.8; stroke-linecap: square"/>
   </g>
   <g id="xtick_1">
    <g id="line2d_2">
     <path d="M 509.297217 355.817632 
L 515.848617 355.817632 
" style="fill: none; stroke: #000000; stroke-width: 0.8; stroke-linecap: square"/>
    </g>
    <g id="text_1">
     <!-- −40 -->
     <g transform="translate(512.189966 374.396444) scale(0.12 -0.12)">
      <defs>
       <path id="DejaVuSans-2212" d="M 678 2272 
L 4684 2272 
L 4684 1741 
L 678 1741 
L 678 2272 
z
" transform="scale(0.015625)"/>
       <path id="DejaVuSans-34" d="M 2419 4116 
L 825 1625 
L 2419 1625 
L 2419 4116 
z
M 2253 4666 
L 3047 4666 
L 3047 1625 
L 3713 1625 
L 3713 1100 
L 3047 1100 
L 3047 0 
L 2419 0 
L 2419 1100 
L 313 1100 
L 313 1709 
L 2253 4666 
z
" transform="scale(0.015625)"/>
       <path id="DejaVuSans-30" d="M 2034 4250 
Q 1547 4250 1301 3770 
Q 1056 3291 1056 2328 
Q 1056 1369 1301 889 
Q 1547 409 2034 409 
Q 2525 409 2770 889 
Q 3016 1369 3016 2328 
Q 3016 3291 2770 3770 
Q 2525 4250 2034 4250 
z
M 2034 4750 
Q 2819 4750 3233 4129 
Q 3647 3509 3647 2328 
Q 3647 1150 3233 529 
Q 2819 -91 2034 -91 
Q 1250 -91 836 529 
Q 422 1150 422 2328 
Q 422 3509 836 4129 
Q 1250 4750 2034 4750 
z
" transform="scale(0.015625)"/>
      </defs>
      <use xlink:href="#DejaVuSans-2212"/>
      <use xlink:href="#DejaVuSans-34" x="83.789062"/>
      <use xlink:href="#DejaVuSans-30" x="147.412109"/>
     </g>
    </g>
   </g>
   <g id="xtick_2">
    <g id="line2d_3">
     <path d="M 512.760727 380.149614 
L 519.481079 380.149614 
" style="fill: none; stroke: #000000; stroke-width: 0.8; stroke-linecap: square"/>
    </g>
    <g id="text_2">
     <!-- 0 -->
     <g transform="translate(524.89419 398.935803) scale(0.12 -0.12)">
      <use xlink:href="#DejaVuSans-30"/>
     </g>
    </g>
   </g>
   <g id="xtick_3">
    <g id="line2d_4">
     <path d="M 516.407605 405.769795 
L 523.305854 405.769795 
" style="fill: none; stroke: #000000; stroke-width: 0.8; stroke-linecap: square"/>
    </g>
    <g id="text_3">
     <!-- 40 -->
     <g transform="translate(525.13959 424.772353) scale(0.12 -0.12)">
      <use xlink:href="#DejaVuSans-34"/>
      <use xlink:href="#DejaVuSans-30" x="63.623047"/>
     </g>
    </g>
   </g>
   <g id="xtick_4">
    <g id="line2d_5">
     <path d="M 520.252808 432.783257 
L 527.338627 432.783257 
" style="fill: none; stroke: #000000; stroke-width: 0.8; stroke-linecap: square"/>
    </g>
    <g id="text_4">
     <!-- 80 -->
     <g transform="translate(529.423093 452.011745) scale(0.12 -0.12)">
      <defs>
       <path id="DejaVuSans-38" d="M 2034 2216 
Q 1584 2216 1326 1975 
Q 1069 1734 1069 1313 
Q 1069 891 1326 650 
Q 1584 409 2034 409 
Q 2484 409 2743 651 
Q 3003 894 3003 1313 
Q 3003 1734 2745 1975 
Q 2488 2216 2034 2216 
z
M 1403 2484 
Q 997 2584 770 2862 
Q 544 3141 544 3541 
Q 544 4100 942 4425 
Q 1341 4750 2034 4750 
Q 2731 4750 3128 4425 
Q 3525 4100 3525 3541 
Q 3525 3141 3298 2862 
Q 3072 2584 2669 2484 
Q 3125 2378 3379 2068 
Q 3634 1759 3634 1313 
Q 3634 634 3220 271 
Q 2806 -91 2034 -91 
Q 1263 -91 848 271 
Q 434 634 434 1313 
Q 434 1759 690 2068 
Q 947 2378 1403 2484 
z
M 1172 3481 
Q 1172 3119 1398 2916 
Q 1625 2713 2034 2713 
Q 2441 2713 2670 2916 
Q 2900 3119 2900 3481 
Q 2900 3844 2670 4047 
Q 2441 4250 2034 4250 
Q 1625 4250 1398 4047 
Q 1172 3844 1172 3481 
z
" transform="scale(0.015625)"/>
      </defs>
      <use xlink:href="#DejaVuSans-38"/>
      <use xlink:href="#DejaVuSans-30" x="63.623047"/>
     </g>
    </g>
   </g>
   <g id="text_5">
    <!-- PC 1 -->
    <g transform="translate(532.260686 414.995741) scale(0.18 -0.18)">
     <defs>
      <path id="DejaVuSans-50" d="M 1259 4147 
L 1259 2394 
L 2053 2394 
Q 2494 2394 2734 2622 
Q 2975 2850 2975 3272 
Q 2975 3691 2734 3919 
Q 2494 4147 2053 4147 
L 1259 4147 
z
M 628 4666 
L 2053 4666 
Q 2838 4666 3239 4311 
Q 3641 3956 3641 3272 
Q 3641 2581 3239 2228 
Q 2838 1875 2053 1875 
L 1259 1875 
L 1259 0 
L 628 0 
L 628 4666 
z
" transform="scale(0.015625)"/>
      <path id="DejaVuSans-43" d="M 4122 4306 
L 4122 3641 
Q 3803 3938 3442 4084 
Q 3081 4231 2675 4231 
Q 1875 4231 1450 3742 
Q 1025 3253 1025 2328 
Q 1025 1406 1450 917 
Q 1875 428 2675 428 
Q 3081 428 3442 575 
Q 3803 722 4122 1019 
L 4122 359 
Q 3791 134 3420 21 
Q 3050 -91 2638 -91 
Q 1578 -91 968 557 
Q 359 1206 359 2328 
Q 359 3453 968 4101 
Q 1578 4750 2638 4750 
Q 3056 4750 3426 4639 
Q 3797 4528 4122 4306 
z
" transform="scale(0.015625)"/>
      <path id="DejaVuSans-20" transform="scale(0.015625)"/>
      <path id="DejaVuSans-31" d="M 794 531 
L 1825 531 
L 1825 4091 
L 703 3866 
L 703 4441 
L 1819 4666 
L 2450 4666 
L 2450 531 
L 3481 531 
L 3481 0 
L 794 0 
L 794 531 
z
" transform="scale(0.015625)"/>
     </defs>
     <use xlink:href="#DejaVuSans-50"/>
     <use xlink:href="#DejaVuSans-43" x="60.302734"/>
     <use xlink:href="#DejaVuSans-20" x="130.126953"/>
     <use xlink:href="#DejaVuSans-31" x="161.914062"/>
    </g>
   </g>
  </g>
  <g id="axis3d_2">
   <g id="line2d_6">
    <path d="M 226.241772 440.598264 
L 523.745255 440.598264 
" style="fill: none; stroke: #000000; stroke-width: 0.8; stroke-linecap: square"/>
   </g>
   <g id="xtick_5">
    <g id="line2d_7">
     <path d="M 230.997043 439.63988 
L 230.593295 442.520406 
" style="fill: none; stroke: #000000; stroke-width: 0.8; stroke-linecap: square"/>
    </g>
    <g id="text_6">
     <!-- −80 -->
     <g transform="translate(217.589008 465.945847) scale(0.12 -0.12)">
      <use xlink:href="#DejaVuSans-2212"/>
      <use xlink:href="#DejaVuSans-38" x="83.789062"/>
      <use xlink:href="#DejaVuSans-30" x="147.412109"/>
     </g>
    </g>
   </g>
   <g id="xtick_6">
    <g id="line2d_8">
     <path d="M 300.834836 439.63988 
L 300.626905 442.520406 
" style="fill: none; stroke: #000000; stroke-width: 0.8; stroke-linecap: square"/>
    </g>
    <g id="text_7">
     <!-- −40 -->
     <g transform="translate(287.788232 465.945847) scale(0.12 -0.12)">
      <use xlink:href="#DejaVuSans-2212"/>
      <use xlink:href="#DejaVuSans-34" x="83.789062"/>
      <use xlink:href="#DejaVuSans-30" x="147.412109"/>
     </g>
    </g>
   </g>
   <g id="xtick_7">
    <g id="line2d_9">
     <path d="M 370.672629 439.63988 
L 370.660514 442.520406 
" style="fill: none; stroke: #000000; stroke-width: 0.8; stroke-linecap: square"/>
    </g>
    <g id="text_8">
     <!-- 0 -->
     <g transform="translate(366.832767 465.945847) scale(0.12 -0.12)">
      <use xlink:href="#DejaVuSans-30"/>
     </g>
    </g>
   </g>
   <g id="xtick_8">
    <g id="line2d_10">
     <path d="M 440.510422 439.63988 
L 440.694123 442.520406 
" style="fill: none; stroke: #000000; stroke-width: 0.8; stroke-linecap: square"/>
    </g>
    <g id="text_9">
     <!-- 40 -->
     <g transform="translate(433.214491 465.945847) scale(0.12 -0.12)">
      <use xlink:href="#DejaVuSans-34"/>
      <use xlink:href="#DejaVuSans-30" x="63.623047"/>
     </g>
    </g>
   </g>
   <g id="xtick_9">
    <g id="line2d_11">
     <path d="M 510.348215 439.63988 
L 510.727733 442.520406 
" style="fill: none; stroke: #000000; stroke-width: 0.8; stroke-linecap: square"/>
    </g>
    <g id="text_10">
     <!-- 80 -->
     <g transform="translate(503.413714 465.945847) scale(0.12 -0.12)">
      <use xlink:href="#DejaVuSans-38"/>
      <use xlink:href="#DejaVuSans-30" x="63.623047"/>
     </g>
    </g>
   </g>
   <g id="text_11">
    <!-- PC 2 -->
    <g transform="translate(354.695701 489.63081) scale(0.18 -0.18)">
     <defs>
      <path id="DejaVuSans-32" d="M 1228 531 
L 3431 531 
L 3431 0 
L 469 0 
L 469 531 
Q 828 903 1448 1529 
Q 2069 2156 2228 2338 
Q 2531 2678 2651 2914 
Q 2772 3150 2772 3378 
Q 2772 3750 2511 3984 
Q 2250 4219 1831 4219 
Q 1534 4219 1204 4116 
Q 875 4013 500 3803 
L 500 4441 
Q 881 4594 1212 4672 
Q 1544 4750 1819 4750 
Q 2544 4750 2975 4387 
Q 3406 4025 3406 3419 
Q 3406 3131 3298 2873 
Q 3191 2616 2906 2266 
Q 2828 2175 2409 1742 
Q 1991 1309 1228 531 
z
" transform="scale(0.015625)"/>
     </defs>
     <use xlink:href="#DejaVuSans-50"/>
     <use xlink:href="#DejaVuSans-43" x="60.302734"/>
     <use xlink:href="#DejaVuSans-20" x="130.126953"/>
     <use xlink:href="#DejaVuSans-32" x="161.914062"/>
    </g>
   </g>
  </g>
  <g id="axis3d_3">
   <g id="line2d_12">
    <path d="M 226.241772 440.598264 
L 221.351029 229.152779 
" style="fill: none; stroke: #000000; stroke-width: 0.8; stroke-linecap: square"/>
   </g>
   <g id="xtick_10">
    <g id="line2d_13">
     <path d="M 226.271035 434.906028 
L 225.853728 437.775398 
" style="fill: none; stroke: #000000; stroke-width: 0.8; stroke-linecap: square"/>
    </g>
    <g id="text_12">
     <!-- −80 -->
     <g transform="translate(197.691209 450.959979) scale(0.12 -0.12)">
      <use xlink:href="#DejaVuSans-2212"/>
      <use xlink:href="#DejaVuSans-38" x="83.789062"/>
      <use xlink:href="#DejaVuSans-30" x="147.412109"/>
     </g>
    </g>
   </g>
   <g id="xtick_11">
    <g id="line2d_14">
     <path d="M 225.150519 386.409441 
L 224.726891 389.163384 
" style="fill: none; stroke: #000000; stroke-width: 0.8; stroke-linecap: square"/>
    </g>
    <g id="text_13">
     <!-- −40 -->
     <g transform="translate(196.442293 402.184582) scale(0.12 -0.12)">
      <use xlink:href="#DejaVuSans-2212"/>
      <use xlink:href="#DejaVuSans-34" x="83.789062"/>
      <use xlink:href="#DejaVuSans-30" x="147.412109"/>
     </g>
    </g>
   </g>
   <g id="xtick_12">
    <g id="line2d_15">
     <path d="M 224.012991 337.176534 
L 223.582897 339.811194 
" style="fill: none; stroke: #000000; stroke-width: 0.8; stroke-linecap: square"/>
    </g>
    <g id="text_14">
     <!-- 0 -->
     <g transform="translate(204.019597 352.663532) scale(0.12 -0.12)">
      <use xlink:href="#DejaVuSans-30"/>
     </g>
    </g>
   </g>
   <g id="xtick_13">
    <g id="line2d_16">
     <path d="M 222.858059 287.190408 
L 222.421351 289.701794 
" style="fill: none; stroke: #000000; stroke-width: 0.8; stroke-linecap: square"/>
    </g>
    <g id="text_15">
     <!-- 40 -->
     <g transform="translate(198.914554 302.379597) scale(0.12 -0.12)">
      <use xlink:href="#DejaVuSans-34"/>
      <use xlink:href="#DejaVuSans-30" x="63.623047"/>
     </g>
    </g>
   </g>
   <g id="xtick_14">
    <g id="line2d_17">
     <path d="M 221.685322 236.433646 
L 221.241845 238.817622 
" style="fill: none; stroke: #000000; stroke-width: 0.8; stroke-linecap: square"/>
    </g>
    <g id="text_16">
     <!-- 80 -->
     <g transform="translate(197.607023 251.315013) scale(0.12 -0.12)">
      <use xlink:href="#DejaVuSans-38"/>
      <use xlink:href="#DejaVuSans-30" x="63.623047"/>
     </g>
    </g>
   </g>
   <g id="text_17">
    <!-- PC 3 -->
    <g transform="translate(159.869569 356.487823) scale(0.18 -0.18)">
     <defs>
      <path id="DejaVuSans-33" d="M 2597 2516 
Q 3050 2419 3304 2112 
Q 3559 1806 3559 1356 
Q 3559 666 3084 287 
Q 2609 -91 1734 -91 
Q 1441 -91 1130 -33 
Q 819 25 488 141 
L 488 750 
Q 750 597 1062 519 
Q 1375 441 1716 441 
Q 2309 441 2620 675 
Q 2931 909 2931 1356 
Q 2931 1769 2642 2001 
Q 2353 2234 1838 2234 
L 1294 2234 
L 1294 2753 
L 1863 2753 
Q 2328 2753 2575 2939 
Q 2822 3125 2822 3475 
Q 2822 3834 2567 4026 
Q 2313 4219 1838 4219 
Q 1578 4219 1281 4162 
Q 984 4106 628 3988 
L 628 4550 
Q 988 4650 1302 4700 
Q 1616 4750 1894 4750 
Q 2613 4750 3031 4423 
Q 3450 4097 3450 3541 
Q 3450 3153 3228 2886 
Q 3006 2619 2597 2516 
z
" transform="scale(0.015625)"/>
     </defs>
     <use xlink:href="#DejaVuSans-50"/>
     <use xlink:href="#DejaVuSans-43" x="60.302734"/>
     <use xlink:href="#DejaVuSans-20" x="130.126953"/>
     <use xlink:href="#DejaVuSans-33" x="161.914062"/>
    </g>
   </g>
  </g>
  <g id="axes_1">
   <g id="line2d_18">
    <path d="M 476.368009 378.530552 
L 466.203324 387.595127 
L 406.180327 385.799763 
L 389.406734 337.934123 
L 349.901259 305.074106 
L 324.629892 267.325961 
L 320.379478 228.567986 
L 300.408039 215.452513 
L 328.546324 209.103485 
L 343.867903 225.128854 
L 366.291248 258.447101 
L 400.408634 281.775412 
L 423.869181 300.940363 
L 417.599104 334.178135 
L 429.422065 358.316353 
L 448.615274 376.364491 
L 476.368009 378.530552 
" clip-path="url(#pb30a487285)" style="fill: none; stroke: #808080; stroke-opacity: 0.7; stroke-width: 1.5; stroke-linecap: square"/>
   </g>
   <g id="line2d_19">
    <path d="M 314.261915 286.875652 
L 336.604933 268.4634 
L 410.983319 230.978451 
L 457.427389 216.298025 
L 479.6994 241.087094 
L 434.229765 236.43419 
L 457.940381 273.831128 
L 387.037204 283.630544 
L 382.859492 326.538884 
L 342.781145 340.805705 
L 301.570384 362.418416 
L 285.797424 377.084819 
L 280.181438 361.777774 
L 270.02094 329.429114 
L 281.674955 310.515855 
L 299.358998 306.242118 
L 314.261915 286.875652 
" clip-path="url(#pb30a487285)" style="fill: none; stroke: #808080; stroke-opacity: 0.7; stroke-width: 1.5; stroke-linecap: square"/>
   </g>
   <g id="Poly3DCollection_1">
    <path d="M 468.770782 276.469491 
L 450.29496 273.791149 
L 449.807047 263.552996 
L 468.163787 266.224638 
z
" clip-path="url(#pb30a487285)" style="fill: #808080; fill-opacity: 0.3"/>
    <path d="M 450.29496 273.791149 
L 431.780421 271.107193 
L 431.412089 260.875791 
L 449.807047 263.552996 
z
" clip-path="url(#pb30a487285)" style="fill: #808080; fill-opacity: 0.3"/>
    <path d="M 431.780421 271.107193 
L 413.227041 268.417607 
L 412.978792 258.193006 
L 431.412089 260.875791 
z
" clip-path="url(#pb30a487285)" style="fill: #808080; fill-opacity: 0.3"/>
    <path d="M 413.227041 268.417607 
L 394.6347 265.722373 
L 394.507037 255.504625 
L 412.978792 258.193006 
z
" clip-path="url(#pb30a487285)" style="fill: #808080; fill-opacity: 0.3"/>
    <path d="M 394.6347 265.722373 
L 376.003273 263.021473 
L 375.996703 252.810628 
L 394.507037 255.504625 
z
" clip-path="url(#pb30a487285)" style="fill: #808080; fill-opacity: 0.3"/>
    <path d="M 376.003273 263.021473 
L 357.332638 260.31489 
L 357.447669 250.110999 
L 375.996703 252.810628 
z
" clip-path="url(#pb30a487285)" style="fill: #808080; fill-opacity: 0.3"/>
    <path d="M 357.332638 260.31489 
L 338.62267 257.602604 
L 338.859814 247.40572 
L 357.447669 250.110999 
z
" clip-path="url(#pb30a487285)" style="fill: #808080; fill-opacity: 0.3"/>
    <path d="M 469.385738 286.848708 
L 450.789279 284.163719 
L 450.29496 273.791149 
L 468.770782 276.469491 
z
" clip-path="url(#pb30a487285)" style="fill: #808080; fill-opacity: 0.3"/>
    <path d="M 338.62267 257.602604 
L 319.873246 254.884599 
L 320.233015 244.694773 
L 338.859814 247.40572 
z
" clip-path="url(#pb30a487285)" style="fill: #808080; fill-opacity: 0.3"/>
    <path d="M 450.789279 284.163719 
L 432.153593 281.473066 
L 431.780421 271.107193 
L 450.29496 273.791149 
z
" clip-path="url(#pb30a487285)" style="fill: #808080; fill-opacity: 0.3"/>
    <path d="M 319.873246 254.884599 
L 301.084241 252.160855 
L 301.567151 241.978141 
L 320.233015 244.694773 
z
" clip-path="url(#pb30a487285)" style="fill: #808080; fill-opacity: 0.3"/>
    <path d="M 432.153593 281.473066 
L 413.478557 278.776731 
L 413.227041 268.417607 
L 431.780421 271.107193 
z
" clip-path="url(#pb30a487285)" style="fill: #808080; fill-opacity: 0.3"/>
    <path d="M 413.478557 278.776731 
L 394.764044 276.074697 
L 394.6347 265.722373 
L 413.227041 268.417607 
z
" clip-path="url(#pb30a487285)" style="fill: #808080; fill-opacity: 0.3"/>
    <path d="M 394.764044 276.074697 
L 376.00993 273.366945 
L 376.003273 263.021473 
L 394.6347 265.722373 
z
" clip-path="url(#pb30a487285)" style="fill: #808080; fill-opacity: 0.3"/>
    <path d="M 376.00993 273.366945 
L 357.216088 270.653457 
L 357.332638 260.31489 
L 376.003273 263.021473 
z
" clip-path="url(#pb30a487285)" style="fill: #808080; fill-opacity: 0.3"/>
    <path d="M 357.216088 270.653457 
L 338.382394 267.934215 
L 338.62267 257.602604 
L 357.332638 260.31489 
z
" clip-path="url(#pb30a487285)" style="fill: #808080; fill-opacity: 0.3"/>
    <path d="M 470.008813 297.36495 
L 451.290131 294.673371 
L 450.789279 284.163719 
L 469.385738 286.848708 
z
" clip-path="url(#pb30a487285)" style="fill: #808080; fill-opacity: 0.3"/>
    <path d="M 338.382394 267.934215 
L 319.508719 265.2092 
L 319.873246 254.884599 
L 338.62267 257.602604 
z
" clip-path="url(#pb30a487285)" style="fill: #808080; fill-opacity: 0.3"/>
    <path d="M 451.290131 294.673371 
L 432.531703 291.976078 
L 432.153593 281.473066 
L 450.789279 284.163719 
z
" clip-path="url(#pb30a487285)" style="fill: #808080; fill-opacity: 0.3"/>
    <path d="M 319.508719 265.2092 
L 300.594936 262.478395 
L 301.084241 252.160855 
L 319.873246 254.884599 
z
" clip-path="url(#pb30a487285)" style="fill: #808080; fill-opacity: 0.3"/>
    <path d="M 432.531703 291.976078 
L 413.733403 289.27305 
L 413.478557 278.776731 
L 432.153593 281.473066 
z
" clip-path="url(#pb30a487285)" style="fill: #808080; fill-opacity: 0.3"/>
    <path d="M 413.733403 289.27305 
L 394.895103 286.564271 
L 394.764044 276.074697 
L 413.478557 278.776731 
z
" clip-path="url(#pb30a487285)" style="fill: #808080; fill-opacity: 0.3"/>
    <path d="M 394.895103 286.564271 
L 376.016675 283.849723 
L 376.00993 273.366945 
L 394.764044 276.074697 
z
" clip-path="url(#pb30a487285)" style="fill: #808080; fill-opacity: 0.3"/>
    <path d="M 376.016675 283.849723 
L 357.097991 281.129385 
L 357.216088 270.653457 
L 376.00993 273.366945 
z
" clip-path="url(#pb30a487285)" style="fill: #808080; fill-opacity: 0.3"/>
    <path d="M 357.097991 281.129385 
L 338.138922 278.403241 
L 338.382394 267.934215 
L 357.216088 270.653457 
z
" clip-path="url(#pb30a487285)" style="fill: #808080; fill-opacity: 0.3"/>
    <path d="M 470.640168 308.020948 
L 451.797646 305.322842 
L 451.290131 294.673371 
L 470.008813 297.36495 
z
" clip-path="url(#pb30a487285)" style="fill: #808080; fill-opacity: 0.3"/>
    <path d="M 338.138922 278.403241 
L 319.139338 275.671271 
L 319.508719 265.2092 
L 338.382394 267.934215 
z
" clip-path="url(#pb30a487285)" style="fill: #808080; fill-opacity: 0.3"/>
    <path d="M 451.797646 305.322842 
L 432.914849 302.618968 
L 432.531703 291.976078 
L 451.290131 294.673371 
z
" clip-path="url(#pb30a487285)" style="fill: #808080; fill-opacity: 0.3"/>
    <path d="M 319.139338 275.671271 
L 300.09911 272.933457 
L 300.594936 262.478395 
L 319.508719 265.2092 
z
" clip-path="url(#pb30a487285)" style="fill: #808080; fill-opacity: 0.3"/>
    <path d="M 432.914849 302.618968 
L 413.991647 299.909309 
L 413.733403 289.27305 
L 432.531703 291.976078 
z
" clip-path="url(#pb30a487285)" style="fill: #808080; fill-opacity: 0.3"/>
    <path d="M 413.991647 299.909309 
L 395.027911 297.193845 
L 394.895103 286.564271 
L 413.733403 289.27305 
z
" clip-path="url(#pb30a487285)" style="fill: #808080; fill-opacity: 0.3"/>
    <path d="M 395.027911 297.193845 
L 376.02351 294.472559 
L 376.016675 283.849723 
L 394.895103 286.564271 
z
" clip-path="url(#pb30a487285)" style="fill: #808080; fill-opacity: 0.3"/>
    <path d="M 376.02351 294.472559 
L 356.978313 291.745431 
L 357.097991 281.129385 
L 376.016675 283.849723 
z
" clip-path="url(#pb30a487285)" style="fill: #808080; fill-opacity: 0.3"/>
    <path d="M 356.978313 291.745431 
L 337.892189 289.012442 
L 338.138922 278.403241 
L 357.097991 281.129385 
z
" clip-path="url(#pb30a487285)" style="fill: #808080; fill-opacity: 0.3"/>
    <path d="M 471.27997 318.819507 
L 452.311958 316.114938 
L 451.797646 305.322842 
L 470.640168 308.020948 
z
" clip-path="url(#pb30a487285)" style="fill: #808080; fill-opacity: 0.3"/>
    <path d="M 337.892189 289.012442 
L 318.765006 286.273574 
L 319.139338 275.671271 
L 338.138922 278.403241 
z
" clip-path="url(#pb30a487285)" style="fill: #808080; fill-opacity: 0.3"/>
    <path d="M 452.311958 316.114938 
L 433.303131 313.40455 
L 432.914849 302.618968 
L 451.797646 305.322842 
z
" clip-path="url(#pb30a487285)" style="fill: #808080; fill-opacity: 0.3"/>
    <path d="M 318.765006 286.273574 
L 299.596631 283.528808 
L 300.09911 272.933457 
L 319.139338 275.671271 
z
" clip-path="url(#pb30a487285)" style="fill: #808080; fill-opacity: 0.3"/>
    <path d="M 433.303131 313.40455 
L 414.253357 310.688323 
L 413.991647 299.909309 
L 432.914849 302.618968 
z
" clip-path="url(#pb30a487285)" style="fill: #808080; fill-opacity: 0.3"/>
    <path d="M 414.253357 310.688323 
L 395.162503 307.966239 
L 395.027911 297.193845 
L 413.991647 299.909309 
z
" clip-path="url(#pb30a487285)" style="fill: #808080; fill-opacity: 0.3"/>
    <path d="M 395.162503 307.966239 
L 376.030437 305.238279 
L 376.02351 294.472559 
L 395.027911 297.193845 
z
" clip-path="url(#pb30a487285)" style="fill: #808080; fill-opacity: 0.3"/>
    <path d="M 376.030437 305.238279 
L 356.857024 302.504423 
L 356.978313 291.745431 
L 376.02351 294.472559 
z
" clip-path="url(#pb30a487285)" style="fill: #808080; fill-opacity: 0.3"/>
    <path d="M 356.857024 302.504423 
L 337.642131 299.764653 
L 337.892189 289.012442 
L 356.978313 291.745431 
z
" clip-path="url(#pb30a487285)" style="fill: #808080; fill-opacity: 0.3"/>
    <path d="M 471.928389 329.763506 
L 452.833205 327.052546 
L 452.311958 316.114938 
L 471.27997 318.819507 
z
" clip-path="url(#pb30a487285)" style="fill: #808080; fill-opacity: 0.3"/>
    <path d="M 337.642131 299.764653 
L 318.385623 297.018949 
L 318.765006 286.273574 
L 337.892189 289.012442 
z
" clip-path="url(#pb30a487285)" style="fill: #808080; fill-opacity: 0.3"/>
    <path d="M 452.833205 327.052546 
L 433.696655 324.335713 
L 433.303131 313.40455 
L 452.311958 316.114938 
z
" clip-path="url(#pb30a487285)" style="fill: #808080; fill-opacity: 0.3"/>
    <path d="M 318.385623 297.018949 
L 299.087364 294.267292 
L 299.596631 283.528808 
L 318.765006 286.273574 
z
" clip-path="url(#pb30a487285)" style="fill: #808080; fill-opacity: 0.3"/>
    <path d="M 433.696655 324.335713 
L 414.518603 321.612988 
L 414.253357 310.688323 
L 433.303131 313.40455 
z
" clip-path="url(#pb30a487285)" style="fill: #808080; fill-opacity: 0.3"/>
    <path d="M 414.518603 321.612988 
L 395.298916 318.884352 
L 395.162503 307.966239 
L 414.253357 310.688323 
z
" clip-path="url(#pb30a487285)" style="fill: #808080; fill-opacity: 0.3"/>
    <path d="M 395.298916 318.884352 
L 376.037458 316.149785 
L 376.030437 305.238279 
L 395.162503 307.966239 
z
" clip-path="url(#pb30a487285)" style="fill: #808080; fill-opacity: 0.3"/>
    <path d="M 376.037458 316.149785 
L 356.734091 313.409269 
L 356.857024 302.504423 
L 376.030437 305.238279 
z
" clip-path="url(#pb30a487285)" style="fill: #808080; fill-opacity: 0.3"/>
    <path d="M 356.734091 313.409269 
L 337.388679 310.662784 
L 337.642131 299.764653 
L 356.857024 302.504423 
z
" clip-path="url(#pb30a487285)" style="fill: #808080; fill-opacity: 0.3"/>
    <path d="M 472.5856 340.855904 
L 453.361527 338.138627 
L 452.833205 327.052546 
L 471.928389 329.763506 
z
" clip-path="url(#pb30a487285)" style="fill: #808080; fill-opacity: 0.3"/>
    <path d="M 337.388679 310.662784 
L 318.001085 307.91031 
L 318.385623 297.018949 
L 337.642131 299.764653 
z
" clip-path="url(#pb30a487285)" style="fill: #808080; fill-opacity: 0.3"/>
    <path d="M 453.361527 338.138627 
L 434.095526 335.415424 
L 433.696655 324.335713 
L 452.833205 327.052546 
z
" clip-path="url(#pb30a487285)" style="fill: #808080; fill-opacity: 0.3"/>
    <path d="M 318.001085 307.91031 
L 298.57117 305.151828 
L 299.087364 294.267292 
L 318.385623 297.018949 
z
" clip-path="url(#pb30a487285)" style="fill: #808080; fill-opacity: 0.3"/>
    <path d="M 434.095526 335.415424 
L 414.787458 332.686274 
L 414.518603 321.612988 
L 433.696655 324.335713 
z
" clip-path="url(#pb30a487285)" style="fill: #808080; fill-opacity: 0.3"/>
    <path d="M 414.787458 332.686274 
L 395.437187 329.951159 
L 395.298916 318.884352 
L 414.518603 321.612988 
z
" clip-path="url(#pb30a487285)" style="fill: #808080; fill-opacity: 0.3"/>
    <path d="M 395.437187 329.951159 
L 376.044574 327.21006 
L 376.037458 316.149785 
L 395.298916 318.884352 
z
" clip-path="url(#pb30a487285)" style="fill: #808080; fill-opacity: 0.3"/>
    <path d="M 376.044574 327.21006 
L 356.60948 324.462955 
L 356.734091 313.409269 
L 376.037458 316.149785 
z
" clip-path="url(#pb30a487285)" style="fill: #808080; fill-opacity: 0.3"/>
    <path d="M 356.60948 324.462955 
L 337.131764 321.709826 
L 337.388679 310.662784 
L 356.734091 313.409269 
z
" clip-path="url(#pb30a487285)" style="fill: #808080; fill-opacity: 0.3"/>
    <path d="M 473.251784 352.099741 
L 453.89707 349.376227 
L 453.361527 338.138627 
L 472.5856 340.855904 
z
" clip-path="url(#pb30a487285)" style="fill: #808080; fill-opacity: 0.3"/>
    <path d="M 337.131764 321.709826 
L 317.611287 318.950653 
L 318.001085 307.91031 
L 337.388679 310.662784 
z
" clip-path="url(#pb30a487285)" style="fill: #808080; fill-opacity: 0.3"/>
    <path d="M 453.89707 349.376227 
L 434.499854 346.646732 
L 434.095526 335.415424 
L 453.361527 338.138627 
z
" clip-path="url(#pb30a487285)" style="fill: #808080; fill-opacity: 0.3"/>
    <path d="M 317.611287 318.950653 
L 298.047908 316.185416 
L 298.57117 305.151828 
L 318.001085 307.91031 
z
" clip-path="url(#pb30a487285)" style="fill: #808080; fill-opacity: 0.3"/>
    <path d="M 434.499854 346.646732 
L 415.059996 343.911236 
L 414.787458 332.686274 
L 434.095526 335.415424 
z
" clip-path="url(#pb30a487285)" style="fill: #808080; fill-opacity: 0.3"/>
    <path d="M 415.059996 343.911236 
L 395.577354 341.169721 
L 395.437187 329.951159 
L 414.787458 332.686274 
z
" clip-path="url(#pb30a487285)" style="fill: #808080; fill-opacity: 0.3"/>
    <path d="M 395.577354 341.169721 
L 376.051788 338.422165 
L 376.044574 327.21006 
L 395.437187 329.951159 
z
" clip-path="url(#pb30a487285)" style="fill: #808080; fill-opacity: 0.3"/>
    <path d="M 376.051788 338.422165 
L 356.483156 335.668549 
L 356.60948 324.462955 
L 376.044574 327.21006 
z
" clip-path="url(#pb30a487285)" style="fill: #808080; fill-opacity: 0.3"/>
    <path d="M 356.483156 335.668549 
L 336.871315 332.908853 
L 337.131764 321.709826 
L 356.60948 324.462955 
z
" clip-path="url(#pb30a487285)" style="fill: #808080; fill-opacity: 0.3"/>
    <path d="M 473.927126 363.498138 
L 454.439983 360.768472 
L 453.89707 349.376227 
L 473.251784 352.099741 
z
" clip-path="url(#pb30a487285)" style="fill: #808080; fill-opacity: 0.3"/>
    <path d="M 336.871315 332.908853 
L 317.216121 330.143057 
L 317.611287 318.950653 
L 337.131764 321.709826 
z
" clip-path="url(#pb30a487285)" style="fill: #808080; fill-opacity: 0.3"/>
    <path d="M 454.439983 360.768472 
L 434.909753 358.03277 
L 434.499854 346.646732 
L 453.89707 349.376227 
z
" clip-path="url(#pb30a487285)" style="fill: #808080; fill-opacity: 0.3"/>
    <path d="M 317.216121 330.143057 
L 297.51743 327.37114 
L 298.047908 316.185416 
L 317.611287 318.950653 
z
" clip-path="url(#pb30a487285)" style="fill: #808080; fill-opacity: 0.3"/>
    <path d="M 434.909753 358.03277 
L 415.336292 355.291012 
L 415.059996 343.911236 
L 434.499854 346.646732 
z
" clip-path="url(#pb30a487285)" style="fill: #808080; fill-opacity: 0.3"/>
    <path d="M 415.336292 355.291012 
L 395.719457 352.543179 
L 395.577354 341.169721 
L 415.059996 343.911236 
z
" clip-path="url(#pb30a487285)" style="fill: #808080; fill-opacity: 0.3"/>
    <path d="M 395.719457 352.543179 
L 376.059102 349.78925 
L 376.051788 338.422165 
L 395.577354 341.169721 
z
" clip-path="url(#pb30a487285)" style="fill: #808080; fill-opacity: 0.3"/>
    <path d="M 376.059102 349.78925 
L 356.355084 347.029204 
L 356.483156 335.668549 
L 376.051788 338.422165 
z
" clip-path="url(#pb30a487285)" style="fill: #808080; fill-opacity: 0.3"/>
    <path d="M 356.355084 347.029204 
L 336.607257 344.263022 
L 336.871315 332.908853 
L 356.483156 335.668549 
z
" clip-path="url(#pb30a487285)" style="fill: #808080; fill-opacity: 0.3"/>
    <path d="M 336.607257 344.263022 
L 316.815474 341.490683 
L 317.216121 330.143057 
L 336.871315 332.908853 
z
" clip-path="url(#pb30a487285)" style="fill: #808080; fill-opacity: 0.3"/>
    <path d="M 316.815474 341.490683 
L 296.979588 338.712167 
L 297.51743 327.37114 
L 317.216121 330.143057 
z
" clip-path="url(#pb30a487285)" style="fill: #808080; fill-opacity: 0.3"/>
   </g>
   <g id="Poly3DCollection_2">
    <path d="M 311.598822 300.396298 
L 309.565306 305.47254 
L 294.18649 313.322376 
L 296.334085 308.192695 
z
" clip-path="url(#pb30a487285)" style="fill: #808080; fill-opacity: 0.3"/>
    <path d="M 326.899866 292.581357 
L 324.980981 297.60389 
L 309.565306 305.47254 
L 311.598822 300.396298 
z
" clip-path="url(#pb30a487285)" style="fill: #808080; fill-opacity: 0.3"/>
    <path d="M 342.237347 284.747806 
L 340.433648 289.716358 
L 324.980981 297.60389 
L 326.899866 292.581357 
z
" clip-path="url(#pb30a487285)" style="fill: #808080; fill-opacity: 0.3"/>
    <path d="M 357.611395 276.895578 
L 355.923438 281.809878 
L 340.433648 289.716358 
L 342.237347 284.747806 
z
" clip-path="url(#pb30a487285)" style="fill: #808080; fill-opacity: 0.3"/>
    <path d="M 373.022141 269.024607 
L 371.450487 273.884379 
L 355.923438 281.809878 
L 357.611395 276.895578 
z
" clip-path="url(#pb30a487285)" style="fill: #808080; fill-opacity: 0.3"/>
    <path d="M 388.469717 261.134825 
L 387.014929 265.939794 
L 371.450487 273.884379 
L 373.022141 269.024607 
z
" clip-path="url(#pb30a487285)" style="fill: #808080; fill-opacity: 0.3"/>
    <path d="M 403.954255 253.226165 
L 402.616899 257.976053 
L 387.014929 265.939794 
L 388.469717 261.134825 
z
" clip-path="url(#pb30a487285)" style="fill: #808080; fill-opacity: 0.3"/>
    <path d="M 309.565306 305.47254 
L 307.500473 310.626962 
L 292.005859 318.530965 
L 294.18649 313.322376 
z
" clip-path="url(#pb30a487285)" style="fill: #808080; fill-opacity: 0.3"/>
    <path d="M 419.475888 245.29856 
L 418.256533 249.993088 
L 402.616899 257.976053 
L 403.954255 253.226165 
z
" clip-path="url(#pb30a487285)" style="fill: #808080; fill-opacity: 0.3"/>
    <path d="M 324.980981 297.60389 
L 323.032508 302.70387 
L 307.500473 310.626962 
L 309.565306 305.47254 
z
" clip-path="url(#pb30a487285)" style="fill: #808080; fill-opacity: 0.3"/>
    <path d="M 435.034749 237.35194 
L 433.933967 241.990828 
L 418.256533 249.993088 
L 419.475888 245.29856 
z
" clip-path="url(#pb30a487285)" style="fill: #808080; fill-opacity: 0.3"/>
    <path d="M 340.433648 289.716358 
L 338.602102 294.761619 
L 323.032508 302.70387 
L 324.980981 297.60389 
z
" clip-path="url(#pb30a487285)" style="fill: #808080; fill-opacity: 0.3"/>
    <path d="M 355.923438 281.809878 
L 354.20939 286.800139 
L 338.602102 294.761619 
L 340.433648 289.716358 
z
" clip-path="url(#pb30a487285)" style="fill: #808080; fill-opacity: 0.3"/>
    <path d="M 371.450487 273.884379 
L 369.85451 278.819361 
L 354.20939 286.800139 
L 355.923438 281.809878 
z
" clip-path="url(#pb30a487285)" style="fill: #808080; fill-opacity: 0.3"/>
    <path d="M 387.014929 265.939794 
L 385.537598 270.819215 
L 369.85451 278.819361 
L 371.450487 273.884379 
z
" clip-path="url(#pb30a487285)" style="fill: #808080; fill-opacity: 0.3"/>
    <path d="M 402.616899 257.976053 
L 401.258795 262.799629 
L 385.537598 270.819215 
L 387.014929 265.939794 
z
" clip-path="url(#pb30a487285)" style="fill: #808080; fill-opacity: 0.3"/>
    <path d="M 307.500473 310.626962 
L 305.403591 315.861386 
L 289.791424 323.820298 
L 292.005859 318.530965 
z
" clip-path="url(#pb30a487285)" style="fill: #808080; fill-opacity: 0.3"/>
    <path d="M 418.256533 249.993088 
L 417.018238 254.760534 
L 401.258795 262.799629 
L 402.616899 257.976053 
z
" clip-path="url(#pb30a487285)" style="fill: #808080; fill-opacity: 0.3"/>
    <path d="M 323.032508 302.70387 
L 321.053756 307.883102 
L 305.403591 315.861386 
L 307.500473 310.626962 
z
" clip-path="url(#pb30a487285)" style="fill: #808080; fill-opacity: 0.3"/>
    <path d="M 433.933967 241.990828 
L 432.816067 246.701856 
L 417.018238 254.760534 
L 418.256533 249.993088 
z
" clip-path="url(#pb30a487285)" style="fill: #808080; fill-opacity: 0.3"/>
    <path d="M 338.602102 294.761619 
L 336.74206 299.885376 
L 321.053756 307.883102 
L 323.032508 302.70387 
z
" clip-path="url(#pb30a487285)" style="fill: #808080; fill-opacity: 0.3"/>
    <path d="M 354.20939 286.800139 
L 352.468641 291.868137 
L 336.74206 299.885376 
L 338.602102 294.761619 
z
" clip-path="url(#pb30a487285)" style="fill: #808080; fill-opacity: 0.3"/>
    <path d="M 369.85451 278.819361 
L 368.23364 283.831313 
L 352.468641 291.868137 
L 354.20939 286.800139 
z
" clip-path="url(#pb30a487285)" style="fill: #808080; fill-opacity: 0.3"/>
    <path d="M 385.537598 270.819215 
L 384.037198 275.774831 
L 368.23364 283.831313 
L 369.85451 278.819361 
z
" clip-path="url(#pb30a487285)" style="fill: #808080; fill-opacity: 0.3"/>
    <path d="M 401.258795 262.799629 
L 399.879457 267.698621 
L 384.037198 275.774831 
L 385.537598 270.819215 
z
" clip-path="url(#pb30a487285)" style="fill: #808080; fill-opacity: 0.3"/>
    <path d="M 305.403591 315.861386 
L 303.273909 321.177687 
L 287.542393 329.192266 
L 289.791424 323.820298 
z
" clip-path="url(#pb30a487285)" style="fill: #808080; fill-opacity: 0.3"/>
    <path d="M 417.018238 254.760534 
L 415.760558 259.602609 
L 399.879457 267.698621 
L 401.258795 262.799629 
z
" clip-path="url(#pb30a487285)" style="fill: #808080; fill-opacity: 0.3"/>
    <path d="M 321.053756 307.883102 
L 319.044014 313.143449 
L 303.273909 321.177687 
L 305.403591 315.861386 
z
" clip-path="url(#pb30a487285)" style="fill: #808080; fill-opacity: 0.3"/>
    <path d="M 432.816067 246.701856 
L 431.680646 251.486722 
L 415.760558 259.602609 
L 417.018238 254.760534 
z
" clip-path="url(#pb30a487285)" style="fill: #808080; fill-opacity: 0.3"/>
    <path d="M 336.74206 299.885376 
L 334.852851 305.089478 
L 319.044014 313.143449 
L 321.053756 307.883102 
z
" clip-path="url(#pb30a487285)" style="fill: #808080; fill-opacity: 0.3"/>
    <path d="M 352.468641 291.868137 
L 350.700563 297.015702 
L 334.852851 305.089478 
L 336.74206 299.885376 
z
" clip-path="url(#pb30a487285)" style="fill: #808080; fill-opacity: 0.3"/>
    <path d="M 368.23364 283.831313 
L 366.587292 288.922048 
L 350.700563 297.015702 
L 352.468641 291.868137 
z
" clip-path="url(#pb30a487285)" style="fill: #808080; fill-opacity: 0.3"/>
    <path d="M 384.037198 275.774831 
L 382.513184 280.808442 
L 366.587292 288.922048 
L 368.23364 283.831313 
z
" clip-path="url(#pb30a487285)" style="fill: #808080; fill-opacity: 0.3"/>
    <path d="M 399.879457 267.698621 
L 398.478384 272.674811 
L 382.513184 280.808442 
L 384.037198 275.774831 
z
" clip-path="url(#pb30a487285)" style="fill: #808080; fill-opacity: 0.3"/>
    <path d="M 303.273909 321.177687 
L 301.110652 326.577803 
L 285.257949 334.648822 
L 287.542393 329.192266 
z
" clip-path="url(#pb30a487285)" style="fill: #808080; fill-opacity: 0.3"/>
    <path d="M 415.760558 259.602609 
L 414.483036 264.52108 
L 398.478384 272.674811 
L 399.879457 267.698621 
z
" clip-path="url(#pb30a487285)" style="fill: #808080; fill-opacity: 0.3"/>
    <path d="M 319.044014 313.143449 
L 317.002549 318.48683 
L 301.110652 326.577803 
L 303.273909 321.177687 
z
" clip-path="url(#pb30a487285)" style="fill: #808080; fill-opacity: 0.3"/>
    <path d="M 431.680646 251.486722 
L 430.527288 256.347175 
L 414.483036 264.52108 
L 415.760558 259.602609 
z
" clip-path="url(#pb30a487285)" style="fill: #808080; fill-opacity: 0.3"/>
    <path d="M 334.852851 305.089478 
L 332.933785 310.375828 
L 317.002549 318.48683 
L 319.044014 313.143449 
z
" clip-path="url(#pb30a487285)" style="fill: #808080; fill-opacity: 0.3"/>
    <path d="M 350.700563 297.015702 
L 348.904506 302.244723 
L 332.933785 310.375828 
L 334.852851 305.089478 
z
" clip-path="url(#pb30a487285)" style="fill: #808080; fill-opacity: 0.3"/>
    <path d="M 366.587292 288.922048 
L 364.91486 294.09344 
L 348.904506 302.244723 
L 350.700563 297.015702 
z
" clip-path="url(#pb30a487285)" style="fill: #808080; fill-opacity: 0.3"/>
    <path d="M 382.513184 280.808442 
L 380.964994 285.921904 
L 364.91486 294.09344 
L 366.587292 288.922048 
z
" clip-path="url(#pb30a487285)" style="fill: #808080; fill-opacity: 0.3"/>
    <path d="M 398.478384 272.674811 
L 397.055057 277.730039 
L 380.964994 285.921904 
L 382.513184 280.808442 
z
" clip-path="url(#pb30a487285)" style="fill: #808080; fill-opacity: 0.3"/>
    <path d="M 301.110652 326.577803 
L 298.913019 332.063731 
L 282.937248 340.191979 
L 285.257949 334.648822 
z
" clip-path="url(#pb30a487285)" style="fill: #808080; fill-opacity: 0.3"/>
    <path d="M 414.483036 264.52108 
L 413.185197 269.51777 
L 397.055057 277.730039 
L 398.478384 272.674811 
z
" clip-path="url(#pb30a487285)" style="fill: #808080; fill-opacity: 0.3"/>
    <path d="M 317.002549 318.48683 
L 314.928602 323.915227 
L 298.913019 332.063731 
L 301.110652 326.577803 
z
" clip-path="url(#pb30a487285)" style="fill: #808080; fill-opacity: 0.3"/>
    <path d="M 430.527288 256.347175 
L 429.355565 261.28502 
L 413.185197 269.51777 
L 414.483036 264.52108 
z
" clip-path="url(#pb30a487285)" style="fill: #808080; fill-opacity: 0.3"/>
    <path d="M 332.933785 310.375828 
L 330.984146 315.746392 
L 314.928602 323.915227 
L 317.002549 318.48683 
z
" clip-path="url(#pb30a487285)" style="fill: #808080; fill-opacity: 0.3"/>
    <path d="M 348.904506 302.244723 
L 347.079802 307.557148 
L 330.984146 315.746392 
L 332.933785 310.375828 
z
" clip-path="url(#pb30a487285)" style="fill: #808080; fill-opacity: 0.3"/>
    <path d="M 364.91486 294.09344 
L 363.215718 299.34742 
L 347.079802 307.557148 
L 348.904506 302.244723 
z
" clip-path="url(#pb30a487285)" style="fill: #808080; fill-opacity: 0.3"/>
    <path d="M 380.964994 285.921904 
L 379.392048 291.117131 
L 363.215718 299.34742 
L 364.91486 294.09344 
z
" clip-path="url(#pb30a487285)" style="fill: #808080; fill-opacity: 0.3"/>
    <path d="M 397.055057 277.730039 
L 395.608942 282.866203 
L 379.392048 291.117131 
L 380.964994 285.921904 
z
" clip-path="url(#pb30a487285)" style="fill: #808080; fill-opacity: 0.3"/>
    <path d="M 298.913019 332.063731 
L 296.680184 337.637533 
L 280.57942 345.823815 
L 282.937248 340.191979 
z
" clip-path="url(#pb30a487285)" style="fill: #808080; fill-opacity: 0.3"/>
    <path d="M 413.185197 269.51777 
L 411.866553 274.594559 
L 395.608942 282.866203 
L 397.055057 277.730039 
z
" clip-path="url(#pb30a487285)" style="fill: #808080; fill-opacity: 0.3"/>
    <path d="M 314.928602 323.915227 
L 312.821393 329.430686 
L 296.680184 337.637533 
L 298.913019 332.063731 
z
" clip-path="url(#pb30a487285)" style="fill: #808080; fill-opacity: 0.3"/>
    <path d="M 429.355565 261.28502 
L 428.165036 266.30212 
L 411.866553 274.594559 
L 413.185197 269.51777 
z
" clip-path="url(#pb30a487285)" style="fill: #808080; fill-opacity: 0.3"/>
    <path d="M 330.984146 315.746392 
L 329.0032 321.203198 
L 312.821393 329.430686 
L 314.928602 323.915227 
z
" clip-path="url(#pb30a487285)" style="fill: #808080; fill-opacity: 0.3"/>
    <path d="M 347.079802 307.557148 
L 345.225759 312.95499 
L 329.0032 321.203198 
L 330.984146 315.746392 
z
" clip-path="url(#pb30a487285)" style="fill: #808080; fill-opacity: 0.3"/>
    <path d="M 363.215718 299.34742 
L 361.489223 304.685984 
L 345.225759 312.95499 
L 347.079802 307.557148 
z
" clip-path="url(#pb30a487285)" style="fill: #808080; fill-opacity: 0.3"/>
    <path d="M 379.392048 291.117131 
L 377.793747 296.396101 
L 361.489223 304.685984 
L 363.215718 299.34742 
z
" clip-path="url(#pb30a487285)" style="fill: #808080; fill-opacity: 0.3"/>
    <path d="M 395.608942 282.866203 
L 394.139487 288.085262 
L 377.793747 296.396101 
L 379.392048 291.117131 
z
" clip-path="url(#pb30a487285)" style="fill: #808080; fill-opacity: 0.3"/>
    <path d="M 296.680184 337.637533 
L 294.411294 343.301337 
L 278.183568 351.546476 
L 280.57942 345.823815 
z
" clip-path="url(#pb30a487285)" style="fill: #808080; fill-opacity: 0.3"/>
    <path d="M 411.866553 274.594559 
L 410.5266 279.753388 
L 394.139487 288.085262 
L 395.608942 282.866203 
z
" clip-path="url(#pb30a487285)" style="fill: #808080; fill-opacity: 0.3"/>
    <path d="M 312.821393 329.430686 
L 310.680115 335.035318 
L 294.411294 343.301337 
L 296.680184 337.637533 
z
" clip-path="url(#pb30a487285)" style="fill: #808080; fill-opacity: 0.3"/>
    <path d="M 428.165036 266.30212 
L 426.955243 271.400398 
L 410.5266 279.753388 
L 411.866553 274.594559 
z
" clip-path="url(#pb30a487285)" style="fill: #808080; fill-opacity: 0.3"/>
    <path d="M 329.0032 321.203198 
L 326.990186 326.748341 
L 310.680115 335.035318 
L 312.821393 329.430686 
z
" clip-path="url(#pb30a487285)" style="fill: #808080; fill-opacity: 0.3"/>
    <path d="M 345.225759 312.95499 
L 343.341664 318.440324 
L 326.990186 326.748341 
L 329.0032 321.203198 
z
" clip-path="url(#pb30a487285)" style="fill: #808080; fill-opacity: 0.3"/>
    <path d="M 361.489223 304.685984 
L 359.734707 310.111189 
L 343.341664 318.440324 
L 345.225759 312.95499 
z
" clip-path="url(#pb30a487285)" style="fill: #808080; fill-opacity: 0.3"/>
    <path d="M 377.793747 296.396101 
L 376.169473 301.760855 
L 359.734707 310.111189 
L 361.489223 304.685984 
z
" clip-path="url(#pb30a487285)" style="fill: #808080; fill-opacity: 0.3"/>
    <path d="M 394.139487 288.085262 
L 392.646124 293.38924 
L 376.169473 301.760855 
L 377.793747 296.396101 
z
" clip-path="url(#pb30a487285)" style="fill: #808080; fill-opacity: 0.3"/>
    <path d="M 294.411294 343.301337 
L 292.10547 349.057341 
L 275.748764 357.362177 
L 278.183568 351.546476 
z
" clip-path="url(#pb30a487285)" style="fill: #808080; fill-opacity: 0.3"/>
    <path d="M 410.5266 279.753388 
L 409.164818 284.996263 
L 392.646124 293.38924 
L 394.139487 288.085262 
z
" clip-path="url(#pb30a487285)" style="fill: #808080; fill-opacity: 0.3"/>
    <path d="M 310.680115 335.035318 
L 308.503935 340.731303 
L 292.10547 349.057341 
L 294.411294 343.301337 
z
" clip-path="url(#pb30a487285)" style="fill: #808080; fill-opacity: 0.3"/>
    <path d="M 426.955243 271.400398 
L 425.725716 276.581842 
L 409.164818 284.996263 
L 410.5266 279.753388 
z
" clip-path="url(#pb30a487285)" style="fill: #808080; fill-opacity: 0.3"/>
    <path d="M 326.990186 326.748341 
L 324.944318 332.383982 
L 308.503935 340.731303 
L 310.680115 335.035318 
z
" clip-path="url(#pb30a487285)" style="fill: #808080; fill-opacity: 0.3"/>
    <path d="M 343.341664 318.440324 
L 341.42678 324.015296 
L 324.944318 332.383982 
L 326.990186 326.748341 
z
" clip-path="url(#pb30a487285)" style="fill: #808080; fill-opacity: 0.3"/>
    <path d="M 359.734707 310.111189 
L 357.951483 315.625163 
L 341.42678 324.015296 
L 343.341664 318.440324 
z
" clip-path="url(#pb30a487285)" style="fill: #808080; fill-opacity: 0.3"/>
    <path d="M 376.169473 301.760855 
L 374.518589 307.213501 
L 357.951483 315.625163 
L 359.734707 310.111189 
z
" clip-path="url(#pb30a487285)" style="fill: #808080; fill-opacity: 0.3"/>
    <path d="M 392.646124 293.38924 
L 391.128262 298.780226 
L 374.518589 307.213501 
L 376.169473 301.760855 
z
" clip-path="url(#pb30a487285)" style="fill: #808080; fill-opacity: 0.3"/>
    <path d="M 409.164818 284.996263 
L 407.780667 290.325254 
L 391.128262 298.780226 
L 392.646124 293.38924 
z
" clip-path="url(#pb30a487285)" style="fill: #808080; fill-opacity: 0.3"/>
    <path d="M 425.725716 276.581842 
L 424.475968 281.848503 
L 407.780667 290.325254 
L 409.164818 284.996263 
z
" clip-path="url(#pb30a487285)" style="fill: #808080; fill-opacity: 0.3"/>
   </g>
   <g id="Path3DCollection_1">
    <defs>
     <path id="C0_0_8d3632033e" d="M 0 5.477226 
C 1.452577 5.477226 2.845856 4.900111 3.872983 3.872983 
C 4.900111 2.845856 5.477226 1.452577 5.477226 -0 
C 5.477226 -1.452577 4.900111 -2.845856 3.872983 -3.872983 
C 2.845856 -4.900111 1.452577 -5.477226 0 -5.477226 
C -1.452577 -5.477226 -2.845856 -4.900111 -3.872983 -3.872983 
C -4.900111 -2.845856 -5.477226 -1.452577 -5.477226 0 
C -5.477226 1.452577 -4.900111 2.845856 -3.872983 3.872983 
C -2.845856 4.900111 -1.452577 5.477226 0 5.477226 
z
"/>
    </defs>
    <g clip-path="url(#pb30a487285)">
     <use xlink:href="#C0_0_8d3632033e" x="300.408039" y="215.452513" style="fill: #00ffb5; fill-opacity: 0.3; stroke: #00ffb5; stroke-opacity: 0.3"/>
    </g>
    <g clip-path="url(#pb30a487285)">
     <use xlink:href="#C0_0_8d3632033e" x="328.546324" y="209.103485" style="fill: #00eaff; fill-opacity: 0.340901; stroke: #00eaff; stroke-opacity: 0.340901"/>
    </g>
    <g clip-path="url(#pb30a487285)">
     <use xlink:href="#C0_0_8d3632033e" x="320.379478" y="228.567986" style="fill: #00ff57; fill-opacity: 0.382306; stroke: #00ff57; stroke-opacity: 0.382306"/>
    </g>
    <g clip-path="url(#pb30a487285)">
     <use xlink:href="#C0_0_8d3632033e" x="343.867903" y="225.128854" style="fill: #0080ff; fill-opacity: 0.398694; stroke: #0080ff; stroke-opacity: 0.398694"/>
    </g>
    <g clip-path="url(#pb30a487285)">
     <use xlink:href="#C0_0_8d3632033e" x="366.291248" y="258.447101" style="fill: #0010ff; fill-opacity: 0.417943; stroke: #0010ff; stroke-opacity: 0.417943"/>
    </g>
    <g clip-path="url(#pb30a487285)">
     <use xlink:href="#C0_0_8d3632033e" x="324.629892" y="267.325961" style="fill: #14ff00; fill-opacity: 0.498764; stroke: #14ff00; stroke-opacity: 0.498764"/>
    </g>
    <g clip-path="url(#pb30a487285)">
     <use xlink:href="#C0_0_8d3632033e" x="400.408634" y="281.775412" style="fill: #4300ff; fill-opacity: 0.532571; stroke: #4300ff; stroke-opacity: 0.532571"/>
    </g>
    <g clip-path="url(#pb30a487285)">
     <use xlink:href="#C0_0_8d3632033e" x="423.869181" y="300.940363" style="fill: #a700ff; fill-opacity: 0.649534; stroke: #a700ff; stroke-opacity: 0.649534"/>
    </g>
    <g clip-path="url(#pb30a487285)">
     <use xlink:href="#C0_0_8d3632033e" x="349.901259" y="305.074106" style="fill: #78ff00; fill-opacity: 0.668956; stroke: #78ff00; stroke-opacity: 0.668956"/>
    </g>
    <g clip-path="url(#pb30a487285)">
     <use xlink:href="#C0_0_8d3632033e" x="417.599104" y="334.178135" style="fill: #fe00f1; fill-opacity: 0.741188; stroke: #fe00f1; stroke-opacity: 0.741188"/>
    </g>
    <g clip-path="url(#pb30a487285)">
     <use xlink:href="#C0_0_8d3632033e" x="429.422065" y="358.316353" style="fill: #ff0082; fill-opacity: 0.776863; stroke: #ff0082; stroke-opacity: 0.776863"/>
    </g>
    <g clip-path="url(#pb30a487285)">
     <use xlink:href="#C0_0_8d3632033e" x="448.615274" y="376.364491" style="fill: #ff0018; fill-opacity: 0.780922; stroke: #ff0018; stroke-opacity: 0.780922"/>
    </g>
    <g clip-path="url(#pb30a487285)">
     <use xlink:href="#C0_0_8d3632033e" x="389.406734" y="337.934123" style="fill: #d7ff00; fill-opacity: 0.79893; stroke: #d7ff00; stroke-opacity: 0.79893"/>
    </g>
    <g clip-path="url(#pb30a487285)">
     <use xlink:href="#C0_0_8d3632033e" x="476.368009" y="378.530552" style="fill: #ff0000; fill-opacity: 0.885713; stroke: #ff0000; stroke-opacity: 0.885713"/>
    </g>
    <g clip-path="url(#pb30a487285)">
     <use xlink:href="#C0_0_8d3632033e" x="466.203324" y="387.595127" style="fill: #ff5f00; fill-opacity: 0.949304; stroke: #ff5f00; stroke-opacity: 0.949304"/>
    </g>
    <g clip-path="url(#pb30a487285)">
     <use xlink:href="#C0_0_8d3632033e" x="406.180327" y="385.799763" style="fill: #ffbd00; stroke: #ffbd00"/>
    </g>
   </g>
   <g id="legend_1">
    <g id="patch_6">
     <path d="M 343.470937 136.36125 
L 578.16 136.36125 
Q 581.76 136.36125 581.76 132.76125 
L 581.76 81.72 
Q 581.76 78.12 578.16 78.12 
L 343.470937 78.12 
Q 339.870937 78.12 339.870937 81.72 
L 339.870937 132.76125 
Q 339.870937 136.36125 343.470937 136.36125 
z
" style="fill: #ffffff; opacity: 0.8; stroke: #cccccc; stroke-linejoin: miter"/>
    </g>
    <g id="Path3DCollection_2">
     <path d="M 365.070937 99.749413 
C 366.523515 99.749413 367.916794 99.172298 368.943921 98.145171 
C 369.971048 97.118044 370.548163 95.724765 370.548163 94.272188 
C 370.548163 92.81961 369.971048 91.426331 368.943921 90.399204 
C 367.916794 89.372077 366.523515 88.794962 365.070937 88.794962 
C 363.61836 88.794962 362.225081 89.372077 361.197954 90.399204 
C 360.170827 91.426331 359.593712 92.81961 359.593712 94.272188 
C 359.593712 95.724765 360.170827 97.118044 361.197954 98.145171 
C 362.225081 99.172298 363.61836 99.749413 365.070937 99.749413 
z
" style="fill: #ff0000; stroke: #ff0000"/>
    </g>
    <g id="text_18">
     <!-- Selected stimulus 1 -->
     <g transform="translate(397.470937 98.997188) scale(0.18 -0.18)">
      <defs>
       <path id="DejaVuSans-53" d="M 3425 4513 
L 3425 3897 
Q 3066 4069 2747 4153 
Q 2428 4238 2131 4238 
Q 1616 4238 1336 4038 
Q 1056 3838 1056 3469 
Q 1056 3159 1242 3001 
Q 1428 2844 1947 2747 
L 2328 2669 
Q 3034 2534 3370 2195 
Q 3706 1856 3706 1288 
Q 3706 609 3251 259 
Q 2797 -91 1919 -91 
Q 1588 -91 1214 -16 
Q 841 59 441 206 
L 441 856 
Q 825 641 1194 531 
Q 1563 422 1919 422 
Q 2459 422 2753 634 
Q 3047 847 3047 1241 
Q 3047 1584 2836 1778 
Q 2625 1972 2144 2069 
L 1759 2144 
Q 1053 2284 737 2584 
Q 422 2884 422 3419 
Q 422 4038 858 4394 
Q 1294 4750 2059 4750 
Q 2388 4750 2728 4690 
Q 3069 4631 3425 4513 
z
" transform="scale(0.015625)"/>
       <path id="DejaVuSans-65" d="M 3597 1894 
L 3597 1613 
L 953 1613 
Q 991 1019 1311 708 
Q 1631 397 2203 397 
Q 2534 397 2845 478 
Q 3156 559 3463 722 
L 3463 178 
Q 3153 47 2828 -22 
Q 2503 -91 2169 -91 
Q 1331 -91 842 396 
Q 353 884 353 1716 
Q 353 2575 817 3079 
Q 1281 3584 2069 3584 
Q 2775 3584 3186 3129 
Q 3597 2675 3597 1894 
z
M 3022 2063 
Q 3016 2534 2758 2815 
Q 2500 3097 2075 3097 
Q 1594 3097 1305 2825 
Q 1016 2553 972 2059 
L 3022 2063 
z
" transform="scale(0.015625)"/>
       <path id="DejaVuSans-6c" d="M 603 4863 
L 1178 4863 
L 1178 0 
L 603 0 
L 603 4863 
z
" transform="scale(0.015625)"/>
       <path id="DejaVuSans-63" d="M 3122 3366 
L 3122 2828 
Q 2878 2963 2633 3030 
Q 2388 3097 2138 3097 
Q 1578 3097 1268 2742 
Q 959 2388 959 1747 
Q 959 1106 1268 751 
Q 1578 397 2138 397 
Q 2388 397 2633 464 
Q 2878 531 3122 666 
L 3122 134 
Q 2881 22 2623 -34 
Q 2366 -91 2075 -91 
Q 1284 -91 818 406 
Q 353 903 353 1747 
Q 353 2603 823 3093 
Q 1294 3584 2113 3584 
Q 2378 3584 2631 3529 
Q 2884 3475 3122 3366 
z
" transform="scale(0.015625)"/>
       <path id="DejaVuSans-74" d="M 1172 4494 
L 1172 3500 
L 2356 3500 
L 2356 3053 
L 1172 3053 
L 1172 1153 
Q 1172 725 1289 603 
Q 1406 481 1766 481 
L 2356 481 
L 2356 0 
L 1766 0 
Q 1100 0 847 248 
Q 594 497 594 1153 
L 594 3053 
L 172 3053 
L 172 3500 
L 594 3500 
L 594 4494 
L 1172 4494 
z
" transform="scale(0.015625)"/>
       <path id="DejaVuSans-64" d="M 2906 2969 
L 2906 4863 
L 3481 4863 
L 3481 0 
L 2906 0 
L 2906 525 
Q 2725 213 2448 61 
Q 2172 -91 1784 -91 
Q 1150 -91 751 415 
Q 353 922 353 1747 
Q 353 2572 751 3078 
Q 1150 3584 1784 3584 
Q 2172 3584 2448 3432 
Q 2725 3281 2906 2969 
z
M 947 1747 
Q 947 1113 1208 752 
Q 1469 391 1925 391 
Q 2381 391 2643 752 
Q 2906 1113 2906 1747 
Q 2906 2381 2643 2742 
Q 2381 3103 1925 3103 
Q 1469 3103 1208 2742 
Q 947 2381 947 1747 
z
" transform="scale(0.015625)"/>
       <path id="DejaVuSans-73" d="M 2834 3397 
L 2834 2853 
Q 2591 2978 2328 3040 
Q 2066 3103 1784 3103 
Q 1356 3103 1142 2972 
Q 928 2841 928 2578 
Q 928 2378 1081 2264 
Q 1234 2150 1697 2047 
L 1894 2003 
Q 2506 1872 2764 1633 
Q 3022 1394 3022 966 
Q 3022 478 2636 193 
Q 2250 -91 1575 -91 
Q 1294 -91 989 -36 
Q 684 19 347 128 
L 347 722 
Q 666 556 975 473 
Q 1284 391 1588 391 
Q 1994 391 2212 530 
Q 2431 669 2431 922 
Q 2431 1156 2273 1281 
Q 2116 1406 1581 1522 
L 1381 1569 
Q 847 1681 609 1914 
Q 372 2147 372 2553 
Q 372 3047 722 3315 
Q 1072 3584 1716 3584 
Q 2034 3584 2315 3537 
Q 2597 3491 2834 3397 
z
" transform="scale(0.015625)"/>
       <path id="DejaVuSans-69" d="M 603 3500 
L 1178 3500 
L 1178 0 
L 603 0 
L 603 3500 
z
M 603 4863 
L 1178 4863 
L 1178 4134 
L 603 4134 
L 603 4863 
z
" transform="scale(0.015625)"/>
       <path id="DejaVuSans-6d" d="M 3328 2828 
Q 3544 3216 3844 3400 
Q 4144 3584 4550 3584 
Q 5097 3584 5394 3201 
Q 5691 2819 5691 2113 
L 5691 0 
L 5113 0 
L 5113 2094 
Q 5113 2597 4934 2840 
Q 4756 3084 4391 3084 
Q 3944 3084 3684 2787 
Q 3425 2491 3425 1978 
L 3425 0 
L 2847 0 
L 2847 2094 
Q 2847 2600 2669 2842 
Q 2491 3084 2119 3084 
Q 1678 3084 1418 2786 
Q 1159 2488 1159 1978 
L 1159 0 
L 581 0 
L 581 3500 
L 1159 3500 
L 1159 2956 
Q 1356 3278 1631 3431 
Q 1906 3584 2284 3584 
Q 2666 3584 2933 3390 
Q 3200 3197 3328 2828 
z
" transform="scale(0.015625)"/>
       <path id="DejaVuSans-75" d="M 544 1381 
L 544 3500 
L 1119 3500 
L 1119 1403 
Q 1119 906 1312 657 
Q 1506 409 1894 409 
Q 2359 409 2629 706 
Q 2900 1003 2900 1516 
L 2900 3500 
L 3475 3500 
L 3475 0 
L 2900 0 
L 2900 538 
Q 2691 219 2414 64 
Q 2138 -91 1772 -91 
Q 1169 -91 856 284 
Q 544 659 544 1381 
z
M 1991 3584 
L 1991 3584 
z
" transform="scale(0.015625)"/>
      </defs>
      <use xlink:href="#DejaVuSans-53"/>
      <use xlink:href="#DejaVuSans-65" x="63.476562"/>
      <use xlink:href="#DejaVuSans-6c" x="125"/>
      <use xlink:href="#DejaVuSans-65" x="152.783203"/>
      <use xlink:href="#DejaVuSans-63" x="214.306641"/>
      <use xlink:href="#DejaVuSans-74" x="269.287109"/>
      <use xlink:href="#DejaVuSans-65" x="308.496094"/>
      <use xlink:href="#DejaVuSans-64" x="370.019531"/>
      <use xlink:href="#DejaVuSans-20" x="433.496094"/>
      <use xlink:href="#DejaVuSans-73" x="465.283203"/>
      <use xlink:href="#DejaVuSans-74" x="517.382812"/>
      <use xlink:href="#DejaVuSans-69" x="556.591797"/>
      <use xlink:href="#DejaVuSans-6d" x="584.375"/>
      <use xlink:href="#DejaVuSans-75" x="681.787109"/>
      <use xlink:href="#DejaVuSans-6c" x="745.166016"/>
      <use xlink:href="#DejaVuSans-75" x="772.949219"/>
      <use xlink:href="#DejaVuSans-73" x="836.328125"/>
      <use xlink:href="#DejaVuSans-20" x="888.427734"/>
      <use xlink:href="#DejaVuSans-31" x="920.214844"/>
     </g>
    </g>
    <g id="Path3DCollection_3">
     <path d="M 365.070937 126.170038 
L 370.548163 115.215587 
L 359.593712 115.215587 
z
" style="fill: #ff0000; stroke: #ff0000"/>
    </g>
    <g id="text_19">
     <!-- Selected stimulus 2 -->
     <g transform="translate(397.470937 125.417813) scale(0.18 -0.18)">
      <use xlink:href="#DejaVuSans-53"/>
      <use xlink:href="#DejaVuSans-65" x="63.476562"/>
      <use xlink:href="#DejaVuSans-6c" x="125"/>
      <use xlink:href="#DejaVuSans-65" x="152.783203"/>
      <use xlink:href="#DejaVuSans-63" x="214.306641"/>
      <use xlink:href="#DejaVuSans-74" x="269.287109"/>
      <use xlink:href="#DejaVuSans-65" x="308.496094"/>
      <use xlink:href="#DejaVuSans-64" x="370.019531"/>
      <use xlink:href="#DejaVuSans-20" x="433.496094"/>
      <use xlink:href="#DejaVuSans-73" x="465.283203"/>
      <use xlink:href="#DejaVuSans-74" x="517.382812"/>
      <use xlink:href="#DejaVuSans-69" x="556.591797"/>
      <use xlink:href="#DejaVuSans-6d" x="584.375"/>
      <use xlink:href="#DejaVuSans-75" x="681.787109"/>
      <use xlink:href="#DejaVuSans-6c" x="745.166016"/>
      <use xlink:href="#DejaVuSans-75" x="772.949219"/>
      <use xlink:href="#DejaVuSans-73" x="836.328125"/>
      <use xlink:href="#DejaVuSans-20" x="888.427734"/>
      <use xlink:href="#DejaVuSans-32" x="920.214844"/>
     </g>
    </g>
   </g>
   <g id="Path3DCollection_4">
    <path d="M 410.983319 236.455677 
L 416.460544 225.501226 
L 405.506093 225.501226 
z
" clip-path="url(#pb30a487285)" style="fill: #ffc300; fill-opacity: 0.3; stroke: #ffc300; stroke-opacity: 0.3"/>
    <path d="M 336.604933 273.940626 
L 342.082159 262.986174 
L 331.127708 262.986174 
z
" clip-path="url(#pb30a487285)" style="fill: #ff6a00; fill-opacity: 0.302763; stroke: #ff6a00; stroke-opacity: 0.302763"/>
    <path d="M 314.261915 292.352877 
L 319.73914 281.398426 
L 308.784689 281.398426 
z
" clip-path="url(#pb30a487285)" style="fill: #ff0000; fill-opacity: 0.368533; stroke: #ff0000; stroke-opacity: 0.368533"/>
    <path d="M 299.358998 311.719343 
L 304.836224 300.764892 
L 293.881773 300.764892 
z
" clip-path="url(#pb30a487285)" style="fill: #ff0018; fill-opacity: 0.443795; stroke: #ff0018; stroke-opacity: 0.443795"/>
    <path d="M 457.427389 221.775251 
L 462.904615 210.8208 
L 451.950164 210.8208 
z
" clip-path="url(#pb30a487285)" style="fill: #d7ff00; fill-opacity: 0.467754; stroke: #d7ff00; stroke-opacity: 0.467754"/>
    <path d="M 281.674955 315.993081 
L 287.152181 305.038629 
L 276.19773 305.038629 
z
" clip-path="url(#pb30a487285)" style="fill: #ff0076; fill-opacity: 0.526952; stroke: #ff0076; stroke-opacity: 0.526952"/>
    <path d="M 479.6994 246.564319 
L 485.176625 235.609868 
L 474.222174 235.609868 
z
" clip-path="url(#pb30a487285)" style="fill: #66ff00; fill-opacity: 0.609964; stroke: #66ff00; stroke-opacity: 0.609964"/>
    <path d="M 270.02094 334.90634 
L 275.498166 323.951889 
L 264.543714 323.951889 
z
" clip-path="url(#pb30a487285)" style="fill: #ff00db; fill-opacity: 0.621797; stroke: #ff00db; stroke-opacity: 0.621797"/>
    <path d="M 434.229765 241.911416 
L 439.70699 230.956965 
L 428.752539 230.956965 
z
" clip-path="url(#pb30a487285)" style="fill: #08ff00; fill-opacity: 0.713549; stroke: #08ff00; stroke-opacity: 0.713549"/>
    <path d="M 280.181438 367.255 
L 285.658664 356.300549 
L 274.704213 356.300549 
z
" clip-path="url(#pb30a487285)" style="fill: #bf00ff; fill-opacity: 0.747446; stroke: #bf00ff; stroke-opacity: 0.747446"/>
    <path d="M 457.940381 279.308354 
L 463.417606 268.353903 
L 452.463155 268.353903 
z
" clip-path="url(#pb30a487285)" style="fill: #00ff5c; fill-opacity: 0.823789; stroke: #00ff5c; stroke-opacity: 0.823789"/>
    <path d="M 387.037204 289.10777 
L 392.514429 278.153319 
L 381.559978 278.153319 
z
" clip-path="url(#pb30a487285)" style="fill: #00ffc7; fill-opacity: 0.888406; stroke: #00ffc7; stroke-opacity: 0.888406"/>
    <path d="M 285.797424 382.562045 
L 291.27465 371.607594 
L 280.320198 371.607594 
z
" clip-path="url(#pb30a487285)" style="fill: #6000ff; fill-opacity: 0.910323; stroke: #6000ff; stroke-opacity: 0.910323"/>
    <path d="M 301.570384 367.895642 
L 307.047609 356.941191 
L 296.093158 356.941191 
z
" clip-path="url(#pb30a487285)" style="fill: #020cff; fill-opacity: 0.969416; stroke: #020cff; stroke-opacity: 0.969416"/>
    <path d="M 382.859492 332.01611 
L 388.336718 321.061659 
L 377.382266 321.061659 
z
" clip-path="url(#pb30a487285)" style="fill: #00d9ff; fill-opacity: 0.975862; stroke: #00d9ff; stroke-opacity: 0.975862"/>
    <path d="M 342.781145 346.28293 
L 348.258371 335.328479 
L 337.30392 335.328479 
z
" clip-path="url(#pb30a487285)" style="fill: #0074ff; stroke: #0074ff"/>
   </g>
  </g>
 </g>
 <defs>
  <clipPath id="pb30a487285">
   <rect x="147.24" y="69.12" width="443.52" height="443.52"/>
  </clipPath>
 </defs>
</svg>
