<?xml version="1.0" encoding="utf-8" standalone="no"?>
<!DOCTYPE svg PUBLIC "-//W3C//DTD SVG 1.1//EN"
  "http://www.w3.org/Graphics/SVG/1.1/DTD/svg11.dtd">
<svg xmlns:xlink="http://www.w3.org/1999/xlink" width="720pt" height="576pt" viewBox="0 0 720 576" xmlns="http://www.w3.org/2000/svg" version="1.1">
 <metadata>
  <rdf:RDF xmlns:dc="http://purl.org/dc/elements/1.1/" xmlns:cc="http://creativecommons.org/ns#" xmlns:rdf="http://www.w3.org/1999/02/22-rdf-syntax-ns#">
   <cc:Work>
    <dc:type rdf:resource="http://purl.org/dc/dcmitype/StillImage"/>
    <dc:date>2025-05-20T19:43:30.929568</dc:date>
    <dc:format>image/svg+xml</dc:format>
    <dc:creator>
     <cc:Agent>
      <dc:title>Matplotlib v3.9.2, https://matplotlib.org/</dc:title>
     </cc:Agent>
    </dc:creator>
   </cc:Work>
  </rdf:RDF>
 </metadata>
 <defs>
  <style type="text/css">*{stroke-linejoin: round; stroke-linecap: butt}</style>
 </defs>
 <g id="figure_1">
  <g id="patch_1">
   <path d="M 0 576 
L 720 576 
L 720 0 
L 0 0 
L 0 576 
z
" style="fill: none"/>
  </g>
  <g id="patch_2">
   <path d="M 147.24 512.64 
L 590.76 512.64 
L 590.76 69.12 
L 147.24 69.12 
L 147.24 512.64 
z
" style="fill: none"/>
  </g>
  <g id="pane3d_1">
   <g id="patch_3">
    <path d="M 241.776258 333.210956 
L 508.210769 333.210956 
L 512.119926 141.343983 
L 237.867101 141.343983 
" style="fill: none; opacity: 0.5; stroke: #f2f2f2; stroke-linejoin: miter"/>
   </g>
  </g>
  <g id="pane3d_2">
   <g id="patch_4">
    <path d="M 241.776258 333.210956 
L 226.241772 440.598264 
L 221.351029 229.152779 
L 237.867101 141.343983 
" style="fill: none; opacity: 0.5; stroke: #e6e6e6; stroke-linejoin: miter"/>
   </g>
  </g>
  <g id="pane3d_3">
   <g id="patch_5">
    <path d="M 241.776258 333.210956 
L 226.241772 440.598264 
L 523.745255 440.598264 
L 508.210769 333.210956 
" style="fill: none; opacity: 0.5; stroke: #ececec; stroke-linejoin: miter"/>
   </g>
  </g>
  <g id="grid3d_1">
   <g id="Line3DCollection_1">
    <path d="M 508.620945 336.046429 
L 241.366082 336.046429 
L 237.432461 143.654777 
" style="fill: none; stroke: #b0b0b0; stroke-width: 0.8"/>
    <path d="M 511.742944 357.62829 
L 238.244083 357.62829 
L 234.121673 161.2568 
" style="fill: none; stroke: #b0b0b0; stroke-width: 0.8"/>
    <path d="M 515.014315 380.242728 
L 234.972713 380.242728 
L 230.647589 179.727001 
" style="fill: none; stroke: #b0b0b0; stroke-width: 0.8"/>
    <path d="M 518.446039 403.965667 
L 231.540988 403.965667 
L 226.997821 199.131236 
" style="fill: none; stroke: #b0b0b0; stroke-width: 0.8"/>
    <path d="M 522.050204 428.880657 
L 227.936823 428.880657 
L 223.158697 219.542192 
" style="fill: none; stroke: #b0b0b0; stroke-width: 0.8"/>
   </g>
  </g>
  <g id="grid3d_2">
   <g id="Line3DCollection_2">
    <path d="M 253.541035 141.343983 
L 257.003364 333.210956 
L 243.244513 440.598264 
" style="fill: none; stroke: #b0b0b0; stroke-width: 0.8"/>
    <path d="M 313.311746 141.343983 
L 315.070151 333.210956 
L 308.082478 440.598264 
" style="fill: none; stroke: #b0b0b0; stroke-width: 0.8"/>
    <path d="M 373.082458 141.343983 
L 373.136938 333.210956 
L 372.920442 440.598264 
" style="fill: none; stroke: #b0b0b0; stroke-width: 0.8"/>
    <path d="M 432.85317 141.343983 
L 431.203725 333.210956 
L 437.758407 440.598264 
" style="fill: none; stroke: #b0b0b0; stroke-width: 0.8"/>
    <path d="M 492.623882 141.343983 
L 489.270512 333.210956 
L 502.596371 440.598264 
" style="fill: none; stroke: #b0b0b0; stroke-width: 0.8"/>
   </g>
  </g>
  <g id="grid3d_3">
   <g id="Line3DCollection_3">
    <path d="M 225.262842 398.275359 
L 240.991654 294.701487 
L 508.995373 294.701487 
" style="fill: none; stroke: #b0b0b0; stroke-width: 0.8"/>
    <path d="M 224.209901 352.752737 
L 240.148934 253.339607 
L 509.838093 253.339607 
" style="fill: none; stroke: #b0b0b0; stroke-width: 0.8"/>
    <path d="M 223.142047 306.58533 
L 239.295548 211.454197 
L 510.691479 211.454197 
" style="fill: none; stroke: #b0b0b0; stroke-width: 0.8"/>
    <path d="M 222.05896 259.75934 
L 238.431291 169.035253 
L 511.555736 169.035253 
" style="fill: none; stroke: #b0b0b0; stroke-width: 0.8"/>
   </g>
  </g>
  <g id="axis3d_1">
   <g id="line2d_1">
    <path d="M 508.210769 333.210956 
L 523.745255 440.598264 
" style="fill: none; stroke: #000000; stroke-width: 0.8; stroke-linecap: square"/>
   </g>
   <g id="xtick_1">
    <g id="line2d_2">
     <path d="M 506.482906 336.046429 
L 512.897023 336.046429 
" style="fill: none; stroke: #000000; stroke-width: 0.8; stroke-linecap: square"/>
    </g>
    <g id="text_1">
     <!-- −100 -->
     <g transform="translate(505.236655 354.455382) scale(0.12 -0.12)">
      <defs>
       <path id="DejaVuSans-2212" d="M 678 2272 
L 4684 2272 
L 4684 1741 
L 678 1741 
L 678 2272 
z
" transform="scale(0.015625)"/>
       <path id="DejaVuSans-31" d="M 794 531 
L 1825 531 
L 1825 4091 
L 703 3866 
L 703 4441 
L 1819 4666 
L 2450 4666 
L 2450 531 
L 3481 531 
L 3481 0 
L 794 0 
L 794 531 
z
" transform="scale(0.015625)"/>
       <path id="DejaVuSans-30" d="M 2034 4250 
Q 1547 4250 1301 3770 
Q 1056 3291 1056 2328 
Q 1056 1369 1301 889 
Q 1547 409 2034 409 
Q 2525 409 2770 889 
Q 3016 1369 3016 2328 
Q 3016 3291 2770 3770 
Q 2525 4250 2034 4250 
z
M 2034 4750 
Q 2819 4750 3233 4129 
Q 3647 3509 3647 2328 
Q 3647 1150 3233 529 
Q 2819 -91 2034 -91 
Q 1250 -91 836 529 
Q 422 1150 422 2328 
Q 422 3509 836 4129 
Q 1250 4750 2034 4750 
z
" transform="scale(0.015625)"/>
      </defs>
      <use xlink:href="#DejaVuSans-2212"/>
      <use xlink:href="#DejaVuSans-31" x="83.789062"/>
      <use xlink:href="#DejaVuSans-30" x="147.412109"/>
      <use xlink:href="#DejaVuSans-30" x="211.035156"/>
     </g>
    </g>
   </g>
   <g id="xtick_2">
    <g id="line2d_3">
     <path d="M 509.554953 357.62829 
L 516.118926 357.62829 
" style="fill: none; stroke: #000000; stroke-width: 0.8; stroke-linecap: square"/>
    </g>
    <g id="text_2">
     <!-- −50 -->
     <g transform="translate(512.477136 376.222597) scale(0.12 -0.12)">
      <defs>
       <path id="DejaVuSans-35" d="M 691 4666 
L 3169 4666 
L 3169 4134 
L 1269 4134 
L 1269 2991 
Q 1406 3038 1543 3061 
Q 1681 3084 1819 3084 
Q 2600 3084 3056 2656 
Q 3513 2228 3513 1497 
Q 3513 744 3044 326 
Q 2575 -91 1722 -91 
Q 1428 -91 1123 -41 
Q 819 9 494 109 
L 494 744 
Q 775 591 1075 516 
Q 1375 441 1709 441 
Q 2250 441 2565 725 
Q 2881 1009 2881 1497 
Q 2881 1984 2565 2268 
Q 2250 2553 1709 2553 
Q 1456 2553 1204 2497 
Q 953 2441 691 2322 
L 691 4666 
z
" transform="scale(0.015625)"/>
      </defs>
      <use xlink:href="#DejaVuSans-2212"/>
      <use xlink:href="#DejaVuSans-35" x="83.789062"/>
      <use xlink:href="#DejaVuSans-30" x="147.412109"/>
     </g>
    </g>
   </g>
   <g id="xtick_3">
    <g id="line2d_4">
     <path d="M 512.773982 380.242728 
L 519.49498 380.242728 
" style="fill: none; stroke: #000000; stroke-width: 0.8; stroke-linecap: square"/>
    </g>
    <g id="text_3">
     <!-- 0 -->
     <g transform="translate(524.908957 399.029707) scale(0.12 -0.12)">
      <use xlink:href="#DejaVuSans-30"/>
     </g>
    </g>
   </g>
   <g id="xtick_4">
    <g id="line2d_5">
     <path d="M 516.150799 403.965667 
L 523.03652 403.965667 
" style="fill: none; stroke: #000000; stroke-width: 0.8; stroke-linecap: square"/>
    </g>
    <g id="text_4">
     <!-- 50 -->
     <g transform="translate(524.853498 422.953055) scale(0.12 -0.12)">
      <use xlink:href="#DejaVuSans-35"/>
      <use xlink:href="#DejaVuSans-30" x="63.623047"/>
     </g>
    </g>
   </g>
   <g id="xtick_5">
    <g id="line2d_6">
     <path d="M 519.697297 428.880657 
L 526.756018 428.880657 
" style="fill: none; stroke: #000000; stroke-width: 0.8; stroke-linecap: square"/>
    </g>
    <g id="text_5">
     <!-- 100 -->
     <g transform="translate(524.986783 448.076645) scale(0.12 -0.12)">
      <use xlink:href="#DejaVuSans-31"/>
      <use xlink:href="#DejaVuSans-30" x="63.623047"/>
      <use xlink:href="#DejaVuSans-30" x="127.246094"/>
     </g>
    </g>
   </g>
   <g id="text_6">
    <!-- PC 1 -->
    <g transform="translate(532.260686 414.995741) scale(0.18 -0.18)">
     <defs>
      <path id="DejaVuSans-50" d="M 1259 4147 
L 1259 2394 
L 2053 2394 
Q 2494 2394 2734 2622 
Q 2975 2850 2975 3272 
Q 2975 3691 2734 3919 
Q 2494 4147 2053 4147 
L 1259 4147 
z
M 628 4666 
L 2053 4666 
Q 2838 4666 3239 4311 
Q 3641 3956 3641 3272 
Q 3641 2581 3239 2228 
Q 2838 1875 2053 1875 
L 1259 1875 
L 1259 0 
L 628 0 
L 628 4666 
z
" transform="scale(0.015625)"/>
      <path id="DejaVuSans-43" d="M 4122 4306 
L 4122 3641 
Q 3803 3938 3442 4084 
Q 3081 4231 2675 4231 
Q 1875 4231 1450 3742 
Q 1025 3253 1025 2328 
Q 1025 1406 1450 917 
Q 1875 428 2675 428 
Q 3081 428 3442 575 
Q 3803 722 4122 1019 
L 4122 359 
Q 3791 134 3420 21 
Q 3050 -91 2638 -91 
Q 1578 -91 968 557 
Q 359 1206 359 2328 
Q 359 3453 968 4101 
Q 1578 4750 2638 4750 
Q 3056 4750 3426 4639 
Q 3797 4528 4122 4306 
z
" transform="scale(0.015625)"/>
      <path id="DejaVuSans-20" transform="scale(0.015625)"/>
     </defs>
     <use xlink:href="#DejaVuSans-50"/>
     <use xlink:href="#DejaVuSans-43" x="60.302734"/>
     <use xlink:href="#DejaVuSans-20" x="130.126953"/>
     <use xlink:href="#DejaVuSans-31" x="161.914062"/>
    </g>
   </g>
  </g>
  <g id="axis3d_2">
   <g id="line2d_7">
    <path d="M 226.241772 440.598264 
L 523.745255 440.598264 
" style="fill: none; stroke: #000000; stroke-width: 0.8; stroke-linecap: square"/>
   </g>
   <g id="xtick_6">
    <g id="line2d_8">
     <path d="M 243.367305 439.63988 
L 242.998241 442.520406 
" style="fill: none; stroke: #000000; stroke-width: 0.8; stroke-linecap: square"/>
    </g>
    <g id="text_7">
     <!-- −100 -->
     <g transform="translate(226.205789 465.945847) scale(0.12 -0.12)">
      <use xlink:href="#DejaVuSans-2212"/>
      <use xlink:href="#DejaVuSans-31" x="83.789062"/>
      <use xlink:href="#DejaVuSans-30" x="147.412109"/>
      <use xlink:href="#DejaVuSans-30" x="211.035156"/>
     </g>
    </g>
   </g>
   <g id="xtick_7">
    <g id="line2d_9">
     <path d="M 308.14484 439.63988 
L 307.957404 442.520406 
" style="fill: none; stroke: #000000; stroke-width: 0.8; stroke-linecap: square"/>
    </g>
    <g id="text_8">
     <!-- −50 -->
     <g transform="translate(295.136066 465.945847) scale(0.12 -0.12)">
      <use xlink:href="#DejaVuSans-2212"/>
      <use xlink:href="#DejaVuSans-35" x="83.789062"/>
      <use xlink:href="#DejaVuSans-30" x="147.412109"/>
     </g>
    </g>
   </g>
   <g id="xtick_8">
    <g id="line2d_10">
     <path d="M 372.922374 439.63988 
L 372.916567 442.520406 
" style="fill: none; stroke: #000000; stroke-width: 0.8; stroke-linecap: square"/>
    </g>
    <g id="text_9">
     <!-- 0 -->
     <g transform="translate(369.094156 465.945847) scale(0.12 -0.12)">
      <use xlink:href="#DejaVuSans-30"/>
     </g>
    </g>
   </g>
   <g id="xtick_9">
    <g id="line2d_11">
     <path d="M 437.699909 439.63988 
L 437.87573 442.520406 
" style="fill: none; stroke: #000000; stroke-width: 0.8; stroke-linecap: square"/>
    </g>
    <g id="text_10">
     <!-- 50 -->
     <g transform="translate(430.389433 465.945847) scale(0.12 -0.12)">
      <use xlink:href="#DejaVuSans-35"/>
      <use xlink:href="#DejaVuSans-30" x="63.623047"/>
     </g>
    </g>
   </g>
   <g id="xtick_10">
    <g id="line2d_12">
     <path d="M 502.477444 439.63988 
L 502.834893 442.520406 
" style="fill: none; stroke: #000000; stroke-width: 0.8; stroke-linecap: square"/>
    </g>
    <g id="text_11">
     <!-- 100 -->
     <g transform="translate(491.684709 465.945847) scale(0.12 -0.12)">
      <use xlink:href="#DejaVuSans-31"/>
      <use xlink:href="#DejaVuSans-30" x="63.623047"/>
      <use xlink:href="#DejaVuSans-30" x="127.246094"/>
     </g>
    </g>
   </g>
   <g id="text_12">
    <!-- PC 2 -->
    <g transform="translate(354.695701 489.63081) scale(0.18 -0.18)">
     <defs>
      <path id="DejaVuSans-32" d="M 1228 531 
L 3431 531 
L 3431 0 
L 469 0 
L 469 531 
Q 828 903 1448 1529 
Q 2069 2156 2228 2338 
Q 2531 2678 2651 2914 
Q 2772 3150 2772 3378 
Q 2772 3750 2511 3984 
Q 2250 4219 1831 4219 
Q 1534 4219 1204 4116 
Q 875 4013 500 3803 
L 500 4441 
Q 881 4594 1212 4672 
Q 1544 4750 1819 4750 
Q 2544 4750 2975 4387 
Q 3406 4025 3406 3419 
Q 3406 3131 3298 2873 
Q 3191 2616 2906 2266 
Q 2828 2175 2409 1742 
Q 1991 1309 1228 531 
z
" transform="scale(0.015625)"/>
     </defs>
     <use xlink:href="#DejaVuSans-50"/>
     <use xlink:href="#DejaVuSans-43" x="60.302734"/>
     <use xlink:href="#DejaVuSans-20" x="130.126953"/>
     <use xlink:href="#DejaVuSans-32" x="161.914062"/>
    </g>
   </g>
  </g>
  <g id="axis3d_3">
   <g id="line2d_13">
    <path d="M 226.241772 440.598264 
L 221.351029 229.152779 
" style="fill: none; stroke: #000000; stroke-width: 0.8; stroke-linecap: square"/>
   </g>
   <g id="xtick_11">
    <g id="line2d_14">
     <path d="M 225.40331 397.350379 
L 224.981112 400.130541 
" style="fill: none; stroke: #000000; stroke-width: 0.8; stroke-linecap: square"/>
    </g>
    <g id="text_13">
     <!-- −50 -->
     <g transform="translate(196.724063 413.188855) scale(0.12 -0.12)">
      <use xlink:href="#DejaVuSans-2212"/>
      <use xlink:href="#DejaVuSans-35" x="83.789062"/>
      <use xlink:href="#DejaVuSans-30" x="147.412109"/>
     </g>
    </g>
   </g>
   <g id="xtick_12">
    <g id="line2d_15">
     <path d="M 224.352351 351.864265 
L 223.924192 354.534732 
" style="fill: none; stroke: #000000; stroke-width: 0.8; stroke-linecap: square"/>
    </g>
    <g id="text_14">
     <!-- 0 -->
     <g transform="translate(204.397898 367.437762) scale(0.12 -0.12)">
      <use xlink:href="#DejaVuSans-30"/>
     </g>
    </g>
   </g>
   <g id="xtick_13">
    <g id="line2d_16">
     <path d="M 223.286521 305.734496 
L 222.852273 308.291869 
" style="fill: none; stroke: #000000; stroke-width: 0.8; stroke-linecap: square"/>
    </g>
    <g id="text_15">
     <!-- 50 -->
     <g transform="translate(199.392229 321.034785) scale(0.12 -0.12)">
      <use xlink:href="#DejaVuSans-35"/>
      <use xlink:href="#DejaVuSans-30" x="63.623047"/>
     </g>
    </g>
   </g>
   <g id="xtick_14">
    <g id="line2d_17">
     <path d="M 222.205501 258.947312 
L 221.765033 261.388079 
" style="fill: none; stroke: #000000; stroke-width: 0.8; stroke-linecap: square"/>
    </g>
    <g id="text_16">
     <!-- 100 -->
     <g transform="translate(194.369509 273.96589) scale(0.12 -0.12)">
      <use xlink:href="#DejaVuSans-31"/>
      <use xlink:href="#DejaVuSans-30" x="63.623047"/>
      <use xlink:href="#DejaVuSans-30" x="127.246094"/>
     </g>
    </g>
   </g>
   <g id="text_17">
    <!-- PC 3 -->
    <g transform="translate(159.869569 356.487823) scale(0.18 -0.18)">
     <defs>
      <path id="DejaVuSans-33" d="M 2597 2516 
Q 3050 2419 3304 2112 
Q 3559 1806 3559 1356 
Q 3559 666 3084 287 
Q 2609 -91 1734 -91 
Q 1441 -91 1130 -33 
Q 819 25 488 141 
L 488 750 
Q 750 597 1062 519 
Q 1375 441 1716 441 
Q 2309 441 2620 675 
Q 2931 909 2931 1356 
Q 2931 1769 2642 2001 
Q 2353 2234 1838 2234 
L 1294 2234 
L 1294 2753 
L 1863 2753 
Q 2328 2753 2575 2939 
Q 2822 3125 2822 3475 
Q 2822 3834 2567 4026 
Q 2313 4219 1838 4219 
Q 1578 4219 1281 4162 
Q 984 4106 628 3988 
L 628 4550 
Q 988 4650 1302 4700 
Q 1616 4750 1894 4750 
Q 2613 4750 3031 4423 
Q 3450 4097 3450 3541 
Q 3450 3153 3228 2886 
Q 3006 2619 2597 2516 
z
" transform="scale(0.015625)"/>
     </defs>
     <use xlink:href="#DejaVuSans-50"/>
     <use xlink:href="#DejaVuSans-43" x="60.302734"/>
     <use xlink:href="#DejaVuSans-20" x="130.126953"/>
     <use xlink:href="#DejaVuSans-33" x="161.914062"/>
    </g>
   </g>
  </g>
  <g id="axes_1">
   <g id="line2d_18">
    <path d="M 396.833574 367.363347 
L 372.135057 395.580329 
L 325.882992 396.512877 
L 298.168279 378.079694 
L 293.857258 358.293826 
L 289.375775 316.188449 
L 315.480907 272.467428 
L 327.221743 251.392636 
L 365.320845 224.726051 
L 376.043941 223.760584 
L 409.732876 227.432089 
L 418.115751 237.056811 
L 441.987564 245.664661 
L 449.515813 267.130839 
L 442.928417 295.689587 
L 421.66358 330.103682 
L 396.833574 367.363347 
" clip-path="url(#pd02dc9ff7d)" style="fill: none; stroke: #808080; stroke-opacity: 0.7; stroke-width: 1.5; stroke-linecap: square"/>
   </g>
   <g id="line2d_19">
    <path d="M 252.024018 274.988938 
L 270.431832 296.094337 
L 320.577797 299.653934 
L 359.316184 309.84467 
L 399.776105 319.216476 
L 442.986016 324.627026 
L 471.975552 345.362512 
L 503.82011 345.732863 
L 490.365157 370.003717 
L 475.291228 318.207988 
L 446.478536 290.400642 
L 398.174868 272.512009 
L 348.31893 232.377585 
L 307.376814 240.790907 
L 274.227973 244.973954 
L 249.271332 265.014169 
L 252.024018 274.988938 
" clip-path="url(#pd02dc9ff7d)" style="fill: none; stroke: #808080; stroke-opacity: 0.7; stroke-width: 1.5; stroke-linecap: square"/>
   </g>
   <g id="Poly3DCollection_1">
    <path d="M 444.017396 288.616169 
L 440.398027 296.892671 
L 428.542757 290.491821 
L 432.221574 282.237503 
z
" clip-path="url(#pd02dc9ff7d)" style="fill: #808080; fill-opacity: 0.3"/>
    <path d="M 432.221574 282.237503 
L 428.542757 290.491821 
L 416.664381 284.078497 
L 420.40287 275.846465 
z
" clip-path="url(#pd02dc9ff7d)" style="fill: #808080; fill-opacity: 0.3"/>
    <path d="M 420.40287 275.846465 
L 416.664381 284.078497 
L 404.762832 277.65266 
L 408.561219 269.443017 
z
" clip-path="url(#pd02dc9ff7d)" style="fill: #808080; fill-opacity: 0.3"/>
    <path d="M 408.561219 269.443017 
L 404.762832 277.65266 
L 392.838042 271.214276 
L 396.696553 263.027123 
z
" clip-path="url(#pd02dc9ff7d)" style="fill: #808080; fill-opacity: 0.3"/>
    <path d="M 396.696553 263.027123 
L 392.838042 271.214276 
L 380.889942 264.763306 
L 384.808805 256.598748 
z
" clip-path="url(#pd02dc9ff7d)" style="fill: #808080; fill-opacity: 0.3"/>
    <path d="M 440.398027 296.892671 
L 436.744209 305.247948 
L 424.828891 298.82478 
L 428.542757 290.491821 
z
" clip-path="url(#pd02dc9ff7d)" style="fill: #808080; fill-opacity: 0.3"/>
    <path d="M 384.808805 256.598748 
L 380.889942 264.763306 
L 368.918465 258.299714 
L 372.897908 250.157855 
z
" clip-path="url(#pd02dc9ff7d)" style="fill: #808080; fill-opacity: 0.3"/>
    <path d="M 428.542757 290.491821 
L 424.828891 298.82478 
L 412.89024 292.389034 
L 416.664381 284.078497 
z
" clip-path="url(#pd02dc9ff7d)" style="fill: #808080; fill-opacity: 0.3"/>
    <path d="M 372.897908 250.157855 
L 368.918465 258.299714 
L 356.923541 251.823464 
L 360.963793 243.704407 
z
" clip-path="url(#pd02dc9ff7d)" style="fill: #808080; fill-opacity: 0.3"/>
    <path d="M 416.664381 284.078497 
L 412.89024 292.389034 
L 400.928186 285.940673 
L 404.762832 277.65266 
z
" clip-path="url(#pd02dc9ff7d)" style="fill: #808080; fill-opacity: 0.3"/>
    <path d="M 360.963793 243.704407 
L 356.923541 251.823464 
L 344.905102 245.334516 
L 349.006394 237.238367 
z
" clip-path="url(#pd02dc9ff7d)" style="fill: #808080; fill-opacity: 0.3"/>
    <path d="M 404.762832 277.65266 
L 400.928186 285.940673 
L 388.942661 279.479659 
L 392.838042 271.214276 
z
" clip-path="url(#pd02dc9ff7d)" style="fill: #808080; fill-opacity: 0.3"/>
    <path d="M 349.006394 237.238367 
L 344.905102 245.334516 
L 332.863078 238.832836 
L 337.025641 230.759699 
z
" clip-path="url(#pd02dc9ff7d)" style="fill: #808080; fill-opacity: 0.3"/>
    <path d="M 392.838042 271.214276 
L 388.942661 279.479659 
L 376.933597 273.005955 
L 380.889942 264.763306 
z
" clip-path="url(#pd02dc9ff7d)" style="fill: #808080; fill-opacity: 0.3"/>
    <path d="M 436.744209 305.247948 
L 433.055449 313.68313 
L 421.079473 307.237509 
L 424.828891 298.82478 
z
" clip-path="url(#pd02dc9ff7d)" style="fill: #808080; fill-opacity: 0.3"/>
    <path d="M 380.889942 264.763306 
L 376.933597 273.005955 
L 364.900922 266.519525 
L 368.918465 258.299714 
z
" clip-path="url(#pd02dc9ff7d)" style="fill: #808080; fill-opacity: 0.3"/>
    <path d="M 424.828891 298.82478 
L 421.079473 307.237509 
L 409.079933 300.779205 
L 412.89024 292.389034 
z
" clip-path="url(#pd02dc9ff7d)" style="fill: #808080; fill-opacity: 0.3"/>
    <path d="M 368.918465 258.299714 
L 364.900922 266.519525 
L 352.844569 260.020329 
L 356.923541 251.823464 
z
" clip-path="url(#pd02dc9ff7d)" style="fill: #808080; fill-opacity: 0.3"/>
    <path d="M 412.89024 292.389034 
L 409.079933 300.779205 
L 397.056759 294.308181 
L 400.928186 285.940673 
z
" clip-path="url(#pd02dc9ff7d)" style="fill: #808080; fill-opacity: 0.3"/>
    <path d="M 356.923541 251.823464 
L 352.844569 260.020329 
L 340.764466 253.508331 
L 344.905102 245.334516 
z
" clip-path="url(#pd02dc9ff7d)" style="fill: #808080; fill-opacity: 0.3"/>
    <path d="M 400.928186 285.940673 
L 397.056759 294.308181 
L 385.009881 287.824399 
L 388.942661 279.479659 
z
" clip-path="url(#pd02dc9ff7d)" style="fill: #808080; fill-opacity: 0.3"/>
    <path d="M 344.905102 245.334516 
L 340.764466 253.508331 
L 328.660544 246.983493 
L 332.863078 238.832836 
z
" clip-path="url(#pd02dc9ff7d)" style="fill: #808080; fill-opacity: 0.3"/>
    <path d="M 388.942661 279.479659 
L 385.009881 287.824399 
L 372.939228 281.327821 
L 376.933597 273.005955 
z
" clip-path="url(#pd02dc9ff7d)" style="fill: #808080; fill-opacity: 0.3"/>
    <path d="M 433.055449 313.68313 
L 429.331241 322.199369 
L 417.29399 315.731159 
L 421.079473 307.237509 
z
" clip-path="url(#pd02dc9ff7d)" style="fill: #808080; fill-opacity: 0.3"/>
    <path d="M 376.933597 273.005955 
L 372.939228 281.327821 
L 360.844731 274.81841 
L 364.900922 266.519525 
z
" clip-path="url(#pd02dc9ff7d)" style="fill: #808080; fill-opacity: 0.3"/>
    <path d="M 421.079473 307.237509 
L 417.29399 315.731159 
L 405.23294 309.25016 
L 409.079933 300.779205 
z
" clip-path="url(#pd02dc9ff7d)" style="fill: #808080; fill-opacity: 0.3"/>
    <path d="M 364.900922 266.519525 
L 360.844731 274.81841 
L 348.726318 268.296128 
L 352.844569 260.020329 
z
" clip-path="url(#pd02dc9ff7d)" style="fill: #808080; fill-opacity: 0.3"/>
    <path d="M 409.079933 300.779205 
L 405.23294 309.25016 
L 393.14802 302.756335 
L 397.056759 294.308181 
z
" clip-path="url(#pd02dc9ff7d)" style="fill: #808080; fill-opacity: 0.3"/>
    <path d="M 352.844569 260.020329 
L 348.726318 268.296128 
L 336.583919 261.760935 
L 340.764466 253.508331 
z
" clip-path="url(#pd02dc9ff7d)" style="fill: #808080; fill-opacity: 0.3"/>
    <path d="M 397.056759 294.308181 
L 393.14802 302.756335 
L 381.039159 296.249645 
L 385.009881 287.824399 
z
" clip-path="url(#pd02dc9ff7d)" style="fill: #808080; fill-opacity: 0.3"/>
    <path d="M 340.764466 253.508331 
L 336.583919 261.760935 
L 324.417462 255.212794 
L 328.660544 246.983493 
z
" clip-path="url(#pd02dc9ff7d)" style="fill: #808080; fill-opacity: 0.3"/>
    <path d="M 385.009881 287.824399 
L 381.039159 296.249645 
L 368.906286 289.730052 
L 372.939228 281.327821 
z
" clip-path="url(#pd02dc9ff7d)" style="fill: #808080; fill-opacity: 0.3"/>
    <path d="M 429.331241 322.199369 
L 425.571073 330.797839 
L 413.471919 324.306903 
L 417.29399 315.731159 
z
" clip-path="url(#pd02dc9ff7d)" style="fill: #808080; fill-opacity: 0.3"/>
    <path d="M 372.939228 281.327821 
L 368.906286 289.730052 
L 356.74933 283.197518 
L 360.844731 274.81841 
z
" clip-path="url(#pd02dc9ff7d)" style="fill: #808080; fill-opacity: 0.3"/>
    <path d="M 417.29399 315.731159 
L 413.471919 324.306903 
L 401.348727 317.803071 
L 405.23294 309.25016 
z
" clip-path="url(#pd02dc9ff7d)" style="fill: #808080; fill-opacity: 0.3"/>
    <path d="M 360.844731 274.81841 
L 356.74933 283.197518 
L 344.568218 276.652004 
L 348.726318 268.296128 
z
" clip-path="url(#pd02dc9ff7d)" style="fill: #808080; fill-opacity: 0.3"/>
    <path d="M 405.23294 309.25016 
L 401.348727 317.803071 
L 389.201426 311.286305 
L 393.14802 302.756335 
z
" clip-path="url(#pd02dc9ff7d)" style="fill: #808080; fill-opacity: 0.3"/>
    <path d="M 348.726318 268.296128 
L 344.568218 276.652004 
L 332.362879 270.093472 
L 336.583919 261.760935 
z
" clip-path="url(#pd02dc9ff7d)" style="fill: #808080; fill-opacity: 0.3"/>
    <path d="M 393.14802 302.756335 
L 389.201426 311.286305 
L 377.029944 304.756567 
L 381.039159 296.249645 
z
" clip-path="url(#pd02dc9ff7d)" style="fill: #808080; fill-opacity: 0.3"/>
    <path d="M 336.583919 261.760935 
L 332.362879 270.093472 
L 320.13324 263.521882 
L 324.417462 255.212794 
z
" clip-path="url(#pd02dc9ff7d)" style="fill: #808080; fill-opacity: 0.3"/>
    <path d="M 381.039159 296.249645 
L 377.029944 304.756567 
L 364.834208 298.213817 
L 368.906286 289.730052 
z
" clip-path="url(#pd02dc9ff7d)" style="fill: #808080; fill-opacity: 0.3"/>
    <path d="M 425.571073 330.797839 
L 421.774422 339.479737 
L 409.612726 332.965937 
L 413.471919 324.306903 
z
" clip-path="url(#pd02dc9ff7d)" style="fill: #808080; fill-opacity: 0.3"/>
    <path d="M 368.906286 289.730052 
L 364.834208 298.213817 
L 352.614147 291.658017 
L 356.74933 283.197518 
z
" clip-path="url(#pd02dc9ff7d)" style="fill: #808080; fill-opacity: 0.3"/>
    <path d="M 413.471919 324.306903 
L 409.612726 332.965937 
L 397.426751 326.439133 
L 401.348727 317.803071 
z
" clip-path="url(#pd02dc9ff7d)" style="fill: #808080; fill-opacity: 0.3"/>
    <path d="M 356.74933 283.197518 
L 352.614147 291.658017 
L 340.369688 285.089127 
L 344.568218 276.652004 
z
" clip-path="url(#pd02dc9ff7d)" style="fill: #808080; fill-opacity: 0.3"/>
    <path d="M 401.348727 317.803071 
L 397.426751 326.439133 
L 385.216425 319.899287 
L 389.201426 311.286305 
z
" clip-path="url(#pd02dc9ff7d)" style="fill: #808080; fill-opacity: 0.3"/>
    <path d="M 344.568218 276.652004 
L 340.369688 285.089127 
L 328.100756 278.507109 
L 332.362879 270.093472 
z
" clip-path="url(#pd02dc9ff7d)" style="fill: #808080; fill-opacity: 0.3"/>
    <path d="M 389.201426 311.286305 
L 385.216425 319.899287 
L 372.981673 313.346358 
L 377.029944 304.756567 
z
" clip-path="url(#pd02dc9ff7d)" style="fill: #808080; fill-opacity: 0.3"/>
    <path d="M 332.362879 270.093472 
L 328.100756 278.507109 
L 315.807279 271.911923 
L 320.13324 263.521882 
z
" clip-path="url(#pd02dc9ff7d)" style="fill: #808080; fill-opacity: 0.3"/>
    <path d="M 377.029944 304.756567 
L 372.981673 313.346358 
L 360.722424 306.780308 
L 364.834208 298.213817 
z
" clip-path="url(#pd02dc9ff7d)" style="fill: #808080; fill-opacity: 0.3"/>
    <path d="M 421.774422 339.479737 
L 417.940754 348.246282 
L 405.715869 341.709481 
L 409.612726 332.965937 
z
" clip-path="url(#pd02dc9ff7d)" style="fill: #808080; fill-opacity: 0.3"/>
    <path d="M 364.834208 298.213817 
L 360.722424 306.780308 
L 348.438602 300.201098 
L 352.614147 291.658017 
z
" clip-path="url(#pd02dc9ff7d)" style="fill: #808080; fill-opacity: 0.3"/>
    <path d="M 409.612726 332.965937 
L 405.715869 341.709481 
L 393.466461 335.159565 
L 397.426751 326.439133 
z
" clip-path="url(#pd02dc9ff7d)" style="fill: #808080; fill-opacity: 0.3"/>
    <path d="M 352.614147 291.658017 
L 348.438602 300.201098 
L 336.130135 293.608687 
L 340.369688 285.089127 
z
" clip-path="url(#pd02dc9ff7d)" style="fill: #808080; fill-opacity: 0.3"/>
    <path d="M 397.426751 326.439133 
L 393.466461 335.159565 
L 381.192453 328.596497 
L 385.216425 319.899287 
z
" clip-path="url(#pd02dc9ff7d)" style="fill: #808080; fill-opacity: 0.3"/>
    <path d="M 340.369688 285.089127 
L 336.130135 293.608687 
L 323.796947 287.003037 
L 328.100756 278.507109 
z
" clip-path="url(#pd02dc9ff7d)" style="fill: #808080; fill-opacity: 0.3"/>
    <path d="M 385.216425 319.899287 
L 381.192453 328.596497 
L 368.893774 322.020236 
L 372.981673 313.346358 
z
" clip-path="url(#pd02dc9ff7d)" style="fill: #808080; fill-opacity: 0.3"/>
    <path d="M 328.100756 278.507109 
L 323.796947 287.003037 
L 311.438965 280.384106 
L 315.807279 271.911923 
z
" clip-path="url(#pd02dc9ff7d)" style="fill: #808080; fill-opacity: 0.3"/>
    <path d="M 372.981673 313.346358 
L 368.893774 322.020236 
L 356.570347 315.430743 
L 360.722424 306.780308 
z
" clip-path="url(#pd02dc9ff7d)" style="fill: #808080; fill-opacity: 0.3"/>
    <path d="M 417.940754 348.246282 
L 414.069525 357.09872 
L 401.780794 350.538777 
L 405.715869 341.709481 
z
" clip-path="url(#pd02dc9ff7d)" style="fill: #808080; fill-opacity: 0.3"/>
    <path d="M 360.722424 306.780308 
L 356.570347 315.430743 
L 344.222099 308.827977 
L 348.438602 300.201098 
z
" clip-path="url(#pd02dc9ff7d)" style="fill: #808080; fill-opacity: 0.3"/>
    <path d="M 405.715869 341.709481 
L 401.780794 350.538777 
L 389.46729 343.96561 
L 393.466461 335.159565 
z
" clip-path="url(#pd02dc9ff7d)" style="fill: #808080; fill-opacity: 0.3"/>
    <path d="M 348.438602 300.201098 
L 344.222099 308.827977 
L 331.848955 302.211898 
L 336.130135 293.608687 
z
" clip-path="url(#pd02dc9ff7d)" style="fill: #808080; fill-opacity: 0.3"/>
    <path d="M 393.466461 335.159565 
L 389.46729 343.96561 
L 377.128937 337.379178 
L 381.192453 328.596497 
z
" clip-path="url(#pd02dc9ff7d)" style="fill: #808080; fill-opacity: 0.3"/>
    <path d="M 336.130135 293.608687 
L 331.848955 302.211898 
L 319.450838 295.582467 
L 323.796947 287.003037 
z
" clip-path="url(#pd02dc9ff7d)" style="fill: #808080; fill-opacity: 0.3"/>
    <path d="M 381.192453 328.596497 
L 377.128937 337.379178 
L 364.765661 330.779441 
L 368.893774 322.020236 
z
" clip-path="url(#pd02dc9ff7d)" style="fill: #808080; fill-opacity: 0.3"/>
    <path d="M 323.796947 287.003037 
L 319.450838 295.582467 
L 307.027673 288.939643 
L 311.438965 280.384106 
z
" clip-path="url(#pd02dc9ff7d)" style="fill: #808080; fill-opacity: 0.3"/>
    <path d="M 368.893774 322.020236 
L 364.765661 330.779441 
L 352.377385 324.16636 
L 356.570347 315.430743 
z
" clip-path="url(#pd02dc9ff7d)" style="fill: #808080; fill-opacity: 0.3"/>
    <path d="M 414.069525 357.09872 
L 410.16018 366.038317 
L 397.806935 359.455094 
L 401.780794 350.538777 
z
" clip-path="url(#pd02dc9ff7d)" style="fill: #808080; fill-opacity: 0.3"/>
    <path d="M 356.570347 315.430743 
L 352.377385 324.16636 
L 339.964034 317.539892 
L 344.222099 308.827977 
z
" clip-path="url(#pd02dc9ff7d)" style="fill: #808080; fill-opacity: 0.3"/>
    <path d="M 401.780794 350.538777 
L 397.806935 359.455094 
L 385.428664 352.858533 
L 389.46729 343.96561 
z
" clip-path="url(#pd02dc9ff7d)" style="fill: #808080; fill-opacity: 0.3"/>
    <path d="M 344.222099 308.827977 
L 339.964034 317.539892 
L 327.525531 310.899999 
L 331.848955 302.211898 
z
" clip-path="url(#pd02dc9ff7d)" style="fill: #808080; fill-opacity: 0.3"/>
    <path d="M 389.46729 343.96561 
L 385.428664 352.858533 
L 373.02529 346.248595 
L 377.128937 337.379178 
z
" clip-path="url(#pd02dc9ff7d)" style="fill: #808080; fill-opacity: 0.3"/>
    <path d="M 331.848955 302.211898 
L 327.525531 310.899999 
L 315.061801 304.246638 
L 319.450838 295.582467 
z
" clip-path="url(#pd02dc9ff7d)" style="fill: #808080; fill-opacity: 0.3"/>
    <path d="M 377.128937 337.379178 
L 373.02529 346.248595 
L 360.596737 339.625239 
L 364.765661 330.779441 
z
" clip-path="url(#pd02dc9ff7d)" style="fill: #808080; fill-opacity: 0.3"/>
    <path d="M 319.450838 295.582467 
L 315.061801 304.246638 
L 302.572766 297.57977 
L 307.027673 288.939643 
z
" clip-path="url(#pd02dc9ff7d)" style="fill: #808080; fill-opacity: 0.3"/>
    <path d="M 364.765661 330.779441 
L 360.596737 339.625239 
L 348.142929 332.988424 
L 352.377385 324.16636 
z
" clip-path="url(#pd02dc9ff7d)" style="fill: #808080; fill-opacity: 0.3"/>
    <path d="M 352.377385 324.16636 
L 348.142929 332.988424 
L 335.663788 326.338108 
L 339.964034 317.539892 
z
" clip-path="url(#pd02dc9ff7d)" style="fill: #808080; fill-opacity: 0.3"/>
    <path d="M 339.964034 317.539892 
L 335.663788 326.338108 
L 323.159237 319.674251 
L 327.525531 310.899999 
z
" clip-path="url(#pd02dc9ff7d)" style="fill: #808080; fill-opacity: 0.3"/>
    <path d="M 327.525531 310.899999 
L 323.159237 319.674251 
L 310.629198 312.996812 
L 315.061801 304.246638 
z
" clip-path="url(#pd02dc9ff7d)" style="fill: #808080; fill-opacity: 0.3"/>
    <path d="M 315.061801 304.246638 
L 310.629198 312.996812 
L 298.073593 306.305748 
L 302.572766 297.57977 
z
" clip-path="url(#pd02dc9ff7d)" style="fill: #808080; fill-opacity: 0.3"/>
   </g>
   <g id="Poly3DCollection_2">
    <path d="M 328.002956 289.385766 
L 314.882121 284.087181 
L 315.206925 287.266714 
L 328.257185 292.540657 
z
" clip-path="url(#pd02dc9ff7d)" style="fill: #808080; fill-opacity: 0.3"/>
    <path d="M 341.157233 294.697855 
L 328.002956 289.385766 
L 328.257185 292.540657 
L 341.340527 297.827969 
z
" clip-path="url(#pd02dc9ff7d)" style="fill: #808080; fill-opacity: 0.3"/>
    <path d="M 354.34508 300.023501 
L 341.157233 294.697855 
L 341.340527 297.827969 
L 354.457076 303.128701 
z
" clip-path="url(#pd02dc9ff7d)" style="fill: #808080; fill-opacity: 0.3"/>
    <path d="M 367.566626 305.362756 
L 354.34508 300.023501 
L 354.457076 303.128701 
L 367.60696 308.442905 
z
" clip-path="url(#pd02dc9ff7d)" style="fill: #808080; fill-opacity: 0.3"/>
    <path d="M 380.822 310.715671 
L 367.566626 305.362756 
L 367.60696 308.442905 
L 380.790306 313.770632 
z
" clip-path="url(#pd02dc9ff7d)" style="fill: #808080; fill-opacity: 0.3"/>
    <path d="M 327.745946 286.196364 
L 314.553768 280.872913 
L 314.882121 284.087181 
L 328.002956 289.385766 
z
" clip-path="url(#pd02dc9ff7d)" style="fill: #808080; fill-opacity: 0.3"/>
    <path d="M 394.111332 316.0823 
L 380.822 310.715671 
L 380.790306 313.770632 
L 394.007241 319.111932 
z
" clip-path="url(#pd02dc9ff7d)" style="fill: #808080; fill-opacity: 0.3"/>
    <path d="M 340.971932 291.533458 
L 327.745946 286.196364 
L 328.002956 289.385766 
L 341.157233 294.697855 
z
" clip-path="url(#pd02dc9ff7d)" style="fill: #808080; fill-opacity: 0.3"/>
    <path d="M 407.434752 321.462694 
L 394.111332 316.0823 
L 394.007241 319.111932 
L 407.257895 324.466859 
z
" clip-path="url(#pd02dc9ff7d)" style="fill: #808080; fill-opacity: 0.3"/>
    <path d="M 354.231856 296.884247 
L 340.971932 291.533458 
L 341.157233 294.697855 
L 354.34508 300.023501 
z
" clip-path="url(#pd02dc9ff7d)" style="fill: #808080; fill-opacity: 0.3"/>
    <path d="M 420.792392 326.856908 
L 407.434752 321.462694 
L 407.257895 324.466859 
L 420.542395 329.835465 
z
" clip-path="url(#pd02dc9ff7d)" style="fill: #808080; fill-opacity: 0.3"/>
    <path d="M 367.525849 302.248783 
L 354.231856 296.884247 
L 354.34508 300.023501 
L 367.566626 305.362756 
z
" clip-path="url(#pd02dc9ff7d)" style="fill: #808080; fill-opacity: 0.3"/>
    <path d="M 434.184385 332.264994 
L 420.792392 326.856908 
L 420.542395 329.835465 
L 433.860873 335.217802 
z
" clip-path="url(#pd02dc9ff7d)" style="fill: #808080; fill-opacity: 0.3"/>
    <path d="M 380.854042 307.627121 
L 367.525849 302.248783 
L 367.566626 305.362756 
L 380.822 310.715671 
z
" clip-path="url(#pd02dc9ff7d)" style="fill: #808080; fill-opacity: 0.3"/>
    <path d="M 327.486109 282.971882 
L 314.221808 277.623336 
L 314.553768 280.872913 
L 327.745946 286.196364 
z
" clip-path="url(#pd02dc9ff7d)" style="fill: #808080; fill-opacity: 0.3"/>
    <path d="M 394.216568 313.019313 
L 380.854042 307.627121 
L 380.822 310.715671 
L 394.111332 316.0823 
z
" clip-path="url(#pd02dc9ff7d)" style="fill: #808080; fill-opacity: 0.3"/>
    <path d="M 340.78459 288.334211 
L 327.486109 282.971882 
L 327.745946 286.196364 
L 340.971932 291.533458 
z
" clip-path="url(#pd02dc9ff7d)" style="fill: #808080; fill-opacity: 0.3"/>
    <path d="M 407.613559 318.425413 
L 394.216568 313.019313 
L 394.111332 316.0823 
L 407.434752 321.462694 
z
" clip-path="url(#pd02dc9ff7d)" style="fill: #808080; fill-opacity: 0.3"/>
    <path d="M 354.117383 293.710375 
L 340.78459 288.334211 
L 340.971932 291.533458 
L 354.231856 296.884247 
z
" clip-path="url(#pd02dc9ff7d)" style="fill: #808080; fill-opacity: 0.3"/>
    <path d="M 421.045149 323.845474 
L 407.613559 318.425413 
L 407.434752 321.462694 
L 420.792392 326.856908 
z
" clip-path="url(#pd02dc9ff7d)" style="fill: #808080; fill-opacity: 0.3"/>
    <path d="M 367.484622 299.100428 
L 354.117383 293.710375 
L 354.231856 296.884247 
L 367.525849 302.248783 
z
" clip-path="url(#pd02dc9ff7d)" style="fill: #808080; fill-opacity: 0.3"/>
    <path d="M 434.511472 329.279551 
L 421.045149 323.845474 
L 420.792392 326.856908 
L 434.184385 332.264994 
z
" clip-path="url(#pd02dc9ff7d)" style="fill: #808080; fill-opacity: 0.3"/>
    <path d="M 380.886439 304.504425 
L 367.484622 299.100428 
L 367.525849 302.248783 
L 380.854042 307.627121 
z
" clip-path="url(#pd02dc9ff7d)" style="fill: #808080; fill-opacity: 0.3"/>
    <path d="M 327.223399 279.711739 
L 313.886182 274.337867 
L 314.221808 277.623336 
L 327.486109 282.971882 
z
" clip-path="url(#pd02dc9ff7d)" style="fill: #808080; fill-opacity: 0.3"/>
    <path d="M 394.322969 309.922418 
L 380.886439 304.504425 
L 380.854042 307.627121 
L 394.216568 313.019313 
z
" clip-path="url(#pd02dc9ff7d)" style="fill: #808080; fill-opacity: 0.3"/>
    <path d="M 340.595174 285.099535 
L 327.223399 279.711739 
L 327.486109 282.971882 
L 340.78459 288.334211 
z
" clip-path="url(#pd02dc9ff7d)" style="fill: #808080; fill-opacity: 0.3"/>
    <path d="M 407.794348 315.354464 
L 394.322969 309.922418 
L 394.216568 313.019313 
L 407.613559 318.425413 
z
" clip-path="url(#pd02dc9ff7d)" style="fill: #808080; fill-opacity: 0.3"/>
    <path d="M 354.001641 290.501309 
L 340.595174 285.099535 
L 340.78459 288.334211 
L 354.117383 293.710375 
z
" clip-path="url(#pd02dc9ff7d)" style="fill: #808080; fill-opacity: 0.3"/>
    <path d="M 421.300711 320.800616 
L 407.794348 315.354464 
L 407.613559 318.425413 
L 421.045149 323.845474 
z
" clip-path="url(#pd02dc9ff7d)" style="fill: #808080; fill-opacity: 0.3"/>
    <path d="M 367.442936 295.917117 
L 354.001641 290.501309 
L 354.117383 293.710375 
L 367.484622 299.100428 
z
" clip-path="url(#pd02dc9ff7d)" style="fill: #808080; fill-opacity: 0.3"/>
    <path d="M 434.842194 326.26093 
L 421.300711 320.800616 
L 421.045149 323.845474 
L 434.511472 329.279551 
z
" clip-path="url(#pd02dc9ff7d)" style="fill: #808080; fill-opacity: 0.3"/>
    <path d="M 380.919195 301.347012 
L 367.442936 295.917117 
L 367.484622 299.100428 
L 380.886439 304.504425 
z
" clip-path="url(#pd02dc9ff7d)" style="fill: #808080; fill-opacity: 0.3"/>
    <path d="M 326.957766 276.415338 
L 313.546828 271.015906 
L 313.886182 274.337867 
L 327.223399 279.711739 
z
" clip-path="url(#pd02dc9ff7d)" style="fill: #808080; fill-opacity: 0.3"/>
    <path d="M 394.430555 306.79105 
L 380.919195 301.347012 
L 380.886439 304.504425 
L 394.322969 309.922418 
z
" clip-path="url(#pd02dc9ff7d)" style="fill: #808080; fill-opacity: 0.3"/>
    <path d="M 340.403648 281.828838 
L 326.957766 276.415338 
L 327.223399 279.711739 
L 340.595174 285.099535 
z
" clip-path="url(#pd02dc9ff7d)" style="fill: #808080; fill-opacity: 0.3"/>
    <path d="M 407.977152 312.249286 
L 394.430555 306.79105 
L 394.322969 309.922418 
L 407.794348 315.354464 
z
" clip-path="url(#pd02dc9ff7d)" style="fill: #808080; fill-opacity: 0.3"/>
    <path d="M 353.884608 287.256462 
L 340.403648 281.828838 
L 340.595174 285.099535 
L 354.001641 290.501309 
z
" clip-path="url(#pd02dc9ff7d)" style="fill: #808080; fill-opacity: 0.3"/>
    <path d="M 421.559125 317.721776 
L 407.977152 312.249286 
L 407.794348 315.354464 
L 421.300711 320.800616 
z
" clip-path="url(#pd02dc9ff7d)" style="fill: #808080; fill-opacity: 0.3"/>
    <path d="M 367.400786 292.698264 
L 353.884608 287.256462 
L 354.001641 290.501309 
L 367.442936 295.917117 
z
" clip-path="url(#pd02dc9ff7d)" style="fill: #808080; fill-opacity: 0.3"/>
    <path d="M 435.176612 323.208575 
L 421.559125 317.721776 
L 421.300711 320.800616 
L 434.842194 326.26093 
z
" clip-path="url(#pd02dc9ff7d)" style="fill: #808080; fill-opacity: 0.3"/>
    <path d="M 380.952318 298.154301 
L 367.400786 292.698264 
L 367.442936 295.917117 
L 380.919195 301.347012 
z
" clip-path="url(#pd02dc9ff7d)" style="fill: #808080; fill-opacity: 0.3"/>
    <path d="M 326.689163 273.082072 
L 313.203683 267.656842 
L 313.546828 271.015906 
L 326.957766 276.415338 
z
" clip-path="url(#pd02dc9ff7d)" style="fill: #808080; fill-opacity: 0.3"/>
    <path d="M 394.539345 303.624629 
L 380.952318 298.154301 
L 380.919195 301.347012 
L 394.430555 306.79105 
z
" clip-path="url(#pd02dc9ff7d)" style="fill: #808080; fill-opacity: 0.3"/>
    <path d="M 340.209977 278.521516 
L 326.689163 273.082072 
L 326.957766 276.415338 
L 340.403648 281.828838 
z
" clip-path="url(#pd02dc9ff7d)" style="fill: #808080; fill-opacity: 0.3"/>
    <path d="M 408.162005 309.109303 
L 394.539345 303.624629 
L 394.430555 306.79105 
L 407.977152 312.249286 
z
" clip-path="url(#pd02dc9ff7d)" style="fill: #808080; fill-opacity: 0.3"/>
    <path d="M 353.766263 283.97523 
L 340.209977 278.521516 
L 340.403648 281.828838 
L 353.884608 287.256462 
z
" clip-path="url(#pd02dc9ff7d)" style="fill: #808080; fill-opacity: 0.3"/>
    <path d="M 421.820439 314.60838 
L 408.162005 309.109303 
L 407.977152 312.249286 
L 421.559125 317.721776 
z
" clip-path="url(#pd02dc9ff7d)" style="fill: #808080; fill-opacity: 0.3"/>
    <path d="M 367.358162 289.443272 
L 353.766263 283.97523 
L 353.884608 287.256462 
L 367.400786 292.698264 
z
" clip-path="url(#pd02dc9ff7d)" style="fill: #808080; fill-opacity: 0.3"/>
    <path d="M 435.514788 320.121917 
L 421.820439 314.60838 
L 421.559125 317.721776 
L 435.176612 323.208575 
z
" clip-path="url(#pd02dc9ff7d)" style="fill: #808080; fill-opacity: 0.3"/>
    <path d="M 380.985814 294.925697 
L 367.358162 289.443272 
L 367.400786 292.698264 
L 380.952318 298.154301 
z
" clip-path="url(#pd02dc9ff7d)" style="fill: #808080; fill-opacity: 0.3"/>
    <path d="M 326.41754 269.711319 
L 312.856685 264.260052 
L 313.203683 267.656842 
L 326.689163 273.082072 
z
" clip-path="url(#pd02dc9ff7d)" style="fill: #808080; fill-opacity: 0.3"/>
    <path d="M 394.64936 300.422563 
L 380.985814 294.925697 
L 380.952318 298.154301 
L 394.539345 303.624629 
z
" clip-path="url(#pd02dc9ff7d)" style="fill: #808080; fill-opacity: 0.3"/>
    <path d="M 340.014125 275.176949 
L 326.41754 269.711319 
L 326.689163 273.082072 
L 340.209977 278.521516 
z
" clip-path="url(#pd02dc9ff7d)" style="fill: #808080; fill-opacity: 0.3"/>
    <path d="M 408.348942 305.933925 
L 394.64936 300.422563 
L 394.539345 303.624629 
L 408.162005 309.109303 
z
" clip-path="url(#pd02dc9ff7d)" style="fill: #808080; fill-opacity: 0.3"/>
    <path d="M 353.646584 280.657 
L 340.014125 275.176949 
L 340.209977 278.521516 
L 353.766263 283.97523 
z
" clip-path="url(#pd02dc9ff7d)" style="fill: #808080; fill-opacity: 0.3"/>
    <path d="M 422.084703 311.459843 
L 408.348942 305.933925 
L 408.162005 309.109303 
L 421.820439 314.60838 
z
" clip-path="url(#pd02dc9ff7d)" style="fill: #808080; fill-opacity: 0.3"/>
    <path d="M 367.315057 286.151528 
L 353.646584 280.657 
L 353.766263 283.97523 
L 367.358162 289.443272 
z
" clip-path="url(#pd02dc9ff7d)" style="fill: #808080; fill-opacity: 0.3"/>
    <path d="M 435.856786 317.000373 
L 422.084703 311.459843 
L 421.820439 314.60838 
L 435.514788 320.121917 
z
" clip-path="url(#pd02dc9ff7d)" style="fill: #808080; fill-opacity: 0.3"/>
    <path d="M 381.019688 291.660591 
L 367.315057 286.151528 
L 367.358162 289.443272 
L 380.985814 294.925697 
z
" clip-path="url(#pd02dc9ff7d)" style="fill: #808080; fill-opacity: 0.3"/>
    <path d="M 326.142844 266.302443 
L 312.505767 260.824894 
L 312.856685 264.260052 
L 326.41754 269.711319 
z
" clip-path="url(#pd02dc9ff7d)" style="fill: #808080; fill-opacity: 0.3"/>
    <path d="M 394.76062 297.184247 
L 381.019688 291.660591 
L 380.985814 294.925697 
L 394.64936 300.422563 
z
" clip-path="url(#pd02dc9ff7d)" style="fill: #808080; fill-opacity: 0.3"/>
    <path d="M 339.816056 271.794506 
L 326.142844 266.302443 
L 326.41754 269.711319 
L 340.014125 275.176949 
z
" clip-path="url(#pd02dc9ff7d)" style="fill: #808080; fill-opacity: 0.3"/>
    <path d="M 408.537998 302.722553 
L 394.76062 297.184247 
L 394.64936 300.422563 
L 408.348942 305.933925 
z
" clip-path="url(#pd02dc9ff7d)" style="fill: #808080; fill-opacity: 0.3"/>
    <path d="M 353.525547 277.301141 
L 339.816056 271.794506 
L 340.014125 275.176949 
L 353.646584 280.657 
z
" clip-path="url(#pd02dc9ff7d)" style="fill: #808080; fill-opacity: 0.3"/>
    <path d="M 422.351966 308.275568 
L 408.537998 302.722553 
L 408.348942 305.933925 
L 422.084703 311.459843 
z
" clip-path="url(#pd02dc9ff7d)" style="fill: #808080; fill-opacity: 0.3"/>
    <path d="M 367.271462 282.822406 
L 353.525547 277.301141 
L 353.646584 280.657 
L 367.315057 286.151528 
z
" clip-path="url(#pd02dc9ff7d)" style="fill: #808080; fill-opacity: 0.3"/>
    <path d="M 436.202672 313.843351 
L 422.351966 308.275568 
L 422.084703 311.459843 
L 435.856786 317.000373 
z
" clip-path="url(#pd02dc9ff7d)" style="fill: #808080; fill-opacity: 0.3"/>
    <path d="M 381.053947 288.35836 
L 367.271462 282.822406 
L 367.315057 286.151528 
L 381.019688 291.660591 
z
" clip-path="url(#pd02dc9ff7d)" style="fill: #808080; fill-opacity: 0.3"/>
    <path d="M 325.865024 262.854793 
L 312.150863 257.350716 
L 312.505767 260.824894 
L 326.142844 266.302443 
z
" clip-path="url(#pd02dc9ff7d)" style="fill: #808080; fill-opacity: 0.3"/>
    <path d="M 394.873147 293.909061 
L 381.053947 288.35836 
L 381.019688 291.660591 
L 394.76062 297.184247 
z
" clip-path="url(#pd02dc9ff7d)" style="fill: #808080; fill-opacity: 0.3"/>
    <path d="M 339.61573 268.373538 
L 325.865024 262.854793 
L 326.142844 266.302443 
L 339.816056 271.794506 
z
" clip-path="url(#pd02dc9ff7d)" style="fill: #808080; fill-opacity: 0.3"/>
    <path d="M 408.729209 299.474569 
L 394.873147 293.909061 
L 394.76062 297.184247 
L 408.537998 302.722553 
z
" clip-path="url(#pd02dc9ff7d)" style="fill: #808080; fill-opacity: 0.3"/>
    <path d="M 353.40313 273.907009 
L 339.61573 268.373538 
L 339.816056 271.794506 
L 353.525547 277.301141 
z
" clip-path="url(#pd02dc9ff7d)" style="fill: #808080; fill-opacity: 0.3"/>
    <path d="M 422.622281 305.054942 
L 408.729209 299.474569 
L 408.537998 302.722553 
L 422.351966 308.275568 
z
" clip-path="url(#pd02dc9ff7d)" style="fill: #808080; fill-opacity: 0.3"/>
    <path d="M 367.22737 279.455266 
L 353.40313 273.907009 
L 353.525547 277.301141 
L 367.271462 282.822406 
z
" clip-path="url(#pd02dc9ff7d)" style="fill: #808080; fill-opacity: 0.3"/>
    <path d="M 436.552511 310.650241 
L 422.622281 305.054942 
L 422.351966 308.275568 
L 436.202672 313.843351 
z
" clip-path="url(#pd02dc9ff7d)" style="fill: #808080; fill-opacity: 0.3"/>
    <path d="M 381.088598 285.018368 
L 367.22737 279.455266 
L 367.271462 282.822406 
L 381.053947 288.35836 
z
" clip-path="url(#pd02dc9ff7d)" style="fill: #808080; fill-opacity: 0.3"/>
    <path d="M 394.986962 290.596374 
L 381.088598 285.018368 
L 381.053947 288.35836 
L 394.873147 293.909061 
z
" clip-path="url(#pd02dc9ff7d)" style="fill: #808080; fill-opacity: 0.3"/>
    <path d="M 408.922612 296.189345 
L 394.986962 290.596374 
L 394.873147 293.909061 
L 408.729209 299.474569 
z
" clip-path="url(#pd02dc9ff7d)" style="fill: #808080; fill-opacity: 0.3"/>
    <path d="M 422.895699 301.79734 
L 408.922612 296.189345 
L 408.729209 299.474569 
L 422.622281 305.054942 
z
" clip-path="url(#pd02dc9ff7d)" style="fill: #808080; fill-opacity: 0.3"/>
    <path d="M 436.906372 307.420421 
L 422.895699 301.79734 
L 422.622281 305.054942 
L 436.552511 310.650241 
z
" clip-path="url(#pd02dc9ff7d)" style="fill: #808080; fill-opacity: 0.3"/>
   </g>
   <g id="Path3DCollection_1">
    <defs>
     <path id="C0_0_c147fa225e" d="M 0 5.477226 
C 1.452577 5.477226 2.845856 4.900111 3.872983 3.872983 
C 4.900111 2.845856 5.477226 1.452577 5.477226 -0 
C 5.477226 -1.452577 4.900111 -2.845856 3.872983 -3.872983 
C 2.845856 -4.900111 1.452577 -5.477226 0 -5.477226 
C -1.452577 -5.477226 -2.845856 -4.900111 -3.872983 -3.872983 
C -4.900111 -2.845856 -5.477226 -1.452577 -5.477226 0 
C -5.477226 1.452577 -4.900111 2.845856 -3.872983 3.872983 
C -2.845856 4.900111 -1.452577 5.477226 0 5.477226 
z
"/>
    </defs>
    <g clip-path="url(#pd02dc9ff7d)">
     <use xlink:href="#C0_0_c147fa225e" x="418.115751" y="237.056811" style="fill: #5400ff; fill-opacity: 0.3; stroke: #5400ff; stroke-opacity: 0.3"/>
    </g>
    <g clip-path="url(#pd02dc9ff7d)">
     <use xlink:href="#C0_0_c147fa225e" x="409.732876" y="227.432089" style="fill: #0016ff; fill-opacity: 0.310674; stroke: #0016ff; stroke-opacity: 0.310674"/>
    </g>
    <g clip-path="url(#pd02dc9ff7d)">
     <use xlink:href="#C0_0_c147fa225e" x="441.987564" y="245.664661" style="fill: #b300ff; fill-opacity: 0.340015; stroke: #b300ff; stroke-opacity: 0.340015"/>
    </g>
    <g clip-path="url(#pd02dc9ff7d)">
     <use xlink:href="#C0_0_c147fa225e" x="376.043941" y="223.760584" style="fill: #0074ff; fill-opacity: 0.347677; stroke: #0074ff; stroke-opacity: 0.347677"/>
    </g>
    <g clip-path="url(#pd02dc9ff7d)">
     <use xlink:href="#C0_0_c147fa225e" x="449.515813" y="267.130839" style="fill: #ff00db; fill-opacity: 0.411428; stroke: #ff00db; stroke-opacity: 0.411428"/>
    </g>
    <g clip-path="url(#pd02dc9ff7d)">
     <use xlink:href="#C0_0_c147fa225e" x="442.928417" y="295.689587" style="fill: #ff007c; fill-opacity: 0.492089; stroke: #ff007c; stroke-opacity: 0.492089"/>
    </g>
    <g clip-path="url(#pd02dc9ff7d)">
     <use xlink:href="#C0_0_c147fa225e" x="365.320845" y="224.726051" style="fill: #00dfff; fill-opacity: 0.497935; stroke: #00dfff; stroke-opacity: 0.497935"/>
    </g>
    <g clip-path="url(#pd02dc9ff7d)">
     <use xlink:href="#C0_0_c147fa225e" x="327.221743" y="251.392636" style="fill: #00ffc1; fill-opacity: 0.539862; stroke: #00ffc1; stroke-opacity: 0.539862"/>
    </g>
    <g clip-path="url(#pd02dc9ff7d)">
     <use xlink:href="#C0_0_c147fa225e" x="421.66358" y="330.103682" style="fill: #ff0018; fill-opacity: 0.639538; stroke: #ff0018; stroke-opacity: 0.639538"/>
    </g>
    <g clip-path="url(#pd02dc9ff7d)">
     <use xlink:href="#C0_0_c147fa225e" x="315.480907" y="272.467428" style="fill: #00ff5c; fill-opacity: 0.763604; stroke: #00ff5c; stroke-opacity: 0.763604"/>
    </g>
    <g clip-path="url(#pd02dc9ff7d)">
     <use xlink:href="#C0_0_c147fa225e" x="396.833574" y="367.363347" style="fill: #ff0000; fill-opacity: 0.774806; stroke: #ff0000; stroke-opacity: 0.774806"/>
    </g>
    <g clip-path="url(#pd02dc9ff7d)">
     <use xlink:href="#C0_0_c147fa225e" x="289.375775" y="316.188449" style="fill: #08ff00; fill-opacity: 0.818343; stroke: #08ff00; stroke-opacity: 0.818343"/>
    </g>
    <g clip-path="url(#pd02dc9ff7d)">
     <use xlink:href="#C0_0_c147fa225e" x="372.135057" y="395.580329" style="fill: #ff6400; fill-opacity: 0.868187; stroke: #ff6400; stroke-opacity: 0.868187"/>
    </g>
    <g clip-path="url(#pd02dc9ff7d)">
     <use xlink:href="#C0_0_c147fa225e" x="293.857258" y="358.293826" style="fill: #6cff00; fill-opacity: 0.969477; stroke: #6cff00; stroke-opacity: 0.969477"/>
    </g>
    <g clip-path="url(#pd02dc9ff7d)">
     <use xlink:href="#C0_0_c147fa225e" x="298.168279" y="378.079694" style="fill: #d1ff00; fill-opacity: 0.972247; stroke: #d1ff00; stroke-opacity: 0.972247"/>
    </g>
    <g clip-path="url(#pd02dc9ff7d)">
     <use xlink:href="#C0_0_c147fa225e" x="325.882992" y="396.512877" style="fill: #ffc900; stroke: #ffc900"/>
    </g>
   </g>
   <g id="legend_1">
    <g id="patch_6">
     <path d="M 343.470937 136.36125 
L 578.16 136.36125 
Q 581.76 136.36125 581.76 132.76125 
L 581.76 81.72 
Q 581.76 78.12 578.16 78.12 
L 343.470937 78.12 
Q 339.870937 78.12 339.870937 81.72 
L 339.870937 132.76125 
Q 339.870937 136.36125 343.470937 136.36125 
z
" style="fill: #ffffff; opacity: 0.8; stroke: #cccccc; stroke-linejoin: miter"/>
    </g>
    <g id="Path3DCollection_2">
     <path d="M 365.070937 99.749413 
C 366.523515 99.749413 367.916794 99.172298 368.943921 98.145171 
C 369.971048 97.118044 370.548163 95.724765 370.548163 94.272188 
C 370.548163 92.81961 369.971048 91.426331 368.943921 90.399204 
C 367.916794 89.372077 366.523515 88.794962 365.070937 88.794962 
C 363.61836 88.794962 362.225081 89.372077 361.197954 90.399204 
C 360.170827 91.426331 359.593712 92.81961 359.593712 94.272188 
C 359.593712 95.724765 360.170827 97.118044 361.197954 98.145171 
C 362.225081 99.172298 363.61836 99.749413 365.070937 99.749413 
z
" style="fill: #ff0000; stroke: #ff0000"/>
    </g>
    <g id="text_18">
     <!-- Selected stimulus 1 -->
     <g transform="translate(397.470937 98.997188) scale(0.18 -0.18)">
      <defs>
       <path id="DejaVuSans-53" d="M 3425 4513 
L 3425 3897 
Q 3066 4069 2747 4153 
Q 2428 4238 2131 4238 
Q 1616 4238 1336 4038 
Q 1056 3838 1056 3469 
Q 1056 3159 1242 3001 
Q 1428 2844 1947 2747 
L 2328 2669 
Q 3034 2534 3370 2195 
Q 3706 1856 3706 1288 
Q 3706 609 3251 259 
Q 2797 -91 1919 -91 
Q 1588 -91 1214 -16 
Q 841 59 441 206 
L 441 856 
Q 825 641 1194 531 
Q 1563 422 1919 422 
Q 2459 422 2753 634 
Q 3047 847 3047 1241 
Q 3047 1584 2836 1778 
Q 2625 1972 2144 2069 
L 1759 2144 
Q 1053 2284 737 2584 
Q 422 2884 422 3419 
Q 422 4038 858 4394 
Q 1294 4750 2059 4750 
Q 2388 4750 2728 4690 
Q 3069 4631 3425 4513 
z
" transform="scale(0.015625)"/>
       <path id="DejaVuSans-65" d="M 3597 1894 
L 3597 1613 
L 953 1613 
Q 991 1019 1311 708 
Q 1631 397 2203 397 
Q 2534 397 2845 478 
Q 3156 559 3463 722 
L 3463 178 
Q 3153 47 2828 -22 
Q 2503 -91 2169 -91 
Q 1331 -91 842 396 
Q 353 884 353 1716 
Q 353 2575 817 3079 
Q 1281 3584 2069 3584 
Q 2775 3584 3186 3129 
Q 3597 2675 3597 1894 
z
M 3022 2063 
Q 3016 2534 2758 2815 
Q 2500 3097 2075 3097 
Q 1594 3097 1305 2825 
Q 1016 2553 972 2059 
L 3022 2063 
z
" transform="scale(0.015625)"/>
       <path id="DejaVuSans-6c" d="M 603 4863 
L 1178 4863 
L 1178 0 
L 603 0 
L 603 4863 
z
" transform="scale(0.015625)"/>
       <path id="DejaVuSans-63" d="M 3122 3366 
L 3122 2828 
Q 2878 2963 2633 3030 
Q 2388 3097 2138 3097 
Q 1578 3097 1268 2742 
Q 959 2388 959 1747 
Q 959 1106 1268 751 
Q 1578 397 2138 397 
Q 2388 397 2633 464 
Q 2878 531 3122 666 
L 3122 134 
Q 2881 22 2623 -34 
Q 2366 -91 2075 -91 
Q 1284 -91 818 406 
Q 353 903 353 1747 
Q 353 2603 823 3093 
Q 1294 3584 2113 3584 
Q 2378 3584 2631 3529 
Q 2884 3475 3122 3366 
z
" transform="scale(0.015625)"/>
       <path id="DejaVuSans-74" d="M 1172 4494 
L 1172 3500 
L 2356 3500 
L 2356 3053 
L 1172 3053 
L 1172 1153 
Q 1172 725 1289 603 
Q 1406 481 1766 481 
L 2356 481 
L 2356 0 
L 1766 0 
Q 1100 0 847 248 
Q 594 497 594 1153 
L 594 3053 
L 172 3053 
L 172 3500 
L 594 3500 
L 594 4494 
L 1172 4494 
z
" transform="scale(0.015625)"/>
       <path id="DejaVuSans-64" d="M 2906 2969 
L 2906 4863 
L 3481 4863 
L 3481 0 
L 2906 0 
L 2906 525 
Q 2725 213 2448 61 
Q 2172 -91 1784 -91 
Q 1150 -91 751 415 
Q 353 922 353 1747 
Q 353 2572 751 3078 
Q 1150 3584 1784 3584 
Q 2172 3584 2448 3432 
Q 2725 3281 2906 2969 
z
M 947 1747 
Q 947 1113 1208 752 
Q 1469 391 1925 391 
Q 2381 391 2643 752 
Q 2906 1113 2906 1747 
Q 2906 2381 2643 2742 
Q 2381 3103 1925 3103 
Q 1469 3103 1208 2742 
Q 947 2381 947 1747 
z
" transform="scale(0.015625)"/>
       <path id="DejaVuSans-73" d="M 2834 3397 
L 2834 2853 
Q 2591 2978 2328 3040 
Q 2066 3103 1784 3103 
Q 1356 3103 1142 2972 
Q 928 2841 928 2578 
Q 928 2378 1081 2264 
Q 1234 2150 1697 2047 
L 1894 2003 
Q 2506 1872 2764 1633 
Q 3022 1394 3022 966 
Q 3022 478 2636 193 
Q 2250 -91 1575 -91 
Q 1294 -91 989 -36 
Q 684 19 347 128 
L 347 722 
Q 666 556 975 473 
Q 1284 391 1588 391 
Q 1994 391 2212 530 
Q 2431 669 2431 922 
Q 2431 1156 2273 1281 
Q 2116 1406 1581 1522 
L 1381 1569 
Q 847 1681 609 1914 
Q 372 2147 372 2553 
Q 372 3047 722 3315 
Q 1072 3584 1716 3584 
Q 2034 3584 2315 3537 
Q 2597 3491 2834 3397 
z
" transform="scale(0.015625)"/>
       <path id="DejaVuSans-69" d="M 603 3500 
L 1178 3500 
L 1178 0 
L 603 0 
L 603 3500 
z
M 603 4863 
L 1178 4863 
L 1178 4134 
L 603 4134 
L 603 4863 
z
" transform="scale(0.015625)"/>
       <path id="DejaVuSans-6d" d="M 3328 2828 
Q 3544 3216 3844 3400 
Q 4144 3584 4550 3584 
Q 5097 3584 5394 3201 
Q 5691 2819 5691 2113 
L 5691 0 
L 5113 0 
L 5113 2094 
Q 5113 2597 4934 2840 
Q 4756 3084 4391 3084 
Q 3944 3084 3684 2787 
Q 3425 2491 3425 1978 
L 3425 0 
L 2847 0 
L 2847 2094 
Q 2847 2600 2669 2842 
Q 2491 3084 2119 3084 
Q 1678 3084 1418 2786 
Q 1159 2488 1159 1978 
L 1159 0 
L 581 0 
L 581 3500 
L 1159 3500 
L 1159 2956 
Q 1356 3278 1631 3431 
Q 1906 3584 2284 3584 
Q 2666 3584 2933 3390 
Q 3200 3197 3328 2828 
z
" transform="scale(0.015625)"/>
       <path id="DejaVuSans-75" d="M 544 1381 
L 544 3500 
L 1119 3500 
L 1119 1403 
Q 1119 906 1312 657 
Q 1506 409 1894 409 
Q 2359 409 2629 706 
Q 2900 1003 2900 1516 
L 2900 3500 
L 3475 3500 
L 3475 0 
L 2900 0 
L 2900 538 
Q 2691 219 2414 64 
Q 2138 -91 1772 -91 
Q 1169 -91 856 284 
Q 544 659 544 1381 
z
M 1991 3584 
L 1991 3584 
z
" transform="scale(0.015625)"/>
      </defs>
      <use xlink:href="#DejaVuSans-53"/>
      <use xlink:href="#DejaVuSans-65" x="63.476562"/>
      <use xlink:href="#DejaVuSans-6c" x="125"/>
      <use xlink:href="#DejaVuSans-65" x="152.783203"/>
      <use xlink:href="#DejaVuSans-63" x="214.306641"/>
      <use xlink:href="#DejaVuSans-74" x="269.287109"/>
      <use xlink:href="#DejaVuSans-65" x="308.496094"/>
      <use xlink:href="#DejaVuSans-64" x="370.019531"/>
      <use xlink:href="#DejaVuSans-20" x="433.496094"/>
      <use xlink:href="#DejaVuSans-73" x="465.283203"/>
      <use xlink:href="#DejaVuSans-74" x="517.382812"/>
      <use xlink:href="#DejaVuSans-69" x="556.591797"/>
      <use xlink:href="#DejaVuSans-6d" x="584.375"/>
      <use xlink:href="#DejaVuSans-75" x="681.787109"/>
      <use xlink:href="#DejaVuSans-6c" x="745.166016"/>
      <use xlink:href="#DejaVuSans-75" x="772.949219"/>
      <use xlink:href="#DejaVuSans-73" x="836.328125"/>
      <use xlink:href="#DejaVuSans-20" x="888.427734"/>
      <use xlink:href="#DejaVuSans-31" x="920.214844"/>
     </g>
    </g>
    <g id="Path3DCollection_3">
     <path d="M 365.070937 126.170038 
L 370.548163 115.215587 
L 359.593712 115.215587 
z
" style="fill: #ff0000; stroke: #ff0000"/>
    </g>
    <g id="text_19">
     <!-- Selected stimulus 2 -->
     <g transform="translate(397.470937 125.417813) scale(0.18 -0.18)">
      <use xlink:href="#DejaVuSans-53"/>
      <use xlink:href="#DejaVuSans-65" x="63.476562"/>
      <use xlink:href="#DejaVuSans-6c" x="125"/>
      <use xlink:href="#DejaVuSans-65" x="152.783203"/>
      <use xlink:href="#DejaVuSans-63" x="214.306641"/>
      <use xlink:href="#DejaVuSans-74" x="269.287109"/>
      <use xlink:href="#DejaVuSans-65" x="308.496094"/>
      <use xlink:href="#DejaVuSans-64" x="370.019531"/>
      <use xlink:href="#DejaVuSans-20" x="433.496094"/>
      <use xlink:href="#DejaVuSans-73" x="465.283203"/>
      <use xlink:href="#DejaVuSans-74" x="517.382812"/>
      <use xlink:href="#DejaVuSans-69" x="556.591797"/>
      <use xlink:href="#DejaVuSans-6d" x="584.375"/>
      <use xlink:href="#DejaVuSans-75" x="681.787109"/>
      <use xlink:href="#DejaVuSans-6c" x="745.166016"/>
      <use xlink:href="#DejaVuSans-75" x="772.949219"/>
      <use xlink:href="#DejaVuSans-73" x="836.328125"/>
      <use xlink:href="#DejaVuSans-20" x="888.427734"/>
      <use xlink:href="#DejaVuSans-32" x="920.214844"/>
     </g>
    </g>
   </g>
   <g id="Path3DCollection_4">
    <path d="M 320.577797 305.13116 
L 326.055022 294.176708 
L 315.100571 294.176708 
z
" clip-path="url(#pd02dc9ff7d)" style="fill: #ffbd00; fill-opacity: 0.3; stroke: #ffbd00; stroke-opacity: 0.3"/>
    <path d="M 359.316184 315.321896 
L 364.79341 304.367444 
L 353.838958 304.367444 
z
" clip-path="url(#pd02dc9ff7d)" style="fill: #cbff00; fill-opacity: 0.304624; stroke: #cbff00; stroke-opacity: 0.304624"/>
    <path d="M 399.776105 324.693702 
L 405.253331 313.739251 
L 394.29888 313.739251 
z
" clip-path="url(#pd02dc9ff7d)" style="fill: #6cff00; fill-opacity: 0.334409; stroke: #6cff00; stroke-opacity: 0.334409"/>
    <path d="M 270.431832 301.571563 
L 275.909057 290.617111 
L 264.954606 290.617111 
z
" clip-path="url(#pd02dc9ff7d)" style="fill: #ff6400; fill-opacity: 0.341727; stroke: #ff6400; stroke-opacity: 0.341727"/>
    <path d="M 442.986016 330.104252 
L 448.463241 319.149801 
L 437.50879 319.149801 
z
" clip-path="url(#pd02dc9ff7d)" style="fill: #06ff04; fill-opacity: 0.369221; stroke: #06ff04; stroke-opacity: 0.369221"/>
    <path d="M 252.024018 280.466163 
L 257.501244 269.511712 
L 246.546793 269.511712 
z
" clip-path="url(#pd02dc9ff7d)" style="fill: #ff0000; fill-opacity: 0.400815; stroke: #ff0000; stroke-opacity: 0.400815"/>
    <path d="M 249.271332 270.491395 
L 254.748558 259.536944 
L 243.794107 259.536944 
z
" clip-path="url(#pd02dc9ff7d)" style="fill: #ff0018; fill-opacity: 0.478895; stroke: #ff0018; stroke-opacity: 0.478895"/>
    <path d="M 471.975552 350.839738 
L 477.452778 339.885287 
L 466.498327 339.885287 
z
" clip-path="url(#pd02dc9ff7d)" style="fill: #00ff5c; fill-opacity: 0.495251; stroke: #00ff5c; stroke-opacity: 0.495251"/>
    <path d="M 274.227973 250.45118 
L 279.705199 239.496729 
L 268.750747 239.496729 
z
" clip-path="url(#pd02dc9ff7d)" style="fill: #ff007c; fill-opacity: 0.585563; stroke: #ff007c; stroke-opacity: 0.585563"/>
    <path d="M 503.82011 351.210089 
L 509.297336 340.255638 
L 498.342885 340.255638 
z
" clip-path="url(#pd02dc9ff7d)" style="fill: #00ffc1; fill-opacity: 0.637758; stroke: #00ffc1; stroke-opacity: 0.637758"/>
    <path d="M 307.376814 246.268132 
L 312.85404 235.313681 
L 301.899589 235.313681 
z
" clip-path="url(#pd02dc9ff7d)" style="fill: #ff00db; fill-opacity: 0.732123; stroke: #ff00db; stroke-opacity: 0.732123"/>
    <path d="M 348.31893 237.854811 
L 353.796156 226.90036 
L 342.841705 226.90036 
z
" clip-path="url(#pd02dc9ff7d)" style="fill: #b900ff; fill-opacity: 0.87856; stroke: #b900ff; stroke-opacity: 0.87856"/>
    <path d="M 490.365157 375.480943 
L 495.842382 364.526492 
L 484.887931 364.526492 
z
" clip-path="url(#pd02dc9ff7d)" style="fill: #00dfff; fill-opacity: 0.917417; stroke: #00dfff; stroke-opacity: 0.917417"/>
    <path d="M 475.291228 323.685213 
L 480.768454 312.730762 
L 469.814002 312.730762 
z
" clip-path="url(#pd02dc9ff7d)" style="fill: #0074ff; fill-opacity: 0.985551; stroke: #0074ff; stroke-opacity: 0.985551"/>
    <path d="M 398.174868 277.989234 
L 403.652094 267.034783 
L 392.697643 267.034783 
z
" clip-path="url(#pd02dc9ff7d)" style="fill: #5400ff; fill-opacity: 0.994916; stroke: #5400ff; stroke-opacity: 0.994916"/>
    <path d="M 446.478536 295.877868 
L 451.955761 284.923417 
L 441.00131 284.923417 
z
" clip-path="url(#pd02dc9ff7d)" style="fill: #020cff; stroke: #020cff"/>
   </g>
  </g>
 </g>
 <defs>
  <clipPath id="pd02dc9ff7d">
   <rect x="147.24" y="69.12" width="443.52" height="443.52"/>
  </clipPath>
 </defs>
</svg>
