<?xml version="1.0" encoding="utf-8" standalone="no"?>
<!DOCTYPE svg PUBLIC "-//W3C//DTD SVG 1.1//EN"
  "http://www.w3.org/Graphics/SVG/1.1/DTD/svg11.dtd">
<svg xmlns:xlink="http://www.w3.org/1999/xlink" width="720pt" height="576pt" viewBox="0 0 720 576" xmlns="http://www.w3.org/2000/svg" version="1.1">
 <metadata>
  <rdf:RDF xmlns:dc="http://purl.org/dc/elements/1.1/" xmlns:cc="http://creativecommons.org/ns#" xmlns:rdf="http://www.w3.org/1999/02/22-rdf-syntax-ns#">
   <cc:Work>
    <dc:type rdf:resource="http://purl.org/dc/dcmitype/StillImage"/>
    <dc:date>2025-05-20T19:43:25.914338</dc:date>
    <dc:format>image/svg+xml</dc:format>
    <dc:creator>
     <cc:Agent>
      <dc:title>Matplotlib v3.9.2, https://matplotlib.org/</dc:title>
     </cc:Agent>
    </dc:creator>
   </cc:Work>
  </rdf:RDF>
 </metadata>
 <defs>
  <style type="text/css">*{stroke-linejoin: round; stroke-linecap: butt}</style>
 </defs>
 <g id="figure_1">
  <g id="patch_1">
   <path d="M 0 576 
L 720 576 
L 720 0 
L 0 0 
L 0 576 
z
" style="fill: none"/>
  </g>
  <g id="patch_2">
   <path d="M 147.24 512.64 
L 590.76 512.64 
L 590.76 69.12 
L 147.24 69.12 
L 147.24 512.64 
z
" style="fill: none"/>
  </g>
  <g id="pane3d_1">
   <g id="patch_3">
    <path d="M 241.776258 333.210956 
L 508.210769 333.210956 
L 512.119926 141.343983 
L 237.867101 141.343983 
" style="fill: none; opacity: 0.5; stroke: #f2f2f2; stroke-linejoin: miter"/>
   </g>
  </g>
  <g id="pane3d_2">
   <g id="patch_4">
    <path d="M 241.776258 333.210956 
L 226.241772 440.598264 
L 221.351029 229.152779 
L 237.867101 141.343983 
" style="fill: none; opacity: 0.5; stroke: #e6e6e6; stroke-linejoin: miter"/>
   </g>
  </g>
  <g id="pane3d_3">
   <g id="patch_5">
    <path d="M 241.776258 333.210956 
L 226.241772 440.598264 
L 523.745255 440.598264 
L 508.210769 333.210956 
" style="fill: none; opacity: 0.5; stroke: #ececec; stroke-linejoin: miter"/>
   </g>
  </g>
  <g id="grid3d_1">
   <g id="Line3DCollection_1">
    <path d="M 509.31603 340.851441 
L 240.670997 340.851441 
L 236.695737 147.571617 
" style="fill: none; stroke: #b0b0b0; stroke-width: 0.8"/>
    <path d="M 512.755297 364.62652 
L 237.23173 364.62652 
L 233.047124 166.969714 
" style="fill: none; stroke: #b0b0b0; stroke-width: 0.8"/>
    <path d="M 516.375314 389.651092 
L 233.611713 389.651092 
L 229.200776 187.419078 
" style="fill: none; stroke: #b0b0b0; stroke-width: 0.8"/>
    <path d="M 520.190714 416.026315 
L 229.796313 416.026315 
L 225.140172 209.00755 
" style="fill: none; stroke: #b0b0b0; stroke-width: 0.8"/>
   </g>
  </g>
  <g id="grid3d_2">
   <g id="Line3DCollection_2">
    <path d="M 239.350748 141.343983 
L 243.217609 333.210956 
L 227.8512 440.598264 
" style="fill: none; stroke: #b0b0b0; stroke-width: 0.8"/>
    <path d="M 304.373461 141.343983 
L 306.386675 333.210956 
L 298.386421 440.598264 
" style="fill: none; stroke: #b0b0b0; stroke-width: 0.8"/>
    <path d="M 369.396174 141.343983 
L 369.555741 333.210956 
L 368.921642 440.598264 
" style="fill: none; stroke: #b0b0b0; stroke-width: 0.8"/>
    <path d="M 434.418888 141.343983 
L 432.724808 333.210956 
L 439.456863 440.598264 
" style="fill: none; stroke: #b0b0b0; stroke-width: 0.8"/>
    <path d="M 499.441601 141.343983 
L 495.893874 333.210956 
L 509.992084 440.598264 
" style="fill: none; stroke: #b0b0b0; stroke-width: 0.8"/>
   </g>
  </g>
  <g id="grid3d_3">
   <g id="Line3DCollection_3">
    <path d="M 226.026226 431.279373 
L 241.603407 324.727185 
L 508.38362 324.727185 
" style="fill: none; stroke: #b0b0b0; stroke-width: 0.8"/>
    <path d="M 224.891758 382.232007 
L 240.694516 280.117516 
L 509.292511 280.117516 
" style="fill: none; stroke: #b0b0b0; stroke-width: 0.8"/>
    <path d="M 223.739879 332.431862 
L 239.773154 234.895756 
L 510.213873 234.895756 
" style="fill: none; stroke: #b0b0b0; stroke-width: 0.8"/>
    <path d="M 222.570183 281.861475 
L 238.839062 189.049219 
L 511.147965 189.049219 
" style="fill: none; stroke: #b0b0b0; stroke-width: 0.8"/>
    <path d="M 221.382256 230.502836 
L 237.891976 142.564868 
L 512.095051 142.564868 
" style="fill: none; stroke: #b0b0b0; stroke-width: 0.8"/>
   </g>
  </g>
  <g id="axis3d_1">
   <g id="line2d_1">
    <path d="M 508.210769 333.210956 
L 523.745255 440.598264 
" style="fill: none; stroke: #000000; stroke-width: 0.8; stroke-linecap: square"/>
   </g>
   <g id="xtick_1">
    <g id="line2d_2">
     <path d="M 507.16687 340.851441 
L 513.614351 340.851441 
" style="fill: none; stroke: #000000; stroke-width: 0.8; stroke-linecap: square"/>
    </g>
    <g id="text_1">
     <!-- −50 -->
     <g transform="translate(509.816271 359.301786) scale(0.12 -0.12)">
      <defs>
       <path id="DejaVuSans-2212" d="M 678 2272 
L 4684 2272 
L 4684 1741 
L 678 1741 
L 678 2272 
z
" transform="scale(0.015625)"/>
       <path id="DejaVuSans-35" d="M 691 4666 
L 3169 4666 
L 3169 4134 
L 1269 4134 
L 1269 2991 
Q 1406 3038 1543 3061 
Q 1681 3084 1819 3084 
Q 2600 3084 3056 2656 
Q 3513 2228 3513 1497 
Q 3513 744 3044 326 
Q 2575 -91 1722 -91 
Q 1428 -91 1123 -41 
Q 819 9 494 109 
L 494 744 
Q 775 591 1075 516 
Q 1375 441 1709 441 
Q 2250 441 2565 725 
Q 2881 1009 2881 1497 
Q 2881 1984 2565 2268 
Q 2250 2553 1709 2553 
Q 1456 2553 1204 2497 
Q 953 2441 691 2322 
L 691 4666 
z
" transform="scale(0.015625)"/>
       <path id="DejaVuSans-30" d="M 2034 4250 
Q 1547 4250 1301 3770 
Q 1056 3291 1056 2328 
Q 1056 1369 1301 889 
Q 1547 409 2034 409 
Q 2525 409 2770 889 
Q 3016 1369 3016 2328 
Q 3016 3291 2770 3770 
Q 2525 4250 2034 4250 
z
M 2034 4750 
Q 2819 4750 3233 4129 
Q 3647 3509 3647 2328 
Q 3647 1150 3233 529 
Q 2819 -91 2034 -91 
Q 1250 -91 836 529 
Q 422 1150 422 2328 
Q 422 3509 836 4129 
Q 1250 4750 2034 4750 
z
" transform="scale(0.015625)"/>
      </defs>
      <use xlink:href="#DejaVuSans-2212"/>
      <use xlink:href="#DejaVuSans-35" x="83.789062"/>
      <use xlink:href="#DejaVuSans-30" x="147.412109"/>
     </g>
    </g>
   </g>
   <g id="xtick_2">
    <g id="line2d_3">
     <path d="M 510.551109 364.62652 
L 517.163675 364.62652 
" style="fill: none; stroke: #000000; stroke-width: 0.8; stroke-linecap: square"/>
    </g>
    <g id="text_2">
     <!-- −25 -->
     <g transform="translate(513.587038 383.280621) scale(0.12 -0.12)">
      <defs>
       <path id="DejaVuSans-32" d="M 1228 531 
L 3431 531 
L 3431 0 
L 469 0 
L 469 531 
Q 828 903 1448 1529 
Q 2069 2156 2228 2338 
Q 2531 2678 2651 2914 
Q 2772 3150 2772 3378 
Q 2772 3750 2511 3984 
Q 2250 4219 1831 4219 
Q 1534 4219 1204 4116 
Q 875 4013 500 3803 
L 500 4441 
Q 881 4594 1212 4672 
Q 1544 4750 1819 4750 
Q 2544 4750 2975 4387 
Q 3406 4025 3406 3419 
Q 3406 3131 3298 2873 
Q 3191 2616 2906 2266 
Q 2828 2175 2409 1742 
Q 1991 1309 1228 531 
z
" transform="scale(0.015625)"/>
      </defs>
      <use xlink:href="#DejaVuSans-2212"/>
      <use xlink:href="#DejaVuSans-32" x="83.789062"/>
      <use xlink:href="#DejaVuSans-35" x="147.412109"/>
     </g>
    </g>
   </g>
   <g id="xtick_3">
    <g id="line2d_4">
     <path d="M 514.113205 389.651092 
L 520.899532 389.651092 
" style="fill: none; stroke: #000000; stroke-width: 0.8; stroke-linecap: square"/>
    </g>
    <g id="text_3">
     <!-- 0 -->
     <g transform="translate(526.400991 408.517761) scale(0.12 -0.12)">
      <use xlink:href="#DejaVuSans-30"/>
     </g>
    </g>
   </g>
   <g id="xtick_4">
    <g id="line2d_5">
     <path d="M 517.867559 416.026315 
L 524.837024 416.026315 
" style="fill: none; stroke: #000000; stroke-width: 0.8; stroke-linecap: square"/>
    </g>
    <g id="text_4">
     <!-- 25 -->
     <g transform="translate(526.766 435.114921) scale(0.12 -0.12)">
      <use xlink:href="#DejaVuSans-32"/>
      <use xlink:href="#DejaVuSans-35" x="63.623047"/>
     </g>
    </g>
   </g>
   <g id="text_5">
    <!-- PC 1 -->
    <g transform="translate(532.260686 414.995741) scale(0.18 -0.18)">
     <defs>
      <path id="DejaVuSans-50" d="M 1259 4147 
L 1259 2394 
L 2053 2394 
Q 2494 2394 2734 2622 
Q 2975 2850 2975 3272 
Q 2975 3691 2734 3919 
Q 2494 4147 2053 4147 
L 1259 4147 
z
M 628 4666 
L 2053 4666 
Q 2838 4666 3239 4311 
Q 3641 3956 3641 3272 
Q 3641 2581 3239 2228 
Q 2838 1875 2053 1875 
L 1259 1875 
L 1259 0 
L 628 0 
L 628 4666 
z
" transform="scale(0.015625)"/>
      <path id="DejaVuSans-43" d="M 4122 4306 
L 4122 3641 
Q 3803 3938 3442 4084 
Q 3081 4231 2675 4231 
Q 1875 4231 1450 3742 
Q 1025 3253 1025 2328 
Q 1025 1406 1450 917 
Q 1875 428 2675 428 
Q 3081 428 3442 575 
Q 3803 722 4122 1019 
L 4122 359 
Q 3791 134 3420 21 
Q 3050 -91 2638 -91 
Q 1578 -91 968 557 
Q 359 1206 359 2328 
Q 359 3453 968 4101 
Q 1578 4750 2638 4750 
Q 3056 4750 3426 4639 
Q 3797 4528 4122 4306 
z
" transform="scale(0.015625)"/>
      <path id="DejaVuSans-20" transform="scale(0.015625)"/>
      <path id="DejaVuSans-31" d="M 794 531 
L 1825 531 
L 1825 4091 
L 703 3866 
L 703 4441 
L 1819 4666 
L 2450 4666 
L 2450 531 
L 3481 531 
L 3481 0 
L 794 0 
L 794 531 
z
" transform="scale(0.015625)"/>
     </defs>
     <use xlink:href="#DejaVuSans-50"/>
     <use xlink:href="#DejaVuSans-43" x="60.302734"/>
     <use xlink:href="#DejaVuSans-20" x="130.126953"/>
     <use xlink:href="#DejaVuSans-31" x="161.914062"/>
    </g>
   </g>
  </g>
  <g id="axis3d_2">
   <g id="line2d_6">
    <path d="M 226.241772 440.598264 
L 523.745255 440.598264 
" style="fill: none; stroke: #000000; stroke-width: 0.8; stroke-linecap: square"/>
   </g>
   <g id="xtick_5">
    <g id="line2d_7">
     <path d="M 227.988338 439.63988 
L 227.576154 442.520406 
" style="fill: none; stroke: #000000; stroke-width: 0.8; stroke-linecap: square"/>
    </g>
    <g id="text_6">
     <!-- −50 -->
     <g transform="translate(214.564732 465.945847) scale(0.12 -0.12)">
      <use xlink:href="#DejaVuSans-2212"/>
      <use xlink:href="#DejaVuSans-35" x="83.789062"/>
      <use xlink:href="#DejaVuSans-30" x="147.412109"/>
     </g>
    </g>
   </g>
   <g id="xtick_6">
    <g id="line2d_8">
     <path d="M 298.45782 439.63988 
L 298.243223 442.520406 
" style="fill: none; stroke: #000000; stroke-width: 0.8; stroke-linecap: square"/>
    </g>
    <g id="text_7">
     <!-- −25 -->
     <g transform="translate(285.398913 465.945847) scale(0.12 -0.12)">
      <use xlink:href="#DejaVuSans-2212"/>
      <use xlink:href="#DejaVuSans-32" x="83.789062"/>
      <use xlink:href="#DejaVuSans-35" x="147.412109"/>
     </g>
    </g>
   </g>
   <g id="xtick_7">
    <g id="line2d_9">
     <path d="M 368.927301 439.63988 
L 368.910292 442.520406 
" style="fill: none; stroke: #000000; stroke-width: 0.8; stroke-linecap: square"/>
    </g>
    <g id="text_8">
     <!-- 0 -->
     <g transform="translate(365.078407 465.945847) scale(0.12 -0.12)">
      <use xlink:href="#DejaVuSans-30"/>
     </g>
    </g>
   </g>
   <g id="xtick_8">
    <g id="line2d_10">
     <path d="M 439.396783 439.63988 
L 439.577361 442.520406 
" style="fill: none; stroke: #000000; stroke-width: 0.8; stroke-linecap: square"/>
    </g>
    <g id="text_9">
     <!-- 25 -->
     <g transform="translate(432.095088 465.945847) scale(0.12 -0.12)">
      <use xlink:href="#DejaVuSans-32"/>
      <use xlink:href="#DejaVuSans-35" x="63.623047"/>
     </g>
    </g>
   </g>
   <g id="xtick_9">
    <g id="line2d_11">
     <path d="M 509.866264 439.63988 
L 510.24443 442.520406 
" style="fill: none; stroke: #000000; stroke-width: 0.8; stroke-linecap: square"/>
    </g>
    <g id="text_10">
     <!-- 50 -->
     <g transform="translate(502.929269 465.945847) scale(0.12 -0.12)">
      <use xlink:href="#DejaVuSans-35"/>
      <use xlink:href="#DejaVuSans-30" x="63.623047"/>
     </g>
    </g>
   </g>
   <g id="text_11">
    <!-- PC 2 -->
    <g transform="translate(354.695701 489.63081) scale(0.18 -0.18)">
     <use xlink:href="#DejaVuSans-50"/>
     <use xlink:href="#DejaVuSans-43" x="60.302734"/>
     <use xlink:href="#DejaVuSans-20" x="130.126953"/>
     <use xlink:href="#DejaVuSans-32" x="161.914062"/>
    </g>
   </g>
  </g>
  <g id="axis3d_3">
   <g id="line2d_12">
    <path d="M 226.241772 440.598264 
L 221.351029 229.152779 
" style="fill: none; stroke: #000000; stroke-width: 0.8; stroke-linecap: square"/>
   </g>
   <g id="xtick_10">
    <g id="line2d_13">
     <path d="M 226.165266 430.3283 
L 225.747364 433.186862 
" style="fill: none; stroke: #000000; stroke-width: 0.8; stroke-linecap: square"/>
    </g>
    <g id="text_12">
     <!-- −50 -->
     <g transform="translate(197.573326 446.356146) scale(0.12 -0.12)">
      <use xlink:href="#DejaVuSans-2212"/>
      <use xlink:href="#DejaVuSans-35" x="83.789062"/>
      <use xlink:href="#DejaVuSans-30" x="147.412109"/>
     </g>
    </g>
   </g>
   <g id="xtick_11">
    <g id="line2d_14">
     <path d="M 225.032923 381.319824 
L 224.608629 384.061533 
" style="fill: none; stroke: #000000; stroke-width: 0.8; stroke-linecap: square"/>
    </g>
    <g id="text_13">
     <!-- −25 -->
     <g transform="translate(196.311215 397.065415) scale(0.12 -0.12)">
      <use xlink:href="#DejaVuSans-2212"/>
      <use xlink:href="#DejaVuSans-32" x="83.789062"/>
      <use xlink:href="#DejaVuSans-35" x="147.412109"/>
     </g>
    </g>
   </g>
   <g id="xtick_12">
    <g id="line2d_15">
     <path d="M 223.883218 331.55988 
L 223.452383 334.180798 
" style="fill: none; stroke: #000000; stroke-width: 0.8; stroke-linecap: square"/>
    </g>
    <g id="text_14">
     <!-- 0 -->
     <g transform="translate(203.87493 347.013679) scale(0.12 -0.12)">
      <use xlink:href="#DejaVuSans-30"/>
     </g>
    </g>
   </g>
   <g id="xtick_13">
    <g id="line2d_16">
     <path d="M 222.715747 281.031051 
L 222.27822 283.527095 
" style="fill: none; stroke: #000000; stroke-width: 0.8; stroke-linecap: square"/>
    </g>
    <g id="text_15">
     <!-- 25 -->
     <g transform="translate(198.755892 296.183176) scale(0.12 -0.12)">
      <use xlink:href="#DejaVuSans-32"/>
      <use xlink:href="#DejaVuSans-35" x="63.623047"/>
     </g>
    </g>
   </g>
   <g id="xtick_14">
    <g id="line2d_17">
     <path d="M 221.530096 229.715375 
L 221.08572 232.082318 
" style="fill: none; stroke: #000000; stroke-width: 0.8; stroke-linecap: square"/>
    </g>
    <g id="text_16">
     <!-- 50 -->
     <g transform="translate(197.433945 244.555589) scale(0.12 -0.12)">
      <use xlink:href="#DejaVuSans-35"/>
      <use xlink:href="#DejaVuSans-30" x="63.623047"/>
     </g>
    </g>
   </g>
   <g id="text_17">
    <!-- PC 3 -->
    <g transform="translate(159.869569 356.487823) scale(0.18 -0.18)">
     <defs>
      <path id="DejaVuSans-33" d="M 2597 2516 
Q 3050 2419 3304 2112 
Q 3559 1806 3559 1356 
Q 3559 666 3084 287 
Q 2609 -91 1734 -91 
Q 1441 -91 1130 -33 
Q 819 25 488 141 
L 488 750 
Q 750 597 1062 519 
Q 1375 441 1716 441 
Q 2309 441 2620 675 
Q 2931 909 2931 1356 
Q 2931 1769 2642 2001 
Q 2353 2234 1838 2234 
L 1294 2234 
L 1294 2753 
L 1863 2753 
Q 2328 2753 2575 2939 
Q 2822 3125 2822 3475 
Q 2822 3834 2567 4026 
Q 2313 4219 1838 4219 
Q 1578 4219 1281 4162 
Q 984 4106 628 3988 
L 628 4550 
Q 988 4650 1302 4700 
Q 1616 4750 1894 4750 
Q 2613 4750 3031 4423 
Q 3450 4097 3450 3541 
Q 3450 3153 3228 2886 
Q 3006 2619 2597 2516 
z
" transform="scale(0.015625)"/>
     </defs>
     <use xlink:href="#DejaVuSans-50"/>
     <use xlink:href="#DejaVuSans-43" x="60.302734"/>
     <use xlink:href="#DejaVuSans-20" x="130.126953"/>
     <use xlink:href="#DejaVuSans-33" x="161.914062"/>
    </g>
   </g>
  </g>
  <g id="axes_1">
   <g id="line2d_18">
    <path d="M 269.802196 209.798967 
L 240.359257 233.077786 
L 234.334096 269.56116 
L 249.009669 303.575776 
L 277.959667 333.201785 
L 316.944985 362.732306 
L 375.890964 377.430352 
L 440.647439 378.346204 
L 498.385258 362.861938 
L 520.109431 330.949385 
L 517.708177 295.739787 
L 494.213409 260.305915 
L 458.401346 228.452133 
L 404.025616 217.561502 
L 350.759763 204.749274 
L 304.987264 202.654087 
L 269.802196 209.798967 
" clip-path="url(#p0c881eedb7)" style="fill: none; stroke: #808080; stroke-opacity: 0.7; stroke-width: 1.5; stroke-linecap: square"/>
   </g>
   <g id="line2d_19">
    <path d="M 383.028804 322.092001 
L 417.270772 300.784409 
L 427.855378 254.602677 
L 440.928846 233.02087 
L 437.620494 210.956111 
L 403.540277 203.717634 
L 408.212473 213.64793 
L 362.570996 235.64173 
L 324.748531 255.667962 
L 307.436412 286.52311 
L 309.214834 318.572269 
L 306.379006 336.192357 
L 315.881573 358.633111 
L 327.382381 365.477364 
L 338.721452 360.004003 
L 367.476553 344.924242 
L 383.028804 322.092001 
" clip-path="url(#p0c881eedb7)" style="fill: none; stroke: #808080; stroke-opacity: 0.7; stroke-width: 1.5; stroke-linecap: square"/>
   </g>
   <g id="Poly3DCollection_1">
    <path d="M 313.776654 339.177274 
L 297.634854 337.833813 
L 297.573919 325.046953 
L 313.72833 326.363923 
z
" clip-path="url(#p0c881eedb7)" style="fill: #808080; fill-opacity: 0.3"/>
    <path d="M 313.72833 326.363923 
L 297.573919 325.046953 
L 297.512889 312.239932 
L 313.67993 313.530327 
z
" clip-path="url(#p0c881eedb7)" style="fill: #808080; fill-opacity: 0.3"/>
    <path d="M 313.67993 313.530327 
L 297.512889 312.239932 
L 297.451762 299.412704 
L 313.631454 300.676438 
z
" clip-path="url(#p0c881eedb7)" style="fill: #808080; fill-opacity: 0.3"/>
    <path d="M 329.988108 340.526531 
L 313.776654 339.177274 
L 313.72833 326.363923 
L 329.952504 327.686581 
z
" clip-path="url(#p0c881eedb7)" style="fill: #808080; fill-opacity: 0.3"/>
    <path d="M 313.631454 300.676438 
L 297.451762 299.412704 
L 297.390538 286.56522 
L 313.5829 287.802208 
z
" clip-path="url(#p0c881eedb7)" style="fill: #808080; fill-opacity: 0.3"/>
    <path d="M 329.952504 327.686581 
L 313.72833 326.363923 
L 313.67993 313.530327 
L 329.916845 314.826299 
z
" clip-path="url(#p0c881eedb7)" style="fill: #808080; fill-opacity: 0.3"/>
    <path d="M 313.5829 287.802208 
L 297.390538 286.56522 
L 297.329218 273.697433 
L 313.53427 274.907587 
z
" clip-path="url(#p0c881eedb7)" style="fill: #808080; fill-opacity: 0.3"/>
    <path d="M 329.916845 314.826299 
L 313.67993 313.530327 
L 313.631454 300.676438 
L 329.881129 301.945638 
z
" clip-path="url(#p0c881eedb7)" style="fill: #808080; fill-opacity: 0.3"/>
    <path d="M 313.53427 274.907587 
L 297.329218 273.697433 
L 297.267801 260.809294 
L 313.485563 261.992528 
z
" clip-path="url(#p0c881eedb7)" style="fill: #808080; fill-opacity: 0.3"/>
    <path d="M 346.269667 341.881624 
L 329.988108 340.526531 
L 329.952504 327.686581 
L 346.246894 329.014963 
z
" clip-path="url(#p0c881eedb7)" style="fill: #808080; fill-opacity: 0.3"/>
    <path d="M 329.881129 301.945638 
L 313.631454 300.676438 
L 313.5829 287.802208 
L 329.845356 289.044549 
z
" clip-path="url(#p0c881eedb7)" style="fill: #808080; fill-opacity: 0.3"/>
    <path d="M 313.485563 261.992528 
L 297.267801 260.809294 
L 297.206287 247.900755 
L 313.436778 249.056983 
z
" clip-path="url(#p0c881eedb7)" style="fill: #808080; fill-opacity: 0.3"/>
    <path d="M 346.246894 329.014963 
L 329.952504 327.686581 
L 329.916845 314.826299 
L 346.224086 316.127885 
z
" clip-path="url(#p0c881eedb7)" style="fill: #808080; fill-opacity: 0.3"/>
    <path d="M 329.845356 289.044549 
L 313.5829 287.802208 
L 313.53427 274.907587 
L 329.809526 276.122984 
z
" clip-path="url(#p0c881eedb7)" style="fill: #808080; fill-opacity: 0.3"/>
    <path d="M 313.436778 249.056983 
L 297.206287 247.900755 
L 297.144675 234.971768 
L 313.387916 236.100901 
z
" clip-path="url(#p0c881eedb7)" style="fill: #808080; fill-opacity: 0.3"/>
    <path d="M 346.224086 316.127885 
L 329.916845 314.826299 
L 329.881129 301.945638 
L 346.201241 303.22034 
z
" clip-path="url(#p0c881eedb7)" style="fill: #808080; fill-opacity: 0.3"/>
    <path d="M 329.809526 276.122984 
L 313.53427 274.907587 
L 313.485563 261.992528 
L 329.77364 263.180892 
z
" clip-path="url(#p0c881eedb7)" style="fill: #808080; fill-opacity: 0.3"/>
    <path d="M 313.387916 236.100901 
L 297.144675 234.971768 
L 297.082965 222.022283 
L 313.338977 223.124235 
z
" clip-path="url(#p0c881eedb7)" style="fill: #808080; fill-opacity: 0.3"/>
    <path d="M 362.621787 343.242589 
L 346.269667 341.881624 
L 346.246894 329.014963 
L 362.611957 330.349107 
z
" clip-path="url(#p0c881eedb7)" style="fill: #808080; fill-opacity: 0.3"/>
    <path d="M 346.201241 303.22034 
L 329.881129 301.945638 
L 329.845356 289.044549 
L 346.17836 290.29228 
z
" clip-path="url(#p0c881eedb7)" style="fill: #808080; fill-opacity: 0.3"/>
    <path d="M 329.77364 263.180892 
L 313.485563 261.992528 
L 313.436778 249.056983 
L 329.737696 250.218227 
z
" clip-path="url(#p0c881eedb7)" style="fill: #808080; fill-opacity: 0.3"/>
    <path d="M 362.611957 330.349107 
L 346.246894 329.014963 
L 346.224086 316.127885 
L 362.602112 317.43512 
z
" clip-path="url(#p0c881eedb7)" style="fill: #808080; fill-opacity: 0.3"/>
    <path d="M 346.17836 290.29228 
L 329.845356 289.044549 
L 329.809526 276.122984 
L 346.155443 277.343657 
z
" clip-path="url(#p0c881eedb7)" style="fill: #808080; fill-opacity: 0.3"/>
    <path d="M 329.737696 250.218227 
L 313.436778 249.056983 
L 313.387916 236.100901 
L 329.701695 237.234938 
z
" clip-path="url(#p0c881eedb7)" style="fill: #808080; fill-opacity: 0.3"/>
    <path d="M 362.602112 317.43512 
L 346.224086 316.127885 
L 346.201241 303.22034 
L 362.592251 304.500579 
z
" clip-path="url(#p0c881eedb7)" style="fill: #808080; fill-opacity: 0.3"/>
    <path d="M 346.155443 277.343657 
L 329.809526 276.122984 
L 329.77364 263.180892 
L 346.132489 264.37442 
z
" clip-path="url(#p0c881eedb7)" style="fill: #808080; fill-opacity: 0.3"/>
    <path d="M 329.701695 237.234938 
L 313.387916 236.100901 
L 313.338977 223.124235 
L 329.665637 224.230976 
z
" clip-path="url(#p0c881eedb7)" style="fill: #808080; fill-opacity: 0.3"/>
    <path d="M 379.044927 344.609466 
L 362.621787 343.242589 
L 362.611957 330.349107 
L 379.048153 331.68905 
z
" clip-path="url(#p0c881eedb7)" style="fill: #808080; fill-opacity: 0.3"/>
    <path d="M 362.592251 304.500579 
L 346.201241 303.22034 
L 346.17836 290.29228 
L 362.582374 291.545436 
z
" clip-path="url(#p0c881eedb7)" style="fill: #808080; fill-opacity: 0.3"/>
    <path d="M 346.132489 264.37442 
L 329.77364 263.180892 
L 329.737696 250.218227 
L 346.109499 251.384521 
z
" clip-path="url(#p0c881eedb7)" style="fill: #808080; fill-opacity: 0.3"/>
    <path d="M 379.048153 331.68905 
L 362.611957 330.349107 
L 362.602112 317.43512 
L 379.051384 318.748042 
z
" clip-path="url(#p0c881eedb7)" style="fill: #808080; fill-opacity: 0.3"/>
    <path d="M 362.582374 291.545436 
L 346.17836 290.29228 
L 346.155443 277.343657 
L 362.572482 278.569641 
z
" clip-path="url(#p0c881eedb7)" style="fill: #808080; fill-opacity: 0.3"/>
    <path d="M 346.109499 251.384521 
L 329.737696 250.218227 
L 329.701695 237.234938 
L 346.086472 238.37391 
z
" clip-path="url(#p0c881eedb7)" style="fill: #808080; fill-opacity: 0.3"/>
    <path d="M 379.051384 318.748042 
L 362.602112 317.43512 
L 362.592251 304.500579 
L 379.054621 305.786392 
z
" clip-path="url(#p0c881eedb7)" style="fill: #808080; fill-opacity: 0.3"/>
    <path d="M 362.572482 278.569641 
L 346.155443 277.343657 
L 346.132489 264.37442 
L 362.562574 265.573145 
z
" clip-path="url(#p0c881eedb7)" style="fill: #808080; fill-opacity: 0.3"/>
    <path d="M 346.086472 238.37391 
L 329.701695 237.234938 
L 329.665637 224.230976 
L 346.063408 225.342538 
z
" clip-path="url(#p0c881eedb7)" style="fill: #808080; fill-opacity: 0.3"/>
    <path d="M 395.539553 345.982291 
L 379.044927 344.609466 
L 379.048153 331.68905 
L 395.555948 333.034829 
z
" clip-path="url(#p0c881eedb7)" style="fill: #808080; fill-opacity: 0.3"/>
    <path d="M 379.054621 305.786392 
L 362.592251 304.500579 
L 362.582374 291.545436 
L 379.057862 292.804052 
z
" clip-path="url(#p0c881eedb7)" style="fill: #808080; fill-opacity: 0.3"/>
    <path d="M 362.562574 265.573145 
L 346.132489 264.37442 
L 346.109499 251.384521 
L 362.55265 252.555898 
z
" clip-path="url(#p0c881eedb7)" style="fill: #808080; fill-opacity: 0.3"/>
    <path d="M 395.555948 333.034829 
L 379.048153 331.68905 
L 379.051384 318.748042 
L 395.572369 320.066687 
z
" clip-path="url(#p0c881eedb7)" style="fill: #808080; fill-opacity: 0.3"/>
    <path d="M 379.057862 292.804052 
L 362.582374 291.545436 
L 362.572482 278.569641 
L 379.061109 279.800972 
z
" clip-path="url(#p0c881eedb7)" style="fill: #808080; fill-opacity: 0.3"/>
    <path d="M 362.55265 252.555898 
L 346.109499 251.384521 
L 346.086472 238.37391 
L 362.54271 239.51785 
z
" clip-path="url(#p0c881eedb7)" style="fill: #808080; fill-opacity: 0.3"/>
    <path d="M 395.572369 320.066687 
L 379.051384 318.748042 
L 379.054621 305.786392 
L 395.588817 307.077815 
z
" clip-path="url(#p0c881eedb7)" style="fill: #808080; fill-opacity: 0.3"/>
    <path d="M 379.061109 279.800972 
L 362.572482 278.569641 
L 362.562574 265.573145 
L 379.06436 266.777101 
z
" clip-path="url(#p0c881eedb7)" style="fill: #808080; fill-opacity: 0.3"/>
    <path d="M 362.54271 239.51785 
L 346.086472 238.37391 
L 346.063408 225.342538 
L 362.532755 226.458952 
z
" clip-path="url(#p0c881eedb7)" style="fill: #808080; fill-opacity: 0.3"/>
    <path d="M 412.10613 347.361106 
L 395.539553 345.982291 
L 395.555948 333.034829 
L 412.13581 334.386484 
z
" clip-path="url(#p0c881eedb7)" style="fill: #808080; fill-opacity: 0.3"/>
    <path d="M 395.588817 307.077815 
L 379.054621 305.786392 
L 379.057862 292.804052 
L 395.605291 294.068164 
z
" clip-path="url(#p0c881eedb7)" style="fill: #808080; fill-opacity: 0.3"/>
    <path d="M 379.06436 266.777101 
L 362.562574 265.573145 
L 362.55265 252.555898 
L 379.067617 253.732391 
z
" clip-path="url(#p0c881eedb7)" style="fill: #808080; fill-opacity: 0.3"/>
    <path d="M 412.13581 334.386484 
L 395.555948 333.034829 
L 395.572369 320.066687 
L 412.165537 321.391094 
z
" clip-path="url(#p0c881eedb7)" style="fill: #808080; fill-opacity: 0.3"/>
    <path d="M 395.605291 294.068164 
L 379.057862 292.804052 
L 379.061109 279.800972 
L 395.621792 281.037683 
z
" clip-path="url(#p0c881eedb7)" style="fill: #808080; fill-opacity: 0.3"/>
    <path d="M 379.067617 253.732391 
L 362.55265 252.555898 
L 362.54271 239.51785 
L 379.07088 240.66679 
z
" clip-path="url(#p0c881eedb7)" style="fill: #808080; fill-opacity: 0.3"/>
    <path d="M 412.165537 321.391094 
L 395.572369 320.066687 
L 395.588817 307.077815 
L 412.195312 308.374885 
z
" clip-path="url(#p0c881eedb7)" style="fill: #808080; fill-opacity: 0.3"/>
    <path d="M 395.621792 281.037683 
L 379.061109 279.800972 
L 379.06436 266.777101 
L 395.638319 267.986323 
z
" clip-path="url(#p0c881eedb7)" style="fill: #808080; fill-opacity: 0.3"/>
    <path d="M 379.07088 240.66679 
L 362.54271 239.51785 
L 362.532755 226.458952 
L 379.074147 227.580249 
z
" clip-path="url(#p0c881eedb7)" style="fill: #808080; fill-opacity: 0.3"/>
    <path d="M 428.745131 348.745948 
L 412.10613 347.361106 
L 412.13581 334.386484 
L 428.788211 335.744053 
z
" clip-path="url(#p0c881eedb7)" style="fill: #808080; fill-opacity: 0.3"/>
    <path d="M 412.195312 308.374885 
L 395.588817 307.077815 
L 395.605291 294.068164 
L 412.225135 295.337808 
z
" clip-path="url(#p0c881eedb7)" style="fill: #808080; fill-opacity: 0.3"/>
    <path d="M 395.638319 267.986323 
L 379.06436 266.777101 
L 379.067617 253.732391 
L 395.654872 254.914033 
z
" clip-path="url(#p0c881eedb7)" style="fill: #808080; fill-opacity: 0.3"/>
    <path d="M 428.788211 335.744053 
L 412.13581 334.386484 
L 412.165537 321.391094 
L 428.831361 322.7213 
z
" clip-path="url(#p0c881eedb7)" style="fill: #808080; fill-opacity: 0.3"/>
    <path d="M 412.225135 295.337808 
L 395.605291 294.068164 
L 395.621792 281.037683 
L 412.255005 282.279811 
z
" clip-path="url(#p0c881eedb7)" style="fill: #808080; fill-opacity: 0.3"/>
    <path d="M 395.654872 254.914033 
L 379.067617 253.732391 
L 379.07088 240.66679 
L 395.671452 241.820763 
z
" clip-path="url(#p0c881eedb7)" style="fill: #808080; fill-opacity: 0.3"/>
    <path d="M 428.831361 322.7213 
L 412.165537 321.391094 
L 412.195312 308.374885 
L 428.87458 309.677639 
z
" clip-path="url(#p0c881eedb7)" style="fill: #808080; fill-opacity: 0.3"/>
    <path d="M 412.255005 282.279811 
L 395.621792 281.037683 
L 395.638319 267.986323 
L 412.284924 269.200845 
z
" clip-path="url(#p0c881eedb7)" style="fill: #808080; fill-opacity: 0.3"/>
    <path d="M 395.671452 241.820763 
L 379.07088 240.66679 
L 379.074147 227.580249 
L 395.688059 228.706462 
z
" clip-path="url(#p0c881eedb7)" style="fill: #808080; fill-opacity: 0.3"/>
    <path d="M 445.457032 350.136857 
L 428.745131 348.745948 
L 428.788211 335.744053 
L 445.51363 337.107574 
z
" clip-path="url(#p0c881eedb7)" style="fill: #808080; fill-opacity: 0.3"/>
    <path d="M 428.87458 309.677639 
L 412.195312 308.374885 
L 412.225135 295.337808 
L 428.917868 296.61302 
z
" clip-path="url(#p0c881eedb7)" style="fill: #808080; fill-opacity: 0.3"/>
    <path d="M 412.284924 269.200845 
L 395.638319 267.986323 
L 395.654872 254.914033 
L 412.31489 256.100859 
z
" clip-path="url(#p0c881eedb7)" style="fill: #808080; fill-opacity: 0.3"/>
    <path d="M 445.51363 337.107574 
L 428.788211 335.744053 
L 428.831361 322.7213 
L 445.57032 324.057344 
z
" clip-path="url(#p0c881eedb7)" style="fill: #808080; fill-opacity: 0.3"/>
    <path d="M 428.917868 296.61302 
L 412.225135 295.337808 
L 412.255005 282.279811 
L 428.961226 283.527391 
z
" clip-path="url(#p0c881eedb7)" style="fill: #808080; fill-opacity: 0.3"/>
    <path d="M 412.31489 256.100859 
L 395.654872 254.914033 
L 395.671452 241.820763 
L 412.344905 242.979802 
z
" clip-path="url(#p0c881eedb7)" style="fill: #808080; fill-opacity: 0.3"/>
    <path d="M 445.57032 324.057344 
L 428.831361 322.7213 
L 428.87458 309.677639 
L 445.6271 310.986115 
z
" clip-path="url(#p0c881eedb7)" style="fill: #808080; fill-opacity: 0.3"/>
    <path d="M 428.961226 283.527391 
L 412.255005 282.279811 
L 412.284924 269.200845 
L 429.004654 270.420702 
z
" clip-path="url(#p0c881eedb7)" style="fill: #808080; fill-opacity: 0.3"/>
    <path d="M 412.344905 242.979802 
L 395.671452 241.820763 
L 395.688059 228.706462 
L 412.374968 229.837624 
z
" clip-path="url(#p0c881eedb7)" style="fill: #808080; fill-opacity: 0.3"/>
    <path d="M 445.6271 310.986115 
L 428.87458 309.677639 
L 428.917868 296.61302 
L 445.683972 297.893837 
z
" clip-path="url(#p0c881eedb7)" style="fill: #808080; fill-opacity: 0.3"/>
    <path d="M 429.004654 270.420702 
L 412.284924 269.200845 
L 412.31489 256.100859 
L 429.048151 257.292903 
z
" clip-path="url(#p0c881eedb7)" style="fill: #808080; fill-opacity: 0.3"/>
    <path d="M 445.683972 297.893837 
L 428.917868 296.61302 
L 428.961226 283.527391 
L 445.740936 284.780459 
z
" clip-path="url(#p0c881eedb7)" style="fill: #808080; fill-opacity: 0.3"/>
    <path d="M 429.048151 257.292903 
L 412.31489 256.100859 
L 412.344905 242.979802 
L 429.091719 244.143941 
z
" clip-path="url(#p0c881eedb7)" style="fill: #808080; fill-opacity: 0.3"/>
    <path d="M 445.740936 284.780459 
L 428.961226 283.527391 
L 429.004654 270.420702 
L 445.797992 271.64593 
z
" clip-path="url(#p0c881eedb7)" style="fill: #808080; fill-opacity: 0.3"/>
    <path d="M 429.091719 244.143941 
L 412.344905 242.979802 
L 412.374968 229.837624 
L 429.135357 230.973767 
z
" clip-path="url(#p0c881eedb7)" style="fill: #808080; fill-opacity: 0.3"/>
    <path d="M 445.797992 271.64593 
L 429.004654 270.420702 
L 429.048151 257.292903 
L 445.85514 258.490198 
z
" clip-path="url(#p0c881eedb7)" style="fill: #808080; fill-opacity: 0.3"/>
    <path d="M 445.85514 258.490198 
L 429.048151 257.292903 
L 429.091719 244.143941 
L 445.91238 245.313213 
z
" clip-path="url(#p0c881eedb7)" style="fill: #808080; fill-opacity: 0.3"/>
    <path d="M 445.91238 245.313213 
L 429.091719 244.143941 
L 429.135357 230.973767 
L 445.969712 232.114923 
z
" clip-path="url(#p0c881eedb7)" style="fill: #808080; fill-opacity: 0.3"/>
   </g>
   <g id="Path3DCollection_1">
    <defs>
     <path id="C0_0_616f73378e" d="M 0 5.477226 
C 1.452577 5.477226 2.845856 4.900111 3.872983 3.872983 
C 4.900111 2.845856 5.477226 1.452577 5.477226 -0 
C 5.477226 -1.452577 4.900111 -2.845856 3.872983 -3.872983 
C 2.845856 -4.900111 1.452577 -5.477226 0 -5.477226 
C -1.452577 -5.477226 -2.845856 -4.900111 -3.872983 -3.872983 
C -4.900111 -2.845856 -5.477226 -1.452577 -5.477226 0 
C -5.477226 1.452577 -4.900111 2.845856 -3.872983 3.872983 
C -2.845856 4.900111 -1.452577 5.477226 0 5.477226 
z
"/>
    </defs>
    <g clip-path="url(#p0c881eedb7)">
     <use xlink:href="#C0_0_616f73378e" x="234.334096" y="269.56116" style="fill: #ffc300; fill-opacity: 0.3; stroke: #ffc300; stroke-opacity: 0.3"/>
    </g>
    <g clip-path="url(#p0c881eedb7)">
     <use xlink:href="#C0_0_616f73378e" x="240.359257" y="233.077786" style="fill: #ff6400; fill-opacity: 0.301826; stroke: #ff6400; stroke-opacity: 0.301826"/>
    </g>
    <g clip-path="url(#p0c881eedb7)">
     <use xlink:href="#C0_0_616f73378e" x="249.009669" y="303.575776" style="fill: #d1ff00; fill-opacity: 0.370718; stroke: #d1ff00; stroke-opacity: 0.370718"/>
    </g>
    <g clip-path="url(#p0c881eedb7)">
     <use xlink:href="#C0_0_616f73378e" x="269.802196" y="209.798967" style="fill: #ff0000; fill-opacity: 0.418838; stroke: #ff0000; stroke-opacity: 0.418838"/>
    </g>
    <g clip-path="url(#p0c881eedb7)">
     <use xlink:href="#C0_0_616f73378e" x="277.959667" y="333.201785" style="fill: #6cff00; fill-opacity: 0.458442; stroke: #6cff00; stroke-opacity: 0.458442"/>
    </g>
    <g clip-path="url(#p0c881eedb7)">
     <use xlink:href="#C0_0_616f73378e" x="304.987264" y="202.654087" style="fill: #ff0018; fill-opacity: 0.495692; stroke: #ff0018; stroke-opacity: 0.495692"/>
    </g>
    <g clip-path="url(#p0c881eedb7)">
     <use xlink:href="#C0_0_616f73378e" x="375.890964" y="377.430352" style="fill: #00ff5c; fill-opacity: 0.578669; stroke: #00ff5c; stroke-opacity: 0.578669"/>
    </g>
    <g clip-path="url(#p0c881eedb7)">
     <use xlink:href="#C0_0_616f73378e" x="440.647439" y="378.346204" style="fill: #00ffc1; fill-opacity: 0.624557; stroke: #00ffc1; stroke-opacity: 0.624557"/>
    </g>
    <g clip-path="url(#p0c881eedb7)">
     <use xlink:href="#C0_0_616f73378e" x="316.944985" y="362.732306" style="fill: #0eff00; fill-opacity: 0.658296; stroke: #0eff00; stroke-opacity: 0.658296"/>
    </g>
    <g clip-path="url(#p0c881eedb7)">
     <use xlink:href="#C0_0_616f73378e" x="350.759763" y="204.749274" style="fill: #ff007c; fill-opacity: 0.719161; stroke: #ff007c; stroke-opacity: 0.719161"/>
    </g>
    <g clip-path="url(#p0c881eedb7)">
     <use xlink:href="#C0_0_616f73378e" x="498.385258" y="362.861938" style="fill: #00d9ff; fill-opacity: 0.742555; stroke: #00d9ff; stroke-opacity: 0.742555"/>
    </g>
    <g clip-path="url(#p0c881eedb7)">
     <use xlink:href="#C0_0_616f73378e" x="520.109431" y="330.949385" style="fill: #0074ff; fill-opacity: 0.798018; stroke: #0074ff; stroke-opacity: 0.798018"/>
    </g>
    <g clip-path="url(#p0c881eedb7)">
     <use xlink:href="#C0_0_616f73378e" x="404.025616" y="217.561502" style="fill: #ff00e1; fill-opacity: 0.887871; stroke: #ff00e1; stroke-opacity: 0.887871"/>
    </g>
    <g clip-path="url(#p0c881eedb7)">
     <use xlink:href="#C0_0_616f73378e" x="494.213409" y="260.305915" style="fill: #5400ff; fill-opacity: 0.932902; stroke: #5400ff; stroke-opacity: 0.932902"/>
    </g>
    <g clip-path="url(#p0c881eedb7)">
     <use xlink:href="#C0_0_616f73378e" x="517.708177" y="295.739787" style="fill: #020cff; fill-opacity: 0.978023; stroke: #020cff; stroke-opacity: 0.978023"/>
    </g>
    <g clip-path="url(#p0c881eedb7)">
     <use xlink:href="#C0_0_616f73378e" x="458.401346" y="228.452133" style="fill: #b900ff; stroke: #b900ff"/>
    </g>
   </g>
   <g id="Poly3DCollection_2">
    <path d="M 392.630175 317.515019 
L 386.063999 322.564566 
L 387.612764 310.80187 
L 394.181233 305.81492 
z
" clip-path="url(#p0c881eedb7)" style="fill: #808080; fill-opacity: 0.3"/>
    <path d="M 394.181233 305.81492 
L 387.612764 310.80187 
L 389.167102 298.996845 
L 395.737838 294.072974 
z
" clip-path="url(#p0c881eedb7)" style="fill: #808080; fill-opacity: 0.3"/>
    <path d="M 395.737838 294.072974 
L 389.167102 298.996845 
L 390.727044 287.149262 
L 397.300021 282.288955 
z
" clip-path="url(#p0c881eedb7)" style="fill: #808080; fill-opacity: 0.3"/>
    <path d="M 397.300021 282.288955 
L 390.727044 287.149262 
L 392.29262 275.25889 
L 398.867811 270.462638 
z
" clip-path="url(#p0c881eedb7)" style="fill: #808080; fill-opacity: 0.3"/>
    <path d="M 386.063999 322.564566 
L 379.417034 327.67624 
L 380.963332 315.850289 
L 387.612764 310.80187 
z
" clip-path="url(#p0c881eedb7)" style="fill: #808080; fill-opacity: 0.3"/>
    <path d="M 398.867811 270.462638 
L 392.29262 275.25889 
L 393.86386 263.325497 
L 400.441239 258.593795 
z
" clip-path="url(#p0c881eedb7)" style="fill: #808080; fill-opacity: 0.3"/>
    <path d="M 387.612764 310.80187 
L 380.963332 315.850289 
L 382.515229 303.981517 
L 389.167102 298.996845 
z
" clip-path="url(#p0c881eedb7)" style="fill: #808080; fill-opacity: 0.3"/>
    <path d="M 400.441239 258.593795 
L 393.86386 263.325497 
L 395.440796 251.34885 
L 402.020335 246.682194 
z
" clip-path="url(#p0c881eedb7)" style="fill: #808080; fill-opacity: 0.3"/>
    <path d="M 389.167102 298.996845 
L 382.515229 303.981517 
L 384.072755 292.069693 
L 390.727044 287.149262 
z
" clip-path="url(#p0c881eedb7)" style="fill: #808080; fill-opacity: 0.3"/>
    <path d="M 402.020335 246.682194 
L 395.440796 251.34885 
L 397.023458 239.328712 
L 403.60513 234.727606 
z
" clip-path="url(#p0c881eedb7)" style="fill: #808080; fill-opacity: 0.3"/>
    <path d="M 390.727044 287.149262 
L 384.072755 292.069693 
L 385.635941 280.114582 
L 392.29262 275.25889 
z
" clip-path="url(#p0c881eedb7)" style="fill: #808080; fill-opacity: 0.3"/>
    <path d="M 379.417034 327.67624 
L 372.68778 332.851197 
L 374.231431 320.96132 
L 380.963332 315.850289 
z
" clip-path="url(#p0c881eedb7)" style="fill: #808080; fill-opacity: 0.3"/>
    <path d="M 403.60513 234.727606 
L 397.023458 239.328712 
L 398.611877 227.264846 
L 405.195654 222.729797 
z
" clip-path="url(#p0c881eedb7)" style="fill: #808080; fill-opacity: 0.3"/>
    <path d="M 392.29262 275.25889 
L 385.635941 280.114582 
L 387.204819 268.115948 
L 393.86386 263.325497 
z
" clip-path="url(#p0c881eedb7)" style="fill: #808080; fill-opacity: 0.3"/>
    <path d="M 380.963332 315.850289 
L 374.231431 320.96132 
L 375.780706 309.028124 
L 382.515229 303.981517 
z
" clip-path="url(#p0c881eedb7)" style="fill: #808080; fill-opacity: 0.3"/>
    <path d="M 405.195654 222.729797 
L 398.611877 227.264846 
L 400.206085 215.157014 
L 406.79194 210.688531 
z
" clip-path="url(#p0c881eedb7)" style="fill: #808080; fill-opacity: 0.3"/>
    <path d="M 393.86386 263.325497 
L 387.204819 268.115948 
L 388.779418 256.073551 
L 395.440796 251.34885 
z
" clip-path="url(#p0c881eedb7)" style="fill: #808080; fill-opacity: 0.3"/>
    <path d="M 382.515229 303.981517 
L 375.780706 309.028124 
L 377.335635 297.051373 
L 384.072755 292.069693 
z
" clip-path="url(#p0c881eedb7)" style="fill: #808080; fill-opacity: 0.3"/>
    <path d="M 395.440796 251.34885 
L 388.779418 256.073551 
L 390.35977 243.987153 
L 397.023458 239.328712 
z
" clip-path="url(#p0c881eedb7)" style="fill: #808080; fill-opacity: 0.3"/>
    <path d="M 384.072755 292.069693 
L 377.335635 297.051373 
L 378.896251 285.030827 
L 385.635941 280.114582 
z
" clip-path="url(#p0c881eedb7)" style="fill: #808080; fill-opacity: 0.3"/>
    <path d="M 372.68778 332.851197 
L 365.8747 338.090618 
L 367.415517 326.136136 
L 374.231431 320.96132 
z
" clip-path="url(#p0c881eedb7)" style="fill: #808080; fill-opacity: 0.3"/>
    <path d="M 397.023458 239.328712 
L 390.35977 243.987153 
L 391.945908 231.856512 
L 398.611877 227.264846 
z
" clip-path="url(#p0c881eedb7)" style="fill: #808080; fill-opacity: 0.3"/>
    <path d="M 385.635941 280.114582 
L 378.896251 285.030827 
L 380.462584 272.966246 
L 387.204819 268.115948 
z
" clip-path="url(#p0c881eedb7)" style="fill: #808080; fill-opacity: 0.3"/>
    <path d="M 374.231431 320.96132 
L 367.415517 326.136136 
L 368.961983 314.137828 
L 375.780706 309.028124 
z
" clip-path="url(#p0c881eedb7)" style="fill: #808080; fill-opacity: 0.3"/>
    <path d="M 398.611877 227.264846 
L 391.945908 231.856512 
L 393.537863 219.681384 
L 400.206085 215.157014 
z
" clip-path="url(#p0c881eedb7)" style="fill: #808080; fill-opacity: 0.3"/>
    <path d="M 387.204819 268.115948 
L 380.462584 272.966246 
L 382.034665 260.857388 
L 388.779418 256.073551 
z
" clip-path="url(#p0c881eedb7)" style="fill: #808080; fill-opacity: 0.3"/>
    <path d="M 375.780706 309.028124 
L 368.961983 314.137828 
L 370.514129 302.095452 
L 377.335635 297.051373 
z
" clip-path="url(#p0c881eedb7)" style="fill: #808080; fill-opacity: 0.3"/>
    <path d="M 388.779418 256.073551 
L 382.034665 260.857388 
L 383.612526 248.704007 
L 390.35977 243.987153 
z
" clip-path="url(#p0c881eedb7)" style="fill: #808080; fill-opacity: 0.3"/>
    <path d="M 377.335635 297.051373 
L 370.514129 302.095452 
L 372.071986 290.008765 
L 378.896251 285.030827 
z
" clip-path="url(#p0c881eedb7)" style="fill: #808080; fill-opacity: 0.3"/>
    <path d="M 365.8747 338.090618 
L 358.976217 343.395716 
L 360.514008 331.375938 
L 367.415517 326.136136 
z
" clip-path="url(#p0c881eedb7)" style="fill: #808080; fill-opacity: 0.3"/>
    <path d="M 390.35977 243.987153 
L 383.612526 248.704007 
L 385.196199 236.505859 
L 391.945908 231.856512 
z
" clip-path="url(#p0c881eedb7)" style="fill: #808080; fill-opacity: 0.3"/>
    <path d="M 378.896251 285.030827 
L 372.071986 290.008765 
L 373.635586 277.877522 
L 380.462584 272.966246 
z
" clip-path="url(#p0c881eedb7)" style="fill: #808080; fill-opacity: 0.3"/>
    <path d="M 367.415517 326.136136 
L 360.514008 331.375938 
L 362.057472 319.311818 
L 368.961983 314.137828 
z
" clip-path="url(#p0c881eedb7)" style="fill: #808080; fill-opacity: 0.3"/>
    <path d="M 391.945908 231.856512 
L 385.196199 236.505859 
L 386.785717 224.262695 
L 393.537863 219.681384 
z
" clip-path="url(#p0c881eedb7)" style="fill: #808080; fill-opacity: 0.3"/>
    <path d="M 380.462584 272.966246 
L 373.635586 277.877522 
L 375.204961 265.701477 
L 382.034665 260.857388 
z
" clip-path="url(#p0c881eedb7)" style="fill: #808080; fill-opacity: 0.3"/>
    <path d="M 368.961983 314.137828 
L 362.057472 319.311818 
L 363.60664 307.203108 
L 370.514129 302.095452 
z
" clip-path="url(#p0c881eedb7)" style="fill: #808080; fill-opacity: 0.3"/>
    <path d="M 382.034665 260.857388 
L 375.204961 265.701477 
L 376.780142 253.48038 
L 383.612526 248.704007 
z
" clip-path="url(#p0c881eedb7)" style="fill: #808080; fill-opacity: 0.3"/>
    <path d="M 370.514129 302.095452 
L 363.60664 307.203108 
L 365.161545 295.049563 
L 372.071986 290.008765 
z
" clip-path="url(#p0c881eedb7)" style="fill: #808080; fill-opacity: 0.3"/>
    <path d="M 358.976217 343.395716 
L 351.990716 348.767733 
L 353.525281 336.681958 
L 360.514008 331.375938 
z
" clip-path="url(#p0c881eedb7)" style="fill: #808080; fill-opacity: 0.3"/>
    <path d="M 383.612526 248.704007 
L 376.780142 253.48038 
L 378.361163 241.213981 
L 385.196199 236.505859 
z
" clip-path="url(#p0c881eedb7)" style="fill: #808080; fill-opacity: 0.3"/>
    <path d="M 372.071986 290.008765 
L 365.161545 295.049563 
L 366.722218 282.850932 
L 373.635586 277.877522 
z
" clip-path="url(#p0c881eedb7)" style="fill: #808080; fill-opacity: 0.3"/>
    <path d="M 360.514008 331.375938 
L 353.525281 336.681958 
L 355.065543 324.551315 
L 362.057472 319.311818 
z
" clip-path="url(#p0c881eedb7)" style="fill: #808080; fill-opacity: 0.3"/>
    <path d="M 385.196199 236.505859 
L 378.361163 241.213981 
L 379.948054 228.902029 
L 386.785717 224.262695 
z
" clip-path="url(#p0c881eedb7)" style="fill: #808080; fill-opacity: 0.3"/>
    <path d="M 373.635586 277.877522 
L 366.722218 282.850932 
L 368.288692 270.606964 
L 375.204961 265.701477 
z
" clip-path="url(#p0c881eedb7)" style="fill: #808080; fill-opacity: 0.3"/>
    <path d="M 362.057472 319.311818 
L 355.065543 324.551315 
L 356.611534 312.375554 
L 363.60664 307.203108 
z
" clip-path="url(#p0c881eedb7)" style="fill: #808080; fill-opacity: 0.3"/>
    <path d="M 375.204961 265.701477 
L 368.288692 270.606964 
L 369.860998 258.317405 
L 376.780142 253.48038 
z
" clip-path="url(#p0c881eedb7)" style="fill: #808080; fill-opacity: 0.3"/>
    <path d="M 363.60664 307.203108 
L 356.611534 312.375554 
L 358.163285 300.154421 
L 365.161545 295.049563 
z
" clip-path="url(#p0c881eedb7)" style="fill: #808080; fill-opacity: 0.3"/>
    <path d="M 351.990716 348.767733 
L 344.916539 354.207944 
L 346.447672 342.05546 
L 353.525281 336.681958 
z
" clip-path="url(#p0c881eedb7)" style="fill: #808080; fill-opacity: 0.3"/>
    <path d="M 376.780142 253.48038 
L 369.860998 258.317405 
L 371.43917 245.982002 
L 378.361163 241.213981 
z
" clip-path="url(#p0c881eedb7)" style="fill: #808080; fill-opacity: 0.3"/>
    <path d="M 365.161545 295.049563 
L 358.163285 300.154421 
L 359.72083 287.887663 
L 366.722218 282.850932 
z
" clip-path="url(#p0c881eedb7)" style="fill: #808080; fill-opacity: 0.3"/>
    <path d="M 353.525281 336.681958 
L 346.447672 342.05546 
L 347.984525 329.857573 
L 355.065543 324.551315 
z
" clip-path="url(#p0c881eedb7)" style="fill: #808080; fill-opacity: 0.3"/>
    <path d="M 378.361163 241.213981 
L 371.43917 245.982002 
L 373.02324 233.600495 
L 379.948054 228.902029 
z
" clip-path="url(#p0c881eedb7)" style="fill: #808080; fill-opacity: 0.3"/>
    <path d="M 366.722218 282.850932 
L 359.72083 287.887663 
L 361.284201 275.575024 
L 368.288692 270.606964 
z
" clip-path="url(#p0c881eedb7)" style="fill: #808080; fill-opacity: 0.3"/>
    <path d="M 355.065543 324.551315 
L 347.984525 329.857573 
L 349.527131 317.614028 
L 356.611534 312.375554 
z
" clip-path="url(#p0c881eedb7)" style="fill: #808080; fill-opacity: 0.3"/>
    <path d="M 368.288692 270.606964 
L 361.284201 275.575024 
L 362.85343 263.216246 
L 369.860998 258.317405 
z
" clip-path="url(#p0c881eedb7)" style="fill: #808080; fill-opacity: 0.3"/>
    <path d="M 356.611534 312.375554 
L 349.527131 317.614028 
L 351.075522 305.324567 
L 358.163285 300.154421 
z
" clip-path="url(#p0c881eedb7)" style="fill: #808080; fill-opacity: 0.3"/>
    <path d="M 344.916539 354.207944 
L 337.751987 359.717655 
L 339.279474 347.497739 
L 346.447672 342.05546 
z
" clip-path="url(#p0c881eedb7)" style="fill: #808080; fill-opacity: 0.3"/>
    <path d="M 369.860998 258.317405 
L 362.85343 263.216246 
L 364.42855 250.811069 
L 371.43917 245.982002 
z
" clip-path="url(#p0c881eedb7)" style="fill: #808080; fill-opacity: 0.3"/>
    <path d="M 358.163285 300.154421 
L 351.075522 305.324567 
L 352.62973 292.988932 
L 359.72083 287.887663 
z
" clip-path="url(#p0c881eedb7)" style="fill: #808080; fill-opacity: 0.3"/>
    <path d="M 346.447672 342.05546 
L 339.279474 347.497739 
L 340.812705 335.231875 
L 347.984525 329.857573 
z
" clip-path="url(#p0c881eedb7)" style="fill: #808080; fill-opacity: 0.3"/>
    <path d="M 371.43917 245.982002 
L 364.42855 250.811069 
L 366.009595 238.359232 
L 373.02324 233.600495 
z
" clip-path="url(#p0c881eedb7)" style="fill: #808080; fill-opacity: 0.3"/>
    <path d="M 359.72083 287.887663 
L 352.62973 292.988932 
L 354.18979 280.606862 
L 361.284201 275.575024 
z
" clip-path="url(#p0c881eedb7)" style="fill: #808080; fill-opacity: 0.3"/>
    <path d="M 347.984525 329.857573 
L 340.812705 335.231875 
L 342.351711 322.919803 
L 349.527131 317.614028 
z
" clip-path="url(#p0c881eedb7)" style="fill: #808080; fill-opacity: 0.3"/>
    <path d="M 361.284201 275.575024 
L 354.18979 280.606862 
L 355.755732 268.178095 
L 362.85343 263.216246 
z
" clip-path="url(#p0c881eedb7)" style="fill: #808080; fill-opacity: 0.3"/>
    <path d="M 349.527131 317.614028 
L 342.351711 322.919803 
L 343.896526 310.561261 
L 351.075522 305.324567 
z
" clip-path="url(#p0c881eedb7)" style="fill: #808080; fill-opacity: 0.3"/>
    <path d="M 337.751987 359.717655 
L 330.495318 365.298206 
L 332.018938 353.010123 
L 339.279474 347.497739 
z
" clip-path="url(#p0c881eedb7)" style="fill: #808080; fill-opacity: 0.3"/>
    <path d="M 362.85343 263.216246 
L 355.755732 268.178095 
L 357.327592 255.702365 
L 364.42855 250.811069 
z
" clip-path="url(#p0c881eedb7)" style="fill: #808080; fill-opacity: 0.3"/>
    <path d="M 351.075522 305.324567 
L 343.896526 310.561261 
L 345.447183 298.155987 
L 352.62973 292.988932 
z
" clip-path="url(#p0c881eedb7)" style="fill: #808080; fill-opacity: 0.3"/>
    <path d="M 339.279474 347.497739 
L 332.018938 353.010123 
L 333.548324 340.675538 
L 340.812705 335.231875 
z
" clip-path="url(#p0c881eedb7)" style="fill: #808080; fill-opacity: 0.3"/>
    <path d="M 364.42855 250.811069 
L 357.327592 255.702365 
L 358.905402 243.179407 
L 366.009595 238.359232 
z
" clip-path="url(#p0c881eedb7)" style="fill: #808080; fill-opacity: 0.3"/>
    <path d="M 352.62973 292.988932 
L 345.447183 298.155987 
L 347.003715 285.703714 
L 354.18979 280.606862 
z
" clip-path="url(#p0c881eedb7)" style="fill: #808080; fill-opacity: 0.3"/>
    <path d="M 340.812705 335.231875 
L 333.548324 340.675538 
L 335.083509 328.294185 
L 342.351711 322.919803 
z
" clip-path="url(#p0c881eedb7)" style="fill: #808080; fill-opacity: 0.3"/>
    <path d="M 354.18979 280.606862 
L 347.003715 285.703714 
L 348.566155 273.204174 
L 355.755732 268.178095 
z
" clip-path="url(#p0c881eedb7)" style="fill: #808080; fill-opacity: 0.3"/>
    <path d="M 342.351711 322.919803 
L 335.083509 328.294185 
L 336.624526 315.865798 
L 343.896526 310.561261 
z
" clip-path="url(#p0c881eedb7)" style="fill: #808080; fill-opacity: 0.3"/>
    <path d="M 355.755732 268.178095 
L 348.566155 273.204174 
L 350.134536 260.657099 
L 357.327592 255.702365 
z
" clip-path="url(#p0c881eedb7)" style="fill: #808080; fill-opacity: 0.3"/>
    <path d="M 343.896526 310.561261 
L 336.624526 315.865798 
L 338.171408 303.390109 
L 345.447183 298.155987 
z
" clip-path="url(#p0c881eedb7)" style="fill: #808080; fill-opacity: 0.3"/>
    <path d="M 357.327592 255.702365 
L 350.134536 260.657099 
L 351.708894 248.062216 
L 358.905402 243.179407 
z
" clip-path="url(#p0c881eedb7)" style="fill: #808080; fill-opacity: 0.3"/>
    <path d="M 345.447183 298.155987 
L 338.171408 303.390109 
L 339.724188 290.866848 
L 347.003715 285.703714 
z
" clip-path="url(#p0c881eedb7)" style="fill: #808080; fill-opacity: 0.3"/>
    <path d="M 347.003715 285.703714 
L 339.724188 290.866848 
L 341.282901 278.295741 
L 348.566155 273.204174 
z
" clip-path="url(#p0c881eedb7)" style="fill: #808080; fill-opacity: 0.3"/>
    <path d="M 348.566155 273.204174 
L 341.282901 278.295741 
L 342.847581 265.676514 
L 350.134536 260.657099 
z
" clip-path="url(#p0c881eedb7)" style="fill: #808080; fill-opacity: 0.3"/>
    <path d="M 350.134536 260.657099 
L 342.847581 265.676514 
L 344.418261 253.00889 
L 351.708894 248.062216 
z
" clip-path="url(#p0c881eedb7)" style="fill: #808080; fill-opacity: 0.3"/>
   </g>
   <g id="legend_1">
    <g id="patch_6">
     <path d="M 343.470937 136.36125 
L 578.16 136.36125 
Q 581.76 136.36125 581.76 132.76125 
L 581.76 81.72 
Q 581.76 78.12 578.16 78.12 
L 343.470937 78.12 
Q 339.870937 78.12 339.870937 81.72 
L 339.870937 132.76125 
Q 339.870937 136.36125 343.470937 136.36125 
z
" style="fill: #ffffff; opacity: 0.8; stroke: #cccccc; stroke-linejoin: miter"/>
    </g>
    <g id="Path3DCollection_2">
     <path d="M 365.070937 99.749413 
C 366.523515 99.749413 367.916794 99.172298 368.943921 98.145171 
C 369.971048 97.118044 370.548163 95.724765 370.548163 94.272188 
C 370.548163 92.81961 369.971048 91.426331 368.943921 90.399204 
C 367.916794 89.372077 366.523515 88.794962 365.070937 88.794962 
C 363.61836 88.794962 362.225081 89.372077 361.197954 90.399204 
C 360.170827 91.426331 359.593712 92.81961 359.593712 94.272188 
C 359.593712 95.724765 360.170827 97.118044 361.197954 98.145171 
C 362.225081 99.172298 363.61836 99.749413 365.070937 99.749413 
z
" style="fill: #ff0000; stroke: #ff0000"/>
    </g>
    <g id="text_18">
     <!-- Selected stimulus 1 -->
     <g transform="translate(397.470937 98.997188) scale(0.18 -0.18)">
      <defs>
       <path id="DejaVuSans-53" d="M 3425 4513 
L 3425 3897 
Q 3066 4069 2747 4153 
Q 2428 4238 2131 4238 
Q 1616 4238 1336 4038 
Q 1056 3838 1056 3469 
Q 1056 3159 1242 3001 
Q 1428 2844 1947 2747 
L 2328 2669 
Q 3034 2534 3370 2195 
Q 3706 1856 3706 1288 
Q 3706 609 3251 259 
Q 2797 -91 1919 -91 
Q 1588 -91 1214 -16 
Q 841 59 441 206 
L 441 856 
Q 825 641 1194 531 
Q 1563 422 1919 422 
Q 2459 422 2753 634 
Q 3047 847 3047 1241 
Q 3047 1584 2836 1778 
Q 2625 1972 2144 2069 
L 1759 2144 
Q 1053 2284 737 2584 
Q 422 2884 422 3419 
Q 422 4038 858 4394 
Q 1294 4750 2059 4750 
Q 2388 4750 2728 4690 
Q 3069 4631 3425 4513 
z
" transform="scale(0.015625)"/>
       <path id="DejaVuSans-65" d="M 3597 1894 
L 3597 1613 
L 953 1613 
Q 991 1019 1311 708 
Q 1631 397 2203 397 
Q 2534 397 2845 478 
Q 3156 559 3463 722 
L 3463 178 
Q 3153 47 2828 -22 
Q 2503 -91 2169 -91 
Q 1331 -91 842 396 
Q 353 884 353 1716 
Q 353 2575 817 3079 
Q 1281 3584 2069 3584 
Q 2775 3584 3186 3129 
Q 3597 2675 3597 1894 
z
M 3022 2063 
Q 3016 2534 2758 2815 
Q 2500 3097 2075 3097 
Q 1594 3097 1305 2825 
Q 1016 2553 972 2059 
L 3022 2063 
z
" transform="scale(0.015625)"/>
       <path id="DejaVuSans-6c" d="M 603 4863 
L 1178 4863 
L 1178 0 
L 603 0 
L 603 4863 
z
" transform="scale(0.015625)"/>
       <path id="DejaVuSans-63" d="M 3122 3366 
L 3122 2828 
Q 2878 2963 2633 3030 
Q 2388 3097 2138 3097 
Q 1578 3097 1268 2742 
Q 959 2388 959 1747 
Q 959 1106 1268 751 
Q 1578 397 2138 397 
Q 2388 397 2633 464 
Q 2878 531 3122 666 
L 3122 134 
Q 2881 22 2623 -34 
Q 2366 -91 2075 -91 
Q 1284 -91 818 406 
Q 353 903 353 1747 
Q 353 2603 823 3093 
Q 1294 3584 2113 3584 
Q 2378 3584 2631 3529 
Q 2884 3475 3122 3366 
z
" transform="scale(0.015625)"/>
       <path id="DejaVuSans-74" d="M 1172 4494 
L 1172 3500 
L 2356 3500 
L 2356 3053 
L 1172 3053 
L 1172 1153 
Q 1172 725 1289 603 
Q 1406 481 1766 481 
L 2356 481 
L 2356 0 
L 1766 0 
Q 1100 0 847 248 
Q 594 497 594 1153 
L 594 3053 
L 172 3053 
L 172 3500 
L 594 3500 
L 594 4494 
L 1172 4494 
z
" transform="scale(0.015625)"/>
       <path id="DejaVuSans-64" d="M 2906 2969 
L 2906 4863 
L 3481 4863 
L 3481 0 
L 2906 0 
L 2906 525 
Q 2725 213 2448 61 
Q 2172 -91 1784 -91 
Q 1150 -91 751 415 
Q 353 922 353 1747 
Q 353 2572 751 3078 
Q 1150 3584 1784 3584 
Q 2172 3584 2448 3432 
Q 2725 3281 2906 2969 
z
M 947 1747 
Q 947 1113 1208 752 
Q 1469 391 1925 391 
Q 2381 391 2643 752 
Q 2906 1113 2906 1747 
Q 2906 2381 2643 2742 
Q 2381 3103 1925 3103 
Q 1469 3103 1208 2742 
Q 947 2381 947 1747 
z
" transform="scale(0.015625)"/>
       <path id="DejaVuSans-73" d="M 2834 3397 
L 2834 2853 
Q 2591 2978 2328 3040 
Q 2066 3103 1784 3103 
Q 1356 3103 1142 2972 
Q 928 2841 928 2578 
Q 928 2378 1081 2264 
Q 1234 2150 1697 2047 
L 1894 2003 
Q 2506 1872 2764 1633 
Q 3022 1394 3022 966 
Q 3022 478 2636 193 
Q 2250 -91 1575 -91 
Q 1294 -91 989 -36 
Q 684 19 347 128 
L 347 722 
Q 666 556 975 473 
Q 1284 391 1588 391 
Q 1994 391 2212 530 
Q 2431 669 2431 922 
Q 2431 1156 2273 1281 
Q 2116 1406 1581 1522 
L 1381 1569 
Q 847 1681 609 1914 
Q 372 2147 372 2553 
Q 372 3047 722 3315 
Q 1072 3584 1716 3584 
Q 2034 3584 2315 3537 
Q 2597 3491 2834 3397 
z
" transform="scale(0.015625)"/>
       <path id="DejaVuSans-69" d="M 603 3500 
L 1178 3500 
L 1178 0 
L 603 0 
L 603 3500 
z
M 603 4863 
L 1178 4863 
L 1178 4134 
L 603 4134 
L 603 4863 
z
" transform="scale(0.015625)"/>
       <path id="DejaVuSans-6d" d="M 3328 2828 
Q 3544 3216 3844 3400 
Q 4144 3584 4550 3584 
Q 5097 3584 5394 3201 
Q 5691 2819 5691 2113 
L 5691 0 
L 5113 0 
L 5113 2094 
Q 5113 2597 4934 2840 
Q 4756 3084 4391 3084 
Q 3944 3084 3684 2787 
Q 3425 2491 3425 1978 
L 3425 0 
L 2847 0 
L 2847 2094 
Q 2847 2600 2669 2842 
Q 2491 3084 2119 3084 
Q 1678 3084 1418 2786 
Q 1159 2488 1159 1978 
L 1159 0 
L 581 0 
L 581 3500 
L 1159 3500 
L 1159 2956 
Q 1356 3278 1631 3431 
Q 1906 3584 2284 3584 
Q 2666 3584 2933 3390 
Q 3200 3197 3328 2828 
z
" transform="scale(0.015625)"/>
       <path id="DejaVuSans-75" d="M 544 1381 
L 544 3500 
L 1119 3500 
L 1119 1403 
Q 1119 906 1312 657 
Q 1506 409 1894 409 
Q 2359 409 2629 706 
Q 2900 1003 2900 1516 
L 2900 3500 
L 3475 3500 
L 3475 0 
L 2900 0 
L 2900 538 
Q 2691 219 2414 64 
Q 2138 -91 1772 -91 
Q 1169 -91 856 284 
Q 544 659 544 1381 
z
M 1991 3584 
L 1991 3584 
z
" transform="scale(0.015625)"/>
      </defs>
      <use xlink:href="#DejaVuSans-53"/>
      <use xlink:href="#DejaVuSans-65" x="63.476562"/>
      <use xlink:href="#DejaVuSans-6c" x="125"/>
      <use xlink:href="#DejaVuSans-65" x="152.783203"/>
      <use xlink:href="#DejaVuSans-63" x="214.306641"/>
      <use xlink:href="#DejaVuSans-74" x="269.287109"/>
      <use xlink:href="#DejaVuSans-65" x="308.496094"/>
      <use xlink:href="#DejaVuSans-64" x="370.019531"/>
      <use xlink:href="#DejaVuSans-20" x="433.496094"/>
      <use xlink:href="#DejaVuSans-73" x="465.283203"/>
      <use xlink:href="#DejaVuSans-74" x="517.382812"/>
      <use xlink:href="#DejaVuSans-69" x="556.591797"/>
      <use xlink:href="#DejaVuSans-6d" x="584.375"/>
      <use xlink:href="#DejaVuSans-75" x="681.787109"/>
      <use xlink:href="#DejaVuSans-6c" x="745.166016"/>
      <use xlink:href="#DejaVuSans-75" x="772.949219"/>
      <use xlink:href="#DejaVuSans-73" x="836.328125"/>
      <use xlink:href="#DejaVuSans-20" x="888.427734"/>
      <use xlink:href="#DejaVuSans-31" x="920.214844"/>
     </g>
    </g>
    <g id="Path3DCollection_3">
     <path d="M 365.070937 126.170038 
L 370.548163 115.215587 
L 359.593712 115.215587 
z
" style="fill: #ff0000; stroke: #ff0000"/>
    </g>
    <g id="text_19">
     <!-- Selected stimulus 2 -->
     <g transform="translate(397.470937 125.417813) scale(0.18 -0.18)">
      <use xlink:href="#DejaVuSans-53"/>
      <use xlink:href="#DejaVuSans-65" x="63.476562"/>
      <use xlink:href="#DejaVuSans-6c" x="125"/>
      <use xlink:href="#DejaVuSans-65" x="152.783203"/>
      <use xlink:href="#DejaVuSans-63" x="214.306641"/>
      <use xlink:href="#DejaVuSans-74" x="269.287109"/>
      <use xlink:href="#DejaVuSans-65" x="308.496094"/>
      <use xlink:href="#DejaVuSans-64" x="370.019531"/>
      <use xlink:href="#DejaVuSans-20" x="433.496094"/>
      <use xlink:href="#DejaVuSans-73" x="465.283203"/>
      <use xlink:href="#DejaVuSans-74" x="517.382812"/>
      <use xlink:href="#DejaVuSans-69" x="556.591797"/>
      <use xlink:href="#DejaVuSans-6d" x="584.375"/>
      <use xlink:href="#DejaVuSans-75" x="681.787109"/>
      <use xlink:href="#DejaVuSans-6c" x="745.166016"/>
      <use xlink:href="#DejaVuSans-75" x="772.949219"/>
      <use xlink:href="#DejaVuSans-73" x="836.328125"/>
      <use xlink:href="#DejaVuSans-20" x="888.427734"/>
      <use xlink:href="#DejaVuSans-32" x="920.214844"/>
     </g>
    </g>
   </g>
   <g id="Path3DCollection_4">
    <path d="M 427.855378 260.079902 
L 433.332603 249.125451 
L 422.378152 249.125451 
z
" clip-path="url(#p0c881eedb7)" style="fill: #ffc300; fill-opacity: 0.3; stroke: #ffc300; stroke-opacity: 0.3"/>
    <path d="M 417.270772 306.261635 
L 422.747997 295.307184 
L 411.793546 295.307184 
z
" clip-path="url(#p0c881eedb7)" style="fill: #ff6400; fill-opacity: 0.309721; stroke: #ff6400; stroke-opacity: 0.309721"/>
    <path d="M 440.928846 238.498096 
L 446.406071 227.543645 
L 435.45162 227.543645 
z
" clip-path="url(#p0c881eedb7)" style="fill: #d1ff00; fill-opacity: 0.316587; stroke: #d1ff00; stroke-opacity: 0.316587"/>
    <path d="M 437.620494 216.433337 
L 443.097719 205.478886 
L 432.143268 205.478886 
z
" clip-path="url(#p0c881eedb7)" style="fill: #6cff00; fill-opacity: 0.395448; stroke: #6cff00; stroke-opacity: 0.395448"/>
    <path d="M 383.028804 327.569227 
L 388.50603 316.614776 
L 377.551579 316.614776 
z
" clip-path="url(#p0c881eedb7)" style="fill: #ff0000; fill-opacity: 0.4273; stroke: #ff0000; stroke-opacity: 0.4273"/>
    <path d="M 403.540277 209.19486 
L 409.017503 198.240409 
L 398.063052 198.240409 
z
" clip-path="url(#p0c881eedb7)" style="fill: #08ff00; fill-opacity: 0.516589; stroke: #08ff00; stroke-opacity: 0.516589"/>
    <path d="M 367.476553 350.401468 
L 372.953779 339.447017 
L 361.999327 339.447017 
z
" clip-path="url(#p0c881eedb7)" style="fill: #ff0018; fill-opacity: 0.60278; stroke: #ff0018; stroke-opacity: 0.60278"/>
    <path d="M 408.212473 219.125155 
L 413.689698 208.170704 
L 402.735247 208.170704 
z
" clip-path="url(#p0c881eedb7)" style="fill: #00ff57; fill-opacity: 0.680377; stroke: #00ff57; stroke-opacity: 0.680377"/>
    <path d="M 338.721452 365.481229 
L 344.198678 354.526778 
L 333.244226 354.526778 
z
" clip-path="url(#p0c881eedb7)" style="fill: #ff007c; fill-opacity: 0.761713; stroke: #ff007c; stroke-opacity: 0.761713"/>
    <path d="M 362.570996 241.118956 
L 368.048222 230.164505 
L 357.093771 230.164505 
z
" clip-path="url(#p0c881eedb7)" style="fill: #00ffc1; fill-opacity: 0.817213; stroke: #00ffc1; stroke-opacity: 0.817213"/>
    <path d="M 327.382381 370.95459 
L 332.859607 360.000138 
L 321.905156 360.000138 
z
" clip-path="url(#p0c881eedb7)" style="fill: #ff00e1; fill-opacity: 0.894781; stroke: #ff00e1; stroke-opacity: 0.894781"/>
    <path d="M 324.748531 261.145187 
L 330.225756 250.190736 
L 319.271305 250.190736 
z
" clip-path="url(#p0c881eedb7)" style="fill: #00dfff; fill-opacity: 0.916764; stroke: #00dfff; stroke-opacity: 0.916764"/>
    <path d="M 315.881573 364.110337 
L 321.358799 353.155886 
L 310.404347 353.155886 
z
" clip-path="url(#p0c881eedb7)" style="fill: #bf00ff; fill-opacity: 0.970739; stroke: #bf00ff; stroke-opacity: 0.970739"/>
    <path d="M 306.379006 341.669582 
L 311.856232 330.715131 
L 300.901781 330.715131 
z
" clip-path="url(#p0c881eedb7)" style="fill: #4f00ff; fill-opacity: 0.974987; stroke: #4f00ff; stroke-opacity: 0.974987"/>
    <path d="M 307.436412 292.000335 
L 312.913638 281.045884 
L 301.959187 281.045884 
z
" clip-path="url(#p0c881eedb7)" style="fill: #007aff; fill-opacity: 0.984209; stroke: #007aff; stroke-opacity: 0.984209"/>
    <path d="M 309.214834 324.049495 
L 314.69206 313.095043 
L 303.737608 313.095043 
z
" clip-path="url(#p0c881eedb7)" style="fill: #0010ff; stroke: #0010ff"/>
   </g>
  </g>
 </g>
 <defs>
  <clipPath id="p0c881eedb7">
   <rect x="147.24" y="69.12" width="443.52" height="443.52"/>
  </clipPath>
 </defs>
</svg>
