<?xml version="1.0" encoding="utf-8" standalone="no"?>
<!DOCTYPE svg PUBLIC "-//W3C//DTD SVG 1.1//EN"
  "http://www.w3.org/Graphics/SVG/1.1/DTD/svg11.dtd">
<svg xmlns:xlink="http://www.w3.org/1999/xlink" width="1440pt" height="432pt" viewBox="0 0 1440 432" xmlns="http://www.w3.org/2000/svg" version="1.1">
 <metadata>
  <rdf:RDF xmlns:dc="http://purl.org/dc/elements/1.1/" xmlns:cc="http://creativecommons.org/ns#" xmlns:rdf="http://www.w3.org/1999/02/22-rdf-syntax-ns#">
   <cc:Work>
    <dc:type rdf:resource="http://purl.org/dc/dcmitype/StillImage"/>
    <dc:date>2025-02-28T00:24:20.065817</dc:date>
    <dc:format>image/svg+xml</dc:format>
    <dc:creator>
     <cc:Agent>
      <dc:title>Matplotlib v3.9.2, https://matplotlib.org/</dc:title>
     </cc:Agent>
    </dc:creator>
   </cc:Work>
  </rdf:RDF>
 </metadata>
 <defs>
  <style type="text/css">*{stroke-linejoin: round; stroke-linecap: butt}</style>
 </defs>
 <g id="figure_1">
  <g id="patch_1">
   <path d="M 0 432 
L 1440 432 
L 1440 0 
L 0 0 
L 0 432 
z
" style="fill: none"/>
  </g>
  <g id="axes_1">
   <g id="patch_2">
    <path d="M 48.31 404.12 
L 1429.2 404.12 
L 1429.2 10.8 
L 48.31 10.8 
L 48.31 404.12 
z
" style="fill: none"/>
   </g>
   <g id="matplotlib.axis_1"/>
   <g id="matplotlib.axis_2"/>
   <g id="line2d_1">
    <path d="M 247.930633 386.241818 
L 247.362881 382.630064 
L 246.586584 379.01831 
L 245.54282 375.406556 
L 244.162294 371.794803 
L 242.36563 368.183049 
L 240.064634 364.571295 
L 237.16484 360.959541 
L 233.56966 357.347787 
L 229.186387 353.736033 
L 223.934137 350.124279 
L 217.753527 346.512525 
L 210.617608 342.900771 
L 202.543105 339.289017 
L 193.600743 335.677264 
L 183.923134 332.06551 
L 173.708684 328.453756 
L 163.220165 324.842002 
L 152.777064 321.230248 
L 142.741502 317.618494 
L 133.498346 314.00674 
L 125.430937 310.394986 
L 118.894587 306.783232 
L 114.19038 303.171478 
L 111.541964 299.559725 
L 111.077727 295.947971 
L 112.820218 292.336217 
L 116.683844 288.724463 
L 122.480971 285.112709 
L 129.935655 281.500955 
L 138.703444 277.889201 
L 148.395142 274.277447 
L 158.602147 270.665693 
L 168.921014 267.053939 
L 178.975163 263.442185 
L 188.43222 259.830432 
L 197.016113 256.218678 
L 204.51376 252.606924 
L 210.776808 248.99517 
L 215.719387 245.383416 
L 219.313093 241.771662 
L 221.580456 238.159908 
L 222.587977 234.548154 
L 222.439484 230.9364 
L 221.270175 227.324646 
L 219.241285 223.712893 
L 216.535075 220.101139 
L 213.349646 216.489385 
L 209.893095 212.877631 
L 206.37665 209.265877 
L 203.006685 205.654123 
L 199.975735 202.042369 
L 197.452955 198.430615 
L 195.574617 194.818861 
L 194.435453 191.207107 
L 194.081646 187.595354 
L 194.506276 183.9836 
L 195.647896 180.371846 
L 197.392696 176.760092 
L 199.580431 173.148338 
L 202.013953 169.536584 
L 204.471803 165.92483 
L 206.723024 162.313076 
L 208.543043 158.701322 
L 209.729394 155.089568 
L 210.11603 151.477815 
L 209.585145 147.866061 
L 208.075692 144.254307 
L 205.58813 140.642553 
L 202.185248 137.030799 
L 197.989207 133.419045 
L 193.175135 129.807291 
L 187.961749 126.195537 
L 182.599532 122.583783 
L 177.357035 118.972029 
L 172.50597 115.360275 
L 168.305806 111.748522 
L 164.988738 108.136768 
L 162.745961 104.525014 
L 161.716258 100.91326 
L 161.977823 97.301506 
L 163.544094 93.689752 
L 166.364028 90.077998 
L 170.326874 86.466244 
L 175.271056 82.85449 
L 180.996362 79.242736 
L 187.278318 75.630983 
L 193.883422 72.019229 
L 200.583916 68.407475 
L 207.170847 64.795721 
L 213.46447 61.183967 
L 219.321355 57.572213 
L 224.63797 53.960459 
L 229.350861 50.348705 
L 233.433904 46.736951 
L 236.893281 43.125197 
L 239.76102 39.513444 
L 242.087886 35.90169 
L 243.936393 32.289936 
L 245.374491 28.678182 
" clip-path="url(#pbb81e748d2)" style="fill: none; stroke: #fed194; stroke-width: 4; stroke-linecap: square"/>
   </g>
   <g id="line2d_2">
    <path d="M 435.413166 386.241818 
L 435.413166 382.630064 
L 435.413166 379.01831 
L 435.413166 375.406556 
L 435.413166 371.794803 
L 435.413166 368.183049 
L 435.413166 364.571295 
L 435.413163 360.959541 
L 435.413153 357.347787 
L 435.413107 353.736033 
L 435.412931 350.124279 
L 435.412304 346.512525 
L 435.41028 342.900771 
L 435.404333 339.289017 
L 435.388413 335.677264 
L 435.349569 332.06551 
L 435.263101 328.453756 
L 435.08724 324.842002 
L 434.759663 321.230248 
L 434.198709 317.618494 
L 433.310298 314.00674 
L 431.99701 310.394986 
L 430.160835 306.783232 
L 427.69072 303.171478 
L 424.434105 299.559725 
L 420.166466 295.947971 
L 414.585789 292.336217 
L 407.358775 288.724463 
L 398.22657 285.112709 
L 387.144677 281.500955 
L 374.400542 277.889201 
L 360.644604 274.277447 
L 346.800174 270.665693 
L 333.875767 267.053939 
L 322.756527 263.442185 
L 314.061499 259.830432 
L 308.111424 256.218678 
L 304.988009 252.606924 
L 304.624273 248.99517 
L 306.867096 245.383416 
L 311.483993 241.771662 
L 318.121486 238.159908 
L 326.248917 234.548154 
L 335.135839 230.9364 
L 343.906345 227.324646 
L 351.681685 223.712893 
L 357.771703 220.101139 
L 361.837471 216.489385 
L 363.952449 212.877631 
L 364.536898 209.265877 
L 364.196808 205.654123 
L 363.529505 202.042369 
L 362.956029 198.430615 
L 362.622315 194.818861 
L 362.393037 191.207107 
L 361.942258 187.595354 
L 360.916491 183.9836 
L 359.11345 180.371846 
L 356.603924 176.760092 
L 353.742797 173.148338 
L 351.065129 169.536584 
L 349.118562 165.92483 
L 348.311375 162.313076 
L 348.83941 158.701322 
L 350.706205 155.089568 
L 353.801236 151.477815 
L 357.980958 147.866061 
L 363.113051 144.254307 
L 369.077201 140.642553 
L 375.740651 137.030799 
L 382.931662 133.419045 
L 390.425749 129.807291 
L 397.95017 126.195537 
L 405.20671 122.583783 
L 411.908287 118.972029 
L 417.81949 115.360275 
L 422.788363 111.748522 
L 426.76011 108.136768 
L 429.771248 104.525014 
L 431.929304 100.91326 
L 433.385374 97.301506 
L 434.30592 93.689752 
L 434.84858 90.077998 
L 435.14547 86.466244 
L 435.295584 82.85449 
L 435.365479 79.242736 
L 435.395358 75.630983 
L 435.407057 72.019229 
L 435.411245 68.407475 
L 435.412613 64.795721 
L 435.413021 61.183967 
L 435.413131 57.572213 
L 435.413159 53.960459 
L 435.413165 50.348705 
L 435.413166 46.736951 
L 435.413166 43.125197 
L 435.413166 39.513444 
L 435.413166 35.90169 
L 435.413166 32.289936 
L 435.413166 28.678182 
" clip-path="url(#pbb81e748d2)" style="fill: none; stroke: #f8765c; stroke-width: 4; stroke-linecap: square"/>
   </g>
   <g id="line2d_3">
    <path d="M 621.616987 386.241818 
L 621.616987 382.630064 
L 621.616987 379.01831 
L 621.616987 375.406556 
L 621.616987 371.794803 
L 621.616987 368.183049 
L 621.616987 364.571295 
L 621.616987 360.959541 
L 621.616987 357.347787 
L 621.616987 353.736033 
L 621.616987 350.124279 
L 621.616987 346.512525 
L 621.616987 342.900771 
L 621.616987 339.289017 
L 621.616987 335.677264 
L 621.616986 332.06551 
L 621.616976 328.453756 
L 621.616898 324.842002 
L 621.6164 321.230248 
L 621.613876 317.618494 
L 621.603613 314.00674 
L 621.570159 310.394986 
L 621.482718 306.783232 
L 621.298833 303.171478 
L 620.983913 299.559725 
L 620.529074 295.947971 
L 619.928716 292.336217 
L 619.11249 288.724463 
L 617.892769 285.112709 
L 615.977349 281.500955 
L 613.001195 277.889201 
L 608.530784 274.277447 
L 602.141522 270.665693 
L 593.671808 267.053939 
L 583.431592 263.442185 
L 571.947724 259.830432 
L 559.346217 256.218678 
L 545.201361 252.606924 
L 529.353717 248.99517 
L 512.896518 245.383416 
L 498.062903 241.771662 
L 486.963249 238.159908 
L 480.444282 234.548154 
L 478.062982 230.9364 
L 478.858148 227.324646 
L 482.006747 223.712893 
L 486.951872 220.101139 
L 493.184783 216.489385 
L 499.999183 212.877631 
L 506.456966 209.265877 
L 511.645583 205.654123 
L 515.054823 202.042369 
L 516.75784 198.430615 
L 517.187463 194.818861 
L 516.635666 191.207107 
L 515.018726 187.595354 
L 512.365221 183.9836 
L 509.63593 180.371846 
L 508.878653 176.760092 
L 512.31143 173.148338 
L 521.010212 169.536584 
L 534.20583 165.92483 
L 549.659349 162.313076 
L 564.822153 158.701322 
L 577.991292 155.089568 
L 588.728946 151.477815 
L 597.418601 147.866061 
L 604.50823 144.254307 
L 610.127476 140.642553 
L 614.242908 137.030799 
L 616.954959 133.419045 
L 618.563787 129.807291 
L 619.437776 126.195537 
L 619.899618 122.583783 
L 620.194892 118.972029 
L 620.477686 115.360275 
L 620.794031 111.748522 
L 621.104428 108.136768 
L 621.348686 104.525014 
L 621.500702 100.91326 
L 621.575642 97.301506 
L 621.605002 93.689752 
L 621.614166 90.077998 
L 621.61645 86.466244 
L 621.616905 82.85449 
L 621.616977 79.242736 
L 621.616986 75.630983 
L 621.616987 72.019229 
L 621.616987 68.407475 
L 621.616987 64.795721 
L 621.616987 61.183967 
L 621.616987 57.572213 
L 621.616987 53.960459 
L 621.616987 50.348705 
L 621.616987 46.736951 
L 621.616987 43.125197 
L 621.616987 39.513444 
L 621.616987 35.90169 
L 621.616987 32.289936 
L 621.616987 28.678182 
" clip-path="url(#pbb81e748d2)" style="fill: none; stroke: #d3436e; stroke-width: 4; stroke-linecap: square"/>
   </g>
   <g id="line2d_4">
    <path d="M 807.820809 386.241818 
L 807.820809 382.630064 
L 807.820809 379.01831 
L 807.820809 375.406556 
L 807.820809 371.794803 
L 807.820809 368.183049 
L 807.820809 364.571295 
L 807.820809 360.959541 
L 807.820809 357.347787 
L 807.820809 353.736033 
L 807.820809 350.124279 
L 807.820809 346.512525 
L 807.820809 342.900771 
L 807.820809 339.289017 
L 807.820809 335.677264 
L 807.820809 332.06551 
L 807.820809 328.453756 
L 807.820809 324.842002 
L 807.820809 321.230248 
L 807.820809 317.618494 
L 807.820809 314.00674 
L 807.820809 310.394986 
L 807.820809 306.783232 
L 807.820808 303.171478 
L 807.820783 299.559725 
L 807.820443 295.947971 
L 807.817184 292.336217 
L 807.795803 288.724463 
L 807.698905 285.112709 
L 807.389725 281.500955 
L 806.665216 277.889201 
L 805.320577 274.277447 
L 803.153671 270.665693 
L 799.94027 267.053939 
L 795.518924 263.442185 
L 789.908399 259.830432 
L 783.126851 256.218678 
L 774.354031 252.606924 
L 761.665313 248.99517 
L 744.443633 245.383416 
L 725.874248 241.771662 
L 710.339677 238.159908 
L 698.601651 234.548154 
L 687.736651 230.9364 
L 674.71162 227.324646 
L 659.462181 223.712893 
L 646.109743 220.101139 
L 639.915532 216.489385 
L 641.243726 212.877631 
L 644.560482 209.265877 
L 645.241479 205.654123 
L 645.591275 202.042369 
L 651.457154 198.430615 
L 664.229193 194.818861 
L 680.163286 191.207107 
L 696.139745 187.595354 
L 711.588835 183.9836 
L 726.195515 180.371846 
L 739.405982 176.760092 
L 751.386359 173.148338 
L 762.466242 169.536584 
L 772.333684 165.92483 
L 780.623448 162.313076 
L 787.504496 158.701322 
L 793.266183 155.089568 
L 797.856151 151.477815 
L 801.136894 147.866061 
L 803.288846 144.254307 
L 804.761652 140.642553 
L 805.9238 137.030799 
L 806.829088 133.419045 
L 807.355145 129.807291 
L 807.467089 126.195537 
L 807.304146 122.583783 
L 807.132159 118.972029 
L 807.172731 115.360275 
L 807.404077 111.748522 
L 807.638353 108.136768 
L 807.766438 104.525014 
L 807.809782 100.91326 
L 807.819287 97.301506 
L 807.820666 93.689752 
L 807.8208 90.077998 
L 807.820808 86.466244 
L 807.820809 82.85449 
L 807.820809 79.242736 
L 807.820809 75.630983 
L 807.820809 72.019229 
L 807.820809 68.407475 
L 807.820809 64.795721 
L 807.820809 61.183967 
L 807.820809 57.572213 
L 807.820809 53.960459 
L 807.820809 50.348705 
L 807.820809 46.736951 
L 807.820809 43.125197 
L 807.820809 39.513444 
L 807.820809 35.90169 
L 807.820809 32.289936 
L 807.820809 28.678182 
" clip-path="url(#pbb81e748d2)" style="fill: none; stroke: #982d80; stroke-width: 4; stroke-linecap: square"/>
   </g>
   <g id="line2d_5">
    <path d="M 994.02463 386.241818 
L 994.02463 382.630064 
L 994.02463 379.01831 
L 994.02463 375.406556 
L 994.02463 371.794803 
L 994.02463 368.183049 
L 994.02463 364.571295 
L 994.02463 360.959541 
L 994.02463 357.347787 
L 994.02463 353.736033 
L 994.02463 350.124279 
L 994.02463 346.512525 
L 994.02463 342.900771 
L 994.02463 339.289017 
L 994.02463 335.677264 
L 994.02463 332.06551 
L 994.02463 328.453756 
L 994.02463 324.842002 
L 994.02463 321.230248 
L 994.02463 317.618494 
L 994.02463 314.00674 
L 994.02463 310.394986 
L 994.02463 306.783232 
L 994.02463 303.171478 
L 994.02463 299.559725 
L 994.02463 295.947971 
L 994.02463 292.336217 
L 994.02463 288.724463 
L 994.024606 285.112709 
L 994.024034 281.500955 
L 994.016078 277.889201 
L 993.952718 274.277447 
L 993.661958 270.665693 
L 992.879158 267.053939 
L 991.538188 263.442185 
L 989.601814 259.830432 
L 986.378779 256.218678 
L 981.368919 252.606924 
L 975.671135 248.99517 
L 970.070325 245.383416 
L 962.124756 241.771662 
L 948.581279 238.159908 
L 929.7156 234.548154 
L 909.254628 230.9364 
L 890.604069 227.324646 
L 874.168502 223.712893 
L 860.224007 220.101139 
L 850.637042 216.489385 
L 845.557295 212.877631 
L 843.346848 209.265877 
L 844.584843 205.654123 
L 850.542994 202.042369 
L 860.640848 198.430615 
L 873.516721 194.818861 
L 887.618809 191.207107 
L 902.864998 187.595354 
L 918.658172 183.9836 
L 933.102547 180.371846 
L 945.996358 176.760092 
L 957.246919 173.148338 
L 966.415861 169.536584 
L 974.403191 165.92483 
L 981.899813 162.313076 
L 987.603842 158.701322 
L 990.630324 155.089568 
L 992.081667 151.477815 
L 993.062703 147.866061 
L 993.695075 144.254307 
L 993.953936 140.642553 
L 994.015536 137.030799 
L 994.023944 133.419045 
L 994.0246 129.807291 
L 994.024629 126.195537 
L 994.02463 122.583783 
L 994.02463 118.972029 
L 994.02463 115.360275 
L 994.02463 111.748522 
L 994.02463 108.136768 
L 994.02463 104.525014 
L 994.02463 100.91326 
L 994.02463 97.301506 
L 994.02463 93.689752 
L 994.02463 90.077998 
L 994.02463 86.466244 
L 994.02463 82.85449 
L 994.02463 79.242736 
L 994.02463 75.630983 
L 994.02463 72.019229 
L 994.02463 68.407475 
L 994.02463 64.795721 
L 994.02463 61.183967 
L 994.02463 57.572213 
L 994.02463 53.960459 
L 994.02463 50.348705 
L 994.02463 46.736951 
L 994.02463 43.125197 
L 994.02463 39.513444 
L 994.02463 35.90169 
L 994.02463 32.289936 
L 994.02463 28.678182 
" clip-path="url(#pbb81e748d2)" style="fill: none; stroke: #221150; stroke-width: 4; stroke-linecap: square"/>
   </g>
   <g id="line2d_6">
    <path d="M 1180.228451 386.241818 
L 1180.228451 382.630064 
L 1180.228451 379.01831 
L 1180.228451 375.406556 
L 1180.228451 371.794803 
L 1180.228451 368.183049 
L 1180.228451 364.571295 
L 1180.228451 360.959541 
L 1180.228451 357.347787 
L 1180.228451 353.736033 
L 1180.228451 350.124279 
L 1180.228451 346.512525 
L 1180.228451 342.900771 
L 1180.228451 339.289017 
L 1180.228451 335.677264 
L 1180.228451 332.06551 
L 1180.228451 328.453756 
L 1180.228451 324.842002 
L 1180.228451 321.230248 
L 1180.228451 317.618494 
L 1180.228451 314.00674 
L 1180.228451 310.394986 
L 1180.228451 306.783232 
L 1180.228451 303.171478 
L 1180.228451 299.559725 
L 1180.228451 295.947971 
L 1180.228451 292.336217 
L 1180.228451 288.724463 
L 1180.228451 285.112709 
L 1180.228451 281.500955 
L 1180.228446 277.889201 
L 1180.228256 274.277447 
L 1180.224538 270.665693 
L 1180.185443 267.053939 
L 1179.958741 263.442185 
L 1179.196194 259.830432 
L 1177.491647 256.218678 
L 1174.243513 252.606924 
L 1168.688151 248.99517 
L 1161.685888 245.383416 
L 1154.503111 241.771662 
L 1145.887384 238.159908 
L 1134.851471 234.548154 
L 1121.37428 230.9364 
L 1106.31031 227.324646 
L 1091.317059 223.712893 
L 1075.263683 220.101139 
L 1059.393119 216.489385 
L 1048.74383 212.877631 
L 1043.742776 209.265877 
L 1043.599908 205.654123 
L 1050.442087 202.042369 
L 1062.669114 198.430615 
L 1075.081342 194.818861 
L 1087.706072 191.207107 
L 1102.808819 187.595354 
L 1118.560775 183.9836 
L 1132.378762 180.371846 
L 1144.585942 176.760092 
L 1155.491084 173.148338 
L 1163.220987 169.536584 
L 1167.817643 165.92483 
L 1171.387209 162.313076 
L 1174.398327 158.701322 
L 1176.931594 155.089568 
L 1178.925308 151.477815 
L 1179.921891 147.866061 
L 1180.188475 144.254307 
L 1180.225639 140.642553 
L 1180.228346 137.030799 
L 1180.228449 133.419045 
L 1180.228451 129.807291 
L 1180.228451 126.195537 
L 1180.228451 122.583783 
L 1180.228451 118.972029 
L 1180.228451 115.360275 
L 1180.228451 111.748522 
L 1180.228451 108.136768 
L 1180.228451 104.525014 
L 1180.228451 100.91326 
L 1180.228451 97.301506 
L 1180.228451 93.689752 
L 1180.228451 90.077998 
L 1180.228451 86.466244 
L 1180.228451 82.85449 
L 1180.228451 79.242736 
L 1180.228451 75.630983 
L 1180.228451 72.019229 
L 1180.228451 68.407475 
L 1180.228451 64.795721 
L 1180.228451 61.183967 
L 1180.228451 57.572213 
L 1180.228451 53.960459 
L 1180.228451 50.348705 
L 1180.228451 46.736951 
L 1180.228451 43.125197 
L 1180.228451 39.513444 
L 1180.228451 35.90169 
L 1180.228451 32.289936 
L 1180.228451 28.678182 
" clip-path="url(#pbb81e748d2)" style="fill: none; stroke: #000004; stroke-width: 4; stroke-linecap: square"/>
   </g>
   <g id="line2d_7">
    <path d="M 1366.432273 386.241818 
L 1366.432273 382.630064 
L 1366.432273 379.01831 
L 1366.432273 375.406556 
L 1366.432273 371.794803 
L 1366.432273 368.183049 
L 1366.432273 364.571295 
L 1366.432273 360.959541 
L 1366.432273 357.347787 
L 1366.432273 353.736033 
L 1366.432273 350.124279 
L 1366.432273 346.512525 
L 1366.432273 342.900771 
L 1366.432273 339.289017 
L 1366.432273 335.677264 
L 1366.432273 332.06551 
L 1366.432273 328.453756 
L 1366.432273 324.842002 
L 1366.432273 321.230248 
L 1366.432273 317.618494 
L 1366.432273 314.00674 
L 1366.432273 310.394986 
L 1366.432273 306.783232 
L 1366.432273 303.171478 
L 1366.432273 299.559725 
L 1366.432273 295.947971 
L 1366.432271 292.336217 
L 1366.432196 288.724463 
L 1366.430177 285.112709 
L 1366.407029 281.500955 
L 1366.291914 277.889201 
L 1366.032502 274.277447 
L 1365.732855 270.665693 
L 1365.507208 267.053939 
L 1365.179946 263.442185 
L 1364.450592 259.830432 
L 1363.190786 256.218678 
L 1360.559506 252.606924 
L 1355.851684 248.99517 
L 1350.150559 245.383416 
L 1343.543063 241.771662 
L 1334.60681 238.159908 
L 1321.867904 234.548154 
L 1306.299494 230.9364 
L 1290.753442 227.324646 
L 1276.418989 223.712893 
L 1265.307309 220.101139 
L 1255.6275 216.489385 
L 1247.505298 212.877631 
L 1243.78716 209.265877 
L 1242.599421 205.654123 
L 1243.672068 202.042369 
L 1250.123533 198.430615 
L 1262.041896 194.818861 
L 1276.967706 191.207107 
L 1293.307564 187.595354 
L 1308.178386 183.9836 
L 1321.164622 180.371846 
L 1334.102658 176.760092 
L 1344.8032 173.148338 
L 1350.233231 169.536584 
L 1353.714684 165.92483 
L 1358.404728 162.313076 
L 1362.202747 158.701322 
L 1364.245268 155.089568 
L 1365.421878 151.477815 
L 1366.126465 147.866061 
L 1366.384459 144.254307 
L 1366.428784 140.642553 
L 1366.432158 137.030799 
L 1366.432271 133.419045 
L 1366.432273 129.807291 
L 1366.432273 126.195537 
L 1366.432273 122.583783 
L 1366.432273 118.972029 
L 1366.432273 115.360275 
L 1366.432273 111.748522 
L 1366.432273 108.136768 
L 1366.432273 104.525014 
L 1366.432273 100.91326 
L 1366.432273 97.301506 
L 1366.432273 93.689752 
L 1366.432273 90.077998 
L 1366.432273 86.466244 
L 1366.432273 82.85449 
L 1366.432273 79.242736 
L 1366.432273 75.630983 
L 1366.432273 72.019229 
L 1366.432273 68.407475 
L 1366.432273 64.795721 
L 1366.432273 61.183967 
L 1366.432273 57.572213 
L 1366.432273 53.960459 
L 1366.432273 50.348705 
L 1366.432273 46.736951 
L 1366.432273 43.125197 
L 1366.432273 39.513444 
L 1366.432273 35.90169 
L 1366.432273 32.289936 
L 1366.432273 28.678182 
" clip-path="url(#pbb81e748d2)" style="fill: none; stroke: #000004; stroke-width: 4; stroke-linecap: square"/>
   </g>
  </g>
 </g>
 <defs>
  <clipPath id="pbb81e748d2">
   <rect x="48.31" y="10.8" width="1380.89" height="393.32"/>
  </clipPath>
 </defs>
</svg>
