<?xml version="1.0" encoding="utf-8" standalone="no"?>
<!DOCTYPE svg PUBLIC "-//W3C//DTD SVG 1.1//EN"
  "http://www.w3.org/Graphics/SVG/1.1/DTD/svg11.dtd">
<svg xmlns:xlink="http://www.w3.org/1999/xlink" width="460.8pt" height="345.6pt" viewBox="0 0 460.8 345.6" xmlns="http://www.w3.org/2000/svg" version="1.1">
 <metadata>
  <rdf:RDF xmlns:dc="http://purl.org/dc/elements/1.1/" xmlns:cc="http://creativecommons.org/ns#" xmlns:rdf="http://www.w3.org/1999/02/22-rdf-syntax-ns#">
   <cc:Work>
    <dc:type rdf:resource="http://purl.org/dc/dcmitype/StillImage"/>
    <dc:date>2025-05-14T04:38:03.050032</dc:date>
    <dc:format>image/svg+xml</dc:format>
    <dc:creator>
     <cc:Agent>
      <dc:title>Matplotlib v3.9.2, https://matplotlib.org/</dc:title>
     </cc:Agent>
    </dc:creator>
   </cc:Work>
  </rdf:RDF>
 </metadata>
 <defs>
  <style type="text/css">*{stroke-linejoin: round; stroke-linecap: butt}</style>
 </defs>
 <g id="figure_1">
  <g id="patch_1">
   <path d="M 0 345.6 
L 460.8 345.6 
L 460.8 0 
L 0 0 
L 0 345.6 
z
" style="fill: none"/>
  </g>
  <g id="axes_1">
   <g id="patch_2">
    <path d="M 57.6 307.584 
L 414.72 307.584 
L 414.72 41.472 
L 57.6 41.472 
L 57.6 307.584 
z
" style="fill: none"/>
   </g>
   <g id="matplotlib.axis_1">
    <g id="xtick_1">
     <g id="line2d_1">
      <defs>
       <path id="m3177070f91" d="M 0 0 
L 0 3.5 
" style="stroke: #000000; stroke-width: 0.8"/>
      </defs>
      <g>
       <use xlink:href="#m3177070f91" x="57.6" y="307.584" style="stroke: #000000; stroke-width: 0.8"/>
      </g>
     </g>
     <g id="text_1">
      <!-- 0.0 -->
      <g transform="translate(49.648438 322.182437) scale(0.1 -0.1)">
       <defs>
        <path id="DejaVuSans-30" d="M 2034 4250 
Q 1547 4250 1301 3770 
Q 1056 3291 1056 2328 
Q 1056 1369 1301 889 
Q 1547 409 2034 409 
Q 2525 409 2770 889 
Q 3016 1369 3016 2328 
Q 3016 3291 2770 3770 
Q 2525 4250 2034 4250 
z
M 2034 4750 
Q 2819 4750 3233 4129 
Q 3647 3509 3647 2328 
Q 3647 1150 3233 529 
Q 2819 -91 2034 -91 
Q 1250 -91 836 529 
Q 422 1150 422 2328 
Q 422 3509 836 4129 
Q 1250 4750 2034 4750 
z
" transform="scale(0.015625)"/>
        <path id="DejaVuSans-2e" d="M 684 794 
L 1344 794 
L 1344 0 
L 684 0 
L 684 794 
z
" transform="scale(0.015625)"/>
       </defs>
       <use xlink:href="#DejaVuSans-30"/>
       <use xlink:href="#DejaVuSans-2e" x="63.623047"/>
       <use xlink:href="#DejaVuSans-30" x="95.410156"/>
      </g>
     </g>
    </g>
    <g id="xtick_2">
     <g id="line2d_2">
      <g>
       <use xlink:href="#m3177070f91" x="129.024" y="307.584" style="stroke: #000000; stroke-width: 0.8"/>
      </g>
     </g>
     <g id="text_2">
      <!-- 0.2 -->
      <g transform="translate(121.072438 322.182437) scale(0.1 -0.1)">
       <defs>
        <path id="DejaVuSans-32" d="M 1228 531 
L 3431 531 
L 3431 0 
L 469 0 
L 469 531 
Q 828 903 1448 1529 
Q 2069 2156 2228 2338 
Q 2531 2678 2651 2914 
Q 2772 3150 2772 3378 
Q 2772 3750 2511 3984 
Q 2250 4219 1831 4219 
Q 1534 4219 1204 4116 
Q 875 4013 500 3803 
L 500 4441 
Q 881 4594 1212 4672 
Q 1544 4750 1819 4750 
Q 2544 4750 2975 4387 
Q 3406 4025 3406 3419 
Q 3406 3131 3298 2873 
Q 3191 2616 2906 2266 
Q 2828 2175 2409 1742 
Q 1991 1309 1228 531 
z
" transform="scale(0.015625)"/>
       </defs>
       <use xlink:href="#DejaVuSans-30"/>
       <use xlink:href="#DejaVuSans-2e" x="63.623047"/>
       <use xlink:href="#DejaVuSans-32" x="95.410156"/>
      </g>
     </g>
    </g>
    <g id="xtick_3">
     <g id="line2d_3">
      <g>
       <use xlink:href="#m3177070f91" x="200.448" y="307.584" style="stroke: #000000; stroke-width: 0.8"/>
      </g>
     </g>
     <g id="text_3">
      <!-- 0.4 -->
      <g transform="translate(192.496438 322.182437) scale(0.1 -0.1)">
       <defs>
        <path id="DejaVuSans-34" d="M 2419 4116 
L 825 1625 
L 2419 1625 
L 2419 4116 
z
M 2253 4666 
L 3047 4666 
L 3047 1625 
L 3713 1625 
L 3713 1100 
L 3047 1100 
L 3047 0 
L 2419 0 
L 2419 1100 
L 313 1100 
L 313 1709 
L 2253 4666 
z
" transform="scale(0.015625)"/>
       </defs>
       <use xlink:href="#DejaVuSans-30"/>
       <use xlink:href="#DejaVuSans-2e" x="63.623047"/>
       <use xlink:href="#DejaVuSans-34" x="95.410156"/>
      </g>
     </g>
    </g>
    <g id="xtick_4">
     <g id="line2d_4">
      <g>
       <use xlink:href="#m3177070f91" x="271.872" y="307.584" style="stroke: #000000; stroke-width: 0.8"/>
      </g>
     </g>
     <g id="text_4">
      <!-- 0.6 -->
      <g transform="translate(263.920438 322.182437) scale(0.1 -0.1)">
       <defs>
        <path id="DejaVuSans-36" d="M 2113 2584 
Q 1688 2584 1439 2293 
Q 1191 2003 1191 1497 
Q 1191 994 1439 701 
Q 1688 409 2113 409 
Q 2538 409 2786 701 
Q 3034 994 3034 1497 
Q 3034 2003 2786 2293 
Q 2538 2584 2113 2584 
z
M 3366 4563 
L 3366 3988 
Q 3128 4100 2886 4159 
Q 2644 4219 2406 4219 
Q 1781 4219 1451 3797 
Q 1122 3375 1075 2522 
Q 1259 2794 1537 2939 
Q 1816 3084 2150 3084 
Q 2853 3084 3261 2657 
Q 3669 2231 3669 1497 
Q 3669 778 3244 343 
Q 2819 -91 2113 -91 
Q 1303 -91 875 529 
Q 447 1150 447 2328 
Q 447 3434 972 4092 
Q 1497 4750 2381 4750 
Q 2619 4750 2861 4703 
Q 3103 4656 3366 4563 
z
" transform="scale(0.015625)"/>
       </defs>
       <use xlink:href="#DejaVuSans-30"/>
       <use xlink:href="#DejaVuSans-2e" x="63.623047"/>
       <use xlink:href="#DejaVuSans-36" x="95.410156"/>
      </g>
     </g>
    </g>
    <g id="xtick_5">
     <g id="line2d_5">
      <g>
       <use xlink:href="#m3177070f91" x="343.296" y="307.584" style="stroke: #000000; stroke-width: 0.8"/>
      </g>
     </g>
     <g id="text_5">
      <!-- 0.8 -->
      <g transform="translate(335.344438 322.182437) scale(0.1 -0.1)">
       <defs>
        <path id="DejaVuSans-38" d="M 2034 2216 
Q 1584 2216 1326 1975 
Q 1069 1734 1069 1313 
Q 1069 891 1326 650 
Q 1584 409 2034 409 
Q 2484 409 2743 651 
Q 3003 894 3003 1313 
Q 3003 1734 2745 1975 
Q 2488 2216 2034 2216 
z
M 1403 2484 
Q 997 2584 770 2862 
Q 544 3141 544 3541 
Q 544 4100 942 4425 
Q 1341 4750 2034 4750 
Q 2731 4750 3128 4425 
Q 3525 4100 3525 3541 
Q 3525 3141 3298 2862 
Q 3072 2584 2669 2484 
Q 3125 2378 3379 2068 
Q 3634 1759 3634 1313 
Q 3634 634 3220 271 
Q 2806 -91 2034 -91 
Q 1263 -91 848 271 
Q 434 634 434 1313 
Q 434 1759 690 2068 
Q 947 2378 1403 2484 
z
M 1172 3481 
Q 1172 3119 1398 2916 
Q 1625 2713 2034 2713 
Q 2441 2713 2670 2916 
Q 2900 3119 2900 3481 
Q 2900 3844 2670 4047 
Q 2441 4250 2034 4250 
Q 1625 4250 1398 4047 
Q 1172 3844 1172 3481 
z
" transform="scale(0.015625)"/>
       </defs>
       <use xlink:href="#DejaVuSans-30"/>
       <use xlink:href="#DejaVuSans-2e" x="63.623047"/>
       <use xlink:href="#DejaVuSans-38" x="95.410156"/>
      </g>
     </g>
    </g>
    <g id="xtick_6">
     <g id="line2d_6">
      <g>
       <use xlink:href="#m3177070f91" x="414.72" y="307.584" style="stroke: #000000; stroke-width: 0.8"/>
      </g>
     </g>
     <g id="text_6">
      <!-- 1.0 -->
      <g transform="translate(406.768438 322.182437) scale(0.1 -0.1)">
       <defs>
        <path id="DejaVuSans-31" d="M 794 531 
L 1825 531 
L 1825 4091 
L 703 3866 
L 703 4441 
L 1819 4666 
L 2450 4666 
L 2450 531 
L 3481 531 
L 3481 0 
L 794 0 
L 794 531 
z
" transform="scale(0.015625)"/>
       </defs>
       <use xlink:href="#DejaVuSans-31"/>
       <use xlink:href="#DejaVuSans-2e" x="63.623047"/>
       <use xlink:href="#DejaVuSans-30" x="95.410156"/>
      </g>
     </g>
    </g>
    <g id="text_7">
     <!-- PC3 cosine -->
     <g transform="translate(181.511562 343.459) scale(0.2 -0.2)">
      <defs>
       <path id="DejaVuSans-50" d="M 1259 4147 
L 1259 2394 
L 2053 2394 
Q 2494 2394 2734 2622 
Q 2975 2850 2975 3272 
Q 2975 3691 2734 3919 
Q 2494 4147 2053 4147 
L 1259 4147 
z
M 628 4666 
L 2053 4666 
Q 2838 4666 3239 4311 
Q 3641 3956 3641 3272 
Q 3641 2581 3239 2228 
Q 2838 1875 2053 1875 
L 1259 1875 
L 1259 0 
L 628 0 
L 628 4666 
z
" transform="scale(0.015625)"/>
       <path id="DejaVuSans-43" d="M 4122 4306 
L 4122 3641 
Q 3803 3938 3442 4084 
Q 3081 4231 2675 4231 
Q 1875 4231 1450 3742 
Q 1025 3253 1025 2328 
Q 1025 1406 1450 917 
Q 1875 428 2675 428 
Q 3081 428 3442 575 
Q 3803 722 4122 1019 
L 4122 359 
Q 3791 134 3420 21 
Q 3050 -91 2638 -91 
Q 1578 -91 968 557 
Q 359 1206 359 2328 
Q 359 3453 968 4101 
Q 1578 4750 2638 4750 
Q 3056 4750 3426 4639 
Q 3797 4528 4122 4306 
z
" transform="scale(0.015625)"/>
       <path id="DejaVuSans-33" d="M 2597 2516 
Q 3050 2419 3304 2112 
Q 3559 1806 3559 1356 
Q 3559 666 3084 287 
Q 2609 -91 1734 -91 
Q 1441 -91 1130 -33 
Q 819 25 488 141 
L 488 750 
Q 750 597 1062 519 
Q 1375 441 1716 441 
Q 2309 441 2620 675 
Q 2931 909 2931 1356 
Q 2931 1769 2642 2001 
Q 2353 2234 1838 2234 
L 1294 2234 
L 1294 2753 
L 1863 2753 
Q 2328 2753 2575 2939 
Q 2822 3125 2822 3475 
Q 2822 3834 2567 4026 
Q 2313 4219 1838 4219 
Q 1578 4219 1281 4162 
Q 984 4106 628 3988 
L 628 4550 
Q 988 4650 1302 4700 
Q 1616 4750 1894 4750 
Q 2613 4750 3031 4423 
Q 3450 4097 3450 3541 
Q 3450 3153 3228 2886 
Q 3006 2619 2597 2516 
z
" transform="scale(0.015625)"/>
       <path id="DejaVuSans-20" transform="scale(0.015625)"/>
       <path id="DejaVuSans-63" d="M 3122 3366 
L 3122 2828 
Q 2878 2963 2633 3030 
Q 2388 3097 2138 3097 
Q 1578 3097 1268 2742 
Q 959 2388 959 1747 
Q 959 1106 1268 751 
Q 1578 397 2138 397 
Q 2388 397 2633 464 
Q 2878 531 3122 666 
L 3122 134 
Q 2881 22 2623 -34 
Q 2366 -91 2075 -91 
Q 1284 -91 818 406 
Q 353 903 353 1747 
Q 353 2603 823 3093 
Q 1294 3584 2113 3584 
Q 2378 3584 2631 3529 
Q 2884 3475 3122 3366 
z
" transform="scale(0.015625)"/>
       <path id="DejaVuSans-6f" d="M 1959 3097 
Q 1497 3097 1228 2736 
Q 959 2375 959 1747 
Q 959 1119 1226 758 
Q 1494 397 1959 397 
Q 2419 397 2687 759 
Q 2956 1122 2956 1747 
Q 2956 2369 2687 2733 
Q 2419 3097 1959 3097 
z
M 1959 3584 
Q 2709 3584 3137 3096 
Q 3566 2609 3566 1747 
Q 3566 888 3137 398 
Q 2709 -91 1959 -91 
Q 1206 -91 779 398 
Q 353 888 353 1747 
Q 353 2609 779 3096 
Q 1206 3584 1959 3584 
z
" transform="scale(0.015625)"/>
       <path id="DejaVuSans-73" d="M 2834 3397 
L 2834 2853 
Q 2591 2978 2328 3040 
Q 2066 3103 1784 3103 
Q 1356 3103 1142 2972 
Q 928 2841 928 2578 
Q 928 2378 1081 2264 
Q 1234 2150 1697 2047 
L 1894 2003 
Q 2506 1872 2764 1633 
Q 3022 1394 3022 966 
Q 3022 478 2636 193 
Q 2250 -91 1575 -91 
Q 1294 -91 989 -36 
Q 684 19 347 128 
L 347 722 
Q 666 556 975 473 
Q 1284 391 1588 391 
Q 1994 391 2212 530 
Q 2431 669 2431 922 
Q 2431 1156 2273 1281 
Q 2116 1406 1581 1522 
L 1381 1569 
Q 847 1681 609 1914 
Q 372 2147 372 2553 
Q 372 3047 722 3315 
Q 1072 3584 1716 3584 
Q 2034 3584 2315 3537 
Q 2597 3491 2834 3397 
z
" transform="scale(0.015625)"/>
       <path id="DejaVuSans-69" d="M 603 3500 
L 1178 3500 
L 1178 0 
L 603 0 
L 603 3500 
z
M 603 4863 
L 1178 4863 
L 1178 4134 
L 603 4134 
L 603 4863 
z
" transform="scale(0.015625)"/>
       <path id="DejaVuSans-6e" d="M 3513 2113 
L 3513 0 
L 2938 0 
L 2938 2094 
Q 2938 2591 2744 2837 
Q 2550 3084 2163 3084 
Q 1697 3084 1428 2787 
Q 1159 2491 1159 1978 
L 1159 0 
L 581 0 
L 581 3500 
L 1159 3500 
L 1159 2956 
Q 1366 3272 1645 3428 
Q 1925 3584 2291 3584 
Q 2894 3584 3203 3211 
Q 3513 2838 3513 2113 
z
" transform="scale(0.015625)"/>
       <path id="DejaVuSans-65" d="M 3597 1894 
L 3597 1613 
L 953 1613 
Q 991 1019 1311 708 
Q 1631 397 2203 397 
Q 2534 397 2845 478 
Q 3156 559 3463 722 
L 3463 178 
Q 3153 47 2828 -22 
Q 2503 -91 2169 -91 
Q 1331 -91 842 396 
Q 353 884 353 1716 
Q 353 2575 817 3079 
Q 1281 3584 2069 3584 
Q 2775 3584 3186 3129 
Q 3597 2675 3597 1894 
z
M 3022 2063 
Q 3016 2534 2758 2815 
Q 2500 3097 2075 3097 
Q 1594 3097 1305 2825 
Q 1016 2553 972 2059 
L 3022 2063 
z
" transform="scale(0.015625)"/>
      </defs>
      <use xlink:href="#DejaVuSans-50"/>
      <use xlink:href="#DejaVuSans-43" x="60.302734"/>
      <use xlink:href="#DejaVuSans-33" x="130.126953"/>
      <use xlink:href="#DejaVuSans-20" x="193.75"/>
      <use xlink:href="#DejaVuSans-63" x="225.537109"/>
      <use xlink:href="#DejaVuSans-6f" x="280.517578"/>
      <use xlink:href="#DejaVuSans-73" x="341.699219"/>
      <use xlink:href="#DejaVuSans-69" x="393.798828"/>
      <use xlink:href="#DejaVuSans-6e" x="421.582031"/>
      <use xlink:href="#DejaVuSans-65" x="484.960938"/>
     </g>
    </g>
   </g>
   <g id="matplotlib.axis_2">
    <g id="ytick_1">
     <g id="line2d_7">
      <defs>
       <path id="md92dc63dbf" d="M 0 0 
L -3.5 0 
" style="stroke: #000000; stroke-width: 0.8"/>
      </defs>
      <g>
       <use xlink:href="#md92dc63dbf" x="57.6" y="307.584" style="stroke: #000000; stroke-width: 0.8"/>
      </g>
     </g>
     <g id="text_8">
      <!-- 0 -->
      <g transform="translate(44.2375 311.383219) scale(0.1 -0.1)">
       <use xlink:href="#DejaVuSans-30"/>
      </g>
     </g>
    </g>
    <g id="ytick_2">
     <g id="line2d_8">
      <g>
       <use xlink:href="#md92dc63dbf" x="57.6" y="258.350087" style="stroke: #000000; stroke-width: 0.8"/>
      </g>
     </g>
     <g id="text_9">
      <!-- 2 -->
      <g transform="translate(44.2375 262.149306) scale(0.1 -0.1)">
       <use xlink:href="#DejaVuSans-32"/>
      </g>
     </g>
    </g>
    <g id="ytick_3">
     <g id="line2d_9">
      <g>
       <use xlink:href="#md92dc63dbf" x="57.6" y="209.116174" style="stroke: #000000; stroke-width: 0.8"/>
      </g>
     </g>
     <g id="text_10">
      <!-- 4 -->
      <g transform="translate(44.2375 212.915393) scale(0.1 -0.1)">
       <use xlink:href="#DejaVuSans-34"/>
      </g>
     </g>
    </g>
    <g id="ytick_4">
     <g id="line2d_10">
      <g>
       <use xlink:href="#md92dc63dbf" x="57.6" y="159.882261" style="stroke: #000000; stroke-width: 0.8"/>
      </g>
     </g>
     <g id="text_11">
      <!-- 6 -->
      <g transform="translate(44.2375 163.68148) scale(0.1 -0.1)">
       <use xlink:href="#DejaVuSans-36"/>
      </g>
     </g>
    </g>
    <g id="ytick_5">
     <g id="line2d_11">
      <g>
       <use xlink:href="#md92dc63dbf" x="57.6" y="110.648348" style="stroke: #000000; stroke-width: 0.8"/>
      </g>
     </g>
     <g id="text_12">
      <!-- 8 -->
      <g transform="translate(44.2375 114.447567) scale(0.1 -0.1)">
       <use xlink:href="#DejaVuSans-38"/>
      </g>
     </g>
    </g>
    <g id="ytick_6">
     <g id="line2d_12">
      <g>
       <use xlink:href="#md92dc63dbf" x="57.6" y="61.414435" style="stroke: #000000; stroke-width: 0.8"/>
      </g>
     </g>
     <g id="text_13">
      <!-- 10 -->
      <g transform="translate(37.875 65.213654) scale(0.1 -0.1)">
       <use xlink:href="#DejaVuSans-31"/>
       <use xlink:href="#DejaVuSans-30" x="63.623047"/>
      </g>
     </g>
    </g>
    <g id="text_14">
     <!-- Empricial density -->
     <g transform="translate(29.715625 260.851437) rotate(-90) scale(0.2 -0.2)">
      <defs>
       <path id="DejaVuSans-45" d="M 628 4666 
L 3578 4666 
L 3578 4134 
L 1259 4134 
L 1259 2753 
L 3481 2753 
L 3481 2222 
L 1259 2222 
L 1259 531 
L 3634 531 
L 3634 0 
L 628 0 
L 628 4666 
z
" transform="scale(0.015625)"/>
       <path id="DejaVuSans-6d" d="M 3328 2828 
Q 3544 3216 3844 3400 
Q 4144 3584 4550 3584 
Q 5097 3584 5394 3201 
Q 5691 2819 5691 2113 
L 5691 0 
L 5113 0 
L 5113 2094 
Q 5113 2597 4934 2840 
Q 4756 3084 4391 3084 
Q 3944 3084 3684 2787 
Q 3425 2491 3425 1978 
L 3425 0 
L 2847 0 
L 2847 2094 
Q 2847 2600 2669 2842 
Q 2491 3084 2119 3084 
Q 1678 3084 1418 2786 
Q 1159 2488 1159 1978 
L 1159 0 
L 581 0 
L 581 3500 
L 1159 3500 
L 1159 2956 
Q 1356 3278 1631 3431 
Q 1906 3584 2284 3584 
Q 2666 3584 2933 3390 
Q 3200 3197 3328 2828 
z
" transform="scale(0.015625)"/>
       <path id="DejaVuSans-70" d="M 1159 525 
L 1159 -1331 
L 581 -1331 
L 581 3500 
L 1159 3500 
L 1159 2969 
Q 1341 3281 1617 3432 
Q 1894 3584 2278 3584 
Q 2916 3584 3314 3078 
Q 3713 2572 3713 1747 
Q 3713 922 3314 415 
Q 2916 -91 2278 -91 
Q 1894 -91 1617 61 
Q 1341 213 1159 525 
z
M 3116 1747 
Q 3116 2381 2855 2742 
Q 2594 3103 2138 3103 
Q 1681 3103 1420 2742 
Q 1159 2381 1159 1747 
Q 1159 1113 1420 752 
Q 1681 391 2138 391 
Q 2594 391 2855 752 
Q 3116 1113 3116 1747 
z
" transform="scale(0.015625)"/>
       <path id="DejaVuSans-72" d="M 2631 2963 
Q 2534 3019 2420 3045 
Q 2306 3072 2169 3072 
Q 1681 3072 1420 2755 
Q 1159 2438 1159 1844 
L 1159 0 
L 581 0 
L 581 3500 
L 1159 3500 
L 1159 2956 
Q 1341 3275 1631 3429 
Q 1922 3584 2338 3584 
Q 2397 3584 2469 3576 
Q 2541 3569 2628 3553 
L 2631 2963 
z
" transform="scale(0.015625)"/>
       <path id="DejaVuSans-61" d="M 2194 1759 
Q 1497 1759 1228 1600 
Q 959 1441 959 1056 
Q 959 750 1161 570 
Q 1363 391 1709 391 
Q 2188 391 2477 730 
Q 2766 1069 2766 1631 
L 2766 1759 
L 2194 1759 
z
M 3341 1997 
L 3341 0 
L 2766 0 
L 2766 531 
Q 2569 213 2275 61 
Q 1981 -91 1556 -91 
Q 1019 -91 701 211 
Q 384 513 384 1019 
Q 384 1609 779 1909 
Q 1175 2209 1959 2209 
L 2766 2209 
L 2766 2266 
Q 2766 2663 2505 2880 
Q 2244 3097 1772 3097 
Q 1472 3097 1187 3025 
Q 903 2953 641 2809 
L 641 3341 
Q 956 3463 1253 3523 
Q 1550 3584 1831 3584 
Q 2591 3584 2966 3190 
Q 3341 2797 3341 1997 
z
" transform="scale(0.015625)"/>
       <path id="DejaVuSans-6c" d="M 603 4863 
L 1178 4863 
L 1178 0 
L 603 0 
L 603 4863 
z
" transform="scale(0.015625)"/>
       <path id="DejaVuSans-64" d="M 2906 2969 
L 2906 4863 
L 3481 4863 
L 3481 0 
L 2906 0 
L 2906 525 
Q 2725 213 2448 61 
Q 2172 -91 1784 -91 
Q 1150 -91 751 415 
Q 353 922 353 1747 
Q 353 2572 751 3078 
Q 1150 3584 1784 3584 
Q 2172 3584 2448 3432 
Q 2725 3281 2906 2969 
z
M 947 1747 
Q 947 1113 1208 752 
Q 1469 391 1925 391 
Q 2381 391 2643 752 
Q 2906 1113 2906 1747 
Q 2906 2381 2643 2742 
Q 2381 3103 1925 3103 
Q 1469 3103 1208 2742 
Q 947 2381 947 1747 
z
" transform="scale(0.015625)"/>
       <path id="DejaVuSans-74" d="M 1172 4494 
L 1172 3500 
L 2356 3500 
L 2356 3053 
L 1172 3053 
L 1172 1153 
Q 1172 725 1289 603 
Q 1406 481 1766 481 
L 2356 481 
L 2356 0 
L 1766 0 
Q 1100 0 847 248 
Q 594 497 594 1153 
L 594 3053 
L 172 3053 
L 172 3500 
L 594 3500 
L 594 4494 
L 1172 4494 
z
" transform="scale(0.015625)"/>
       <path id="DejaVuSans-79" d="M 2059 -325 
Q 1816 -950 1584 -1140 
Q 1353 -1331 966 -1331 
L 506 -1331 
L 506 -850 
L 844 -850 
Q 1081 -850 1212 -737 
Q 1344 -625 1503 -206 
L 1606 56 
L 191 3500 
L 800 3500 
L 1894 763 
L 2988 3500 
L 3597 3500 
L 2059 -325 
z
" transform="scale(0.015625)"/>
      </defs>
      <use xlink:href="#DejaVuSans-45"/>
      <use xlink:href="#DejaVuSans-6d" x="63.183594"/>
      <use xlink:href="#DejaVuSans-70" x="160.595703"/>
      <use xlink:href="#DejaVuSans-72" x="224.072266"/>
      <use xlink:href="#DejaVuSans-69" x="265.185547"/>
      <use xlink:href="#DejaVuSans-63" x="292.96875"/>
      <use xlink:href="#DejaVuSans-69" x="347.949219"/>
      <use xlink:href="#DejaVuSans-61" x="375.732422"/>
      <use xlink:href="#DejaVuSans-6c" x="437.011719"/>
      <use xlink:href="#DejaVuSans-20" x="464.794922"/>
      <use xlink:href="#DejaVuSans-64" x="496.582031"/>
      <use xlink:href="#DejaVuSans-65" x="560.058594"/>
      <use xlink:href="#DejaVuSans-6e" x="621.582031"/>
      <use xlink:href="#DejaVuSans-73" x="684.960938"/>
      <use xlink:href="#DejaVuSans-69" x="737.060547"/>
      <use xlink:href="#DejaVuSans-74" x="764.84375"/>
      <use xlink:href="#DejaVuSans-79" x="804.052734"/>
     </g>
    </g>
   </g>
   <g id="patch_3">
    <path d="M 235.396122 307.584 
L 235.396122 302.411755 
L 244.341854 302.411755 
L 244.341854 307.584 
L 253.287585 307.584 
L 253.287585 307.584 
L 262.233316 307.584 
L 262.233316 307.584 
L 271.179048 307.584 
L 271.179048 302.411755 
L 280.124779 302.411755 
L 280.124779 297.23951 
L 289.07051 297.23951 
L 289.07051 292.067265 
L 298.016241 292.067265 
L 298.016241 302.411755 
L 306.961973 302.411755 
L 306.961973 302.411755 
L 315.907704 302.411755 
L 315.907704 292.067265 
L 324.853435 292.067265 
L 324.853435 276.550531 
L 333.799167 276.550531 
L 333.799167 276.550531 
L 342.744898 276.550531 
L 342.744898 266.206041 
L 351.690629 266.206041 
L 351.690629 261.033796 
L 360.636361 261.033796 
L 360.636361 276.550531 
L 369.582092 276.550531 
L 369.582092 214.483592 
L 378.527823 214.483592 
L 378.527823 219.655837 
L 387.473555 219.655837 
L 387.473555 230.000327 
L 396.419286 230.000327 
L 396.419286 80.005224 
L 405.365017 80.005224 
L 405.365017 54.144 
L 414.310749 54.144 
L 414.310749 307.584 
" clip-path="url(#p936a5cd249)" style="fill: none; stroke: #0000ff; stroke-width: 4; stroke-linejoin: miter"/>
   </g>
   <g id="patch_4">
    <path d="M 97.471749 307.584 
L 97.471749 283.350228 
L 108.927542 283.350228 
L 108.927542 287.38919 
L 120.383334 287.38919 
L 120.383334 279.311265 
L 131.839127 279.311265 
L 131.839127 299.506076 
L 143.29492 299.506076 
L 143.29492 275.272303 
L 154.750713 275.272303 
L 154.750713 255.077493 
L 166.206506 255.077493 
L 166.206506 279.311265 
L 177.662299 279.311265 
L 177.662299 287.38919 
L 189.118092 287.38919 
L 189.118092 271.233341 
L 200.573885 271.233341 
L 200.573885 263.155417 
L 212.029678 263.155417 
L 212.029678 263.155417 
L 223.485471 263.155417 
L 223.485471 230.84372 
L 234.941264 230.84372 
L 234.941264 251.038531 
L 246.397056 251.038531 
L 246.397056 218.726834 
L 257.852849 218.726834 
L 257.852849 230.84372 
L 269.308642 230.84372 
L 269.308642 283.350228 
L 280.764435 283.350228 
L 280.764435 267.194379 
L 292.220228 267.194379 
L 292.220228 271.233341 
L 303.676021 271.233341 
L 303.676021 283.350228 
L 315.131814 283.350228 
L 315.131814 303.545038 
L 326.587607 303.545038 
L 326.587607 307.584 
" clip-path="url(#p936a5cd249)" style="fill: none; stroke: #ff0000; stroke-width: 4; stroke-linejoin: miter"/>
   </g>
   <g id="patch_5">
    <path d="M 57.60006 307.584 
L 57.60006 233.290324 
L 73.183667 233.290324 
L 73.183667 235.083602 
L 88.767272 235.083602 
L 88.767272 237.984104 
L 104.35088 237.984104 
L 104.35088 243.808767 
L 119.934486 243.808767 
L 119.934486 249.443881 
L 135.518092 249.443881 
L 135.518092 256.660102 
L 151.101697 256.660102 
L 151.101697 264.110041 
L 166.685303 264.110041 
L 166.685303 272.031752 
L 182.268919 272.031752 
L 182.268919 279.056234 
L 197.852524 279.056234 
L 197.852524 285.344039 
L 213.43613 285.344039 
L 213.43613 291.387355 
L 229.019735 291.387355 
L 229.019735 296.204997 
L 244.603352 296.204997 
L 244.603352 299.999424 
L 260.186946 299.999424 
L 260.186946 302.90423 
L 275.770563 302.90423 
L 275.770563 304.776134 
L 291.354158 304.776134 
L 291.354158 306.188147 
L 306.937774 306.188147 
L 306.937774 306.898997 
L 322.521369 306.898997 
L 322.521369 307.31043 
L 338.104985 307.31043 
L 338.104985 307.501067 
L 353.68858 307.501067 
L 353.68858 307.564613 
L 369.272196 307.564613 
L 369.272196 307.584 
" clip-path="url(#p936a5cd249)" style="fill: none; opacity: 0.4; stroke: #808080; stroke-width: 4; stroke-linejoin: miter"/>
   </g>
   <g id="patch_6">
    <path d="M 57.6 307.584 
L 57.6 41.472 
" style="fill: none; stroke: #000000; stroke-width: 0.8; stroke-linejoin: miter; stroke-linecap: square"/>
   </g>
   <g id="patch_7">
    <path d="M 414.72 307.584 
L 414.72 41.472 
" style="fill: none; stroke: #000000; stroke-width: 0.8; stroke-linejoin: miter; stroke-linecap: square"/>
   </g>
   <g id="patch_8">
    <path d="M 57.6 307.584 
L 414.72 307.584 
" style="fill: none; stroke: #000000; stroke-width: 0.8; stroke-linejoin: miter; stroke-linecap: square"/>
   </g>
   <g id="patch_9">
    <path d="M 57.6 41.472 
L 414.72 41.472 
" style="fill: none; stroke: #000000; stroke-width: 0.8; stroke-linejoin: miter; stroke-linecap: square"/>
   </g>
   <g id="text_15">
    <!-- PC3 alignment across probes when... -->
    <g transform="translate(50.895937 35.472) scale(0.2 -0.2)">
     <defs>
      <path id="DejaVuSans-67" d="M 2906 1791 
Q 2906 2416 2648 2759 
Q 2391 3103 1925 3103 
Q 1463 3103 1205 2759 
Q 947 2416 947 1791 
Q 947 1169 1205 825 
Q 1463 481 1925 481 
Q 2391 481 2648 825 
Q 2906 1169 2906 1791 
z
M 3481 434 
Q 3481 -459 3084 -895 
Q 2688 -1331 1869 -1331 
Q 1566 -1331 1297 -1286 
Q 1028 -1241 775 -1147 
L 775 -588 
Q 1028 -725 1275 -790 
Q 1522 -856 1778 -856 
Q 2344 -856 2625 -561 
Q 2906 -266 2906 331 
L 2906 616 
Q 2728 306 2450 153 
Q 2172 0 1784 0 
Q 1141 0 747 490 
Q 353 981 353 1791 
Q 353 2603 747 3093 
Q 1141 3584 1784 3584 
Q 2172 3584 2450 3431 
Q 2728 3278 2906 2969 
L 2906 3500 
L 3481 3500 
L 3481 434 
z
" transform="scale(0.015625)"/>
      <path id="DejaVuSans-62" d="M 3116 1747 
Q 3116 2381 2855 2742 
Q 2594 3103 2138 3103 
Q 1681 3103 1420 2742 
Q 1159 2381 1159 1747 
Q 1159 1113 1420 752 
Q 1681 391 2138 391 
Q 2594 391 2855 752 
Q 3116 1113 3116 1747 
z
M 1159 2969 
Q 1341 3281 1617 3432 
Q 1894 3584 2278 3584 
Q 2916 3584 3314 3078 
Q 3713 2572 3713 1747 
Q 3713 922 3314 415 
Q 2916 -91 2278 -91 
Q 1894 -91 1617 61 
Q 1341 213 1159 525 
L 1159 0 
L 581 0 
L 581 4863 
L 1159 4863 
L 1159 2969 
z
" transform="scale(0.015625)"/>
      <path id="DejaVuSans-77" d="M 269 3500 
L 844 3500 
L 1563 769 
L 2278 3500 
L 2956 3500 
L 3675 769 
L 4391 3500 
L 4966 3500 
L 4050 0 
L 3372 0 
L 2619 2869 
L 1863 0 
L 1184 0 
L 269 3500 
z
" transform="scale(0.015625)"/>
      <path id="DejaVuSans-68" d="M 3513 2113 
L 3513 0 
L 2938 0 
L 2938 2094 
Q 2938 2591 2744 2837 
Q 2550 3084 2163 3084 
Q 1697 3084 1428 2787 
Q 1159 2491 1159 1978 
L 1159 0 
L 581 0 
L 581 4863 
L 1159 4863 
L 1159 2956 
Q 1366 3272 1645 3428 
Q 1925 3584 2291 3584 
Q 2894 3584 3203 3211 
Q 3513 2838 3513 2113 
z
" transform="scale(0.015625)"/>
     </defs>
     <use xlink:href="#DejaVuSans-50"/>
     <use xlink:href="#DejaVuSans-43" x="60.302734"/>
     <use xlink:href="#DejaVuSans-33" x="130.126953"/>
     <use xlink:href="#DejaVuSans-20" x="193.75"/>
     <use xlink:href="#DejaVuSans-61" x="225.537109"/>
     <use xlink:href="#DejaVuSans-6c" x="286.816406"/>
     <use xlink:href="#DejaVuSans-69" x="314.599609"/>
     <use xlink:href="#DejaVuSans-67" x="342.382812"/>
     <use xlink:href="#DejaVuSans-6e" x="405.859375"/>
     <use xlink:href="#DejaVuSans-6d" x="469.238281"/>
     <use xlink:href="#DejaVuSans-65" x="566.650391"/>
     <use xlink:href="#DejaVuSans-6e" x="628.173828"/>
     <use xlink:href="#DejaVuSans-74" x="691.552734"/>
     <use xlink:href="#DejaVuSans-20" x="730.761719"/>
     <use xlink:href="#DejaVuSans-61" x="762.548828"/>
     <use xlink:href="#DejaVuSans-63" x="823.828125"/>
     <use xlink:href="#DejaVuSans-72" x="878.808594"/>
     <use xlink:href="#DejaVuSans-6f" x="917.671875"/>
     <use xlink:href="#DejaVuSans-73" x="978.853516"/>
     <use xlink:href="#DejaVuSans-73" x="1030.953125"/>
     <use xlink:href="#DejaVuSans-20" x="1083.052734"/>
     <use xlink:href="#DejaVuSans-70" x="1114.839844"/>
     <use xlink:href="#DejaVuSans-72" x="1178.316406"/>
     <use xlink:href="#DejaVuSans-6f" x="1217.179688"/>
     <use xlink:href="#DejaVuSans-62" x="1278.361328"/>
     <use xlink:href="#DejaVuSans-65" x="1341.837891"/>
     <use xlink:href="#DejaVuSans-73" x="1403.361328"/>
     <use xlink:href="#DejaVuSans-20" x="1455.460938"/>
     <use xlink:href="#DejaVuSans-77" x="1487.248047"/>
     <use xlink:href="#DejaVuSans-68" x="1569.035156"/>
     <use xlink:href="#DejaVuSans-65" x="1632.414062"/>
     <use xlink:href="#DejaVuSans-6e" x="1693.9375"/>
     <use xlink:href="#DejaVuSans-2e" x="1757.316406"/>
     <use xlink:href="#DejaVuSans-2e" x="1789.103516"/>
     <use xlink:href="#DejaVuSans-2e" x="1820.890625"/>
    </g>
   </g>
   <g id="legend_1">
    <g id="patch_10">
     <path d="M 70.2 135.133875 
L 369.106875 135.133875 
Q 372.706875 135.133875 372.706875 131.533875 
L 372.706875 54.072 
Q 372.706875 50.472 369.106875 50.472 
L 70.2 50.472 
Q 66.6 50.472 66.6 54.072 
L 66.6 131.533875 
Q 66.6 135.133875 70.2 135.133875 
z
" style="fill: #ffffff; opacity: 0.8; stroke: #cccccc; stroke-linejoin: miter"/>
    </g>
    <g id="patch_11">
     <path d="M 73.8 71.349187 
L 109.8 71.349187 
L 109.8 58.749187 
L 73.8 58.749187 
L 73.8 71.349187 
z
" style="fill: none; stroke: #0000ff; stroke-width: 4; stroke-linejoin: miter"/>
    </g>
    <g id="text_16">
     <!-- fixed reports are the same -->
     <g transform="translate(124.2 71.349187) scale(0.18 -0.18)">
      <defs>
       <path id="DejaVuSans-66" d="M 2375 4863 
L 2375 4384 
L 1825 4384 
Q 1516 4384 1395 4259 
Q 1275 4134 1275 3809 
L 1275 3500 
L 2222 3500 
L 2222 3053 
L 1275 3053 
L 1275 0 
L 697 0 
L 697 3053 
L 147 3053 
L 147 3500 
L 697 3500 
L 697 3744 
Q 697 4328 969 4595 
Q 1241 4863 1831 4863 
L 2375 4863 
z
" transform="scale(0.015625)"/>
       <path id="DejaVuSans-78" d="M 3513 3500 
L 2247 1797 
L 3578 0 
L 2900 0 
L 1881 1375 
L 863 0 
L 184 0 
L 1544 1831 
L 300 3500 
L 978 3500 
L 1906 2253 
L 2834 3500 
L 3513 3500 
z
" transform="scale(0.015625)"/>
      </defs>
      <use xlink:href="#DejaVuSans-66"/>
      <use xlink:href="#DejaVuSans-69" x="35.205078"/>
      <use xlink:href="#DejaVuSans-78" x="62.988281"/>
      <use xlink:href="#DejaVuSans-65" x="119.042969"/>
      <use xlink:href="#DejaVuSans-64" x="180.566406"/>
      <use xlink:href="#DejaVuSans-20" x="244.042969"/>
      <use xlink:href="#DejaVuSans-72" x="275.830078"/>
      <use xlink:href="#DejaVuSans-65" x="314.693359"/>
      <use xlink:href="#DejaVuSans-70" x="376.216797"/>
      <use xlink:href="#DejaVuSans-6f" x="439.693359"/>
      <use xlink:href="#DejaVuSans-72" x="500.875"/>
      <use xlink:href="#DejaVuSans-74" x="541.988281"/>
      <use xlink:href="#DejaVuSans-73" x="581.197266"/>
      <use xlink:href="#DejaVuSans-20" x="633.296875"/>
      <use xlink:href="#DejaVuSans-61" x="665.083984"/>
      <use xlink:href="#DejaVuSans-72" x="726.363281"/>
      <use xlink:href="#DejaVuSans-65" x="765.226562"/>
      <use xlink:href="#DejaVuSans-20" x="826.75"/>
      <use xlink:href="#DejaVuSans-74" x="858.537109"/>
      <use xlink:href="#DejaVuSans-68" x="897.746094"/>
      <use xlink:href="#DejaVuSans-65" x="961.125"/>
      <use xlink:href="#DejaVuSans-20" x="1022.648438"/>
      <use xlink:href="#DejaVuSans-73" x="1054.435547"/>
      <use xlink:href="#DejaVuSans-61" x="1106.535156"/>
      <use xlink:href="#DejaVuSans-6d" x="1167.814453"/>
      <use xlink:href="#DejaVuSans-65" x="1265.226562"/>
     </g>
    </g>
    <g id="patch_12">
     <path d="M 73.8 97.769812 
L 109.8 97.769812 
L 109.8 85.169812 
L 73.8 85.169812 
L 73.8 97.769812 
z
" style="fill: none; stroke: #ff0000; stroke-width: 4; stroke-linejoin: miter"/>
    </g>
    <g id="text_17">
     <!-- fixed reports are opposites -->
     <g transform="translate(124.2 97.769812) scale(0.18 -0.18)">
      <use xlink:href="#DejaVuSans-66"/>
      <use xlink:href="#DejaVuSans-69" x="35.205078"/>
      <use xlink:href="#DejaVuSans-78" x="62.988281"/>
      <use xlink:href="#DejaVuSans-65" x="119.042969"/>
      <use xlink:href="#DejaVuSans-64" x="180.566406"/>
      <use xlink:href="#DejaVuSans-20" x="244.042969"/>
      <use xlink:href="#DejaVuSans-72" x="275.830078"/>
      <use xlink:href="#DejaVuSans-65" x="314.693359"/>
      <use xlink:href="#DejaVuSans-70" x="376.216797"/>
      <use xlink:href="#DejaVuSans-6f" x="439.693359"/>
      <use xlink:href="#DejaVuSans-72" x="500.875"/>
      <use xlink:href="#DejaVuSans-74" x="541.988281"/>
      <use xlink:href="#DejaVuSans-73" x="581.197266"/>
      <use xlink:href="#DejaVuSans-20" x="633.296875"/>
      <use xlink:href="#DejaVuSans-61" x="665.083984"/>
      <use xlink:href="#DejaVuSans-72" x="726.363281"/>
      <use xlink:href="#DejaVuSans-65" x="765.226562"/>
      <use xlink:href="#DejaVuSans-20" x="826.75"/>
      <use xlink:href="#DejaVuSans-6f" x="858.537109"/>
      <use xlink:href="#DejaVuSans-70" x="919.71875"/>
      <use xlink:href="#DejaVuSans-70" x="983.195312"/>
      <use xlink:href="#DejaVuSans-6f" x="1046.671875"/>
      <use xlink:href="#DejaVuSans-73" x="1107.853516"/>
      <use xlink:href="#DejaVuSans-69" x="1159.953125"/>
      <use xlink:href="#DejaVuSans-74" x="1187.736328"/>
      <use xlink:href="#DejaVuSans-65" x="1226.945312"/>
      <use xlink:href="#DejaVuSans-73" x="1288.46875"/>
     </g>
    </g>
    <g id="patch_13">
     <path d="M 73.8 124.190437 
L 109.8 124.190437 
L 109.8 111.590437 
L 73.8 111.590437 
L 73.8 124.190437 
z
" style="fill: none; opacity: 0.4; stroke: #808080; stroke-width: 4; stroke-linejoin: miter"/>
    </g>
    <g id="text_18">
     <!-- Null distribution for $\mathbb{R}^n$ -->
     <g transform="translate(124.2 124.190437) scale(0.18 -0.18)">
      <defs>
       <path id="DejaVuSans-4e" d="M 628 4666 
L 1478 4666 
L 3547 763 
L 3547 4666 
L 4159 4666 
L 4159 0 
L 3309 0 
L 1241 3903 
L 1241 0 
L 628 0 
L 628 4666 
z
" transform="scale(0.015625)"/>
       <path id="DejaVuSans-75" d="M 544 1381 
L 544 3500 
L 1119 3500 
L 1119 1403 
Q 1119 906 1312 657 
Q 1506 409 1894 409 
Q 2359 409 2629 706 
Q 2900 1003 2900 1516 
L 2900 3500 
L 3475 3500 
L 3475 0 
L 2900 0 
L 2900 538 
Q 2691 219 2414 64 
Q 2138 -91 1772 -91 
Q 1169 -91 856 284 
Q 544 659 544 1381 
z
M 1991 3584 
L 1991 3584 
z
" transform="scale(0.015625)"/>
       <path id="STIXGeneral-Italic-211d" d="M 1229 4179 
L 3360 4179 
Q 3827 4179 4108 3894 
Q 4390 3610 4390 3142 
Q 4390 2554 4060 2186 
Q 3731 1818 3149 1715 
L 4026 0 
L 2925 0 
L 2125 1690 
L 1549 1690 
L 1094 0 
L 109 0 
L 1229 4179 
z
M 3866 3821 
L 3392 2022 
Q 3770 2144 3962 2438 
Q 4154 2733 4154 3136 
Q 4154 3584 3866 3821 
z
M 3142 1978 
L 3648 3872 
Q 3450 3942 3296 3942 
L 2150 3942 
L 1613 1926 
L 2630 1926 
Q 2957 1926 3142 1978 
z
M 3629 237 
L 2899 1696 
Q 2829 1683 2682 1683 
Q 2630 1683 2531 1686 
Q 2432 1690 2387 1690 
L 3072 237 
L 3629 237 
z
M 1907 3942 
L 1408 3942 
L 416 237 
L 915 237 
L 1907 3942 
z
" transform="scale(0.015625)"/>
       <path id="DejaVuSans-Oblique-6e" d="M 3566 2113 
L 3156 0 
L 2578 0 
L 2988 2091 
Q 3016 2238 3031 2350 
Q 3047 2463 3047 2528 
Q 3047 2791 2881 2937 
Q 2716 3084 2419 3084 
Q 1956 3084 1622 2776 
Q 1288 2469 1184 1941 
L 800 0 
L 225 0 
L 903 3500 
L 1478 3500 
L 1363 2950 
Q 1603 3253 1940 3418 
Q 2278 3584 2650 3584 
Q 3113 3584 3367 3334 
Q 3622 3084 3622 2631 
Q 3622 2519 3608 2391 
Q 3594 2263 3566 2113 
z
" transform="scale(0.015625)"/>
      </defs>
      <use xlink:href="#DejaVuSans-4e" transform="translate(0 0.51875)"/>
      <use xlink:href="#DejaVuSans-75" transform="translate(74.804688 0.51875)"/>
      <use xlink:href="#DejaVuSans-6c" transform="translate(138.183594 0.51875)"/>
      <use xlink:href="#DejaVuSans-6c" transform="translate(165.966797 0.51875)"/>
      <use xlink:href="#DejaVuSans-20" transform="translate(193.75 0.51875)"/>
      <use xlink:href="#DejaVuSans-64" transform="translate(225.537109 0.51875)"/>
      <use xlink:href="#DejaVuSans-69" transform="translate(289.013672 0.51875)"/>
      <use xlink:href="#DejaVuSans-73" transform="translate(316.796875 0.51875)"/>
      <use xlink:href="#DejaVuSans-74" transform="translate(368.896484 0.51875)"/>
      <use xlink:href="#DejaVuSans-72" transform="translate(408.105469 0.51875)"/>
      <use xlink:href="#DejaVuSans-69" transform="translate(449.21875 0.51875)"/>
      <use xlink:href="#DejaVuSans-62" transform="translate(477.001953 0.51875)"/>
      <use xlink:href="#DejaVuSans-75" transform="translate(540.478516 0.51875)"/>
      <use xlink:href="#DejaVuSans-74" transform="translate(603.857422 0.51875)"/>
      <use xlink:href="#DejaVuSans-69" transform="translate(643.066406 0.51875)"/>
      <use xlink:href="#DejaVuSans-6f" transform="translate(670.849609 0.51875)"/>
      <use xlink:href="#DejaVuSans-6e" transform="translate(732.03125 0.51875)"/>
      <use xlink:href="#DejaVuSans-20" transform="translate(795.410156 0.51875)"/>
      <use xlink:href="#DejaVuSans-66" transform="translate(827.197266 0.51875)"/>
      <use xlink:href="#DejaVuSans-6f" transform="translate(862.402344 0.51875)"/>
      <use xlink:href="#DejaVuSans-72" transform="translate(923.583984 0.51875)"/>
      <use xlink:href="#DejaVuSans-20" transform="translate(964.697266 0.51875)"/>
      <use xlink:href="#STIXGeneral-Italic-211d" transform="translate(996.484375 0.51875)"/>
      <use xlink:href="#DejaVuSans-Oblique-6e" transform="translate(1071.135815 38.8) scale(0.7)"/>
     </g>
    </g>
   </g>
  </g>
 </g>
 <defs>
  <clipPath id="p936a5cd249">
   <rect x="57.6" y="41.472" width="357.12" height="266.112"/>
  </clipPath>
 </defs>
</svg>
